<svg xmlns="http://www.w3.org/2000/svg" xmlns:xlink="http://www.w3.org/1999/xlink" width="37.889" height="31.441" viewBox="0 0 37.889 31.441">
  <defs>
    <clipPath id="clip-path">
      <rect id="Rectángulo_150" data-name="Rectángulo 150" width="37.889" height="31.441" fill="none"/>
    </clipPath>
  </defs>
  <g id="icon_contact_promover" transform="translate(0 0)">
    <g id="Grupo_132" data-name="Grupo 132" transform="translate(0 0)">
      <g id="Grupo_131" data-name="Grupo 131" clip-path="url(#clip-path)">
        <rect id="Rectángulo_149" data-name="Rectángulo 149" width="16.161" height="12.488" transform="translate(14.344 18.496)" fill="none" stroke="#2b824a" stroke-linecap="round" stroke-linejoin="round" stroke-width="1"/>
        <path id="Trazado_2056" data-name="Trazado 2056" d="M10.543,17.127l4.691,2.815V32.429l-4.691-2.815V23.081" transform="translate(-0.89 -1.445)" fill="none" stroke="#2b824a" stroke-linecap="round" stroke-linejoin="round" stroke-width="1"/>
      </g>
    </g>
    <path id="Trazado_2057" data-name="Trazado 2057" d="M10.543,17.127H26.935l4.46,2.815H15.234Z" transform="translate(-0.89 -1.446)" fill="none" stroke="#2b824a" stroke-linecap="round" stroke-linejoin="round" stroke-width="1"/>
    <g id="Grupo_134" data-name="Grupo 134" transform="translate(0 0)">
      <g id="Grupo_133" data-name="Grupo 133" clip-path="url(#clip-path)">
        <path id="Trazado_2058" data-name="Trazado 2058" d="M.5,23.435l9.2-6.307,4.691,2.815L4.96,26.249Z" transform="translate(-0.042 -1.445)" fill="none" stroke="#2b824a" stroke-linecap="round" stroke-linejoin="round" stroke-width="1"/>
        <path id="Trazado_2059" data-name="Trazado 2059" d="M33,21.688l2.139,2.141,4.691,2.815-6.925-6.7-4.46-2.815" transform="translate(-2.401 -1.446)" fill="none" stroke="#2b824a" stroke-linecap="round" stroke-linejoin="round" stroke-width="1"/>
        <path id="Trazado_2060" data-name="Trazado 2060" d="M30,8.152a7.3,7.3,0,0,1-6.563,3.958A7.31,7.31,0,0,1,29.427.5,7.325,7.325,0,0,1,30,8.152Z" transform="translate(-1.86 -0.042)" fill="none" stroke="#2b824a" stroke-linecap="round" stroke-linejoin="round" stroke-width="1"/>
        <path id="Trazado_2061" data-name="Trazado 2061" d="M28.152,3.281l-4.677,9.063c-.664,1.227-.99,6.428-.99,6.428" transform="translate(-1.898 -0.277)" fill="none" stroke="#2b824a" stroke-linecap="round" stroke-linejoin="round" stroke-width="1"/>
        <line id="Línea_635" data-name="Línea 635" y1="0.31" x2="3.281" transform="translate(23.202 8.57)" fill="none" stroke="#2b824a" stroke-linecap="round" stroke-linejoin="round" stroke-width="1"/>
        <line id="Línea_636" data-name="Línea 636" y1="0.202" x2="2.139" transform="translate(24.567 6.12)" fill="none" stroke="#2b824a" stroke-linecap="round" stroke-linejoin="round" stroke-width="1"/>
        <line id="Línea_637" data-name="Línea 637" y1="0.138" x2="1.466" transform="translate(25.569 4.189)" fill="none" stroke="#2b824a" stroke-linecap="round" stroke-linejoin="round" stroke-width="1"/>
        <line id="Línea_638" data-name="Línea 638" x1="1.6" y1="2.88" transform="translate(21.603 5.996)" fill="none" stroke="#2b824a" stroke-linecap="round" stroke-linejoin="round" stroke-width="1"/>
        <line id="Línea_639" data-name="Línea 639" x1="1.043" y1="1.878" transform="translate(23.498 4.445)" fill="none" stroke="#2b824a" stroke-linecap="round" stroke-linejoin="round" stroke-width="1"/>
        <line id="Línea_640" data-name="Línea 640" x1="0.715" y1="1.287" transform="translate(24.854 3.044)" fill="none" stroke="#2b824a" stroke-linecap="round" stroke-linejoin="round" stroke-width="1"/>
        <path id="Trazado_2062" data-name="Trazado 2062" d="M18,8.237a7.3,7.3,0,0,1,1.936,7.415A7.311,7.311,0,0,1,10.5,6.617,7.328,7.328,0,0,1,18,8.237Z" transform="translate(-0.86 -0.523)" fill="none" stroke="#2b824a" stroke-linecap="round" stroke-linejoin="round" stroke-width="1"/>
        <path id="Trazado_2063" data-name="Trazado 2063" d="M12.792,8.819l7.366,7.054a11.869,11.869,0,0,1,1.509,2.109" transform="translate(-1.08 -0.744)" fill="none" stroke="#2b824a" stroke-linecap="round" stroke-linejoin="round" stroke-width="1"/>
        <line id="Línea_641" data-name="Línea 641" y1="3.234" x2="0.633" transform="translate(16.482 9.434)" fill="none" stroke="#2b824a" stroke-linecap="round" stroke-linejoin="round" stroke-width="1"/>
        <line id="Línea_642" data-name="Línea 642" y1="2.109" x2="0.413" transform="translate(14.416 8.524)" fill="none" stroke="#2b824a" stroke-linecap="round" stroke-linejoin="round" stroke-width="1"/>
        <line id="Línea_643" data-name="Línea 643" y1="1.446" x2="0.283" transform="translate(12.786 7.661)" fill="none" stroke="#2b824a" stroke-linecap="round" stroke-linejoin="round" stroke-width="1"/>
        <line id="Línea_644" data-name="Línea 644" x1="3.216" y2="0.718" transform="translate(13.262 12.666)" fill="none" stroke="#2b824a" stroke-linecap="round" stroke-linejoin="round" stroke-width="1"/>
        <line id="Línea_645" data-name="Línea 645" x1="2.097" y2="0.468" transform="translate(12.312 10.658)" fill="none" stroke="#2b824a" stroke-linecap="round" stroke-linejoin="round" stroke-width="1"/>
        <line id="Línea_646" data-name="Línea 646" x1="1.437" y2="0.32" transform="translate(11.353 9.108)" fill="none" stroke="#2b824a" stroke-linecap="round" stroke-linejoin="round" stroke-width="1"/>
      </g>
    </g>
  </g>
</svg>
