<svg id="icon_timeline_co2" xmlns="http://www.w3.org/2000/svg" width="78.235" height="78.425" viewBox="0 0 78.235 78.425">
  <path id="Trazado_1927" data-name="Trazado 1927" d="M438.779,18.425c0,21.6-17.513,60-39.118,60a39.118,39.118,0,0,1,0-78.235c21.6,0,39.118-3.37,39.118,18.234" transform="translate(-360.544 -0.001)" fill="#ffdc8c"/>
  <path id="Trazado_1946" data-name="Trazado 1946" d="M415.662,16.142a14.588,14.588,0,0,0-28.8-.669A10.7,10.7,0,0,0,376,33.179a16.573,16.573,0,0,0-.1,1.749A16.372,16.372,0,0,0,382.424,48a10.456,10.456,0,1,0,19.8,0,16.274,16.274,0,0,0,6-17.1,14.585,14.585,0,0,0,7.438-14.764" transform="translate(-358.94 0.457)" fill="#96e0aa"/>
  <path id="Trazado_1947" data-name="Trazado 1947" d="M380.622,13.681c-.261,3.659,3.956,7.19,5.7,7.545a32.011,32.011,0,0,1-.556-6.507l-1.613-.944Z" transform="translate(-357.948 1.769)" fill="#59b377"/>
  <path id="Trazado_1948" data-name="Trazado 1948" d="M410.289,55.724a5.225,5.225,0,1,1-5.224-5.224,5.224,5.224,0,0,1,5.224,5.224" transform="translate(-355.46 6.533)" fill="#59b377"/>
  <path id="Trazado_1949" data-name="Trazado 1949" d="M409.765,55.724A5.226,5.226,0,1,1,404.54,50.5,5.225,5.225,0,0,1,409.765,55.724Z" transform="translate(-355.528 6.533)" fill="none" stroke="#2b824a" stroke-linecap="round" stroke-linejoin="round" stroke-width="1"/>
  <path id="Trazado_1950" data-name="Trazado 1950" d="M408.365,45.84a1.107,1.107,0,1,1-1.108-1.108,1.108,1.108,0,0,1,1.108,1.108" transform="translate(-354.644 5.787)" fill="#2b824a"/>
  <path id="Trazado_1951" data-name="Trazado 1951" d="M378.915,43.879a1.107,1.107,0,1,1-1.108-1.108,1.108,1.108,0,0,1,1.108,1.108" transform="translate(-358.454 5.533)" fill="#2b824a"/>
  <path id="Trazado_1952" data-name="Trazado 1952" d="M408.365,32.018a1.107,1.107,0,1,1-1.108-1.108,1.108,1.108,0,0,1,1.108,1.108" transform="translate(-354.644 3.998)" fill="#2b824a"/>
  <path id="Trazado_1953" data-name="Trazado 1953" d="M381.416,7.037a1.107,1.107,0,1,1-1.108-1.108,1.108,1.108,0,0,1,1.108,1.108" transform="translate(-358.13 0.767)" fill="#2b824a"/>
  <path id="Trazado_1954" data-name="Trazado 1954" d="M407.891,29.539a16.252,16.252,0,0,1-6.008,17.1,10.232,10.232,0,0,1,.565,3.343,10.458,10.458,0,1,1-20.363-3.343,16.359,16.359,0,0,1-6.517-13.078c0-.136,0-.282.011-.418a13.491,13.491,0,0,0,24.586-7.668,12.579,12.579,0,0,0-.147-1.965q.39.034.779.034a13.487,13.487,0,0,0,13.462-12.57,14.581,14.581,0,0,1-6.37,18.567" transform="translate(-358.6 1.419)" fill="#59b377"/>
  <path id="Trazado_1955" data-name="Trazado 1955" d="M380.233,34.539a10.709,10.709,0,0,1,3.415-20.858" transform="translate(-358.94 1.769)" fill="none" stroke="#2b824a" stroke-linecap="round" stroke-linejoin="round" stroke-width="1"/>
  <path id="Trazado_1956" data-name="Trazado 1956" d="M385.977,23.209a14.593,14.593,0,1,1,28.118-7.115" transform="translate(-357.374 0.45)" fill="none" stroke="#2b824a" stroke-linecap="round" stroke-linejoin="round" stroke-width="1"/>
  <path id="Trazado_1957" data-name="Trazado 1957" d="M415.662,16.142a14.588,14.588,0,0,0-28.8-.669A10.7,10.7,0,0,0,376,33.179a16.573,16.573,0,0,0-.1,1.749A16.372,16.372,0,0,0,382.424,48a10.456,10.456,0,1,0,19.8,0,16.274,16.274,0,0,0,6-17.1A14.585,14.585,0,0,0,415.662,16.142Z" transform="translate(-358.94 0.457)" fill="none" stroke="#2b824a" stroke-linecap="round" stroke-linejoin="round" stroke-width="1"/>
  <path id="Trazado_1958" data-name="Trazado 1958" d="M399.976,42.552a8.389,8.389,0,0,1-5.769,1.355" transform="translate(-356.189 5.505)" fill="none" stroke="#2b824a" stroke-linecap="round" stroke-linejoin="round" stroke-width="1"/>
</svg>
