<svg xmlns="http://www.w3.org/2000/svg" width="78.235" height="78.425" viewBox="0 0 78.235 78.425">
  <g id="icon_timeline_ecochange" transform="translate(0)">
    <path id="Trazado_1926" data-name="Trazado 1926" d="M350.387,18.425c0,21.6-17.513,60-39.118,60a39.118,39.118,0,0,1,0-78.235c21.6,0,39.118-3.37,39.118,18.234" transform="translate(-272.152 -0.001)" fill="#ffdc8c"/>
    <path id="Trazado_1939" data-name="Trazado 1939" d="M315.635,36.764a8.883,8.883,0,0,1-17.765,0c0-10,7.958-19.08,8.883-19.08,1.158,0,8.883,9.409,8.883,19.08" transform="translate(-268.825 2.287)" fill="#96e0aa"/>
    <path id="Trazado_1940" data-name="Trazado 1940" d="M307,17.684V45.646s-7.445-.155-8.309-5,.282-16.937,8.309-22.959" transform="translate(-268.751 2.287)" fill="#59b377"/>
    <path id="Trazado_1941" data-name="Trazado 1941" d="M315.635,36.764a8.883,8.883,0,0,1-17.765,0c0-10,7.958-19.08,8.883-19.08C307.91,17.684,315.635,27.093,315.635,36.764Z" transform="translate(-268.825 2.287)" fill="none" stroke="#2b824a" stroke-miterlimit="10" stroke-width="1"/>
    <line id="Línea_616" data-name="Línea 616" y2="27.547" transform="translate(37.928 24.696)" fill="none" stroke="#2b824a" stroke-linecap="round" stroke-miterlimit="10" stroke-width="1"/>
    <line id="Línea_617" data-name="Línea 617" x1="5.142" y2="5.142" transform="translate(37.914 39.2)" fill="none" stroke="#2b824a" stroke-linecap="round" stroke-miterlimit="10" stroke-width="1"/>
    <line id="Línea_618" data-name="Línea 618" x1="4.004" y2="4.004" transform="translate(37.914 32.6)" fill="none" stroke="#2b824a" stroke-linecap="round" stroke-miterlimit="10" stroke-width="1"/>
    <line id="Línea_619" data-name="Línea 619" x1="2.356" y2="2.356" transform="translate(37.914 27.647)" fill="none" stroke="#2b824a" stroke-linecap="round" stroke-miterlimit="10" stroke-width="1"/>
    <line id="Línea_620" data-name="Línea 620" x2="5.142" y2="5.142" transform="translate(32.786 39.036)" fill="none" stroke="#2b824a" stroke-linecap="round" stroke-miterlimit="10" stroke-width="1"/>
    <line id="Línea_621" data-name="Línea 621" x2="4.004" y2="4.004" transform="translate(33.924 32.435)" fill="none" stroke="#2b824a" stroke-linecap="round" stroke-miterlimit="10" stroke-width="1"/>
    <line id="Línea_622" data-name="Línea 622" x2="2.356" y2="2.356" transform="translate(35.572 27.483)" fill="none" stroke="#2b824a" stroke-linecap="round" stroke-miterlimit="10" stroke-width="1"/>
    <path id="Trazado_1942" data-name="Trazado 1942" d="M338.911,33.062h-2.406a28.009,28.009,0,0,0-54.121-8.11l3.9,1.225a23.93,23.93,0,0,1,46.129,6.885h-2.133a.741.741,0,0,0-.524,1.266l4.314,4.314a.742.742,0,0,0,1.048,0l4.314-4.314a.741.741,0,0,0-.524-1.266" transform="translate(-270.828 0.894)" fill="#96e0aa"/>
    <path id="Trazado_1943" data-name="Trazado 1943" d="M309.092,56.128a23.96,23.96,0,0,1-23.816-21.655h2.471a.742.742,0,0,0,.525-1.266l-4.314-4.314a.743.743,0,0,0-1.049,0l-4.314,4.314a.742.742,0,0,0,.525,1.266h2.063a28.01,28.01,0,0,0,53.933,8.111l-3.9-1.205a23.99,23.99,0,0,1-22.122,14.748" transform="translate(-271.347 3.709)" fill="#96e0aa"/>
    <path id="Trazado_1944" data-name="Trazado 1944" d="M338.911,33.489h-2.406a28.009,28.009,0,0,0-54.121-8.11l3.9,1.225a23.93,23.93,0,0,1,46.129,6.885h-2.133a.741.741,0,0,0-.524,1.266l4.314,4.314a.742.742,0,0,0,1.048,0l4.314-4.314A.741.741,0,0,0,338.911,33.489Z" transform="translate(-270.828 0.949)" fill="none" stroke="#2b824a" stroke-miterlimit="10" stroke-width="1"/>
    <path id="Trazado_1945" data-name="Trazado 1945" d="M309.092,56.555A23.96,23.96,0,0,1,285.275,34.9h2.471a.742.742,0,0,0,.525-1.266l-4.314-4.314a.743.743,0,0,0-1.049,0l-4.314,4.314a.742.742,0,0,0,.525,1.266h2.063a28.01,28.01,0,0,0,53.933,8.111l-3.9-1.205A23.99,23.99,0,0,1,309.092,56.555Z" transform="translate(-271.347 3.765)" fill="none" stroke="#2b824a" stroke-miterlimit="10" stroke-width="1"/>
  </g>
</svg>
