<svg id="icon_benefic_park" xmlns="http://www.w3.org/2000/svg" xmlns:xlink="http://www.w3.org/1999/xlink" width="43.686" height="43.793" viewBox="0 0 43.686 43.793">
  <defs>
    <clipPath id="clip-path">
      <rect id="Rectángulo_122" data-name="Rectángulo 122" width="43.686" height="43.793" fill="none"/>
    </clipPath>
  </defs>
  <g id="Grupo_87" data-name="Grupo 87" transform="translate(0 0)" clip-path="url(#clip-path)">
    <path id="Trazado_1668" data-name="Trazado 1668" d="M43.686,10.288c0,12.064-9.779,33.5-21.842,33.5a21.843,21.843,0,1,1,0-43.686c12.064,0,21.842-1.881,21.842,10.182" transform="translate(0 0)" fill="#ffdc8c"/>
    <path id="Trazado_1669" data-name="Trazado 1669" d="M38.137,8.964a7.63,7.63,0,1,1-7.631-7.631,7.631,7.631,0,0,1,7.631,7.631" transform="translate(3.626 0.212)" fill="#96e0aa"/>
    <path id="Trazado_1670" data-name="Trazado 1670" d="M4.3,26.158l-.238-1.812,3.266-.234,2.54-4.189,1.6-.316,14.707.065,1.972,1.546,1.442,2.894h3.553l.228,2.046-2.727.592,2.4,1.857.515,2.974v5.564a2.06,2.06,0,0,1-2.31,2.276c-2.536-.043-2.93-1.908-2.93-1.908l-2.8.316H9.54l-.965.452-1.042,1.51H4.951l-.611-1.51-.554-7.105.275-2.835,1.828-.988Z" transform="translate(-1.886 -0.315)" fill="#96e0aa"/>
    <path id="Trazado_1671" data-name="Trazado 1671" d="M4.5,29.843l1.172.608,2.49,2.91v1.567a10.6,10.6,0,0,1-.9,1.088c-.08,0-2.552-.237-2.552-.237l-.716-.852Z" transform="translate(-1.818 3.695)" fill="#59b377"/>
    <path id="Trazado_1672" data-name="Trazado 1672" d="M26.735,29.843l-1.172.608-2.49,2.91v1.567a10.6,10.6,0,0,0,.9,1.088c.08,0,2.552-.237,2.552-.237l.716-.852Z" transform="translate(4.436 3.695)" fill="#59b377"/>
    <path id="Trazado_1673" data-name="Trazado 1673" d="M10.266,19.65l9.175.056-2.895,6.917-10.012.111-.08-1.127L8.992,19.9Z" transform="translate(-1.012 -0.298)" fill="#59b377"/>
    <path id="Trazado_1674" data-name="Trazado 1674" d="M20.365,19.7c-.639,1.768-1.686,4.788-2.4,6.848l-1.725.014L18.679,19.7Z" transform="translate(2.195 -0.279)" fill="#59b377"/>
    <path id="Trazado_1675" data-name="Trazado 1675" d="M25.19,26.446l-6.134.07,1.806-6.806h.6l1.859,1.823Z" transform="translate(3.119 -0.275)" fill="#59b377"/>
    <path id="Trazado_1676" data-name="Trazado 1676" d="M32.728,31.542,29.208,34.9a3.293,3.293,0,0,1-2.273.921H10.814A3.287,3.287,0,0,1,8.651,35L4.7,31.548A2.719,2.719,0,0,1,3.787,29.5v-.96a3.717,3.717,0,0,1,3.628-3.8H29.934a3.717,3.717,0,0,1,3.626,3.8v1.03A2.728,2.728,0,0,1,32.728,31.542Z" transform="translate(-1.886 1.696)" fill="none" stroke="#2b824a" stroke-miterlimit="10" stroke-width="1"/>
    <path id="Trazado_1677" data-name="Trazado 1677" d="M30.244,26.75H5.789l2.649-5.495a2.852,2.852,0,0,1,2.556-1.648H24.949a2.848,2.848,0,0,1,2.537,1.612Z" transform="translate(-1.23 -0.315)" fill="none" stroke="#2b824a" stroke-miterlimit="10" stroke-width="1"/>
    <path id="Trazado_1678" data-name="Trazado 1678" d="M10.208,28.349a1.923,1.923,0,0,1-1.876,1.967,1.969,1.969,0,0,1,0-3.933A1.923,1.923,0,0,1,10.208,28.349Z" transform="translate(-1.012 2.339)" fill="none" stroke="#2b824a" stroke-miterlimit="10" stroke-width="1"/>
    <path id="Trazado_1679" data-name="Trazado 1679" d="M24.6,28.349a1.88,1.88,0,1,1-1.876-1.967A1.924,1.924,0,0,1,24.6,28.349Z" transform="translate(3.707 2.339)" fill="none" stroke="#2b824a" stroke-miterlimit="10" stroke-width="1"/>
    <line id="Línea_513" data-name="Línea 513" y2="1.478" transform="translate(11.908 29.866)" fill="none" stroke="#2b824a" stroke-linecap="round" stroke-miterlimit="10" stroke-width="1"/>
    <line id="Línea_514" data-name="Línea 514" y2="1.478" transform="translate(14.404 29.866)" fill="none" stroke="#2b824a" stroke-linecap="round" stroke-miterlimit="10" stroke-width="1"/>
    <line id="Línea_515" data-name="Línea 515" y2="1.478" transform="translate(16.899 29.866)" fill="none" stroke="#2b824a" stroke-linecap="round" stroke-miterlimit="10" stroke-width="1"/>
    <line id="Línea_516" data-name="Línea 516" y2="1.478" transform="translate(19.395 29.866)" fill="none" stroke="#2b824a" stroke-linecap="round" stroke-miterlimit="10" stroke-width="1"/>
    <line id="Línea_517" data-name="Línea 517" y2="1.478" transform="translate(21.89 29.866)" fill="none" stroke="#2b824a" stroke-linecap="round" stroke-miterlimit="10" stroke-width="1"/>
    <path id="Trazado_1680" data-name="Trazado 1680" d="M20.034,32.142H12.468a.314.314,0,0,1-.291-.2l-.713-1.825a.327.327,0,0,1,.289-.454H20.79a.327.327,0,0,1,.287.459l-.756,1.826A.315.315,0,0,1,20.034,32.142Z" transform="translate(0.623 3.623)" fill="none" stroke="#2b824a" stroke-linecap="round" stroke-miterlimit="10" stroke-width="1"/>
    <path id="Trazado_1681" data-name="Trazado 1681" d="M8.438,33.19v1.275A1.476,1.476,0,0,1,7,35.973H5.645A1.477,1.477,0,0,1,4.2,34.465V29.351" transform="translate(-1.749 3.503)" fill="none" stroke="#2b824a" stroke-linecap="round" stroke-miterlimit="10" stroke-width="1"/>
    <path id="Trazado_1682" data-name="Trazado 1682" d="M6.389,25.056H4.649a.671.671,0,0,1-.655-.686V23.53a.671.671,0,0,1,.655-.686h3" transform="translate(-1.818 0.953)" fill="none" stroke="#2b824a" stroke-linecap="round" stroke-miterlimit="10" stroke-width="1"/>
    <path id="Trazado_1683" data-name="Trazado 1683" d="M24.716,25.056h1.741a.671.671,0,0,0,.655-.686V23.53a.671.671,0,0,0-.655-.686h-3" transform="translate(4.561 0.953)" fill="none" stroke="#2b824a" stroke-linecap="round" stroke-miterlimit="10" stroke-width="1"/>
    <path id="Trazado_1684" data-name="Trazado 1684" d="M37.819,9.077a7.493,7.493,0,1,1-7.492-7.492A7.492,7.492,0,0,1,37.819,9.077Z" transform="translate(3.619 0.251)" fill="none" stroke="#2b824a" stroke-linecap="round" stroke-miterlimit="10" stroke-width="1"/>
    <line id="Línea_518" data-name="Línea 518" y1="22.695" transform="translate(33.946 16.821)" fill="none" stroke="#2b824a" stroke-linecap="round" stroke-miterlimit="10" stroke-width="1"/>
    <line id="Línea_519" data-name="Línea 519" x2="2.381" transform="translate(32.756 39.516)" fill="none" stroke="#2b824a" stroke-linecap="round" stroke-miterlimit="10" stroke-width="1"/>
    <path id="Trazado_1685" data-name="Trazado 1685" d="M33.237,8.416a2.389,2.389,0,0,1-1.022.978,3.786,3.786,0,0,1-1.8.378H28.8v3.6H27.345V4.493h3.068a3.878,3.878,0,0,1,1.732.351A2.437,2.437,0,0,1,33.2,5.8a2.6,2.6,0,0,1,.352,1.342,2.673,2.673,0,0,1-.32,1.278m-1.585-.21a1.381,1.381,0,0,0,.409-1.068q0-1.456-1.649-1.456H28.8v2.9h1.61a1.781,1.781,0,0,0,1.24-.377" transform="translate(4.334 0.712)" fill="#2b824a"/>
    <path id="Trazado_1686" data-name="Trazado 1686" d="M27.11,29.351v5.114a1.475,1.475,0,0,1-1.439,1.509H24.317a1.476,1.476,0,0,1-1.441-1.509V33.19" transform="translate(4.371 3.503)" fill="none" stroke="#2b824a" stroke-linecap="round" stroke-miterlimit="10" stroke-width="1"/>
  </g>
</svg>
