<svg xmlns="http://www.w3.org/2000/svg" width="78.235" height="78.425" viewBox="0 0 78.235 78.425">
  <g id="icon_timeline_ecotrip" transform="translate(0)">
    <path id="Trazado_1920" data-name="Trazado 1920" d="M170.788,18.425c0,21.6-17.513,60-39.118,60a39.118,39.118,0,0,1,0-78.235c21.6,0,39.118-3.37,39.118,18.234" transform="translate(-92.553 -0.001)" fill="#ffdc8c"/>
    <path id="Trazado_1921" data-name="Trazado 1921" d="M110.523,58.788h28.635c4.976,0,9.01-3.249,9.01-7.256s-4.034-7.257-9.01-7.257h-5.306c-4.976,0-9.01-3.248-9.01-7.256s4.034-7.256,9.01-7.256h10.167" transform="translate(-90.228 3.85)" fill="none" stroke="#2b824a" stroke-linecap="round" stroke-miterlimit="10" stroke-width="1.5" stroke-dasharray="0.5 3"/>
    <path id="Trazado_1922" data-name="Trazado 1922" d="M141.138,5.513a10.244,10.244,0,0,0-10.246,10.241c0,10.247,10.246,16.492,10.246,16.492S151.379,26,151.379,15.754A10.243,10.243,0,0,0,141.138,5.513m0,15.8a6.246,6.246,0,1,1,6.245-6.245,6.244,6.244,0,0,1-6.245,6.245" transform="translate(-87.593 0.713)" fill="#59b377"/>
    <path id="Trazado_1923" data-name="Trazado 1923" d="M134.892,15.068a6.244,6.244,0,0,0,6.245,6.245V32.246S130.892,26,130.892,15.755A10.245,10.245,0,0,1,141.138,5.513V8.822a6.247,6.247,0,0,0-6.245,6.245" transform="translate(-87.593 0.713)" fill="#96e0aa"/>
    <path id="Trazado_1924" data-name="Trazado 1924" d="M141.138,5.513a10.244,10.244,0,0,0-10.246,10.241c0,10.247,10.246,16.492,10.246,16.492S151.379,26,151.379,15.754A10.243,10.243,0,0,0,141.138,5.513Zm0,15.8a6.246,6.246,0,1,1,6.245-6.245A6.244,6.244,0,0,1,141.138,21.313Z" transform="translate(-87.593 0.713)" fill="none" stroke="#2b824a" stroke-miterlimit="10" stroke-width="1"/>
    <path id="Trazado_1959" data-name="Trazado 1959" d="M120.593,47.743a8.786,8.786,0,0,1-17.572,0c0-9.892,7.871-18.873,8.787-18.873,1.144,0,8.785,9.307,8.785,18.873" transform="translate(-91.199 3.734)" fill="#96e0aa"/>
    <path id="Trazado_1960" data-name="Trazado 1960" d="M112.047,28.87V56.529s-7.365-.155-8.218-4.949.279-16.754,8.218-22.711" transform="translate(-91.125 3.734)" fill="#59b377"/>
    <path id="Trazado_1961" data-name="Trazado 1961" d="M120.593,47.743a8.786,8.786,0,0,1-17.572,0c0-9.892,7.871-18.873,8.787-18.873C112.952,28.87,120.593,38.177,120.593,47.743Z" transform="translate(-91.199 3.734)" fill="none" stroke="#2b824a" stroke-miterlimit="10" stroke-width="1"/>
    <line id="Línea_623" data-name="Línea 623" y2="24.862" transform="translate(20.608 37.278)" fill="none" stroke="#2b824a" stroke-linecap="round" stroke-miterlimit="10" stroke-width="1"/>
    <line id="Línea_624" data-name="Línea 624" x1="5.087" y2="5.087" transform="translate(20.594 51.625)" fill="none" stroke="#2b824a" stroke-linecap="round" stroke-miterlimit="10" stroke-width="1"/>
    <line id="Línea_625" data-name="Línea 625" x1="3.961" y2="3.961" transform="translate(20.594 45.096)" fill="none" stroke="#2b824a" stroke-linecap="round" stroke-miterlimit="10" stroke-width="1"/>
    <line id="Línea_626" data-name="Línea 626" x1="2.331" y2="2.331" transform="translate(20.594 40.197)" fill="none" stroke="#2b824a" stroke-linecap="round" stroke-miterlimit="10" stroke-width="1"/>
    <line id="Línea_627" data-name="Línea 627" x2="5.087" y2="5.087" transform="translate(15.522 51.463)" fill="none" stroke="#2b824a" stroke-linecap="round" stroke-miterlimit="10" stroke-width="1"/>
    <line id="Línea_628" data-name="Línea 628" x2="3.961" y2="3.961" transform="translate(16.647 44.933)" fill="none" stroke="#2b824a" stroke-linecap="round" stroke-miterlimit="10" stroke-width="1"/>
    <line id="Línea_629" data-name="Línea 629" x2="2.331" y2="2.331" transform="translate(18.277 40.035)" fill="none" stroke="#2b824a" stroke-linecap="round" stroke-miterlimit="10" stroke-width="1"/>
  </g>
</svg>
