<svg xmlns="http://www.w3.org/2000/svg" xmlns:xlink="http://www.w3.org/1999/xlink" width="44.931" height="43.793" viewBox="0 0 44.931 43.793">
  <defs>
    <clipPath id="clip-path">
      <rect id="Rectángulo_123" data-name="Rectángulo 123" width="44.931" height="43.793" fill="none"/>
    </clipPath>
  </defs>
  <g id="icon_benefic_sostenible" transform="translate(0)">
    <g id="Grupo_89" data-name="Grupo 89" transform="translate(0 0)" clip-path="url(#clip-path)">
      <path id="Trazado_1687" data-name="Trazado 1687" d="M43.686,10.288c0,12.064-9.779,33.5-21.842,33.5a21.843,21.843,0,1,1,0-43.686c12.064,0,21.842-1.881,21.842,10.182" transform="translate(0 0)" fill="#ffdc8c"/>
      <path id="Trazado_1688" data-name="Trazado 1688" d="M26.654,21.011a6.233,6.233,0,1,1-12.466,0c0-7.018,5.584-13.389,6.233-13.389.812,0,6.233,6.6,6.233,13.389" transform="translate(2.249 1.208)" fill="#96e0aa"/>
      <path id="Trazado_1689" data-name="Trazado 1689" d="M20.581,7.622V27.244s-5.225-.109-5.831-3.51.2-11.886,5.831-16.111" transform="translate(2.311 1.208)" fill="#59b377"/>
      <path id="Trazado_1690" data-name="Trazado 1690" d="M26.654,21.011a6.233,6.233,0,1,1-12.466,0c0-7.018,5.584-13.389,6.233-13.389C21.233,7.622,26.654,14.225,26.654,21.011Z" transform="translate(2.249 1.208)" fill="none" stroke="#2b824a" stroke-miterlimit="10" stroke-width="1"/>
      <line id="Línea_520" data-name="Línea 520" y2="19.33" transform="translate(22.67 12.146)" fill="none" stroke="#2b824a" stroke-linecap="round" stroke-miterlimit="10" stroke-width="1"/>
      <line id="Línea_521" data-name="Línea 521" x1="3.609" y2="3.609" transform="translate(22.66 22.324)" fill="none" stroke="#2b824a" stroke-linecap="round" stroke-miterlimit="10" stroke-width="1"/>
      <line id="Línea_522" data-name="Línea 522" x1="2.809" y2="2.809" transform="translate(22.66 17.693)" fill="none" stroke="#2b824a" stroke-linecap="round" stroke-miterlimit="10" stroke-width="1"/>
      <line id="Línea_523" data-name="Línea 523" x1="1.653" y2="1.653" transform="translate(22.66 14.217)" fill="none" stroke="#2b824a" stroke-linecap="round" stroke-miterlimit="10" stroke-width="1"/>
      <line id="Línea_524" data-name="Línea 524" x2="3.609" y2="3.609" transform="translate(19.061 22.209)" fill="none" stroke="#2b824a" stroke-linecap="round" stroke-miterlimit="10" stroke-width="1"/>
      <line id="Línea_525" data-name="Línea 525" x2="2.809" y2="2.809" transform="translate(19.86 17.577)" fill="none" stroke="#2b824a" stroke-linecap="round" stroke-miterlimit="10" stroke-width="1"/>
      <line id="Línea_526" data-name="Línea 526" x2="1.653" y2="1.653" transform="translate(21.016 14.102)" fill="none" stroke="#2b824a" stroke-linecap="round" stroke-miterlimit="10" stroke-width="1"/>
      <path id="Trazado_1691" data-name="Trazado 1691" d="M43.261,18.6H41.573A19.655,19.655,0,0,0,3.6,12.912l2.738.861A16.793,16.793,0,0,1,38.7,18.6h-1.5a.521.521,0,0,0-.368.889l3.027,3.027a.521.521,0,0,0,.736,0l3.028-3.027a.521.521,0,0,0-.368-.889" transform="translate(0.57 0.041)" fill="#96e0aa"/>
      <path id="Trazado_1692" data-name="Trazado 1692" d="M22.406,34.406A16.814,16.814,0,0,1,5.693,19.21H7.428a.521.521,0,0,0,.368-.889L4.768,15.294a.521.521,0,0,0-.736,0L1,18.321a.521.521,0,0,0,.368.889H2.822A19.655,19.655,0,0,0,40.668,24.9l-2.738-.846a16.833,16.833,0,0,1-15.524,10.35" transform="translate(0.135 2.4)" fill="#96e0aa"/>
      <path id="Trazado_1693" data-name="Trazado 1693" d="M43.261,18.9H41.573A19.655,19.655,0,0,0,3.6,13.2l2.738.861A16.793,16.793,0,0,1,38.7,18.9h-1.5a.521.521,0,0,0-.368.889l3.027,3.027a.521.521,0,0,0,.736,0l3.028-3.027A.521.521,0,0,0,43.261,18.9Z" transform="translate(0.57 0.087)" fill="none" stroke="#2b824a" stroke-miterlimit="10" stroke-width="1"/>
      <path id="Trazado_1694" data-name="Trazado 1694" d="M22.406,34.7A16.814,16.814,0,0,1,5.693,19.5H7.428a.521.521,0,0,0,.368-.889L4.768,15.586a.521.521,0,0,0-.736,0L1,18.613a.521.521,0,0,0,.368.889H2.822a19.655,19.655,0,0,0,37.846,5.692l-2.738-.846A16.833,16.833,0,0,1,22.406,34.7Z" transform="translate(0.135 2.447)" fill="none" stroke="#2b824a" stroke-miterlimit="10" stroke-width="1"/>
    </g>
  </g>
</svg>
