<svg xmlns="http://www.w3.org/2000/svg" xmlns:xlink="http://www.w3.org/1999/xlink" width="45.049" height="43.64" viewBox="0 0 45.049 43.64">
  <defs>
    <clipPath id="clip-path">
      <rect id="Rectángulo_127" data-name="Rectángulo 127" width="45.049" height="43.64" fill="none"/>
    </clipPath>
  </defs>
  <g id="icon_benefic_transport" transform="translate(0)">
    <g id="Grupo_96" data-name="Grupo 96" transform="translate(0 0)">
      <g id="Grupo_95" data-name="Grupo 95" transform="translate(0 0)" clip-path="url(#clip-path)">
        <path id="Trazado_1715" data-name="Trazado 1715" d="M43.534,10.252c0,12.022-9.745,33.387-21.767,33.387a21.767,21.767,0,1,1,0-43.534c12.022,0,21.767-1.875,21.767,10.147" transform="translate(0 0)" fill="#ffdc8c"/>
        <path id="Trazado_1716" data-name="Trazado 1716" d="M4.245,28.824H2.455A1.784,1.784,0,0,1,.671,27.041v-13.5a1.784,1.784,0,0,1,1.784-1.784H39.3A2.982,2.982,0,0,1,42.165,13.9l1.883,6.467a7.469,7.469,0,0,1,.3,2.1v4.573a1.784,1.784,0,0,1-1.784,1.784H39.65" transform="translate(0.104 1.816)" fill="#96e0aa"/>
        <path id="Trazado_1717" data-name="Trazado 1717" d="M44.326,21.316H.689V14.4H42.212Z" transform="translate(0.106 2.225)" fill="#59b377"/>
        <path id="Trazado_1718" data-name="Trazado 1718" d="M35.023,14.4l1.839,6.916H35.023l-1.3-6.916Z" transform="translate(5.209 2.225)" fill="#96e0aa"/>
        <path id="Trazado_1719" data-name="Trazado 1719" d="M35.413,14.4l1.8,6.916h.881L36.179,14.4Z" transform="translate(5.471 2.225)" fill="#96e0aa"/>
        <path id="Trazado_1720" data-name="Trazado 1720" d="M9.514,26.787a2.865,2.865,0,1,1-2.864-2.864,2.865,2.865,0,0,1,2.864,2.864" transform="translate(0.585 3.696)" fill="#59b377"/>
        <path id="Trazado_1721" data-name="Trazado 1721" d="M15.56,26.787A2.865,2.865,0,1,1,12.7,23.923a2.865,2.865,0,0,1,2.864,2.864" transform="translate(1.519 3.696)" fill="#59b377"/>
        <path id="Trazado_1722" data-name="Trazado 1722" d="M35.3,26.787a2.865,2.865,0,1,1-2.864-2.864A2.865,2.865,0,0,1,35.3,26.787" transform="translate(4.568 3.696)" fill="#59b377"/>
        <path id="Trazado_1723" data-name="Trazado 1723" d="M16.947,12.352H2.856L4.283,9.46H15.405Z" transform="translate(0.441 1.462)" fill="#96e0aa"/>
        <line id="Línea_531" data-name="Línea 531" x1="1.256" transform="translate(10.093 30.64)" fill="none" stroke="#2b824a" stroke-miterlimit="10" stroke-width="1"/>
        <line id="Línea_532" data-name="Línea 532" x1="17.128" transform="translate(17.078 30.64)" fill="none" stroke="#2b824a" stroke-miterlimit="10" stroke-width="1"/>
        <path id="Trazado_1724" data-name="Trazado 1724" d="M4.262,28.824H2.472A1.784,1.784,0,0,1,.688,27.041v-13.5a1.784,1.784,0,0,1,1.784-1.784H39.319A2.982,2.982,0,0,1,42.182,13.9l1.883,6.467a7.469,7.469,0,0,1,.3,2.1v4.573a1.784,1.784,0,0,1-1.784,1.784H39.667" transform="translate(0.106 1.816)" fill="none" stroke="#2b824a" stroke-miterlimit="10" stroke-width="1"/>
        <path id="Trazado_1725" data-name="Trazado 1725" d="M16.946,12.145H2.856L3.8,10.081a1.488,1.488,0,0,1,1.351-.867h9.2a1.488,1.488,0,0,1,1.276.723Z" transform="translate(0.441 1.424)" fill="none" stroke="#2b824a" stroke-miterlimit="10" stroke-width="1"/>
        <line id="Línea_533" data-name="Línea 533" x2="41.523" transform="translate(0.794 16.625)" fill="none" stroke="#2b824a" stroke-miterlimit="10" stroke-width="1"/>
        <line id="Línea_534" data-name="Línea 534" x2="43.637" transform="translate(0.794 23.541)" fill="none" stroke="#2b824a" stroke-miterlimit="10" stroke-width="1"/>
        <line id="Línea_535" data-name="Línea 535" y2="6.916" transform="translate(6.394 16.625)" fill="none" stroke="#2b824a" stroke-miterlimit="10" stroke-width="1"/>
        <line id="Línea_536" data-name="Línea 536" y2="6.916" transform="translate(12.433 16.625)" fill="none" stroke="#2b824a" stroke-miterlimit="10" stroke-width="1"/>
        <line id="Línea_537" data-name="Línea 537" y2="6.916" transform="translate(18.472 16.625)" fill="none" stroke="#2b824a" stroke-miterlimit="10" stroke-width="1"/>
        <line id="Línea_538" data-name="Línea 538" y2="6.916" transform="translate(24.511 16.625)" fill="none" stroke="#2b824a" stroke-miterlimit="10" stroke-width="1"/>
        <line id="Línea_539" data-name="Línea 539" y2="6.916" transform="translate(30.55 16.625)" fill="none" stroke="#2b824a" stroke-miterlimit="10" stroke-width="1"/>
        <line id="Línea_540" data-name="Línea 540" y2="6.916" transform="translate(36.588 16.625)" fill="none" stroke="#2b824a" stroke-miterlimit="10" stroke-width="1"/>
        <line id="Línea_541" data-name="Línea 541" x2="1.471" transform="translate(0.794 26.483)" fill="none" stroke="#2b824a" stroke-linecap="round" stroke-miterlimit="10" stroke-width="1"/>
        <line id="Línea_542" data-name="Línea 542" x2="1.471" transform="translate(42.962 26.483)" fill="none" stroke="#2b824a" stroke-linecap="round" stroke-miterlimit="10" stroke-width="1"/>
        <line id="Línea_543" data-name="Línea 543" x2="14.142" transform="translate(18.472 26.483)" fill="none" stroke="#2b824a" stroke-linecap="round" stroke-miterlimit="10" stroke-width="1"/>
        <path id="Trazado_1726" data-name="Trazado 1726" d="M15.56,26.787A2.865,2.865,0,1,1,12.7,23.923,2.865,2.865,0,0,1,15.56,26.787Z" transform="translate(1.519 3.696)" fill="none" stroke="#2b824a" stroke-linecap="round" stroke-miterlimit="10" stroke-width="1"/>
        <path id="Trazado_1727" data-name="Trazado 1727" d="M9.514,26.787a2.865,2.865,0,1,1-2.864-2.864A2.865,2.865,0,0,1,9.514,26.787Z" transform="translate(0.585 3.696)" fill="none" stroke="#2b824a" stroke-linecap="round" stroke-miterlimit="10" stroke-width="1"/>
        <path id="Trazado_1728" data-name="Trazado 1728" d="M35.3,26.787a2.865,2.865,0,1,1-2.864-2.864A2.865,2.865,0,0,1,35.3,26.787Z" transform="translate(4.568 3.696)" fill="none" stroke="#2b824a" stroke-linecap="round" stroke-miterlimit="10" stroke-width="1"/>
      </g>
    </g>
  </g>
</svg>
