<svg id="icon_timeline_trips" xmlns="http://www.w3.org/2000/svg" width="78.235" height="78.425" viewBox="0 0 78.235 78.425">
  <path id="Trazado_1912" data-name="Trazado 1912" d="M78.235,18.425c0,21.6-17.513,60-39.118,60a39.118,39.118,0,0,1,0-78.235c21.6,0,39.118-3.37,39.118,18.234" transform="translate(0 -0.001)" fill="#ffdc8c"/>
  <path id="Trazado_1913" data-name="Trazado 1913" d="M19.434,31.4A10.244,10.244,0,0,0,9.188,41.639c0,10.247,10.246,16.492,10.246,16.492s10.241-6.245,10.241-16.492A10.243,10.243,0,0,0,19.434,31.4m0,15.8a6.246,6.246,0,1,1,6.245-6.245A6.244,6.244,0,0,1,19.434,47.2" transform="translate(1.189 4.062)" fill="#59b377"/>
  <path id="Trazado_1914" data-name="Trazado 1914" d="M13.187,40.953A6.244,6.244,0,0,0,19.433,47.2V58.131S9.187,51.886,9.187,41.64A10.245,10.245,0,0,1,19.433,31.4v3.309a6.247,6.247,0,0,0-6.245,6.245" transform="translate(1.189 4.062)" fill="#96e0aa"/>
  <path id="Trazado_1915" data-name="Trazado 1915" d="M17.97,58.788H46.605c4.976,0,9.01-3.249,9.01-7.256s-4.034-7.257-9.01-7.257H41.3c-4.976,0-9.01-3.248-9.01-7.256s4.034-7.256,9.01-7.256H51.466" transform="translate(2.325 3.85)" fill="none" stroke="#2b824a" stroke-linecap="round" stroke-miterlimit="10" stroke-width="1.5" stroke-dasharray="0.5 3"/>
  <path id="Trazado_1916" data-name="Trazado 1916" d="M19.434,31.4A10.244,10.244,0,0,0,9.188,41.639c0,10.247,10.246,16.492,10.246,16.492s10.241-6.245,10.241-16.492A10.243,10.243,0,0,0,19.434,31.4Zm0,15.8a6.246,6.246,0,1,1,6.245-6.245A6.244,6.244,0,0,1,19.434,47.2Z" transform="translate(1.189 4.062)" fill="none" stroke="#2b824a" stroke-miterlimit="10" stroke-width="1"/>
  <path id="Trazado_1917" data-name="Trazado 1917" d="M48.585,5.513A10.244,10.244,0,0,0,38.339,15.754c0,10.247,10.246,16.492,10.246,16.492S58.826,26,58.826,15.754A10.243,10.243,0,0,0,48.585,5.513m0,15.8a6.246,6.246,0,1,1,6.245-6.245,6.244,6.244,0,0,1-6.245,6.245" transform="translate(4.96 0.713)" fill="#59b377"/>
  <path id="Trazado_1918" data-name="Trazado 1918" d="M42.339,15.068a6.244,6.244,0,0,0,6.245,6.245V32.246S38.339,26,38.339,15.755A10.245,10.245,0,0,1,48.585,5.513V8.822a6.247,6.247,0,0,0-6.245,6.245" transform="translate(4.96 0.713)" fill="#96e0aa"/>
  <path id="Trazado_1919" data-name="Trazado 1919" d="M48.585,5.513A10.244,10.244,0,0,0,38.339,15.754c0,10.247,10.246,16.492,10.246,16.492S58.826,26,58.826,15.754A10.243,10.243,0,0,0,48.585,5.513Zm0,15.8a6.246,6.246,0,1,1,6.245-6.245A6.244,6.244,0,0,1,48.585,21.313Z" transform="translate(4.96 0.713)" fill="none" stroke="#2b824a" stroke-miterlimit="10" stroke-width="1"/>
</svg>
