<svg xmlns="http://www.w3.org/2000/svg" xmlns:xlink="http://www.w3.org/1999/xlink" width="43.534" height="43.64" viewBox="0 0 43.534 43.64">
  <defs>
    <clipPath id="clip-path">
      <rect id="Rectángulo_126" data-name="Rectángulo 126" width="43.534" height="43.64" fill="none"/>
    </clipPath>
  </defs>
  <g id="icon_benefic_incentivos" transform="translate(0)">
    <g id="Grupo_93" data-name="Grupo 93" transform="translate(0 0)" clip-path="url(#clip-path)">
      <path id="Trazado_1700" data-name="Trazado 1700" d="M43.534,10.252c0,12.022-9.745,33.387-21.767,33.387a21.767,21.767,0,1,1,0-43.534c12.022,0,21.767-1.875,21.767,10.147" transform="translate(0 0)" fill="#ffdc8c"/>
      <path id="Trazado_1701" data-name="Trazado 1701" d="M3.145,19.9l4.774.055,1.3,1.108,5.8.135,5.046,2.609h5.5l1.388,1.016.6,2.471,8.565-2.751,1.563,1.52-.852,2.153-14.94,6.5-3.632.363L14.925,33.7l-4.067-2.308-2.4.26L7.22,32.23H3.613l-.9-.9Z" transform="translate(0.42 3.075)" fill="#96e0aa"/>
      <path id="Trazado_1702" data-name="Trazado 1702" d="M7.981,21.525l2.635,9.9L9,30.618s-1.256-.3-1.256-.425.237-8.668.237-8.668" transform="translate(1.196 3.325)" fill="#59b377"/>
      <path id="Trazado_1703" data-name="Trazado 1703" d="M7.741,32.229H3.5a.779.779,0,0,1-.779-.779V20.681A.779.779,0,0,1,3.5,19.9H7.741a.779.779,0,0,1,.779.779V31.45a.779.779,0,0,1-.779.779" transform="translate(0.42 3.075)" fill="#59b377"/>
      <rect id="Rectángulo_125" data-name="Rectángulo 125" width="5.805" height="12.327" rx="0.675" transform="translate(3.135 22.977)" fill="none" stroke="#2b824a" stroke-miterlimit="10" stroke-width="1"/>
      <path id="Trazado_1704" data-name="Trazado 1704" d="M7.743,20.911h5.191A6.458,6.458,0,0,1,16.2,21.8l1.824,1.07a5.341,5.341,0,0,0,2.7.735h3.6a2.132,2.132,0,1,1,0,4.265H17.329" transform="translate(1.196 3.23)" fill="none" stroke="#2b824a" stroke-linecap="round" stroke-miterlimit="10" stroke-width="1"/>
      <path id="Trazado_1705" data-name="Trazado 1705" d="M7.743,30.321c4.224,0,6.539,4.224,10.844,4.224,3.43,0,13.344-4.848,17.235-6.819a1.982,1.982,0,0,0-1.6-3.618l-9.006,3.1" transform="translate(1.196 3.704)" fill="none" stroke="#2b824a" stroke-miterlimit="10" stroke-width="1"/>
      <path id="Trazado_1706" data-name="Trazado 1706" d="M25.463,6.034c0,4.049-5.792,6.744-5.792,6.744s-5.8-2.529-5.8-6.744c0-3.669,5.207-4.206,5.747-.925a.048.048,0,0,0,.05.044.046.046,0,0,0,.044-.044c.559-3.164,5.748-2.665,5.748.925" transform="translate(2.143 0.454)" fill="#96e0aa"/>
      <path id="Trazado_1707" data-name="Trazado 1707" d="M19.67,5.155v7.624s-5.8-2.529-5.8-6.743c0-3.67,5.207-4.206,5.747-.926a.049.049,0,0,0,.05.045" transform="translate(2.143 0.454)" fill="#59b377"/>
      <path id="Trazado_1708" data-name="Trazado 1708" d="M25.46,6.032c0,4.052-5.793,6.749-5.793,6.749s-5.793-2.531-5.793-6.749c0-3.667,5.206-4.2,5.748-.921a.047.047,0,0,0,.094,0C20.273,1.946,25.46,2.446,25.46,6.032Z" transform="translate(2.143 0.454)" fill="none" stroke="#2b824a" stroke-miterlimit="10" stroke-width="1"/>
      <path id="Trazado_1709" data-name="Trazado 1709" d="M15.114,14.117a4.638,4.638,0,1,1-4.632-4.643,4.63,4.63,0,0,1,4.632,4.643" transform="translate(0.902 1.464)" fill="#96e0aa"/>
      <path id="Trazado_1710" data-name="Trazado 1710" d="M10.482,9.474v9.275a4.638,4.638,0,1,1,0-9.275" transform="translate(0.902 1.464)" fill="#59b377"/>
      <path id="Trazado_1711" data-name="Trazado 1711" d="M15.114,14.117a4.638,4.638,0,1,1-4.632-4.643A4.63,4.63,0,0,1,15.114,14.117Z" transform="translate(0.902 1.464)" fill="none" stroke="#2b824a" stroke-miterlimit="10" stroke-width="1"/>
      <line id="Línea_527" data-name="Línea 527" y2="4.68" transform="translate(11.379 13.235)" fill="none" stroke="#2b824a" stroke-linecap="round" stroke-miterlimit="10" stroke-width="1"/>
      <line id="Línea_528" data-name="Línea 528" x1="4.68" transform="translate(9.038 15.575)" fill="none" stroke="#2b824a" stroke-linecap="round" stroke-miterlimit="10" stroke-width="1"/>
      <path id="Trazado_1712" data-name="Trazado 1712" d="M32.161,18.134a4.638,4.638,0,1,1-4.632-4.643,4.63,4.63,0,0,1,4.632,4.643" transform="translate(3.536 2.084)" fill="#96e0aa"/>
      <path id="Trazado_1713" data-name="Trazado 1713" d="M27.529,13.491v9.275a4.638,4.638,0,1,1,0-9.275" transform="translate(3.536 2.084)" fill="#59b377"/>
      <path id="Trazado_1714" data-name="Trazado 1714" d="M32.161,18.134a4.638,4.638,0,1,1-4.632-4.643A4.63,4.63,0,0,1,32.161,18.134Z" transform="translate(3.536 2.084)" fill="none" stroke="#2b824a" stroke-miterlimit="10" stroke-width="1"/>
      <line id="Línea_529" data-name="Línea 529" y2="4.68" transform="translate(31.059 17.873)" fill="none" stroke="#2b824a" stroke-linecap="round" stroke-miterlimit="10" stroke-width="1"/>
      <line id="Línea_530" data-name="Línea 530" x1="4.68" transform="translate(28.719 20.213)" fill="none" stroke="#2b824a" stroke-linecap="round" stroke-miterlimit="10" stroke-width="1"/>
    </g>
  </g>
</svg>
