<?xml version="1.0" encoding="utf-8"?>
<!-- Generator: Adobe Illustrator 24.3.0, SVG Export Plug-In . SVG Version: 6.00 Build 0)  -->
<svg version="1.1" id="Capa_1" xmlns="http://www.w3.org/2000/svg" xmlns:xlink="http://www.w3.org/1999/xlink" x="0px" y="0px"
	 viewBox="0 0 25 25" style="enable-background:new 0 0 25 25;" xml:space="preserve">
<style type="text/css">
	.st0{fill:#2A824A;}
</style>
<g>
	<path class="st0" d="M23.9,24.9c-0.3,0-0.5-0.1-0.7-0.3L0.4,1.8C0,1.4,0,0.8,0.4,0.4s1-0.4,1.4,0l22.9,22.9c0.4,0.4,0.4,1,0,1.4
		C24.4,24.8,24.2,24.9,23.9,24.9z"/>
</g>
<g>
	<path class="st0" d="M1.1,24.9c-0.3,0-0.5-0.1-0.7-0.3c-0.4-0.4-0.4-1,0-1.4L23.2,0.4c0.4-0.4,1-0.4,1.4,0s0.4,1,0,1.4L1.8,24.6
		C1.6,24.8,1.3,24.9,1.1,24.9z"/>
</g>
</svg>
