<svg xmlns="http://www.w3.org/2000/svg" width="16.97" height="16.969" viewBox="0 0 16.97 16.969">
  <path id="icon_phone_white" d="M47.18,12.625a.954.954,0,0,0-1.056-1.093,10.238,10.238,0,0,1-2.868-.459.816.816,0,0,0-.134-.033,1.037,1.037,0,0,0-1.06.336c-.135.139-.269.273-.4.408-.2.2-.4.4-.6.594a10.168,10.168,0,0,1-5.66-5.85q.243-.243.489-.484c.143-.148.29-.3.437-.442a1.027,1.027,0,0,0,.315-1.1c0-.017-.012-.033-.016-.05a10.078,10.078,0,0,1-.467-2.915A.943.943,0,0,0,35.09.5C34.194.5,33.3.5,32.407.5a2.509,2.509,0,0,0-.421.034c-.568.1-.791.441-.77,1.152A14.731,14.731,0,0,0,37,13.277a14.445,14.445,0,0,0,9.105,3.192.91.91,0,0,0,1.051-.8,1.8,1.8,0,0,0,.021-.274c.008-.454,0-.908,0-1.362C47.184,13.567,47.188,13.1,47.18,12.625Z" transform="translate(-30.715)" fill="none" stroke="#fff" stroke-linecap="round" stroke-linejoin="round" stroke-width="1"/>
</svg>
