<?xml version="1.0" encoding="UTF-8"?><svg id="Capa_2" xmlns="http://www.w3.org/2000/svg" viewBox="0 0 211.17 223.56"><defs><style>.cls-1{fill:#96e0aa;}.cls-2{fill:#2b824a;}.cls-3{fill:#fff;}.cls-4{fill:#59b377;}.cls-5{fill:#ffdc8c;}</style></defs><g id="bicicleta_electrica"><g id="bici_electrica_contorno"><g><path class="cls-5" d="M206.71,111.72c3.13,53.96-40.72,101.57-93.83,91.54C37.09,188.96,0,128.98,0,74.93S60.45,31.74,114.49,31.74s86.94-10.8,92.21,79.99Z"/><path class="cls-3" d="M55.71,129.25l4.36-1.26s.45-3.07,1.58-3.98c1.5,.68,2.13,.82,2.28,2.74s-.6,12.23-.6,12.23l-2.24,27.73s-3.17,.49-4.44,2.52-3.48,5.45-1.85,10.03,5.64,3.03,8.18,1.19,4.45-6.2,3.29-10.14c-1.22-3.04-3.12-3.6-2.9-3.6s4.95-33.78,4.95-33.78c0,0,.3-6.05-.38-8.56s-2.66-2.08-2.69-6.03-.04-4.38-.04-4.38c0,0-2.12,1.32-5.92,.59,0,1.57,.17,5.16-1.25,6.48-1.42,1.32-2.25,3.38-2.29,4.61-.04,1.23-.04,3.59-.04,3.59Z"/><path class="cls-3" d="M155.63,133.3l-2.31,1.3s-1.52-.86-2.89-1.35c-1.36-.49-2.19,.31-2.19,.31l-4.35-3.59s1.17-2.96,.83-6.29c-.35-3.32-.66-8.51-6.7-9.55s-11.2,5.91-11.2,5.91l-2.94-1.56,.06-.47-.06-.78,1.61-1.22-.14-1.74-11.07-7.02-9.73,6.24,10.83,7.23,2.43-1.42s.63,.76,1.98,1.83c1.35,1.06,2.79,.4,2.79,.4,0,0,.86,.53,2.79,2.15-1.23,4.09-2.93,12.85,4.22,15.64,7.16,2.79,12.77-5.58,12.77-5.58,0,0,3.07,1.21,4.79,2.05,.13,1.47,.76,2.35,.76,2.35l-2.35,1.7,10.96,6.49,10.23-6.41-11.12-6.62Zm-25.32-3.02l-3.14,3.39-.69-.1,.2-5.9,.78-1.04c.13-.07,3.36,.68,3.36,.68l.17,1.3-.68,1.67Zm5.95,5.06l-4.34,2.1-.61-.7,2.66-5.78,1.37-.12,1.55,3.02-.63,1.48Zm-1.45-12.91l-1.24,.33-1.22-2.07-.62-1.54,.62-1,4.5-1.84,.79,.49-2.83,5.63Zm7.23,2.91c-.05,0-.85,1.73-.85,1.73l-1.54-.4-1.63-1.61v-1.11l3.42-3.91,.41,.23s.24,5.06,.19,5.07Z"/><path class="cls-3" d="M142.43,75.07l29.57,28.29s3.56-2.87,6.5-.3,2.67,10.32-1.61,13.07-7.73-.27-8.58-1.59c-1.45,.96-23.62,12.53-23.62,12.53v-5.34l24.37-12.39-.32-1.15,.86-1.25-27.28-26.12,.12-5.75Z"/><rect class="cls-3" x="59.92" y="39.11" width="4.35" height="53.75"/><rect class="cls-3" x="138.36" y="32.99" width="3.95" height="53.75"/><path class="cls-2" d="M78.93,209.09h0c21-12.14,25.8-17.7,24.24-18.59-1.56-.9-11.45,2.37-32.31,13.95h-.01c-.2,.11-.38,.22-.58,.33l-.11,.06h0c-21,12.14-25.8,17.7-24.24,18.59,1.56,.9,11.45-2.37,32.32-13.95h.01c.2-.11,.38-.22,.58-.33l.11-.06Z"/><path class="cls-4" d="M64.03,130.33l-.42,7.25s-11.09,.67-20.28,11.5c-9.19,10.83-11.71,23.41-12.36,33.33-.64,9.92,4.79,27.12,22.83,27.87,10.19,0,23.9-7.35,30.1-20.23,6.2-12.88,8.11-22.77,4.69-36.43-3.77-9.32-10.68-16.61-20.76-16.72,.53-4.26,.84-6.95,.84-6.95,0,0,15.13,.04,22.47,13.74,7.34,13.7,6.66,33.2-4.07,51.01-10.73,17.81-25.01,22.81-36.59,22.53-11.58-.29-25.24-11.85-25.24-34.09,0-22.24,16.62-49.47,38.78-52.81Z"/><path class="cls-1" d="M32.48,208.45c-6.22-12.28-11.72-27.19-1.66-49.5,13.08-22.98,20.66-24.94,33.21-28.62,.08-1.28,.08-2.67,.08-2.67-23.46,1.52-35.63,25.39-39.5,38-3.88,12.62-3.3,31.55,7.87,42.79Z"/><path class="cls-1" d="M84.46,147.03c7.02,18.56,1.27,34.85-8.41,46.86-9.68,12.01-29.81,20.3-41.62,4.24,8.11,14.87,27.76,19.8,46.78-4.24,16.46-24.16,7.54-42.58,3.25-46.86Z"/><polygon class="cls-1" points="68.6 127.84 68.33 129.96 78.55 131.96 76.26 129.9 68.6 127.84"/><path class="cls-4" d="M55.92,180.29c-3.31-3.89-.52-12.45,4.83-13.68,.34-.99,.4-1.58,.4-1.58-5.8-1.83-9.4,4.78-9.71,7.63-.3,2.86,.94,7.46,4.48,7.63Z"/><path class="cls-2" d="M184.9,150.08h0c21.17-12.29,26.01-17.91,24.44-18.82s-11.54,2.4-32.58,14.11h-.01c-.2,.11-.39,.22-.58,.33l-.11,.06h0c-21.17,12.29-26.01,17.91-24.44,18.82,1.57,.91,11.55-2.4,32.58-14.11h.01c.2-.11,.39-.22,.58-.33l.11-.06Z"/><path class="cls-1" d="M199.1,81.64c7.53,17.84,1.28,35.27-8.48,47.42-5.85,7.28-15.41,13.22-24.74,13.32-.46,.62-1.08,1.12-1.86,1.45-.45,.32-.97,.56-1.57,.7,9.45,3.07,21.38-.25,33.37-15.47,16.59-24.45,7.43-44.35,3.27-47.42Z"/><path class="cls-4" d="M145.6,116.47c-.08,1.2-.1,3.27,.01,4.64l-.92,.62c.21-1.81-.76-3.74-2.26-4.81v-5.09l2.26,1.22,1.24-.53c-.14,1.34-.25,2.65-.33,3.95Z"/><path class="cls-4" d="M152.79,90.41c-.06,.1-.12,.21-.18,.31l-4.79-1.78-.2-.08c.42-.74,.86-1.46,1.31-2.17l.18,.18,3.68,3.54Z"/><path class="cls-4" d="M148.23,133.56c.23-.21,.48-.4,.76-.57-1.11-2.28-1.91-4.67-2.46-7.01l-2.42,.94c1.2,2.5,2.06,4.26,2.06,4.26l-.16,.58c.98,.35,1.71,1,2.22,1.79Z"/><path class="cls-4" d="M201.67,129.88c-10.81,18.03-25.21,23.1-36.88,22.81-4.95-.12-10.29-2.3-14.77-6.48,.14-.46,.32-.99,.32-.99,0,0,.07-.12,.17-.32l5.98,3.54,5.98-3.67c1.71,.49,3.59,.79,5.65,.88,10.29,0,22.5-7.89,29.89-20.31,4.33-7.28,9.82-19.57,5.19-37.03-3.68-9.14-10.42-15.94-20.07-16.47l-.02,.13-6.15,.24c-3,.46-11.55,2.93-19.11,11.87-.81,.95-2.01,2.26-2.72,3.24l-3.73-3.84,.1-.59c1.29-1.76,2.67-3.45,4.12-5.03,.25-.27,.51-.53,.77-.79,.06-.08,.12-.15,.19-.21,2.86-2.97,6.03-5.54,9.43-7.56,.14-.09,.29-.18,.43-.26,.02,0,.05-.02,.07-.04,3.73-2.14,7.71-3.62,11.91-4.25v.22l4.65-.18c.03-.28,.04-.43,.04-.43,0,0,3.69,0,8.32,1.68,4.79,1.71,10.58,5.19,14.34,12.24,7.39,13.86,6.7,33.59-4.11,51.61Z"/><path class="cls-1" d="M149.11,86.87c-.43,.67-.86,1.36-1.29,2.07l-.2-.08-3.44-1.54c.63-1.17,1.31-2.08,2.04-3.24l2.71,2.61,.18,.18Z"/><path class="cls-1" d="M192.16,66.19c-.24-.06-.48-.11-.72-.16-9.01-2.07-15.12-.36-15.12-.36l.11-.31c-3.58,1.06-6.76,2.08-9.84,3.64-.02,.02-.05,.03-.07,.04-.17,.09-.33,.17-.5,.26-3.15,1.68-6.2,3.99-9.43,7.56-.07,.06-.13,.13-.19,.2-.23,.26-.46,.52-.7,.8-1.3,1.51-2.64,3.23-4.02,5.19l-.45,.19-2.4-2.32c6.64-9.2,16.35-18.01,29.75-18.88,0,0,9.63-.23,13.58,4.15Z"/><path class="cls-4" d="M168.5,109.48c.09-1.47,.82-2.67,.82-2.67l-2.69-2.59s-1.82,3.82-1.09,6.5c2.36-.94,2.95-1.24,2.95-1.24Z"/><path class="cls-4" d="M171.3,100.45s2.55-.98,5,1.12c-.28,.46-1.03,.23-1.03,.23l-3.69,1.57-2.04-1.99,1.76-.92Z"/><path class="cls-1" d="M176.89,109.47c-.13,1.24-.19,2.4-1.46,3.32-1.27,.93-5.3,3.02-5.3,3.02l-1.19-1.49,7.11-3.68,.85-1.18Z"/><path class="cls-1" d="M61.16,174.26c-1.97,.08-2.59-1.03-2.1-3.56,.49-2.53,.29-3.57,.29-3.57l1.82-.75-.91,6.12s.12,1.6,.91,1.76Z"/><polygon class="cls-4" points="144.96 127.83 143.89 129.97 146.35 131.77 144.96 127.83"/><polygon class="cls-4" points="142.35 133.74 147.11 136.04 147.64 138.03 145.71 139.52 145.38 141.6 142.77 138.42 141.19 135.27 142.35 133.74"/><path class="cls-4" d="M138.27,95.35l-.24,15.01s-3.14-.89-3.14-1.27-.32-13.15-.32-13.15l3.7-.59Z"/><path class="cls-4" d="M142.59,95.67l1.84,.55,6.58-3.58,.37,12.3s.72,5.48-6.7,7.75c-1.65-.15-2.26-.86-2.26-.86l.17-16.16Z"/><polygon class="cls-1" points="142.31 86.34 151.63 90.36 151.63 92.64 144.96 96.14 142.59 95.67 142.31 86.34"/><path class="cls-1" d="M59.37,86.85l-.22,2.24,2.51,.94,2.98-.94,.12-2.83,1.53,.85,.49,2.38,.23,5.86,57.67-7.1,3.13-.13s4.77-1.56,7.4-5.69c2.63-4.19,3.06-7.91,3.06-7.91l-.1-3.59s.92,.73,2.21,.46,1.93-.23,1.93-.23v44.98l-4.04-1.95v-18.83l-45.99,8.18s-21.11,3.99-25.51,4.69c.15,1.31-.13,4.3-.13,4.3,0,0-1.22,2.42-5.15,2.48s-4.01-2.79-4.01-2.79l-.51-.34s-4.1,2.39-6.34,2.12c-2.24-.27-3.67-3.4-4.09-5.31-1.2-.53-1.7-1.41-1.7-1.41,0,0,.51-2.9,1.59-3.55s3.42-.74,3.91-.63,5.73,.65,5.73,.65l1.1-.88,.38-.35,.15-13.93,1.67-1.73Z"/><path class="cls-1" d="M137.93,69.06s1.13,.8,2.29,.63,3.06-1.24,3.06-1.24c0,0,.22,1.94-1.29,2.54-1.51,.6-3.42,.44-4.05-.39s0-1.54,0-1.54Z"/><path class="cls-4" d="M48.37,108.53s1.09,4.14,4.4,4.35c-.64,1.45-2.46,1.47-3.82,.51s-2.4-4.73-2.4-4.73l1.82-.13Z"/><path class="cls-3" d="M48.71,108.53c.24,1.44,1.54,4.53,3.62,4.3,1.54-2.27,.92-5.2,.76-5.29s-4.38,1-4.38,1Z"/><path class="cls-4" d="M59.37,86.85c-.45,1.95-.34,2.73,1.57,3.04s3.62,.03,3.7-1.31,.28-2.57,.28-2.57c0,0,2.28,1.77,1.86,2.87-.42,1.11-2.33,2.32-4.24,2.62-1.91,.3-5.28-1.08-4.84-2.41s1.67-2.24,1.67-2.24Z"/><path class="cls-1" d="M59.29,116.14c.65,.67,2.09,1.71,5.77,1.66,.16-2.54,.15-3.82,.15-3.82,0,0-3.27,1.78-5.92,.59,.32,1.39,0,1.57,0,1.57Z"/><path class="cls-1" d="M60.03,17.81l-2.07-.84-1.62-1.7-3.23-1.38-3.47-1.33s-1.32-.82-1.12-1.51,.77-2.02,1.63-1.73,6.19,2.63,6.19,2.63l3-.9,8.57,3.47v2.25l7.13,3.42-1.21,2.33-8.32-3.22-1.24,.58v16.54l.9,1.78-.33,1.53s-.48,1.02-3.07,1.13-2.55-2.36-2.55-2.36l.81-1.64V17.81Z"/><path class="cls-4" d="M90.33,31.78c-2.64-.97-6.28-2.45-6.51-2.54,.05,.19,.76,2.44,.28,2.89-.49,.48-1.65-.63-1.65-.63l-13.48-5.69s-2.52-1.66,.3-4.84l2.28,.77c-.7,1.4-1.04,2.35,1.94,3.34-.03-1.96,.26-3.23,.26-3.23,.41-.79,1.3-2.18,2.44-2.2,2.8,1.01,16.88,6.57,16.88,6.57,.74,2.28,.34,5.47-2.74,5.56Z"/><path class="cls-4" d="M50.14,12.64l2.96,1.26s-1.83,4.4-4.23,4.29-9.57-4.52-12.58-4.91c-3.01-.39-4.06,.18-4.45,.51s-1.13-.86,0-2.17c1.13-1.31,3.44-1.58,6.54,0,3.09,1.58,8.18,3.11,9.35,3.34s2.41-1.43,2.41-1.43v-.88Z"/><path class="cls-4" d="M49.63,12.58c-1.06,.67-1.08,.9-2.72,.21-1.63-.68-15.16-5.92-15.94-6.68s-.75-2.13,.13-3.67,1.49-2.22,2.62-1.75,16.08,6.49,16.55,6.93,1.06,1.4,.74,2.08c-.87-.37-1.24-.41-1.24-.41,0,0-.78,.11-1.18,1.44s1.04,1.84,1.04,1.84Z"/><path class="cls-1" d="M155.68,26.31c-1.06,2.79-2.91,3.39-4.2,3.88-1.28,.49-4.82,.88-7.33,1.22-2.52,.33-11.59,4.53-14.26,4.99-2.67,.46-3.89,.54-4.48,0-.37-.32-.6-1.2-.71-1.82-.08-.4-.12-.7-.12-.7,0,0-.57-.56,.55-1.38,1.11-.82,7.8-6.26,9.53-7.78s3.93-5.86,5.13-7.76c1.21-1.9,2.57-1.99,4.06-1.32,1.48,.67,11,6.26,11.83,6.74,.38,.23,.63,.49,.69,.98,.07,.57-.13,1.45-.69,2.95Z"/><path class="cls-4" d="M155.68,26.31c-1.06,2.79-2.91,3.39-4.2,3.88-1.28,.49-4.82,.88-7.33,1.22-2.52,.33-11.59,4.53-14.26,4.99-2.67,.46-3.89,.54-4.48,0-.37-.32-.6-1.2-.71-1.82l.36-.22c1.3,.48,2.13,.53,3.85-.29,1.72-.83,13.67-5.72,13.67-5.72,0,0,3.85-2.1,4.86-2.57,1.01-.48,4.32-1.3,4.32-1.3l4.61-1.12c.07,.57-.13,1.45-.69,2.95Z"/><path class="cls-1" d="M142.31,34.73c-1.93,2.01-4.04,2.01-4.04,2.01l.08-3.17,3.96-1.26v2.42Z"/><polygon class="cls-1" points="135.49 130.44 140.77 135.61 142.35 133.31 135.49 130.44"/><path class="cls-1" d="M137.22,125.73c-1.23,.81-3.05,2.89-1.73,4.71-1.98-.71-2.38-1.41-2.34-2.29s.74-2.97,1.94-3.55,2.14,1.12,2.14,1.12Z"/><path class="cls-4" d="M123.87,118.49c.06-.23-1.72-.29-1.72-.29,0,0-.9,1.44-.88,2.12s.66,1.21,.66,1.21c0,0-.32,.32-.45,.29s-1.57-.97-1.57-.97c0,0,.35-2.51,.46-2.69s1.43-1.36,1.43-1.36l1.34-.02,.73,1.7Z"/><path class="cls-4" d="M152.7,134.66l-1.41-.42s-1.95,.65-2.03,2.2c1.06,.1,3.45-1.78,3.45-1.78Z"/><polygon class="cls-1" points="145.93 140.12 156.52 146.33 166.5 140.48 166.5 142.05 156.49 148.44 145.38 141.6 145.93 140.12"/><polygon class="cls-1" points="104.54 113.99 115.37 120.72 117.81 119.3 118.2 120.76 115.37 122.39 104.08 115.39 104.54 113.99"/><polygon class="cls-1" points="122.26 116.27 123.87 117.23 125.49 116.27 125.35 114.27 122.26 116.27"/><g><path class="cls-2" d="M52.65,218.18c-4.67,0-9.12-1.19-13.09-3.55-8.16-4.86-13.53-14.34-14.71-26.02-2.33-22.97,11.72-48.34,31.32-56.55,2.54-1.06,5.1-1.81,7.62-2.22,.26-.05,.53,.14,.57,.41,.04,.27-.14,.53-.41,.57-2.44,.4-4.93,1.12-7.4,2.15-19.22,8.05-33,32.96-30.71,55.52,1.15,11.36,6.34,20.57,14.23,25.26,7.08,4.21,15.78,4.53,24.48,.88,19.22-8.05,33-32.96,30.71-55.52-1.74-17.1-12.48-28.63-26.74-28.67-.28,0-.5-.23-.5-.5,0-.28,.22-.5,.5-.5h0c14.79,.05,25.94,11.93,27.73,29.57,2.33,22.97-11.72,48.34-31.32,56.54-4.15,1.74-8.29,2.6-12.28,2.6Z"/><path class="cls-2" d="M83.34,135.32c-.12,0-.24-.04-.34-.13-4.15-3.81-9.21-6.18-14.63-6.85-.27-.03-.47-.28-.43-.56s.29-.48,.56-.43c5.63,.7,10.89,3.16,15.18,7.11,.2,.19,.22,.5,.03,.71-.1,.11-.23,.16-.37,.16Z"/><path class="cls-2" d="M37.07,212.91c-.09,0-.17-.02-.25-.07-8.25-4.89-13.68-14.46-14.87-26.26-2.35-23.17,11.82-48.75,31.58-57.02,.67-.28,1.35-.54,2.03-.77,.6-.21,1.21-.4,1.81-.56,.8-.22,1.62-.42,2.43-.57,1.59-.3,2.75-.44,4.13-.49h.02c.27,0,.49,.21,.5,.48,0,.28-.21,.51-.48,.52-1.32,.04-2.44,.17-3.98,.47-.79,.15-1.58,.34-2.35,.55-.58,.16-1.17,.34-1.75,.54-.65,.22-1.31,.48-1.96,.75-19.39,8.12-33.29,33.24-30.98,56,1.17,11.48,6.41,20.78,14.39,25.5,.24,.14,.32,.45,.17,.69-.09,.16-.26,.25-.43,.25Z"/><path class="cls-2" d="M53.92,211.1c-3.93,0-7.68-1-11.02-2.99-6.87-4.08-11.38-12.06-12.37-21.88-1.96-19.3,9.84-40.6,26.31-47.5,2.15-.9,4.33-1.53,6.47-1.88,.27-.04,.53,.14,.57,.42,.04,.27-.14,.53-.42,.57-2.06,.33-4.17,.94-6.24,1.81-16.09,6.74-27.62,27.58-25.7,46.47,.96,9.5,5.3,17.2,11.89,21.12,5.92,3.52,13.18,3.78,20.45,.74,16.09-6.74,27.62-27.58,25.7-46.47-1.44-14.2-9.98-23.61-21.75-23.96-.28,0-.49-.24-.49-.51,0-.28,.24-.49,.51-.49,12.11,.36,21.24,10.35,22.71,24.86,1.96,19.3-9.84,40.6-26.31,47.5-3.49,1.46-6.98,2.19-10.33,2.19Z"/><path class="cls-2" d="M51.35,207.75c-6.01,0-11.56-2.31-15.81-6.79-.19-.2-.18-.52,.02-.71,.2-.19,.52-.18,.71,.02,6.31,6.66,15.66,8.29,25,4.39,16.09-6.74,27.62-27.59,25.7-46.48-.61-5.99-2.61-11.04-6.11-15.46-.17-.22-.14-.53,.08-.7,.22-.17,.53-.14,.7,.08,3.62,4.57,5.69,9.8,6.32,15.98,1.96,19.3-9.84,40.6-26.31,47.5-3.48,1.46-6.96,2.17-10.3,2.17Z"/><path class="cls-2" d="M53.92,213.11c-4.34,0-8.39-1.1-12.04-3.27-7.42-4.41-12.28-12.94-13.34-23.4-2.04-20.11,10.31-42.34,27.53-49.55,2.31-.97,5.04-1.76,7.3-2.12l.16,.99c-2.19,.35-4.84,1.12-7.08,2.06-16.84,7.05-28.92,28.82-26.92,48.52,1.03,10.14,5.72,18.39,12.86,22.64,3.49,2.08,7.37,3.13,11.53,3.13,3.52,0,7.13-.76,10.72-2.27,16.84-7.05,28.92-28.82,26.92-48.52-1.53-15.03-11.04-25.38-23.68-25.76l.03-1c13.16,.4,23.06,11.11,24.64,26.65,2.04,20.11-10.31,42.34-27.53,49.55-3.72,1.56-7.46,2.35-11.11,2.35Z"/></g><path class="cls-2" d="M61.01,174.88c-.43,0-.83-.19-1.1-.51-.27-.33-.39-.76-.32-1.18,.57-3.25,3.67-37.61,3.86-41.87l.02-.39c.16-3.58,.24-5.38-.77-6.01-2.21-1.39-2.1-3.14-1.94-5.57,.02-.28,.27-.5,.53-.47,.28,.02,.48,.26,.47,.53-.17,2.55-.17,3.62,1.47,4.65,1.5,.94,1.42,2.94,1.24,6.91l-.02,.39c-.2,4.47-3.28,38.56-3.88,41.99-.03,.18,.05,.3,.1,.36,.05,.06,.16,.16,.34,.16,.2,0,.37-.13,.42-.32,.9-3.21,6.21-38.35,6.39-42.24v-.13c.18-3.87,.31-6.92-1.24-8.13-1.89-1.48-1.88-4.24-1.86-7.16,0-.49,0-.98,0-1.48,0-.28,.22-.5,.49-.51h0c.27,0,.5,.22,.5,.49,0,.5,0,1,0,1.5-.01,2.78-.03,5.19,1.48,6.37,1.96,1.53,1.81,4.81,1.62,8.96v.13c-.18,3.91-5.52,39.23-6.43,42.46-.18,.63-.73,1.05-1.39,1.05Z"/><path class="cls-2" d="M59.91,177.84c-.46,0-.89-.12-1.28-.35-.78-.46-1.29-1.35-1.4-2.43-.21-2.06,1.01-4.26,2.79-5,.26-.11,.55,.01,.65,.27s-.01,.55-.27,.65c-1.34,.56-2.34,2.38-2.18,3.97,.08,.76,.41,1.37,.92,1.67,.44,.26,.99,.28,1.55,.04,1.34-.56,2.34-2.38,2.18-3.97-.06-.58-.26-1.07-.59-1.41-.19-.2-.19-.52,.01-.71,.2-.19,.52-.18,.71,.01,.48,.5,.78,1.19,.86,2,.21,2.06-1.02,4.25-2.79,5-.39,.16-.78,.25-1.16,.25Z"/><path class="cls-2" d="M55.73,129.56s-.02,0-.04,0c-.28-.02-.48-.26-.46-.53,.2-2.87,.39-4.59,.59-5.25,.4-1.35,.91-1.87,1.37-2.33,.34-.35,.63-.64,.9-1.32,.63-1.62,.79-5.12,.79-5.16,.01-.28,.23-.53,.52-.48,.28,.01,.49,.25,.48,.52,0,.15-.17,3.71-.86,5.48-.34,.86-.75,1.29-1.12,1.66-.41,.41-.79,.8-1.12,1.91-.12,.4-.31,1.6-.55,5.03-.02,.26-.24,.47-.5,.47Z"/><path class="cls-2" d="M54.61,167.03c-.27,0-.5-.22-.5-.5-.04-6.14,.19-16.95,.55-26.29,.01-.28,.2-.49,.52-.48,.28,.01,.49,.24,.48,.52-.36,9.33-.59,20.12-.55,26.25,0,.28-.22,.5-.5,.5h0Z"/><path class="cls-2" d="M56.98,165.67h-.03c-.28-.02-.49-.25-.47-.53,.39-7.04,1.24-18.4,1.9-26.54,.02-.27,.25-.47,.54-.46,.27,.02,.48,.26,.46,.54-.66,8.13-1.51,19.48-1.9,26.52-.01,.27-.24,.47-.5,.47Z"/><path class="cls-2" d="M59.91,128.5s-.05,0-.07,0c-.27-.04-.46-.29-.42-.57,.38-2.63,.77-3.25,1.88-4.46,.19-.2,.5-.22,.71-.03,.2,.19,.22,.5,.03,.71-.95,1.05-1.27,1.49-1.62,3.93-.04,.25-.25,.43-.49,.43Z"/><path class="cls-2" d="M62.05,90.54c-.8,0-1.57-.15-2.16-.39-1.01-.4-1.21-1.07-1.23-1.43-.06-.79,.54-1.51,1.12-1.84,.24-.13,.54-.05,.68,.19,.14,.24,.05,.54-.19,.68-.37,.21-.64,.61-.62,.9,.02,.28,.34,.47,.6,.57,1.03,.41,2.64,.49,3.73-.14,.48-.28,.77-.62,.77-.93s-.29-.51-.47-.61c-.24-.14-.32-.44-.18-.68,.14-.24,.45-.32,.68-.18,.63,.36,.97,.89,.97,1.48,0,.67-.46,1.33-1.27,1.79-.73,.42-1.6,.59-2.44,.59Z"/><path class="cls-2" d="M61.49,115.43c-1.15,0-2.26-.24-3.1-.73-.83-.48-1.33-1.22-1.4-2.09-.02-.28,.18-.52,.46-.54,.26-.03,.52,.18,.54,.46,.04,.53,.37,1,.91,1.31,1.51,.87,4.28,.75,6.04-.27,.86-.5,1.35-1.12,1.35-1.71,0-.28,.22-.5,.5-.5h0c.28,0,.5,.22,.5,.5,0,.96-.67,1.89-1.85,2.57-1.14,.66-2.58,1-3.94,1Z"/><path class="cls-2" d="M61.83,91.99c-1.25,0-2.45-.28-3.3-.77-.93-.53-1.42-1.44-1.33-2.43,.11-1.13,.96-2.07,2.26-2.52,.26-.09,.54,.05,.63,.31,.09,.26-.05,.55-.31,.63-.92,.31-1.52,.94-1.59,1.67-.06,.58,.25,1.13,.83,1.47,1.46,.85,4.29,.95,6.01-.25,.86-.6,1.32-1.37,1.22-2.01-.09-.58-.68-1.06-1.64-1.36-.26-.08-.41-.36-.33-.62,.08-.26,.36-.41,.62-.33,1.83,.56,2.25,1.59,2.34,2.16,.16,1.04-.45,2.15-1.64,2.99-1.06,.74-2.45,1.07-3.78,1.07Z"/><path class="cls-2" d="M140.15,70.19c-.84,0-1.65-.2-2.23-.53-.64-.37-.99-1-.94-1.69,.06-.67,.49-1.26,1.09-1.49,.26-.1,.55,.03,.64,.29,.1,.26-.03,.55-.29,.64-.25,.09-.43,.35-.45,.63-.01,.17,.02,.5,.44,.75,.9,.52,2.64,.59,3.69-.15,.46-.32,.71-.71,.66-1.03-.05-.31-.4-.46-.61-.53-.26-.08-.41-.36-.33-.62,.08-.27,.36-.42,.62-.33,.73,.22,1.21,.71,1.31,1.33,.11,.71-.29,1.45-1.07,2-.73,.51-1.65,.73-2.54,.73Z"/><path class="cls-2" d="M140.15,71.89c-.84,0-1.65-.2-2.23-.53-.65-.37-1-1.01-.95-1.7v-1.66c0-.28,.22-.5,.5-.5s.5,.22,.5,.5v1.69c-.02,.34,.14,.62,.45,.8,.9,.52,2.64,.59,3.69-.15,.66-.46,.67-.82,.67-.94-.02-.67,0-1.89,0-1.89l1,.02s-.02,1.18,0,1.87c-.02,.68-.38,1.26-1.1,1.76-.73,.51-1.65,.73-2.54,.73Z"/><path class="cls-2" d="M61.98,39.61c-.87,0-1.71-.21-2.3-.55-.66-.38-1.02-1.03-.96-1.74,.06-.69,.5-1.29,1.12-1.52,.26-.1,.55,.03,.64,.29,.1,.26-.03,.55-.29,.64-.26,.1-.45,.37-.48,.67-.01,.18,.03,.53,.47,.79,.94,.54,2.75,.61,3.85-.16,.44-.31,.67-.69,.63-1.06-.03-.26-.2-.49-.46-.6-.25-.11-.37-.4-.27-.66,.11-.25,.4-.37,.66-.27,.6,.25,.99,.78,1.06,1.41,.08,.74-.3,1.46-1.05,1.99-.76,.53-1.71,.75-2.62,.75Z"/><path class="cls-2" d="M61.98,41.37c-.87,0-1.71-.21-2.3-.55-.66-.38-1.03-1.04-.97-1.75v-1.72c0-.28,.22-.5,.5-.5s.5,.22,.5,.5v1.76c-.03,.36,.15,.66,.48,.84,.94,.54,2.75,.61,3.85-.16,.47-.33,.7-.65,.7-.99-.02-.7,0-1.95,0-1.95l1,.02s-.02,1.23,0,1.93c-.02,.7-.4,1.3-1.13,1.81-.75,.53-1.71,.75-2.62,.75Z"/><path class="cls-2" d="M64.27,89.59c-.28,0-.5-.22-.5-.5V40.4c0-.28,.22-.5,.5-.5s.5,.22,.5,.5v48.69c0,.28-.22,.5-.5,.5Z"/><path class="cls-2" d="M64.27,38.71c-.28,0-.5-.22-.5-.5V19.89c0-.28,.22-.5,.5-.5s.5,.22,.5,.5v18.32c0,.28-.22,.5-.5,.5Z"/><path class="cls-2" d="M60.03,39c-.28,0-.5-.22-.5-.5V18.19c0-.28,.22-.5,.5-.5s.5,.22,.5,.5v20.31c0,.28-.22,.5-.5,.5Z"/><path class="cls-2" d="M60.03,89.99c-.28,0-.5-.22-.5-.5V40.59c0-.28,.22-.5,.5-.5s.5,.22,.5,.5v48.9c0,.28-.22,.5-.5,.5Z"/><path class="cls-2" d="M56.74,12.63c-.07,0-.13-.01-.2-.04l-6.6-2.81c-.25-.11-.37-.4-.26-.66,.11-.25,.4-.37,.66-.26l6.6,2.81c.25,.11,.37,.4,.26,.66-.08,.19-.27,.3-.46,.3Z"/><path class="cls-2" d="M56.34,15.78c-.07,0-.13-.01-.2-.04l-7.46-3.18c-.25-.11-.37-.4-.26-.66s.4-.37,.66-.26l7.46,3.18c.25,.11,.37,.4,.26,.66-.08,.19-.27,.3-.46,.3Z"/><path class="cls-2" d="M73.04,23.03c-.07,0-.13-.01-.2-.04l-7.53-3.22c-.25-.11-.37-.4-.26-.66,.11-.25,.41-.37,.66-.26l7.53,3.22c.25,.11,.37,.4,.26,.66-.08,.19-.27,.3-.46,.3Z"/><path class="cls-2" d="M74.82,20.48c-.07,0-.13-.01-.2-.04l-7.02-3c-.25-.11-.37-.4-.26-.66,.11-.25,.4-.37,.66-.26l7.02,3c.25,.11,.37,.4,.26,.66-.08,.19-.27,.3-.46,.3Z"/><path class="cls-2" d="M90.03,32.28c-.06,0-.13-.01-.19-.04l-15.81-6.49c-.26-.11-.38-.4-.27-.65,.11-.25,.4-.38,.65-.27l15.81,6.49c.26,.11,.38,.4,.27,.65-.08,.19-.27,.31-.46,.31Z"/><path class="cls-2" d="M92.73,26.72c-.06,0-.13-.01-.19-.04l-16.06-6.5c-.26-.1-.38-.4-.28-.65,.1-.26,.39-.38,.65-.28l16.06,6.5c.26,.1,.38,.4,.28,.65-.08,.19-.27,.31-.46,.31Z"/><path class="cls-2" d="M64.59,20.04c-.25,0-.5-.05-.76-.16l-5.98-2.4c-.84-.34-1.56-1.17-1.78-2.07l-.42-1.69c-.17-.71-.01-1.36,.43-1.74,.44-.38,1.06-.45,1.72-.19l6.85,2.75c1.28,.52,2.14,2.06,1.76,3.19l-.45,1.34c-.13,.38-.39,.67-.73,.83-.2,.09-.41,.13-.64,.13Zm-7.54-7.4c-.12,0-.23,.03-.3,.1-.16,.13-.2,.42-.12,.75l.42,1.69c.14,.58,.64,1.16,1.18,1.38l5.98,2.4c.24,.09,.46,.11,.61,.04,.1-.04,.16-.12,.2-.24l.45-1.34c.19-.56-.35-1.6-1.18-1.94l-6.85-2.75c-.14-.06-.27-.08-.39-.08Z"/><path class="cls-2" d="M65.11,15.91c-.21,0-.41-.14-.48-.35-.08-.26,.06-.54,.33-.63l1.46-.46-7.1-2.87-2.49,1c-.25,.1-.55-.02-.65-.28-.1-.26,.02-.55,.28-.65l2.67-1.07c.12-.05,.25-.05,.37,0l8.57,3.47c.2,.08,.32,.27,.31,.48,0,.21-.15,.39-.35,.46l-2.79,.88c-.05,.02-.1,.02-.15,.02Z"/><path class="cls-2" d="M65.74,19.67s-.05,0-.08,0c-.27-.04-.46-.3-.42-.57,.17-1.11,1.07-2.21,1.85-2.64,.11-.06,.21-.11,.31-.14v-1.78c0-.28,.22-.5,.5-.5s.5,.22,.5,.5v2.25c0,.17-.08,.33-.22,.42s-.32,.11-.47,.04c-.23,.03-1.31,.96-1.47,2-.04,.25-.25,.42-.49,.42Z"/><path class="cls-2" d="M47.74,13.63c-.06,0-.13-.01-.19-.04L30.78,6.57c-.25-.11-.38-.4-.27-.65,.11-.25,.4-.38,.65-.27l16.76,7.03c.25,.11,.38,.4,.27,.65-.08,.19-.27,.31-.46,.31Z"/><path class="cls-2" d="M50.14,8.06c-.06,0-.13-.01-.19-.04L33.08,.96c-.25-.11-.37-.4-.27-.65,.11-.25,.4-.38,.65-.27l16.87,7.06c.25,.11,.37,.4,.27,.65-.08,.19-.27,.31-.46,.31Z"/><path class="cls-2" d="M31.27,6.67s-.08,0-.12-.01c-.43-.11-.77-.37-.98-.77-.35-.65-.33-1.59,.07-2.72C30.78,1.63,32.02,0,33.27,0c.28,0,.5,.22,.5,.5s-.22,.5-.5,.5c-.51,0-1.55,.95-2.09,2.5-.29,.83-.34,1.52-.13,1.91,.08,.15,.19,.23,.34,.27,.27,.07,.43,.34,.36,.61-.06,.23-.26,.38-.49,.38Z"/><path class="cls-2" d="M58.91,182.62c-.9,0-1.75-.23-2.52-.69-1.55-.92-2.57-2.71-2.8-4.91-.43-4.22,2.16-8.89,5.78-10.41,.36-.15,.73-.27,1.1-.35,.27-.06,.54,.11,.6,.38,.06,.27-.11,.54-.38,.6-.31,.07-.62,.17-.93,.3-3.24,1.36-5.56,5.57-5.17,9.38,.19,1.88,1.03,3.39,2.31,4.15,1.14,.67,2.54,.72,3.95,.13,3.24-1.36,5.56-5.57,5.17-9.38-.22-2.13-1.28-3.78-2.83-4.41-.26-.1-.38-.39-.28-.65,.1-.26,.39-.38,.65-.28,1.91,.77,3.2,2.73,3.45,5.23,.43,4.23-2.17,8.89-5.78,10.41-.79,.33-1.57,.49-2.33,.49Z"/><path class="cls-2" d="M55.28,180.76s-.04,0-.06,0c-2.43-.3-4.07-2.38-4.4-5.55-.43-4.22,2.16-8.89,5.78-10.41,1.36-.57,2.73-.65,3.96-.22,.26,.09,.4,.38,.31,.64-.09,.26-.38,.4-.64,.31-.99-.34-2.12-.28-3.25,.2-3.24,1.36-5.56,5.57-5.17,9.38,.28,2.72,1.56,4.42,3.52,4.66,.27,.03,.47,.28,.43,.56-.03,.25-.25,.44-.5,.44Z"/><path class="cls-2" d="M175.78,107.97c-.13,0-.25-.05-.35-.14l-33.19-32.4c-.2-.19-.2-.51,0-.71,.19-.2,.51-.2,.71,0l33.19,32.4c.2,.19,.2,.51,0,.71-.1,.1-.23,.15-.36,.15Z"/><path class="cls-2" d="M170.86,108.83c-.12,0-.25-.05-.35-.14l-28.55-27.51c-.2-.19-.21-.51-.01-.71,.19-.2,.51-.2,.71-.01l28.55,27.51c.2,.19,.21,.51,.01,.71-.1,.1-.23,.15-.36,.15Z"/><path class="cls-2" d="M142.31,69.45c-.28,0-.5-.22-.5-.5V32.31c0-.28,.22-.5,.5-.5s.5,.22,.5,.5v36.64c0,.28-.22,.5-.5,.5Z"/><path class="cls-2" d="M142.31,116.97c-.28,0-.5-.22-.5-.5v-45.6c0-.28,.22-.5,.5-.5s.5,.22,.5,.5v45.6c0,.28-.22,.5-.5,.5Z"/><path class="cls-2" d="M144.71,127.42c-.18,0-.36-.1-.45-.27-.13-.25-.03-.55,.22-.67l30.64-15.61c.66-.34,1.05-1.03,.98-1.78-.05-.61-.39-1.13-.93-1.43-.54-.3-1.16-.3-1.7-.02l-28.41,14.6c-.24,.13-.55,.03-.67-.22-.13-.25-.03-.55,.22-.67l28.41-14.6c.83-.43,1.82-.41,2.64,.04,.82,.45,1.36,1.28,1.44,2.22,.1,1.15-.5,2.23-1.53,2.75l-30.64,15.61c-.07,.04-.15,.05-.23,.05Z"/><path class="cls-2" d="M83.46,32.81c-.63,0-.86-.28-1.06-.6-.13-.21-.27-.42-.86-.63-.1-.04-10.22-3.67-12.36-5-1.26-.79-1.59-1.78-1.65-2.48-.12-1.49,.86-2.91,1.54-3.5l.21-.18,.26,.08c.98,.3,2.09,.97,2.14,1l.52,.31-.4,.45c-.42,.47-.6,.86-.52,1.15,.07,.29,.44,.74,1.78,1.22,2.56,.92,10.95,4.01,11.41,5.23,.32,.83,.58,1.76,.19,2.39-.14,.23-.43,.5-.99,.55-.07,0-.14,0-.21,0Zm-.13-1.01s.07,.02,.25,0c.12-.01,.2-.04,.23-.09,.07-.11,.13-.45-.27-1.51-.49-.66-6.71-3.17-10.82-4.65-1.43-.51-2.21-1.14-2.41-1.92-.13-.5,0-1.02,.37-1.58-.31-.17-.74-.37-1.15-.53-.51,.55-1.07,1.54-1,2.47,.05,.68,.45,1.26,1.18,1.71,1.83,1.14,10.53,4.32,12.16,4.9,.85,.3,1.15,.68,1.37,1.04,.03,.05,.07,.11,.09,.12h0Z"/><path class="cls-2" d="M48.69,18.31c-.66,0-1.37-.15-2.14-.45l-1.05-.42c-3.07-1.22-10.25-4.08-11.56-3.7-.4,.12-.71,.22-.97,.31-.8,.27-1.33,.45-1.96-.18-.47-.47-.27-1.39,.12-2.09,.68-1.21,2.24-2.31,4.59-1.73,1.57,.38,4.28,1.43,6.91,2.43,2.23,.86,4.53,1.74,5.22,1.84,1.49,.21,1.99-1.3,2-1.36,.08-.26,.36-.41,.63-.33,.26,.08,.41,.36,.33,.63-.26,.83-1.25,2.31-3.1,2.06-.8-.11-2.95-.94-5.44-1.89-2.48-.95-5.28-2.03-6.79-2.4-1.76-.43-2.73,.32-3.16,.8-.53,.61-.63,1.25-.57,1.38q.16,.15,.9-.1c.27-.09,.6-.2,1.01-.32,1.34-.39,5.68,1.14,12.21,3.73l1.05,.41c2.53,.99,4.13,.09,5.37-3.02,.1-.26,.39-.38,.65-.28,.26,.1,.38,.39,.28,.65-1.08,2.7-2.57,4.03-4.53,4.03Z"/><g><path class="cls-2" d="M54.93,172.43c-.21,0-.41-.14-.48-.35l-8.1-25.72c-.08-.26,.06-.54,.33-.63,.27-.08,.55,.06,.63,.33l8.1,25.72c.08,.26-.06,.54-.33,.63-.05,.02-.1,.02-.15,.02Z"/><path class="cls-2" d="M56.43,169.74c-.27,0-.49-.21-.5-.48l-1.35-27.76c-.01-.28,.2-.51,.47-.52,.3-.03,.51,.2,.52,.47l1.35,27.76c.01,.28-.2,.51-.47,.52h-.02Z"/><path class="cls-2" d="M62.42,150.4s-.03,0-.04,0c-.28-.02-.48-.26-.46-.54l1.03-12.28c.02-.28,.27-.47,.54-.46,.28,.02,.48,.26,.46,.54l-1.03,12.28c-.02,.26-.24,.46-.5,.46Z"/><path class="cls-2" d="M63.6,167.22s-.08,0-.12-.01c-.27-.07-.43-.34-.36-.61l7.3-29.1c.07-.27,.34-.43,.61-.36,.27,.07,.43,.34,.36,.61l-7.3,29.1c-.06,.23-.26,.38-.49,.38Z"/><path class="cls-2" d="M55.57,170.54s-.09,0-.13-.02l-20.63-5.51c-.27-.07-.43-.35-.35-.61,.07-.27,.34-.42,.61-.35l20.63,5.51c.27,.07,.43,.35,.35,.61-.06,.22-.26,.37-.48,.37Z"/><path class="cls-2" d="M57.02,169.06c-.11,0-.23-.04-.32-.12l-17.3-14.59c-.21-.18-.24-.49-.06-.7s.5-.24,.7-.06l17.3,14.59c.21,.18,.24,.49,.06,.7-.1,.12-.24,.18-.38,.18Z"/><path class="cls-2" d="M65.06,160.32c-.08,0-.17-.02-.25-.07-.24-.14-.32-.44-.19-.68l11.65-20.53c.14-.24,.44-.33,.68-.19,.24,.14,.32,.44,.19,.68l-11.65,20.53c-.09,.16-.26,.25-.43,.25Z"/><path class="cls-2" d="M63.6,166.31c-.11,0-.22-.04-.32-.11-.21-.18-.24-.49-.07-.7l18.43-22.37c.18-.21,.49-.24,.7-.07,.21,.18,.24,.49,.07,.7l-18.43,22.37c-.1,.12-.24,.18-.39,.18Z"/><path class="cls-2" d="M70.8,202.34c-.21,0-.41-.14-.48-.35l-6.97-21.83c-.08-.26,.06-.54,.32-.63,.26-.08,.54,.06,.63,.32l6.97,21.83c.08,.26-.06,.54-.32,.63-.05,.02-.1,.02-.15,.02Z"/><path class="cls-2" d="M63,207.36c-.26,0-.48-.21-.5-.47l-1.44-25.43c-.02-.28,.2-.51,.47-.53,.32-.03,.51,.2,.53,.47l1.44,25.43c.02,.28-.2,.51-.47,.53h-.03Z"/><path class="cls-2" d="M54.82,209.83h-.02c-.28-.01-.49-.25-.48-.52l1.31-28.18c.01-.28,.24-.52,.52-.48,.28,.01,.49,.25,.48,.52l-1.31,28.18c-.01,.27-.23,.48-.5,.48Z"/><path class="cls-2" d="M47.91,209.83s-.08,0-.13-.02c-.27-.07-.43-.34-.36-.61l7.47-28.36c.07-.27,.35-.43,.61-.36,.27,.07,.43,.34,.36,.61l-7.47,28.36c-.06,.22-.26,.37-.48,.37Z"/><path class="cls-2" d="M83.74,185.74s-.08,0-.12-.02l-20.25-5.23c-.27-.07-.43-.34-.36-.61s.34-.43,.61-.36l20.25,5.23c.27,.07,.43,.34,.36,.61-.06,.23-.26,.38-.48,.38Z"/><path class="cls-2" d="M77.6,195.47c-.11,0-.23-.04-.32-.12l-16.04-13.53c-.21-.18-.24-.49-.06-.7s.5-.24,.7-.06l16.04,13.53c.21,.18,.24,.49,.06,.7-.1,.12-.24,.18-.38,.18Z"/><path class="cls-2" d="M43.17,207.77c-.08,0-.17-.02-.25-.07-.24-.14-.32-.44-.19-.68l14.32-25.24c.14-.24,.44-.33,.68-.19,.24,.14,.32,.44,.19,.68l-14.32,25.24c-.09,.16-.26,.25-.43,.25Z"/><path class="cls-2" d="M38.21,204.14c-.11,0-.22-.04-.32-.11-.21-.18-.24-.49-.07-.7l18.22-22.11c.18-.21,.49-.24,.7-.07,.21,.18,.24,.49,.07,.7l-18.22,22.11c-.1,.12-.24,.18-.39,.18Z"/><path class="cls-2" d="M54.07,178.09s-.04,0-.05,0l-22.75-2.37c-.27-.03-.47-.27-.45-.55,.03-.27,.28-.48,.55-.45l22.75,2.37c.27,.03,.47,.27,.45,.55-.03,.26-.24,.45-.5,.45Z"/><path class="cls-2" d="M30.81,184.75c-.23,0-.43-.16-.49-.39-.06-.27,.11-.54,.38-.6l23.48-5.35c.27-.07,.54,.11,.6,.38,.06,.27-.11,.54-.38,.6l-23.48,5.35s-.08,.01-.11,.01Z"/><path class="cls-2" d="M34.27,198.34c-.12,0-.24-.04-.34-.13-.2-.19-.22-.5-.03-.71l19.79-21.51c.19-.2,.5-.21,.71-.03,.2,.19,.22,.5,.03,.71l-19.79,21.51c-.1,.11-.23,.16-.37,.16Z"/><path class="cls-2" d="M31.89,191.78c-.16,0-.31-.07-.41-.21-.16-.22-.11-.54,.12-.7l22.18-15.86c.22-.16,.54-.11,.7,.12,.16,.22,.11,.54-.12,.7l-22.18,15.86c-.09,.06-.19,.09-.29,.09Z"/><path class="cls-2" d="M66.28,170.98c-.12,0-.24-.04-.34-.13-.2-.19-.22-.5-.03-.71l19.61-21.32c.19-.2,.5-.21,.71-.03,.2,.19,.22,.5,.03,.71l-19.61,21.32c-.1,.11-.23,.16-.37,.16Z"/><path class="cls-2" d="M66.54,172.43c-.15,0-.3-.07-.4-.2-.16-.22-.12-.54,.11-.7l22.22-16.43c.22-.16,.53-.12,.7,.11,.16,.22,.12,.54-.11,.7l-22.22,16.43c-.09,.07-.19,.1-.3,.1Z"/><path class="cls-2" d="M87.92,174.17s-.04,0-.05,0l-21.38-2.23c-.27-.03-.47-.27-.45-.55,.03-.28,.28-.48,.55-.45l21.38,2.23c.27,.03,.47,.27,.45,.55-.03,.26-.24,.45-.5,.45Z"/><path class="cls-2" d="M66.28,170.34c-.22,0-.42-.15-.48-.37-.07-.27,.09-.54,.35-.61l23.09-6.19c.27-.07,.54,.09,.61,.35,.07,.27-.09,.54-.35,.61l-23.09,6.19s-.09,.02-.13,.02Z"/></g><g><path class="cls-2" d="M168.31,110.15s-.05,0-.08,0c-.27-.04-.46-.3-.41-.58,.16-.97,.46-1.93,.89-2.85,.12-.25,.42-.36,.67-.24,.25,.12,.36,.42,.24,.67-.39,.83-.67,1.7-.81,2.59-.04,.24-.25,.42-.49,.42Z"/><path class="cls-2" d="M173.13,117.79c-1.85,0-3.5-.96-4.51-2.73-.14-.24-.05-.54,.19-.68,.24-.14,.54-.05,.68,.19,1.16,2.03,3.35,2.74,5.6,1.81,3.22-1.33,5.47-5.48,5.02-9.23-.22-1.84-1.09-3.33-2.38-4.08-1.15-.67-2.57-.72-3.98-.14-.54,.22-1.06,.53-1.56,.92-.22,.17-.53,.13-.7-.09-.17-.22-.13-.53,.09-.7,.57-.44,1.17-.8,1.79-1.05,1.71-.71,3.44-.64,4.87,.2,1.56,.91,2.61,2.67,2.86,4.83,.5,4.17-2.03,8.78-5.63,10.28-.79,.33-1.58,.49-2.34,.49Z"/><path class="cls-2" d="M178.4,103.41c-.11,0-.22-.04-.32-.11-.68-.56-2.7-2.08-3.84-2.35-1.23-.3-2.28-.24-3.3,.18-.34,.14-.67,.32-1,.52-.23,.14-.54,.08-.69-.15-.15-.23-.08-.54,.15-.69,.37-.24,.76-.44,1.16-.6,1.21-.5,2.49-.58,3.91-.23,1.59,.38,4.13,2.47,4.24,2.56,.21,.18,.24,.49,.07,.7-.1,.12-.24,.18-.39,.18Z"/><path class="cls-2" d="M165.53,111.53c-.24,0-.45-.17-.49-.41-.04-.21-.07-.43-.1-.65-.25-2.11,.24-4.37,1.38-6.36,.14-.24,.44-.32,.68-.18,.24,.14,.32,.44,.18,.68-1.02,1.77-1.48,3.87-1.26,5.74,.02,.2,.05,.39,.09,.58,.05,.27-.13,.53-.4,.58-.03,0-.06,0-.09,0Z"/><path class="cls-2" d="M169.68,116.32s-.04,0-.06,0c-.54-.07-1.07-.24-1.56-.5-.24-.13-.33-.44-.2-.68,.13-.24,.44-.33,.68-.2,.38,.21,.78,.34,1.19,.39,.27,.03,.47,.28,.44,.56-.03,.25-.25,.44-.5,.44Z"/></g><path class="cls-2" d="M57.49,103.01h0c-.28,0-.5-.23-.49-.51l.21-13.42c0-.28,.21-.53,.51-.49,.28,0,.5,.23,.49,.51l-.21,13.42c0,.27-.23,.49-.5,.49Z"/><path class="cls-2" d="M66.77,98.01c-.28,0-.5-.22-.5-.5v-9.3c0-.28,.22-.5,.5-.5s.5,.22,.5,.5v9.3c0,.28-.22,.5-.5,.5Z"/><path class="cls-2" d="M66.77,112.53c-.28,0-.5-.22-.5-.5v-4.96c0-.28,.22-.5,.5-.5s.5,.22,.5,.5v4.96c0,.28-.22,.5-.5,.5Z"/><path class="cls-2" d="M66.77,108.86c-.28,0-.5-.22-.5-.5,0-.6,0-.69,36.04-7.14,17.81-3.19,35.62-6.32,35.62-6.32,.27-.05,.53,.13,.58,.41,.05,.27-.13,.53-.41,.58-19.12,3.36-68.89,12.19-71.08,12.9-.08,.05-.17,.07-.26,.07Z"/><path class="cls-2" d="M67.02,95.85c-.28,0-.5-.22-.5-.5,0-.59,0-.73,23.44-3.65,10.61-1.32,25.59-3.12,32.89-3.82,2.27-.22,4.57-.16,6.84,.18l4.53,.67c.27,.04,.46,.29,.42,.57-.04,.27-.3,.46-.57,.42l-4.53-.67c-2.18-.32-4.4-.38-6.59-.17-13.67,1.31-53.7,6.36-55.67,6.91-.07,.04-.16,.07-.25,.07Z"/><path class="cls-2" d="M138.15,114.63h0c-.28,0-.5-.23-.5-.5l.12-42.98c0-.28,.22-.5,.5-.5h0c.28,0,.5,.23,.5,.5l-.12,42.98c0,.28-.22,.5-.5,.5Z"/><path class="cls-2" d="M138.27,69.56h0c-.28,0-.5-.22-.5-.5l.08-35.17c0-.28,.22-.5,.5-.5h0c.28,0,.5,.22,.5,.5l-.08,35.17c0,.28-.22,.5-.5,.5Z"/><path class="cls-2" d="M126.87,88.78c-.26,0-.48-.2-.5-.47-.02-.28,.19-.51,.46-.53,3.69-.25,10.92-6.65,10.92-13.78,0-.28,.22-.5,.5-.5s.5,.22,.5,.5c0,7.92-7.9,14.5-11.85,14.77-.01,0-.02,0-.04,0Z"/><g><g><path class="cls-2" d="M134.08,130.24c-.08,0-.16-.02-.24-.06-.67-.36-1.1-1.08-1.19-1.98-.16-1.61,.79-3.33,2.18-3.91,.66-.28,1.33-.26,1.89,.05,.24,.13,.33,.44,.2,.68-.13,.24-.44,.33-.68,.2-.29-.16-.65-.16-1.03,0-.97,.41-1.69,1.73-1.58,2.88,.06,.56,.3,1,.67,1.2,.24,.13,.33,.43,.2,.68-.09,.17-.26,.26-.44,.26Z"/><path class="cls-2" d="M136.74,131.47c-.37,0-.72-.09-1.03-.28-.62-.37-1.03-1.08-1.12-1.93-.16-1.61,.79-3.33,2.18-3.91,.69-.29,1.38-.26,1.96,.09,.62,.37,1.03,1.08,1.12,1.93,.16,1.61-.79,3.33-2.18,3.91-.31,.13-.62,.2-.93,.2Zm.96-5.32c-.17,0-.35,.04-.54,.12-.97,.41-1.69,1.73-1.58,2.88,.06,.54,.29,.97,.64,1.18,.3,.18,.67,.19,1.06,.02,.97-.41,1.69-1.73,1.58-2.88h0c-.05-.54-.29-.97-.63-1.18-.16-.09-.33-.14-.52-.14Z"/><path class="cls-2" d="M136.33,131.39c-.08,0-.16-.02-.23-.06l-2.51-1.32c-.25-.13-.34-.43-.21-.67,.13-.25,.43-.34,.67-.21l2.51,1.32c.25,.13,.34,.43,.21,.67-.09,.17-.26,.27-.44,.27Z"/><path class="cls-2" d="M139.2,126.71c-.08,0-.16-.02-.23-.06l-2.87-1.49c-.25-.13-.34-.43-.21-.67,.13-.25,.43-.34,.67-.21l2.87,1.49c.25,.13,.34,.43,.21,.67-.09,.17-.26,.27-.44,.27Z"/><path class="cls-2" d="M148.34,134.08c-.11,0-.22-.04-.31-.11l-9.03-7.18c-.22-.17-.25-.49-.08-.7,.17-.22,.49-.25,.7-.08l9.03,7.18c.22,.17,.25,.49,.08,.7-.1,.12-.25,.19-.39,.19Z"/><path class="cls-2" d="M146.7,136.29c-.07,0-.15-.02-.22-.05l-9.71-4.69c-.25-.12-.35-.42-.23-.67s.42-.35,.67-.23l9.71,4.69c.25,.12,.35,.42,.23,.67-.09,.18-.26,.28-.45,.28Z"/></g><g><path class="cls-2" d="M147.64,138.53c-.13,0-.26-.05-.36-.15-.38-.4-.62-.95-.68-1.59-.16-1.61,.79-3.33,2.18-3.91,.66-.27,1.33-.26,1.89,.05,.24,.13,.33,.43,.2,.68-.13,.24-.43,.33-.68,.2-.29-.16-.65-.16-1.03,0-.97,.41-1.69,1.73-1.58,2.88,.04,.42,.18,.76,.41,1,.19,.2,.18,.52-.02,.71-.1,.09-.22,.14-.35,.14Z"/><path class="cls-2" d="M149.02,137.9h-.01c-.28,0-.49-.24-.49-.51,.04-1.48,.97-2.93,2.2-3.44,.98-.41,1.97-.17,2.57,.64,.17,.22,.12,.54-.1,.7-.22,.16-.53,.12-.7-.1-.32-.43-.83-.54-1.38-.32-.87,.37-1.55,1.46-1.59,2.55,0,.27-.23,.49-.5,.49Z"/><path class="cls-2" d="M152.29,134.85c-.08,0-.16-.02-.23-.06l-2.01-1.05c-.25-.13-.34-.43-.21-.67,.13-.25,.43-.34,.67-.21l2.01,1.05c.25,.13,.34,.43,.21,.67-.09,.17-.26,.27-.44,.27Z"/></g><g><path class="cls-2" d="M132.25,140.35c-1.43,0-2.8-.36-4.02-1.09-2.49-1.48-4.12-4.36-4.48-7.89-.7-6.88,3.52-14.48,9.4-16.94,2.75-1.15,5.5-1.04,7.76,.3,2.49,1.48,4.12,4.36,4.48,7.9,.25,2.43-.11,5.03-1.03,7.52-.09,.26-.38,.39-.64,.3-.26-.09-.39-.38-.3-.64,.87-2.35,1.2-4.8,.97-7.08-.33-3.22-1.78-5.82-4-7.14-1.98-1.18-4.41-1.26-6.86-.24-5.5,2.3-9.44,9.44-8.79,15.92,.33,3.22,1.79,5.82,4,7.14,1.98,1.18,4.41,1.26,6.86,.24,2.31-.96,4.46-2.86,6.07-5.34,.15-.23,.46-.29,.69-.15,.23,.15,.3,.46,.15,.69-1.72,2.64-4.03,4.68-6.52,5.72-1.26,.53-2.52,.79-3.74,.79Z"/><g><path class="cls-2" d="M133.9,123.42c-.46,0-.86-.23-1.11-.63l-1.37-2.26c-.21-.35-.25-.82-.1-1.33,.19-.63,.61-1.17,1.11-1.41l3.81-1.84c.45-.21,.9-.17,1.22,.13,.41,.38,.48,1.09,.18,1.8l-1.52,3.66c-.44,1.06-1.29,1.81-2.12,1.87-.04,0-.07,0-.11,0Zm2.88-6.61s-.04,0-.1,.04l-3.81,1.84c-.24,.12-.48,.44-.59,.8-.08,.25-.06,.45,0,.53l1.37,2.26c.07,.12,.17,.16,.28,.15,.37-.03,.94-.48,1.27-1.26l1.52-3.66c.17-.4,.09-.65,.06-.69Zm-4.13,1.42h0Z"/><path class="cls-2" d="M131.84,137.95c-.25,0-.49-.09-.67-.27-.41-.39-.48-1.09-.18-1.8l1.52-3.66c.44-1.06,1.29-1.81,2.12-1.87,.5-.03,.95,.19,1.21,.63l1.37,2.26c.21,.35,.25,.82,.1,1.33-.19,.63-.61,1.17-1.11,1.42l-3.81,1.84c-.18,.09-.37,.13-.54,.13Zm2.89-6.61s-.02,0-.04,0c-.37,.03-.94,.48-1.27,1.26l-1.52,3.66c-.17,.4-.1,.65-.06,.69,0,0,.04,0,.1-.04l3.81-1.84c.24-.12,.48-.45,.59-.8,.07-.25,.06-.44,0-.52l-1.38-2.26c-.06-.11-.14-.15-.25-.15Zm1.25,4.19h0Z"/><path class="cls-2" d="M140.79,127.59c-.09,0-.18-.01-.26-.03l-1.03-.27c-.27-.07-.43-.34-.36-.61,.07-.27,.34-.43,.61-.36l1.03,.27s.1-.01,.22-.1c.25-.19,.52-.61,.53-1.02l.12-4.69c0-.16-.03-.23-.04-.24-.03,0-.2,.05-.4,.29l-2.45,2.94c-.36,.43-.59,.99-.61,1.5-.01,.28-.22,.47-.52,.48-.28-.01-.49-.25-.48-.52,.03-.73,.34-1.49,.84-2.1l2.45-2.94c.45-.54,1.03-.76,1.53-.58,.44,.17,.7,.62,.68,1.2l-.12,4.69c-.02,.67-.39,1.39-.93,1.8-.26,.2-.54,.3-.81,.3Z"/><path class="cls-2" d="M127.02,134.22c-.12,0-.24-.02-.36-.06-.44-.17-.7-.61-.68-1.2l.12-4.69c.02-.67,.39-1.39,.93-1.8,.35-.26,.73-.36,1.08-.27l2.36,.62c.44,.12,.77,.45,.93,.93,.27,.84-.04,2.02-.75,2.87l-2.45,2.94c-.35,.41-.77,.64-1.17,.64Zm-.04-1.24c0,.16,.03,.23,.04,.24,.08,0,.2-.05,.4-.29l2.45-2.94c.55-.66,.7-1.49,.56-1.93-.07-.23-.19-.26-.23-.27l-2.36-.62s-.1,0-.22,.1c-.25,.19-.52,.61-.53,1.02l-.12,4.69Z"/></g></g><g><path class="cls-2" d="M156.52,149.03c-.08,0-.16-.02-.24-.06-.16-.09-.26-.26-.26-.44v-1.87c0-.17,.09-.33,.23-.42l10.12-6.54c.15-.1,.35-.11,.51-.02,.16,.09,.26,.26,.26,.44v1.87c0,.17-.09,.33-.23,.42l-10.12,6.54c-.08,.05-.18,.08-.27,.08Zm.5-2.09v.68l9.12-5.9v-.68l-9.12,5.9Zm9.62-4.95h0Z"/><path class="cls-2" d="M156.52,147.16c-.09,0-.18-.02-.26-.08l-11.15-6.93c-.15-.09-.23-.25-.24-.42,0-.17,.08-.33,.23-.42l10.12-6.54c.16-.11,.37-.11,.54,0l11.15,6.93c.23,.15,.31,.45,.16,.69-.15,.24-.45,.31-.69,.16l-10.88-6.76-9.19,5.94,10.48,6.51c.23,.15,.31,.45,.16,.69-.09,.15-.26,.24-.42,.24Z"/><path class="cls-2" d="M156.52,149.03c-.09,0-.18-.02-.26-.08l-11.15-6.93c-.15-.09-.24-.25-.24-.42v-1.87c0-.28,.22-.5,.5-.5s.5,.22,.5,.5v1.59l10.91,6.78c.23,.15,.31,.45,.16,.69-.09,.15-.26,.24-.42,.24Z"/><path class="cls-2" d="M150.85,140.98c-.09,0-.17-.02-.25-.07l-1.24-.71c-.15-.09-.25-.25-.25-.42s.08-.34,.23-.43l6.17-3.96c.16-.1,.36-.1,.52-.01l1.24,.71c.15,.09,.25,.25,.25,.42,0,.17-.08,.34-.23,.43l-6.17,3.96c-.08,.05-.18,.08-.27,.08Zm-.28-1.24l.26,.15,5.23-3.36-.26-.15-5.23,3.36Z"/><path class="cls-2" d="M153.46,142.57c-.09,0-.17-.02-.25-.07l-1.24-.71c-.15-.09-.25-.25-.25-.42,0-.17,.08-.34,.23-.43l6.17-3.96c.16-.1,.36-.11,.52-.01l1.24,.71c.15,.09,.25,.25,.25,.42,0,.17-.08,.34-.23,.43l-6.17,3.96c-.08,.05-.18,.08-.27,.08Zm-.27-1.24l.26,.15,5.23-3.36-.26-.15-5.23,3.36Z"/><path class="cls-2" d="M156.06,144.17c-.09,0-.17-.02-.25-.07l-1.24-.71c-.15-.09-.25-.25-.25-.42,0-.17,.08-.34,.23-.43l6.17-3.96c.16-.1,.36-.11,.52-.01l1.24,.71c.15,.09,.25,.25,.25,.42,0,.17-.08,.34-.23,.43l-6.17,3.96c-.08,.05-.18,.08-.27,.08Zm-.27-1.24l.26,.15,5.23-3.36-.26-.15-5.23,3.36Z"/></g><g><path class="cls-2" d="M124.13,117.43c-.16,0-.32-.08-.42-.23-.15-.23-.08-.54,.15-.69l1.13-.73v-.68l-2.46,1.59c-.23,.15-.54,.08-.69-.15-.15-.23-.08-.54,.15-.69l3.23-2.09c.15-.1,.35-.11,.51-.02,.16,.09,.26,.26,.26,.44v1.87c0,.17-.09,.33-.23,.42l-1.36,.88c-.08,.05-.18,.08-.27,.08Z"/><path class="cls-2" d="M115.37,123.09c-.08,0-.16-.02-.24-.06-.16-.09-.26-.26-.26-.44v-1.87c0-.17,.09-.33,.23-.42l2.49-1.61c.23-.15,.54-.09,.69,.15,.15,.23,.08,.54-.15,.69l-2.26,1.46v.68l2.37-1.54c.23-.15,.54-.08,.69,.15,.15,.23,.08,.54-.15,.69l-3.14,2.03c-.08,.05-.18,.08-.27,.08Z"/><path class="cls-2" d="M115.37,121.22c-.09,0-.18-.02-.26-.08l-11.15-6.93c-.15-.09-.23-.25-.24-.42,0-.17,.08-.33,.23-.42l10.12-6.54c.16-.11,.37-.11,.54,0l11.15,6.93c.23,.15,.31,.45,.16,.69-.15,.24-.45,.31-.69,.16l-10.88-6.76-9.19,5.94,10.48,6.51c.23,.15,.31,.45,.16,.69-.09,.15-.26,.24-.42,.24Z"/><path class="cls-2" d="M115.37,123.09c-.09,0-.18-.02-.26-.08l-11.15-6.93c-.15-.09-.24-.25-.24-.42v-1.87c0-.28,.22-.5,.5-.5s.5,.22,.5,.5v1.59l10.91,6.78c.23,.15,.31,.45,.16,.69-.09,.15-.26,.24-.42,.24Z"/><path class="cls-2" d="M109.7,115.04c-.09,0-.17-.02-.25-.07l-1.24-.71c-.15-.09-.25-.25-.25-.42,0-.17,.08-.34,.23-.43l6.17-3.96c.16-.1,.36-.1,.52-.01l1.24,.71c.15,.09,.25,.25,.25,.42,0,.17-.08,.34-.23,.43l-6.17,3.96c-.08,.05-.18,.08-.27,.08Zm-.27-1.24l.26,.15,5.23-3.36-.26-.15-5.23,3.36Z"/><path class="cls-2" d="M112.31,116.64c-.09,0-.17-.02-.25-.07l-1.24-.71c-.15-.09-.25-.25-.25-.42,0-.17,.08-.34,.23-.43l6.17-3.96c.16-.1,.36-.1,.52-.01l1.24,.71c.15,.09,.25,.25,.25,.42,0,.17-.08,.34-.23,.43l-6.17,3.96c-.08,.05-.18,.08-.27,.08Zm-.27-1.24l.26,.15,5.23-3.36-.26-.15-5.23,3.36Z"/><path class="cls-2" d="M114.92,118.23c-.09,0-.17-.02-.25-.07l-1.24-.71c-.15-.09-.25-.25-.25-.42s.08-.34,.23-.43l6.17-3.96c.16-.1,.36-.1,.52-.01l1.24,.71c.15,.09,.25,.25,.25,.42,0,.17-.08,.34-.23,.43l-6.17,3.96c-.08,.05-.18,.08-.27,.08Zm-.28-1.24l.26,.15,5.23-3.36-.26-.15-5.23,3.36Z"/></g><g><path class="cls-2" d="M118.92,121.23c-.08,0-.16-.02-.24-.06-.67-.36-1.1-1.08-1.19-1.98-.16-1.61,.8-3.33,2.18-3.91,.66-.28,1.33-.26,1.89,.05l2.02,1.12c.24,.13,.33,.44,.2,.68-.13,.24-.44,.33-.68,.2l-2.02-1.12c-.29-.16-.65-.16-1.02,0-.97,.41-1.69,1.73-1.58,2.89,.06,.56,.3,1,.67,1.2,.24,.13,.33,.43,.2,.68-.09,.17-.26,.26-.44,.26Z"/><path class="cls-2" d="M121.56,122.32c-.81,0-1.35-.49-1.63-.74-.4-.35-.45-.92-.5-1.34-.16-1.61,.79-3.33,2.18-3.91,.32-.13,.67-.2,1.05-.19,.57,0,1.09,.31,1.44,.82,.35,.52,.44,1.17,.24,1.7-.1,.26-.39,.38-.65,.28-.26-.1-.38-.39-.28-.65,.09-.22,.03-.52-.13-.77-.08-.11-.29-.38-.62-.38-.25,0-.46,.03-.65,.11-.97,.41-1.69,1.73-1.58,2.88,.02,.22,.06,.6,.17,.69,.47,.42,.91,.71,1.74,.25,.24-.13,.54-.05,.68,.19,.13,.24,.05,.55-.19,.68-.47,.26-.89,.36-1.26,.36Z"/><path class="cls-2" d="M125.37,124.18c-.11,0-.21-.03-.31-.1l-3.85-2.98c-.24-.18-.39-.44-.43-.72-.16-1.13,.44-2.14,1.07-2.59,.4-.29,.83-.36,1.16-.19l4.38,2.17c.25,.12,.35,.42,.23,.67-.12,.25-.42,.35-.67,.23l-4.38-2.17s-.19,.11-.39,.36c-.33,.4-.48,.92-.41,1.39l3.9,3.04c.22,.17,.26,.48,.09,.7-.1,.13-.25,.19-.4,.19Z"/><path class="cls-2" d="M120.66,122.03c-.07,0-.14-.01-.21-.04l-1.74-.8c-.25-.12-.36-.41-.25-.66,.12-.25,.41-.36,.66-.25l1.74,.8c.25,.12,.36,.41,.25,.66-.08,.18-.27,.29-.46,.29Z"/></g></g><g><g><path class="cls-2" d="M145.25,140.23c-.17,0-.33-.08-.43-.24-1.15-1.87-2.14-3.91-2.94-6.08-.1-.26,.04-.55,.29-.64,.26-.09,.55,.04,.64,.29,.78,2.11,1.74,4.09,2.85,5.9,.14,.24,.07,.54-.16,.69-.08,.05-.17,.07-.26,.07Z"/><path class="cls-2" d="M167.28,152.98c-7.62,0-14.58-3.16-19.75-9.25-.18-.21-.15-.53,.06-.71,.21-.18,.53-.15,.71,.06,7.58,8.92,19.14,11.3,30.92,6.37,19.22-8.05,33-32.96,30.71-55.52-1.74-17.16-12.24-28.41-26.74-28.67-.75-.03-2.96,.15-4.58,.37-2.25,.31-4.66,1.01-7.39,2.15-7.32,3.06-14.03,8.59-19.4,15.99-.16,.22-.48,.27-.7,.11-.22-.16-.27-.47-.11-.7,5.48-7.54,12.34-13.19,19.82-16.32,2.8-1.17,5.3-1.9,7.64-2.22,1.69-.23,3.93-.41,4.73-.38,15.04,.27,25.93,11.88,27.72,29.57,2.33,22.97-11.72,48.34-31.32,56.54-4.18,1.75-8.34,2.61-12.32,2.61Z"/><path class="cls-2" d="M148.14,88.95c-.09,0-.17-.02-.25-.07-.24-.14-.32-.45-.18-.68,.26-.45,.42-.7,.69-1.14,.15-.23,.46-.3,.69-.16,.24,.15,.31,.45,.16,.69-.27,.44-.42,.68-.68,1.12-.09,.16-.26,.25-.43,.25Z"/><path class="cls-2" d="M148.82,81.42c-.1,0-.21-.03-.3-.1-.22-.16-.27-.48-.11-.7,5.54-7.56,12.38-13.19,19.77-16.28,.67-.28,1.35-.54,2.03-.77,.6-.21,1.21-.39,1.8-.56,.82-.23,1.64-.42,2.44-.57,1.41-.27,2.62-.48,4.14-.49,1.82,0,3.31,0,4.57,.18,5.8,.86,11.05,3.32,15.17,7.11,.2,.19,.22,.5,.03,.71-.19,.2-.5,.22-.71,.03-3.98-3.65-9.04-6.02-14.64-6.85-1.19-.18-2.65-.18-4.41-.17-1.44,0-2.6,.21-3.96,.47-.77,.15-1.57,.33-2.36,.55-.58,.16-1.16,.34-1.75,.54-.66,.23-1.32,.48-1.97,.75-7.22,3.02-13.91,8.54-19.35,15.95-.1,.13-.25,.2-.4,.2Z"/><path class="cls-2" d="M144.71,87.65c-.08,0-.17-.02-.24-.06-.24-.13-.33-.44-.19-.68,.46-.83,.87-1.51,1.37-2.32,.15-.23,.46-.3,.69-.16,.23,.15,.31,.45,.16,.69-.49,.79-.89,1.46-1.35,2.28-.09,.16-.26,.26-.44,.26Z"/><path class="cls-2" d="M136.89,114.63h-.02c-.28-.01-.49-.24-.48-.52,.06-1.45,.15-2.64,.3-3.98,.03-.28,.29-.47,.55-.44,.27,.03,.47,.28,.44,.55-.15,1.31-.24,2.48-.3,3.91-.01,.27-.23,.48-.5,.48Z"/><path class="cls-2" d="M136.88,118.56c-.27,0-.49-.21-.5-.48-.02-.56-.03-1.12-.03-1.68,0-.28,.22-.54,.5-.5,.28,0,.5,.22,.5,.5,0,.55,.01,1.1,.03,1.65,0,.28-.21,.51-.48,.52h-.02Z"/><path class="cls-2" d="M151.73,147.7c-.09,0-.17-.02-.25-.07-4.56-2.7-8.35-6.9-10.95-12.13-.12-.25-.02-.55,.22-.67,.25-.12,.55-.02,.67,.22,2.52,5.06,6.17,9.11,10.57,11.72,.24,.14,.32,.45,.17,.68-.09,.16-.26,.25-.43,.25Z"/><path class="cls-2" d="M149.26,133.76c-.18,0-.35-.1-.44-.26-1.19-2.24-2.12-4.73-2.77-7.39-.06-.27,.1-.54,.37-.6,.27-.06,.54,.1,.6,.37,.62,2.58,1.52,4.99,2.68,7.16,.13,.24,.04,.55-.21,.68-.08,.04-.16,.06-.24,.06Z"/><path class="cls-2" d="M168.59,145.89c-2.11,0-4.17-.29-6.15-.87-.26-.08-.42-.35-.34-.62,.08-.26,.35-.42,.62-.34,4.91,1.43,10.38,.99,15.81-1.28,16.09-6.74,27.62-27.59,25.7-46.48-1.42-13.98-10.16-23.61-21.75-23.96-.02,0-2.55-.02-4.35,.29-2.18,.38-4.28,.99-6.25,1.81-6.07,2.54-11.64,7.11-16.11,13.21-.16,.22-.47,.27-.7,.11-.22-.16-.27-.48-.11-.7,4.58-6.25,10.3-10.93,16.53-13.54,2.04-.85,4.21-1.48,6.47-1.88,1.88-.33,4.44-.3,4.54-.3,12.12,.36,21.25,10.35,22.72,24.86,1.96,19.3-9.84,40.61-26.31,47.5-3.47,1.45-6.96,2.19-10.33,2.19Z"/><path class="cls-2" d="M151.39,94.17c-.08,0-.16-.02-.24-.06-.24-.13-.33-.43-.2-.68,.38-.69,1.02-1.81,1.46-2.54,.14-.24,.45-.31,.69-.17,.24,.14,.31,.45,.17,.69-.44,.72-1.07,1.82-1.44,2.5-.09,.17-.26,.26-.44,.26Z"/><path class="cls-2" d="M145.71,121.71c-.25,0-.47-.19-.5-.45l-.03-.25c-.28-2.71-.28-5.53-.03-8.37,.02-.28,.29-.46,.54-.45,.28,.03,.48,.27,.45,.54-.25,2.78-.25,5.53,.02,8.18l.02,.24c.03,.27-.17,.52-.44,.55-.02,0-.04,0-.06,0Z"/><path class="cls-2" d="M166.5,142.55c-.27,0-.49-.22-.5-.49,0-.28,.21-.51,.49-.51,3.09-.07,6.27-.78,9.44-2.11,16.09-6.74,27.62-27.58,25.7-46.47-.61-5.99-2.61-11.04-6.11-15.46-.17-.22-.14-.53,.08-.7,.21-.17,.53-.14,.7,.08,3.62,4.57,5.69,9.8,6.32,15.98,1.96,19.3-9.84,40.6-26.31,47.5-3.29,1.38-6.58,2.11-9.8,2.18h-.01Z"/><g><path class="cls-2" d="M146.05,132.33c-.73-1.66-1.34-3.44-1.82-5.28l.97-.25c.46,1.79,1.06,3.52,1.77,5.13l-.92,.4Z"/><path class="cls-2" d="M168.58,147.89c-2.87,0-5.65-.49-8.26-1.46l.35-.94c5.7,2.12,12.23,1.81,18.64-.87,16.84-7.05,28.92-28.82,26.92-48.52-1.5-14.79-11.02-25.14-23.69-25.76-.83-.04-2.49-.07-4.35,.2-2.08,.3-4.65,1.04-7.07,2.06-6.29,2.64-12.12,7.41-16.84,13.8l-.8-.59c4.83-6.54,10.8-11.42,17.26-14.13,2.49-1.04,5.16-1.82,7.31-2.12,1.95-.28,3.68-.25,4.54-.21,13.18,.64,23.08,11.36,24.63,26.65,2.04,20.11-10.31,42.34-27.53,49.55-3.72,1.56-7.46,2.35-11.11,2.35Z"/><path class="cls-2" d="M143,118.08c-.05-1.77,0-3.6,.17-5.42l1,.09c-.16,1.79-.21,3.57-.17,5.31l-1,.03Z"/></g></g><g><path class="cls-2" d="M167.2,99.59c-.21,0-.41-.14-.48-.35l-5.7-18.09c-.08-.26,.06-.54,.33-.63,.26-.08,.55,.06,.63,.33l5.7,18.09c.08,.26-.06,.54-.33,.63-.05,.02-.1,.02-.15,.02Z"/><path class="cls-2" d="M170.76,101.16c-.27,0-.49-.21-.5-.48l-1.01-24.4c-.01-.28,.2-.51,.48-.52,.26,0,.51,.2,.52,.48l1.01,24.4c.01,.28-.2,.51-.48,.52h-.02Z"/><path class="cls-2" d="M175.66,102.08s-.03,0-.04,0c-.28-.02-.48-.26-.46-.54l2.45-29.18c.02-.28,.27-.47,.54-.46,.28,.02,.48,.26,.46,.54l-2.45,29.18c-.02,.26-.24,.46-.5,.46Z"/><path class="cls-2" d="M177.38,102.8s-.09,0-.13-.02c-.27-.07-.42-.35-.35-.61l8.19-29.9c.07-.27,.35-.42,.61-.35,.27,.07,.42,.35,.35,.61l-8.19,29.9c-.06,.22-.26,.37-.48,.37Z"/><path class="cls-2" d="M166.06,104.21s-.09,0-.13-.02l-14.43-3.85c-.27-.07-.43-.35-.35-.61,.07-.27,.34-.42,.61-.35l14.43,3.85c.27,.07,.43,.35,.35,.61-.06,.22-.26,.37-.48,.37Z"/><path class="cls-2" d="M176.94,102.08c-.08,0-.16-.02-.23-.06-.24-.13-.34-.43-.21-.67l14.43-27.5c.13-.24,.43-.34,.67-.21,.24,.13,.34,.43,.21,.67l-14.43,27.5c-.09,.17-.26,.27-.44,.27Z"/><path class="cls-2" d="M177.38,101.9c-.11,0-.23-.04-.32-.12-.21-.18-.24-.49-.06-.7l19.32-23.17c.18-.21,.49-.24,.7-.06,.21,.18,.24,.49,.06,.7l-19.32,23.17c-.1,.12-.24,.18-.38,.18Z"/><path class="cls-2" d="M185.47,137.13c-.21,0-.41-.14-.48-.35l-6.97-21.83c-.08-.26,.06-.54,.32-.63,.27-.08,.54,.06,.63,.32l6.97,21.83c.08,.26-.06,.54-.32,.63-.05,.02-.1,.02-.15,.02Z"/><path class="cls-2" d="M177.66,142.14c-.26,0-.48-.21-.5-.47l-1.43-25.16c-.02-.28,.2-.51,.47-.53,.32-.02,.51,.2,.53,.47l1.43,25.16c.02,.28-.2,.51-.47,.53h-.03Z"/><path class="cls-2" d="M169.48,144.61h-.02c-.28-.01-.49-.24-.48-.52l1.07-27.64c.01-.28,.2-.49,.52-.48,.28,.01,.49,.24,.48,.52l-1.07,27.64c-.01,.27-.23,.48-.5,.48Z"/><path class="cls-2" d="M164.06,138.92s-.08,0-.13-.02c-.27-.07-.43-.34-.36-.61l5.76-22.14c.07-.27,.34-.43,.61-.36,.27,.07,.43,.34,.36,.61l-5.76,22.14c-.06,.22-.26,.37-.48,.37Z"/><path class="cls-2" d="M198.41,120.53s-.08,0-.12-.02l-20.25-5.24c-.27-.07-.43-.34-.36-.61,.07-.27,.34-.43,.61-.36l20.25,5.24c.27,.07,.43,.34,.36,.61-.06,.23-.26,.38-.48,.38Z"/><path class="cls-2" d="M192.26,130.25c-.11,0-.23-.04-.32-.12l-15.81-13.33c-.21-.18-.24-.49-.06-.7s.49-.24,.7-.06l15.81,13.33c.21,.18,.24,.49,.06,.7-.1,.12-.24,.18-.38,.18Z"/><path class="cls-2" d="M161.03,136.94c-.08,0-.17-.02-.25-.07-.24-.14-.32-.44-.19-.68l11-19.29c.14-.24,.44-.32,.68-.19,.24,.14,.32,.44,.19,.68l-11,19.29c-.09,.16-.26,.25-.43,.25Z"/><path class="cls-2" d="M156.7,134.33c-.11,0-.23-.04-.32-.12-.21-.18-.24-.49-.06-.7l14.15-16.98c.18-.21,.49-.24,.7-.06,.21,.18,.24,.49,.06,.7l-14.15,16.98c-.1,.12-.24,.18-.38,.18Z"/><path class="cls-2" d="M164.11,112.39s-.04,0-.05,0l-14.9-1.55c-.27-.03-.47-.27-.45-.55,.03-.27,.28-.48,.55-.45l14.9,1.55c.27,.03,.47,.27,.45,.55-.03,.26-.24,.45-.5,.45Z"/><path class="cls-2" d="M145.61,119.5c-.23,0-.43-.16-.49-.39-.06-.27,.11-.54,.38-.6l8.38-1.91c.27-.07,.54,.11,.6,.38,.06,.27-.11,.54-.38,.6l-8.38,1.91s-.08,.01-.11,.01Z"/><path class="cls-2" d="M148.93,133.13c-.12,0-.24-.04-.34-.13-.2-.19-.22-.5-.03-.71l13.4-14.57c.19-.2,.5-.21,.71-.03,.2,.19,.22,.5,.03,.71l-13.4,14.57c-.1,.11-.23,.16-.37,.16Z"/><path class="cls-2" d="M180.3,106.09c-.12,0-.25-.04-.34-.13-.2-.19-.21-.5-.02-.71l20.26-21.64c.19-.2,.5-.21,.71-.02,.2,.19,.21,.5,.02,.71l-20.26,21.64c-.1,.11-.23,.16-.37,.16Z"/><path class="cls-2" d="M180.66,107.22c-.15,0-.31-.07-.41-.21-.16-.22-.11-.54,.11-.7l22.76-16.43c.22-.16,.54-.11,.7,.11,.16,.22,.11,.54-.11,.7l-22.76,16.43c-.09,.06-.19,.09-.29,.09Z"/><path class="cls-2" d="M202.59,108.96s-.03,0-.05,0l-21.92-2.23c-.27-.03-.47-.27-.45-.55,.03-.28,.28-.48,.55-.45l21.92,2.23c.27,.03,.47,.27,.45,.55-.03,.26-.24,.45-.5,.45Z"/><path class="cls-2" d="M180.3,105.45c-.22,0-.42-.15-.48-.37-.07-.27,.08-.54,.35-.61l23.74-6.51c.27-.07,.54,.08,.61,.35,.07,.27-.08,.54-.35,.61l-23.74,6.51s-.09,.02-.13,.02Z"/></g></g><g><path class="cls-2" d="M144.69,113.55c-.09,0-.17-.02-.25-.07-.15-.09-.25-.25-.25-.43v-16.75c0-.18,.1-.34,.25-.43l6.71-3.87c.15-.09,.35-.09,.5,0,.15,.09,.25,.25,.25,.43v12.26c0,2.68-1.59,5.7-3.62,6.87l-3.34,1.93c-.08,.04-.16,.07-.25,.07Zm.5-16.96v15.6l2.59-1.5h0c1.72-.99,3.12-3.69,3.12-6v-11.4l-5.71,3.3Z"/><path class="cls-2" d="M144.69,96.8c-.09,0-.17-.02-.25-.07-.15-.09-.25-.25-.25-.43v-1.87c0-.18,.1-.34,.25-.43l7.26-4.19c.15-.09,.35-.09,.5,0,.15,.09,.25,.25,.25,.43v1.87c0,.18-.1,.34-.25,.43l-7.26,4.19c-.08,.04-.16,.07-.25,.07Zm.5-2.08v.72l6.26-3.62v-.72l-6.26,3.62Z"/><path class="cls-2" d="M134.89,109.59c-.28,0-.5-.22-.5-.5v-13.14c0-.28,.22-.5,.5-.5s.5,.22,.5,.5v13.14c0,.28-.22,.5-.5,.5Z"/><path class="cls-2" d="M151.95,90.73c-.06,0-.13-.01-.19-.04l-9.64-3.89c-.26-.1-.38-.4-.28-.65,.1-.26,.4-.38,.65-.28l9.64,3.89c.26,.1,.38,.4,.28,.65-.08,.19-.27,.31-.46,.31Z"/><path class="cls-2" d="M144.69,94.84c-.06,0-.13-.01-.19-.04l-2.24-.9c-.26-.1-.38-.4-.28-.65,.1-.26,.39-.38,.65-.28l2.24,.9c.26,.1,.38,.4,.28,.65-.08,.19-.27,.31-.46,.31Z"/><path class="cls-2" d="M138.02,110.86c-.06,0-.13-.01-.19-.04l-3.14-1.27c-.26-.1-.38-.4-.28-.65,.1-.26,.4-.38,.65-.28l3.14,1.27c.26,.1,.38,.4,.28,.65-.08,.19-.27,.31-.46,.31Z"/><path class="cls-2" d="M144.69,113.55c-.07,0-.14-.01-.2-.04l-2.24-1c-.25-.11-.37-.41-.25-.66,.11-.25,.41-.37,.66-.25l2.24,1c.25,.11,.37,.41,.25,.66-.08,.19-.27,.3-.46,.3Z"/></g><path class="cls-2" d="M64.64,109.03c-.28,0-.5-.22-.5-.5v-4.33c0-1.69,1.26-3.13,2.94-3.35l50.24-6.52c.27-.04,.52,.16,.56,.43,.04,.27-.16,.52-.43,.56l-50.24,6.52c-1.18,.15-2.07,1.17-2.07,2.36v4.33c0,.28-.22,.5-.5,.5Z"/><path class="cls-2" d="M67.02,104.88c-.24,0-.45-.17-.49-.41-.05-.27,.13-.53,.4-.58l18.32-3.27c.26-.04,.53,.13,.58,.4,.05,.27-.13,.53-.4,.58l-18.32,3.27s-.06,0-.09,0Z"/><path class="cls-2" d="M144.69,96.8s-.1,0-.14-.02l-2.38-.71c-.26-.08-.42-.36-.34-.62,.08-.26,.36-.41,.62-.34l2.38,.71c.26,.08,.42,.36,.34,.62-.07,.22-.26,.36-.48,.36Z"/><path class="cls-2" d="M146.77,110.09c-.17,0-.34-.09-.43-.25-.14-.24-.06-.54,.18-.68,1.54-.9,2.5-2.57,2.5-4.36v-8.27c0-.28,.22-.5,.5-.5s.5,.22,.5,.5v8.27c0,2.14-1.15,4.14-3,5.22-.08,.05-.17,.07-.25,.07Z"/><g><path class="cls-2" d="M51.95,113.38c-.42,0-.92-.14-1.49-.5-1.26-.8-2.23-2.42-2.59-4.33-.05-.27,.13-.53,.4-.58,.26-.05,.53,.13,.58,.4,.3,1.62,1.12,3.02,2.14,3.67,.85,.54,1.3,.33,1.59,.09,.21-.18,.53-.15,.7,.07s.15,.53-.07,.7c-.31,.25-.73,.48-1.28,.48Z"/><path class="cls-2" d="M58.36,111.65c-.21,0-.41-.13-.48-.35-.08-.26,.06-.54,.32-.63,.43-.14,1.09-.88,1.17-1.75,.26-2.64-.96-4.25-2.29-4.47-.27-.04-.46-.3-.41-.57,.04-.27,.31-.46,.57-.41,1.8,.3,3.45,2.3,3.13,5.56-.13,1.28-1.06,2.35-1.86,2.61-.05,.02-.1,.02-.15,.02Z"/><path class="cls-2" d="M50.87,114.57c-.56,0-1.14-.18-1.7-.54-1.48-.94-2.66-2.96-3.1-5.27-.05-.27,.13-.53,.4-.58,.27-.05,.53,.13,.58,.4,.38,2.02,1.42,3.83,2.65,4.61,.65,.42,1.28,.5,1.82,.23,.76-.37,1.29-1.41,1.42-2.78,.26-2.67-.98-5.76-2.77-6.9-.48-.31-.96-.43-1.39-.37-.26,.04-.53-.14-.57-.42-.04-.27,.14-.53,.42-.57,.67-.1,1.39,.07,2.08,.51,2.11,1.34,3.53,4.79,3.23,7.84-.17,1.74-.89,3.05-1.98,3.58-.34,.17-.71,.25-1.09,.25Z"/><path class="cls-2" d="M47.67,108.96c-1.12,0-1.94-.18-2.47-.35-.55-.18-.9-.7-.86-1.26,.26-3.43,2.39-4.99,4.25-4.99,.28,0,.5,.22,.5,.5s-.22,.5-.5,.5c-1.1,0-3.02,.86-3.26,4.07,0,.1,.07,.2,.17,.23,.85,.28,3.29,.76,7.4-.8,.26-.09,.55,.03,.64,.29,.1,.26-.03,.55-.29,.64-2.35,.89-4.21,1.16-5.6,1.16Z"/><path class="cls-2" d="M57.31,104.49s-.08,0-.11-.01c-1.86-.44-6.11-.98-8.28-1.12-.28-.02-.49-.25-.47-.53s.24-.51,.53-.47c2.22,.14,6.48,.68,8.44,1.14,.27,.06,.44,.33,.37,.6-.05,.23-.26,.39-.49,.39Z"/><path class="cls-2" d="M51.46,114.48c-.24,0-.46-.18-.49-.43-.04-.27,.15-.53,.42-.57,2.15-.32,6.91-2.85,6.95-2.87,.24-.13,.54-.04,.68,.21,.13,.24,.04,.55-.21,.68-.2,.11-4.96,2.63-7.27,2.98-.02,0-.05,0-.08,0Z"/><path class="cls-2" d="M58.52,112.91c-.3,0-.57-.06-.81-.19-.34-.18-.58-.48-.68-.85-.07-.27,.09-.54,.36-.61,.27-.07,.54,.09,.61,.36,.02,.1,.08,.17,.18,.22,.2,.11,.53,.1,.88-.03,.76-.28,1.66-1.13,1.84-2.34,.29-1.89-.12-3.69-1.11-4.95-.63-.8-1.44-1.28-2.27-1.35-.76-.06-.93,.44-.96,.59-.05,.27-.31,.45-.58,.4-.27-.05-.45-.3-.4-.57,.09-.54,.61-1.54,2.03-1.41,1.11,.09,2.16,.7,2.97,1.72,1.17,1.48,1.65,3.56,1.32,5.72-.25,1.62-1.43,2.74-2.49,3.13-.3,.11-.6,.17-.88,.17Z"/></g><path class="cls-2" d="M90.65,32.44c-.27,0-.53-.07-.76-.2-.6-.34-.94-1.09-.94-2.04,0-1.65,.98-3.51,2.24-4.23,.64-.37,1.28-.41,1.8-.11,.6,.34,.94,1.09,.94,2.04,0,1.65-.98,3.51-2.24,4.23-.35,.2-.71,.31-1.04,.31Zm1.58-5.78c-.19,0-.39,.08-.54,.17-.94,.54-1.74,2.09-1.74,3.37,0,.58,.16,1.02,.44,1.17,.26,.15,.58,.02,.8-.1,.94-.54,1.74-2.09,1.74-3.37,0-.58-.16-1.02-.44-1.18-.08-.05-.17-.07-.26-.07Z"/><path class="cls-2" d="M79.2,27.8c-.07,0-.13-.01-.2-.04-.69-.3-1.09-1.07-1.09-2.11,0-1.64,.98-3.49,2.23-4.21,.58-.33,1.17-.4,1.67-.17,.25,.12,.36,.41,.25,.66-.11,.25-.41,.36-.66,.25-.25-.12-.55,0-.75,.13-.94,.54-1.73,2.07-1.73,3.35,0,.61,.19,1.06,.48,1.19,.25,.11,.37,.4,.26,.66-.08,.19-.27,.3-.46,.3Z"/><path class="cls-2" d="M82.56,29.14c-.07,0-.13-.01-.2-.04-.69-.3-1.09-1.07-1.09-2.11,0-1.64,.98-3.49,2.23-4.21,.58-.34,1.17-.4,1.67-.17,.25,.11,.36,.41,.25,.66-.11,.25-.41,.36-.66,.25-.2-.09-.46-.04-.75,.13-.94,.54-1.73,2.07-1.73,3.35,0,.61,.19,1.06,.48,1.19,.25,.11,.37,.4,.26,.66-.08,.19-.27,.3-.46,.3Z"/><path class="cls-2" d="M85.92,30.49c-.07,0-.13-.01-.2-.04-.69-.3-1.09-1.07-1.09-2.11,0-1.64,.98-3.49,2.23-4.21,.58-.33,1.17-.4,1.67-.17,.25,.12,.36,.41,.25,.66-.11,.25-.41,.36-.66,.25-.19-.09-.46-.04-.75,.12-.94,.54-1.73,2.07-1.73,3.35,0,.61,.19,1.06,.48,1.19,.25,.11,.37,.4,.26,.66-.08,.19-.27,.3-.46,.3Z"/><path class="cls-2" d="M35.98,8.8c-.07,0-.13-.01-.2-.04-.69-.3-1.09-1.07-1.09-2.11,0-1.64,.98-3.49,2.23-4.21,.58-.33,1.17-.4,1.67-.17,.25,.12,.36,.41,.25,.66-.11,.25-.41,.36-.66,.25-.19-.09-.46-.04-.75,.12-.94,.54-1.73,2.07-1.73,3.35,0,.61,.19,1.06,.48,1.19,.25,.11,.37,.4,.26,.66-.08,.19-.27,.3-.46,.3Z"/><path class="cls-2" d="M39.35,10.15c-.07,0-.13-.01-.2-.04-.69-.3-1.09-1.07-1.09-2.11,0-1.64,.98-3.49,2.23-4.21,.58-.33,1.17-.4,1.67-.17,.25,.12,.36,.41,.25,.66-.11,.25-.41,.36-.66,.25-.19-.09-.46-.04-.75,.13-.94,.54-1.73,2.07-1.73,3.35,0,.61,.19,1.06,.48,1.19,.25,.11,.37,.4,.26,.66-.08,.19-.27,.3-.46,.3Z"/><path class="cls-2" d="M42.71,11.5c-.07,0-.13-.01-.2-.04-.69-.3-1.09-1.07-1.09-2.11,0-1.64,.98-3.49,2.23-4.21,.58-.33,1.17-.4,1.67-.17,.25,.11,.36,.41,.25,.66-.11,.25-.41,.36-.66,.25-.25-.11-.55,0-.75,.13-.94,.54-1.73,2.07-1.73,3.35,0,.61,.19,1.06,.48,1.19,.25,.11,.37,.4,.26,.66-.08,.19-.27,.3-.46,.3Z"/><path class="cls-2" d="M48.24,13.79c-.27,0-.53-.07-.76-.2-.59-.34-.94-1.09-.94-2.04,0-1.65,.98-3.51,2.24-4.23,.64-.37,1.28-.41,1.8-.11,.6,.34,.94,1.09,.94,2.04,0,.14,0,.28-.02,.42-.03,.27-.28,.47-.55,.45-.27-.03-.47-.27-.45-.55,.01-.11,.02-.22,.02-.32,0-.58-.16-1.02-.44-1.18-.26-.15-.58-.02-.8,.1-.94,.54-1.74,2.09-1.74,3.37,0,.58,.16,1.02,.44,1.17,.25,.15,.58,.02,.8-.1,.17-.1,.34-.23,.5-.39,.2-.2,.51-.2,.71,0s.2,.51,0,.71c-.23,.23-.46,.41-.71,.55-.35,.2-.71,.31-1.04,.31Z"/><path class="cls-2" d="M74.22,25.81c-.08,0-.16-.02-.23-.06-.63-.33-1-1.08-1-2.08,0-1.65,.98-3.51,2.24-4.23,.66-.38,1.19-.34,1.51-.23,.26,.08,.41,.37,.32,.63-.08,.26-.37,.41-.63,.32-.24-.08-.52,.04-.71,.15-.94,.54-1.74,2.08-1.74,3.37,0,.6,.17,1.04,.46,1.19,.25,.13,.34,.43,.21,.67-.09,.17-.26,.27-.44,.27Z"/><path class="cls-2" d="M48.86,12.6c-.08,0-.16-.02-.23-.06-.39-.21-.62-.67-.62-1.25,0-.92,.53-1.92,1.24-2.33,.38-.22,.79-.25,1.12-.07,.24,.13,.34,.43,.21,.68-.13,.24-.44,.33-.68,.21,0,0-.06,0-.15,.05-.4,.23-.74,.91-.74,1.46,0,.26,.07,.36,.09,.37,.23,.14,.32,.45,.18,.68-.09,.16-.26,.26-.43,.26Z"/><polygon class="cls-2" points="59.76 14.92 59.31 14.66 59.09 15.05 59.31 15.69 59.76 15.95 59.98 15.56 59.76 14.92"/><polygon class="cls-2" points="62.38 15.98 61.93 15.73 61.71 16.11 61.93 16.75 62.38 17.01 62.6 16.62 62.38 15.98"/><path class="cls-2" d="M54.5,103.98c-.16,0-.31-.07-.41-.21-20.44-28.88-11.47-61.34-1.01-75.03,3.58-4.68,3.33-9.1,2.04-11.46-1.03-1.88-2.83-2.86-4.93-2.68-.28,.01-.52-.18-.54-.46-.02-.28,.18-.52,.46-.54,2.53-.21,4.67,.96,5.9,3.2,1.89,3.46,1.06,8.38-2.12,12.55-10.29,13.46-19.1,45.4,1.03,73.84,.16,.23,.11,.54-.12,.7-.09,.06-.19,.09-.29,.09Z"/><path class="cls-2" d="M46.7,41.81c-.07,0-.15-.02-.22-.05-.25-.12-.35-.42-.23-.67,2.28-4.74,10.93-17.41,17.79-19.18,1.64-.42,3.08-.2,4.27,.65,.22,.16,.28,.47,.12,.7-.16,.23-.47,.28-.7,.12-.96-.68-2.09-.85-3.44-.5-6.03,1.55-14.49,13.13-17.14,18.64-.09,.18-.26,.28-.45,.28Z"/><path class="cls-2" d="M66.79,110.37c-.27,0-.49-.21-.5-.48-.01-.28,.2-.51,.48-.52,11.15-.52,66.39-13.42,66.95-13.56,.28-.06,.54,.1,.6,.37,.06,.27-.1,.54-.37,.6-2.28,.53-55.89,13.05-67.13,13.58h-.02Z"/><path class="cls-2" d="M126.59,35.22c-1.07,0-2-.37-2.41-1.03-.35-.56-.24-1.24,.29-1.8l9.73-8.05c1.26-1.04,2.37-2.99,3.27-4.55,.31-.54,.59-1.03,.85-1.44l1.39-2.19c1.78-2.62,4.58-.98,6.25,0l.33,.19,9.39,5.42c.57,.33,1.2,.78,1.1,1.42-.12,.75-1.13,1.08-3.19,1.49l-3.29,.66c-1.93,.39-3.84,1.45-5.69,2.47-1.14,.63-2.21,1.23-3.28,1.67l-13.22,5.49c-.51,.16-1.02,.24-1.51,.24Zm15.62-19.47c-.64,0-1.2,.28-1.68,.97l-1.38,2.17c-.25,.4-.53,.88-.83,1.4-.94,1.63-2.1,3.67-3.5,4.82l-9.68,8.01c-.28,.29-.17,.47-.12,.53,.27,.44,1.44,.79,2.73,.38l13.18-5.47c1.02-.42,2.07-1,3.18-1.62,1.92-1.06,3.9-2.16,5.98-2.58l3.29-.66c1.54-.31,2.14-.52,2.34-.67-.07-.08-.23-.21-.55-.39l-9.73-5.62c-1.23-.72-2.31-1.29-3.24-1.29Zm13.58,7.38h0Z"/><path class="cls-2" d="M127.49,37.31c-1.14,0-2.27-.25-2.72-.78-.55-.64-.67-2.29-.69-2.61-.02-.28,.19-.51,.47-.53,.31-.02,.51,.19,.53,.47,.05,.77,.23,1.77,.45,2.02,.28,.32,1.8,.59,3.16,.32,1.3-.26,8.22-2.4,12.66-4.41,3.03-1.37,6.35-1.69,8.55-1.91,.95-.09,1.84-.18,2.09-.31,1.83-.96,3.5-2.17,3.76-6.39,.02-.28,.24-.5,.53-.47,.28,.02,.49,.25,.47,.53-.27,4.28-1.85,5.93-4.3,7.21-.42,.22-1.23,.3-2.46,.42-2.13,.21-5.35,.53-8.23,1.83-4.59,2.07-11.51,4.2-12.88,4.48-.43,.09-.92,.13-1.39,.13Z"/><path class="cls-2" d="M143.84,31.91c-.08,0-.16-.02-.24-.06-.24-.13-.34-.43-.21-.68,.43-.81,1.76-3.29,5.32-4.73,.92-.37,1.82-.52,2.95-.71,1.07-.18,2.41-.41,4.16-.91,.27-.08,.54,.08,.62,.34,.08,.27-.08,.54-.34,.62-1.8,.52-3.17,.75-4.27,.93-1.07,.18-1.92,.32-2.74,.66-2.89,1.17-4.13,3-4.81,4.27-.09,.17-.26,.26-.44,.26Z"/></g></g></g></svg>