<?xml version="1.0" encoding="UTF-8"?><svg id="Capa_2" xmlns="http://www.w3.org/2000/svg" viewBox="0 0 269.93 234.56"><defs><style>.cls-1{fill:#96e0aa;}.cls-2{fill:#2b824a;}.cls-3{fill:#59b377;}.cls-4{fill:#ffdc8c;}</style></defs><g id="carro_1"><g><path class="cls-4" d="M269.93,108.84c0,72.47-41.38,125.72-113.85,125.72S7.5,181.31,7.5,108.84,29.31-15.45,99.06,4.19c70.21,19.77,170.87,32.18,170.87,104.65Z"/><path class="cls-2" d="M252.53,103.81c3.65,2.08,3.66,7.35,.01,9.44L88.66,208.22c-4.34,2.49-9.69,2.48-14.02-.02L11.4,172.18c-2.81-1.6-2.82-5.66-.01-7.27L184.19,64.84l68.34,38.97Z"/><g><path class="cls-1" d="M61.19,80.33s.89-1.24,2.71-.32,4.67,1.87,4.67,1.87c0,0,1.24,.26,1.11,2.25s-.24,3.55-.24,3.55c0,0-.06,2.49-2.2,3.25-1.48-.81-6.71-3.81-6.71-3.81,0,0-1.34-1.59-.27-4.49,.67-1.38,.93-2.29,.93-2.29Z"/><path class="cls-2" d="M68.55,90.29c-.2,0-.41-.06-.61-.17l.5-.87c.1,.06,.14,.04,.15,.03,.08-.04,.25-.25,.28-.73l.3-4.14c.07-.93-.38-1.88-.81-2.08l-5.05-2.26c-.37-.16-.72-.18-1.04-.04-.45,.2-.83,.7-1.08,1.41l-.62,1.83c-.09,.25-.09,.61,0,.96l-.97,.25c-.14-.53-.13-1.09,.02-1.53l.62-1.83c.34-1,.9-1.69,1.62-2,.58-.25,1.21-.23,1.84,.05l5.06,2.26c.87,.39,1.5,1.76,1.4,3.06l-.3,4.14c-.05,.73-.35,1.29-.81,1.54-.16,.09-.33,.13-.51,.13Z"/><path class="cls-2" d="M67.33,91.44c-.19,0-.38-.05-.57-.16l-6.49-3.73c-.73-.42-1.12-1.69-.81-2.61l.55-1.6c.3-.89,.81-1.51,1.45-1.79,.52-.23,1.1-.21,1.66,.04l4.42,1.98c.79,.36,1.35,1.56,1.26,2.74l-.26,3.62c-.05,.66-.32,1.17-.74,1.4-.15,.08-.31,.12-.47,.12Zm-5.1-9.05c-.13,0-.25,.03-.37,.08-.38,.16-.7,.59-.91,1.2l-.55,1.6c-.16,.48,.08,1.26,.36,1.42l6.49,3.73c.11,.02,.25-.15,.28-.56l.26-3.62c.06-.78-.32-1.6-.67-1.75l-4.42-1.98c-.17-.08-.33-.11-.49-.11Z"/><polygon class="cls-2" points="67.98 91.27 67.22 90.61 68.96 88.59 69.72 89.24 67.98 91.27"/><rect class="cls-2" x="58.81" y="83.86" width="2.31" height="1" transform="translate(-29.24 136.85) rotate(-85.07)"/><rect class="cls-2" x="61.24" y="80.28" width="2.51" height="1" transform="translate(-36.66 105.26) rotate(-66.14)"/><rect class="cls-2" x="67.23" y="82.61" width="2.3" height="1" transform="translate(-38.84 92.4) rotate(-55.5)"/></g><g><ellipse class="cls-2" cx="81.22" cy="165.77" rx="20.82" ry="11.78" transform="translate(-103.12 175.6) rotate(-66.95)"/><polygon class="cls-2" points="72.97 184.89 92.44 196.13 124.87 156.38 89.65 146.75 72.97 184.89"/><g><ellipse class="cls-2" cx="101.06" cy="177.15" rx="20.82" ry="11.78" transform="translate(-101.51 200.78) rotate(-66.95)"/><ellipse class="cls-3" cx="101.06" cy="177.15" rx="4.08" ry="2.31" transform="translate(-101.51 200.78) rotate(-66.95)"/><g><ellipse class="cls-1" cx="100.89" cy="175.35" rx=".6" ry=".34" transform="translate(-99.96 199.53) rotate(-66.95)"/><ellipse class="cls-1" cx="99.59" cy="177.61" rx=".6" ry=".34" transform="translate(-102.83 199.71) rotate(-66.95)"/><ellipse class="cls-1" cx="100.23" cy="179.52" rx=".6" ry=".34" transform="translate(-104.2 201.45) rotate(-66.95)"/><ellipse class="cls-1" cx="102.05" cy="178.37" rx=".6" ry=".34" transform="translate(-102.04 202.43) rotate(-66.95)"/><ellipse class="cls-1" cx="102.41" cy="175.82" rx=".6" ry=".34" transform="translate(-99.47 201.21) rotate(-66.95)"/></g><polygon class="cls-1" points="101.31 176.3 100.7 176.66 100.39 177.53 100.7 178.06 101.31 177.71 101.61 176.83 101.31 176.3"/><g><path class="cls-3" d="M100.83,173.1v-9.96c-1.17,.68-1.86,1.74-1.86,1.74l1.62,8.49,.24-.27Z"/><path class="cls-3" d="M101.29,172.84v-9.96c1.17-.68,1.86-.41,1.86-.41l-1.62,10.36h-.24Z"/></g><g><path class="cls-3" d="M101.29,181.2v9.96c1.17-.68,1.86-1.74,1.86-1.74l-1.62-8.49-.24,.27Z"/><path class="cls-3" d="M100.83,181.46v9.96c-1.17,.68-1.86,.41-1.86,.41l1.62-10.36h.24Z"/></g><g><path class="cls-3" d="M104.2,175.04l7.47-4.31c0-1.56-.5-2.19-.5-2.19l-7.07,6.24,.1,.27Z"/><path class="cls-3" d="M104.2,175.64l7.47-4.31c0,1.56-.5,2.77-.5,2.77l-7.07,1.92,.1-.38Z"/></g><g><path class="cls-3" d="M97.92,179.26l-7.47,4.31c0,1.56,.5,2.19,.5,2.19l7.07-6.24-.1-.27Z"/><path class="cls-3" d="M97.92,178.66l-7.47,4.31c0-1.56,.5-2.77,.5-2.77l7.07-1.92-.1,.38Z"/></g><g><path class="cls-3" d="M103.12,172.79l5.28-10.09c-.83-.63-1.67-.32-1.67-.32l-3.86,10.42h.24Z"/><path class="cls-3" d="M103.44,173.03l5.28-10.09c.83,.63,.96,1.67,.96,1.67l-6.15,8.69-.1-.26Z"/></g><g><path class="cls-3" d="M99,181.51l-5.28,10.09c.83,.63,1.67,.32,1.67,.32l3.86-10.42h-.24Z"/><path class="cls-3" d="M98.68,181.27l-5.28,10.09c-.83-.63-.96-1.67-.96-1.67l6.15-8.69,.1,.26Z"/></g><g><path class="cls-3" d="M103.44,178.52l5.28,3.99c.83-1.58,.96-2.78,.96-2.78l-6.15-1.59-.1,.38Z"/><path class="cls-3" d="M103.12,179.13l5.28,3.99c-.83,1.58-1.67,2.25-1.67,2.25l-3.86-5.97,.24-.27Z"/></g><g><path class="cls-3" d="M98.68,175.78l-5.28-3.99c-.83,1.58-.96,2.78-.96,2.78l6.15,1.59,.1-.38Z"/><path class="cls-3" d="M99,175.17l-5.28-3.99c.83-1.58,1.67-2.25,1.67-2.25l3.86,5.97-.24,.27Z"/></g></g></g><g><ellipse class="cls-2" cx="195.63" cy="99.58" rx="20.82" ry="11.78" transform="translate(27.4 240.6) rotate(-66.95)"/><polygon class="cls-2" points="187.38 118.7 206.84 129.94 239.28 90.19 204.06 80.56 187.38 118.7"/><g><ellipse class="cls-2" cx="215.47" cy="110.96" rx="20.82" ry="11.78" transform="translate(29 265.78) rotate(-66.95)"/><ellipse class="cls-3" cx="215.47" cy="110.96" rx="4.08" ry="2.31" transform="translate(29 265.78) rotate(-66.95)"/><g><ellipse class="cls-1" cx="215.3" cy="109.17" rx=".6" ry=".34" transform="translate(30.55 264.53) rotate(-66.95)"/><ellipse class="cls-1" cx="214" cy="111.42" rx=".6" ry=".34" transform="translate(27.68 264.71) rotate(-66.95)"/><ellipse class="cls-1" cx="214.64" cy="113.33" rx=".6" ry=".34" transform="translate(26.31 266.46) rotate(-66.95)"/><ellipse class="cls-1" cx="216.45" cy="112.18" rx=".6" ry=".34" transform="translate(28.48 267.43) rotate(-66.95)"/><ellipse class="cls-1" cx="216.82" cy="109.63" rx=".6" ry=".34" transform="translate(31.05 266.21) rotate(-66.95)"/></g><polygon class="cls-1" points="215.71 110.12 215.11 110.47 214.8 111.35 215.11 111.87 215.71 111.52 216.02 110.64 215.71 110.12"/><g><path class="cls-3" d="M215.24,106.91v-9.96c-1.17,.68-1.86,1.74-1.86,1.74l1.62,8.49,.24-.27Z"/><path class="cls-3" d="M215.69,106.65v-9.96c1.17-.68,1.86-.41,1.86-.41l-1.62,10.36h-.24Z"/></g><g><path class="cls-3" d="M215.69,115.01v9.96c1.17-.68,1.86-1.74,1.86-1.74l-1.62-8.49-.24,.27Z"/><path class="cls-3" d="M215.24,115.27v9.96c-1.17,.68-1.86,.41-1.86,.41l1.62-10.36h.24Z"/></g><g><path class="cls-3" d="M218.61,108.85l7.47-4.31c0-1.56-.5-2.19-.5-2.19l-7.07,6.24,.1,.27Z"/><path class="cls-3" d="M218.61,109.45l7.47-4.31c0,1.56-.5,2.77-.5,2.77l-7.07,1.92,.1-.38Z"/></g><g><path class="cls-3" d="M212.33,113.07l-7.47,4.31c0,1.56,.5,2.19,.5,2.19l7.07-6.24-.1-.27Z"/><path class="cls-3" d="M212.33,112.47l-7.47,4.31c0-1.56,.5-2.77,.5-2.77l7.07-1.92-.1,.38Z"/></g><g><path class="cls-3" d="M217.53,106.6l5.28-10.09c-.83-.63-1.67-.32-1.67-.32l-3.86,10.42h.24Z"/><path class="cls-3" d="M217.85,106.84l5.28-10.09c.83,.63,.96,1.67,.96,1.67l-6.15,8.69-.1-.26Z"/></g><g><path class="cls-3" d="M213.41,115.32l-5.28,10.09c.83,.63,1.67,.32,1.67,.32l3.86-10.42h-.24Z"/><path class="cls-3" d="M213.09,115.08l-5.28,10.09c-.83-.63-.96-1.67-.96-1.67l6.15-8.69,.1,.26Z"/></g><g><path class="cls-3" d="M217.85,112.33l5.28,3.99c.83-1.58,.96-2.78,.96-2.78l-6.15-1.59-.1,.38Z"/><path class="cls-3" d="M217.53,112.94l5.28,3.99c-.83,1.58-1.67,2.25-1.67,2.25l-3.86-5.97,.24-.27Z"/></g><g><path class="cls-3" d="M213.09,109.59l-5.28-3.99c-.83,1.58-.96,2.78-.96,2.78l6.15,1.59,.1-.38Z"/><path class="cls-3" d="M213.41,108.98l-5.28-3.99c.83-1.58,1.67-2.25,1.67-2.25l3.86,5.97-.24,.27Z"/></g></g></g><path class="cls-1" d="M195.96,14.97c-.27-.3-.6-.49-.99-.55l-.03-.02h0c-.39-.04-.82,.03-1.29,.27l-18.68,5.32c-1.47,.76-3.25,.88-4.53,.67l-15.75-1.87c-4.14-.68-8.85-.87-14.2,.55,0,0-22.87,8.11-46.29,26.7-14.03,11.14-31.01,38.67-35.36,43.78-4.34,5.1-1.25,3.69-24.25,21.73-23.13,18.16-26.46,24.84-32.62,31.47-.46,.47-.77,1.22-.78,1.87-.24,8.29,1.01,14.73,1.01,14.73l5.89,5.86s.37,3.19,2.11,4.25h0l55.91,31.71,3.02-14.76s24.69-33.49,25.22-33.7,73.26-51.64,73.26-51.64l82.38-56.06-54.04-30.33Z"/><g><path class="cls-3" d="M19.85,175.67l-3.85-10.23,1.05-3.6,.6-1.59s.37-1.14,2.12,.24c1.74,1.38,13.78,7.54,13.78,7.54l1.13,1.74,1.35,6.23s.09,1.7-.08,2.66,.77,5.19,.77,5.19c0,0-.17,.99-.57,.71-1.25-.87-14.27-8.28-14.27-8.28,0,0-1.89,.25-2.02-.61Z"/><path class="cls-2" d="M35.84,185.1l-.19-7.61c.05-.37,.05-.64,0-.9l-1.46-6.71c-.15-.7-.62-1.31-1.28-1.67l-15.6-8.49c-.18-.1-.4-.11-.59-.03-.17,.07-.3,.21-.34,.37l-1.26,4.43c-.12,.41-.15,.83-.09,1.25l3.2,8.73-.94,.34-3.25-8.88c-.08-.58-.04-1.15,.12-1.71l1.26-4.43c.13-.46,.46-.83,.92-1.02,.48-.2,1.01-.17,1.45,.07l15.6,8.49c.92,.5,1.57,1.35,1.78,2.33l1.46,6.71c.09,.39,.09,.79,.03,1.19l.2,7.52-1,.03Z"/><path class="cls-2" d="M19.41,176.07l-3.67-10.17c-.08-.58-.04-1.15,.12-1.71l1.57-4.86,.95,.31-1.56,4.85c-.11,.39-.14,.81-.09,1.23l3.63,10.02-.94,.34Z"/></g><path class="cls-2" d="M66.46,202.74L9.64,170.52v-.04c-.68-.54-1.22-1.41-1.62-2.59-.41-1.23-1.16-2.41-2.19-3.43l-2.24-2.23c-1.25-1.24-2.06-2.88-2.29-4.62-.36-2.78-.76-7.16-.62-12.22,.01-.77,.38-1.64,.92-2.21,1.34-1.44,2.56-2.91,3.86-4.46,4.77-5.72,10.71-12.85,28.81-27.05,18.84-14.79,20.09-16.42,22.35-19.38,.49-.64,1.04-1.36,1.82-2.28,1.12-1.32,3.14-4.21,5.69-7.88,7.22-10.36,19.31-27.7,29.73-35.97,23.22-18.43,46.2-26.7,46.43-26.78,5.26-1.39,9.42-1.47,19.41-.38,2.69,.29,10.46,1.63,10.79,1.68,1.18,.19,3.58-.46,5.02-.85,2.57-.7,6.35-1.78,10.01-2.83,3.34-.96,6.49-1.86,8.11-2.29,.83-.22,1.7-.11,2.46,.31l54.82,30.75-.67,.45-82.38,56.07c-16.68,11.79-70.31,49.7-73.24,51.62h0c-.82,.76-15.41,20.43-25.06,33.52l-3.14,15.33ZM10.57,169.9l55.19,31.29,2.97-14.29c24.78-33.6,25.27-33.8,25.44-33.87,1-.6,48.3-34,73.16-51.58l81.71-55.62-53.41-29.96c-.53-.29-1.13-.38-1.71-.22-1.61,.43-4.76,1.33-8.1,2.29-3.66,1.05-7.44,2.13-10.02,2.83-2.05,.56-4.16,1.08-5.45,.88-.09-.02-8.08-1.39-10.74-1.68-9.96-1.09-13.87-1.02-19.01,.35-.19,.07-23.02,8.29-46.1,26.61-10.31,8.18-22.34,25.45-29.53,35.76-2.57,3.69-4.6,6.6-5.75,7.95-.77,.9-1.31,1.61-1.79,2.24-2.32,3.03-3.59,4.7-22.53,19.56-18.02,14.14-23.92,21.22-28.66,26.91-1.31,1.57-2.54,3.05-3.9,4.51-.38,.39-.64,1.02-.65,1.54-.14,5.01,.25,9.33,.61,12.07,.2,1.51,.91,2.95,2,4.04l2.24,2.23c1.13,1.13,1.97,2.45,2.43,3.82,.26,.77,.72,1.79,1.49,2.26l.11,.07Z"/><g><path class="cls-3" d="M254.89,84.13l-.09,.83c-.19,1.84-.47,3.47-1.71,4.73l-4.83,4.89-18.28,12.95-1.12,.7c-.36-4.51-.4-11.16-2.19-14.3-2.27-5.85-7.58-7.82-13.78-4.24-7.63,4.41-13.91,15.65-14.84,26.02,0,0,0,.08,0,.17-.03,.36-.05,.7-.07,1.06-.17,2.95-.65,10.35-1.1,11.52l-81.93,47.3c-.77-3.18-.61-13.84-2.48-17.09-2.36-6.06-7.87-8.11-14.29-4.4-7.91,4.56-14.42,16.23-15.39,26.99h0v.17c-.03,.36-.04,.73-.07,1.1-.18,3.05,1.21,8.44,.75,9.65-.11,.22-.21,.48-.3,.72l-.7,.4s-9.02,5.5-13.51,8.1c-4.5,2.59-5.25-4-5.25-4l-5.08-4.71s-.61-3.66-.74-4.58l1.62-.54,2.75-1.65,1.19-1.56,.21-4.21-.27-4.19s-1.22-.39-1.36-.37c-.14,.01-2.87,1.49-2.87,1.49,0,0-.78,.16-1.46,.32,.12-.49,.38-.97,.71-1.32,.38-.42,.77-.84,1.17-1.28,5.94-6.55,13.5-15.8,34.71-31.46,5.14-3.8,8.91-6.7,11.71-8.96,.2-.16,.39-.32,.58-.48,5.42-4.45,6.91-6.33,7.86-7.9,.68-1.11,1.09-2.07,2.46-3.68,0-.01,.01-.02,.02-.03,4.06-4.78,18-32.79,31.25-45.53,.94-.9,1.87-1.73,2.79-2.46,.04-.03,.08-.07,.12-.1,22.65-17.94,45.03-25.09,46.41-25.52,.02,0,.05,0,.07-.02,4-1.06,6.28-1.28,8.91-1.05,.87,.08,1.79,.21,2.83,.38l20.09,6.02c1.28,.2,2.71-.07,4.18-.83l14.57-7.44c1.67-.84,2.98,.24,2.98,2.45v19.27c0,.95,.56,1.38,1.27,.98,.72-.42,1.38-.41,1.85-.04,.48,.35,.77,1.05,.77,2.02v7.17c0,.51-.22,1.1-.57,1.5l-.36,.43c-.35,.39-.55,.97-.54,1.35v3.06l.72-.42c.4-.24,.7,.05,.65,.62Z"/><path class="cls-2" d="M67.07,202.67c-.34,0-.66-.06-.97-.17-1.02-.37-1.81-1.32-2.35-2.83-.5-1.4-1.35-2.68-2.44-3.69l-1.53-1.42c-.99-.92-1.61-2.17-1.76-3.51-.2-1.85-.42-2.37-.51-2.51l.85-.53c.1,.16,.41,.66,.66,2.93,.12,1.11,.63,2.13,1.45,2.89l1.53,1.41c1.21,1.12,2.15,2.54,2.71,4.09,.3,.83,.85,1.89,1.75,2.22,.63,.23,1.41,.09,2.31-.43,4.43-2.57,13.41-8.04,13.5-8.1l.56-.32c.08-.21,.17-.42,.26-.6,.17-.44-.09-2.27-.32-3.88-.27-1.88-.57-4.01-.48-5.57,.02-.19,.03-.37,.03-.54,.01-.19,.02-.38,.04-.57v-.63h.05c1.14-10.91,7.78-22.42,15.59-26.92,3.31-1.91,6.5-2.41,9.25-1.45,2.56,.9,4.55,3.01,5.76,6.1,1.21,2.1,1.58,7.09,1.9,11.49,.14,1.94,.28,3.78,.47,5l81.16-46.85c.35-1.29,.76-6.76,1.02-11.21,.02-.36,.04-.71,.07-1.07,0-.08,.01-.19,.01-.19,.95-10.62,7.44-21.97,15.09-26.39,3.2-1.85,6.29-2.33,8.95-1.4,2.47,.87,4.39,2.91,5.55,5.89,1.48,2.59,1.78,7.45,2.04,11.74,.04,.65,.08,1.28,.12,1.88l.42-.26,18.26-12.93,4.76-4.83c1.14-1.16,1.39-2.69,1.57-4.43l.09-.83s0-.05,0-.08l-1.39,.8v-3.93c0-.53,.27-1.23,.68-1.68l.35-.42c.27-.31,.45-.78,.45-1.18v-7.17c0-.77-.21-1.35-.56-1.62-.44-.35-1.01-.11-1.3,.07-.47,.27-.95,.29-1.34,.06-.44-.26-.68-.78-.68-1.47v-19.27c0-1-.29-1.76-.81-2.07-.49-.3-1.06-.13-1.45,.07l-14.57,7.44c-1.54,.79-3.09,1.1-4.48,.88l-18.43-5.59c-.73-.22-1.51-.41-2.3-.57-.69-.14-1.44-.22-2.36-.25h-.22c-2.42-.05-5.03,.28-8.28,1.03l-.11,.03c-.69,.17-1.38,.33-2.09,.52-.21,.07-23.96,7.88-44.12,24.9l-.6,.51c-.51,.44-1.1,.95-1.5,1.31l-.08,.07c-.23,.21-.47,.42-.7,.65-10.72,9.98-21.17,28.19-26.79,37.97-1.21,2.11-2.26,3.94-3.03,5.19-.43,.69-.81,1.35-1.2,2.02l-.18,.31c-.64,1.06-1.41,2.3-2.47,3.7-1.91,2.47-4.43,5-7.93,7.98-.23,.19-.4,.34-.59,.49-3.08,2.59-6.92,5.53-11.73,8.98-19.04,13.67-26.9,22.61-32.63,29.13-.69,.79-1.35,1.54-2,2.26l-1.17,1.28q-.3,.32-.31,.81v.12l-1-.02v-.12c0-.63,.04-.9,.58-1.47l1.16-1.27c.64-.71,1.29-1.46,1.99-2.25,5.77-6.56,13.67-15.55,32.8-29.28,4.79-3.43,8.61-6.36,11.68-8.94,.19-.15,.36-.3,.53-.44,3.5-2.97,5.97-5.45,7.83-7.86,1-1.31,1.74-2.5,2.36-3.51v-.07l.12-.12,.11-.19c.39-.67,.78-1.34,1.21-2.04,.76-1.24,1.81-3.06,3.02-5.17,5.64-9.83,16.15-28.12,26.97-38.2,.23-.23,.48-.45,.73-.67l.08-.07c.4-.36,1-.88,1.52-1.32l.56-.48c20.37-17.19,44.3-25.06,44.54-25.13,.73-.19,1.41-.36,2.07-.52l.11-.03c3.37-.79,6.11-1.12,8.59-1.08h.18c1.04,.04,1.84,.12,2.59,.27,.82,.16,1.62,.36,2.39,.59l18.36,5.57c1.12,.17,2.46-.1,3.8-.8l14.57-7.44c.88-.44,1.74-.45,2.42-.03,.82,.5,1.28,1.57,1.28,2.92v19.27c0,.35,.09,.56,.19,.61,.07,.04,.19,.01,.33-.07,.87-.51,1.75-.51,2.4,0,.62,.45,.96,1.31,.96,2.41v7.17c0,.64-.27,1.34-.69,1.83l-.35,.42c-.27,.31-.43,.76-.42,1.02v2.2c.31-.18,.65-.18,.92-.01,.33,.21,.49,.61,.44,1.12l-.09,.84c-.19,1.85-.48,3.64-1.85,5.03l-4.83,4.89-18.35,13.01-1.84,1.15-.07-.82c-.07-.85-.12-1.77-.18-2.72-.24-3.97-.55-8.92-1.94-11.37-1.08-2.77-2.79-4.61-4.98-5.38-2.37-.83-5.18-.38-8.12,1.32-7.39,4.27-13.67,15.29-14.59,25.63,0,.02,0,.07,0,.12-.03,.4-.05,.73-.07,1.09-.18,3.09-.65,10.41-1.13,11.67l-.06,.17-.15,.09-82.51,47.63-.16-.65c-.29-1.2-.45-3.34-.63-5.83-.3-4.08-.67-9.17-1.8-11.13-1.13-2.88-2.91-4.78-5.19-5.58-2.46-.86-5.37-.39-8.42,1.37-7.66,4.42-14.17,15.86-15.14,26.6v.12c-.02,.22-.03,.4-.04,.58-.01,.19-.02,.37-.04,.56-.08,1.45,.21,3.53,.47,5.36,.33,2.29,.51,3.73,.25,4.42-.12,.25-.22,.49-.3,.72l-.06,.17-.86,.49c-.08,.05-9.06,5.53-13.51,8.1-.78,.45-1.5,.67-2.18,.67Z"/><path class="cls-2" d="M118.75,129.15c-.24,0-.47-.09-.64-.28-.46-.47-.49-1.39-.09-2.15h0c2.56-4.78,15.72-29.05,22.93-37.94,8.48-10.46,14.32-16.27,26.47-23,14.65-8.12,19.55-10.13,23.49-11.74,.82-.33,1.58-.65,2.38-1,1.23-.53,2.46-.59,3.56-.17l13.52,5.13c1.95,.74,2.99,3.5,2.57,6.86l-.2,1.66c-.15,1.19-.73,2.27-1.5,2.77-.88,.57-87.77,56.81-89.41,57.91-.35,.23-.7,.5-1.04,.76-.57,.43-1.1,.83-1.58,1.08-.15,.08-.31,.12-.46,.12Zm.15-1.95c-.24,.45-.17,.9-.08,.98,.33-.24,.84-.62,1.37-1.02,.36-.27,.73-.55,1.09-.79,1.64-1.11,88.54-57.35,89.42-57.92,.51-.33,.94-1.17,1.05-2.05l.2-1.66c.35-2.85-.45-5.23-1.94-5.8l-13.52-5.13c-.86-.33-1.83-.27-2.81,.16-.81,.35-1.58,.67-2.4,1-3.91,1.6-8.79,3.59-23.38,11.69-12.08,6.7-17.61,12.2-26.17,22.76-7.15,8.82-20.27,33.02-22.83,37.78h0Z"/><path class="cls-2" d="M173.08,91.75c-.14,0-.27-.04-.4-.11-.33-.19-.52-.6-.51-1.1l.75-25.06c.02-.61,.33-1.2,.76-1.43,7.61-4.04,16.39-7.91,18.91-9,1.08-.47,2.17-.52,3.14-.15l11.73,4.45c1.72,.65,2.64,3.07,2.28,6.02l-.18,1.44c-.13,1.05-.65,2.01-1.33,2.45-3.68,2.38-18.58,11.97-34.67,22.32-.16,.1-.33,.15-.49,.15Zm.1-1.17s0,.06,0,.08c16.03-10.31,30.85-19.85,34.52-22.23,.43-.28,.79-.99,.88-1.73l.18-1.44c.3-2.44-.37-4.48-1.64-4.96l-11.73-4.45c-.74-.28-1.54-.24-2.39,.13-2.5,1.09-11.26,4.95-18.84,8.97-.07,.04-.22,.28-.23,.58l-.75,25.06Z"/><path class="cls-2" d="M123.87,123.56c-.22,0-.44-.09-.61-.26-.42-.42-.45-1.26-.08-1.94,2.23-4.15,13.66-25.23,19.92-32.95,6.62-8.17,12.54-13.27,23.44-20.21,.24-.16,.53-.16,.76-.01,.28,.17,.41,.52,.36,.92l-3.25,27.33c-.08,.7-.44,1.35-.91,1.66-19.08,12.27-36.25,23.32-36.9,23.76-.3,.2-.61,.43-.9,.66-.5,.38-.97,.73-1.38,.94-.14,.07-.29,.11-.43,.11Zm42.75-54.23c-10.51,6.73-16.29,11.75-22.75,19.71-6.2,7.65-17.59,28.66-19.81,32.79-.15,.27-.15,.54-.12,.68,.33-.19,.72-.48,1.14-.8,.31-.24,.63-.48,.95-.69,.66-.44,17.84-11.5,36.92-23.78,.18-.12,.41-.48,.46-.93l3.21-26.98Zm.04-.41h0Z"/><path class="cls-2" d="M166.76,140.56l-.52-30.24c-.04-2.24,.17-4.61,.61-7.04,.19-1.03,.4-2.25,.6-3.41,.29-1.7,.54-3.16,.68-3.75l1.41-31.31,1,.04-1.42,31.4c-.14,.65-.4,2.17-.68,3.78-.2,1.15-.41,2.38-.6,3.42-.43,2.37-.63,4.67-.6,6.85l.52,30.24-1,.02Z"/><path class="cls-2" d="M120.13,169.04l-.87-26.22c-.08-2.55,.1-5.26,.54-8.04l1.28-8.04,.99,.16-1.28,8.04c-.43,2.72-.61,5.37-.53,7.85l.82,24.53c6.75-4,58.1-34.42,61.38-36.54,3.92-2.54,6.29-8.72,8.78-15.25,.96-2.52,1.96-5.13,3.08-7.61,1.78-3.94,4.45-9.12,7.04-14.12,3.32-6.44,6.46-12.51,7.67-15.85,2.15-5.89,2.76-11.96,2.77-12.02l1,.1c0,.06-.63,6.25-2.83,12.27-1.24,3.39-4.39,9.5-7.72,15.96-2.58,5-5.24,10.16-7.01,14.08-1.11,2.45-2.1,5.04-3.06,7.55-2.56,6.69-4.98,13.01-9.17,15.73-3.51,2.27-61.56,36.64-62.14,36.99l-.73,.43Z"/></g><g><path class="cls-2" d="M179.66,24.66s14.06,5.48,25.6,12.36c7.9,4.71,11.77,8.53,13.23,10.18,.24,.28,0,.7-.37,.62,0,0-4.22-.96-5.62-1.3-5.26-1.29-7.72-1.97-19.8,.69,0,0-3.44-4.74-16.02-12.24-11.71-6.98-25.61-12.75-29.39-14.28-.2-.08-.13-.37,.08-.37l6.2,.15c2.82,.07,5.63,.36,8.41,.88l17.68,3.32Z"/><path class="cls-2" d="M218.21,48.32c-.07,0-.13,0-.2-.02h0s-4.22-.96-5.62-1.31l-.22-.05c-5.03-1.24-7.56-1.86-19.35,.74l-.32,.07-.19-.26s-3.56-4.77-15.87-12.1c-11.61-6.92-25.38-12.65-29.33-14.24-.31-.13-.49-.45-.42-.78,.07-.33,.37-.56,.7-.55l6.2,.15c2.84,.07,5.7,.37,8.49,.89l17.77,3.34c.14,.05,14.23,5.58,25.68,12.4,7.81,4.65,11.71,8.43,13.34,10.27,.25,.29,.29,.7,.1,1.03-.16,.27-.45,.43-.75,.43Zm-13.04-3.46c2.74,0,4.67,.47,7.23,1.1l.22,.05c1.14,.28,4.16,.97,5.23,1.22-1.5-1.63-5.35-5.32-12.84-9.79-11.06-6.59-24.62-11.97-25.49-12.31l-17.63-3.31c-2.74-.51-5.54-.81-8.33-.87l-4.53-.11c5.28,2.18,17.46,7.45,27.91,13.68,11.03,6.57,15.06,11.01,15.96,12.11,5.9-1.29,9.5-1.77,12.27-1.77Z"/></g><path class="cls-2" d="M218.21,48.32c-.07,0-.13,0-.2-.02h0s-4.22-.96-5.62-1.31l-.22-.05c-5.03-1.24-7.56-1.86-19.35,.74l-.32,.07-.19-.26s-3.56-4.77-15.87-12.1c-11.61-6.92-25.38-12.65-29.33-14.24-.31-.13-.49-.45-.42-.78,.07-.33,.37-.56,.7-.55l6.2,.15c2.84,.07,5.7,.37,8.49,.89l17.77,3.34c.14,.05,14.23,5.58,25.68,12.4,7.81,4.65,11.71,8.43,13.34,10.27,.25,.29,.29,.7,.1,1.03-.16,.27-.45,.43-.75,.43Zm-13.04-3.46c2.74,0,4.67,.47,7.23,1.1l.22,.05c1.14,.28,4.16,.97,5.23,1.22-1.5-1.63-5.35-5.32-12.84-9.79-11.06-6.59-24.62-11.97-25.49-12.31l-17.63-3.31c-2.74-.51-5.54-.81-8.33-.87l-4.53-.11c5.28,2.18,17.46,7.45,27.91,13.68,11.03,6.57,15.06,11.01,15.96,12.11,5.9-1.29,9.5-1.77,12.27-1.77Z"/><g><path class="cls-2" d="M138.38,82.19c-5.46,5.96-11.61,16.28-16.86,26.19-2.65,4.99-5.08,9.89-7.08,14.08-1.1,2.29-2.88,3.54-4.1,4.16-.77,.38-1.66,.45-2.49,.21-1.48-.42-4.29-1.27-8.04-2.62-7.11-2.58-17.55-6.96-28.44-13.63-.87-.53-1.69-1.05-2.46-1.54-1.68-1.08-3.13-2.08-4.38-2.99-1.1-.81-2.05-1.55-2.87-2.24-3.66-3.05-4.74-4.96-5.03-5.98-.13-.49,.03-1,.39-1.35,.92-.9,3.19-3.22,5.5-6.49,3.23-4.58,18.36-27.45,26.61-35.67,.54-.53,1.41-.38,1.77,.28,1,1.87,4.15,5.57,13.9,11.54,1.36,.84,2.71,1.63,4.05,2.39,1.38,.78,2.75,1.52,4.09,2.22,1.47,.76,2.9,1.48,4.3,2.15,9.82,4.72,17.85,7.22,20.79,8.06,.53,.16,.72,.82,.35,1.23Z"/><path class="cls-2" d="M108.83,127.47c-.37,0-.75-.05-1.12-.16-1.36-.39-4.21-1.24-8.07-2.63-6.95-2.52-17.54-6.94-28.53-13.67-.87-.53-1.7-1.05-2.47-1.54-1.56-1-3.04-2.02-4.41-3.01-1.13-.83-2.08-1.57-2.9-2.26-3.7-3.09-4.87-5.09-5.19-6.23-.17-.66,.03-1.36,.52-1.85,1.09-1.07,3.25-3.32,5.44-6.42,.52-.74,1.35-1.96,2.42-3.51,5.62-8.21,17.3-25.3,24.25-32.22,.37-.36,.86-.53,1.36-.45,.51,.08,.95,.38,1.2,.84,.88,1.64,3.83,5.29,13.72,11.35,1.24,.77,2.56,1.55,4.04,2.38,1.3,.74,2.67,1.48,4.08,2.21,1.61,.83,3.01,1.53,4.28,2.14,9.78,4.7,17.74,7.18,20.71,8.03,.42,.13,.74,.45,.86,.87,.12,.42,.01,.86-.27,1.17h0c-4.67,5.1-10.32,13.88-16.79,26.09-2.35,4.42-4.73,9.15-7.07,14.06-1.15,2.4-2.99,3.71-4.33,4.39-.54,.27-1.14,.4-1.74,.4Zm-18.93-72.97c-.12,0-.28,.03-.42,.18-6.88,6.86-18.53,23.89-24.13,32.08-1.07,1.56-1.9,2.78-2.42,3.52-2.23,3.16-4.44,5.47-5.56,6.56-.24,.24-.34,.56-.26,.87,.23,.81,1.17,2.65,4.87,5.72,.8,.67,1.73,1.4,2.85,2.22,1.35,.98,2.81,1.98,4.35,2.97,.76,.49,1.58,1.01,2.45,1.53,10.92,6.69,21.45,11.08,28.35,13.59,3.83,1.38,6.66,2.23,8,2.61,.72,.21,1.48,.14,2.13-.18,1.19-.61,2.84-1.78,3.87-3.93,2.35-4.92,4.73-9.66,7.09-14.1,6.51-12.29,12.21-21.13,16.93-26.29,.08-.09,.07-.18,.05-.23-.01-.04-.05-.14-.18-.18-2.99-.85-11.02-3.36-20.86-8.09-1.28-.61-2.69-1.32-4.31-2.16-1.41-.74-2.79-1.49-4.11-2.23-1.49-.84-2.81-1.63-4.07-2.4-9.59-5.87-12.95-9.62-14.08-11.73-.1-.18-.27-.3-.46-.33-.03,0-.06,0-.09,0Zm48.48,27.69h0Z"/></g><path class="cls-2" d="M59.32,167.26c-.35,0-.71-.05-1.06-.15-4.13-1.18-18.8-5.76-34.45-15.34-11.19-6.85-13.62-10.64-14.08-12.29-.22-.79,.28-1.47,.44-1.7,1.29-1.77,6.77-7.93,15.51-15.7,8.48-7.54,19.44-16.35,26.69-22.18,1.47-1.18,2.79-2.24,3.9-3.14,.21-.17,.53-.14,.7,.07,.17,.21,.14,.53-.07,.7-1.11,.9-2.42,1.96-3.9,3.14-7.24,5.82-18.18,14.62-26.65,22.15-8.67,7.71-14.1,13.8-15.37,15.54-.26,.36-.35,.62-.29,.84,.34,1.21,2.34,4.79,13.64,11.71,15.54,9.52,30.1,14.07,34.2,15.23,.65,.18,1.32,.14,1.89-.13,12.42-13.62,33.45-29.63,48.8-39.47,.23-.15,.54-.08,.69,.15,.15,.23,.08,.54-.15,.69-15.33,9.82-36.32,25.8-48.67,39.37l-.14,.11c-.51,.26-1.07,.39-1.64,.39Z"/><path class="cls-2" d="M218.13,48.32h-.02c-.28,0-.5-.23-.49-.51,0-.27,.23-.49,.5-.49h.02c.71,0,2.9-1.74,5.02-3.42,3.15-2.5,7.07-5.61,10.79-7.16,.25-.11,.55,.01,.65,.27,.11,.25-.01,.55-.27,.65-3.59,1.5-7.45,4.56-10.55,7.02-3,2.38-4.63,3.63-5.64,3.63Z"/><path class="cls-2" d="M179.69,25.16c-.29-.01-.53-.21-.53-.5s.22-.5,.5-.5h.03c4.93,0,10.67-1.91,15.29-3.45,2.95-.98,5.49-1.83,7.25-2,.26-.03,.52,.17,.55,.45,.03,.27-.17,.52-.45,.55-1.65,.17-4.15,1-7.04,1.96-4.69,1.56-10.52,3.5-15.61,3.5Z"/><path class="cls-2" d="M138.37,82.69c-.12,0-.23-.04-.33-.12-.21-.18-.23-.5-.05-.71,10.55-12.12,21.52-19.04,31.8-24.72,8.19-4.52,14.35-7.34,22.74-10.42,.26-.09,.55,.04,.64,.3,.09,.26-.04,.55-.3,.64-8.34,3.05-14.46,5.86-22.6,10.35-10.2,5.63-21.08,12.5-31.53,24.5-.1,.11-.24,.17-.38,.17Z"/><path class="cls-2" d="M89.14,54.82c-.13,0-.26-.05-.36-.15-.19-.2-.19-.51,0-.71,9.68-9.44,16.13-14.46,33.05-23.83,17.12-9.49,20.69-9.8,26.1-10.27,.26-.02,.52,.18,.54,.46,.02,.27-.18,.52-.46,.54-5.28,.46-8.76,.76-25.7,10.15-16.82,9.32-23.23,14.3-32.84,23.68-.1,.09-.22,.14-.35,.14Z"/><g><path class="cls-2" d="M156.84,114.77c-.43,0-.82-.1-1.16-.29-.71-.41-1.1-1.2-1.1-2.22,0-2.12,1.67-4.75,3.8-5.99,1.2-.69,2.37-.81,3.2-.33,.71,.41,1.1,1.2,1.1,2.21,0,2.13-1.67,4.76-3.8,5.99-.71,.41-1.42,.62-2.05,.62Zm3.59-8.12c-.45,0-.99,.17-1.55,.49-1.79,1.03-3.3,3.38-3.3,5.12,0,.46,.1,1.06,.6,1.35,.51,.29,1.33,.17,2.2-.33,1.79-1.03,3.3-3.38,3.3-5.12,0-.46-.1-1.06-.6-1.35-.18-.11-.41-.16-.66-.16Z"/><g><g><path class="cls-3" d="M156.26,113.22l-.43,.25c-.81,.47-1.47-.03-1.47-1.11h0c0-1.08,.66-2.33,1.47-2.8l.43-.25c.81-.47,1.47,.03,1.47,1.11h0c0,1.08-.66,2.33-1.47,2.8Z"/><path class="cls-1" d="M162.04,108.84l-6.35,3.52,.59-2.07,5.76-3.37c.4-.23,.72,.01,.72,.55h0c0,.53-.32,1.15-.72,1.38Z"/></g><path class="cls-2" d="M155.17,114.21c-.2,0-.39-.05-.56-.15-.43-.25-.67-.77-.67-1.42v-.65c0-1.08,.65-2.29,1.47-2.77l.92-.53c.48-.28,.87-.23,1.11-.15,.15,.05,.29,.14,.41,.26l4.19-2.46c.29-.17,.6-.18,.86-.03,.28,.16,.44,.48,.44,.88v.47c0,.58-.34,1.22-.8,1.48l-4.42,2.6c-.25,.76-.74,1.42-1.3,1.74l-.92,.53c-.25,.14-.5,.21-.74,.21Zm1.89-4.73c-.06,0-.14,.03-.23,.08l-.92,.53c-.52,.3-.97,1.19-.97,1.9v.65c0,.36,.11,.52,.17,.56,.06,.03,.17,0,.3-.06l.92-.53c.38-.22,.73-.75,.89-1.34l.05-.2,4.77-2.8c.14-.08,.3-.38,.3-.61v-.33l-4.89,2.87-.21-.54c-.03-.09-.08-.15-.13-.16-.01,0-.03,0-.05,0Zm5.23-2.71l.25,.43h0l-.26-.43Z"/><path class="cls-2" d="M156.01,112.75c-.15,0-.3-.04-.43-.11-.31-.18-.49-.55-.49-1,0-.7,.41-1.46,.95-1.78l2.06-1.19,.5,.87-2.06,1.19c-.21,.12-.45,.55-.45,.91,0,.03,0,.05,0,.07l2.1-1.17,.49,.87-2.14,1.2c-.17,.1-.35,.15-.52,.15Z"/></g></g><g><path class="cls-2" d="M197.5,87.99c-.43,0-.82-.1-1.16-.29-.71-.41-1.1-1.2-1.1-2.21,0-2.12,1.67-4.75,3.8-5.99,1.2-.69,2.37-.81,3.2-.33,.71,.41,1.1,1.2,1.1,2.21,0,2.12-1.67,4.75-3.8,5.99-.71,.41-1.42,.62-2.05,.62Zm3.59-8.11c-.45,0-.99,.17-1.55,.49-1.79,1.03-3.3,3.38-3.3,5.12,0,.46,.1,1.06,.6,1.35,.51,.29,1.33,.17,2.2-.33,1.79-1.03,3.3-3.38,3.3-5.12,0-.46-.1-1.06-.6-1.35-.18-.11-.41-.16-.66-.16Z"/><g><g><path class="cls-3" d="M196.91,86.44l-.43,.25c-.81,.47-1.47-.03-1.47-1.11h0c0-1.08,.66-2.33,1.47-2.8l.43-.25c.81-.47,1.47,.03,1.47,1.11h0c0,1.08-.66,2.33-1.47,2.8Z"/><path class="cls-1" d="M202.7,82.07l-6.35,3.52,.59-2.07,5.76-3.37c.4-.23,.72,.01,.72,.55h0c0,.53-.32,1.15-.72,1.38Z"/></g><path class="cls-2" d="M195.83,87.44c-.2,0-.39-.05-.56-.15-.43-.25-.67-.76-.67-1.42v-.65c0-1.08,.65-2.29,1.47-2.77l.92-.53c.48-.28,.87-.23,1.11-.15,.15,.05,.29,.14,.41,.26l4.19-2.46c.29-.17,.6-.18,.86-.03,.28,.16,.44,.48,.44,.88v.47c0,.58-.34,1.21-.79,1.48l-4.42,2.6c-.25,.76-.74,1.42-1.3,1.74l-.92,.53c-.25,.14-.5,.21-.74,.21Zm1.89-4.73c-.06,0-.14,.03-.23,.08l-.92,.53c-.52,.3-.97,1.19-.97,1.9v.65c0,.36,.11,.52,.17,.55,.06,.04,.17,0,.3-.06l.92-.53c.38-.22,.73-.75,.89-1.34l.05-.2,4.77-2.8c.14-.08,.3-.38,.3-.61v-.33l-4.89,2.87-.21-.54c-.03-.09-.08-.15-.13-.16-.01,0-.03,0-.05,0Zm5.23-2.71l.25,.43h0l-.26-.43Z"/><path class="cls-2" d="M196.67,85.97c-.15,0-.3-.04-.43-.11-.31-.18-.49-.55-.49-1,0-.7,.41-1.46,.95-1.78l2.06-1.19,.5,.87-2.06,1.19c-.21,.12-.45,.54-.45,.91,0,.03,0,.05,0,.07l2.1-1.17,.49,.87-2.14,1.2c-.17,.1-.35,.15-.52,.15Z"/></g></g><path class="cls-2" d="M124.81,122.53c-1.42,.93-1.67-.07-.69-1.87,.98-1.8,16.12-27.48,16.12-27.48l8.36-10.28s7.88-8.46,13.66-11.3c3.03-2.01,4.48-2.29,4.48-2.29l.3,.78-3.34,26.98-1.15,1.03-37.74,24.43Z"/><path class="cls-2" d="M173.17,65.65l.77-1.14,19.3-9.14,1.79-.14,12.73,4.84,1.24,1.8v4.12l-.69,2.59-4.52,2.99-30.62,19.31c-.48-.31,0-25.22,0-25.22Z"/><path class="cls-3" d="M40.36,174.75c-.37,.95,.5,1.37,.5,1.37,0,0,16.23,7.5,16.99,7.73s3.04-1.11,4.04-1.79c1-.68,1.02-2.86,1.63-3.07,.24,3.54,.18,4.65,.18,4.65,0,0-.21,2.06-1.74,2.79-1.53,.73-3.48,1.89-4.33,1.61s-17.25-9.36-17.25-9.36l-.67-2.29,.66-1.67Z"/><g><path class="cls-2" d="M58.43,188.57c-.39,0-.79-.1-1.14-.3l-16.76-9.68c-.74-.43-1.2-1.22-1.2-2.08v-.73c0-.7,.31-1.35,.85-1.8,.54-.44,1.25-.61,1.93-.47l15.78,3.28c.3,.06,.61,.02,.87-.13l2.68-1.46c.58-.32,1.27-.3,1.84,.03,.57,.34,.91,.93,.91,1.6v6.83c0,1.17-.63,2.27-1.65,2.86l-2.97,1.73c-.35,.21-.75,.31-1.15,.31Zm-16.78-14.1c-.3,0-.59,.1-.83,.3-.31,.25-.49,.62-.49,1.02v.73c0,.5,.27,.96,.7,1.21l16.76,9.68c.4,.23,.89,.23,1.28,0l2.97-1.73c.71-.41,1.15-1.18,1.15-2v-6.83c0-.31-.16-.58-.42-.74-.26-.16-.58-.16-.85-.02l-2.68,1.46c-.47,.26-1.02,.34-1.55,.23l-15.78-3.28c-.09-.02-.18-.03-.27-.03Z"/><path class="cls-2" d="M57.68,188.78c-.36,0-.72-.09-1.04-.28l-15.94-8.8c-.68-.39-1.1-1.12-1.1-1.9v-.65c0-.64,.28-1.24,.78-1.64s1.14-.56,1.76-.43l14.01,2.91c.23,.05,.47,.02,.68-.08l.97-.92,.69,.72-1.13,1.05c-.43,.24-.94,.31-1.42,.21l-14.01-2.91c-.33-.07-.67,.02-.93,.23-.26,.21-.41,.53-.41,.86v.65c0,.42,.23,.82,.59,1.03l15.94,8.8c.34,.2,.76,.2,1.09,0l.5,.86c-.32,.19-.68,.28-1.05,.28Z"/><rect class="cls-2" x="40.68" y="174.25" width="1.58" height="1" transform="translate(-135.29 206.61) rotate(-86.86)"/><path class="cls-2" d="M57.68,186.05c-.28,0-.5-.22-.5-.5v-5.74c0-.28,.22-.5,.5-.5s.5,.22,.5,.5v5.74c0,.28-.22,.5-.5,.5Z"/><g><path class="cls-2" d="M54.42,184.4c-.41,0-.84-.13-1.28-.38-1.59-.92-2.84-3.28-2.84-5.38,0-1.18,.42-2.1,1.14-2.52,.63-.36,1.41-.32,2.19,.14,1.59,.92,2.84,3.28,2.84,5.37,0,1.18-.42,2.11-1.14,2.53-.28,.16-.59,.24-.91,.24Zm-2.05-7.52c-.14,0-.28,.03-.42,.11-.4,.23-.64,.85-.64,1.66,0,1.71,1.07,3.78,2.34,4.51,.33,.19,.79,.37,1.19,.14,.4-.23,.64-.85,.64-1.66,0-1.71-1.07-3.78-2.34-4.51-.22-.12-.5-.24-.78-.24Z"/><path class="cls-2" d="M55.5,182.57c-.36,0-.74-.11-1.12-.33-1.36-.79-2.43-2.81-2.43-4.6,0-.56,.1-1.05,.31-1.45l.89,.46c-.13,.25-.2,.59-.2,.99,0,1.42,.88,3.13,1.93,3.74,.24,.14,.58,.27,.88,.14l.41,.91c-.21,.09-.43,.14-.67,.14Z"/></g><g><path class="cls-2" d="M47.57,180.49c-.29,0-.6-.09-.91-.27-1.08-.62-1.92-2.21-1.92-3.62,0-.83,.3-1.48,.83-1.78,.46-.27,1.03-.24,1.59,.09,1.08,.62,1.92,2.21,1.92,3.62,0,.83-.3,1.48-.83,1.78-.21,.12-.44,.18-.68,.18Zm-1.32-4.85c-.06,0-.12,.01-.18,.04-.2,.12-.33,.47-.33,.92,0,1.05,.65,2.31,1.42,2.75,.14,.08,.4,.2,.59,.09,.2-.12,.33-.47,.33-.92,0-1.05-.65-2.31-1.42-2.75-.1-.06-.26-.13-.41-.13Z"/><path class="cls-2" d="M48.26,179.31c-.26,0-.54-.08-.81-.24-.93-.54-1.66-1.91-1.66-3.12,0-.39,.07-.73,.22-1.01l.89,.46c-.05,.09-.11,.27-.11,.55,0,.86,.53,1.89,1.16,2.25,.16,.09,.31,.12,.4,.08l.41,.91c-.16,.07-.33,.11-.5,.11Z"/></g></g><g><path class="cls-1" d="M10.95,158.4l-8.35-4.14c-.77-.38-1.29-1.15-1.36-2.01l-.38-4.75c-.04-.56,.59-.9,1.03-.56l10.4,8.1c.65,.45,1.02,1.13,1.02,1.84v.35c0,1.03-1.3,1.67-2.36,1.16Z"/><path class="cls-3" d="M1,150.33s9.94,6.33,10.98,6.82,.97,.09,.97,.09c0,0-.27,1.47-1.73,1.32-1.46-.14-9.36-4.54-9.36-4.54,0,0-1.03-.8-.86-3.69Z"/><path class="cls-2" d="M11.38,159.08c-.34,0-.68-.08-1-.23h0l-8.35-4.14c-.93-.46-1.55-1.39-1.64-2.42L0,147.55c-.04-.46,.19-.88,.59-1.1,.4-.22,.88-.18,1.24,.1l10.4,8.1c.76,.53,1.21,1.35,1.21,2.23v.35c0,.6-.32,1.15-.87,1.5-.36,.23-.78,.34-1.21,.34Zm-.56-1.13c.39,.19,.87,.16,1.23-.06,.15-.09,.4-.3,.4-.65v-.35c0-.55-.29-1.07-.81-1.43l-10.42-8.12c-.06-.05-.12-.03-.15-.01-.04,.02-.08,.06-.07,.13l.38,4.75c.06,.68,.47,1.29,1.09,1.6l8.35,4.14Z"/><path class="cls-2" d="M13.06,158.22l-.49-.87c.13-.08,.44-.29,.44-.67v-.35c0-.55-.29-1.07-.81-1.43l-10.42-8.12c-.06-.05-.12-.03-.15-.01-.04,.02-.08,.06-.07,.13l-1,.08c-.04-.46,.19-.88,.59-1.09,.41-.22,.88-.18,1.24,.1l10.4,8.1c.76,.53,1.21,1.35,1.21,2.23v.35c0,.63-.36,1.21-.95,1.55Z"/><g><path class="cls-2" d="M5.73,155.03c-.32,0-.65-.1-.99-.29-1.18-.68-2.11-2.43-2.11-3.98,0-.9,.33-1.61,.89-1.94,.5-.29,1.11-.25,1.72,.1,1.18,.68,2.11,2.43,2.11,3.98,0,.9-.33,1.61-.89,1.94-.22,.13-.47,.19-.73,.19Zm-1.48-5.4c-.08,0-.16,.02-.23,.06-.25,.14-.39,.54-.39,1.07,0,1.19,.74,2.62,1.61,3.12,.17,.09,.48,.23,.72,.1,.25-.14,.39-.54,.39-1.07,0-1.19-.74-2.62-1.61-3.12-.12-.07-.3-.16-.49-.16Z"/><path class="cls-2" d="M6.51,153.71c-.28,0-.58-.09-.88-.26-1.02-.59-1.82-2.09-1.82-3.43,0-.43,.08-.8,.24-1.11l.89,.46c-.06,.11-.13,.31-.13,.64,0,.98,.6,2.15,1.32,2.56,.12,.07,.34,.17,.5,.1l.41,.91c-.17,.08-.35,.12-.54,.12Z"/></g><g><path class="cls-2" d="M10.28,157.2c-.25,0-.51-.07-.77-.22-.87-.5-1.55-1.79-1.55-2.92,0-.69,.25-1.23,.7-1.49,.39-.23,.88-.2,1.35,.07,.87,.5,1.55,1.79,1.55,2.92,0,.69-.25,1.23-.7,1.49-.18,.1-.38,.15-.58,.15Zm-1.04-3.79s-.06,0-.09,.02c-.1,.06-.2,.27-.2,.62,0,.77,.49,1.73,1.05,2.06,.07,.04,.25,.13,.35,.07,.1-.06,.2-.27,.2-.62,0-.77-.49-1.73-1.05-2.06-.05-.03-.17-.09-.27-.09Z"/><path class="cls-2" d="M10.83,156.28c-.22,0-.46-.07-.69-.2-.76-.44-1.35-1.55-1.35-2.53,0-.32,.06-.61,.18-.84l.89,.46c-.05,.09-.07,.23-.07,.39,0,.63,.4,1.41,.85,1.67,.11,.06,.18,.08,.22,.06l.41,.91c-.14,.06-.29,.09-.44,.09Z"/></g></g><rect class="cls-2" x="24.84" y="159.18" width="1" height="25.09" transform="translate(-135.89 107.41) rotate(-59.86)"/><g><path class="cls-1" d="M27.95,174.86l-8.1-4.67c-.53-.31-.86-.88-.86-1.5v-3.78c0-.66,.72-1.07,1.29-.74l7.73,4.46c.73,.42,1.17,1.19,1.17,2.03v3.49c0,.63-.69,1.03-1.23,.71Z"/><path class="cls-2" d="M28.36,175.47c-.23,0-.46-.06-.66-.18l-8.09-4.67c-.69-.39-1.11-1.13-1.11-1.93v-3.78c0-.49,.25-.93,.68-1.18,.43-.25,.93-.25,1.36,0l7.73,4.47c.88,.51,1.42,1.45,1.42,2.46v3.49c0,.48-.25,.91-.66,1.15-.21,.12-.43,.18-.66,.18Zm-8.51-10.93c-.08,0-.15,.03-.18,.05-.05,.03-.18,.12-.18,.31v3.78c0,.44,.23,.84,.61,1.06l8.09,4.67c.15,.09,.27,.03,.32,0,.05-.03,.16-.11,.16-.28v-3.49c0-.66-.35-1.27-.92-1.6l-7.73-4.46c-.06-.04-.12-.05-.18-.05Z"/><path class="cls-2" d="M28.88,175.24c-.18,0-.37-.05-.54-.15l.5-.87c.09,0,.23-.21,.23-.51v-3.49c0-.66-.35-1.27-.92-1.6l-7.73-4.46c-.16-.09-.3-.03-.36,0-.05,.03-.18,.12-.18,.31h-1c0-.49,.25-.93,.68-1.18,.43-.25,.93-.25,1.36,0l7.73,4.46c.88,.51,1.42,1.45,1.42,2.46v3.49c0,.6-.27,1.15-.69,1.39-.15,.09-.32,.13-.49,.13Z"/></g><path class="cls-2" d="M59.76,174.75c-.18-.03-17.91-3.21-36.29-14.47C5.98,149.55,1.75,144.07,1.58,143.84l.8-.6c.04,.05,4.35,5.59,21.62,16.18,18.21,11.16,35.76,14.31,35.94,14.34l-.17,.98Z"/><path class="cls-2" d="M40.47,160.04l-.73-.68c4.27-4.55,14.79-13.18,20.54-16.4,9-5.03,45.02-16.38,46.54-16.86l.3,.95c-.37,.12-37.44,11.8-46.36,16.78-5.68,3.17-16.08,11.71-20.3,16.21Z"/><path class="cls-2" d="M16.52,146.28l-.65-.76c11.37-9.64,14.31-12.97,20.45-20.76,7.13-9.05,20.52-25.96,20.52-25.96l.78,.62s-13.39,16.91-20.52,25.96c-6.18,7.85-9.14,11.2-20.58,20.9Z"/><g><path class="cls-2" d="M245.24,73.85v10.1c0,.52,.57,.85,1.02,.59l7.35-4.24c.96-.55,1.55-1.57,1.55-2.68v-7.08c0-1.62-1.76-2.64-3.16-1.83l-5.68,3.28c-.66,.38-1.07,1.09-1.07,1.86Z"/><path class="cls-2" d="M245.92,85.13c-.2,0-.4-.05-.59-.16-.37-.21-.59-.59-.59-1.02v-10.1c0-.94,.51-1.82,1.32-2.29l5.68-3.28c.82-.47,1.79-.47,2.61,0,.82,.47,1.3,1.32,1.3,2.26v7.08c0,1.28-.69,2.47-1.8,3.11l-7.35,4.24c-.18,.11-.39,.16-.59,.16Zm7.13-16.21c-.28,0-.55,.07-.8,.22l-5.68,3.28c-.51,.29-.82,.84-.82,1.42v10.1c0,.09,.06,.13,.09,.15,.03,.02,.1,.05,.18,0l7.35-4.24c.8-.46,1.3-1.32,1.3-2.25v-7.08c0-.58-.3-1.1-.8-1.39-.25-.14-.53-.22-.8-.22Z"/></g><path class="cls-1" d="M112.94,70.75l-48.41,35.3c-1.1-.81-2.05-1.55-2.87-2.24l47.19-35.28c1.38,.78,2.75,1.52,4.09,2.22Z"/><path class="cls-1" d="M138.38,82.19c-5.46,5.96-11.61,16.28-16.86,26.19l-21.71,15.83c-7.11-2.58-17.55-6.96-28.44-13.63-.87-.53-1.69-1.05-2.46-1.54l48.33-36.14c9.82,4.72,17.85,7.22,20.79,8.06,.53,.16,.72,.82,.35,1.23Z"/><path class="cls-2" d="M108.85,127.44c-.37,0-.74-.05-1.11-.16-4.39-1.25-19.99-6.12-36.61-16.3-11.88-7.28-14.47-11.3-14.96-13.05-.18-.65,.02-1.35,.52-1.84,.87-.85,3.14-3.16,5.44-6.42,.53-.75,1.37-1.98,2.45-3.56,5.61-8.2,17.28-25.26,24.22-32.17,.36-.36,.87-.53,1.36-.45,.51,.08,.95,.38,1.2,.85,.88,1.64,3.83,5.3,13.72,11.35,14.99,9.18,29.12,13.62,33.1,14.77,.42,.12,.74,.44,.86,.86,.12,.42,.01,.86-.28,1.18-8.48,9.26-18.59,29.13-23.86,40.15-1.14,2.39-2.98,3.71-4.32,4.39-.54,.27-1.13,.41-1.73,.41Zm-18.92-72.97c-.12,0-.28,.03-.42,.18h0c-6.87,6.84-18.5,23.85-24.1,32.03-1.08,1.58-1.93,2.82-2.46,3.57-2.35,3.32-4.67,5.69-5.56,6.56-.24,.23-.34,.56-.26,.86,.36,1.29,2.49,5.1,14.52,12.46,16.51,10.11,32,14.95,36.36,16.2,.73,.21,1.48,.14,2.12-.18,1.2-.61,2.85-1.79,3.88-3.93,5.29-11.07,15.45-31.03,24.02-40.39,.08-.09,.07-.18,.06-.23-.01-.04-.05-.14-.17-.17-4.01-1.15-18.25-5.63-33.35-14.87-9.59-5.87-12.95-9.62-14.08-11.74-.1-.18-.26-.3-.46-.33-.02,0-.05,0-.09,0Zm-.78-.18h0Z"/><path class="cls-3" d="M245.06,60.29l.73-3.33c.24-1.11,.85-2.11,1.72-2.84l3.29-2.77c.56-.47,1.41-.07,1.41,.66v3.19c0,1.09-.58,2.11-1.53,2.65l-5,2.89c-.31,.18-.7-.1-.62-.45Z"/><path class="cls-2" d="M245.47,61.3c-.19,0-.38-.06-.54-.18-.3-.22-.43-.58-.36-.94h0l.73-3.33c.26-1.21,.93-2.32,1.88-3.12l3.29-2.76c.41-.34,.96-.42,1.45-.19,.49,.23,.79,.7,.79,1.23v3.19c0,1.27-.68,2.45-1.78,3.09l-5,2.89c-.14,.08-.3,.13-.46,.13Zm5.88-9.65c-.07,0-.15,.02-.23,.09l-3.29,2.77c-.78,.66-1.33,1.57-1.55,2.57l-.7,3.21,4.85-2.86c.79-.46,1.28-1.31,1.28-2.22v-3.19c0-.21-.15-.3-.21-.33-.03-.01-.09-.04-.16-.04Z"/><path class="cls-2" d="M247.35,59.85c-.17,0-.34-.05-.49-.16-.26-.19-.39-.52-.32-.84h0l.57-2.59c.21-.97,.75-1.85,1.5-2.48l2.56-2.15c.35-.29,.83-.36,1.24-.17,.42,.19,.68,.6,.68,1.06v2.48c0,1.03-.55,1.98-1.44,2.49l-3.88,2.24c-.13,.07-.27,.11-.41,.11Zm4.57-7.5s-.07,0-.11,.04l-2.56,2.15c-.59,.49-1,1.18-1.17,1.93l-.48,2.2,3.54-2.04c.58-.33,.94-.96,.94-1.63v-2.48c0-.09-.06-.14-.1-.15-.02,0-.04-.02-.07-.02Z"/><rect class="cls-2" x="246.7" y="54.82" width="1" height="1.33" transform="translate(150.33 289.58) rotate(-80.17)"/><rect class="cls-2" x="208.06" y="58.4" width="37.08" height="1" transform="translate(3.81 130.9) rotate(-32.48)"/><path class="cls-2" d="M105.73,153.19c-.16,0-.32-.08-.42-.22-.15-.23-.09-.54,.14-.69,2.16-1.45,4.14-3.42,6.22-5.5,2.4-2.39,4.88-4.86,7.8-6.66,5.3-3.26,130.15-82.31,131.41-83.11,.23-.15,.54-.08,.69,.16,.15,.23,.08,.54-.16,.69-1.26,.8-126.11,79.85-131.42,83.11-2.82,1.74-5.26,4.17-7.62,6.51-2.12,2.11-4.13,4.11-6.37,5.62-.08,.06-.18,.08-.28,.08Z"/><path class="cls-2" d="M62.55,186.52l-.52-.86c4.68-2.84,12.06-7.19,15.01-8.93,1.77-1.04,3.3-2.41,4.54-4.05l7.67-10.14,.8,.6-7.67,10.14c-1.32,1.75-2.95,3.2-4.83,4.31-2.95,1.74-10.33,6.09-15,8.92Z"/><path class="cls-2" d="M55.68,193.4c-.25,0-.49-.06-.72-.19h0l-5.65-3.25c-.47-.27-.75-.77-.75-1.31v-.33c0-.49,.24-.95,.64-1.22s.92-.34,1.37-.16l5.63,2.52c.54,.2,.91,.75,.91,1.36v1.15c0,.52-.27,.99-.72,1.25-.23,.13-.47,.2-.72,.2Zm-.22-1.06c.2,.11,.37,.04,.44,0,.07-.04,.22-.15,.22-.38v-1.15c0-.19-.12-.37-.3-.43l-5.63-2.52c-.12-.05-.29-.03-.42,.06-.13,.09-.21,.24-.21,.4v.33c0,.18,.1,.35,.25,.44l5.65,3.25Z"/><path class="cls-2" d="M9.53,165.05c-.24,0-.48-.06-.7-.19l-4.07-2.35c-.6-.35-.98-1-.98-1.69v-.7c0-.51,.28-.98,.74-1.21,.46-.24,1-.19,1.41,.11l4.2,3.04c.51,.37,.81,.96,.81,1.59,0,.51-.26,.96-.7,1.22-.22,.13-.46,.19-.7,.19Zm-4.39-5.29c-.07,0-.13,.02-.17,.04-.06,.03-.19,.12-.19,.32v.7c0,.34,.18,.65,.48,.82l4.07,2.35c.18,.11,.35,.04,.41,0,.06-.04,.2-.14,.2-.35,0-.31-.15-.6-.4-.78l-4.2-3.04c-.07-.05-.14-.07-.21-.07Z"/><g><path class="cls-3" d="M128.63,116.14c.17-.05,.24-1.36,1.27-1.12s5.88,2.21,5.88,2.21c0,0,1.76,.76,2.32,1.56s1.34,2.12,1.66,3.49c0,0,.52,1.91,.53,2.53s-1.86,.97-1.86,.97c0,0-2.15,.46-3.79-.59-1.64-1.06-5.65-2.12-5.65-2.12,0,0-1.05-.96-1.05-2.63,0-1.67,.69-4.3,.69-4.3Z"/><path class="cls-1" d="M128.4,117.08s.47-2,1.49-2.06,6.17,2.33,6.17,2.33c0,0,.82,.41-.09,1.17s-1.62,1.17-2.64,.95-4.54-1.76-4.54-1.76l-.39-.63Z"/><path class="cls-2" d="M139.73,126.04c-.2,0-.41-.06-.62-.18l.5-.87c.08,.04,.11,.04,.12,.04h0s.11-.25,.01-.65l-.51-2.17c-.4-1.69-1.38-3.28-2.52-4.07l-6.67-2.72c-.16-.11-.3-.15-.38-.11-.09,.05-.18,.25-.18,.58h-1c0-.69,.26-1.22,.72-1.46,.4-.21,.89-.16,1.36,.13l6.68,2.72c1.35,.92,2.52,2.76,2.97,4.7l.51,2.17c.17,.74,.02,1.37-.41,1.69-.17,.13-.37,.19-.58,.19Z"/><path class="cls-2" d="M136.2,126.29c-.16,0-.33-.04-.5-.13l-7.07-2.79c-.71-.4-1.19-1.31-1.19-2.14v-2.84c0-.57,.22-1.02,.61-1.23,.35-.18,.76-.14,1.15,.1l5.15,2.1c1.08,.73,1.97,2.14,2.33,3.68l.39,1.67c.14,.61,.01,1.14-.36,1.42-.15,.11-.33,.17-.51,.17Zm-7.69-8.25h0s-.07,.11-.07,.34v2.84c0,.5,.33,1.07,.63,1.24l7.06,2.78c0-.07,0-.17-.02-.31l-.39-1.67c-.3-1.26-1.03-2.46-1.88-3.05l-5.14-2.1c-.09-.06-.15-.08-.17-.08Z"/><polygon class="cls-2" points="128.45 118.17 127.54 117.77 128.8 114.83 129.72 115.22 128.45 118.17"/><rect class="cls-2" x="136.22" y="125.15" width="3.66" height="1" transform="translate(-8.94 10.58) rotate(-4.25)"/><polygon class="cls-2" points="134.67 120.25 134.03 119.49 136.63 117.33 137.27 118.1 134.67 120.25"/><rect class="cls-2" x="135.6" y="120.3" width="3.3" height="1" transform="translate(-39.85 75.37) rotate(-26.97)"/></g></g></g></svg>