<?xml version="1.0" encoding="UTF-8"?><svg id="Capa_2" xmlns="http://www.w3.org/2000/svg" viewBox="0 0 321.57 261.38"><defs><style>.cls-1{fill:#96e0aa;}.cls-2{fill:#2b824a;}.cls-3{fill:#59b377;}.cls-4{fill:#ffdc8c;}</style></defs><g id="articulado"><g><path class="cls-4" d="M293.02,135.67c0,72.47-41.38,125.72-113.85,125.72S30.59,208.13,30.59,135.67,52.4,11.38,122.15,31.02c70.21,19.77,170.87,32.18,170.87,104.65Z"/><path class="cls-2" d="M317.1,100.36L56.36,251.24c-3.24,1.86-7.22,1.85-10.45-.01L5.53,228.08c-1.75-1.01-1.76-3.54,0-4.55L270.58,70.19l46.53,26.69c1.34,.77,1.34,2.71,0,3.47Z"/><g><g><path class="cls-1" d="M277.74,1.65c-.95-1.43-2.6-1.79-4.49-.7l-100.47,58.03c-2.71,1.56-4.89,5.74-4.89,9.33v53.98c0,2.09,.88,3.4,2.18,3.58l40.29,22.99,20.95-37.57s37.48-23.87,37.65-23.87,49.08-63.34,49.08-63.34L277.74,1.65Z"/><path class="cls-2" d="M210.96,149.74l-41.06-23.2c-1.55-.27-2.51-1.82-2.51-4.06v-53.98c0-3.75,2.31-8.12,5.15-9.76L273,.7c2.01-1.16,3.95-.87,5.09,.75l40.7,22.67-.36,.46c-43.29,56.07-48.44,62.65-49.28,63.43l.03,.05c-.74,.39-24.78,15.68-37.49,23.77l-20.72,37.9ZM275.36,1c-.57,0-1.2,.19-1.86,.57l-100.47,58.03c-2.56,1.48-4.65,5.47-4.65,8.9v53.98c0,1.76,.67,2.94,1.75,3.09l.18,.06,40.26,22.74,20.36-37.24,.11-.07c30.6-19.49,36.38-23.12,37.57-23.79h0c.79-.86,31.97-41.21,48.68-62.84L277.39,2.21l-.07-.1c-.49-.74-1.17-1.11-1.97-1.11Z"/><g><ellipse class="cls-2" cx="295.51" cy="90.47" rx="12.83" ry="7.26" transform="translate(77.45 309.46) rotate(-62.14)"/><polygon class="cls-2" points="297.76 105.94 289.51 101.78 302.43 75.96 318.44 82.91 297.76 105.94"/><ellipse class="cls-2" cx="303.71" cy="94.59" rx="12.83" ry="7.26" transform="translate(78.18 318.91) rotate(-62.14)"/><ellipse class="cls-3" cx="303.71" cy="94.59" rx="9.07" ry="5.13" transform="translate(78.18 318.91) rotate(-62.14)"/><path class="cls-2" d="M304.78,98.87l-1.06-1.6c-.13-.19-.44-.05-.61,.29l-1.44,2.83c-.16,.32-.08,.62,.16,.56l.42-.11c.67-.18,1.37-.51,2.06-.97l.16-.11c.29-.19,.46-.68,.32-.89Z"/><path class="cls-2" d="M307.91,92.36l-2.09,1.79c-.25,.22-.38,.64-.25,.83l1.11,1.6c.12,.18,.43,0,.56-.32l.24-.59c.38-.93,.67-1.87,.84-2.79l.04-.21c.07-.38-.17-.55-.46-.31Z"/><path class="cls-2" d="M305.23,88.94l-.23,2.7c-.03,.33,.21,.44,.46,.22l2.13-1.84c.24-.21,.34-.62,.19-.76l-.27-.25c-.43-.4-.95-.65-1.54-.75l-.14-.02c-.24-.04-.57,.34-.6,.7Z"/><path class="cls-2" d="M300.44,93.34l1.95-.12c.24-.01,.51-.37,.53-.69l.21-2.74c.02-.31-.22-.39-.45-.15l-.41,.43c-.65,.69-1.26,1.47-1.8,2.33l-.13,.2c-.22,.36-.18,.76,.09,.74Z"/><path class="cls-2" d="M300.17,99.48l1.43-2.77c.17-.34,.11-.67-.13-.65l-2,.15c-.23,.02-.48,.38-.46,.67l.02,.52c.03,.82,.18,1.56,.43,2.19l.06,.15c.11,.26,.46,.13,.65-.25Z"/><ellipse class="cls-2" cx="303.71" cy="94.59" rx="1.56" ry=".88" transform="translate(78.18 318.91) rotate(-62.14)"/></g><path class="cls-3" d="M321.17,82.21v2.92c0,.81-.49,1.74-1.09,2.09l-2.5,1.45-4.32,2.72c-.08,.05-.17,.06-.25,.05-.19-.03-.34-.22-.31-.44,.16-1.05,.25-2.09,.25-3.1,0-5.56-2.46-8.95-6.03-9.09-.09,0-.19,0-.28,0-1.26,0-2.65,.41-4.11,1.25-5.74,3.32-10.4,12.21-10.4,19.87,0,1.04,.09,2.01,.26,2.88,.07,.34-.08,.69-.38,.86l-78.7,45.22c-.58,.34-1.14,.5-1.63,.5h-.04c-1.45-.03-2.45-1.37-2.45-3.61v-53.98c0-3.59,2.18-7.77,4.89-9.33l100.47-58.03c.65-.38,1.29-.58,1.86-.63,.06,0,.12,0,.18,0,1.93-.04,3.29,1.71,3.29,4.67v53.04l.19-.11c.21-.12,.4-.15,.55-.12,.33,.06,.54,.41,.54,.94Z"/><path class="cls-2" d="M288.09,73.1v-23.9l26.93-16.11v23.34l-9,5.75-17.94,10.92Zm1-23.33v21.55l16.41-9.99,8.53-5.45v-21.03l-24.93,14.92Z"/><path class="cls-2" d="M241.87,99.22v-23.88l.25-.14,27.15-15.68v23.88l-.25,.14-27.15,15.68Zm1-23.3v21.57l25.4-14.67v-21.57l-25.4,14.67Z"/><path class="cls-2" d="M214.19,115.2v-23.88l.25-.14,26.3-15.19v23.88l-.25,.14-26.3,15.19Zm1-23.3v21.57l24.55-14.18v-21.57l-24.55,14.18Z"/><path class="cls-2" d="M211.64,149.76c-.75,0-1.39-.26-1.89-.75-.74-.72-1.14-1.91-1.14-3.36v-53.98c0-3.75,2.31-8.13,5.14-9.76l100.47-58.03c.75-.43,1.49-.67,2.19-.7,.05,0,.13,0,.2,0,2.24,.02,3.69,2.05,3.69,5.17v52.32c.15-.03,.3-.03,.44,0,.28,.08,.84,.37,.84,1.43v2.92c0,.98-.59,2.09-1.34,2.52l-2.64,1.52-4.16,2.64c-.16,.09-.29,.12-.43,.12-.21,.03-.48-.07-.67-.26-.19-.2-.28-.48-.24-.75,.16-1.06,.24-2.08,.24-3.03,0-5.1-2.09-8.39-5.46-8.59-.09,0-.17,0-.25,0h-.06c-1.23,0-2.54,.4-3.9,1.18-5.59,3.23-10.15,11.95-10.15,19.43,0,.88,.07,1.73,.21,2.53,.12,.72-.22,1.45-.86,1.81l-78.42,45.06c-.6,.35-1.19,.54-1.76,.56h-.07ZM316.57,24.17s-.06,0-.09,0c-.57,.03-1.16,.22-1.77,.57l-100.46,58.03c-2.56,1.48-4.64,5.47-4.64,8.9v53.98c0,1.17,.3,2.11,.84,2.64,.33,.32,.69,.48,1.19,.47,.44-.02,.88-.16,1.33-.43l78.42-45.06c.27-.16,.42-.47,.37-.78-.15-.86-.22-1.77-.22-2.7,0-7.8,4.78-16.91,10.65-20.3,1.54-.89,3.06-1.29,4.46-1.31,.11,.03,.21,0,.31,0,3.88,.23,6.39,3.99,6.39,9.59,0,.92-.07,1.91-.22,2.93l3.95-2.5,2.65-1.53c.45-.26,.84-1.04,.84-1.66v-2.92c0-.28-.06-.42-.09-.46-.02,0-.07,.02-.16,.07l-.25,.11-.77,.77V28.34c0-2.52-1.06-4.16-2.7-4.17h-.03Zm-3.47,66.79h0Z"/><path class="cls-2" d="M211.47,82.33c-.08,0-.16-.02-.24-.06l-38.41-20.78c-.24-.13-.33-.43-.2-.68,.13-.24,.43-.33,.68-.2l38.41,20.78c.24,.13,.33,.43,.2,.68-.09,.17-.26,.26-.44,.26Z"/><path class="cls-2" d="M211.59,148.04c-.17,0-.33-.04-.46-.12-.5-.29-.81-1.16-.81-2.27v-53.98c0-3.15,1.96-6.94,4.28-8.27l100.46-58.03c.55-.32,1.57-.68,2.27-.28,.78,.45,1.24,1.67,1.24,3.26v54.74h-1V28.34c0-1.55-.46-2.23-.74-2.39-.26-.15-.75-.02-1.26,.28l-100.47,58.03c-2.01,1.16-3.78,4.62-3.78,7.41v53.98c0,.94,.26,1.36,.33,1.41-.02-.02,.16-.05,.47-.22l3.57-2.09,75.82-43.78,.5,.87-75.82,43.77-3.57,2.09c-.38,.22-.73,.33-1.02,.33Zm-4.55-.75c-.15-.61-.16-.96-.16-1.64v-53.98c0-4.37,2.64-9.31,6-11.25l101.56-58.62,.5,.87-101.56,58.62c-3.09,1.78-5.5,6.34-5.5,10.38v53.98c0,.65,0,.9,.13,1.4l-.97,.24Z"/><path class="cls-2" d="M169.6,126.44c-.28,0-.5-.22-.5-.5v-20.12c0-.28,.22-.5,.5-.5s.5,.22,.5,.5v20.12c0,.28-.22,.5-.5,.5Zm0-52.29c-.28,0-.5-.22-.5-.5v-5.16c0-3.15,1.96-6.93,4.29-8.27L273.86,2.2c.27-.16,2.26-1.08,3.1-1.47,.25-.12,.55,0,.66,.25,.12,.25,0,.55-.25,.66-1.9,.88-2.88,1.35-3.01,1.43l-100.47,58.03c-2.02,1.16-3.79,4.62-3.79,7.41v5.16c0,.28-.22,.5-.5,.5Z"/><path class="cls-2" d="M321.17,82.1v2.92c0,.81-.49,1.74-1.09,2.09l-2.5,1.45c-.08,.03-.16,.05-.23,.08-.45,.15-.74,.25-.74,.25v-4.89c0-.42,.22-.81,.58-1.03l2.6-1.57s0,0,.03-.01c.01-.01,.04-.03,.07-.04v.02l.19-.08c.21-.12,.4-.15,.55-.12,.33,.06,.54,.41,.54,.94Z"/><g><path class="cls-2" d="M271.73,111.51V61.9l7.13-4.12v49.61l-7.13,4.12Zm1-49.04v47.3l5.13-2.96V59.51l-5.13,2.96Zm5.63,44.63h0Z"/><path class="cls-2" d="M278.62,107.53V57.92l7.13-4.12v49.62l-7.13,4.12Zm1-49.04v47.3l5.13-2.96V55.53l-5.13,2.96Zm5.63,44.63h0Z"/><polygon class="cls-2" points="277.42 60.85 277.42 76.44 273.23 78.85 273.23 63.27 275.8 61.79 277.42 60.85"/><polygon class="cls-2" points="277.42 106.02 273.24 108.43 273.24 80.68 277.42 78.26 277.42 106.02"/><polygon class="cls-2" points="284.27 56.89 284.27 72.48 280.09 74.89 280.09 59.31 282.59 57.86 283.61 57.27 283.62 57.27 284.27 56.89"/><polygon class="cls-2" points="284.27 102.06 280.09 104.48 280.09 76.72 284.27 74.31 284.27 102.06"/><polygon class="cls-3" points="284.27 56.89 284.27 59.8 280.09 73.6 280.09 69.72 283.61 57.27 283.62 57.27 284.27 56.89"/><polygon class="cls-3" points="282.59 57.86 280.09 65.34 280.09 59.31 282.59 57.86"/><polygon class="cls-3" points="277.42 61.57 277.42 64.9 273.23 78.7 273.23 74.82 276.87 61.98 277.42 61.57"/><polygon class="cls-3" points="275.8 61.79 273.23 69.47 273.23 63.27 275.8 61.79"/><path class="cls-2" d="M270.89,113.86c-.28,0-.5-.22-.5-.5V59.56c0-.31,.17-.6,.44-.76l15.27-8.81c.2-.12,.45-.12,.65,0,.2,.12,.33,.33,.33,.57v53.92c0,.28-.22,.5-.5,.5s-.5-.22-.5-.5V51.15l-14.68,8.48v53.73c0,.28-.22,.5-.5,.5Zm15.71-63.01h0Z"/><path class="cls-2" d="M272.23,60.84c-.17,0-.34-.09-.43-.25-.14-.24-.06-.54,.18-.68l5.69-3.31c.24-.14,.54-.06,.68,.18,.14,.24,.06,.54-.18,.68l-5.69,3.31c-.08,.05-.17,.07-.25,.07Z"/><path class="cls-2" d="M279.61,56.65c-.17,0-.34-.09-.43-.25-.14-.24-.06-.54,.18-.68l5.64-3.27c.24-.14,.54-.06,.68,.18,.14,.24,.06,.54-.18,.68l-5.64,3.27c-.08,.05-.17,.07-.25,.07Z"/></g><polygon class="cls-2" points="240.24 99.56 214.69 114.09 214.69 91.61 240.24 77.09 240.24 99.56"/><polygon class="cls-2" points="268.77 83.07 242.1 98.3 242.1 75.83 268.77 60.6 268.77 83.07"/><polygon class="cls-2" points="288.92 72.02 288.92 49.55 314.52 34.16 314.52 56.34 288.92 72.02"/><path class="cls-2" d="M312.79,89.75c-.17,0-.33-.08-.42-.23-.15-.23-.08-.54,.16-.69l4.63-2.93c.23-.15,.54-.08,.69,.16,.15,.23,.08,.54-.16,.69l-4.63,2.93c-.08,.05-.18,.08-.27,.08Z"/><path class="cls-2" d="M286.8,84.75c-.17,0-.34-.09-.43-.25-.14-.24-.06-.54,.18-.68l32.99-18.99c.24-.14,.54-.06,.68,.18,.14,.24,.06,.54-.18,.68l-32.99,18.99c-.08,.04-.16,.07-.25,.07Z"/><path class="cls-2" d="M211.06,128.35c-.17,0-.34-.09-.43-.25-.14-.24-.06-.54,.18-.68l59.63-34.33c.24-.14,.54-.06,.68,.18,.14,.24,.06,.54-.18,.68l-59.63,34.33c-.08,.04-.16,.07-.25,.07Z"/></g><g><path class="cls-3" d="M169.84,124.98l-16.07,9.28c-.13,.07-.23,0-.23-.17v-59.03c0-.17,.1-.36,.23-.43l16.07-9.28c.13-.07,.23,0,.23,.17l38.1,21.55c0,.17-38.21,37.85-38.33,37.92Z"/><g><path class="cls-2" d="M153.7,75.19c-.28,0-.49-.26-.49-.54,0-.7,1.13-1.38,1.26-1.45,.44-.25,1.04-.5,1.45-.27,.2,.11,.31,.32,.31,.55,0,.4-.54,.62-.82,.38-.1,.03-.25,.09-.44,.2-.46,.26-.73,.57-.77,.66,0,.28-.22,.46-.49,.46Z"/><path class="cls-2" d="M155.72,74.03c-.28,0-.49-.26-.49-.54,0-.7,1.13-1.38,1.26-1.45,.44-.25,1.04-.5,1.45-.26,.2,.11,.31,.32,.31,.55,0,.4-.54,.62-.82,.38-.1,.03-.25,.09-.44,.2-.46,.26-.73,.57-.78,.66,0,.28-.22,.46-.49,.46Z"/><path class="cls-2" d="M157.75,72.86c-.28,0-.49-.26-.49-.54,0-.7,1.13-1.38,1.26-1.45,.43-.25,1.04-.5,1.45-.26,.2,.11,.31,.32,.31,.55,0,.4-.54,.62-.82,.38-.1,.03-.25,.09-.44,.2-.46,.26-.73,.57-.77,.66,0,.28-.22,.46-.49,.46Z"/><path class="cls-2" d="M159.78,71.69c-.28,0-.49-.26-.49-.54,0-.71,1.13-1.38,1.26-1.45,.44-.25,1.04-.5,1.45-.26,.2,.11,.31,.32,.31,.55,0,.4-.54,.62-.82,.38-.1,.03-.25,.09-.44,.2-.46,.26-.73,.57-.77,.66,0,.28-.22,.46-.49,.46Z"/><path class="cls-2" d="M161.8,70.52c-.28,0-.49-.26-.49-.54,0-.7,1.13-1.38,1.26-1.45,.44-.25,1.04-.5,1.45-.27,.2,.11,.31,.32,.31,.55,0,.4-.54,.62-.82,.38-.1,.03-.25,.09-.44,.2-.46,.26-.73,.57-.78,.66,0,.28-.22,.46-.49,.46Z"/><path class="cls-2" d="M163.83,69.35c-.28,0-.49-.26-.49-.54,0-.69,1.05-1.33,1.26-1.45,.44-.25,1.05-.5,1.45-.27,.2,.11,.31,.32,.31,.55,0,.4-.54,.62-.82,.38-.1,.03-.25,.09-.44,.2-.46,.26-.73,.57-.77,.66,0,.28-.22,.46-.49,.46Z"/><path class="cls-2" d="M165.85,68.18c-.28,0-.49-.26-.49-.54,0-.7,1.13-1.38,1.26-1.45,.44-.25,1.04-.5,1.45-.26,.2,.11,.31,.32,.31,.55,0,.4-.54,.62-.82,.38-.1,.03-.25,.09-.44,.2-.46,.26-.73,.57-.77,.66,0,.28-.22,.46-.49,.46Z"/><path class="cls-2" d="M167.88,67.01c-.28,0-.49-.26-.49-.54,0-.7,1.13-1.38,1.26-1.45,.44-.25,1.04-.5,1.45-.26,.2,.11,.31,.32,.31,.55,0,.4-.54,.62-.82,.38-.1,.03-.25,.09-.44,.2-.46,.26-.73,.57-.78,.66,0,.28-.22,.46-.49,.46Z"/></g></g><g><path class="cls-3" d="M208.18,146.62l-16.07,9.28c-.13,.07-.23,0-.23-.17v-59.03c0-.17,.1-.36,.23-.43l16.07-9.28c.13-.07,.23,0,.23,.17v59.03c0,.17-.1,.36-.23,.43Z"/><path class="cls-2" d="M192.01,156.43c-.11,0-.21-.03-.31-.08-.21-.12-.33-.35-.33-.62v-59.04c0-.35,.2-.7,.48-.87l16.07-9.28c.21-.12,.45-.13,.65-.01,.21,.12,.33,.34,.33,.62v59.03c0,.35-.2,.7-.48,.87l-16.07,9.28c-.11,.06-.23,.09-.34,.09Zm15.89-68.71l-15.55,8.98,.02,58.47,15.51-8.96v-58.49Zm.04,58.47h0Z"/><g><path class="cls-2" d="M193.9,153.16c-.28,0-.5-.22-.5-.5v-55.25c0-.28,.22-.5,.5-.5s.5,.22,.5,.5v55.25c0,.28-.22,.5-.5,.5Z"/><path class="cls-2" d="M195.68,152.14c-.28,0-.5-.22-.5-.5v-55.25c0-.28,.22-.5,.5-.5s.5,.22,.5,.5v55.25c0,.28-.22,.5-.5,.5Z"/><path class="cls-2" d="M197.47,151.11c-.28,0-.5-.22-.5-.5v-55.24c0-.28,.22-.5,.5-.5s.5,.22,.5,.5v55.24c0,.28-.22,.5-.5,.5Z"/><path class="cls-2" d="M199.25,150.08c-.28,0-.5-.22-.5-.5v-55.25c0-.28,.22-.5,.5-.5s.5,.22,.5,.5v55.25c0,.28-.22,.5-.5,.5Z"/><path class="cls-2" d="M201.03,149.05c-.28,0-.5-.22-.5-.5v-55.24c0-.28,.22-.5,.5-.5s.5,.22,.5,.5v55.24c0,.28-.22,.5-.5,.5Z"/><path class="cls-2" d="M202.81,148.02c-.28,0-.5-.22-.5-.5v-55.25c0-.28,.22-.5,.5-.5s.5,.22,.5,.5v55.25c0,.28-.22,.5-.5,.5Z"/><path class="cls-2" d="M204.59,146.99c-.28,0-.5-.22-.5-.5v-55.25c0-.28,.22-.5,.5-.5s.5,.22,.5,.5v55.25c0,.28-.22,.5-.5,.5Z"/><path class="cls-2" d="M206.38,145.96c-.28,0-.5-.22-.5-.5v-55.25c0-.28,.22-.5,.5-.5s.5,.22,.5,.5v55.25c0,.28-.22,.5-.5,.5Z"/></g><g><path class="cls-2" d="M192.03,96.84c-.28,0-.49-.26-.49-.54,0-.7,1.13-1.38,1.26-1.45,.44-.25,1.04-.5,1.45-.27,.2,.11,.31,.32,.31,.55,0,.4-.54,.62-.82,.38-.1,.03-.25,.09-.44,.2-.46,.26-.73,.57-.78,.66,0,.28-.22,.46-.49,.46Z"/><path class="cls-2" d="M194.06,95.67c-.28,0-.49-.26-.49-.54,0-.69,1.05-1.33,1.26-1.45,.43-.25,1.04-.5,1.45-.26,.2,.11,.31,.32,.31,.55,0,.4-.54,.62-.82,.38-.1,.03-.25,.09-.44,.2-.46,.26-.73,.57-.77,.66,0,.28-.22,.46-.49,.46Z"/><path class="cls-2" d="M196.08,94.5c-.28,0-.49-.26-.49-.54,0-.7,1.13-1.38,1.26-1.45,.44-.25,1.04-.5,1.45-.26,.2,.11,.31,.32,.31,.55,0,.4-.54,.62-.82,.38-.1,.03-.25,.09-.44,.2-.46,.26-.73,.57-.77,.66,0,.28-.22,.46-.49,.46Z"/><path class="cls-2" d="M198.11,93.33c-.28,0-.49-.26-.49-.54,0-.7,1.13-1.38,1.26-1.45,.44-.25,1.04-.5,1.45-.26,.2,.11,.31,.32,.31,.55,0,.4-.54,.62-.82,.38-.1,.03-.25,.09-.44,.2-.46,.26-.73,.57-.78,.66,0,.28-.22,.46-.49,.46Z"/><path class="cls-2" d="M200.13,92.16c-.28,0-.49-.26-.49-.54,0-.7,1.13-1.38,1.26-1.45,.44-.25,1.04-.5,1.45-.27,.2,.11,.31,.32,.31,.55,0,.4-.54,.62-.82,.38-.1,.03-.25,.09-.44,.2-.46,.26-.73,.57-.77,.66,0,.28-.22,.46-.49,.46Z"/><path class="cls-2" d="M202.16,90.99c-.28,0-.49-.26-.49-.54,0-.7,1.13-1.38,1.26-1.45,.44-.25,1.04-.5,1.45-.27,.2,.11,.31,.32,.31,.55,0,.4-.54,.62-.82,.38-.1,.03-.25,.09-.44,.2-.46,.26-.73,.57-.77,.66,0,.28-.22,.46-.49,.46Z"/><path class="cls-2" d="M204.19,89.82c-.28,0-.49-.26-.49-.54,0-.7,1.13-1.38,1.26-1.45,.43-.25,1.04-.5,1.45-.27,.2,.11,.31,.32,.31,.55,0,.4-.54,.62-.82,.38-.1,.03-.25,.09-.44,.2-.46,.26-.73,.57-.78,.66,0,.28-.22,.46-.49,.46Z"/><path class="cls-2" d="M206.21,88.65c-.28,0-.49-.26-.49-.54,0-.7,1.13-1.38,1.26-1.45,.44-.25,1.04-.5,1.45-.26,.2,.11,.31,.32,.31,.55,0,.4-.54,.62-.82,.38-.1,.03-.25,.09-.44,.2-.46,.26-.73,.57-.77,.66,0,.28-.22,.46-.49,.46Z"/></g><g><path class="cls-2" d="M206.42,148.44c-.14,0-.27-.03-.39-.09-.2-.11-.31-.32-.31-.55,0-.4,.54-.62,.82-.38,.1-.03,.25-.09,.44-.2,.46-.26,.73-.57,.78-.66,0-.28,.22-.46,.49-.46s.49,.26,.49,.54c0,.7-1.13,1.38-1.26,1.45-.31,.18-.71,.36-1.06,.36Z"/><path class="cls-2" d="M204.39,149.61c-.14,0-.27-.03-.39-.09-.2-.11-.31-.32-.31-.55,0-.4,.54-.62,.82-.38,.1-.03,.25-.09,.44-.2,.46-.26,.73-.57,.77-.66,0-.28,.22-.46,.49-.46s.49,.26,.49,.54c0,.7-1.13,1.38-1.26,1.45-.31,.18-.71,.36-1.06,.36Z"/><path class="cls-2" d="M202.37,150.78c-.14,0-.27-.03-.39-.1-.2-.11-.31-.32-.31-.55,0-.4,.54-.62,.82-.38,.1-.03,.25-.09,.44-.2,.46-.26,.73-.57,.77-.66,0-.28,.22-.46,.49-.46s.49,.26,.49,.54c0,.7-1.13,1.38-1.26,1.45-.31,.18-.71,.36-1.06,.36Z"/><path class="cls-2" d="M200.34,151.95c-.14,0-.27-.03-.39-.09-.2-.11-.31-.32-.31-.55,0-.4,.54-.62,.82-.38,.1-.03,.25-.09,.44-.2,.46-.26,.73-.57,.78-.67,0-.28,.22-.46,.49-.46s.49,.26,.49,.54c0,.7-1.13,1.38-1.26,1.45-.31,.18-.71,.36-1.06,.36Z"/><path class="cls-2" d="M198.31,153.12c-.14,0-.27-.03-.39-.09-.2-.11-.31-.32-.31-.55,0-.4,.54-.62,.82-.38,.1-.03,.25-.09,.44-.2,.46-.26,.73-.57,.77-.66,0-.28,.22-.46,.49-.46s.49,.26,.49,.54c0,.71-1.13,1.38-1.26,1.45-.31,.18-.71,.36-1.06,.36Z"/><path class="cls-2" d="M196.29,154.29c-.14,0-.27-.03-.39-.09-.2-.11-.31-.32-.31-.55,0-.4,.54-.62,.82-.38,.1-.03,.25-.09,.44-.2,.46-.26,.73-.57,.77-.66,0-.28,.22-.46,.49-.46s.49,.26,.49,.54c0,.7-1.13,1.38-1.26,1.45-.31,.18-.71,.36-1.06,.36Z"/><path class="cls-2" d="M194.26,155.46c-.14,0-.27-.03-.39-.09-.2-.11-.31-.32-.31-.55,0-.4,.54-.62,.82-.38,.1-.03,.25-.09,.44-.2,.46-.26,.73-.57,.78-.66,0-.28,.22-.46,.49-.46s.49,.26,.49,.54c0,.7-1.13,1.38-1.26,1.45-.31,.18-.71,.36-1.06,.36Z"/><path class="cls-2" d="M192.24,156.63c-.14,0-.27-.03-.39-.1-.2-.11-.31-.32-.31-.55,0-.4,.54-.62,.82-.38,.1-.03,.25-.09,.44-.2,.46-.26,.73-.57,.77-.66,0-.28,.22-.46,.49-.46s.49,.26,.49,.54c0,.7-1.13,1.38-1.26,1.45-.31,.18-.71,.36-1.06,.36Z"/></g></g><path class="cls-1" d="M152.75,73.73c-.95-1.43-2.6-1.79-4.49-.7L9.04,153.41c-2.71,1.56-4.89,5.74-4.89,9.33v53.98c0,2.09,.88,3.4,2.18,3.58l40.29,22.99,20.95-37.57s76.23-46.22,76.4-46.22,49.08-63.34,49.08-63.34l-40.29-22.44Z"/><g><polygon class="cls-2" points="43.64 188.58 43.49 222.09 33.23 216.01 32.35 215.81 30.75 217.41 14.57 208.7 11.93 203.87 4.14 199.37 4.14 167.3 43.64 188.58"/><polygon class="cls-1" points="43.38 189.26 43.04 202.71 33.14 219.33 15.92 209.39 31.64 183.01 43.38 189.26"/><polygon class="cls-1" points="28.74 180.55 12.94 206.82 9.65 204.92 25.45 178.65 28.74 180.55"/></g><path class="cls-2" d="M47.22,244.17L6.15,220.97c-1.55-.27-2.51-1.82-2.51-4.06v-53.98c0-3.75,2.31-8.12,5.14-9.76L148.01,72.79c2.01-1.16,3.95-.87,5.09,.75l40.7,22.67-.36,.46c-43.26,56.03-48.43,62.65-49.28,63.43l.03,.05c-1.15,.6-72.9,44.1-76.25,46.13l-20.72,37.9ZM150.37,73.08c-.57,0-1.2,.19-1.86,.57L9.29,154.03c-2.56,1.48-4.64,5.47-4.64,8.9v53.98c0,1.76,.67,2.94,1.75,3.09l.18,.06,40.26,22.74,20.36-37.24,.12-.07c64.87-39.33,74.71-45.24,76.32-46.13h-.01c.79-.87,31.97-41.21,48.68-62.84l-39.89-22.22-.07-.1c-.49-.74-1.17-1.11-1.97-1.11Z"/><g><ellipse class="cls-2" cx="76.66" cy="216.53" rx="12.83" ry="7.26" transform="translate(-150.6 183.14) rotate(-62.14)"/><polygon class="cls-2" points="78.91 232.01 70.66 227.85 83.59 202.03 99.6 208.97 78.91 232.01"/><ellipse class="cls-2" cx="84.86" cy="220.65" rx="12.83" ry="7.26" transform="translate(-149.87 192.58) rotate(-62.14)"/><ellipse class="cls-3" cx="84.86" cy="220.65" rx="9.07" ry="5.13" transform="translate(-149.87 192.58) rotate(-62.14)"/><path class="cls-2" d="M85.94,224.94l-1.06-1.6c-.13-.19-.44-.05-.61,.29l-1.44,2.83c-.16,.32-.08,.62,.16,.56l.42-.11c.67-.18,1.37-.51,2.06-.97l.16-.11c.29-.19,.46-.68,.32-.89Z"/><path class="cls-2" d="M89.07,218.43l-2.09,1.79c-.25,.22-.38,.64-.25,.83l1.11,1.6c.12,.18,.43,0,.56-.32l.24-.59c.38-.93,.67-1.87,.84-2.79l.04-.21c.07-.38-.17-.55-.46-.31Z"/><path class="cls-2" d="M86.38,215.01l-.23,2.7c-.03,.33,.21,.44,.46,.22l2.13-1.84c.24-.21,.34-.62,.19-.76l-.27-.25c-.43-.4-.95-.65-1.54-.75l-.14-.02c-.24-.04-.57,.34-.6,.7Z"/><path class="cls-2" d="M81.6,219.41l1.95-.12c.24-.01,.51-.37,.53-.69l.21-2.74c.02-.31-.22-.39-.45-.15l-.41,.43c-.65,.69-1.26,1.47-1.8,2.33l-.13,.2c-.22,.36-.18,.76,.09,.74Z"/><path class="cls-2" d="M81.32,225.54l1.43-2.77c.17-.34,.11-.67-.13-.65l-2,.15c-.23,.02-.48,.38-.46,.67l.02,.52c.03,.82,.18,1.56,.43,2.19l.06,.15c.11,.26,.46,.13,.65-.25Z"/><ellipse class="cls-2" cx="84.86" cy="220.65" rx="1.56" ry=".88" transform="translate(-149.87 192.58) rotate(-62.14)"/></g><g><ellipse class="cls-2" cx="170.52" cy="162.55" rx="12.83" ry="7.26" transform="translate(-52.87 237.36) rotate(-62.14)"/><polygon class="cls-2" points="172.77 178.02 164.52 173.86 177.44 148.04 193.45 154.99 172.77 178.02"/><ellipse class="cls-2" cx="178.72" cy="166.67" rx="12.83" ry="7.26" transform="translate(-52.14 246.8) rotate(-62.14)"/><ellipse class="cls-3" cx="178.72" cy="166.67" rx="9.07" ry="5.13" transform="translate(-52.14 246.8) rotate(-62.14)"/><path class="cls-2" d="M179.79,170.95l-1.06-1.6c-.13-.19-.44-.05-.61,.29l-1.44,2.83c-.16,.32-.08,.62,.16,.56l.42-.11c.67-.18,1.37-.51,2.06-.97l.16-.11c.29-.19,.46-.68,.32-.89Z"/><path class="cls-2" d="M182.92,164.44l-2.09,1.79c-.25,.22-.38,.64-.25,.83l1.11,1.6c.12,.18,.43,0,.56-.32l.24-.59c.38-.93,.67-1.87,.84-2.79l.04-.21c.07-.38-.17-.55-.46-.31Z"/><path class="cls-2" d="M180.24,161.03l-.23,2.7c-.03,.33,.21,.44,.46,.22l2.13-1.84c.24-.21,.34-.62,.19-.76l-.27-.25c-.43-.4-.95-.65-1.54-.75l-.14-.02c-.24-.04-.57,.34-.6,.7Z"/><path class="cls-2" d="M175.45,165.42l1.95-.12c.24-.01,.51-.37,.53-.69l.21-2.74c.02-.31-.22-.39-.45-.15l-.41,.43c-.65,.69-1.26,1.47-1.8,2.33l-.13,.2c-.22,.36-.18,.76,.09,.74Z"/><path class="cls-2" d="M175.18,171.56l1.43-2.77c.17-.34,.11-.67-.13-.65l-2,.15c-.23,.02-.48,.38-.46,.67l.02,.52c.03,.82,.18,1.56,.43,2.19l.06,.15c.11,.26,.46,.13,.65-.25Z"/><ellipse class="cls-2" cx="178.72" cy="166.67" rx="1.56" ry=".88" transform="translate(-52.14 246.8) rotate(-62.14)"/></g><path class="cls-3" d="M196.18,154.29v2.92c0,.81-.49,1.74-1.09,2.09l-2.5,1.45-4.32,2.72c-.08,.05-.17,.06-.25,.05-.19-.03-.34-.22-.31-.44,.16-1.05,.25-2.09,.25-3.1,0-5.56-2.46-8.95-6.03-9.09-.09,0-.19,0-.28,0-1.26,0-2.65,.41-4.11,1.25-5.74,3.32-10.4,12.21-10.4,19.87,0,1.04,.09,2.01,.26,2.88,.07,.34-.08,.69-.38,.86l-72.54,41.64c-.1,.05-.2,.08-.29,.05-.25-.03-.45-.25-.41-.54,.14-.98,.22-1.95,.22-2.92,0-5.56-2.46-8.95-6.02-9.09-.1,0-.19,0-.28,0-1.27,0-2.66,.41-4.11,1.25-5.74,3.31-10.4,12.21-10.4,19.86,0,.99,.08,1.91,.23,2.74,.08,.44-.14,.88-.52,1.11l-23.34,13.47c-.58,.34-1.14,.5-1.63,.5h-.04c-1.45-.03-2.45-1.37-2.45-3.61v-53.98c0-3.59,2.18-7.77,4.89-9.33L189.57,96.51c.65-.38,1.29-.58,1.86-.63,.06,0,.12,0,.18,0,1.93-.04,3.29,1.71,3.29,4.67v53.04l.19-.11c.21-.12,.4-.15,.55-.12,.33,.06,.54,.41,.54,.94Z"/><path class="cls-2" d="M163.1,145.18v-23.9l26.93-16.11v23.34l-9,5.75-17.94,10.92Zm1-23.33v21.55l16.41-9.99,8.53-5.45v-21.03l-24.93,14.92Z"/><path class="cls-2" d="M116.88,171.31v-23.88l.25-.14,27.15-15.68v23.88l-.25,.14-27.15,15.68Zm1-23.3v21.57l25.4-14.67v-21.57l-25.4,14.67Z"/><path class="cls-2" d="M89.2,187.29v-23.88l.25-.14,26.3-15.19v23.88l-.25,.14-26.3,15.19Zm1-23.3v21.57l24.55-14.18v-21.57l-24.55,14.18Z"/><path class="cls-2" d="M47.89,244.19c-.75,0-1.39-.26-1.89-.75-.74-.72-1.14-1.91-1.14-3.35v-53.98c0-3.75,2.31-8.13,5.14-9.76L189.22,95.96c.75-.43,1.49-.67,2.19-.7,.05,0,.13,0,.2,0,2.24,.02,3.69,2.05,3.69,5.17v52.32c.18-.03,.33-.02,.44,0,.28,.08,.84,.37,.84,1.43v2.92c0,.98-.59,2.09-1.34,2.52l-2.64,1.52-4.16,2.64c-.15,.09-.29,.12-.43,.12-.21,.03-.48-.07-.67-.27-.19-.2-.28-.48-.23-.75,.16-1.05,.24-2.07,.24-3.02,0-5.1-2.09-8.39-5.46-8.59-.09,0-.17,0-.25,0h-.06c-1.23,0-2.54,.4-3.89,1.18-5.59,3.23-10.15,11.95-10.15,19.43,0,.88,.07,1.73,.21,2.53,.12,.72-.22,1.45-.86,1.81l-72.26,41.48c-.14,.08-.29,.12-.44,.12-.24,.04-.52-.07-.73-.29-.21-.22-.31-.52-.26-.83,.14-.96,.21-1.92,.21-2.84,0-5.02-2.14-8.4-5.45-8.59h-.25c-1.24-.04-2.58,.38-3.96,1.18-5.6,3.23-10.15,11.94-10.15,19.43,0,.95,.08,1.85,.23,2.67,.11,.64-.19,1.28-.75,1.59l-23.36,13.48c-.6,.35-1.19,.54-1.76,.56h-.07ZM191.58,96.25s-.06,0-.09,0c-.57,.03-1.15,.22-1.77,.57L50.5,177.2c-2.56,1.48-4.64,5.47-4.64,8.9v53.98c0,1.17,.3,2.11,.84,2.64,.33,.32,.74,.46,1.19,.47,.44-.02,.88-.16,1.34-.43l23.36-13.49c.2-.11,.31-.33,.27-.55-.17-.88-.25-1.84-.25-2.85,0-7.8,4.78-16.91,10.65-20.29,1.54-.89,3.06-1.3,4.47-1.32h.27c3.91,.24,6.42,4,6.42,9.6,0,.97-.08,1.98-.23,2.99l72.21-41.5c.27-.16,.42-.47,.37-.78-.15-.86-.22-1.77-.22-2.7,0-7.8,4.78-16.91,10.65-20.3,1.51-.87,2.99-1.31,4.39-1.31,.03,0,.05,0,.08,0,.1,0,.2,0,.3,0,3.88,.23,6.39,3.99,6.39,9.59,0,.93-.07,1.91-.22,2.93l3.95-2.5,2.65-1.53c.45-.26,.84-1.04,.84-1.66v-2.92c0-.28-.06-.42-.09-.46-.02,0-.07,.02-.16,.07l-.25,.1-.78,.78v-54.25c0-2.52-1.06-4.16-2.7-4.17h-.03Zm-3.47,66.79h0Z"/><path class="cls-2" d="M67.88,202.53c-.28,0-.5-.22-.5-.5v-25.51c0-.28,.22-.5,.5-.5s.5,.22,.5,.5v25.51c0,.28-.22,.5-.5,.5Z"/><path class="cls-2" d="M47.73,176.76c-.08,0-.16-.02-.24-.06l-38.41-20.78c-.24-.13-.33-.43-.2-.68s.44-.33,.68-.2l38.41,20.78c.24,.13,.33,.43,.2,.68-.09,.17-.26,.26-.44,.26Z"/><path class="cls-2" d="M43.83,184.54c-.08,0-.16-.02-.24-.06L5.62,163.94c-.24-.13-.33-.43-.2-.68,.13-.24,.44-.33,.68-.2l37.97,20.54c.24,.13,.33,.43,.2,.68-.09,.17-.26,.26-.44,.26Z"/><path class="cls-2" d="M47.85,242.47c-.17,0-.33-.04-.46-.12-.5-.29-.81-1.16-.81-2.27v-53.98c0-3.15,1.96-6.93,4.28-8.27L190.08,97.45c.54-.32,1.57-.68,2.27-.28,.78,.45,1.24,1.67,1.24,3.26v54.74h-1v-54.74c0-1.55-.46-2.23-.74-2.39-.26-.15-.75-.02-1.26,.28L51.36,178.7c-2.02,1.16-3.78,4.62-3.78,7.4v53.98c0,.94,.26,1.36,.33,1.41-.02-.02,.16-.05,.47-.22l24.64-14.41,.51,.86-24.64,14.42c-.38,.22-.73,.33-1.02,.33Zm-4.55-.75c-.15-.61-.16-.96-.16-1.64v-53.98c0-4.37,2.64-9.31,6-11.25L189.46,93.88l.5,.87L49.64,175.72c-3.09,1.78-5.5,6.34-5.5,10.38v53.98c0,.65,0,.9,.13,1.4l-.97,.24Z"/><path class="cls-2" d="M5.86,220.87c-.28,0-.5-.22-.5-.5v-20.12c0-.28,.22-.5,.5-.5s.5,.22,.5,.5v20.12c0,.28-.22,.5-.5,.5Zm0-52.29c-.28,0-.5-.22-.5-.5v-5.16c0-3.14,1.96-6.93,4.29-8.27L148.87,74.28c.24-.14,1.82-.88,3.1-1.47,.25-.12,.55,0,.66,.24,.12,.25,0,.55-.24,.66-2.04,.94-2.9,1.35-3.01,1.43L10.15,155.52c-2.02,1.16-3.79,4.62-3.79,7.4v5.16c0,.28-.22,.5-.5,.5Z"/><path class="cls-2" d="M196.18,154.18v2.92c0,.81-.49,1.74-1.09,2.09l-2.5,1.45c-.08,.03-.16,.05-.23,.08-.45,.15-.74,.25-.74,.25v-4.89c0-.42,.22-.81,.58-1.03l2.6-1.57s0,0,.03-.01c.01-.01,.04-.03,.07-.04v.02l.19-.08c.21-.12,.4-.15,.55-.12,.33,.06,.54,.41,.54,.94Z"/><g><path class="cls-2" d="M53.04,237.74v-49.61l7.13-4.12v49.61l-7.13,4.12Zm1-49.04v47.3l5.13-2.96v-47.3l-5.13,2.96Zm5.63,44.63h0Z"/><path class="cls-2" d="M59.93,233.76v-49.61l7.13-4.12v49.61l-7.13,4.12Zm1-49.04v47.3l5.13-2.96v-47.3l-5.13,2.96Zm5.63,44.63h0Z"/><polygon class="cls-2" points="58.73 187.08 58.73 202.67 54.54 205.08 54.54 189.49 57.11 188.02 58.73 187.08"/><polygon class="cls-2" points="58.73 232.25 54.55 234.66 54.55 206.91 58.73 204.49 58.73 232.25"/><polygon class="cls-2" points="65.58 183.12 65.58 198.71 61.4 201.12 61.4 185.54 63.9 184.09 64.92 183.5 64.93 183.5 65.58 183.12"/><polygon class="cls-2" points="65.58 228.29 61.4 230.71 61.4 202.95 65.58 200.54 65.58 228.29"/><polygon class="cls-3" points="65.58 183.12 65.58 186.03 61.4 199.83 61.4 195.95 64.92 183.5 64.93 183.5 65.58 183.12"/><polygon class="cls-3" points="63.9 184.09 61.4 191.57 61.4 185.54 63.9 184.09"/><polygon class="cls-3" points="58.73 187.8 58.73 191.13 54.54 204.93 54.54 201.05 58.18 188.21 58.73 187.8"/><polygon class="cls-3" points="57.11 188.02 54.54 195.69 54.54 189.49 57.11 188.02"/><path class="cls-2" d="M52.19,240.09c-.28,0-.5-.22-.5-.5v-53.8c0-.31,.17-.6,.44-.76l15.27-8.81c.2-.12,.45-.12,.65,0,.2,.12,.33,.33,.33,.57v53.92c0,.28-.22,.5-.5,.5s-.5-.22-.5-.5v-53.32l-14.69,8.48v53.73c0,.28-.22,.5-.5,.5Zm15.71-63.01h0Z"/><path class="cls-2" d="M53.54,187.07c-.17,0-.34-.09-.43-.25-.14-.24-.06-.54,.18-.68l5.69-3.31c.24-.14,.54-.06,.68,.18,.14,.24,.06,.54-.18,.68l-5.69,3.31c-.08,.05-.17,.07-.25,.07Z"/><path class="cls-2" d="M60.92,182.88c-.17,0-.34-.09-.43-.25-.14-.24-.06-.54,.18-.68l5.64-3.27c.24-.14,.54-.06,.68,.18,.14,.24,.06,.54-.18,.68l-5.64,3.27c-.08,.05-.17,.07-.25,.07Z"/></g><g><path class="cls-2" d="M146.74,183.59v-49.61l7.13-4.12v49.61l-7.13,4.12Zm1-49.04v47.3l5.13-2.96v-47.3l-5.13,2.96Zm5.63,44.63h0Z"/><path class="cls-2" d="M153.63,179.61v-49.61l7.13-4.12v49.61l-7.13,4.12Zm1-49.04v47.3l5.13-2.96v-47.3l-5.13,2.96Zm5.63,44.63h0Z"/><polygon class="cls-2" points="152.43 132.93 152.43 148.52 148.24 150.93 148.24 135.35 150.81 133.87 152.43 132.93"/><polygon class="cls-2" points="152.43 178.1 148.25 180.52 148.25 152.76 152.43 150.35 152.43 178.1"/><polygon class="cls-2" points="159.28 128.98 159.28 144.56 155.1 146.98 155.1 131.39 157.6 129.95 158.62 129.35 158.63 129.35 159.28 128.98"/><polygon class="cls-2" points="159.28 174.14 155.1 176.56 155.1 148.8 159.28 146.39 159.28 174.14"/><polygon class="cls-3" points="159.28 128.98 159.28 131.88 155.1 145.68 155.1 141.8 158.62 129.35 158.63 129.35 159.28 128.98"/><polygon class="cls-3" points="157.6 129.95 155.1 137.42 155.1 131.39 157.6 129.95"/><polygon class="cls-3" points="152.43 133.65 152.43 136.98 148.24 150.78 148.24 146.9 151.88 134.06 152.43 133.65"/><polygon class="cls-3" points="150.81 133.87 148.24 141.55 148.24 135.35 150.81 133.87"/><path class="cls-2" d="M145.89,185.94c-.28,0-.5-.22-.5-.5v-53.8c0-.31,.17-.6,.44-.76l15.27-8.81c.2-.12,.45-.12,.65,0,.2,.12,.33,.33,.33,.57v53.92c0,.28-.22,.5-.5,.5s-.5-.22-.5-.5v-53.32l-14.69,8.48v53.73c0,.28-.22,.5-.5,.5Zm15.71-63.01h0Z"/><path class="cls-2" d="M147.24,132.92c-.17,0-.34-.09-.43-.25-.14-.24-.06-.54,.18-.68l5.69-3.31c.24-.14,.54-.06,.68,.18,.14,.24,.06,.54-.18,.68l-5.69,3.31c-.08,.05-.17,.07-.25,.07Z"/><path class="cls-2" d="M154.62,128.74c-.17,0-.34-.09-.43-.25-.14-.24-.06-.54,.18-.68l5.64-3.27c.24-.14,.54-.06,.68,.18,.14,.24,.06,.54-.18,.68l-5.64,3.27c-.08,.05-.17,.07-.25,.07Z"/></g><polygon class="cls-2" points="52.03 219.43 47.25 221.87 47.25 188.43 52.03 185.8 52.03 219.43"/><polygon class="cls-2" points="76.66 196.8 67.88 204.06 67.88 176.52 87.58 165.15 87.58 187.87 76.66 196.8"/><polygon class="cls-2" points="115.25 171.64 89.7 186.17 89.7 163.69 115.25 149.17 115.25 171.64"/><polygon class="cls-2" points="143.78 155.15 117.11 170.38 117.11 147.91 143.78 132.68 143.78 155.15"/><polygon class="cls-2" points="163.93 144.11 163.93 121.63 189.53 106.24 189.53 128.42 163.93 144.11"/><path class="cls-2" d="M93.96,215.85c-.17,0-.34-.09-.43-.25-.14-.24-.05-.54,.18-.68l72.81-41.86c.24-.14,.54-.06,.68,.18,.14,.24,.05,.54-.18,.68l-72.81,41.86c-.08,.04-.16,.07-.25,.07Z"/><path class="cls-2" d="M187.8,161.83c-.17,0-.33-.08-.42-.23-.15-.23-.08-.54,.16-.69l4.63-2.93c.23-.15,.54-.08,.69,.16,.15,.23,.08,.54-.16,.69l-4.63,2.93c-.08,.05-.18,.08-.27,.08Z"/><path class="cls-2" d="M161.81,156.83c-.17,0-.34-.09-.43-.25-.14-.24-.06-.54,.18-.68l33-18.99c.24-.14,.54-.06,.68,.18,.14,.24,.06,.54-.18,.68l-33,18.99c-.08,.04-.16,.07-.25,.07Z"/><path class="cls-2" d="M89.2,198.63c-.17,0-.34-.09-.43-.25-.14-.24-.06-.54,.18-.68l56.5-32.52c.24-.14,.54-.06,.68,.18,.14,.24,.06,.54-.18,.68l-56.5,32.52c-.08,.04-.16,.07-.25,.07Z"/><g><path class="cls-1" d="M38.84,202.73l-2.63-1.52c-.48-.27-.86-1.01-.86-1.65v-9.89c0-.63,.39-.93,.86-.65l2.63,1.52c.48,.27,.86,1.01,.86,1.65v9.89c0,.63-.39,.93-.86,.65Z"/><path class="cls-3" d="M37.95,191.51c.33,.53,.54,.46,.45,2.46-.04,1.44,.02,8.24,.02,8.24l-.23,.63h.91s.61-.03,.61-.75c0-1.36-.06-9.05-.06-9.05,0,0,.2-1.04-.15-1.7-.12-.54-.54-.61-.85-.44-.26,.15-.69,.62-.69,.62Z"/><path class="cls-2" d="M39.19,203.34c-.19,0-.4-.06-.59-.17l-2.63-1.52c-.63-.37-1.11-1.26-1.11-2.08v-9.89c0-.52,.2-.93,.55-1.13,.31-.18,.7-.16,1.06,.05l2.63,1.52c.63,.37,1.11,1.26,1.11,2.08v9.89c0,.52-.2,.93-.55,1.13-.14,.08-.3,.12-.47,.12Zm-.09-1.04s.08,.04,.09,.04c-.02,0,.02-.08,.02-.25v-9.89c0-.49-.32-1.05-.61-1.21l-2.63-1.52c-.08-.04-.11,.05-.11,.22v9.89c0,.49,.32,1.04,.61,1.21l2.63,1.52Z"/><path class="cls-1" d="M37.7,202.75l-2.2-1.27c-.4-.23-.72-.85-.72-1.38v-9.52c0-.53,.32-.77,.72-.54l2.2,1.27c.4,.23,.72,.85,.72,1.38v9.52c0,.53-.32,.77-.72,.54Z"/><path class="cls-2" d="M37.99,203.34c-.18,0-.36-.05-.54-.15l-2.2-1.27c-.55-.32-.97-1.1-.97-1.81v-9.52c0-.46,.18-.83,.5-1.01,.29-.17,.64-.15,.97,.04l2.2,1.27c.55,.32,.97,1.1,.97,1.81v9.52c0,.46-.18,.83-.5,1.02-.13,.08-.28,.12-.43,.12Zm-2.7-12.84s0,.05,0,.09v9.52c0,.38,.25,.82,.47,.94l2.16,1.25s0-.05,0-.09v-9.52c0-.38-.25-.82-.47-.94l-2.16-1.25Z"/><path class="cls-2" d="M34.99,190.53c-.09,0-.17-.02-.25-.07-.24-.14-.32-.45-.18-.68l.58-.99c.14-.24,.45-.32,.68-.18,.24,.14,.32,.45,.18,.68l-.58,.99c-.09,.16-.26,.25-.43,.25Z"/><path class="cls-2" d="M37.79,191.86c-.18,0-.35-.09-.44-.26-.13-.24-.05-.55,.2-.68l1.24-.68c.24-.14,.55-.05,.68,.2,.13,.24,.05,.55-.2,.68l-1.24,.68c-.08,.04-.16,.06-.24,.06Z"/><path class="cls-2" d="M38.55,193.43c-.18,0-.35-.09-.44-.26-.13-.24-.05-.55,.2-.68l1.09-.6c.24-.13,.55-.05,.68,.2,.13,.24,.05,.55-.2,.68l-1.09,.6c-.08,.04-.16,.06-.24,.06Z"/><path class="cls-2" d="M37.98,203.34c-.25,0-.47-.2-.5-.45-.03-.28,.18-.52,.45-.54l1.52-.14c.27-.03,.52,.18,.54,.45,.03,.28-.18,.52-.45,.54l-1.52,.14s-.03,0-.05,0Z"/><g><path class="cls-1" d="M41.7,184.33l-4.5,2.6-.39,.23c-.31,.18-.57,.67-.57,1.08v2.14l.62,.24,.34-2.15c0-.19,.12-.42,.26-.5l4.23-2.44v-1.2Z"/><path class="cls-3" d="M42.2,184.49l-4.5,2.6-.39,.23c-.31,.18-.57,.67-.57,1.08v2.14l.96-.55v-1.35c0-.19,.12-.42,.26-.5l4.23-2.44v-1.2Z"/><path class="cls-2" d="M36.83,191.12c-.05,0-.1,0-.15-.02l-.5-.16c-.21-.07-.35-.26-.35-.48v-2.14c0-.59,.35-1.25,.82-1.52l4.89-2.82c.12-.07,.27-.09,.4-.04l.5,.16c.26,.09,.41,.37,.32,.63-.08,.26-.37,.41-.63,.32l-.29-.09-4.7,2.71c-.14,.08-.32,.39-.32,.65v1.77l.15,.05c.26,.09,.41,.37,.32,.63-.07,.21-.26,.35-.48,.35Z"/><path class="cls-2" d="M36.83,191.12c-.09,0-.17-.02-.25-.07-.15-.09-.25-.25-.25-.43v-2.14c0-.6,.35-1.25,.82-1.52l4.89-2.82c.15-.09,.35-.09,.5,0,.15,.09,.25,.25,.25,.43v1.2c0,.18-.1,.34-.25,.43l-4.23,2.45v1.41c-.01,.18-.11,.34-.26,.43l-.96,.55c-.08,.04-.16,.07-.25,.07Zm4.96-5.68l-4.14,2.39c-.13,.08-.29,.34-.31,.58,.08-.26,.25-.5,.47-.63l3.98-2.34Z"/></g></g><g><path class="cls-1" d="M4.55,184.27l-2.63-1.52c-.48-.27-.86-1.01-.86-1.65v-9.89c0-.63,.39-.93,.86-.65l2.63,1.52c.48,.27,.86,1.01,.86,1.65v9.89c0,.63-.39,.93-.86,.65Z"/><path class="cls-3" d="M3.67,173.05c.33,.53,.54,.46,.45,2.46-.04,1.44,.02,8.24,.02,8.24l-.23,.63h.91s.61-.03,.61-.75c0-1.36-.06-9.05-.06-9.05,0,0,.2-1.04-.15-1.7-.12-.54-.54-.61-.85-.44-.26,.15-.69,.62-.69,.62Z"/><path class="cls-2" d="M4.9,184.88c-.19,0-.4-.06-.59-.17l-2.63-1.52c-.63-.37-1.11-1.26-1.11-2.08v-9.89c0-.52,.2-.93,.55-1.13,.31-.18,.7-.16,1.06,.05l2.63,1.52c.63,.37,1.11,1.26,1.11,2.08v9.89c0,.52-.2,.93-.55,1.13-.14,.08-.3,.12-.47,.12Zm-.09-1.04s.08,.04,.09,.04c-.02,0,.02-.08,.02-.25v-9.89c0-.49-.32-1.05-.61-1.21l-2.63-1.52c-.07-.04-.11,.05-.11,.22v9.89c0,.49,.32,1.05,.61,1.21l2.63,1.52Z"/><path class="cls-1" d="M3.41,184.29l-2.2-1.27c-.4-.23-.72-.85-.72-1.38v-9.52c0-.53,.32-.77,.72-.54l2.2,1.27c.4,.23,.72,.85,.72,1.38v9.52c0,.53-.32,.77-.72,.54Z"/><path class="cls-2" d="M3.71,184.88c-.18,0-.36-.05-.54-.15l-2.2-1.27c-.55-.32-.97-1.1-.97-1.81v-9.52c0-.46,.18-.83,.5-1.01,.29-.17,.64-.15,.97,.04l2.2,1.27c.55,.32,.97,1.1,.97,1.81v9.52c0,.46-.18,.83-.5,1.01-.13,.08-.28,.12-.43,.12Zm-2.7-12.84s0,.05,0,.09v9.52c0,.38,.25,.82,.47,.94l2.16,1.25s0-.05,0-.09v-9.52c0-.38-.25-.82-.47-.94l-2.16-1.25Z"/><path class="cls-2" d="M.7,172.07c-.09,0-.17-.02-.25-.07-.24-.14-.32-.45-.18-.68l.58-.99c.14-.24,.45-.32,.68-.18,.24,.14,.32,.45,.18,.68l-.58,.99c-.09,.16-.26,.25-.43,.25Z"/><path class="cls-2" d="M3.5,173.4c-.18,0-.35-.09-.44-.26-.13-.24-.05-.55,.2-.68l1.24-.68c.24-.13,.55-.05,.68,.2,.13,.24,.05,.55-.2,.68l-1.24,.68c-.08,.04-.16,.06-.24,.06Z"/><path class="cls-2" d="M4.27,174.97c-.18,0-.35-.09-.44-.26-.13-.24-.05-.55,.2-.68l1.09-.6c.24-.14,.54-.05,.68,.2,.13,.24,.05,.55-.2,.68l-1.09,.6c-.08,.04-.16,.06-.24,.06Z"/><path class="cls-2" d="M3.7,184.88c-.25,0-.47-.2-.5-.46-.02-.27,.18-.52,.45-.54l1.52-.14c.25-.01,.52,.18,.54,.45,.02,.27-.18,.52-.45,.54l-1.52,.14s-.03,0-.05,0Z"/><g><path class="cls-1" d="M7.42,165.87l-4.5,2.6-.39,.23c-.31,.18-.57,.67-.57,1.08v2.14l.62,.24,.34-2.15c0-.19,.12-.42,.26-.5l4.23-2.44v-1.2Z"/><path class="cls-3" d="M7.91,166.03l-4.5,2.6-.39,.23c-.31,.18-.57,.67-.57,1.08v2.14l.96-.55v-1.35c0-.19,.12-.42,.26-.5l4.23-2.44v-1.2Z"/><path class="cls-2" d="M2.55,172.66c-.05,0-.1,0-.15-.02l-.5-.16c-.21-.07-.35-.26-.35-.48v-2.14c0-.6,.35-1.25,.82-1.52l4.89-2.82c.12-.07,.27-.09,.4-.04l.5,.16c.26,.09,.41,.37,.32,.63-.09,.26-.37,.41-.63,.32l-.29-.09-4.69,2.71c-.14,.08-.32,.39-.32,.65v1.77l.15,.05c.26,.09,.41,.37,.32,.63-.07,.21-.26,.35-.48,.35Z"/><path class="cls-2" d="M2.55,172.66c-.09,0-.17-.02-.25-.07-.15-.09-.25-.25-.25-.43v-2.14c0-.6,.35-1.25,.82-1.52l4.89-2.82c.15-.09,.35-.09,.5,0,.15,.09,.25,.25,.25,.43v1.2c0,.18-.1,.34-.25,.43l-4.23,2.44v1.41c-.01,.18-.11,.34-.26,.43l-.96,.55c-.08,.04-.16,.07-.25,.07Zm4.96-5.68l-4.14,2.39c-.13,.08-.29,.34-.31,.58,.08-.27,.25-.5,.47-.63l3.98-2.34Z"/></g></g><path class="cls-2" d="M24.69,228.97c-.16,0-.32-.04-.47-.13l-4.24-2.45c-.43-.25-.7-.72-.7-1.22v-1.98c0-.34,.18-.65,.48-.82,.3-.17,.65-.17,.95,0l4.05,2.34c.53,.31,.86,.88,.86,1.5v1.83c0,.34-.17,.64-.47,.81-.15,.08-.31,.13-.46,.13Zm.03-.99h0Zm-4.52-4.73l.08,1.94c0,.14,.08,.28,.2,.35l4.17,2.41-.03-1.73c0-.26-.14-.5-.36-.63l-4.05-2.34Z"/><path class="cls-2" d="M24.96,228.85c-.14,0-.27-.04-.4-.11l.5-.87c-.09-.05-.23,0-.26,.04,0-.01,.02-.05,.02-.1v-1.83c0-.26-.14-.5-.36-.63l-4.05-2.34-.92-.04c0-.34,.18-.65,.47-.82,.3-.17,.65-.17,.95,0l4.05,2.34c.53,.31,.86,.88,.86,1.5v1.83c0,.4-.19,.77-.48,.94-.12,.07-.25,.1-.38,.1Z"/><g><path class="cls-3" d="M36.96,229.59l-3.6-2.08c-.24-.14-.43-.51-.43-.82h0c0-.94,.33-1.64,.89-1.88l.35-.16c.72-.32,1.61-.21,2.52,.32l4.82,2.78c.23,.13,.42,.49,.42,.8v.39c0,.78-.34,1.29-.87,1.32l-1.49,.06c-.82,.04-1.71-.22-2.61-.74Z"/><ellipse class="cls-1" cx="37.21" cy="226.86" rx=".88" ry="1.55" transform="translate(-85.86 32.68) rotate(-23.05)"/><path class="cls-2" d="M39.42,230.8c-.87,0-1.77-.27-2.7-.81l-3.6-2.08c-.4-.23-.68-.76-.68-1.26,0-1.15,.43-2.01,1.19-2.34l.35-.16c.87-.38,1.92-.26,2.97,.34l4.82,2.78c.39,.23,.67,.75,.67,1.24v.39c0,1.05-.54,1.78-1.35,1.82l-1.49,.07c-.06,0-.12,0-.18,0Zm-4.38-5.86c-.24,0-.46,.04-.67,.13l-.35,.16c-.36,.16-.59,.71-.59,1.42,0,.17,.12,.36,.18,.39l3.6,2.08c.81,.47,1.62,.7,2.34,.67l1.49-.06c.27-.01,.39-.42,.39-.82v-.39c0-.16-.11-.34-.17-.37l-4.82-2.78c-.49-.28-.97-.43-1.4-.43Z"/><path class="cls-2" d="M38.93,229.76c-.64,0-1.33-.2-2.03-.61l-2.63-1.52c-.24-.14-.32-.44-.18-.68,.14-.24,.44-.32,.68-.18l2.63,1.52c.57,.33,1.12,.49,1.63,.47l1.95-.02c.27-.03,.5,.22,.5,.5,0,.28-.22,.5-.5,.5l-1.93,.02s-.08,0-.13,0Z"/><path class="cls-2" d="M37.55,230.22c-.29,0-.6-.09-.91-.27-1.06-.61-1.9-2.19-1.9-3.58,0-.82,.3-1.47,.82-1.77,.46-.27,1.02-.24,1.58,.09,1.06,.61,1.9,2.19,1.9,3.58,0,.82-.3,1.47-.82,1.77-.21,.12-.43,.18-.67,.18Zm-1.31-4.79c-.06,0-.12,.01-.17,.04-.2,.11-.32,.46-.32,.9,0,1.03,.64,2.28,1.4,2.71,.14,.08,.4,.19,.58,.09,.2-.11,.32-.46,.32-.9,0-1.03-.64-2.28-1.4-2.71-.1-.06-.25-.13-.4-.13Z"/><path class="cls-2" d="M38.07,229.95c-.27,0-.56-.08-.84-.25-.98-.56-1.74-2-1.74-3.28,0-.61,.17-1.11,.5-1.43,.24-.24,.55-.37,.9-.37h0c.28,0,.5,.23,.5,.5,0,.28-.22,.5-.5,.5h0c-.08,0-.14,.02-.19,.08-.13,.13-.21,.39-.21,.73,0,.92,.57,2.02,1.24,2.41,.15,.09,.29,.12,.4,.11,.27-.05,.53,.13,.58,.4s-.13,.53-.4,.58c-.08,.01-.16,.02-.24,.02Z"/><path class="cls-2" d="M40.44,230.3c-.2,0-.4-.06-.6-.17-.64-.37-1.13-1.28-1.13-2.11,0-.52,.2-.94,.55-1.14,.32-.18,.71-.17,1.08,.05,.64,.37,1.13,1.28,1.13,2.11,0,.52-.2,.94-.55,1.14-.15,.08-.31,.13-.47,.13Zm-.7-2.55h0s-.03,.09-.03,.27c0,.5,.33,1.07,.63,1.25,.05,.03,.09,.04,.1,.04h0s.03-.09,.03-.27c0-.5-.33-1.07-.63-1.25-.05-.03-.09-.04-.1-.04Z"/><path class="cls-2" d="M40.72,230.07c-.18,0-.37-.05-.55-.16-.58-.33-1.01-1.14-1.01-1.88,0-.38,.11-.69,.33-.9,.17-.17,.39-.26,.63-.26h0c.28,0,.5,.23,.5,.5,0,.26-.2,.47-.45,.5,0,.02,0,.07,0,.17,0,.41,.27,.88,.51,1.02,.26-.06,.55,.14,.6,.41,.05,.27-.11,.55-.38,.6-.06,.01-.11,.02-.17,.02Z"/><path class="cls-2" d="M41.93,229.52c-.28,0-.5-.22-.5-.5v-.77l-.47-.27c-.24-.14-.32-.44-.18-.68,.14-.24,.45-.32,.68-.18l.97,.56v1.35c0,.28-.22,.5-.5,.5Z"/></g><g><path class="cls-3" d="M11.5,214.8l3.21,1.85c.21,.12,.38,0,.38-.29h0c0-.84-.29-1.79-.79-2.59l-.31-.5c-.65-1.03-1.43-1.84-2.25-2.31l-4.29-2.48c-.21-.12-.37,0-.37,.28v.35c0,.69,.3,1.5,.77,2.07l1.33,1.59c.73,.87,1.52,1.56,2.32,2.03Z"/><ellipse class="cls-1" cx="11.28" cy="212.1" rx=".78" ry="1.38" transform="translate(-82.15 21.35) rotate(-23.05)"/><path class="cls-2" d="M14.86,217.16c-.13,0-.27-.04-.4-.11l-3.21-1.85c-.86-.5-1.69-1.21-2.46-2.14l-1.33-1.59c-.55-.66-.89-1.57-.89-2.39v-.35c0-.33,.14-.6,.38-.74,.22-.13,.5-.12,.75,.02l4.29,2.48c.89,.51,1.73,1.37,2.42,2.48l.31,.5c.55,.88,.87,1.92,.87,2.86,0,.33-.14,.6-.38,.74-.11,.06-.23,.09-.35,.09Zm.1-.98h0Zm-7.38-7.09c0,.58,.26,1.26,.66,1.73l1.33,1.59c.68,.82,1.44,1.48,2.19,1.91h0l2.82,1.63c-.07-.66-.32-1.36-.69-1.96l-.31-.5c-.6-.96-1.34-1.72-2.07-2.14l-3.91-2.26Z"/><path class="cls-2" d="M13.68,215.68c-.08,0-.17-.02-.25-.07l-2.34-1.35c-.64-.37-1.26-.91-1.83-1.59l-1.71-1.99c-.18-.21-.16-.53,.05-.71,.21-.18,.53-.16,.71,.05l1.72,2c.5,.59,1.04,1.07,1.57,1.37l2.34,1.35c.24,.14,.32,.44,.18,.68-.09,.16-.26,.25-.43,.25Z"/><path class="cls-2" d="M12.15,215.48c-.27,0-.55-.08-.83-.25-.96-.55-1.72-1.98-1.72-3.24,0-.75,.28-1.34,.76-1.62,.43-.25,.94-.22,1.46,.08,.96,.56,1.72,1.98,1.72,3.24,0,.75-.28,1.34-.76,1.62-.19,.11-.4,.17-.63,.17Zm-1.17-4.27s-.09,0-.13,.03c-.12,.07-.26,.31-.26,.75,0,.9,.56,1.99,1.22,2.37,.11,.06,.32,.16,.46,.08,.12-.07,.26-.31,.26-.75,0-.9-.56-1.99-1.22-2.37-.08-.05-.21-.11-.33-.11Z"/><path class="cls-2" d="M11.57,214.63c-.25,0-.52-.08-.78-.23-.29-.17-.57-.43-.81-.75-.16-.22-.12-.54,.1-.7,.22-.16,.53-.12,.7,.1,.16,.21,.33,.38,.51,.48,.07,.04,.26,.13,.37,.07,.1-.06,.21-.26,.21-.64,0-.58-.27-1.29-.68-1.76-.18-.21-.16-.52,.05-.71,.21-.18,.52-.16,.71,.05,.57,.66,.92,1.58,.92,2.42,0,.7-.26,1.25-.71,1.5-.18,.11-.38,.16-.59,.16Z"/><path class="cls-2" d="M9.02,212.26c-.18,0-.38-.05-.56-.16-.59-.34-1.03-1.17-1.03-1.93,0-.49,.19-.87,.52-1.07,.3-.17,.67-.16,1.01,.04,.59,.34,1.03,1.17,1.03,1.93,0,.49-.19,.88-.52,1.07-.14,.08-.29,.12-.45,.12Zm-.56-2.27s-.03,.06-.03,.18c0,.43,.28,.92,.53,1.06,0,.05,.03,0,.03-.16,0-.43-.28-.92-.53-1.06,0-.01,0-.02,0-.02Z"/><path class="cls-2" d="M8.69,211.72c-.17,0-.35-.05-.52-.15-.18-.1-.34-.25-.49-.45-.17-.22-.12-.53,.1-.7,.22-.16,.53-.12,.7,.1,.04,.05,.07,.09,.11,.12v-.02c0-.24-.12-.54-.29-.74-.18-.21-.16-.52,.05-.71,.21-.18,.52-.16,.71,.05,.33,.38,.53,.91,.53,1.39,0,.45-.18,.8-.48,.98-.13,.08-.27,.11-.42,.11Z"/><path class="cls-2" d="M7.08,209.67c-.28,0-.5-.22-.5-.5v-1.81l1.39,.81c.24,.14,.32,.44,.18,.68-.12,.21-.36,.29-.58,.23v.09c0,.28-.22,.5-.5,.5Z"/></g><path class="cls-2" d="M45.38,230.04c-.58,0-1.16-.15-1.67-.44l-2.56-1.47c-.24-.14-.32-.44-.18-.68,.14-.24,.44-.32,.68-.18l2.56,1.47c.71,.41,1.6,.42,2.32,.02l2.43-1.35v-6.42c0-.28,.22-.5,.5-.5s.5,.22,.5,.5v7l-2.95,1.64c-.5,.28-1.07,.42-1.63,.42Z"/><path class="cls-2" d="M9.32,210.06c-.09,0-.17-.02-.25-.07l-5.14-2.98c-.24-.14-.32-.44-.18-.68,.14-.24,.45-.32,.68-.18l5.14,2.98c.24,.14,.32,.44,.18,.68-.09,.16-.26,.25-.43,.25Z"/><path class="cls-2" d="M35.17,229.03c-.09,0-.17-.02-.25-.07l-21.72-12.64c-.24-.14-.32-.45-.18-.68,.14-.24,.45-.32,.68-.18l21.72,12.64c.24,.14,.32,.45,.18,.68-.09,.16-.26,.25-.43,.25Z"/><path class="cls-2" d="M31.43,225.35c-.09,0-.17-.02-.25-.07l-14.84-8.64c-.24-.14-.32-.45-.18-.68,.14-.24,.45-.32,.68-.18l14.84,8.64c.24,.14,.32,.45,.18,.68-.09,.16-.26,.25-.43,.25Z"/><g><path class="cls-2" d="M39.77,237.18c-.24,0-.49-.07-.74-.21-.83-.48-1.48-1.7-1.48-2.78,0-.66,.25-1.18,.67-1.43,.38-.22,.85-.2,1.3,.07,.83,.48,1.48,1.7,1.48,2.78,0,.66-.25,1.18-.67,1.43-.17,.1-.36,.15-.56,.15Zm-.98-3.57s-.05,0-.07,.02c-.07,.04-.17,.2-.17,.56,0,.72,.46,1.61,.98,1.91,.13,.08,.24,.1,.3,.07,.09-.05,.17-.24,.17-.56,0-.72-.46-1.61-.98-1.91-.09-.05-.17-.08-.24-.08Z"/><path class="cls-2" d="M40.33,236.75c-.22,0-.45-.07-.67-.19-.73-.42-1.3-1.49-1.3-2.44,0-.53,.18-.96,.49-1.2,.22-.17,.53-.13,.7,.09,.17,.22,.13,.53-.09,.7-.04,.03-.11,.15-.11,.42,0,.59,.38,1.33,.8,1.58,.1,.06,.16,.06,.18,.06,.26-.02,.51,.19,.53,.46,.02,.28-.19,.51-.46,.53-.03,0-.05,0-.08,0Z"/></g><g><path class="cls-2" d="M9.42,219.69c-.24,0-.49-.07-.74-.21-.83-.48-1.48-1.7-1.48-2.78,0-.66,.25-1.18,.67-1.43,.38-.22,.85-.2,1.3,.07,.83,.48,1.48,1.7,1.48,2.78,0,.66-.25,1.18-.67,1.43-.17,.1-.36,.15-.56,.15Zm-.98-3.57s-.05,0-.07,.02c-.07,.04-.17,.2-.17,.56,0,.72,.46,1.61,.98,1.91,.13,.08,.24,.1,.3,.06,.09-.05,.17-.24,.17-.56,0-.72-.46-1.61-.98-1.91-.09-.05-.17-.08-.24-.08Z"/><path class="cls-2" d="M9.99,219.27c-.22,0-.45-.07-.67-.19-.73-.42-1.3-1.5-1.3-2.44,0-.53,.18-.96,.49-1.2,.22-.17,.53-.13,.7,.09,.17,.22,.13,.53-.09,.7-.04,.03-.11,.15-.11,.42,0,.59,.38,1.33,.8,1.58,.1,.06,.17,.06,.18,.06,.26-.02,.51,.19,.53,.46,.02,.28-.19,.51-.46,.53-.03,0-.05,0-.08,0Z"/></g><path class="cls-2" d="M31.21,215.39l-.26,.69c-.15,.4-.63,.57-1,.36l-14.08-8.13-.55-2.1,15.9,9.18Z"/><path class="cls-2" d="M45.5,223.18c-.56,0-1.11-.15-1.61-.43l-10.92-6.3c-.15-.08-.32-.1-.48-.04-.16,.06-.28,.18-.34,.34-.2,.52-.62,.93-1.14,1.12-.53,.19-1.11,.13-1.59-.15l-14.28-8.25c-1.13-.65-1.96-1.75-2.3-3-.32-1.23-1.14-2.29-2.24-2.93l-6.71-3.71c-.24-.13-.33-.44-.2-.68,.13-.24,.44-.33,.68-.2l6.72,3.72c1.34,.77,2.32,2.06,2.71,3.54,.26,1,.93,1.88,1.83,2.4l14.28,8.25c.23,.13,.5,.16,.75,.07,.25-.09,.45-.28,.54-.53,.16-.43,.51-.77,.94-.92,.43-.15,.91-.11,1.31,.12l10.92,6.3c.66,.38,1.45,.4,2.13,.05l5.44-2.8c.25-.13,.55-.03,.67,.22,.13,.25,.03,.55-.22,.67l-5.44,2.8c-.47,.24-.97,.36-1.48,.36Z"/><path class="cls-2" d="M67.38,205.12v-28.9l.25-.14,20.45-11.8v23.83l-.18,.15-20.51,16.87Zm1-28.32v26.2l18.7-15.37v-21.62l-18.7,10.79Z"/><g><path class="cls-2" d="M41.94,226.54c-.12,0-.25-.03-.37-.1l-2.88-1.66c-.32-.19-.56-.61-.56-1.02v-.58c0-.3,.13-.55,.36-.68,.21-.12,.47-.12,.7,.02l2.88,1.66c.32,.19,.56,.61,.56,1.02v.58c0,.3-.13,.55-.36,.68-.1,.06-.21,.09-.33,.09Zm.13-.97h0Zm-2.94-1.94v.12c0,.05,.04,.14,.07,.16l2.42,1.4v-.12c0-.05-.04-.14-.07-.16l-2.42-1.4Z"/><path class="cls-2" d="M41.68,226.24l-2.58-1.49c-.32-.19-.56-.61-.56-1.02v-.58h1v.58c0,.05,.04,.14,.07,.16l2.57,1.48-.5,.87Z"/></g><g><path class="cls-2" d="M10.66,209.04c-.12,0-.25-.03-.37-.1l-2.88-1.66c-.32-.19-.56-.61-.56-1.02v-.58c0-.3,.13-.55,.36-.68,.21-.12,.47-.12,.7,.02l2.88,1.66c.32,.19,.56,.61,.56,1.02v.58c0,.3-.13,.55-.36,.68-.1,.06-.21,.09-.33,.09Zm-2.81-2.91v.12c0,.05,.04,.14,.07,.16l2.42,1.4v-.12c0-.05-.04-.14-.07-.16l-2.42-1.4Z"/><path class="cls-2" d="M10.4,208.73l-2.58-1.49c-.32-.19-.56-.61-.56-1.02v-.58h1v.58c0,.05,.04,.14,.07,.16l2.57,1.48-.5,.87Z"/></g><path class="cls-2" d="M208.16,87.24c-.08,0-.17-.02-.24-.06l-38.32-21.48c-.24-.14-.33-.44-.19-.68,.13-.24,.44-.33,.68-.19l38.32,21.48c.24,.14,.33,.44,.19,.68-.09,.16-.26,.26-.44,.26Z"/><g><path class="cls-2" d="M203.79,87.44c-.08,0-.17-.02-.24-.06l-34.36-19.27c-.24-.14-.33-.44-.19-.68,.13-.24,.44-.33,.68-.19l34.36,19.27c.24,.14,.33,.44,.19,.68-.09,.16-.26,.26-.44,.26Z"/><path class="cls-2" d="M201.76,88.61c-.08,0-.17-.02-.24-.06l-34.36-19.26c-.24-.14-.33-.44-.19-.68,.13-.24,.44-.33,.68-.19l34.36,19.26c.24,.14,.33,.44,.19,.68-.09,.16-.26,.26-.44,.26Z"/><path class="cls-2" d="M199.73,89.78c-.08,0-.17-.02-.24-.06l-34.36-19.26c-.24-.14-.33-.44-.19-.68,.13-.24,.44-.33,.68-.19l34.36,19.26c.24,.14,.33,.44,.19,.68-.09,.16-.26,.26-.44,.26Z"/><path class="cls-2" d="M197.71,90.95c-.08,0-.17-.02-.24-.06l-34.36-19.26c-.24-.14-.33-.44-.19-.68,.13-.24,.44-.33,.68-.19l34.36,19.26c.24,.14,.33,.44,.19,.68-.09,.16-.26,.26-.44,.26Z"/><path class="cls-2" d="M195.68,92.12c-.08,0-.17-.02-.24-.06l-34.36-19.26c-.24-.14-.33-.44-.19-.68,.13-.24,.44-.33,.68-.19l34.36,19.26c.24,.14,.33,.44,.19,.68-.09,.16-.26,.26-.44,.26Z"/><path class="cls-2" d="M193.66,93.29c-.08,0-.17-.02-.24-.06l-34.36-19.26c-.24-.14-.33-.44-.19-.68,.13-.24,.44-.33,.68-.19l34.36,19.26c.24,.14,.33,.44,.19,.68-.09,.16-.26,.26-.44,.26Z"/><path class="cls-2" d="M191.63,94.46c-.08,0-.17-.02-.24-.06l-34.36-19.27c-.24-.14-.33-.44-.19-.68,.13-.24,.44-.33,.68-.19l34.36,19.27c.24,.14,.33,.44,.19,.68-.09,.16-.26,.26-.44,.26Z"/></g><g><path class="cls-3" d="M38.51,148.98l.07-.59,1.23-.67,15.29,8.83,.16,.1s.99-.24,1.1,0,.19,1.17-.3,1.55c-.6,.4-1.42,.1-1.69-.05l-15.87-9.16Z"/><path class="cls-2" d="M55.24,160.17c-.25,0-.5-.06-.7-.17l-16.29-9.4c-.42-.24-.49-.75-.42-1.12,.05-.27,.31-.44,.59-.4,.27,.05,.45,.32,.4,.59,0,.04,0,.11,0,.13l16.22,9.33c.09,.05,.36,.05,.52-.04l11.13-6.41c.24-.14,.54-.06,.68,.18,.14,.24,.06,.54-.18,.68l-11.13,6.41c-.25,.14-.54,.21-.82,.21Z"/><path class="cls-2" d="M55.24,158.99c-.25,0-.5-.06-.7-.17l-16.29-9.4c-.27-.16-.43-.41-.43-.69,0-.3,.18-.58,.5-.77l1.13-.65c.24-.14,.54-.06,.68,.18,.14,.24,.06,.54-.18,.68l-.92,.53,16.01,9.24c.09,.05,.36,.05,.52-.04l10.67-6.16-16.01-9.24c-.24-.14-.32-.44-.18-.68,.14-.24,.44-.32,.68-.18l16.29,9.4c.27,.16,.43,.41,.43,.69,0,.3-.18,.58-.5,.77l-10.88,6.28c-.24,.14-.54,.21-.82,.21Zm11.27-7.08h0Z"/><path class="cls-2" d="M55.55,157.15c-.25,0-.5-.06-.69-.17h0l-16.29-9.4c-.27-.16-.43-.41-.43-.69,0-.3,.18-.58,.5-.77l9.09-5.37c.46-.26,1.11-.28,1.52-.05l16.29,9.4c.27,.16,.43,.41,.43,.69,0,.3-.18,.58-.5,.77l-9.09,5.37c-.25,.14-.54,.21-.83,.21Zm-.19-1.04c.09,.05,.35,.05,.52-.04l8.89-5.26-16.01-9.25c-.09-.05-.36-.05-.52,.04l-8.89,5.26,16.01,9.25Z"/><path class="cls-2" d="M55.27,160.17c-.28,0-.5-.22-.5-.5v-1.18c0-.28,.22-.5,.5-.5s.5,.22,.5,.5v1.18c0,.28-.22,.5-.5,.5Z"/><path class="cls-2" d="M38.33,150.42c-.28,0-.5-.22-.5-.5v-1.08c0-.28,.22-.5,.5-.5s.5,.22,.5,.5v1.08c0,.28-.22,.5-.5,.5Z"/><path class="cls-2" d="M56.49,158.44s-.02,0-.03,0c-.28-.02-.48-.24-.47-.52,.02-.24,.04-.65,.01-.86-.02,0-.05,.02-.08,.04-.25,.12-.55,.02-.67-.22-.12-.25-.02-.55,.22-.67,.43-.22,.8-.23,1.09-.03,.52,.34,.47,1.11,.42,1.79-.02,.26-.24,.48-.5,.48Z"/><path class="cls-2" d="M66.93,153.35c-.28,0-.5-.22-.5-.5v-1.18c0-.28,.22-.5,.5-.5s.5,.22,.5,.5v1.18c0,.28-.22,.5-.5,.5Z"/></g><g><path class="cls-3" d="M88.35,121.61l.07-.59,1.23-.67,15.29,8.83,.16,.1s.99-.24,1.1,0,.19,1.17-.3,1.55c-.6,.4-1.42,.1-1.69-.05l-15.87-9.16Z"/><path class="cls-2" d="M105.09,132.8c-.25,0-.5-.06-.7-.17l-16.29-9.4c-.42-.24-.49-.75-.42-1.12,.05-.27,.32-.44,.59-.4,.27,.05,.45,.32,.4,.59,0,.04,0,.11,0,.13l16.22,9.33c.09,.05,.35,.05,.52-.04l11.13-6.41c.24-.14,.54-.06,.68,.18,.14,.24,.06,.54-.18,.68l-11.13,6.41c-.24,.14-.54,.21-.82,.21Z"/><path class="cls-2" d="M105.09,131.62c-.25,0-.5-.06-.7-.17l-16.29-9.4c-.27-.16-.43-.41-.43-.69,0-.3,.18-.58,.5-.77l1.13-.65c.24-.14,.54-.06,.68,.18,.14,.24,.06,.54-.18,.68l-.92,.53,16.01,9.24c.09,.05,.35,.06,.52-.04l10.67-6.16-16.01-9.24c-.24-.14-.32-.44-.18-.68,.14-.24,.44-.32,.68-.18l16.29,9.4c.27,.16,.43,.41,.43,.69,0,.3-.18,.58-.5,.77l-10.88,6.28c-.25,.14-.54,.21-.82,.21Zm11.27-7.08h0Z"/><path class="cls-2" d="M105.39,129.78c-.25,0-.5-.06-.7-.17l-16.29-9.4c-.27-.16-.43-.41-.43-.69,0-.3,.18-.58,.5-.77l9.09-5.37c.47-.27,1.11-.29,1.52-.04l16.29,9.4c.27,.16,.43,.41,.43,.69,0,.3-.18,.58-.5,.77l-9.09,5.37c-.25,.14-.54,.21-.83,.21Zm-16.21-10.28l16.01,9.25c.09,.05,.36,.05,.52-.04l8.89-5.26-16.01-9.25c-.09-.05-.35-.05-.52,.04l-8.89,5.25Z"/><path class="cls-2" d="M105.11,132.8c-.28,0-.5-.22-.5-.5v-1.18c0-.28,.22-.5,.5-.5s.5,.22,.5,.5v1.18c0,.28-.22,.5-.5,.5Z"/><path class="cls-2" d="M88.18,123.05c-.28,0-.5-.22-.5-.5v-1.08c0-.28,.22-.5,.5-.5s.5,.22,.5,.5v1.08c0,.28-.22,.5-.5,.5Z"/><path class="cls-2" d="M106.34,131.07s-.02,0-.03,0c-.28-.02-.48-.25-.47-.52,.02-.23,.04-.65,.01-.86-.02,0-.05,.02-.08,.04-.25,.12-.55,.02-.67-.22-.12-.25-.02-.55,.22-.67,.43-.22,.8-.23,1.09-.03,.52,.35,.47,1.12,.42,1.8-.02,.26-.24,.48-.5,.48Z"/><path class="cls-2" d="M116.77,125.97c-.28,0-.5-.22-.5-.5v-1.18c0-.28,.22-.5,.5-.5s.5,.22,.5,.5v1.18c0,.28-.22,.5-.5,.5Z"/></g><g><path class="cls-3" d="M137.91,93.61l.07-.59,1.23-.67,15.29,8.83,.16,.1s.99-.24,1.1,0,.19,1.17-.3,1.55c-.6,.4-1.42,.1-1.69-.05l-15.87-9.16Z"/><path class="cls-2" d="M154.64,104.8c-.25,0-.5-.06-.7-.17l-16.29-9.4c-.42-.24-.49-.75-.42-1.12,.05-.27,.32-.45,.59-.4,.27,.05,.45,.32,.4,.59,0,.04,0,.11,0,.13l16.22,9.33c.09,.05,.35,.06,.52-.04l11.13-6.41c.24-.14,.54-.06,.68,.18,.14,.24,.06,.54-.18,.68l-11.13,6.41c-.25,.14-.54,.21-.82,.21Z"/><path class="cls-2" d="M154.64,103.62c-.25,0-.5-.06-.7-.17l-16.29-9.4c-.27-.16-.43-.41-.43-.69,0-.3,.18-.58,.5-.77l1.13-.65c.24-.14,.54-.06,.68,.18,.14,.24,.06,.54-.18,.68l-.92,.53,16.01,9.24c.09,.05,.35,.06,.52-.04l10.67-6.16-16.01-9.24c-.24-.14-.32-.44-.18-.68,.14-.24,.45-.32,.68-.18l16.29,9.4c.27,.16,.43,.41,.43,.69,0,.3-.18,.58-.5,.77l-10.88,6.28c-.25,.14-.54,.21-.82,.21Zm11.28-7.08h0Z"/><path class="cls-2" d="M154.95,101.78c-.25,0-.5-.06-.7-.17h0l-16.29-9.4c-.27-.16-.43-.41-.43-.69,0-.3,.18-.58,.5-.77l9.09-5.37c.47-.27,1.1-.29,1.52-.04l16.29,9.4c.27,.16,.43,.41,.43,.69,0,.3-.18,.58-.5,.77l-9.09,5.37c-.25,.14-.54,.21-.83,.21Zm-.2-1.04c.09,.05,.36,.05,.52-.04l8.89-5.26-16.01-9.25c-.09-.05-.35-.05-.52,.04l-8.89,5.26,16.01,9.25Z"/><path class="cls-2" d="M154.66,104.8c-.28,0-.5-.22-.5-.5v-1.18c0-.28,.22-.5,.5-.5s.5,.22,.5,.5v1.18c0,.28-.22,.5-.5,.5Z"/><path class="cls-2" d="M137.73,95.05c-.28,0-.5-.22-.5-.5v-1.08c0-.28,.22-.5,.5-.5s.5,.22,.5,.5v1.08c0,.28-.22,.5-.5,.5Z"/><path class="cls-2" d="M155.89,103.08s-.02,0-.03,0c-.28-.02-.48-.25-.47-.52,.02-.23,.04-.65,.01-.86-.02,0-.05,.02-.08,.04-.25,.12-.55,.03-.67-.22-.12-.25-.02-.55,.22-.67,.43-.22,.8-.23,1.09-.03,.52,.35,.47,1.12,.42,1.8-.02,.26-.24,.48-.5,.48Z"/><path class="cls-2" d="M166.33,97.98c-.28,0-.5-.22-.5-.5v-1.18c0-.28,.22-.5,.5-.5s.5,.22,.5,.5v1.18c0,.28-.22,.5-.5,.5Z"/></g><g><path class="cls-3" d="M25.51,151.41c-.67-.53-.84,.42-.35,.96s2.16,1.4,5.29,.95c3.13-.45,4.05-1.34,4.43-2.13s-.04-1.01-.69-.38-2.86,1.82-4.7,1.56-3.98-.97-3.98-.97Z"/><path class="cls-2" d="M29.24,152.89c-1.31,0-2.56-.27-3.51-.82-1-.58-1.55-1.4-1.55-2.31,0-1.07,.76-2.11,2.08-2.88,2.39-1.38,5.9-1.52,7.99-.31,1,.58,1.55,1.4,1.55,2.31,0,1.06-.76,2.11-2.08,2.88-1.3,.75-2.93,1.13-4.48,1.13Zm1.51-6.14c-1.38,0-2.85,.34-3.99,1-1.01,.58-1.58,1.31-1.58,2.01,0,.7,.57,1.17,1.05,1.45,1.78,1.03,4.91,.89,6.99-.31,1.01-.58,1.58-1.32,1.58-2.01s-.57-1.17-1.05-1.45c-.8-.46-1.87-.69-3-.69Z"/><path class="cls-2" d="M29.24,154.1c-1.31,0-2.56-.27-3.51-.82-.99-.57-1.54-1.38-1.55-2.29v-1.22c0-.28,.22-.5,.5-.5h0c.28,0,.5,.22,.5,.5v1.21c0,.68,.57,1.15,1.04,1.42,1.78,1.03,4.91,.89,6.99-.31,.97-.56,1.55-1.27,1.58-1.95v-1.34c0-.28,.22-.5,.5-.5s.5,.22,.5,.5v1.37c-.06,1.06-.8,2.04-2.08,2.78-1.3,.75-2.93,1.13-4.48,1.13Z"/><path class="cls-2" d="M29.25,151.77c-.94,0-1.83-.16-2.51-.49-1.06-.51-1.22-1.22-1.23-1.6,0-.78,.59-1.52,1.68-2.07,1.83-.93,4.48-1.06,6.04-.3,1.06,.51,1.22,1.22,1.23,1.6,0,.78-.59,1.52-1.68,2.07h0c-1.03,.52-2.32,.79-3.54,.79Zm1.49-3.95c-1.07,0-2.22,.23-3.1,.68-.84,.42-1.13,.88-1.13,1.17,0,.34,.42,.59,.66,.71,1.27,.61,3.63,.48,5.16-.29h0c.84-.43,1.13-.88,1.13-1.17,0-.34-.42-.59-.66-.71-.54-.26-1.27-.39-2.06-.39Zm1.81,2.71h0Z"/></g><g><path class="cls-3" d="M53.03,165.68c-.67-.53-.84,.42-.35,.96s2.16,1.4,5.29,.95,4.05-1.34,4.43-2.13-.04-1.01-.69-.38-2.86,1.82-4.7,1.56c-1.84-.26-3.98-.97-3.98-.97Z"/><path class="cls-2" d="M56.75,167.16c-1.31,0-2.56-.27-3.51-.82-1-.58-1.55-1.4-1.55-2.31,0-1.07,.76-2.12,2.08-2.88,2.39-1.38,5.9-1.52,7.99-.31,1,.58,1.55,1.4,1.55,2.31,0,1.07-.76,2.12-2.08,2.88-1.3,.75-2.93,1.13-4.48,1.13Zm1.51-6.15c-1.38,0-2.85,.34-3.99,1-1.01,.58-1.58,1.31-1.58,2.01s.57,1.17,1.05,1.45c1.78,1.02,4.92,.89,6.99-.31,1.01-.58,1.58-1.32,1.58-2.01s-.57-1.17-1.05-1.45c-.8-.46-1.87-.69-3-.69Z"/><path class="cls-2" d="M56.75,168.36c-1.31,0-2.56-.27-3.51-.82-.99-.57-1.54-1.38-1.55-2.29v-1.22c0-.28,.23-.5,.5-.5h0c.28,0,.5,.22,.5,.5v1.21c0,.68,.57,1.15,1.04,1.42,1.78,1.03,4.92,.89,6.99-.31,.97-.56,1.55-1.27,1.58-1.95v-1.34c0-.28,.22-.5,.5-.5s.5,.22,.5,.5v1.37c-.06,1.06-.79,2.04-2.08,2.79-1.3,.75-2.93,1.13-4.48,1.13Z"/><path class="cls-2" d="M56.76,166.03c-.94,0-1.82-.16-2.51-.49-1.06-.51-1.22-1.22-1.23-1.6,0-.78,.59-1.52,1.68-2.07,1.82-.92,4.48-1.06,6.04-.3,1.06,.51,1.22,1.22,1.23,1.6,0,.78-.59,1.52-1.68,2.07-1.03,.52-2.32,.79-3.54,.79Zm1.5-3.95c-1.07,0-2.22,.23-3.1,.68-.84,.42-1.13,.88-1.13,1.17,0,.34,.42,.59,.66,.71,1.27,.61,3.63,.48,5.16-.29h0c.84-.42,1.13-.88,1.13-1.17,0-.34-.42-.59-.66-.71-.54-.26-1.27-.39-2.05-.39Z"/></g><g><path class="cls-3" d="M75.97,122.35c-.67-.53-.84,.42-.35,.96s2.16,1.4,5.29,.95,4.05-1.34,4.43-2.13-.04-1.01-.69-.38-2.86,1.82-4.7,1.56c-1.84-.26-3.98-.97-3.98-.97Z"/><path class="cls-2" d="M79.7,123.83c-1.31,0-2.56-.27-3.51-.82-1-.58-1.55-1.4-1.55-2.31,0-1.06,.76-2.11,2.08-2.88,2.39-1.38,5.9-1.52,7.99-.31,1,.58,1.55,1.4,1.55,2.31,0,1.07-.76,2.12-2.08,2.88-1.3,.75-2.93,1.13-4.48,1.13Zm1.51-6.15c-1.38,0-2.85,.34-3.99,1-1.01,.58-1.58,1.31-1.58,2.01,0,.7,.57,1.17,1.05,1.45,1.78,1.03,4.91,.89,6.99-.31,1.01-.58,1.58-1.32,1.58-2.01s-.57-1.17-1.05-1.45c-.8-.46-1.87-.69-3-.69Z"/><path class="cls-2" d="M79.7,125.04c-1.31,0-2.56-.27-3.51-.82-.99-.57-1.54-1.38-1.55-2.29v-1.22c0-.28,.22-.5,.5-.5h0c.28,0,.5,.22,.5,.5v1.21c0,.68,.57,1.15,1.04,1.43,1.78,1.03,4.91,.89,6.99-.31,.97-.56,1.55-1.27,1.58-1.95v-1.34c0-.28,.22-.5,.5-.5s.5,.22,.5,.5v1.37c-.06,1.06-.8,2.04-2.08,2.79-1.3,.75-2.93,1.13-4.48,1.13Z"/><path class="cls-2" d="M79.71,122.71c-.94,0-1.83-.16-2.51-.49-1.06-.51-1.22-1.22-1.23-1.6,0-.78,.59-1.52,1.68-2.07,1.82-.92,4.48-1.06,6.04-.3,1.06,.51,1.22,1.22,1.23,1.6,0,.78-.59,1.52-1.68,2.07h0c-1.03,.52-2.32,.79-3.54,.79Zm1.5-3.95c-1.07,0-2.22,.23-3.1,.68-.84,.42-1.13,.88-1.13,1.17,0,.34,.42,.59,.66,.71,1.27,.62,3.64,.48,5.16-.29h0c.84-.42,1.13-.88,1.13-1.17,0-.34-.42-.59-.66-.71-.54-.26-1.27-.38-2.05-.38Z"/></g><g><path class="cls-3" d="M103.49,136.62c-.67-.53-.84,.42-.35,.96s2.16,1.4,5.29,.95c3.13-.45,4.05-1.34,4.43-2.13s-.04-1.01-.69-.38-2.86,1.82-4.7,1.56c-1.84-.26-3.98-.97-3.98-.97Z"/><path class="cls-2" d="M107.21,138.1c-1.31,0-2.56-.27-3.51-.82-1-.58-1.55-1.4-1.55-2.31,0-1.07,.76-2.11,2.08-2.88,2.39-1.38,5.9-1.52,7.99-.31,1,.58,1.55,1.4,1.55,2.31,0,1.07-.76,2.12-2.08,2.88h0c-1.3,.75-2.93,1.13-4.48,1.13Zm1.51-6.15c-1.38,0-2.85,.34-3.99,1-1.01,.58-1.58,1.32-1.58,2.01,0,.7,.57,1.17,1.05,1.45,1.78,1.03,4.92,.89,6.99-.31,1.01-.58,1.58-1.32,1.58-2.01s-.57-1.17-1.05-1.45c-.8-.46-1.87-.69-3-.69Zm2.71,4.58h0Z"/><path class="cls-2" d="M107.21,139.31c-1.31,0-2.56-.27-3.51-.82-.99-.57-1.54-1.38-1.55-2.28v-1.22c0-.28,.23-.5,.5-.5h0c.28,0,.5,.22,.5,.5v1.21c0,.68,.57,1.15,1.04,1.42,1.78,1.03,4.92,.89,6.99-.31,.97-.56,1.55-1.27,1.58-1.95v-1.34c0-.28,.22-.5,.5-.5s.5,.22,.5,.5v1.37c-.06,1.06-.8,2.04-2.08,2.78-1.3,.75-2.93,1.13-4.48,1.13Z"/><path class="cls-2" d="M107.22,136.97c-.94,0-1.83-.16-2.51-.49-1.06-.51-1.22-1.22-1.23-1.6,0-.78,.59-1.52,1.68-2.07,1.82-.92,4.48-1.06,6.04-.3,1.06,.51,1.22,1.22,1.23,1.6,0,.78-.59,1.52-1.68,2.07-1.03,.52-2.32,.79-3.54,.79Zm1.49-3.95c-1.07,0-2.22,.23-3.1,.68-.84,.42-1.13,.88-1.13,1.17,0,.34,.42,.59,.66,.71,1.27,.61,3.63,.48,5.16-.29h0c.84-.42,1.13-.88,1.13-1.17,0-.34-.42-.59-.66-.71-.54-.26-1.27-.39-2.06-.39Z"/></g><g><path class="cls-3" d="M123.54,94.95c-.67-.53-.84,.42-.35,.96s2.16,1.4,5.29,.95,4.05-1.34,4.43-2.13-.04-1.01-.69-.38-2.86,1.82-4.7,1.56c-1.84-.26-3.98-.97-3.98-.97Z"/><path class="cls-2" d="M127.27,96.43c-1.31,0-2.56-.27-3.51-.82-1-.58-1.55-1.4-1.55-2.31,0-1.07,.76-2.11,2.08-2.88,2.39-1.38,5.9-1.52,7.99-.31,1,.58,1.55,1.4,1.55,2.31,0,1.07-.76,2.12-2.08,2.88-1.3,.75-2.93,1.13-4.48,1.13Zm1.51-6.14c-1.38,0-2.85,.34-3.99,1-1.01,.58-1.58,1.31-1.58,2.01,0,.7,.57,1.17,1.05,1.45,1.78,1.03,4.91,.89,6.99-.31h0c1.01-.58,1.58-1.32,1.58-2.01s-.57-1.17-1.05-1.45c-.8-.46-1.87-.69-3-.69Z"/><path class="cls-2" d="M127.27,97.63c-1.31,0-2.56-.27-3.51-.82-.99-.57-1.54-1.38-1.55-2.29v-1.22c0-.28,.22-.5,.5-.5h0c.28,0,.5,.22,.5,.5v1.21c0,.68,.57,1.15,1.04,1.42,1.78,1.03,4.91,.89,6.99-.31,.97-.56,1.55-1.27,1.58-1.95v-1.34c0-.28,.22-.5,.5-.5s.5,.22,.5,.5v1.37c-.06,1.06-.8,2.04-2.08,2.78-1.3,.75-2.93,1.13-4.48,1.13Z"/><path class="cls-2" d="M127.28,95.3c-.94,0-1.83-.16-2.51-.49-1.06-.51-1.22-1.22-1.23-1.6,0-.78,.59-1.52,1.68-2.07,1.82-.93,4.48-1.06,6.04-.3,1.06,.51,1.22,1.22,1.23,1.6,0,.78-.59,1.52-1.68,2.07h0c-1.03,.52-2.32,.79-3.54,.79Zm1.49-3.95c-1.07,0-2.22,.23-3.1,.68-.84,.42-1.13,.88-1.13,1.17,0,.34,.42,.59,.66,.71,1.27,.61,3.63,.48,5.16-.29,.84-.42,1.13-.88,1.13-1.17,0-.34-.42-.59-.66-.71-.54-.26-1.27-.39-2.06-.39Zm1.81,2.71h0Z"/></g><g><path class="cls-3" d="M151.05,109.21c-.67-.53-.84,.42-.35,.96s2.16,1.4,5.29,.95c3.13-.45,4.05-1.34,4.43-2.13s-.04-1.01-.69-.38-2.86,1.82-4.7,1.56c-1.84-.26-3.98-.97-3.98-.97Z"/><path class="cls-2" d="M154.78,110.69c-1.31,0-2.56-.27-3.51-.82-1-.58-1.55-1.4-1.55-2.31,0-1.06,.76-2.11,2.08-2.88,2.39-1.38,5.9-1.52,7.99-.31,1,.58,1.55,1.4,1.55,2.31,0,1.07-.76,2.11-2.08,2.88-1.3,.75-2.93,1.13-4.48,1.13Zm1.51-6.15c-1.38,0-2.85,.34-3.99,1-1.01,.58-1.58,1.31-1.58,2.01,0,.7,.57,1.17,1.05,1.45,1.78,1.03,4.91,.89,6.99-.31,1.01-.58,1.58-1.32,1.58-2.01s-.57-1.17-1.05-1.45c-.8-.46-1.87-.69-3-.69Z"/><path class="cls-2" d="M154.78,111.9c-1.31,0-2.56-.27-3.51-.82-.99-.57-1.54-1.38-1.55-2.29v-1.22c0-.28,.23-.5,.5-.5h0c.28,0,.5,.22,.5,.5v1.21c0,.68,.57,1.15,1.04,1.42,1.78,1.03,4.91,.89,6.99-.31,.97-.56,1.55-1.27,1.58-1.95v-1.34c0-.28,.22-.5,.5-.5s.5,.22,.5,.5v1.37c-.06,1.06-.8,2.04-2.08,2.79-1.3,.75-2.93,1.13-4.48,1.13Z"/><path class="cls-2" d="M154.79,109.57c-.94,0-1.83-.16-2.51-.49-1.06-.51-1.22-1.22-1.23-1.6,0-.78,.59-1.52,1.68-2.07,1.82-.93,4.48-1.06,6.04-.3,1.06,.51,1.22,1.22,1.23,1.6,0,.78-.59,1.52-1.68,2.07h0c-1.03,.52-2.32,.79-3.54,.79Zm1.5-3.95c-1.07,0-2.22,.23-3.1,.68-.84,.42-1.13,.88-1.13,1.17,0,.34,.42,.59,.66,.71,1.27,.61,3.63,.48,5.16-.29h0c.84-.43,1.13-.88,1.13-1.17,0-.34-.42-.59-.66-.71-.54-.26-1.27-.38-2.05-.38Zm1.81,2.71h0Z"/></g><g><path class="cls-3" d="M206.54,54.45l.07-.59,1.23-.67,15.29,8.83,.16,.1s.99-.24,1.1,0,.19,1.17-.3,1.55c-.6,.4-1.42,.1-1.69-.05l-15.87-9.16Z"/><path class="cls-2" d="M223.28,65.64c-.25,0-.5-.06-.7-.17l-16.29-9.4c-.42-.24-.49-.75-.42-1.12,.05-.27,.32-.44,.59-.4,.27,.05,.45,.32,.4,.59,0,.04,0,.11,0,.13l16.22,9.33c.09,.05,.36,.05,.52-.04l11.13-6.41c.24-.14,.54-.06,.68,.18,.14,.24,.06,.54-.18,.68l-11.13,6.41c-.25,.14-.54,.21-.82,.21Z"/><path class="cls-2" d="M223.28,64.45c-.25,0-.5-.06-.7-.17l-16.29-9.4c-.27-.16-.43-.41-.43-.69,0-.3,.18-.58,.5-.77l1.13-.65c.24-.14,.55-.06,.68,.18,.14,.24,.06,.54-.18,.68l-.93,.53,16.01,9.24c.09,.05,.36,.05,.52-.04l10.67-6.16-16.01-9.24c-.24-.14-.32-.44-.18-.68,.14-.24,.44-.32,.68-.18l16.29,9.4c.27,.16,.43,.41,.43,.69,0,.3-.18,.58-.5,.77l-10.88,6.28c-.25,.14-.54,.21-.82,.21Zm11.28-7.08h0Z"/><path class="cls-2" d="M223.58,62.61c-.25,0-.5-.06-.7-.17h0l-16.29-9.4c-.27-.16-.43-.41-.43-.69,0-.3,.18-.58,.5-.77l9.09-5.37c.46-.27,1.1-.29,1.52-.05l16.29,9.41c.27,.16,.43,.41,.43,.69,0,.3-.18,.58-.5,.77l-9.09,5.37c-.25,.14-.54,.21-.83,.21Zm-.2-1.04c.09,.05,.36,.05,.52-.04l8.89-5.26-16.01-9.25c-.09-.05-.35-.06-.52,.04l-8.89,5.26,16.01,9.25Z"/><path class="cls-2" d="M223.3,65.63c-.28,0-.5-.22-.5-.5v-1.18c0-.28,.22-.5,.5-.5s.5,.22,.5,.5v1.18c0,.28-.22,.5-.5,.5Z"/><path class="cls-2" d="M206.37,55.88c-.28,0-.5-.22-.5-.5v-1.08c0-.28,.22-.5,.5-.5s.5,.22,.5,.5v1.08c0,.28-.22,.5-.5,.5Z"/><path class="cls-2" d="M224.52,63.91h-.03c-.28-.02-.48-.25-.47-.52,.02-.23,.04-.65,.01-.86-.02,0-.05,.02-.08,.04-.25,.12-.55,.02-.67-.22-.12-.25-.02-.55,.22-.67,.43-.22,.8-.23,1.09-.03,.52,.35,.47,1.12,.42,1.8-.02,.26-.24,.48-.5,.48Z"/><path class="cls-2" d="M234.96,58.81c-.28,0-.5-.22-.5-.5v-1.18c0-.28,.22-.5,.5-.5s.5,.22,.5,.5v1.18c0,.28-.22,.5-.5,.5Z"/></g><g><path class="cls-3" d="M192.18,55.78c-.67-.53-.84,.42-.35,.96s2.16,1.4,5.29,.95c3.13-.45,4.05-1.34,4.43-2.13s-.04-1.01-.69-.38-2.86,1.82-4.7,1.56c-1.84-.26-3.98-.97-3.98-.97Z"/><path class="cls-2" d="M195.9,57.26c-1.31,0-2.56-.27-3.51-.82-1-.58-1.55-1.4-1.55-2.31,0-1.07,.76-2.11,2.08-2.88,2.39-1.38,5.9-1.52,7.99-.31,1,.58,1.55,1.4,1.55,2.31,0,1.07-.76,2.11-2.08,2.88h0c-1.3,.75-2.93,1.13-4.48,1.13Zm1.51-6.14c-1.38,0-2.84,.34-3.99,1-1.01,.58-1.58,1.31-1.58,2.01,0,.7,.57,1.17,1.05,1.45,1.78,1.02,4.91,.89,6.99-.31h0c1.01-.58,1.58-1.31,1.58-2.01,0-.7-.57-1.17-1.05-1.45-.8-.46-1.87-.69-3-.69Z"/><path class="cls-2" d="M195.9,58.46c-1.31,0-2.56-.27-3.51-.82-.99-.57-1.54-1.38-1.55-2.29v-1.22c0-.28,.22-.5,.5-.5h0c.28,0,.5,.22,.5,.5v1.21c0,.68,.57,1.15,1.04,1.43,1.78,1.03,4.91,.89,6.99-.31,.97-.56,1.55-1.27,1.58-1.95v-1.34c0-.28,.22-.5,.5-.5s.5,.22,.5,.5v1.37c-.06,1.06-.79,2.04-2.08,2.78-1.3,.75-2.93,1.13-4.48,1.13Z"/><path class="cls-2" d="M195.91,56.13c-.94,0-1.83-.16-2.51-.49-1.06-.51-1.22-1.22-1.23-1.6,0-.78,.59-1.52,1.68-2.07,1.82-.93,4.48-1.06,6.04-.3,1.06,.51,1.22,1.22,1.23,1.6,0,.78-.59,1.52-1.68,2.07h0c-1.03,.52-2.32,.79-3.54,.79Zm1.49-3.95c-1.07,0-2.22,.23-3.1,.68-.84,.42-1.13,.88-1.13,1.17,0,.34,.42,.59,.66,.71,1.27,.61,3.63,.48,5.16-.29h0c.84-.43,1.13-.88,1.13-1.17,0-.34-.42-.59-.66-.71-.54-.26-1.27-.39-2.06-.39Zm1.82,2.71h0Z"/></g><g><path class="cls-3" d="M219.69,70.04c-.67-.53-.84,.42-.35,.96s2.16,1.4,5.29,.95,4.05-1.34,4.43-2.13-.04-1.01-.69-.38-2.86,1.82-4.7,1.56c-1.84-.26-3.98-.97-3.98-.97Z"/><path class="cls-2" d="M223.42,71.52c-1.31,0-2.56-.27-3.51-.82-1-.58-1.55-1.4-1.55-2.31,0-1.06,.76-2.11,2.08-2.88,2.39-1.38,5.9-1.52,7.99-.31,1,.58,1.55,1.4,1.55,2.31,0,1.07-.76,2.11-2.08,2.88-1.3,.75-2.93,1.13-4.48,1.13Zm1.51-6.15c-1.38,0-2.85,.34-3.99,1-1.01,.58-1.58,1.31-1.58,2.01,0,.7,.57,1.17,1.05,1.45,1.78,1.03,4.91,.89,6.99-.31,1.01-.58,1.58-1.32,1.58-2.01s-.57-1.17-1.05-1.45c-.8-.46-1.87-.69-3-.69Z"/><path class="cls-2" d="M223.42,72.73c-1.31,0-2.56-.27-3.51-.82-.99-.57-1.54-1.38-1.55-2.29v-1.22c0-.28,.22-.5,.5-.5h0c.28,0,.5,.22,.5,.5v1.21c0,.68,.57,1.15,1.04,1.43,1.78,1.03,4.91,.89,6.99-.31,.97-.56,1.55-1.27,1.58-1.95v-1.34c0-.28,.22-.5,.5-.5s.5,.22,.5,.5v1.37c-.06,1.06-.8,2.04-2.08,2.79-1.3,.75-2.93,1.13-4.48,1.13Z"/><path class="cls-2" d="M223.42,70.4c-.94,0-1.83-.16-2.51-.49-1.06-.51-1.22-1.22-1.23-1.6,0-.78,.59-1.52,1.68-2.07,1.82-.92,4.48-1.06,6.04-.3,1.06,.51,1.22,1.22,1.23,1.6,0,.78-.59,1.52-1.68,2.07h0c-1.03,.52-2.32,.79-3.54,.79Zm1.5-3.95c-1.07,0-2.22,.23-3.1,.68-.84,.42-1.13,.88-1.13,1.17,0,.34,.42,.59,.66,.71,1.27,.61,3.63,.48,5.16-.29h0c.84-.43,1.13-.88,1.13-1.17,0-.34-.42-.59-.66-.71-.54-.26-1.27-.38-2.05-.38Zm1.81,2.71h0Z"/></g><g><path class="cls-3" d="M266.94,19.2l.07-.59,1.23-.67,15.29,8.83,.16,.1s.99-.24,1.1,0,.19,1.17-.3,1.55c-.6,.4-1.42,.1-1.69-.05l-15.87-9.16Z"/><path class="cls-2" d="M283.67,30.39c-.25,0-.5-.06-.7-.17l-16.29-9.4c-.42-.24-.49-.75-.42-1.12,.05-.27,.32-.44,.59-.4,.27,.05,.45,.32,.4,.59,0,.04,0,.11,0,.13l16.22,9.33c.09,.05,.35,.06,.52-.04l11.13-6.41c.24-.14,.54-.06,.68,.18,.14,.24,.06,.54-.18,.68l-11.13,6.41c-.25,.14-.54,.21-.82,.21Z"/><path class="cls-2" d="M283.67,29.2c-.25,0-.5-.06-.7-.17l-16.29-9.4c-.27-.16-.43-.41-.43-.69,0-.3,.18-.58,.5-.77l1.13-.65c.24-.14,.54-.06,.68,.18,.14,.24,.06,.54-.18,.68l-.92,.53,16.01,9.24c.09,.05,.35,.06,.52-.04l10.67-6.16-16.01-9.24c-.24-.14-.32-.44-.18-.68,.14-.24,.44-.32,.68-.18l16.29,9.4c.27,.16,.43,.41,.43,.69,0,.3-.18,.58-.5,.77l-10.88,6.28c-.25,.14-.54,.21-.82,.21Zm11.27-7.08h0Z"/><path class="cls-2" d="M283.98,27.36c-.25,0-.5-.06-.69-.17h0l-16.29-9.4c-.27-.16-.43-.41-.43-.69,0-.3,.18-.58,.5-.77l9.09-5.37c.46-.27,1.11-.28,1.53-.04l16.29,9.4c.27,.16,.43,.41,.43,.69,0,.3-.18,.58-.5,.77l-9.09,5.37c-.25,.14-.54,.21-.83,.21Zm-.2-1.04c.09,.05,.35,.06,.52-.04l8.89-5.26-16.01-9.25c-.09-.05-.36-.05-.52,.04l-8.89,5.26,16.01,9.25Z"/><path class="cls-2" d="M283.69,30.39c-.28,0-.5-.22-.5-.5v-1.18c0-.28,.22-.5,.5-.5s.5,.22,.5,.5v1.18c0,.28-.22,.5-.5,.5Z"/><path class="cls-2" d="M266.76,20.64c-.28,0-.5-.22-.5-.5v-1.08c0-.28,.22-.5,.5-.5s.5,.22,.5,.5v1.08c0,.28-.22,.5-.5,.5Z"/><path class="cls-2" d="M284.92,28.66s-.02,0-.03,0c-.28-.02-.48-.24-.47-.52,.02-.24,.04-.65,.01-.86-.02,0-.05,.02-.08,.04-.25,.12-.55,.02-.67-.22-.12-.25-.02-.55,.22-.67,.43-.22,.8-.23,1.09-.03,.52,.34,.47,1.12,.42,1.79-.02,.26-.24,.48-.5,.48Z"/><path class="cls-2" d="M295.36,23.56c-.28,0-.5-.22-.5-.5v-1.18c0-.28,.22-.5,.5-.5s.5,.22,.5,.5v1.18c0,.28-.22,.5-.5,.5Z"/></g><g><path class="cls-3" d="M252.57,20.53c-.67-.53-.84,.42-.35,.96s2.16,1.4,5.29,.95,4.05-1.34,4.43-2.13-.04-1.01-.69-.38-2.86,1.82-4.7,1.56c-1.84-.26-3.98-.97-3.98-.97Z"/><path class="cls-2" d="M256.3,22.01c-1.31,0-2.56-.27-3.51-.82-1-.58-1.55-1.4-1.55-2.31,0-1.06,.76-2.11,2.08-2.88,2.39-1.38,5.9-1.52,7.99-.31,1,.58,1.55,1.4,1.55,2.31,0,1.07-.76,2.12-2.08,2.88-1.3,.75-2.93,1.13-4.48,1.13Zm1.51-6.14c-1.38,0-2.84,.34-3.99,1-1.01,.58-1.58,1.32-1.58,2.01s.57,1.17,1.05,1.45c1.78,1.03,4.92,.89,6.99-.31h0c1.01-.58,1.58-1.32,1.58-2.01s-.57-1.17-1.05-1.45c-.8-.46-1.88-.69-3-.69Z"/><path class="cls-2" d="M256.3,23.21c-1.31,0-2.56-.27-3.51-.82-.99-.57-1.54-1.38-1.55-2.29v-1.22c0-.28,.23-.5,.5-.5h0c.28,0,.5,.22,.5,.5v1.21c0,.68,.57,1.15,1.04,1.42,1.78,1.03,4.92,.89,6.99-.31,.97-.56,1.55-1.27,1.58-1.95v-1.34c0-.28,.22-.5,.5-.5s.5,.22,.5,.5v1.37c-.06,1.06-.79,2.04-2.08,2.78-1.3,.75-2.93,1.13-4.48,1.13Z"/><path class="cls-2" d="M256.3,20.88c-.94,0-1.82-.16-2.51-.49-1.06-.51-1.22-1.22-1.23-1.6,0-.78,.59-1.52,1.68-2.07,1.82-.93,4.48-1.06,6.04-.3,1.06,.51,1.22,1.22,1.23,1.6,0,.78-.59,1.52-1.68,2.07h0c-1.03,.52-2.32,.79-3.54,.79Zm1.5-3.95c-1.07,0-2.22,.23-3.1,.68-.84,.42-1.13,.88-1.13,1.17,0,.34,.42,.59,.66,.71,1.27,.61,3.63,.48,5.16-.29,.84-.42,1.13-.88,1.13-1.17,0-.34-.42-.59-.66-.71-.54-.26-1.27-.39-2.06-.39Zm1.81,2.71h0Z"/></g><g><path class="cls-3" d="M280.08,34.8c-.67-.53-.84,.42-.35,.96,.5,.54,2.16,1.4,5.29,.95,3.13-.45,4.05-1.34,4.43-2.13s-.04-1.01-.69-.38-2.86,1.82-4.7,1.56c-1.84-.26-3.98-.97-3.98-.97Z"/><path class="cls-2" d="M283.81,36.28c-1.31,0-2.56-.27-3.51-.82-1-.58-1.55-1.4-1.55-2.31,0-1.07,.76-2.12,2.08-2.88,2.39-1.38,5.9-1.52,7.99-.31,1,.58,1.55,1.4,1.55,2.31,0,1.07-.76,2.11-2.08,2.88h0c-1.3,.75-2.93,1.13-4.48,1.13Zm1.51-6.14c-1.38,0-2.84,.34-3.99,1-1.01,.58-1.58,1.32-1.58,2.01s.57,1.17,1.05,1.45c1.78,1.03,4.92,.89,6.99-.31h0c1.01-.58,1.58-1.32,1.58-2.01,0-.7-.57-1.17-1.05-1.45-.8-.46-1.87-.69-3-.69Zm2.72,4.58h0Z"/><path class="cls-2" d="M283.81,37.48c-1.31,0-2.56-.27-3.51-.82-.99-.57-1.54-1.38-1.55-2.29v-1.22c0-.28,.22-.5,.5-.5h0c.28,0,.5,.22,.5,.5v1.21c0,.68,.57,1.15,1.04,1.43,1.78,1.02,4.92,.89,6.99-.31,.97-.56,1.55-1.27,1.58-1.95v-1.34c0-.28,.22-.5,.5-.5s.5,.22,.5,.5v1.37c-.06,1.06-.79,2.04-2.08,2.79-1.3,.75-2.93,1.13-4.48,1.13Z"/><path class="cls-2" d="M283.82,35.15c-.94,0-1.83-.16-2.51-.49-1.06-.51-1.22-1.22-1.23-1.6,0-.78,.59-1.52,1.68-2.07,1.82-.93,4.48-1.06,6.04-.3,1.06,.51,1.22,1.22,1.23,1.6,0,.78-.59,1.52-1.68,2.07h0c-1.03,.52-2.32,.79-3.54,.79Zm1.49-3.95c-1.07,0-2.22,.23-3.1,.68-.84,.42-1.13,.88-1.13,1.17,0,.34,.42,.59,.66,.71,1.27,.61,3.63,.48,5.16-.29h0c.84-.43,1.13-.88,1.13-1.17,0-.34-.42-.59-.66-.71-.54-.26-1.27-.39-2.06-.39Zm1.81,2.71h0Z"/></g></g></g></g></svg>