<svg xmlns="http://www.w3.org/2000/svg" xmlns:xlink="http://www.w3.org/1999/xlink" width="250.246" height="314.646" viewBox="0 0 250.246 314.646">
  <defs>
    <clipPath id="clip-path">
      <rect id="Rectángulo_128" data-name="Rectángulo 128" width="250.247" height="314.646" fill="none"/>
    </clipPath>
  </defs>
  <g id="illustration_bike" transform="translate(-828 -3242)">
    <g id="Grupo_102" data-name="Grupo 102" transform="translate(828 3242)">
      <g id="Grupo_99" data-name="Grupo 99">
        <g id="Grupo_98" data-name="Grupo 98" clip-path="url(#clip-path)">
          <path id="Trazado_1729" data-name="Trazado 1729" d="M243.213,135.343C246.9,198.828,195.3,254.855,132.808,243.056,43.644,226.22,0,155.642,0,92.051S71.124,41.228,134.715,41.228s102.295-12.7,108.5,94.115" transform="translate(0 7.096)" fill="#ffdc8c"/>
          <path id="Trazado_1730" data-name="Trazado 1730" d="M192.359,202.482h0c24.709-14.337,30.353-20.9,28.519-21.96s-13.473,2.8-38.022,16.473l-.015-.008c-.233.134-.452.262-.681.4l-.133.074h0c-24.708,14.337-30.353,20.9-28.519,21.96s13.475-2.8,38.022-16.473l.015.008c.233-.134.452-.262.681-.4l.133-.074" transform="translate(27.055 31.853)" fill="#2b824a"/>
          <path id="Trazado_1731" data-name="Trazado 1731" d="M86.071,256.206h0c24.709-14.337,30.353-20.9,28.519-21.96s-13.473,2.8-38.022,16.473l-.015-.008c-.233.134-.452.262-.681.4l-.133.074h0c-24.708,14.337-30.353,20.9-28.519,21.96s13.475-2.8,38.022-16.473l.015.008c.233-.134.452-.262.681-.4l.133-.074" transform="translate(8.283 41.341)" fill="#2b824a"/>
          <path id="Trazado_1732" data-name="Trazado 1732" d="M68.146,206.331c.056-.369,3.769-24.078,4.1-31.811.165-6.62-1.764-6.391-2.539-7.862S68.513,159,68.513,159s-3.757,2.842-6.653.359c-.3,2.118-1.087,5.337-1.963,6.529s-2,2.025-2.173,3.964-.391,5.241-.391,5.241l-.966,21.5s3.558,4.817,3.53,4.632,2.51-28.7,2.51-28.7,1.426-3.406,2.028-3.78c1.386.811,2.383,1.293,2.584,3.113s-2.353,33.152-2.353,33.152Z" transform="translate(9.955 28.08)" fill="#fff"/>
          <path id="Trazado_1733" data-name="Trazado 1733" d="M65.774,142.834l61.771-14.154s-2.31,5.618-2.765,5.705-58.919,13.972-58.919,13.972Z" transform="translate(11.616 22.726)" fill="#fff"/>
          <path id="Trazado_1734" data-name="Trazado 1734" d="M65.373,150.826l61.493,39.889,4.688-25.414s4.969,5.649,4.841,6.035-5.043,22.067-5.043,22.067l1.833.7,13.988-7.313,11.807-6.148,30.275-16.11.962-3.117-33.593-32.889,2.356-4.011,33.944,32.858c8.239-4.043,11.473,1.637,10.239,7.932-1.363,5.4-5.335,8.539-9.416,7.863s-4.335-2.892-4.335-2.892l-29.138,15.044,1.883,6.848,3.052,4.492s6.121,3.536,4.035,7.357S148.657,218.5,148.657,218.5l-10.187-2.784-.279-2.364,4.526-5.574,2.237-3.1,4.581-5.536.339-2.744-1.847-4.006-6.455,3.359-1.454,5.812,4.238,3.387c2.08,1.27-.67,2.946-2.458,2.432s-10.608-4.818-10.608-4.818l-3.728-1a21.228,21.228,0,0,1-2.133-1.113c-.108-.159-15.725-10.619-15.725-10.619l-12.852,7.255s-5.116-5.757-4.895-5.7a27.742,27.742,0,0,0,3.084-2.19l1.871-2.045.473-1.1.131-1.813,1.2-1.771L65.7,160.34Z" transform="translate(11.546 21.99)" fill="#fff"/>
          <path id="Trazado_1735" data-name="Trazado 1735" d="M47.02,116.395S62.949,87.626,70.054,79.5c1.873-3.49,10.938-15.472,15.184-19.013L129.425,48.61l15.669,2.423,22.179,41.634-.174,2.22s9.172,16.622,6.457,25.938c.833.606,1.964,1.578,1.512,2.34s-2.1.7-2.1.7-44.016,17.008-44.161,17.049-34.647,8.918-34.647,8.918l-13.395-6.043.073-2.874s2.2-2.565,1.848-3,.864-4.223.864-4.223S87.434,128.5,92,125.76a70.341,70.341,0,0,0,9.093-6.782s8.325-15.815,10-24.508a8.094,8.094,0,0,0-3.849-3.566L102,87.422,96.98,80.915a13.6,13.6,0,0,0-3.815,1.532c-1.438.985-10.9,9.7-10.9,9.7A12.294,12.294,0,0,0,80.676,91c-.312-.1-6.358,4.921-13.323,13.777s-7.207,12.789-9.659,14.305c-.106,2.878-.715,7.246-.715,7.246l-2.8,3.162-2.712-1.226L50.1,131.588s-12.494-3.153-12.722-3.324-.919-3.729-.384-4.941,2.26-6.137,10.027-6.929" transform="translate(6.498 8.585)" fill="#fff"/>
          <path id="Trazado_1736" data-name="Trazado 1736" d="M66.191,37.735c1.512.748,3.022,1.06,6.223,1.437s13.329.871,21.667-.977a103.663,103.663,0,0,1,12.82-2.49c.6-.049,2.771-1.459,4.136-3.83s1.9-3.879,4.769-3.533,3.559,2.164,3.559,2.164c1.251.079,1.648-2.92,1.585-4.275s-1.094-7.752-1.094-7.752S115.8,7.462,109.555,4C104.738,1,95.192.326,88.831.86s-14.048,5.214-18.09,10.8-4.963,11.959-5.483,15.515-.412,10.015.933,10.564" transform="translate(11.474 0.123)" fill="#96e0aa"/>
          <path id="Trazado_1737" data-name="Trazado 1737" d="M100.839,31.458c.142,2.166,1.011,7.559,1.3,7.627a6.974,6.974,0,0,0,3.8-.449s-.714-6.65.745-7.623c1.634.006,5.1.215,4.981,3.3s.119,5.678-2.19,7.388a7.275,7.275,0,0,0,.362,2.543,4.112,4.112,0,0,0,2.333-2.856c.612-2.258,2.045-10.013.413-15.2-2.4-1.767-4.415-3.006-5.415-1.731s-3.5,5.575-4.413,6.116a11.855,11.855,0,0,1-1.912.884" transform="translate(17.809 4.227)" fill="#2b824a"/>
          <path id="Trazado_1738" data-name="Trazado 1738" d="M82.4,21.827c1.379-.127,4.548,1.908,2.766,5.964-1.211-.118-4.013-2.014-2.766-5.964" transform="translate(14.497 3.854)" fill="#2b824a"/>
          <path id="Trazado_1739" data-name="Trazado 1739" d="M75.306,21.821c1.444.361,3.3,4.268.419,5.983-2.094-.921-2.7-3.752-.419-5.983" transform="translate(13.043 3.854)" fill="#2b824a"/>
          <path id="Trazado_1740" data-name="Trazado 1740" d="M68.407,33.575c-.012-.445,9.219,1.541,20.51,0s13.2-3.692,16.828-2.987c.886,2.829,1.828,7.416,1.828,7.416l3.8-.449.617,4.462,2.919-1.4s.611,8.767-2.919,13.928c-2.761,5.024-5.117,6.86-9.745,7.953-5.285,2.419-13.61,5.548-22.307,1.191C70.685,56,68.721,44.927,68.407,33.575" transform="translate(12.081 5.378)" fill="#fff"/>
          <path id="Trazado_1741" data-name="Trazado 1741" d="M103.859,36.924c.541,5.642,3.091,19.4-5.41,23.882,2.859.232,7.987-3.324,8.9-9.893a60.494,60.494,0,0,0-.993-14.484Z" transform="translate(17.387 6.434)" fill="#96e0aa"/>
          <path id="Trazado_1742" data-name="Trazado 1742" d="M76.043,127.239c2.5-1.379,4.315-2.831,7.942-2.32,1.658-2.91,9.466-15.85,9.466-15.85l-9.466,7.682-5.041,2.9c-1.02,1.243-2.9,6.933-2.9,7.592" transform="translate(13.43 19.263)" fill="#59b377"/>
          <path id="Trazado_1743" data-name="Trazado 1743" d="M109.606,104.764a57.923,57.923,0,0,1,22.269,1.583c5.695,1.588,19.958,6.853,28.175,7.677,3.229.385,3.785,0,3.785,0a17.226,17.226,0,0,1-5.444,10.371c-4.871,4.248-10.6,16.582-10.6,16.582s-4.622,9.971-4.369,13.585,2.829,14.3,2.829,14.3l10.711,21.847,1.448,4.05-.544.967s-3.667,4.428-11.7,3.745c-1.162-1.421-2.517-3.519-2.517-3.519l-7.908-12s-10-14.3-11.4-17.915-5.074-13.246-5.264-17.429S121,132.807,121,132.807s-11.947-.615-15.873,4.25a32.957,32.957,0,0,1-5.535,1.344A3.755,3.755,0,0,0,98,136.345l-7.881-3.371a5.581,5.581,0,0,0,1.834-4.905c3.25-3.9,17.648-23.305,17.648-23.305" transform="translate(15.917 18.432)" fill="#59b377"/>
          <path id="Trazado_1744" data-name="Trazado 1744" d="M76.73,133.213s7.624,3.2,8.949,3.853a61.1,61.1,0,0,1-8.006,1.756l-1.425-5.609Z" transform="translate(13.466 23.527)" fill="#59b377"/>
          <path id="Trazado_1745" data-name="Trazado 1745" d="M86.262,133.913s3.605,2,3.7,1.981l-4.11.957-.418-2.17Z" transform="translate(15.089 23.651)" fill="#59b377"/>
          <path id="Trazado_1746" data-name="Trazado 1746" d="M79.406,142.648l25.227-5.23s-.425,8.821-.238,14.318,2.73,18.334,2.73,18.334,2.219,3.878,1.708,5.179c-1.685.793-2.3,1-2.3,1S89.96,165.736,90.1,165.824s-10.855-22.39-10.855-22.39Z" transform="translate(13.995 24.27)" fill="#59b377"/>
          <path id="Trazado_1747" data-name="Trazado 1747" d="M88.443,60.951c-.532,2.85.82,8,2.96,11.89S102.519,91.2,102.519,91.2l-8.249-5.809-6.755-9.813s-3.575-5.568-4.126-7.837-1.246-7.62-1.246-7.62Z" transform="translate(14.507 10.618)" fill="#96e0aa"/>
          <path id="Trazado_1748" data-name="Trazado 1748" d="M103.795,55.28a16.619,16.619,0,0,0-.313,9.243,30.139,30.139,0,0,0,2.256,7.054s2.783-12.826,4.425-16.3,4.948-6.934,9.22-5.089c.246-2.787-7.28-3.917-11.417-2.29-.5,1.319-2.61,6.368-4.171,7.379" transform="translate(18.187 8.327)" fill="#96e0aa"/>
          <path id="Trazado_1749" data-name="Trazado 1749" d="M158.529,91.937c-.012.012-.012.012-.024.012a4.753,4.753,0,0,1-4.989,3.318s-3.142-6.177-5.624-10.378C138.6,94.843,121.03,87.4,121.03,87.4s1.859-6.695,2.471-8.436c5.848,7.483,20.72,4.483,22.779,3.224a1.036,1.036,0,0,0,.118-.071,30.59,30.59,0,0,0-3.412-5.6c-3.118-4.4-7.7-10.142-11.1-14.225a48.176,48.176,0,0,0-6.565-6.318l-.071-.059c-2.341-1.906-4.542-3.436-5.954-4.377l-.106-.071c-.918-.6-1.471-.941-1.471-.941a4.5,4.5,0,0,0-.553-.882l-.024-.024a12.122,12.122,0,0,0-1.847-1.859.012.012,0,0,1,.012-.012c2.247-.965,7.472-2.036,14.555-.541,9.672,2.777,17.7,15.39,20.638,19.226a23.1,23.1,0,0,0,7.307,6.46c-.353,1.283-2.671,1.118-3.071,1.082,0,0,3.906,6.754,5.236,9.6s.694,7.6-1.447,8.366" transform="translate(20.363 8.206)" fill="#96e0aa"/>
          <path id="Trazado_1750" data-name="Trazado 1750" d="M35.188,105.034l7.348,3.333s-3.739,3.3-4.288,5.681c-1.84-.772-6.1-2.827-6.1-2.827s-1.3-3.326,3.043-6.187" transform="translate(5.645 18.55)" fill="#96e0aa"/>
          <path id="Trazado_1751" data-name="Trazado 1751" d="M54.974,113.563l7.449,3.522,2.9-.94,10.313,3.972.381,2.652,7.46,3.677-1.561,3-2.038-.8c-.93,1.8-.112,2.733,1.965,3.677s12.7,5.648,12.7,5.648l1.1-.464,1.1-4.143,3.588-2.013,8.594,3.742s1.756,5.25-3.024,6.538c-2.663-1.115-9.84-3.891-9.84-3.891l-1.242.535s1.161,2.557,0,2.547-2.476-1.408-3.922-1.724-11.988-4.177-13.7-5.735-1.232-4.088.285-5.81c-2.887-1.461-4.155-2.058-4.155-2.058l-1.732.848.287,41.084s-3.783,2.123-5.279,0c.338-6.316,0-43.529,0-43.529l-3.278-1.586-.368-1.4-4.464-1.6s-2.3,5.258-6.493,4.474c-4.3-1.258-12.544-5.515-15.832-5.227-1.759.422-4.372.678-3.744-.331s2.473-3.742,4.761-2.893,15.4,5.305,15.4,5.305a4.321,4.321,0,0,0,2.67-2.621c-.577-.262-2.406-1.114-2.406-1.114s-.4-1.559,2.13-3.342" transform="translate(5.71 20.057)" fill="#96e0aa"/>
          <path id="Trazado_1752" data-name="Trazado 1752" d="M93.467,188.582l13.59-7.237,3.71,2.487-11.8,6.786-5.214-1.167Z" transform="translate(16.507 32.028)" fill="#59b377"/>
          <path id="Trazado_1753" data-name="Trazado 1753" d="M110.521,184.9l3.076,2.061a1.142,1.142,0,0,0-1.3.955c-.156,1.1-.024,6.43-.024,6.43s.472.273.668.378,3.964-4.472,3.964-4.472l.2-.937,3.49,2.272-.951,1.858-1.934,5.356.24.571,5.592-2.51s.9-1.062.808-1.261-.544-2.053-.544-2.053l-.866-1.535,1.49-.425,5.838,3.379s-4.279,6.385-7.679,6.495-8.954,2.018-12.073-5.621c-2.927-7.686,0-10.941,0-10.941" transform="translate(19.289 32.656)" fill="#96e0aa"/>
          <path id="Trazado_1754" data-name="Trazado 1754" d="M113.819,178.568l3.329,2.271s.661-1.66,1.473-1.793c.893-3.047,1.114-4.175,1.126-4.236a19.612,19.612,0,0,0-5.928,3.758" transform="translate(20.102 30.873)" fill="#96e0aa"/>
          <path id="Trazado_1755" data-name="Trazado 1755" d="M123.181,185.312s3.431-3.891,3.816-4.2,1.207-.136,1.184.818.007.819.007.819l2.581-1.3s-1.126-5.812-6.836-7.177c-.542,2.9-1.92,10.242-1.92,10.242Z" transform="translate(21.549 30.777)" fill="#96e0aa"/>
          <path id="Trazado_1756" data-name="Trazado 1756" d="M126.414,187.488l4.378-2.432s-.545,4.493-1.454,5.814a18.355,18.355,0,0,1-2.924-3.382" transform="translate(22.326 32.683)" fill="#96e0aa"/>
          <path id="Trazado_1757" data-name="Trazado 1757" d="M72.146,173.89l-.489,8.561s-13.05.793-23.864,13.583S34.011,223.681,33.255,235.4s5.638,32.039,26.863,32.922c11.994,0,28.121-8.682,35.418-23.895s10.928-22.656,5.522-43.03c-4.431-11-12.563-19.618-24.422-19.748.621-5.036.985-8.2.985-8.2s17.8.047,26.436,16.225,7.833,39.216-4.79,60.252-29.425,26.947-43.051,26.608-29.7-14-29.7-40.271S46.082,177.83,72.146,173.89" transform="translate(4.684 30.633)" fill="#59b377"/>
          <path id="Trazado_1758" data-name="Trazado 1758" d="M35.514,266.571c-7.319-14.5-13.792-32.119-1.951-58.474,15.387-27.137,24.315-29.458,39.08-33.8.089-1.51.089-3.156.089-3.156-27.6,1.793-41.919,29.986-46.481,44.888s-3.879,37.266,9.262,50.541" transform="translate(4.186 30.226)" fill="#96e0aa"/>
          <path id="Trazado_1759" data-name="Trazado 1759" d="M94.563,190.588c8.788,20.819,1.493,41.16-9.9,55.344S49.8,269.968,35.7,250.94c10.467,16.3,32.666,23.39,55.043-5.008,19.365-28.534,8.675-51.758,3.819-55.344" transform="translate(6.305 33.66)" fill="#96e0aa"/>
          <path id="Trazado_1760" data-name="Trazado 1760" d="M209.4,131.275c8.788,20.819,1.493,41.16-9.9,55.344s-34.867,24.036-48.966,5.008c10.467,16.3,32.666,23.39,55.043-5.008,19.365-28.534,8.675-51.758,3.819-55.344" transform="translate(26.587 23.185)" fill="#96e0aa"/>
          <path id="Trazado_1761" data-name="Trazado 1761" d="M69.91,171.32l-.312,2.5,12.024,2.361-2.7-2.433Z" transform="translate(12.292 30.257)" fill="#96e0aa"/>
          <path id="Trazado_1762" data-name="Trazado 1762" d="M148.065,176.733l-3.471,1.836c-1.094-2.283-2.247-4.683-3.283-6.883v-.012a.2.2,0,0,1,0-.118v-.047q.088-2.7.424-5.471a.907.907,0,0,1,.024-.176,72.728,72.728,0,0,1,6.989-22.8c.165-.341.329-.682.506-1.024.012-.024.024-.035.024-.047,1.035-2.024,2.153-4,3.365-5.907l.212.212,4.295,4.13c-6.46,10.813-8.519,22.332-9.13,31.792a30.73,30.73,0,0,0,.047,4.518" transform="translate(24.956 24.033)" fill="#59b377"/>
          <path id="Trazado_1763" data-name="Trazado 1763" d="M213.2,190.611c-12.625,21.038-29.427,26.956-43.052,26.615a26.728,26.728,0,0,1-17.237-7.554c.165-.541.377-1.165.377-1.165a27.353,27.353,0,0,0,1.4-2.965,17.232,17.232,0,0,0-.341-1.706l-1.012-2.671-3.953-5.236L147.913,194l.518-1.871s-1-2.059-2.4-4.977l2.094-.906c2.518,10.648,10.1,22.109,25.921,22.767,12,0,28.121-8.683,35.416-23.9s10.931-22.65,5.53-43.029c-4.295-10.66-12.072-19.061-23.344-19.685l-.094.624-7.189.271c-3.495.541-13.813,2.989-22.638,13.425-.941,1.106-1.812,2.224-2.636,3.365l-4.236-4.142-.2-.188a68.678,68.678,0,0,1,4.812-5.871c.294-.318.588-.624.894-.93a2.116,2.116,0,0,1,.224-.235,52.762,52.762,0,0,1,11-8.825c.165-.106.341-.212.506-.306a.294.294,0,0,0,.082-.047,39.94,39.94,0,0,1,13.9-4.965l-.012.259,5.448-.212c.035-.318.047-.494.047-.494a32.016,32.016,0,0,1,9.707,1.953,29.986,29.986,0,0,1,16.731,14.284c8.625,16.178,7.824,39.2-4.789,60.243" transform="translate(25.791 20.157)" fill="#59b377"/>
          <path id="Trazado_1764" data-name="Trazado 1764" d="M153.1,136.538l.212.212q-1.694,2.63-3.495,5.695c0,.012-.012.024-.024.047-.2.341-.4.682-.588,1.024-.282.471-.553.953-.835,1.447a71.652,71.652,0,0,0-6.154,21.356.906.906,0,0,0-.024.176c-.212,1.894-.318,3.73-.341,5.518a.2.2,0,0,0,0,.118.718.718,0,0,0-.082-.165c-1.318-2.765-2.447-5.177-3.036-6.542a58.654,58.654,0,0,1,2.33-12.531,84.923,84.923,0,0,1,8.872-19.4Z" transform="translate(24.501 23.576)" fill="#96e0aa"/>
          <path id="Trazado_1765" data-name="Trazado 1765" d="M201.276,116.679c-.282-.071-.565-.129-.835-.188-10.519-2.412-17.649-.424-17.649-.424l.129-.365a66.226,66.226,0,0,0-11.484,4.248.3.3,0,0,1-.082.047c-.2.106-.388.2-.588.306a40.079,40.079,0,0,0-11,8.825,2.116,2.116,0,0,0-.224.235c-.271.306-.541.612-.812.93-1.518,1.765-3.083,3.765-4.695,6.06l-.2-.188-3.165-3.094c7.754-10.742,19.12-20.226,34.757-21.238,0,0,11.237-.271,15.849,4.848" transform="translate(26.61 19.75)" fill="#96e0aa"/>
          <path id="Trazado_1766" data-name="Trazado 1766" d="M92.58,177.29l4.441.224.942-.96-3.475-2.459-1.181.428Z" transform="translate(16.351 30.747)" fill="#96e0aa"/>
          <path id="Trazado_1767" data-name="Trazado 1767" d="M90.9,178.484s3.565-.58,3.725-.478,1.93.478,1.93.478l-1.651,2.786-4.138-.126-.575-.693Z" transform="translate(15.929 31.436)" fill="#96e0aa"/>
          <path id="Trazado_1768" data-name="Trazado 1768" d="M133.583,191.825l4.028.228,4.335,1.719-.642,2.942-1.576-.082s-6.844-1.411-6.735-1.6-.255-1.174-.255-1.46a9.957,9.957,0,0,1,.846-1.744" transform="translate(23.443 33.879)" fill="#96e0aa"/>
          <path id="Trazado_1769" data-name="Trazado 1769" d="M136.32,191.081l6.813,1.758,1.26-.941v-2.419l-6.151-1.681-2.364.361-.351,2.516Z" transform="translate(23.936 33.167)" fill="#96e0aa"/>
          <path id="Trazado_1770" data-name="Trazado 1770" d="M140.611,204.186l12.967-8.545.145,2.777s-11.811,7.627-11.933,7.516-2.5-.761-2.5-.761Z" transform="translate(24.601 34.552)" fill="#59b377"/>
          <path id="Trazado_1771" data-name="Trazado 1771" d="M127.913,202.983l7.584,3.427,2.453-.381,10.112-6.316,8.839-7.4.837-1.515.577,1.515-1.71,2.658L152.51,198.6l-14.2,8.792s-2.273.26-2.407.2-1.646-.329-1.646-.329l-6.994-2.49Z" transform="translate(22.476 33.696)" fill="#96e0aa"/>
          <path id="Trazado_1772" data-name="Trazado 1772" d="M92.211,186.942l13.242-7.008,1.44,1.66L93.028,189.2l-1.04-2.258Z" transform="translate(16.246 31.778)" fill="#96e0aa"/>
          <path id="Trazado_1773" data-name="Trazado 1773" d="M171.208,159.443a7.486,7.486,0,0,1,.962-3.117l-3.133-3.019s-2.127,4.462-1.275,7.588c2.752-1.1,3.446-1.452,3.446-1.452" transform="translate(29.593 27.076)" fill="#59b377"/>
          <path id="Trazado_1774" data-name="Trazado 1774" d="M172.861,149.655a6.455,6.455,0,0,1,6.283,1.068,3.273,3.273,0,0,1-1.454.9L173.99,153l-1.41-1.377Z" transform="translate(30.48 26.362)" fill="#59b377"/>
          <path id="Trazado_1775" data-name="Trazado 1775" d="M57.988,226.734c-3.9-4.591-.611-14.71,5.684-16.16a9.346,9.346,0,0,0,.471-1.871c-6.821-2.161-11.066,5.643-11.425,9.015s1.108,8.812,5.27,9.015" transform="translate(9.301 36.794)" fill="#59b377"/>
          <path id="Trazado_1776" data-name="Trazado 1776" d="M157.811,72.888c-.353,1.283-2.671,1.118-3.071,1.082L152.469,71.7,141.986,58.533s-3.895-1.812-6.742-3.518-5.871-.471-6.424,3.518l-3.495-2.565-.071-.059L119.3,51.532l-.106-.071-.824-.612-1.2-1.212-.024-.024L115.3,47.755a.012.012,0,0,1,.012-.012c2.247-.965,7.472-2.036,14.555-.541,9.672,2.777,17.7,15.39,20.638,19.226a23.1,23.1,0,0,0,7.307,6.46" transform="translate(20.363 8.206)" fill="#59b377"/>
          <path id="Trazado_1777" data-name="Trazado 1777" d="M154.373,87.861c-.012.012-.012.012-.023.012a4.753,4.753,0,0,1-4.989,3.318s-3.142-6.177-5.624-10.378l-1.612-2.706a1.035,1.035,0,0,0,.118-.071,30.59,30.59,0,0,0-3.412-5.6l2.13.412,5.695-3.306.459.4,6.189,11.6a10.592,10.592,0,0,1,1.071,6.318" transform="translate(24.519 12.282)" fill="#59b377"/>
          <path id="Trazado_1778" data-name="Trazado 1778" d="M69.166,158.819,67.7,147.948l-1.757-1.334V157.1Z" transform="translate(11.647 25.894)" fill="#96e0aa"/>
          <path id="Trazado_1779" data-name="Trazado 1779" d="M67.586,140.709l-.165,5.524h-1.56l-.087-5.524Z" transform="translate(11.617 24.851)" fill="#96e0aa"/>
          <path id="Trazado_1780" data-name="Trazado 1780" d="M123.291,192.364c2.991-.308,4.769-3.253,4.769-3.253l-2.266-1.785-1.086,1.068s-1.527,3.018-3.312,3.076c1.978,1.512,1.9.894,1.9.894" transform="translate(21.44 33.084)" fill="#96e0aa"/>
          <path id="Trazado_1781" data-name="Trazado 1781" d="M145.928,131.859c.406.392,2.7-.769,4.769-2.687-1.946-1.9-4.649-4.216-4.649-4.216l-3.12,4.383Z" transform="translate(25.243 22.069)" fill="#96e0aa"/>
          <path id="Trazado_1782" data-name="Trazado 1782" d="M180.076,158.591c-.154,1.445-.216,2.8-1.7,3.878s-6.188,3.53-6.188,3.53l-1.394-1.745,8.3-4.291Z" transform="translate(30.164 28.009)" fill="#96e0aa"/>
          <path id="Trazado_1783" data-name="Trazado 1783" d="M62.819,219.319c-2.316.093-3.049-1.218-2.472-4.205a12.747,12.747,0,0,0,.337-4.221l2.136-.887-1.077,7.231s.141,1.884,1.077,2.081" transform="translate(10.625 37.089)" fill="#96e0aa"/>
          <path id="Trazado_1784" data-name="Trazado 1784" d="M85.741,61.885c5.263.777,15.485.928,20.142-2.483s1.856-6.12,1.856-6.12l-5.855,4.349a35.278,35.278,0,0,1-16.143,4.253" transform="translate(15.143 9.41)" fill="#96e0aa"/>
          <path id="Trazado_1785" data-name="Trazado 1785" d="M106.115,42.979a3.691,3.691,0,0,0,2.5-.907V39.035l-2.919.866Z" transform="translate(18.667 6.894)" fill="#96e0aa"/>
          <path id="Trazado_1786" data-name="Trazado 1786" d="M68.407,35.081c9.329,3.815,38.651-.793,38.651-.793l-.491-3.959-7.137.819S94.716,33.76,84.5,33.527a72.218,72.218,0,0,1-15.845-.567Z" transform="translate(12.081 5.356)" fill="#96e0aa"/>
        </g>
      </g>
      <g id="Grupo_101" data-name="Grupo 101">
        <g id="Grupo_100" data-name="Grupo 100" clip-path="url(#clip-path)">
          <path id="Trazado_1787" data-name="Trazado 1787" d="M127.394,63.181c1.952,2.877,1.518,6.4-.4,11.573s-4.391,14.228-4.33,16.27c-3.3,1.563-16.121-1.127-21.3-6.59-.486-.447.344-1.027,2.3-5.45S106.7,66.236,108.274,61.2s2.974-6.994,5.952-8.628" transform="translate(17.878 9.285)" fill="none" stroke="#2b824a" stroke-linecap="round" stroke-miterlimit="10" stroke-width="1"/>
          <path id="Trazado_1788" data-name="Trazado 1788" d="M125.649,63.063c.764,1.88,1.139,3.846-.581,6.893" transform="translate(22.088 11.138)" fill="none" stroke="#2b824a" stroke-linecap="round" stroke-miterlimit="10" stroke-width="1"/>
          <path id="Trazado_1789" data-name="Trazado 1789" d="M104.191,78c3.98,2.248,9.058,4.87,16.663,5.03" transform="translate(18.401 13.776)" fill="none" stroke="#2b824a" stroke-linecap="round" stroke-miterlimit="10" stroke-width="1"/>
          <path id="Trazado_1790" data-name="Trazado 1790" d="M107.722,47.809a13.783,13.783,0,0,1,7.354-.186c4.075,1,3.985,2.767,3.985,2.767s4.325,2.564,6.789,4.492,16.56,14.658,28.785,39.792c5.4,11.1,8.554,19.308,6.637,27.122" transform="translate(19.025 8.339)" fill="none" stroke="#2b824a" stroke-linecap="round" stroke-miterlimit="10" stroke-width="1"/>
          <path id="Trazado_1791" data-name="Trazado 1791" d="M105.422,69.285s-3.01-7.487-2.527-11.8a19.783,19.783,0,0,1,.718-2.912" transform="translate(18.163 9.638)" fill="none" stroke="#2b824a" stroke-linecap="round" stroke-miterlimit="10" stroke-width="1"/>
          <path id="Trazado_1792" data-name="Trazado 1792" d="M107.218,61.77c1.191-6.536,3.909-10.465,6.487-11.823a6.564,6.564,0,0,1,5.445.066" transform="translate(18.936 8.718)" fill="none" stroke="#2b824a" stroke-linecap="round" stroke-miterlimit="10" stroke-width="1"/>
          <path id="Trazado_1793" data-name="Trazado 1793" d="M102.291,92.313c-2.159-3.836-4.072-6.84-4.864-8.059-4.736-7.147-8.659-13.817-9.463-17.994s-.454-5.435-.454-5.435" transform="translate(15.442 10.743)" fill="none" stroke="#2b824a" stroke-linecap="round" stroke-miterlimit="10" stroke-width="1"/>
          <path id="Trazado_1794" data-name="Trazado 1794" d="M102.52,91.223c-1.459-1.843-7.622-4.756-8.843-6.417S84.123,71.324,83.122,66.857a33.846,33.846,0,0,1-.98-6.877" transform="translate(14.507 10.593)" fill="none" stroke="#2b824a" stroke-linecap="round" stroke-miterlimit="10" stroke-width="1"/>
          <path id="Trazado_1795" data-name="Trazado 1795" d="M107.079,104.613c12.205-1.83,30.074,3.8,42.487,8.047,3.745,1.281,11.341,1.913,13.039.826.68-.435.329-1.916-1.221-1.765s-3.717.482-4.633,0" transform="translate(18.911 18.413)" fill="none" stroke="#2b824a" stroke-linecap="round" stroke-miterlimit="10" stroke-width="1"/>
          <path id="Trazado_1796" data-name="Trazado 1796" d="M106.089,81.35c-2.16,4.661-5.452,16.558-9.686,25.444A157.732,157.732,0,0,1,82.87,129.083" transform="translate(14.622 14.367)" fill="none" stroke="#2b824a" stroke-linecap="round" stroke-miterlimit="10" stroke-width="1"/>
          <path id="Trazado_1797" data-name="Trazado 1797" d="M120.726,85.608c-1.446,3.386-9.035,19.889-14.944,27.707-2.173,2.876-10.045,13.5-14.1,18.068" transform="translate(16.192 15.119)" fill="none" stroke="#2b824a" stroke-linecap="round" stroke-miterlimit="10" stroke-width="1"/>
          <path id="Trazado_1798" data-name="Trazado 1798" d="M88.553,124.067c-2.473-1.583-4.752-2.472-8.133-1.233a9.33,9.33,0,0,0-5.5,4.872,4.26,4.26,0,0,0-.5,3.083" transform="translate(13.127 21.591)" fill="none" stroke="#2b824a" stroke-linecap="round" stroke-miterlimit="10" stroke-width="1"/>
          <path id="Trazado_1799" data-name="Trazado 1799" d="M77.6,127.983a10.2,10.2,0,0,0-.944,2.834" transform="translate(13.539 22.603)" fill="none" stroke="#2b824a" stroke-linecap="round" stroke-miterlimit="10" stroke-width="1"/>
          <path id="Trazado_1800" data-name="Trazado 1800" d="M80.36,128.736a12.237,12.237,0,0,0-.979,2.757" transform="translate(14.02 22.736)" fill="none" stroke="#2b824a" stroke-linecap="round" stroke-miterlimit="10" stroke-width="1"/>
          <path id="Trazado_1801" data-name="Trazado 1801" d="M85.54,136.29c.26-.42.475-1.006.79-1.645.655-1.337.224-2.82,1.668-3.875s2.18-.784,3.246-1.554c1.976-1.426,1.524-4.7,1.524-4.7" transform="translate(15.107 21.99)" fill="none" stroke="#2b824a" stroke-linecap="round" stroke-miterlimit="10" stroke-width="1"/>
          <path id="Trazado_1802" data-name="Trazado 1802" d="M83.215,130.462a11.241,11.241,0,0,0-.9,2.549" transform="translate(14.538 23.041)" fill="none" stroke="#2b824a" stroke-linecap="round" stroke-miterlimit="10" stroke-width="1"/>
          <path id="Trazado_1803" data-name="Trazado 1803" d="M68.623,75.137C64.983,79,53.892,95.861,45.724,111.71" transform="translate(8.075 13.27)" fill="none" stroke="#2b824a" stroke-linecap="round" stroke-miterlimit="10" stroke-width="1"/>
          <path id="Trazado_1804" data-name="Trazado 1804" d="M77.506,84.555c-14.013,12.6-18.9,23.6-22.939,28.521" transform="translate(9.637 14.933)" fill="none" stroke="#2b824a" stroke-linecap="round" stroke-miterlimit="10" stroke-width="1"/>
          <path id="Trazado_1805" data-name="Trazado 1805" d="M51.427,108.411c-2.481-1.628-4.765-2.526-8.145-1.147s-4.368,3.252-5.489,5.269a4.661,4.661,0,0,0-.244,4.035" transform="translate(6.57 18.824)" fill="none" stroke="#2b824a" stroke-linecap="round" stroke-miterlimit="10" stroke-width="1"/>
          <path id="Trazado_1806" data-name="Trazado 1806" d="M40.485,112.749a10,10,0,0,0-.966,3.41" transform="translate(6.98 19.913)" fill="none" stroke="#2b824a" stroke-linecap="round" stroke-miterlimit="10" stroke-width="1"/>
          <path id="Trazado_1807" data-name="Trazado 1807" d="M43.249,114.18a11.761,11.761,0,0,0-.925,2.929" transform="translate(7.475 20.166)" fill="none" stroke="#2b824a" stroke-linecap="round" stroke-miterlimit="10" stroke-width="1"/>
          <path id="Trazado_1808" data-name="Trazado 1808" d="M54.039,115.7c1.533-2.623.62-6.906.62-6.906" transform="translate(9.544 19.214)" fill="none" stroke="#2b824a" stroke-linecap="round" stroke-miterlimit="10" stroke-width="1"/>
          <path id="Trazado_1809" data-name="Trazado 1809" d="M48.64,120.064c.171-.38.34-.828.559-1.306.652-1.428-.081-3.6,2.894-4.895" transform="translate(8.59 20.11)" fill="none" stroke="#2b824a" stroke-linecap="round" stroke-miterlimit="10" stroke-width="1"/>
          <path id="Trazado_1810" data-name="Trazado 1810" d="M46.112,115.266a11.5,11.5,0,0,0-.933,2.992" transform="translate(7.979 20.357)" fill="none" stroke="#2b824a" stroke-linecap="round" stroke-miterlimit="10" stroke-width="1"/>
          <path id="Trazado_1811" data-name="Trazado 1811" d="M81.306,58.484c-4.328,1.331-14.171,17.169-16.381,18.9,1.69,4.471,10.114,12,12.739,12.913,1.413-.935,10.041-10.238,14.95-11.2" transform="translate(11.467 10.329)" fill="none" stroke="#2b824a" stroke-miterlimit="10" stroke-width="1"/>
          <path id="Trazado_1812" data-name="Trazado 1812" d="M133.47,195.821c-3.336,3.693-5.878,6.153-6.39,7.555-.4,1.085,4.838,3.333,7.659,4.019a6.749,6.749,0,0,0,4.874-.713c2.349-1.2,5.437-4.053,12.952-8.725,3.746-2.665,5.854-4.822,4.646-7.837-1.157-2.892-4.333-5.679-5.863-8.11" transform="translate(22.44 32.145)" fill="none" stroke="#2b824a" stroke-linecap="round" stroke-miterlimit="10" stroke-width="1"/>
          <path id="Trazado_1813" data-name="Trazado 1813" d="M135.751,190.242c-.479.612-.986,1.22-1.49,1.8" transform="translate(23.712 33.599)" fill="none" stroke="#2b824a" stroke-linecap="round" stroke-miterlimit="10" stroke-width="1"/>
          <path id="Trazado_1814" data-name="Trazado 1814" d="M137.848,185.341a3.82,3.82,0,0,1-.658,2.89" transform="translate(24.229 32.733)" fill="none" stroke="#2b824a" stroke-linecap="round" stroke-miterlimit="10" stroke-width="1"/>
          <path id="Trazado_1815" data-name="Trazado 1815" d="M136.837,188.026a14.125,14.125,0,0,1,7.114,1.218,1.391,1.391,0,0,1,.752,1.74l-.309.888a1.393,1.393,0,0,1-1.818.847,20.7,20.7,0,0,0-5.725-1.418,1.4,1.4,0,0,1-1.226-1.912c.06-.161.108-.3.146-.427A1.32,1.32,0,0,1,136.837,188.026Z" transform="translate(23.936 33.192)" fill="none" stroke="#2b824a" stroke-linecap="round" stroke-miterlimit="10" stroke-width="1"/>
          <path id="Trazado_1816" data-name="Trazado 1816" d="M97.991,176.523c-.306.664-.919,1.117-1.358,1a8.673,8.673,0,0,0-3.552-.261c-.624.1-.86-.593-.474-1.394.069-.144.126-.269.173-.379a1.812,1.812,0,0,1,.875-.952,6.854,6.854,0,0,1,.835-.269" transform="translate(16.322 30.777)" fill="none" stroke="#2b824a" stroke-linecap="round" stroke-miterlimit="10" stroke-width="1"/>
          <path id="Trazado_1817" data-name="Trazado 1817" d="M91.754,178.517a6.845,6.845,0,0,1,4.528-.125c.375.127.365.687-.009,1.274l-.484.757c-.4.637-1.086,1.071-1.507.957a8.737,8.737,0,0,0-3.512-.249c-.64.1-.772-.569-.266-1.338.092-.138.167-.258.231-.364A2.2,2.2,0,0,1,91.754,178.517Z" transform="translate(15.929 31.449)" fill="none" stroke="#2b824a" stroke-linecap="round" stroke-miterlimit="10" stroke-width="1"/>
          <path id="Trazado_1818" data-name="Trazado 1818" d="M133.973,191.912a14.211,14.211,0,0,1,7.15,1.224,1.4,1.4,0,0,1,.757,1.75l-.312.894a1.4,1.4,0,0,1-1.826.851,20.832,20.832,0,0,0-5.757-1.425,1.411,1.411,0,0,1-1.232-1.923c.061-.161.109-.3.147-.429A1.325,1.325,0,0,1,133.973,191.912Z" transform="translate(23.429 33.879)" fill="none" stroke="#2b824a" stroke-linecap="round" stroke-miterlimit="10" stroke-width="1"/>
          <path id="Trazado_1819" data-name="Trazado 1819" d="M137.8,186.508c4.4,1.09,11.048,1.694,13.147-2.319" transform="translate(24.338 32.53)" fill="none" stroke="#2b824a" stroke-linecap="round" stroke-miterlimit="10" stroke-width="1"/>
          <path id="Trazado_1820" data-name="Trazado 1820" d="M127.341,202.525c-.04.875-.428,2,0,2.371a27.136,27.136,0,0,0,5.9,2.138c3.3.932,5.065.9,8.032-.967s6.607-4.866,10.91-7.391,5.836-5.039,5.929-6.329a1.929,1.929,0,0,0-.569-1.758" transform="translate(22.455 33.66)" fill="none" stroke="#2b824a" stroke-linecap="round" stroke-miterlimit="10" stroke-width="1"/>
          <path id="Trazado_1821" data-name="Trazado 1821" d="M130.261,194.971a16.815,16.815,0,0,1-7.3,6.345c-6.707,2.806-12.791-1.3-13.589-9.162a18.99,18.99,0,0,1,.731-7.25" transform="translate(19.301 32.656)" fill="none" stroke="#2b824a" stroke-linecap="round" stroke-miterlimit="10" stroke-width="1"/>
          <path id="Trazado_1822" data-name="Trazado 1822" d="M130.208,185.283a20.464,20.464,0,0,1-1.31,5.547" transform="translate(22.765 32.723)" fill="none" stroke="#2b824a" stroke-linecap="round" stroke-miterlimit="10" stroke-width="1"/>
          <path id="Trazado_1823" data-name="Trazado 1823" d="M123.764,174.1c3.157.762,5.674,3.271,6.793,7.016" transform="translate(21.858 30.748)" fill="none" stroke="#2b824a" stroke-linecap="round" stroke-miterlimit="10" stroke-width="1"/>
          <path id="Trazado_1824" data-name="Trazado 1824" d="M113.819,178.63a15.611,15.611,0,0,1,5.449-3.958q.274-.115.547-.214" transform="translate(20.102 30.811)" fill="none" stroke="#2b824a" stroke-linecap="round" stroke-miterlimit="10" stroke-width="1"/>
          <path id="Trazado_1825" data-name="Trazado 1825" d="M77.621,173.448c16.661.053,29.9,13.2,32.043,34.263,2.723,26.835-13.616,56.353-36.493,65.93s-43.632-4.412-46.355-31.247,13.615-56.353,36.493-65.93a39.261,39.261,0,0,1,8.838-2.573" transform="translate(4.684 30.633)" fill="none" stroke="#2b824a" stroke-linecap="round" stroke-miterlimit="10" stroke-width="1"/>
          <path id="Trazado_1826" data-name="Trazado 1826" d="M69.863,171.32a31.689,31.689,0,0,1,17.542,8.213" transform="translate(12.339 30.257)" fill="none" stroke="#2b824a" stroke-linecap="round" stroke-miterlimit="10" stroke-width="1"/>
          <path id="Trazado_1827" data-name="Trazado 1827" d="M41.131,270.856C31.894,265.384,25.367,254.7,23.916,240.4c-2.746-27.064,13.732-56.835,36.806-66.5q1.175-.492,2.347-.894,1.05-.362,2.092-.651,1.415-.394,2.818-.661a28.5,28.5,0,0,1,4.769-.56" transform="translate(4.171 30.226)" fill="none" stroke="#2b824a" stroke-linecap="round" stroke-miterlimit="10" stroke-width="1"/>
          <path id="Trazado_1828" data-name="Trazado 1828" d="M75.808,180.539c13.635.411,24.395,11.359,26.157,28.72,2.284,22.5-11.417,47.254-30.6,55.285s-36.587-3.7-38.871-26.2,11.417-47.254,30.6-55.285a32.843,32.843,0,0,1,7.481-2.168" transform="translate(5.695 31.885)" fill="none" stroke="#2b824a" stroke-linecap="round" stroke-miterlimit="10" stroke-width="1"/>
          <path id="Trazado_1829" data-name="Trazado 1829" d="M90.7,185.89a34.432,34.432,0,0,1,7.311,18.5c2.284,22.5-11.417,47.254-30.6,55.285-11.69,4.894-22.719,2.45-30.068-5.3" transform="translate(6.594 32.83)" fill="none" stroke="#2b824a" stroke-linecap="round" stroke-miterlimit="10" stroke-width="1"/>
          <path id="Trazado_1830" data-name="Trazado 1830" d="M76.231,178.54c15.177.457,26.6,12.847,28.428,30.833,2.377,23.423-11.994,49.3-32.033,57.694a33.288,33.288,0,0,1-12.843,2.714,26.862,26.862,0,0,1-13.866-3.768c-8.566-5.095-14.183-14.967-15.412-27.082-2.377-23.423,11.994-49.3,32.033-57.694A39.359,39.359,0,0,1,71,178.778" transform="translate(5.342 31.532)" fill="none" stroke="#2b824a" stroke-miterlimit="10" stroke-width="1"/>
          <path id="Trazado_1831" data-name="Trazado 1831" d="M153.72,135.235c5.987-7.664,14.128-14.43,22.445-17.912,22.877-9.578,43.631,4.412,46.354,31.247S208.9,204.924,186.026,214.5c-13.006,5.444-25.327,3.272-34.038-4.549" transform="translate(26.843 20.188)" fill="none" stroke="#2b824a" stroke-linecap="round" stroke-miterlimit="10" stroke-width="1"/>
          <path id="Trazado_1832" data-name="Trazado 1832" d="M141.307,171.143a67.745,67.745,0,0,1,11.306-35.185" transform="translate(24.956 24.012)" fill="none" stroke="#2b824a" stroke-linecap="round" stroke-miterlimit="10" stroke-width="1"/>
          <path id="Trazado_1833" data-name="Trazado 1833" d="M151.128,132.372c6.063-7.819,13.632-14.058,22.087-17.6,13.249-5.547,26.053-2.425,34.851,5.656" transform="translate(26.691 19.776)" fill="none" stroke="#2b824a" stroke-linecap="round" stroke-miterlimit="10" stroke-width="1"/>
          <path id="Trazado_1834" data-name="Trazado 1834" d="M138.626,165.294a69.063,69.063,0,0,1,11.2-31.765" transform="translate(24.483 23.583)" fill="none" stroke="#2b824a" stroke-linecap="round" stroke-miterlimit="10" stroke-width="1"/>
          <path id="Trazado_1835" data-name="Trazado 1835" d="M159.434,138.551c4.919-6.048,11.532-11.827,18.236-14.633,19.183-8.032,36.587,3.7,38.871,26.2s-11.417,47.254-30.6,55.285c-17.557,7.35-33.624-1.853-37.972-20.718" transform="translate(26.133 21.439)" fill="none" stroke="#2b824a" stroke-linecap="round" stroke-miterlimit="10" stroke-width="1"/>
          <path id="Trazado_1836" data-name="Trazado 1836" d="M147.232,175.737a53.151,53.151,0,0,1,8.989-35.907" transform="translate(25.95 24.696)" fill="none" stroke="#2b824a" stroke-linecap="round" stroke-miterlimit="10" stroke-width="1"/>
          <path id="Trazado_1837" data-name="Trazado 1837" d="M205.445,126.75a34.432,34.432,0,0,1,7.311,18.5c2.284,22.5-11.417,47.254-30.6,55.285-11.69,4.894-22.719,2.45-30.068-5.3" transform="translate(26.86 22.386)" fill="none" stroke="#2b824a" stroke-linecap="round" stroke-miterlimit="10" stroke-width="1"/>
          <path id="Trazado_1838" data-name="Trazado 1838" d="M157.953,137.419c5.725-7.035,12.706-12.62,19.152-15.319,9.438-3.95,18.922-3.578,26.709,1.054,8.565,5.095,14.183,14.966,15.412,27.082,2.378,23.423-11.992,49.3-32.032,57.694a33.285,33.285,0,0,1-12.835,2.7,27.018,27.018,0,0,1-12.407-2.942c-7.923-4.064-13.583-11.92-15.934-22.119" transform="translate(25.789 21.085)" fill="none" stroke="#2b824a" stroke-linecap="round" stroke-miterlimit="10" stroke-width="1"/>
          <path id="Trazado_1839" data-name="Trazado 1839" d="M145.244,176.172a55.235,55.235,0,0,1,9.382-37.462" transform="translate(25.596 24.498)" fill="none" stroke="#2b824a" stroke-linecap="round" stroke-miterlimit="10" stroke-width="1"/>
          <path id="Trazado_1840" data-name="Trazado 1840" d="M62.909,163.739c-.2,3-.238,4.605,2,6.013,1.53.958,1.372,3.285,1.159,8.061s-3.835,45.215-4.551,49.337a1.109,1.109,0,0,0,1.092,1.3,1.1,1.1,0,0,0,1.065-.8c1.04-3.712,7.322-45.054,7.535-49.831s.407-8.581-1.679-10.213c-2.341-1.831-1.92-5.656-1.966-9.7" transform="translate(10.862 27.887)" fill="none" stroke="#2b824a" stroke-linecap="round" stroke-miterlimit="10" stroke-width="1"/>
          <path id="Trazado_1841" data-name="Trazado 1841" d="M64.943,214.494a3.335,3.335,0,0,1,.852,2.007,5.383,5.383,0,0,1-2.922,5.277c-1.831.767-3.492-.353-3.71-2.5A5.386,5.386,0,0,1,62.085,214" transform="translate(10.445 37.795)" fill="none" stroke="#2b824a" stroke-linecap="round" stroke-miterlimit="10" stroke-width="1"/>
          <path id="Trazado_1842" data-name="Trazado 1842" d="M57.161,175.025a42.441,42.441,0,0,1,.668-6.049c.778-2.617,1.859-2.229,2.645-4.244a26.894,26.894,0,0,0,.971-6.258" transform="translate(10.095 27.988)" fill="none" stroke="#2b824a" stroke-linecap="round" stroke-miterlimit="10" stroke-width="1"/>
          <path id="Trazado_1843" data-name="Trazado 1843" d="M56.047,214.645c-.046-7.393.227-20.1.646-30.907" transform="translate(9.898 32.45)" fill="none" stroke="#2b824a" stroke-linecap="round" stroke-miterlimit="10" stroke-width="1"/>
          <path id="Trazado_1844" data-name="Trazado 1844" d="M60.655,182.119c-.759,9.313-1.77,22.83-2.238,31.213" transform="translate(10.317 32.164)" fill="none" stroke="#2b824a" stroke-linecap="round" stroke-miterlimit="10" stroke-width="1"/>
          <path id="Trazado_1845" data-name="Trazado 1845" d="M63.4,167.283c-1.192,1.307-1.624,1.918-2.059,4.935" transform="translate(10.833 29.544)" fill="none" stroke="#2b824a" stroke-linecap="round" stroke-miterlimit="10" stroke-width="1"/>
          <path id="Trazado_1846" data-name="Trazado 1846" d="M66.888,157.125c1.257.725,1.1,1.992-.352,2.83a5.449,5.449,0,0,1-4.9.2,1.579,1.579,0,0,1-.053-2.794" transform="translate(10.732 27.75)" fill="none" stroke="#2b824a" stroke-linecap="round" stroke-miterlimit="10" stroke-width="1"/>
          <line id="Línea_544" data-name="Línea 544" y2="41.034" transform="translate(77.306 146.4)" fill="none" stroke="#2b824a" stroke-linecap="round" stroke-miterlimit="10" stroke-width="1"/>
          <line id="Línea_545" data-name="Línea 545" y1="43.504" transform="translate(72.313 144.404)" fill="none" stroke="#2b824a" stroke-linecap="round" stroke-miterlimit="10" stroke-width="1"/>
          <line id="Línea_546" data-name="Línea 546" x2="7.76" y2="3.302" transform="translate(60.684 133.972)" fill="none" stroke="#2b824a" stroke-linecap="round" stroke-miterlimit="10" stroke-width="1"/>
          <line id="Línea_547" data-name="Línea 547" x1="9.682" y1="4.124" transform="translate(58.29 136.849)" fill="none" stroke="#2b824a" stroke-linecap="round" stroke-miterlimit="10" stroke-width="1"/>
          <line id="Línea_548" data-name="Línea 548" x1="8.862" y1="3.79" transform="translate(78.762 145.715)" fill="none" stroke="#2b824a" stroke-linecap="round" stroke-miterlimit="10" stroke-width="1"/>
          <line id="Línea_549" data-name="Línea 549" x2="8.26" y2="3.532" transform="translate(81.456 142.97)" fill="none" stroke="#2b824a" stroke-linecap="round" stroke-miterlimit="10" stroke-width="1"/>
          <line id="Línea_550" data-name="Línea 550" x1="9.84" y1="4.124" transform="translate(101.771 157.564)" fill="none" stroke="#2b824a" stroke-linecap="round" stroke-miterlimit="10" stroke-width="1"/>
          <line id="Línea_551" data-name="Línea 551" x2="8.75" y2="3.742" transform="translate(106.041 151.407)" fill="none" stroke="#2b824a" stroke-linecap="round" stroke-miterlimit="10" stroke-width="1"/>
          <path id="Trazado_1847" data-name="Trazado 1847" d="M66.852,125.238l-7.035-2.827a3.1,3.1,0,0,1-1.741-2.026l-.493-1.99c-.317-1.277.548-2.064,1.741-1.585l8.06,3.239a2.794,2.794,0,0,1,1.731,3.014l-.532,1.578A1.2,1.2,0,0,1,66.852,125.238Z" transform="translate(10.158 20.605)" fill="none" stroke="#2b824a" stroke-linecap="round" stroke-miterlimit="10" stroke-width="1"/>
          <path id="Trazado_1848" data-name="Trazado 1848" d="M58.093,116.858l3.144-1.259,10.088,4.083-3.285,1.033" transform="translate(10.26 20.416)" fill="none" stroke="#2b824a" stroke-linecap="round" stroke-linejoin="round" stroke-width="1"/>
          <path id="Trazado_1849" data-name="Trazado 1849" d="M69.721,119.069v2.646c-.635-.273-2.31,1.284-2.546,2.809" transform="translate(11.864 21.029)" fill="none" stroke="#2b824a" stroke-linecap="round" stroke-linejoin="round" stroke-width="1"/>
          <path id="Trazado_1850" data-name="Trazado 1850" d="M98.321,135.143c-.649,1.841-2,3.333-3.017,3.333s-1.313-1.492-.664-3.333,2-3.333,3.017-3.333S98.971,133.3,98.321,135.143Z" transform="translate(16.654 23.279)" fill="none" stroke="#2b824a" stroke-linecap="round" stroke-miterlimit="10" stroke-width="1"/>
          <line id="Línea_552" data-name="Línea 552" x1="5.761" y1="2.414" transform="translate(38.134 130.183)" fill="none" stroke="#2b824a" stroke-linecap="round" stroke-miterlimit="10" stroke-width="1"/>
          <line id="Línea_553" data-name="Línea 553" x2="7.66" y2="3.156" transform="translate(40.833 123.584)" fill="none" stroke="#2b824a" stroke-linecap="round" stroke-miterlimit="10" stroke-width="1"/>
          <path id="Trazado_1851" data-name="Trazado 1851" d="M32.855,111.7c-.986-.246-1.313-1.492-.664-3.333s2-3.333,3.016-3.333" transform="translate(5.626 18.55)" fill="none" stroke="#2b824a" stroke-linecap="round" stroke-miterlimit="10" stroke-width="1"/>
          <line id="Línea_554" data-name="Línea 554" y1="13.606" x2="58.201" transform="translate(77.391 157.478)" fill="none" stroke="#2b824a" stroke-linecap="round" stroke-miterlimit="10" stroke-width="1"/>
          <line id="Línea_555" data-name="Línea 555" y1="4.877" x2="20.958" transform="translate(115.512 152.235)" fill="none" stroke="#2b824a" stroke-linecap="round" stroke-miterlimit="10" stroke-width="1"/>
          <line id="Línea_556" data-name="Línea 556" y1="6.607" x2="28.392" transform="translate(77.249 159.408)" fill="none" stroke="#2b824a" stroke-linecap="round" stroke-miterlimit="10" stroke-width="1"/>
          <path id="Trazado_1852" data-name="Trazado 1852" d="M116.975,180.429a2.023,2.023,0,0,1,.948-2.392l.6-.291" transform="translate(20.635 31.392)" fill="none" stroke="#2b824a" stroke-linecap="round" stroke-miterlimit="10" stroke-width="1"/>
          <path id="Trazado_1853" data-name="Trazado 1853" d="M121.249,191.026l1.618,2.66a2.023,2.023,0,0,1-.948,2.392l-4.484,2.161c-.817.394-1.293-.46-.849-1.525l1.792-4.3a3.363,3.363,0,0,1,1.321-1.617" transform="translate(20.56 33.696)" fill="none" stroke="#2b824a" stroke-linecap="round" stroke-miterlimit="10" stroke-width="1"/>
          <path id="Trazado_1854" data-name="Trazado 1854" d="M123.006,184.7a3.887,3.887,0,0,1,.558-.9l2.884-3.462c.713-.857,1.59-.666,1.565.339l-.032,1.227" transform="translate(21.724 31.754)" fill="none" stroke="#2b824a" stroke-linecap="round" stroke-miterlimit="10" stroke-width="1"/>
          <path id="Trazado_1855" data-name="Trazado 1855" d="M116.688,189.251a2.929,2.929,0,0,1-.648,1.455l-2.884,3.462c-.713.857-1.59.666-1.564-.339l.138-5.515a2.214,2.214,0,0,1,1.081-1.8" transform="translate(19.708 32.941)" fill="none" stroke="#2b824a" stroke-linecap="round" stroke-miterlimit="10" stroke-width="1"/>
          <path id="Trazado_1856" data-name="Trazado 1856" d="M66.466,210.469c1.976.8,3.41,2.829,3.7,5.672.481,4.739-2.4,9.952-6.445,11.644s-7.706-.779-8.187-5.518,2.4-9.953,6.445-11.645a7.092,7.092,0,0,1,1.2-.384" transform="translate(9.798 37.13)" fill="none" stroke="#2b824a" stroke-linecap="round" stroke-miterlimit="10" stroke-width="1"/>
          <path id="Trazado_1857" data-name="Trazado 1857" d="M57.421,226.468c-2.629-.327-4.31-2.571-4.659-6.01-.48-4.739,2.4-9.953,6.445-11.644a5.884,5.884,0,0,1,4.239-.247" transform="translate(9.309 36.785)" fill="none" stroke="#2b824a" stroke-linecap="round" stroke-miterlimit="10" stroke-width="1"/>
          <path id="Trazado_1858" data-name="Trazado 1858" d="M118.646,190.132a2.287,2.287,0,0,1-1.1-1.866,4.076,4.076,0,0,1,2.211-4,1.949,1.949,0,0,1,1.717.031" transform="translate(20.757 32.512)" fill="none" stroke="#2b824a" stroke-linecap="round" stroke-miterlimit="10" stroke-width="1"/>
          <path id="Trazado_1859" data-name="Trazado 1859" d="M124.51,187.215a4.077,4.077,0,0,1-2.212,4c-1.386.581-2.644-.267-2.81-1.893a4.08,4.08,0,0,1,2.212-4C123.088,184.74,124.346,185.589,124.51,187.215Z" transform="translate(21.1 32.697)" fill="none" stroke="#2b824a" stroke-linecap="round" stroke-miterlimit="10" stroke-width="1"/>
          <line id="Línea_557" data-name="Línea 557" x1="2.949" y1="1.552" transform="translate(139.108 222.439)" fill="none" stroke="#2b824a" stroke-linecap="round" stroke-miterlimit="10" stroke-width="1"/>
          <line id="Línea_558" data-name="Línea 558" x2="3.174" y2="1.653" transform="translate(142.056 216.734)" fill="none" stroke="#2b824a" stroke-linecap="round" stroke-miterlimit="10" stroke-width="1"/>
          <path id="Trazado_1860" data-name="Trazado 1860" d="M153.582,198.177l-11.9,7.7v-2.2l11.9-7.7Z" transform="translate(25.022 34.612)" fill="none" stroke="#2b824a" stroke-linecap="round" stroke-linejoin="round" stroke-width="1"/>
          <line id="Línea_559" data-name="Línea 559" x1="2.978" y1="0.761" transform="translate(163.723 239.725)" fill="none" stroke="#2b824a" stroke-linecap="round" stroke-miterlimit="10" stroke-width="1"/>
          <path id="Trazado_1861" data-name="Trazado 1861" d="M109.391,183.348,97.97,190.734v-2.2l9.8-6.335" transform="translate(17.303 32.179)" fill="none" stroke="#2b824a" stroke-linecap="round" stroke-linejoin="round" stroke-width="1"/>
          <line id="Línea_560" data-name="Línea 560" x1="5.615" y1="1.435" transform="translate(109.658 221.477)" fill="none" stroke="#2b824a" stroke-linecap="round" stroke-miterlimit="10" stroke-width="1"/>
          <line id="Línea_561" data-name="Línea 561" x1="3.76" y1="0.961" transform="translate(111.258 219.929)" fill="none" stroke="#2b824a" stroke-linecap="round" stroke-miterlimit="10" stroke-width="1"/>
          <line id="Línea_562" data-name="Línea 562" x2="10.626" y2="8.449" transform="translate(145.554 218.713)" fill="none" stroke="#2b824a" stroke-linecap="round" stroke-linejoin="round" stroke-width="1"/>
          <line id="Línea_563" data-name="Línea 563" x2="11.423" y2="5.518" transform="translate(142.835 224.248)" fill="none" stroke="#2b824a" stroke-linecap="round" stroke-linejoin="round" stroke-width="1"/>
          <line id="Línea_564" data-name="Línea 564" x1="37.454" y1="36.562" transform="translate(171.799 147.468)" fill="none" stroke="#2b824a" stroke-linecap="round" stroke-miterlimit="10" stroke-width="1"/>
          <line id="Línea_565" data-name="Línea 565" x2="35.082" y2="33.801" transform="translate(168.382 151.24)" fill="none" stroke="#2b824a" stroke-linecap="round" stroke-miterlimit="10" stroke-width="1"/>
          <path id="Trazado_1862" data-name="Trazado 1862" d="M65.946,146.876l66.7,43.488a4.554,4.554,0,1,1-5.024,7.6L66.035,156.672" transform="translate(11.647 25.94)" fill="none" stroke="#2b824a" stroke-linecap="round" stroke-miterlimit="10" stroke-width="1"/>
          <path id="Trazado_1863" data-name="Trazado 1863" d="M117.636,183.853c.36-.173,4.475-22.863,4.475-22.863" transform="translate(20.776 28.433)" fill="none" stroke="#2b824a" stroke-linecap="round" stroke-miterlimit="10" stroke-width="1"/>
          <line id="Línea_566" data-name="Línea 566" y1="19.321" x2="3.622" transform="translate(143.485 196.376)" fill="none" stroke="#2b824a" stroke-linecap="round" stroke-miterlimit="10" stroke-width="1"/>
          <line id="Línea_567" data-name="Línea 567" x1="12.909" y2="7.17" transform="translate(146.663 214.155)" fill="none" stroke="#2b824a" stroke-linecap="round" stroke-miterlimit="10" stroke-width="1"/>
          <path id="Trazado_1864" data-name="Trazado 1864" d="M144.371,174.887l36.406-18.71a2.722,2.722,0,1,1,2.478,4.846l-36.607,18.619" transform="translate(25.498 27.529)" fill="none" stroke="#2b824a" stroke-linecap="round" stroke-miterlimit="10" stroke-width="1"/>
          <line id="Línea_568" data-name="Línea 568" y1="6.538" x2="11.705" transform="translate(144.73 209.919)" fill="none" stroke="#2b824a" stroke-linecap="round" stroke-miterlimit="10" stroke-width="1"/>
          <path id="Trazado_1865" data-name="Trazado 1865" d="M120.968,116.61c-2.758,8.125-5.456,17.224-6.114,24.706s1.394,13.325,4.686,22.161c2.39,6.41,19.115,28.862,20.68,31.926a5.388,5.388,0,0,0,1.6,2.57,15.675,15.675,0,0,0,12.23-4.391,5.836,5.836,0,0,0-.8-3.162s-10.74-20.262-12.624-27.992c-1.72-7.062-2.993-10.4,1.675-20.537a70.516,70.516,0,0,1,12.983-19.88c4.263-4.836,4.038-9.182,4.038-9.182" transform="translate(20.263 19.927)" fill="none" stroke="#2b824a" stroke-linecap="round" stroke-miterlimit="10" stroke-width="1"/>
          <path id="Trazado_1866" data-name="Trazado 1866" d="M75.8,127.061A14.271,14.271,0,0,1,83.39,116.8c2.284-1.234,6.861-5.88,10.654-8.007" transform="translate(13.387 19.214)" fill="none" stroke="#2b824a" stroke-linecap="round" stroke-miterlimit="10" stroke-width="1"/>
          <path id="Trazado_1867" data-name="Trazado 1867" d="M77.769,139.02a39.03,39.03,0,0,1-1.727-5.976" transform="translate(13.43 23.497)" fill="none" stroke="#2b824a" stroke-linecap="round" stroke-miterlimit="10" stroke-width="1"/>
          <path id="Trazado_1868" data-name="Trazado 1868" d="M90.485,164.964c-3.453-6.753-8.72-16.686-11.355-22.683" transform="translate(13.975 25.128)" fill="none" stroke="#2b824a" stroke-linecap="round" stroke-miterlimit="10" stroke-width="1"/>
          <path id="Trazado_1869" data-name="Trazado 1869" d="M92.177,178.291a9.586,9.586,0,0,0,.947-1.481" transform="translate(16.28 31.227)" fill="none" stroke="#2b824a" stroke-linecap="round" stroke-miterlimit="10" stroke-width="1"/>
          <path id="Trazado_1870" data-name="Trazado 1870" d="M88.349,181.72c.627-.454,1.386-.985,2.171-1.637" transform="translate(15.603 31.805)" fill="none" stroke="#2b824a" stroke-linecap="round" stroke-miterlimit="10" stroke-width="1"/>
          <path id="Trazado_1871" data-name="Trazado 1871" d="M106.736,181.345c-4.335,2.53-9.56,5.341-13.865,7.607" transform="translate(16.402 32.028)" fill="none" stroke="#2b824a" stroke-linecap="round" stroke-miterlimit="10" stroke-width="1"/>
          <path id="Trazado_1872" data-name="Trazado 1872" d="M100.9,137.418c-1.748,11.073,1.623,31.6,2.824,33.468A11.189,11.189,0,0,1,105.406,175a30.412,30.412,0,0,1,4.384,5.82" transform="translate(17.732 24.27)" fill="none" stroke="#2b824a" stroke-linecap="round" stroke-miterlimit="10" stroke-width="1"/>
          <path id="Trazado_1873" data-name="Trazado 1873" d="M118.8,128.553s-11.723-1.161-16.209,4.656" transform="translate(18.119 22.687)" fill="none" stroke="#2b824a" stroke-linecap="round" stroke-miterlimit="10" stroke-width="1"/>
          <path id="Trazado_1874" data-name="Trazado 1874" d="M102.209,170.7a8.145,8.145,0,0,0,2.879-1.334" transform="translate(18.051 29.911)" fill="none" stroke="#2b824a" stroke-linecap="round" stroke-miterlimit="10" stroke-width="1"/>
          <line id="Línea_569" data-name="Línea 569" y1="7.279" x2="13.115" transform="translate(108.233 211.888)" fill="none" stroke="#2b824a" stroke-linecap="round" stroke-miterlimit="10" stroke-width="1"/>
          <path id="Trazado_1875" data-name="Trazado 1875" d="M115.3,47.805c3.279-1.788,9.358-2.271,14.568-.56,5.983,1.965,13.873,9.667,17.694,15.394a64.915,64.915,0,0,0,6.89,8.128,8.716,8.716,0,0,0,3.066,1.932.463.463,0,0,1,.076.83,4.3,4.3,0,0,1-2.846.491c-.587-.079-6.987-7.673-9.8-11.38-1.84-2.421-4.377-5.079-6.661-6.16-4.248-2.008-9.735-4-9.281,2.756" transform="translate(20.362 8.157)" fill="none" stroke="#2b824a" stroke-linecap="round" stroke-miterlimit="10" stroke-width="1"/>
          <path id="Trazado_1876" data-name="Trazado 1876" d="M138.825,72.649c2.444.42,5.549-1.053,7.262-2.918a.6.6,0,0,1,.981.133c2.38,4.761,5.652,10.275,6.527,12.3.926,2.146,1.808,6.922-1.108,8.323-2.184,1.05-3.162.624-3.162.624" transform="translate(24.518 12.28)" fill="none" stroke="#2b824a" stroke-linecap="round" stroke-miterlimit="10" stroke-width="1"/>
          <path id="Trazado_1877" data-name="Trazado 1877" d="M152.429,88.47c2.52-1.4,2.953-5.487,1.693-8.973s-5.709-9.966-5.709-9.966" transform="translate(26.211 12.28)" fill="none" stroke="#2b824a" stroke-linecap="round" stroke-miterlimit="10" stroke-width="1"/>
          <path id="Trazado_1878" data-name="Trazado 1878" d="M120.435,81.023c4.877,3.119,19,5.752,26.549-1.9" transform="translate(21.27 13.974)" fill="none" stroke="#2b824a" stroke-linecap="round" stroke-miterlimit="10" stroke-width="1"/>
          <path id="Trazado_1879" data-name="Trazado 1879" d="M122.273,74.079c3.223,3.9,11.9,7.13,22.444,3.44" transform="translate(21.595 13.083)" fill="none" stroke="#2b824a" stroke-linecap="round" stroke-miterlimit="10" stroke-width="1"/>
          <path id="Trazado_1880" data-name="Trazado 1880" d="M73.466,126.621c-1.3,1.446-1.157,2.7,1.718,3.732s12.666,4.736,13.078,5.812.848,2.559-.445,2.671-.482-.779-2.261-1.41-12.2-4.437-14.426-5.824c-3.085-1.923-1.164-5.13-.052-6.094A13,13,0,0,1,73.466,126.621Z" transform="translate(12.267 22.166)" fill="none" stroke="#2b824a" stroke-linecap="round" stroke-miterlimit="10" stroke-width="1"/>
          <path id="Trazado_1881" data-name="Trazado 1881" d="M57.988,119.28c-1.361,3.407-3.38,5.336-7.083,3.883s-13.315-5.405-15.219-4.855-2.214.952-2.866.3.815-4.524,4.982-3.5c3.51.857,12.527,4.783,14.325,5.037a2.845,2.845,0,0,0,3-2.013" transform="translate(5.77 20.298)" fill="none" stroke="#2b824a" stroke-linecap="round" stroke-miterlimit="10" stroke-width="1"/>
          <line id="Línea_570" data-name="Línea 570" x1="9.531" y1="30.266" transform="translate(56.793 223.19)" fill="none" stroke="#2b824a" stroke-linecap="round" stroke-miterlimit="10" stroke-width="1"/>
          <line id="Línea_571" data-name="Línea 571" x1="1.585" y1="32.665" transform="translate(66.497 217.621)" fill="none" stroke="#2b824a" stroke-linecap="round" stroke-miterlimit="10" stroke-width="1"/>
          <line id="Línea_572" data-name="Línea 572" y1="14.444" x2="1.213" transform="translate(75.128 213.084)" fill="none" stroke="#2b824a" stroke-linecap="round" stroke-miterlimit="10" stroke-width="1"/>
          <line id="Línea_573" data-name="Línea 573" x1="8.593" y2="34.238" transform="translate(76.517 213.085)" fill="none" stroke="#2b824a" stroke-linecap="round" stroke-miterlimit="10" stroke-width="1"/>
          <line id="Línea_574" data-name="Línea 574" x1="24.279" y1="6.484" transform="translate(42.797 244.741)" fill="none" stroke="#2b824a" stroke-linecap="round" stroke-miterlimit="10" stroke-width="1"/>
          <line id="Línea_575" data-name="Línea 575" x2="20.357" y2="17.173" transform="translate(48.424 232.319)" fill="none" stroke="#2b824a" stroke-linecap="round" stroke-miterlimit="10" stroke-width="1"/>
          <line id="Línea_576" data-name="Línea 576" x1="13.703" y2="24.151" transform="translate(78.242 215.057)" fill="none" stroke="#2b824a" stroke-linecap="round" stroke-miterlimit="10" stroke-width="1"/>
          <line id="Línea_577" data-name="Línea 577" x1="21.688" y2="26.326" transform="translate(76.517 219.93)" fill="none" stroke="#2b824a" stroke-linecap="round" stroke-miterlimit="10" stroke-width="1"/>
          <line id="Línea_578" data-name="Línea 578" x2="8.199" y2="25.691" transform="translate(76.796 262.957)" fill="none" stroke="#2b824a" stroke-linecap="round" stroke-miterlimit="10" stroke-width="1"/>
          <line id="Línea_579" data-name="Línea 579" x2="1.697" y2="29.917" transform="translate(74.113 264.634)" fill="none" stroke="#2b824a" stroke-linecap="round" stroke-miterlimit="10" stroke-width="1"/>
          <line id="Línea_580" data-name="Línea 580" x1="1.547" y2="33.153" transform="translate(66.185 264.301)" fill="none" stroke="#2b824a" stroke-linecap="round" stroke-miterlimit="10" stroke-width="1"/>
          <line id="Línea_581" data-name="Línea 581" y1="33.373" x2="8.795" transform="translate(58.061 264.081)" fill="none" stroke="#2b824a" stroke-linecap="round" stroke-miterlimit="10" stroke-width="1"/>
          <line id="Línea_582" data-name="Línea 582" x2="23.831" y2="6.16" transform="translate(76.389 262.957)" fill="none" stroke="#2b824a" stroke-linecap="round" stroke-miterlimit="10" stroke-width="1"/>
          <line id="Línea_583" data-name="Línea 583" x1="18.876" y1="15.924" transform="translate(74.113 264.634)" fill="none" stroke="#2b824a" stroke-linecap="round" stroke-miterlimit="10" stroke-width="1"/>
          <line id="Línea_584" data-name="Línea 584" y1="29.693" x2="16.847" transform="translate(52.478 265.341)" fill="none" stroke="#2b824a" stroke-linecap="round" stroke-miterlimit="10" stroke-width="1"/>
          <line id="Línea_585" data-name="Línea 585" y1="26.017" x2="21.434" transform="translate(46.648 264.743)" fill="none" stroke="#2b824a" stroke-linecap="round" stroke-miterlimit="10" stroke-width="1"/>
          <line id="Línea_586" data-name="Línea 586" x2="26.767" y2="2.791" transform="translate(38.541 257.324)" fill="none" stroke="#2b824a" stroke-linecap="round" stroke-miterlimit="10" stroke-width="1"/>
          <line id="Línea_587" data-name="Línea 587" y1="6.297" x2="27.623" transform="translate(37.939 261.649)" fill="none" stroke="#2b824a" stroke-linecap="round" stroke-miterlimit="10" stroke-width="1"/>
          <line id="Línea_588" data-name="Línea 588" x1="23.279" y2="25.311" transform="translate(42.006 258.632)" fill="none" stroke="#2b824a" stroke-linecap="round" stroke-miterlimit="10" stroke-width="1"/>
          <line id="Línea_589" data-name="Línea 589" y1="18.655" x2="26.098" transform="translate(39.209 257.569)" fill="none" stroke="#2b824a" stroke-linecap="round" stroke-miterlimit="10" stroke-width="1"/>
          <line id="Línea_590" data-name="Línea 590" x1="23.07" y2="25.083" transform="translate(79.678 226.667)" fill="none" stroke="#2b824a" stroke-linecap="round" stroke-miterlimit="10" stroke-width="1"/>
          <line id="Línea_591" data-name="Línea 591" x1="26.145" y2="19.334" transform="translate(79.978 234.122)" fill="none" stroke="#2b824a" stroke-linecap="round" stroke-miterlimit="10" stroke-width="1"/>
          <line id="Línea_592" data-name="Línea 592" x2="25.161" y2="2.625" transform="translate(79.977 252.878)" fill="none" stroke="#2b824a" stroke-linecap="round" stroke-miterlimit="10" stroke-width="1"/>
          <line id="Línea_593" data-name="Línea 593" x1="27.17" y2="7.287" transform="translate(79.678 243.707)" fill="none" stroke="#2b824a" stroke-linecap="round" stroke-miterlimit="10" stroke-width="1"/>
          <path id="Trazado_1882" data-name="Trazado 1882" d="M170.626,153.1c-.166-7.287-.055-17.493.188-28.147" transform="translate(30.121 22.069)" fill="none" stroke="#2b824a" stroke-linecap="round" stroke-miterlimit="10" stroke-width="1"/>
          <path id="Trazado_1883" data-name="Trazado 1883" d="M174.751,123.361c-.61,9.181-1.5,24.858-1.827,33.124" transform="translate(30.54 21.787)" fill="none" stroke="#2b824a" stroke-linecap="round" stroke-miterlimit="10" stroke-width="1"/>
          <path id="Trazado_1884" data-name="Trazado 1884" d="M170.367,159.07a12.237,12.237,0,0,1,1-3.2" transform="translate(30.089 27.529)" fill="none" stroke="#2b824a" stroke-linecap="round" stroke-miterlimit="10" stroke-width="1"/>
          <path id="Trazado_1885" data-name="Trazado 1885" d="M174.447,152.641a8.547,8.547,0,0,1,1.972-1.161c4.018-1.667,7.729.768,8.288,5.441s-2.247,9.811-6.267,11.478a5.568,5.568,0,0,1-7.322-2.385" transform="translate(30.221 26.66)" fill="none" stroke="#2b824a" stroke-linecap="round" stroke-miterlimit="10" stroke-width="1"/>
          <path id="Trazado_1886" data-name="Trazado 1886" d="M171.741,150.332a8.184,8.184,0,0,1,1.267-.664,6.653,6.653,0,0,1,4.242-.244c1.765.427,4.752,2.889,4.752,2.889" transform="translate(30.331 26.349)" fill="none" stroke="#2b824a" stroke-linecap="round" stroke-miterlimit="10" stroke-width="1"/>
          <path id="Trazado_1887" data-name="Trazado 1887" d="M167.617,161.147c-.046-.238-.084-.481-.113-.728a11.715,11.715,0,0,1,1.554-7.111" transform="translate(29.571 27.076)" fill="none" stroke="#2b824a" stroke-linecap="round" stroke-miterlimit="10" stroke-width="1"/>
          <path id="Trazado_1888" data-name="Trazado 1888" d="M171.985,164.834a4.5,4.5,0,0,1-1.618-.525" transform="translate(30.089 29.019)" fill="none" stroke="#2b824a" stroke-linecap="round" stroke-miterlimit="10" stroke-width="1"/>
          <line id="Línea_594" data-name="Línea 594" x1="6.118" y1="18.19" transform="translate(191.236 153.927)" fill="none" stroke="#2b824a" stroke-linecap="round" stroke-miterlimit="10" stroke-width="1"/>
          <line id="Línea_595" data-name="Línea 595" x1="1.884" y1="28.648" transform="translate(200.864 148.437)" fill="none" stroke="#2b824a" stroke-linecap="round" stroke-miterlimit="10" stroke-width="1"/>
          <line id="Línea_596" data-name="Línea 596" y1="33.4" x2="1.034" transform="translate(209.615 143.965)" fill="none" stroke="#2b824a" stroke-linecap="round" stroke-miterlimit="10" stroke-width="1"/>
          <line id="Línea_597" data-name="Línea 597" x1="8.05" y2="33.751" transform="translate(211.38 143.965)" fill="none" stroke="#2b824a" stroke-linecap="round" stroke-miterlimit="10" stroke-width="1"/>
          <line id="Línea_598" data-name="Línea 598" x1="21.488" y1="5.624" transform="translate(177.57 175.171)" fill="none" stroke="#2b824a" stroke-linecap="round" stroke-miterlimit="10" stroke-width="1"/>
          <line id="Línea_599" data-name="Línea 599" x1="17.774" y2="31.743" transform="translate(208.534 145.91)" fill="none" stroke="#2b824a" stroke-linecap="round" stroke-miterlimit="10" stroke-width="1"/>
          <line id="Línea_600" data-name="Línea 600" x1="22.157" y2="27.003" transform="translate(210.499 150.713)" fill="none" stroke="#2b824a" stroke-linecap="round" stroke-miterlimit="10" stroke-width="1"/>
          <line id="Línea_601" data-name="Línea 601" x2="8.627" y2="25.325" transform="translate(211.913 193.128)" fill="none" stroke="#2b824a" stroke-linecap="round" stroke-miterlimit="10" stroke-width="1"/>
          <line id="Línea_602" data-name="Línea 602" x2="2.184" y2="29.491" transform="translate(209.253 194.781)" fill="none" stroke="#2b824a" stroke-linecap="round" stroke-miterlimit="10" stroke-width="1"/>
          <line id="Línea_603" data-name="Línea 603" x1="1.012" y2="32.682" transform="translate(201.846 194.452)" fill="none" stroke="#2b824a" stroke-linecap="round" stroke-miterlimit="10" stroke-width="1"/>
          <line id="Línea_604" data-name="Línea 604" y1="33.282" x2="8.363" transform="translate(193.71 193.852)" fill="none" stroke="#2b824a" stroke-linecap="round" stroke-miterlimit="10" stroke-width="1"/>
          <line id="Línea_605" data-name="Línea 605" x2="23.965" y2="6.071" transform="translate(211.505 193.128)" fill="none" stroke="#2b824a" stroke-linecap="round" stroke-miterlimit="10" stroke-width="1"/>
          <line id="Línea_606" data-name="Línea 606" x1="19.162" y1="15.698" transform="translate(209.253 194.78)" fill="none" stroke="#2b824a" stroke-linecap="round" stroke-miterlimit="10" stroke-width="1"/>
          <line id="Línea_607" data-name="Línea 607" y1="29.271" x2="16.39" transform="translate(188.079 195.477)" fill="none" stroke="#2b824a" stroke-linecap="round" stroke-miterlimit="10" stroke-width="1"/>
          <line id="Línea_608" data-name="Línea 608" y1="25.647" x2="21.044" transform="translate(182.171 194.889)" fill="none" stroke="#2b824a" stroke-linecap="round" stroke-miterlimit="10" stroke-width="1"/>
          <line id="Línea_609" data-name="Línea 609" x2="20.784" y2="2.13" transform="translate(173.511 187.575)" fill="none" stroke="#2b824a" stroke-linecap="round" stroke-miterlimit="10" stroke-width="1"/>
          <line id="Línea_610" data-name="Línea 610" y1="2.047" x2="9.09" transform="translate(173.081 195.999)" fill="none" stroke="#2b824a" stroke-linecap="round" stroke-miterlimit="10" stroke-width="1"/>
          <line id="Línea_611" data-name="Línea 611" x1="16.007" y2="17.439" transform="translate(177.413 196.376)" fill="none" stroke="#2b824a" stroke-linecap="round" stroke-miterlimit="10" stroke-width="1"/>
          <line id="Línea_612" data-name="Línea 612" x1="22.697" y2="24.725" transform="translate(214.618 157.355)" fill="none" stroke="#2b824a" stroke-linecap="round" stroke-miterlimit="10" stroke-width="1"/>
          <line id="Línea_613" data-name="Línea 613" x1="25.87" y2="19.059" transform="translate(214.945 164.703)" fill="none" stroke="#2b824a" stroke-linecap="round" stroke-miterlimit="10" stroke-width="1"/>
          <line id="Línea_614" data-name="Línea 614" x2="25.239" y2="2.587" transform="translate(214.936 183.192)" fill="none" stroke="#2b824a" stroke-linecap="round" stroke-miterlimit="10" stroke-width="1"/>
          <line id="Línea_615" data-name="Línea 615" x1="27.091" y2="7.182" transform="translate(214.605 174.152)" fill="none" stroke="#2b824a" stroke-linecap="round" stroke-miterlimit="10" stroke-width="1"/>
          <path id="Trazado_1889" data-name="Trazado 1889" d="M65.33,36.145a2.81,2.81,0,0,0,2.013,2.278c6.391,1.747,22.024,1.646,32.134-1.515,3.75-1.172,5.987-.149,9.235-1.926,1.694-.927,2.479-4.683,5.167-6.233,3.165-1.826,4.852,2.68,6.032,1.672,1.34-1.142,1.4-5.058.082-11.421-.5-2.421-6.49-13.531-10.662-15.427S86.681-4.394,73.151,8.624C68.946,12.672,63.472,25.365,65.33,36.145Z" transform="translate(11.472 0.088)" fill="none" stroke="#2b824a" stroke-miterlimit="10" stroke-width="1"/>
          <path id="Trazado_1890" data-name="Trazado 1890" d="M105.017,53.9c3.092-3.243,4.161-9.736,3.552-14.6" transform="translate(18.547 6.94)" fill="none" stroke="#2b824a" stroke-linecap="round" stroke-miterlimit="10" stroke-width="1"/>
          <path id="Trazado_1891" data-name="Trazado 1891" d="M68.661,33.047c-.572,11.606,4.4,30.913,19.011,32.3,8.279.784,13.889-2.6,17.9-4.8" transform="translate(12.119 5.836)" fill="none" stroke="#2b824a" stroke-linecap="round" stroke-miterlimit="10" stroke-width="1"/>
          <path id="Trazado_1892" data-name="Trazado 1892" d="M106.551,41.31c4.024-.369,5.143-2.911,5.109-7.248-.018-2.245-1.427-5.257-5.109-3.666-1.161,2.245-.617,7.177-.617,7.177s-3.139.785-3.8.449a27.728,27.728,0,0,1-1.3-7.291" transform="translate(17.809 5.29)" fill="none" stroke="#2b824a" stroke-linecap="round" stroke-miterlimit="10" stroke-width="1"/>
          <path id="Trazado_1893" data-name="Trazado 1893" d="M108.175,44.052c1.566-.532,3.146-2.218,3.606-7.515.493-5.654.455-5.562-.5-10.686" transform="translate(19.105 4.566)" fill="none" stroke="#2b824a" stroke-linecap="round" stroke-miterlimit="10" stroke-width="1"/>
          <path id="Trazado_1894" data-name="Trazado 1894" d="M104.229,36.883c1.037,7.107,1.991,19.415-4.463,23.064l-2.354,1.427a9.019,9.019,0,0,0,5.329-1.846c3.73-3.786,4.466-6.458,4.75-11.223a65.243,65.243,0,0,0-.951-11.876" transform="translate(17.204 6.434)" fill="none" stroke="#2b824a" stroke-linecap="round" stroke-miterlimit="10" stroke-width="1"/>
          <path id="Trazado_1895" data-name="Trazado 1895" d="M105.694,30.692a5.785,5.785,0,0,1,1.227-2.418" transform="translate(18.667 4.994)" fill="none" stroke="#2b824a" stroke-linecap="round" stroke-miterlimit="10" stroke-width="1"/>
          <path id="Trazado_1896" data-name="Trazado 1896" d="M80.669,47.983s-.332-2.28,2.858-.881" transform="translate(14.245 8.239)" fill="none" stroke="#2b824a" stroke-linecap="round" stroke-miterlimit="10" stroke-width="1"/>
          <path id="Trazado_1897" data-name="Trazado 1897" d="M77.924,52.124c2.336,1.76,10.984,1.845,12.173-.507" transform="translate(13.762 9.116)" fill="none" stroke="#2b824a" stroke-linecap="round" stroke-miterlimit="10" stroke-width="1"/>
          <path id="Trazado_1898" data-name="Trazado 1898" d="M83.574,35.946c2.51-1.192,4.7-.331,8.5.338" transform="translate(14.76 6.244)" fill="none" stroke="#2b824a" stroke-linecap="round" stroke-miterlimit="10" stroke-width="1"/>
          <path id="Trazado_1899" data-name="Trazado 1899" d="M78.965,36.262c-1.481-1.021-4.5.619-7.093.918" transform="translate(12.693 6.346)" fill="none" stroke="#2b824a" stroke-linecap="round" stroke-miterlimit="10" stroke-width="1"/>
          <path id="Trazado_1900" data-name="Trazado 1900" d="M76.872,44.07c.081.912-.355,1.651-.975,1.651s-1.187-.739-1.268-1.651.355-1.651.975-1.651,1.187.739,1.268,1.651" transform="translate(13.179 7.492)" fill="#2b824a"/>
          <path id="Trazado_1901" data-name="Trazado 1901" d="M87.518,43.559c.081.913-.355,1.652-.975,1.652s-1.187-.739-1.268-1.652.355-1.651.975-1.651,1.187.739,1.268,1.651" transform="translate(15.059 7.401)" fill="#2b824a"/>
          <path id="Trazado_1902" data-name="Trazado 1902" d="M77.308,25.912c-.515,1.86-2.024,3.065-3.369,2.692s-2.018-2.181-1.5-4.042,2.024-3.066,3.369-2.693S77.824,24.052,77.308,25.912Z" transform="translate(12.763 3.85)" fill="none" stroke="#2b824a" stroke-miterlimit="10" stroke-width="1"/>
          <path id="Trazado_1903" data-name="Trazado 1903" d="M75.719,27.8c-1.5-.192-2.159-2.033-1.679-3.766a3.855,3.855,0,0,1,1.475-2.178" transform="translate(13.049 3.86)" fill="none" stroke="#2b824a" stroke-miterlimit="10" stroke-width="1"/>
          <path id="Trazado_1904" data-name="Trazado 1904" d="M85.861,24.678c.429,1.881-.326,3.659-1.687,3.969s-2.812-.964-3.24-2.845.326-3.659,1.687-3.969S85.431,22.8,85.861,24.678Z" transform="translate(14.272 3.848)" fill="none" stroke="#2b824a" stroke-miterlimit="10" stroke-width="1"/>
          <path id="Trazado_1905" data-name="Trazado 1905" d="M84.97,27.785a3.48,3.48,0,0,1-2.606-2.879,4,4,0,0,1,.429-3.053" transform="translate(14.525 3.859)" fill="none" stroke="#2b824a" stroke-miterlimit="10" stroke-width="1"/>
          <path id="Trazado_1906" data-name="Trazado 1906" d="M90.761,2.192a2.941,2.941,0,0,1-1.868.672c-.678,0-.94-.3-.586-.672a2.941,2.941,0,0,1,1.868-.672C90.853,1.52,91.115,1.821,90.761,2.192Z" transform="translate(15.568 0.268)" fill="none" stroke="#2b824a" stroke-linecap="round" stroke-miterlimit="10" stroke-width="1"/>
          <path id="Trazado_1907" data-name="Trazado 1907" d="M87.471,8.4c-.315-.074-.472-.558-.349-1.079s.479-.884.794-.81.473.558.349,1.079S87.786,8.472,87.471,8.4Z" transform="translate(15.379 1.148)" fill="none" stroke="#2b824a" stroke-linecap="round" stroke-miterlimit="10" stroke-width="1"/>
          <path id="Trazado_1908" data-name="Trazado 1908" d="M81.3,4.854c-.158-.222.188-.739.772-1.152s1.186-.568,1.344-.346-.188.738-.772,1.152S81.46,5.076,81.3,4.854Z" transform="translate(14.352 0.575)" fill="none" stroke="#2b824a" stroke-linecap="round" stroke-miterlimit="10" stroke-width="1"/>
          <path id="Trazado_1909" data-name="Trazado 1909" d="M93.627,3.555c.111-.249.731-.215,1.385.075s1.094.728.984.978-.731.215-1.385-.075S93.516,3.8,93.627,3.555Z" transform="translate(16.533 0.598)" fill="none" stroke="#2b824a" stroke-linecap="round" stroke-miterlimit="10" stroke-width="1"/>
        </g>
      </g>
    </g>
  </g>
</svg>
