<?xml version="1.0" encoding="UTF-8"?><svg id="Capa_2" xmlns="http://www.w3.org/2000/svg" viewBox="0 0 206.86 247.72"><defs><style>.cls-1{fill:#96e0aa;}.cls-2{fill:#2b824a;}.cls-3{fill:#fff;}.cls-4{fill:#59b377;}.cls-5{fill:#ffdc8c;}</style></defs><g id="caminatra"><g id="caminata_contorno"><g><path class="cls-5" d="M206.71,119.27c3.13,53.96-40.72,101.57-93.83,91.54C37.09,196.51,0,136.53,0,82.48S60.45,39.29,114.49,39.29s86.94-10.8,92.21,79.99Z"/><path class="cls-3" d="M153.7,176.15c.93,.56,4.11,2.01,6.84,2.03,.44,2.57-6.04,9.41-6.04,9.41l-4.63-3.54,3.83-7.89Z"/><ellipse class="cls-2" cx="90.86" cy="235.49" rx="27.07" ry="6.18" transform="translate(-86.68 56.07) rotate(-23.6)"/><ellipse class="cls-2" cx="167.94" cy="204.92" rx="15.91" ry="4.07" transform="translate(-67.99 84.37) rotate(-23.6)"/><path class="cls-3" d="M82.66,119.68c-2.2-1.38-2.93-2.89-2.08-5.25,.85-2.36,1.8-5.76,1.69-7.92-.11-2.16,.3-10.92-1.26-16.44-1.56-5.53-3.01-9.7-2.17-12.84,.85-3.14,1.97-6.14,1.97-6.14,0,0-.46-4.08,.53-7.03,.99-2.96,3.72-6.68,3.72-6.68l.47-8.46s-3.57-3.97-3.95-10.22c-.38-6.25,1.35-13.58,1.35-13.58l37.88-1.13s-5.9,29.14-5.7,29.14,9.01,11.63,8.99,11.84-.1,33.44-.1,33.44l-1.35,18.62s-2.48,3.55-2.65,3.62-2.55,2.31-2.73,2.59-13.89,30.71-14.03,30.8-9.1-1.39-9.73-1.33c-.63,.06-6.56-5.35-6.75-5.57s.65-6.75,.67-7.11-4.77-20.34-4.77-20.34Z"/><path class="cls-1" d="M82.58,26.45c.58,.18,1.1,.15,1.63-.1,1.27,1.63,4.61,2.29,8.12,.9,5.28,4.64,12.32,1.61,14.08,.02,.12-5.2-2.42-7.59-2.82-7.72s-9.92,.97-11.25,.88-6.94,.21-7.41,.23-2.75,.42-2.78,.82,1.28,2.76,1.28,2.76l-.84,2.21Z"/><path class="cls-4" d="M86.55,120.69s-2.21,.18-3.64-.86c-.21,.97-.34,3.25-.09,3.8-.42,1.06-.56,1.62-.71,2.79-.16,1.16-1.29,8.4-3.09,12.17-1.57,4.4-5.27,14.46-5.27,14.46,0,0-2.31,5.98-3.26,8.81-.95,2.83-1.52,7.08-1.41,8.64s.28,14.82,.28,14.82c0,0,.64,21.96,.64,22.07s.4,7.06,.33,8.77c-.06,1.71-.35,4.73,.23,5.48s5.04,.93,9.74,1.03,15.02-1.92,18.62-4.65c2.45-2.07,2.87-3.65,1.88-6.07s-2.17-11.73-2.72-16.34c-.55-4.61-1.73-11.66-1.06-17.09,.67-5.43,1.65-10.34,3.21-13.78,1.56-3.44,3.3-7.63,3.32-7.58s3.32,8.8,5.88,11.57c2.57,2.77,32.74,25.26,32.74,25.26,0,0,1.21-.05,2.44-1.12s5.34-5.01,8.07-11.97c2.73-6.96,2.4-7.76,2.08-9.2-.32-1.44-.94-1.11-2.1-1.45-1.16-.34-7.51-2.02-14.24-8.14s-8.58-7.54-9.61-9.47c-1.03-1.92-1.61-5.52-1.81-8s-.12-9.25-1.08-12.1c-.95-2.84-4.65-9.58-6.38-12.25-1.5,.67-6.19,1.93-6.19,1.93,0,0-6.93,14.29-6.98,14.39s-1.55,4.17-1.66,4.81c-.12,.64-1.25,8.06-2.39,8.67-1.14,.6-4.56,.67-4.56,.67l-1.98-.84-1.63-.3-2.11-1.52-2.13-.93-.47-1.47,.52-1.87s-.45-.96-.23-2.14,1.23-3.66,2.18-4.32,3.81-2.21,3.92-2.27,2.3-.4,4.25-5.84c1.96-5.44,2.92-7.43,2.92-7.43,0,0-2.17,.65-3.75-.38-1.22,.71-8.04,2.99-12.7-.75Z"/><path class="cls-4" d="M105.18,27.08c1.25,.75,1.63,4.06,1.67,4.81-.05,.95,.26,1.64,.26,1.64,0,0,2.49-1.87,2.66-1.95s.53-.97,.53-.97c0,0,.87-4.4-.14-8.8-1.01-4.4-3.11-15.74-10.64-20.04-6.2-2.01-13.08-2.04-17.98,3.56-4.9,5.6-2.2,10.69-2.2,10.69-1.94,5.29-.33,8.72,4.01,8.93,.63-.04,.87,.17,.87,.17,0,0,2.61,1.39,5.45-.04,2.18,1.92,6.03,4.73,11.81,2.22,1.95-1.49,3.38-3.2,3.38-3.2,0,0,.61,1.68,.33,3Z"/><path class="cls-4" d="M107.69,3c6.81,8.9,4.45,23.28,4.21,26.63,3.09-.94,6.8,5.64,.28,9.39,.1,2.58-.37,7.44-.37,7.44,0,0-3.49,4.38-6.12,5.03-.21,.6-.44,6.2-.44,6.2,0,0,7.66,3.06,11.54,4.64,3.88,1.58,5.17,5.28,6.07,9.97,.91,4.68-1.01,16.12-.83,18.57,.19,2.45,1.29,7.56,.84,9.19s-1.83,3.57-2.72,4.26c.13,1.59-.17,3.06-.17,3.06l-1.08,.41s-.17,3.74,.4,5.19,2.49,4.89,.24,7.32c.75,1.22,1.32,1.45,1.32,1.45,0,0,6.02-.23,7.2-5.79,1.18-5.55-1.97-9.49-2.91-14.5-.94-5.01-.42-11.77-.17-16.28,.25-4.51,2.22-44.33,2.22-44.33,0,0,2.26-16.91,1.31-23.54S121.63-.48,107.69,3Z"/><path class="cls-4" d="M85.79,49.2s3.02,3.25,9.14,4.12c.23,1.54,.29,2.87,.29,2.87,0,0-7.09-.86-10.17,1.17,.41-3.88,.74-8.17,.74-8.17Z"/><path class="cls-1" d="M101.23,2.37c5.95,4.96,10.25,17.89,9.09,27.78,1.58-.52,1.76-1.02,1.76-1.02,0,0,3.28-16.18-4.39-26.13-2.44-.9-4.31-1.1-6.46-.63Z"/><path class="cls-1" d="M79.51,222.8l-.69,1.67,.56,.73-1.02,2.39-1.25,.41-.7,1.14-.07,.97-1.69,1.08-1.56-.06-1.42,1.26-.06,.85s-3.17,1.33-3.56,2.4-.15,3.22-.15,3.22c0,0-.55,4.32-.49,4.47s6.92,2.89,6.92,2.89c0,0,2.48,.29,7.94-2.33,5.45-2.62,18.84-10.41,18.84-10.41,0,0,.31-1.24,.11-1.89,.32-1.65-.19-3.5-.83-3.63,.17-2.56-3.15-7.16-3.43-8.95-1.36,.71-10.34,3.99-17.47,3.8Z"/><path class="cls-1" d="M151.85,185.59s1.11-3.36,2.14-3.26c1.02,.1,1.87,.54,3.3,2.42,1.25-2.46,.9-7.26,1.06-8.26s1.46-.32,1.7,.27c4.01,.39,7.28,.53,7.28,.53,0,0,.28-.88,1.11-.56s3.26,.88,3.26,.88l1.17,.08s.62,.74,.72,2.7-1.3,23.87-4.79,26.57c-3.2,1.48-10.17,3.78-13.32,3.25-1.08-1.17-.69-2.65-.16-3.08-.38-1.59-.65-3.42,1.66-4.24,.86-1.78,.48-2.37,.48-2.37l-.63-.51,.06-1.78,.46-.34s0-1.17-.06-1.25-1.22,.25-1.22,.25c0,0-.38-2.02-.41-2.13s.85-1.04,.85-1.04c0,0-.64-.92-.66-.89s-.97,.08-.97,.08l-1.59-.77,.02-1.34-2.73-1.77s.01-1.2,.09-1.23,.92-1.72,.92-1.72l.27-.49Z"/><path class="cls-1" d="M95.22,54.59c3.34,.95,8.45,.99,10.3-.5,.48-2.77,.21-2.96,.21-2.96,0,0-3.83,3.07-10.8,2.19-.31,.47,.28,1.27,.28,1.27Z"/><path class="cls-1" d="M104.95,73.96c-.31,1.67-.79,3.42-.43,5.87,.36,2.45,.51,11.11-.45,14.51s-1.47,9.43-1.17,11.87c.3,2.45,1.37,3.41,1.53,5.04-.31,3.69-2.37,10.73-2.37,10.73,.93-.17,1.63-.47,1.63-.47l2.49-9.73,.45-4.55-1.81-.88,.12-2.21s-1.82-2.28-1.4-4.67c.42-2.39,1.38-5.76,1.95-10.71s-.08-11.28-.08-11.28l-.47-3.53Z"/><path class="cls-4" d="M75.21,230.84l1.14-.72s4.19,1.17,5.4,2.15c-.53,.65-2.24,1.37-2.24,1.37l-4.29-2.79Z"/><path class="cls-4" d="M78.37,227.59c1.46,.11,5.46,1.44,6.18,2.47,1.25-1.33,1.99-3.84,1.99-3.84l-7.15-1.02-1.02,2.39Z"/><polygon class="cls-4" points="156.97 202.89 160.57 202.53 160.99 200.17 157.64 200.7 156.97 202.89"/><path class="cls-4" d="M157.46,196.22c-.16,.09,.05,1.44,.05,1.44l3.86-.89-.21-2.34-3.7,1.78Z"/><path class="cls-4" d="M155.67,192.35c.13,.12,.82,1.37,.82,1.37l4.1-2.05-1.45-2.44-3.46,3.12Z"/><path class="cls-4" d="M153.64,190.83c0-.09,3.96-4.38,3.96-4.38,0,0-.47-2.9-2.92-3.97-.9-.12-1.29,.3-1.66,.95s-2.06,4.44-2.26,5.02,.51,.89,.49,1.11,2.32,1.47,2.32,1.47l.07-.2Z"/><path class="cls-2" d="M75.19,245.29c-.15,0-.29-.01-.45-.04-1.88-.38-6.16-1.94-7.31-3.44l-.07-.09-.02-.12c-.19-1.05-.39-2.09,.34-3.4,.13-.24,.44-.33,.68-.2,.24,.13,.33,.44,.2,.68-.53,.97-.42,1.7-.25,2.61,.97,1.11,4.65,2.58,6.64,2.98,.18,.04,.35,.04,.51,0,7.89-2.03,22.39-10.88,24.73-12.43,.59-.31,.87-1.85,.56-2.87-.1-.34-.23-.49-.3-.48-.28,.03-.52-.17-.55-.45-.03-.27,.17-.52,.45-.55,.29-.04,1.01,.03,1.36,1.18,.37,1.23,.16,3.4-1.01,4.02-2.32,1.53-16.96,10.47-24.98,12.54-.17,.04-.34,.06-.51,.06Z"/><path class="cls-2" d="M97.27,53.94c-.51,0-1.04-.02-1.57-.06-5.15-.38-9.03-2.35-11.53-5.86-3.7-5.2-4.21-13.78-1.43-24.15,.07-.27,.34-.42,.61-.35,.27,.07,.43,.35,.35,.61-2.7,10.08-2.24,18.36,1.28,23.31,2.32,3.26,5.94,5.09,10.78,5.44,10.17,.76,15.17-6.23,15.21-6.3,.16-.23,.47-.28,.7-.12,.23,.16,.28,.47,.12,.7-.05,.07-4.85,6.79-14.53,6.79Z"/><path class="cls-2" d="M97.26,28.86c-4.36,0-8.07-2.21-8.91-5.35-.46-1.75-.47-4.26,.55-5.93,.56-.91,1.35-1.48,2.36-1.69,.28-.06,.54,.12,.59,.39s-.12,.54-.39,.59c-.73,.15-1.31,.57-1.72,1.23-.87,1.41-.84,3.66-.44,5.15,.62,2.32,3.52,4.61,7.92,4.61,.12,0,.24,0,.36,0,4.04-.11,7.24-3.26,7.78-7.65,.03-.27,.29-.47,.56-.44,.27,.03,.47,.28,.44,.56-.6,4.89-4.2,8.4-8.75,8.52-.12,0-.24,0-.36,0Z"/><path class="cls-2" d="M86.8,26.45c-2.79,0-3.9-1.9-4.29-2.91-1.04-2.68-.08-6.33,1.86-7.12,.26-.1,.55,.02,.65,.28,.1,.26-.02,.55-.28,.65-1.32,.53-2.2,3.51-1.3,5.83,.87,2.25,3.07,2.84,6.2,1.67,.26-.1,.55,.03,.64,.29,.1,.26-.03,.55-.29,.64-1.25,.47-2.31,.66-3.19,.66Z"/><path class="cls-2" d="M82.67,25.48c-2.14,0-3.81-1.28-4.52-3.52-.86-2.69-.13-6.48,2.54-7.9,.24-.13,.55-.04,.68,.21,.13,.24,.04,.55-.21,.68-2.15,1.15-2.8,4.4-2.06,6.72,.3,.96,1.32,3.15,4.16,2.79,.27-.04,.52,.16,.56,.43,.03,.27-.16,.52-.43,.56-.25,.03-.49,.05-.72,.05Z"/><path class="cls-2" d="M110.23,31.54s-.04,0-.06,0c-.27-.03-.47-.28-.44-.55,.83-7.41-1.28-15.94-3.74-21.12-2.93-6.16-6.61-9.76-15.93-8.68-3.74,.43-7.05,2.52-9.09,5.73-1.84,2.89-2.33,6.25-1.34,9.21,.09,.26-.05,.55-.32,.63s-.54-.05-.63-.32c-1.08-3.25-.55-6.92,1.45-10.07,2.2-3.46,5.78-5.72,9.82-6.19,9.86-1.14,13.91,2.87,16.95,9.24,2.52,5.3,4.69,14.06,3.83,21.66-.03,.26-.25,.44-.5,.44Z"/><path class="cls-2" d="M111.9,30.13s-.07,0-.11-.01c-.27-.06-.44-.33-.38-.6,2.33-10.1-.74-21.66-2.97-24.76-1.54-2.14-3.85-2.76-7.08-1.9-.27,.07-.54-.09-.61-.36s.09-.54,.36-.61c3.62-.96,6.37-.19,8.15,2.29,2.39,3.32,5.56,15.03,3.13,25.57-.05,.23-.26,.39-.49,.39Z"/><path class="cls-2" d="M121.37,121.92c-.8,0-1.44-.2-1.77-.61-.17-.21-.14-.53,.07-.7,.21-.17,.53-.14,.7,.07,.22,.27,1.51,.43,3.18-.24,1.38-.56,4.56-2.36,4.16-7.01-.26-3.03-1.08-5.65-1.88-8.17-1.09-3.44-2.21-7-1.87-11.57,.32-4.37,1.05-18.45,1.7-30.87,.5-9.65,.97-18.77,1.17-21.74,.12-1.76,.34-3.82,.58-6.01,.66-6.12,1.48-13.75,.39-18.98-1.06-5.09-4.09-9.19-8.54-11.54-3.8-2.01-8.16-2.43-11.38-1.1-.25,.11-.55-.01-.65-.27-.11-.25,.02-.55,.27-.65,3.48-1.44,8.17-1.01,12.23,1.14,4.72,2.5,7.93,6.84,9.05,12.22,1.12,5.38,.29,13.09-.38,19.29-.23,2.17-.45,4.23-.57,5.97-.2,2.97-.67,12.08-1.17,21.73-.64,12.42-1.37,26.5-1.7,30.89-.32,4.38,.72,7.69,1.83,11.2,.82,2.58,1.66,5.25,1.93,8.39,.46,5.46-3.54,7.52-4.78,8.02-.91,.37-1.81,.55-2.57,.55Z"/><path class="cls-2" d="M111.92,39.5c-.5,0-.92-.15-1.22-.37-.5-.37-.72-.95-.56-1.48,.08-.26,.35-.41,.62-.34,.26,.08,.42,.36,.34,.62-.04,.13,.04,.28,.19,.39,.33,.24,1.03,.31,1.92-.29,1.6-1.08,2.34-4,1.61-6.38-.31-1-.98-1.65-1.8-1.72-1.07-.08-2.15,.77-2.94,2.31-.12,.25-.43,.34-.67,.22-.25-.12-.34-.43-.22-.67,.98-1.91,2.45-2.97,3.92-2.85,1.22,.11,2.25,1.04,2.67,2.42,.86,2.81-.04,6.17-2,7.5-.68,.46-1.31,.64-1.85,.64Z"/><path class="cls-2" d="M104.36,28.57c-.15,0-.3-.07-.4-.2-.17-.22-.12-.53,.09-.7,.54-.41,.66-1.11,.68-1.49,.05-.72-.16-1.38-.39-1.61-.2-.19-.2-.51,0-.71,.19-.2,.51-.2,.71,0,.47,.47,.75,1.42,.69,2.38-.06,.95-.44,1.74-1.08,2.22-.09,.07-.2,.1-.3,.1Z"/><path class="cls-2" d="M106.97,34.02c-.22,0-.43-.04-.63-.12-.13-.05-.23-.16-.28-.29-.05-.13-.04-.28,.02-.4,.85-1.67,.78-3.47-.19-5.35-.13-.25-.03-.55,.21-.67,.24-.13,.55-.03,.67,.21,1,1.93,1.17,3.81,.5,5.58,.23-.06,.5-.18,.77-.37,.97-.65,1.77-1.82,1.78-2.6,0-.27,.23-.5,.5-.5h0c.28,0,.5,.23,.5,.5-.01,1.26-1.15,2.71-2.22,3.42-.57,.38-1.13,.58-1.63,.58Z"/><path class="cls-2" d="M96.45,71.4c-1.21,0-2.27-.23-3.08-.57-1.41-.6-2.29-1.61-2.48-2.82-.35-2.27,.96-3.65,2-4.76,.49-.52,.95-1.01,1.18-1.51,.73-1.59,.85-6.3,.37-8.3-.06-.27,.1-.54,.37-.6,.27-.07,.54,.1,.6,.37,.53,2.21,.41,7.13-.44,8.95-.3,.65-.82,1.2-1.36,1.78-.99,1.05-2.02,2.14-1.74,3.92,.13,.86,.8,1.59,1.88,2.05,2.02,.87,5.51,.72,8.77-1.56,3.46-2.42,2.64-4.9,2.2-6.24-.13-.4-.23-.68-.21-.94,.06-.77,.08-1.93,.1-3.16,.05-3.46,.13-5.97,.67-6.83,.15-.24,.46-.31,.69-.16,.23,.15,.31,.45,.16,.69-.43,.69-.48,4.08-.51,6.32-.02,1.25-.04,2.42-.1,3.22,0,.07,.09,.34,.16,.55,.49,1.47,1.5,4.53-2.57,7.37-2.35,1.64-4.7,2.24-6.65,2.24Z"/><path class="cls-2" d="M97.33,69.95c-1.72,0-3.35-.31-4.55-.89-1.29-.63-1.96-1.55-1.9-2.6,.02-.28,.24-.51,.53-.47,.28,.02,.49,.25,.47,.53-.05,.79,.7,1.33,1.34,1.64,2.75,1.35,8.29,1.03,11.02-1.38,.21-.18,.52-.16,.71,.04,.18,.21,.16,.52-.04,.71-1.88,1.65-4.84,2.42-7.57,2.42Z"/><path class="cls-2" d="M109.51,53.21c-.23,0-.44-.16-.49-.39-.06-.27,.11-.54,.38-.6,.68-.15,1.52-.34,1.78-4.19,.27-3.97,.83-8.57,.83-8.62,.03-.27,.29-.46,.56-.44,.27,.03,.47,.28,.44,.56,0,.05-.56,4.62-.83,8.57-.26,3.84-1.14,4.78-2.56,5.1-.04,0-.07,.01-.11,.01Z"/><path class="cls-2" d="M114.44,105.18c-3.22,0-6.97-.25-9.45-.94l-.14-.04-.1-.1c-2.96-3.19-1.56-7.54-.53-10.72,1.12-3.46,.97-10.03,.89-13.56v-.24c-.03-.97-.15-1.8-.26-2.54-.28-1.88-.51-3.37,1.15-5.47,.17-.22,.49-.25,.7-.08,.22,.17,.25,.49,.08,.7-1.39,1.75-1.21,2.93-.95,4.7,.11,.76,.24,1.63,.27,2.66v.24c.09,3.59,.24,10.27-.91,13.83-1.01,3.13-2.24,6.93,.2,9.69,4.29,1.15,12.79,1,14.63,.52,.52-.25,2.28-1.69,2.41-4.44,.06-1.25-.15-2.48-.39-3.89-.3-1.75-.63-3.74-.48-6.18,.06-.92,.15-2.09,.26-3.41,.38-4.69,.97-11.78,.3-15.79-.87-5.24-5.31-7.47-7.89-8.34-2.4-.8-4.78-1.8-6.7-2.61-.92-.38-1.76-.74-2.48-1.02-.26-.1-.38-.39-.28-.65s.39-.38,.65-.28c.73,.29,1.57,.64,2.5,1.03,2,.84,4.27,1.79,6.63,2.58,2.79,.93,7.61,3.36,8.56,9.12,.68,4.13,.12,11.01-.29,16.03-.11,1.32-.2,2.48-.26,3.39-.14,2.33,.18,4.25,.47,5.95,.24,1.41,.46,2.75,.4,4.11-.15,3.26-2.27,4.96-3.07,5.33-.91,.24-3.23,.41-5.93,.41Z"/><path class="cls-2" d="M115.76,108.45c-4.12,0-9.52-.6-11.03-1.15l-.29-.1-.04-.3c-.08-.62-.08-2.5,.26-3.34,.1-.26,.4-.38,.65-.27,.26,.1,.38,.4,.27,.65-.21,.5-.26,1.79-.22,2.52,2.59,.73,11.55,1.38,14.17,.69,.51-1.57,.15-2.66,.15-2.68-.09-.26,.05-.54,.31-.63,.26-.09,.54,.05,.63,.31,.02,.06,.52,1.53-.23,3.58l-.08,.22-.22,.08c-.86,.31-2.47,.43-4.33,.43Z"/><path class="cls-2" d="M90.17,144.58c-.13,0-.26-.05-.36-.15-.05-.06-.52-.56-.68-1.11-.14-.5,.06-1.12,.28-1.76,.11-.32,.22-.66,.28-.96,.17-.88,.96-2.89,2.07-3.77,.48-.38,1.28-.81,2.21-1.3,.99-.53,2.12-1.12,3.05-1.78,1.04-.74,2.16-3.54,3.44-6.8,.74-1.87,1.58-3.99,2.54-6.07,2.57-5.55,2.93-10.65,3.12-13.39l.02-.29c.02-.28,.29-.48,.53-.46,.28,.02,.48,.26,.46,.53l-.02,.29c-.2,2.8-.56,8.02-3.21,13.74-.95,2.06-1.79,4.16-2.52,6.02-1.4,3.54-2.51,6.34-3.8,7.25-.98,.69-2.14,1.3-3.15,1.84-.85,.45-1.64,.87-2.05,1.2-.79,.63-1.54,2.3-1.71,3.18-.07,.36-.2,.73-.31,1.08-.15,.43-.33,.96-.27,1.17,.08,.27,.35,.6,.44,.7,.19,.2,.18,.52-.02,.71-.1,.09-.22,.14-.35,.14Z"/><path class="cls-2" d="M98.63,151.35c-.72,0-1.55-.14-2.21-.65-.3-.23-.66-.32-1.43-.35-1.2-.04-2.39-1.16-2.62-1.38l-.13-.13q-.25-.25-1-.45c-1.75-.46-2.06-1.19-2.28-2.09-.18-.74,.3-1.68,1.12-3.13,.23-.41,.45-.81,.62-1.15,.57-1.18,1.01-2.83,1.01-2.85,.07-.27,.34-.43,.61-.36,.27,.07,.43,.34,.36,.61-.02,.07-.46,1.76-1.08,3.03-.18,.36-.41,.78-.65,1.21-.39,.7-1.12,1.99-1.04,2.32,.18,.71,.27,1.1,1.58,1.45,.92,.24,1.05,.31,1.45,.71l.12,.12c.52,.51,1.35,1.07,1.95,1.09,.85,.03,1.45,.13,2,.56,.98,.76,2.7,.33,2.89,.28,.27-.07,.56-.11,.85-.14,.86-.1,1.47-.18,1.84-1.22,.6-1.68,1.7-8.02,1.72-8.08,.02-.08,.32-.93,1.29-3.69,1.04-2.26,9.28-19.13,10.69-21.63,1.33-2.35,2.13-5.28,2.09-7.62,0-.28,.22-.5,.49-.51,.32-.02,.5,.22,.51,.49,.04,2.52-.81,5.64-2.22,8.13-1.4,2.47-9.75,19.59-10.64,21.52-.96,2.71-1.25,3.56-1.26,3.56-.03,.18-1.11,6.41-1.74,8.17-.58,1.62-1.78,1.77-2.66,1.87-.24,.03-.49,.06-.71,.12-.2,.05-.82,.2-1.55,.2Z"/><path class="cls-2" d="M80.09,73.36c-.25,0-.47-.19-.5-.45-.1-.96,.69-6.46,1.37-8.54,.72-2.21,1.81-5.55,3.6-7.24,2.09-1.96,6.98-1.86,10.72-1.44,.27,.03,.47,.28,.44,.55-.03,.28-.29,.47-.55,.44-4.99-.57-8.52-.15-9.92,1.17-1.6,1.51-2.69,4.83-3.34,6.82-.67,2.04-1.4,7.39-1.32,8.13,.03,.28-.17,.52-.45,.55-.02,0-.04,0-.05,0Z"/><path class="cls-2" d="M86.51,121.33c-1.38,0-2.64-.35-3.85-1.07-2.74-1.62-3.59-3.65-2.53-6.04,1.32-2.97,1.39-5.13,1.49-8.4,.01-.47,.03-.97,.05-1.49,.17-4.53-.13-10.97-1.5-15.48l-.14-.46c-1.21-3.98-2.58-8.48-1.24-13.13,.34-1.18,.89-2.61,1.47-4.12,.7-1.83,1.43-3.73,1.89-5.42,.07-.27,.35-.42,.61-.35,.27,.07,.42,.35,.35,.61-.47,1.75-1.21,3.67-1.92,5.52-.57,1.49-1.11,2.89-1.44,4.03-1.26,4.36,.07,8.72,1.24,12.56l.14,.46c1.41,4.63,1.72,11.2,1.54,15.81-.02,.52-.04,1.01-.05,1.48-.1,3.27-.17,5.63-1.57,8.78-.84,1.9-.17,3.41,2.13,4.77,1.58,.94,2.93,.94,3.37,.93h0c.28,0,.5,.22,.5,.5,0,.29-.23,.49-.53,.5Z"/><path class="cls-2" d="M94.27,90.9s-.08,0-.13-.02c-2.39-.63-5.13-2.68-5.49-5.7-.03-.27,.16-.52,.44-.56,.26-.04,.52,.16,.56,.44,.33,2.73,3.02,4.39,4.75,4.85,.27,.07,.43,.34,.36,.61-.06,.22-.26,.37-.48,.37Z"/><path class="cls-2" d="M93.09,123.34c-.98,0-1.98-.1-2.93-.34-4.06-1.05-5.1-2.48-6-5.47-.08-.26,.07-.54,.33-.62,.26-.08,.54,.07,.62,.33,.79,2.64,1.49,3.81,5.29,4.79,3.4,.88,7.5-.31,9.11-.86,.26-.09,.55,.05,.63,.31,.09,.26-.05,.55-.31,.63-1.25,.43-3.95,1.22-6.75,1.22Z"/><path class="cls-2" d="M101.86,122.59c-.38,0-.83-.03-1.32-.13-1.49-.3-3.12-1.61-3.19-1.67-.21-.17-.25-.49-.07-.7,.18-.21,.49-.25,.7-.07,.02,.01,1.51,1.21,2.75,1.46,1.24,.25,2.18,0,2.18,0,.27-.07,.54,.08,.61,.35s-.08,.54-.35,.61c-.03,0-.55,.15-1.33,.15Z"/><path class="cls-2" d="M113.56,122.43c-.24,0-.45-.17-.49-.41-.05-.27,.13-.53,.4-.58,1.5-.28,4.1-1.46,4.29-4.07,.02-.28,.27-.49,.54-.46,.28,.02,.48,.26,.46,.54-.23,3.21-3.32,4.64-5.1,4.98-.03,0-.06,0-.09,0Z"/><path class="cls-2" d="M116.06,121.51c-.27,0-.5-.22-.5-.5,0-.28,.22-.5,.5-.5,1.59-.01,4.01-.82,4.17-3.01,.07-.95-.26-1.69-.68-2.62-.63-1.39-1.41-3.12-1.15-6.28,.02-.28,.26-.48,.54-.46,.28,.02,.48,.26,.46,.54-.24,2.91,.46,4.44,1.06,5.79,.44,.98,.85,1.9,.77,3.1-.19,2.56-2.74,3.92-5.16,3.93h0Z"/><path class="cls-2" d="M95.34,135.9c-.21,0-.41-.14-.48-.35-.82-2.58-1.39-4.71-1.7-6.31-.05-.27,.13-.53,.4-.58,.26-.05,.53,.13,.58,.4,.3,1.57,.86,3.65,1.67,6.2,.08,.26-.06,.54-.33,.63-.05,.02-.1,.02-.15,.02Z"/><path class="cls-2" d="M142.5,194.49c-.62,0-1.24-.41-2.27-1.25-.76-.62-5.16-3.95-10.26-7.81-5.89-4.45-12.56-9.5-15.46-11.77l-.47-.37c-4.4-3.44-6.04-4.73-7.83-8.66-.74-1.64-3.13-7.16-5.77-13.8-.1-.26,.02-.55,.28-.65,.26-.1,.55,.02,.65,.28,2.63,6.62,5.01,12.12,5.75,13.75,1.69,3.71,3.28,4.96,7.54,8.29l.47,.37c2.9,2.27,9.57,7.31,15.45,11.76,5.11,3.86,9.52,7.2,10.29,7.83,1.51,1.24,1.62,1.17,2.35,.73,6.84-4.05,11.45-18.35,11.52-20.18,.06-1.6-.15-1.7-2.89-2.49-9.69-2.79-22.06-15.13-23.48-17.64-1.07-1.9-1.76-5.52-2.09-11.05-.06-.96-.09-1.84-.11-2.67-.1-2.93-.17-5.24-1.34-8.46-1.08-2.97-3-5.93-4.41-8.09-.58-.9-1.09-1.68-1.45-2.31-.13-.24-.05-.54,.19-.68,.24-.13,.54-.05,.68,.19,.34,.6,.83,1.37,1.41,2.25,1.43,2.2,3.39,5.22,4.51,8.3,1.22,3.37,1.31,5.87,1.4,8.77,.03,.83,.06,1.7,.11,2.65,.32,5.3,.98,8.88,1.96,10.62,1.23,2.18,13.47,14.46,22.88,17.17,2.7,.78,3.71,1.07,3.62,3.49-.08,2.15-4.82,16.75-12.01,21-.48,.29-.86,.44-1.23,.44Z"/><path class="cls-2" d="M113.53,122.73c-.22,0-.43-.15-.48-.38-.07-.27,.09-.54,.36-.61,1.86-.48,3.77-1.03,5.67-1.64,.26-.08,.54,.06,.63,.32s-.06,.54-.32,.63c-1.91,.61-3.84,1.17-5.72,1.65-.04,.01-.08,.02-.12,.02Z"/><path class="cls-2" d="M93.96,125.39c-4.4,0-7.82-.45-10.3-.86-.7-.12-1.24-.67-1.34-1.37-.19-1.4-.25-2.53,.11-3.5,.1-.26,.38-.39,.64-.29,.26,.1,.39,.38,.29,.64-.29,.77-.23,1.76-.06,3.01,.04,.27,.24,.48,.51,.52,3.76,.62,9.71,1.34,18,.38,.26-.02,.52,.17,.55,.44,.03,.27-.17,.52-.44,.55-2.95,.34-5.61,.47-7.99,.47Z"/><path class="cls-2" d="M95.02,123.75c-3.31,0-6.91-.34-10.97-1.01-.27-.04-.46-.3-.41-.58,.04-.27,.31-.46,.58-.41,7.08,1.18,12.75,1.31,17.84,.41,.27-.05,.53,.13,.58,.41,.05,.27-.13,.53-.41,.58-2.27,.4-4.65,.6-7.21,.6Z"/><path class="cls-2" d="M80.11,223.32c-4.4,0-8.7-.71-9.64-1.41-.9-.67-.84-1.76-.73-3.56,.07-1.2,.17-2.83,.02-4.99-.33-4.96-1.34-38.71-1.03-42.93,.39-5.41,.71-7.5,2.05-10.97,1.21-3.14,8.59-22.71,9.64-26.8,.73-2.86,.99-4.78,1.17-6.19,.23-1.72,.35-2.67,1.23-3.23,.23-.15,.54-.08,.69,.15,.15,.23,.08,.54-.15,.69-.46,.3-.56,.88-.78,2.52-.18,1.35-.45,3.39-1.19,6.3-1.06,4.14-8.46,23.77-9.68,26.92-1.3,3.37-1.6,5.31-1.99,10.68-.31,4.2,.71,37.84,1.03,42.79,.15,2.21,.05,3.89-.02,5.11-.09,1.63-.12,2.37,.33,2.71,.93,.69,9.07,1.92,14.71,.7,5.35-1.15,11.27-2.57,13.7-4.9,1.5-1.43,1.64-2.59,.65-5.41-1.05-2.99-3.46-22.27-3.66-26.51-.22-4.51,.1-9.14,.87-12.7,.81-3.74,3.26-10.42,5.69-15.53,.12-.25,.42-.35,.67-.24s.36,.42,.24,.67c-2.4,5.05-4.82,11.63-5.62,15.31-.75,3.47-1.06,8-.85,12.43,.22,4.49,2.66,23.52,3.61,26.23,.97,2.78,1.1,4.54-.9,6.46-2.62,2.51-8.69,3.97-14.18,5.15-1.76,.38-3.83,.53-5.88,.53Z"/><path class="cls-2" d="M84.9,58s-.06,0-.09,0c-.27-.05-.45-.31-.4-.58,.96-5.19,.7-8.34,.7-8.37-.02-.28,.18-.52,.45-.54,.26-.02,.52,.18,.54,.45,.01,.13,.28,3.3-.71,8.64-.04,.24-.25,.41-.49,.41Z"/><path class="cls-2" d="M155.58,210.72c-.47,0-.89-.27-1.1-.69-.41-.84-.32-1.87-.16-2.58,.08-.39,.38-.7,.78-.79,.7-.16,1.4-.22,2.22-.3,1.66-.15,3.91-.36,7.69-1.53,1.98-7.84,3.38-19.44,1.9-27.02-1.57,.07-5.64-.4-7.01-.72l-.22-.05-.11-.2c-.14-.25-.54-.45-.74-.4-.09,.03-.12,.25-.11,.46,.2,5.3-.21,6.41-1,8.06-.12,.25-.42,.35-.67,.23-.25-.12-.35-.42-.23-.67,.69-1.43,1.1-2.29,.91-7.58-.07-1.09,.56-1.4,.83-1.47,.63-.18,1.37,.19,1.75,.68,1.61,.33,5.48,.67,6.64,.65,.41-.78,1.35-.64,2.61-.45,.64,.1,2.14,.32,2.42,1.56,.43,5.89-.2,23.29-4.13,29.83l-.07,.11-.11,.06c-1.54,.88-8.34,2.66-12.05,2.8h-.04Zm12.25-33.41c1.62,7.81,.15,19.99-1.92,28.04l-.07,.27-.26,.08c-4.04,1.28-6.42,1.5-8.17,1.66-.78,.07-1.46,.13-2.09,.28-.12,.48-.24,1.34,.06,1.96,.04,.08,.12,.12,.21,.13,3.59-.13,9.94-1.82,11.48-2.61,3.51-6.03,4.43-22.07,3.93-29.05-.08-.33-.56-.56-1.58-.72-1.27-.19-1.51-.17-1.58-.04Z"/><path class="cls-2" d="M155.59,207.38c-.16,0-.31-.07-.41-.21-.9-1.27-.82-2.22-.59-2.79,.38-.95,1.41-1.6,3.05-1.92,1.03-.2,1.93-.31,2.66-.39,1.25-.14,2.08-.24,2.43-.67,.17-.22,.49-.25,.7-.07,.21,.17,.25,.49,.07,.7-.61,.75-1.65,.87-3.09,1.03-.74,.09-1.59,.18-2.58,.38-1.27,.25-2.07,.7-2.31,1.31-.25,.62,.12,1.34,.48,1.84,.16,.22,.11,.54-.12,.7-.09,.06-.19,.09-.29,.09Z"/><path class="cls-2" d="M154.95,193.64c-.22,0-.44-.06-.64-.18-.29-.17-.63-.38-.91-.55-.51-.32-.74-.95-.54-1.5,.65-1.83,2.8-4.18,4.1-5.18,.39-.3,.9-.34,1.33-.12,.47,.25,1.15,.71,1.74,1.46,.21,.27,.3,.6,.25,.94-.05,.35-.24,.67-.53,.88-1.89,1.39-3.22,2.97-3.84,3.78-.24,.31-.6,.48-.96,.48Zm2.78-6.68c-.05,0-.11,.02-.15,.06-1.36,1.04-3.24,3.23-3.77,4.72-.04,.11,.01,.25,.12,.32h0c.27,.17,.62,.38,.9,.55,.1,.06,.22,.04,.29-.05,.66-.86,2.05-2.51,4.04-3.98,.07-.05,.12-.13,.13-.21,0-.05,0-.12-.05-.19-.48-.61-1.03-.99-1.42-1.19-.03-.02-.06-.02-.1-.02Z"/><path class="cls-2" d="M156.64,197.11c-.1,0-.2-.01-.3-.04-.31-.09-.57-.3-.71-.59-.15-.32-.29-.67-.42-1.06-.18-.58-.03-1.19,.41-1.61h0c1.29-1.23,3.48-2.38,5.21-2.72,.54-.11,1.08,.2,1.26,.71,.16,.44,.26,.99,.31,1.66,.05,.72-.4,1.36-1.09,1.57-1.28,.39-2.94,1.17-4.04,1.89-.19,.12-.41,.19-.63,.19Zm-.33-2.57c-.16,.15-.21,.37-.15,.58,.11,.34,.23,.65,.36,.92,.02,.04,.05,.06,.08,.06s.07,.01,.12-.02c1.18-.78,2.91-1.58,4.3-2.01,.24-.07,.4-.3,.38-.55-.04-.57-.12-1.05-.25-1.39-.01-.04-.08-.07-.13-.07-1.54,.31-3.57,1.37-4.72,2.47h0Z"/><path class="cls-2" d="M157.47,201.19c-.23,0-.45-.07-.64-.2-.25-.17-.42-.44-.47-.74-.09-.51-.12-1.07-.14-1.44-.02-.52,.25-1.01,.69-1.26h0c1.14-.66,3.01-1.08,4.77-1.09h0c.74,0,1.32,.57,1.34,1.3,0,.48-.01,1-.04,1.41-.04,.65-.52,1.17-1.17,1.27-1.01,.16-2.88,.46-4.1,.71-.08,.02-.16,.02-.24,.02Zm-.07-2.78h0c-.12,.07-.2,.21-.19,.36,.01,.34,.05,.85,.13,1.32,.07,.09,.1,.11,.16,.1,1.25-.26,3.14-.57,4.16-.72,.18-.03,.31-.17,.32-.35,.02-.38,.05-.88,.04-1.33,0-.18-.15-.32-.34-.32h0c-1.57,0-3.28,.39-4.27,.95Z"/><path class="cls-2" d="M153.64,191.33c-.12,0-.23-.04-.33-.12-.62-.54-1.33-.93-2.11-1.16-.41-.12-.75-.42-.93-.82-.18-.4-.18-.86,0-1.26,.73-1.6,2.11-4.48,3.11-5.77,.41-.52,1.14-.66,1.7-.31,.87,.54,2.43,1.83,3.12,4.45,.07,.27-.09,.54-.36,.61-.26,.07-.54-.09-.61-.36-.6-2.28-1.94-3.39-2.68-3.85-.13-.08-.29-.04-.39,.08-.94,1.21-2.28,4.01-2.99,5.57-.06,.14-.06,.29,0,.43,.06,.13,.17,.23,.31,.27,.91,.28,1.74,.73,2.47,1.36,.21,.18,.23,.5,.05,.71-.1,.12-.24,.17-.38,.17Z"/><path class="cls-2" d="M157.1,203.16c-.15,0-.29-.06-.39-.19-.17-.21-.14-.53,.08-.7,.19-.16,.31-.67,.34-1.52v-.1c.02-.28,.27-.5,.53-.47,.28,.01,.49,.25,.47,.52l-.5-.02,.5,.12c-.02,.56-.07,1.74-.72,2.26-.09,.07-.2,.11-.31,.11Z"/><path class="cls-2" d="M157.51,198.16c-.25,0-.47-.19-.5-.45-.06-.52-.11-.82-.2-1.31-.05-.27,.12-.53,.39-.59,.27-.06,.54,.12,.59,.39,.1,.52,.16,.84,.22,1.39,.03,.27-.17,.52-.44,.55-.02,0-.04,0-.06,0Z"/><path class="cls-2" d="M156.49,194.22c-.18,0-.36-.1-.45-.27-.28-.55-.51-.74-.63-.79-.25-.13-.34-.43-.22-.67,.13-.25,.43-.34,.67-.22,.4,.21,.75,.61,1.06,1.23,.12,.25,.03,.55-.22,.67-.07,.04-.15,.05-.23,.05Z"/><path class="cls-2" d="M159.5,184.59c-.05,0-.11,0-.16-.03-.26-.09-.4-.37-.31-.63,.61-1.76,.8-4.62,.49-7.26-.03-.27,.17-.52,.44-.55,.26-.03,.52,.16,.55,.44,.26,2.22,.25,5.4-.54,7.7-.07,.21-.26,.34-.47,.34Z"/><path class="cls-2" d="M166.56,206.11s-.02,0-.04,0c-.18-.01-.34-.12-.41-.28-.17-.06-.56-.12-.8-.1h-.02c-.27,0-.49-.21-.5-.48,0-.28,.21-.51,.48-.52,.02,0,1.17-.03,1.6,.42,.13,.14,.2,.32,.19,.5-.02,.26-.24,.46-.5,.46Z"/><path class="cls-2" d="M160.61,203.03c-.06,0-.11,0-.17-.03-.26-.09-.39-.38-.3-.64,.24-.65,.42-1.41,.54-2.25,.04-.27,.3-.46,.57-.42,.27,.04,.46,.29,.42,.57-.13,.91-.33,1.73-.59,2.45-.07,.2-.27,.33-.47,.33Z"/><path class="cls-2" d="M161.35,197.43c-.27,0-.49-.21-.5-.49-.02-.79-.09-1.57-.2-2.31-.04-.27,.15-.53,.42-.57,.27-.04,.53,.15,.57,.42,.12,.79,.19,1.6,.21,2.43,0,.28-.21,.51-.49,.51h-.01Z"/><path class="cls-2" d="M160.44,192.2c-.2,0-.39-.12-.47-.32-.38-1-.85-1.7-1.36-2.02-.23-.15-.3-.46-.15-.69s.46-.3,.69-.15c.71,.45,1.3,1.29,1.76,2.51,.1,.26-.03,.55-.29,.65-.06,.02-.12,.03-.18,.03Z"/><path class="cls-2" d="M151.56,190.08c-.1,0-.2-.03-.28-.09-.23-.16-.29-.47-.13-.7,.59-.86,1.27-2.14,1.92-3.37,1.28-2.42,1.81-3.35,2.37-3.53,.26-.08,.54,.06,.63,.32,.08,.26-.06,.54-.32,.63-.28,.19-1.15,1.84-1.79,3.04-.67,1.26-1.36,2.56-1.98,3.47-.1,.14-.25,.22-.41,.22Z"/><path class="cls-2" d="M150.59,179.22c-.07,0-.13-.01-.2-.04-.25-.11-.37-.4-.26-.66,1.34-3.1,2.01-5.85,1.96-7.96,0-.28,.21-.51,.49-.51,.29,.01,.51,.21,.51,.49,.06,2.26-.64,5.16-2.04,8.39-.08,.19-.27,.3-.46,.3Z"/><path class="cls-2" d="M149.32,181.87c-.08,0-.16-.02-.23-.06-.25-.13-.34-.43-.21-.67,.15-.29,.3-.57,.44-.86,.12-.25,.42-.35,.67-.23,.25,.12,.35,.42,.23,.67-.14,.3-.29,.59-.45,.88-.09,.17-.26,.27-.44,.27Z"/><path class="cls-2" d="M140.14,193.03c-.18,0-.35-.09-.44-.26-.13-.24-.04-.55,.2-.68,1.29-.7,2.82-2.08,4.4-4,.18-.21,.49-.24,.7-.07,.21,.18,.24,.49,.07,.7-1.67,2.02-3.29,3.49-4.7,4.24-.08,.04-.16,.06-.24,.06Z"/><path class="cls-2" d="M158.06,178.08c-1.3,0-2.65-.5-3.93-1.05-.25-.11-.37-.4-.26-.66,.11-.25,.4-.37,.66-.26,1.24,.53,2.54,1,3.71,.96h.02c.27,0,.49,.21,.5,.48,.01,.28-.2,.51-.48,.52-.07,0-.15,0-.22,0Z"/><path class="cls-2" d="M151.62,185.94c-.09,0-.18-.02-.26-.07-.25-.15-.54-.31-.68-.36h0c-.08,0-.16-.02-.24-.06-.24-.13-.33-.43-.2-.68,.06-.12,.19-.22,.32-.25,.16-.05,.33-.09,1.31,.5,.24,.14,.31,.45,.17,.69-.09,.16-.26,.24-.43,.24Z"/><path class="cls-2" d="M167.26,208.09c-.21,0-.41-.13-.48-.34-.08-.26,.06-.54,.32-.63l.75-.25c.52-.17,.93-.48,1.16-.88,3.44-5.98,4.02-20.45,3.84-27.27,0-.15-.07-.36-.24-.48-.21-.14-.57-.13-1.03,.04-.26,.1-.55-.04-.64-.29-.1-.26,.04-.55,.29-.64,.98-.36,1.6-.17,1.94,.07,.48,.33,.67,.88,.68,1.28,.18,6.92-.42,21.62-3.97,27.79-.35,.61-.96,1.09-1.71,1.33l-.75,.25c-.05,.02-.1,.02-.16,.02Z"/><path class="cls-2" d="M94.14,217.1c-.2,0-.39-.12-.46-.32-.1-.26,.02-.55,.28-.65,2.47-.98,4.72-2.18,6.69-3.57,.22-.16,.54-.11,.7,.12,.16,.23,.11,.54-.12,.7-2.03,1.44-4.35,2.67-6.9,3.68-.06,.02-.12,.04-.18,.04Z"/><path class="cls-2" d="M89.96,218.47c-.22,0-.42-.15-.48-.37-.07-.27,.09-.54,.36-.61,.38-.1,.75-.21,1.11-.31,.27-.08,.54,.07,.62,.34,.08,.26-.07,.54-.34,.62-.37,.11-.75,.22-1.14,.32-.04,.01-.09,.02-.13,.02Z"/><path class="cls-2" d="M77.74,219.93h0c-2.46-.03-5.02-.24-7.61-.62-.27-.04-.46-.29-.42-.57,.04-.27,.29-.46,.57-.42,2.54,.37,5.05,.58,7.47,.61,.28,0,.5,.23,.49,.51,0,.27-.23,.49-.5,.49Z"/><path class="cls-2" d="M87,226.79c-.12,0-.25-.01-.38-.04-3.08-.63-5.88-.93-7.27-1.05-.31-.03-.6-.18-.79-.42-.19-.25-.28-.56-.23-.88,.07-.48,.21-1.18,.42-1.75,.1-.26,.39-.39,.64-.3,.26,.09,.39,.38,.3,.64-.18,.49-.3,1.12-.37,1.56,0,.05,.01,.09,.03,.11,1.5,.17,4.34,.47,7.47,1.12,.43,.08,.86-.15,1-.56,.25-.72,.31-1.5,.32-2.04,0-.27-.18-.5-.46-.56-.17-.04-.36-.07-.57-.11-.27-.05-.45-.31-.4-.58,.05-.27,.31-.45,.58-.4,.22,.04,.43,.08,.6,.12,.73,.15,1.26,.8,1.25,1.55,0,.61-.08,1.51-.38,2.35-.26,.76-.99,1.25-1.77,1.25Z"/><path class="cls-2" d="M82.73,232.97c-.37,0-.74-.13-1.06-.38-1.26-1.01-3.55-1.76-4.81-2.13-.38-.11-.69-.39-.85-.76-.15-.37-.13-.79,.06-1.14,.33-.61,.78-1.04,1.1-1.3,.22-.18,.51-.27,.79-.23,1.06,.13,4.68,.66,6.59,2.24,.37,.31,.6,.77,.61,1.26,.02,.5-.18,.99-.55,1.33-.33,.31-.69,.6-1.02,.83-.26,.18-.57,.27-.88,.27Zm-4.89-4.94s-.02,0-.03,.01c-.2,.16-.58,.52-.85,1.01-.05,.08-.05,.18-.01,.27,.02,.05,.08,.14,.2,.18,1.33,.38,3.76,1.19,5.16,2.31,.23,.18,.53,.21,.74,.07,.29-.2,.61-.46,.9-.73,.16-.15,.24-.36,.23-.57,0-.21-.1-.39-.25-.52-1.7-1.4-5.08-1.9-6.07-2.02h0Z"/><path class="cls-2" d="M77.63,236.84c-.43,0-.85-.17-1.17-.5-1.2-1.24-2.82-2.26-4.69-2.96-.32-.12-.55-.41-.6-.75-.05-.34,.09-.67,.37-.87,.76-.56,1.59-.89,2.02-1.03,.23-.08,.46-.1,.7-.07h0c2.27,.3,4.56,.92,5.95,3.37,.39,.7,.16,1.58-.52,1.97-.41,.24-.92,.48-1.49,.72-.19,.08-.39,.12-.59,.12Zm-5.39-4.35c1.96,.75,3.66,1.84,4.94,3.15,.18,.19,.44,.25,.65,.16,.53-.22,1-.44,1.37-.66,.2-.12,.27-.4,.15-.62-1.17-2.07-3.2-2.61-5.21-2.87-.09-.01-.17,0-.25,.02-.29,.1-1,.36-1.64,.81Z"/><path class="cls-2" d="M75.04,242.28c-.36,0-.71-.06-1.04-.18-1.7-.62-4.82-2.33-5.73-2.85-.44-.24-.73-.7-.79-1.21-.15-1.28-.34-2.85,1.25-3.94,.56-.38,1.35-.79,2.35-1.3l.64-.33c.25-.13,.55-.03,.67,.21,.13,.25,.03,.55-.21,.67l-.64,.33c-.97,.5-1.74,.89-2.24,1.24-1.04,.71-.99,1.59-.83,2.97,.03,.22,.13,.38,.29,.47,1.85,1.04,4.29,2.31,5.59,2.78,.47,.17,.97,.17,1.44,0,2.75-1.02,9.93-3.68,23.8-12.88,.25-.16,.38-.44,.34-.71-.21-1.48-.51-2.96-1.87-4.9-1.05-1.5-1.39-3.49-1.4-3.58-.04-.27,.14-.53,.41-.57,.28-.05,.53,.14,.58,.41,0,.02,.32,1.85,1.23,3.17,1.48,2.12,1.82,3.79,2.04,5.33,.09,.65-.21,1.31-.78,1.68-13.97,9.26-21.22,11.95-23.95,12.96-.38,.14-.77,.21-1.15,.21Z"/><path class="cls-2" d="M74.88,231.76c-.16,0-.32-.08-.41-.22-.16-.23-.1-.54,.13-.7,.68-.47,1.25-.93,1.74-1.4,.2-.19,.51-.19,.71,0s.19,.51,0,.71c-.53,.52-1.14,1.01-1.87,1.51-.09,.06-.19,.09-.28,.09Z"/><path class="cls-2" d="M78.37,228.09c-.08,0-.17-.02-.24-.06-.24-.13-.33-.44-.2-.68,.38-.7,.69-1.47,.92-2.3,.07-.26,.34-.42,.62-.35,.27,.07,.42,.35,.35,.62-.25,.9-.59,1.75-1.01,2.52-.09,.17-.26,.26-.44,.26Z"/><path class="cls-2" d="M75.03,246.77c-.14,0-.28-.01-.42-.04-1.67-.34-6.38-1.85-7.56-3.41l-.08-.1-.02-.12c-.09-.54,.06-1.72,.65-2.03,.24-.13,.55-.04,.68,.2,.12,.23,.05,.51-.16,.66-.09,.12-.2,.57-.19,.9,1.05,1.16,5.05,2.56,6.88,2.93,.16,.03,.33,.03,.54-.01,8.2-1.61,23.95-11.67,25.39-12.6,.3-.59,.25-1.01,.19-1.14-.22-.07-.37-.28-.36-.52,.02-.28,.27-.49,.54-.46,.28,.02,.53,.2,.69,.49,.24,.44,.3,1.25-.24,2.23l-.06,.11-.1,.07c-.17,.11-17.11,11.1-25.86,12.82-.18,.04-.35,.05-.51,.05Zm26.01-14.76h0Z"/><path class="cls-2" d="M74.46,245.12c-.17,0-.34-.09-.43-.25-.5-.86-.15-1.87-.1-1.98,.1-.26,.38-.39,.64-.29,.26,.1,.39,.38,.3,.64h0c-.07,.19-.19,.75,.03,1.13,.14,.24,.06,.54-.18,.68-.08,.05-.17,.07-.25,.07Z"/><path class="cls-2" d="M84.55,230.56c-.11,0-.22-.04-.32-.11-.21-.17-.25-.49-.07-.7,1.07-1.31,1.57-2.65,1.9-3.67,.08-.26,.37-.41,.63-.33,.26,.08,.41,.36,.33,.63-.35,1.11-.9,2.56-2.08,4-.1,.12-.24,.18-.39,.18Z"/><path class="cls-2" d="M79.49,234.31c-.19,0-.36-.1-.45-.28-.12-.25-.02-.55,.23-.67,.96-.46,1.82-.96,2.56-1.48,.23-.16,.54-.1,.7,.12,.16,.23,.1,.54-.12,.7-.79,.55-1.7,1.08-2.7,1.57-.07,.03-.14,.05-.22,.05Z"/><path class="cls-2" d="M94.62,227.92c-.26,0-.51-.05-.76-.16-.67-.3-1.16-.98-1.34-1.87-.33-1.59,.37-3.39,1.59-4.09,.58-.34,1.22-.38,1.79-.12,.67,.3,1.16,.98,1.34,1.87h0c.33,1.59-.36,3.38-1.59,4.09-.33,.19-.69,.29-1.03,.29Zm.52-5.4c-.17,0-.35,.05-.53,.15-.84,.48-1.35,1.86-1.11,3.01,.12,.57,.4,.99,.77,1.16,.27,.12,.58,.09,.88-.08,.84-.48,1.35-1.86,1.11-3.01h0c-.12-.57-.4-.99-.77-1.16-.11-.05-.23-.07-.35-.07Z"/><path class="cls-2" d="M93.89,227.86c-.99,0-1.84-.8-2.1-2.03-.33-1.59,.36-3.38,1.59-4.09,.48-.28,1-.35,1.49-.23,.27,.07,.43,.34,.36,.61-.07,.27-.34,.43-.61,.36-.24-.06-.49-.02-.74,.13-.84,.48-1.35,1.86-1.11,3.01,.18,.85,.7,1.33,1.3,1.22,.26-.06,.53,.12,.59,.39,.05,.27-.12,.53-.39,.59-.13,.03-.25,.04-.38,.04Z"/><ellipse class="cls-2" cx="86.7" cy="35.07" rx="1.46" ry=".92" transform="translate(45.43 119) rotate(-85.84)"/><ellipse class="cls-2" cx="96.28" cy="35.77" rx="1.46" ry=".92" transform="translate(53.63 129.2) rotate(-85.84)"/><path class="cls-2" d="M92.32,41.28c-.06,0-.13-.01-.19-.04-.37-.15-.68-.29-.94-.42-.28-.13-.6-.28-.73-.3,0,.02-.04,.09-.08,.23-.08,.26-.36,.41-.63,.33-.26-.08-.41-.36-.33-.63,.1-.31,.26-.69,.64-.86,.45-.2,.91,.02,1.55,.32,.25,.12,.54,.26,.89,.4,.25,.1,.38,.4,.27,.65-.08,.19-.27,.31-.46,.31Z"/><path class="cls-2" d="M92.39,45.94c-2.55,0-4.63-.6-4.93-.74-.25-.12-.36-.42-.24-.67,.12-.25,.42-.35,.67-.24,.34,.16,4.55,1.28,8.22,.11,.26-.08,.54,.06,.63,.33s-.06,.54-.33,.63c-1.35,.43-2.75,.58-4.02,.58Z"/><path class="cls-2" d="M92.02,48.27c-1.04,0-2.15-.15-3.03-.45l-.18-.1c-.37-.33-.3-.87-.24-1.39,.03-.23,.09-.75,0-.85-.22-.17-.27-.48-.1-.7,.17-.22,.48-.27,.7-.1,.56,.42,.46,1.17,.39,1.77-.02,.15-.04,.36-.04,.49,1.45,.42,3.29,.4,4.21,.12,.7-.21,1.78-1.6,2.29-2.42,.15-.24,.45-.31,.69-.16,.23,.15,.31,.45,.16,.69-.16,.25-1.55,2.47-2.85,2.85-.55,.16-1.25,.24-2,.24Z"/><path class="cls-2" d="M84.41,31.5c-.16,0-.32-.08-.42-.23-.15-.23-.09-.54,.15-.69,1.68-1.1,3.81-1.17,4.82-.61,.24,.13,.33,.44,.19,.68-.14,.24-.44,.32-.68,.19-.65-.37-2.41-.32-3.79,.58-.08,.05-.18,.08-.27,.08Z"/><path class="cls-2" d="M99.73,32.79c-.11,0-.22-.04-.32-.11-1.56-1.27-3.49-1.91-4.49-1.5-.25,.11-.55-.01-.65-.27-.11-.25,.01-.55,.27-.65,1.36-.57,3.62,.11,5.5,1.64,.21,.17,.25,.49,.07,.7-.1,.12-.24,.18-.39,.18Z"/></g></g></g></svg>