<?xml version="1.0" encoding="UTF-8"?><svg id="Capa_2" xmlns="http://www.w3.org/2000/svg" viewBox="0 0 272.14 236.24"><defs><style>.cls-1{fill:#96e0aa;}.cls-2{fill:#2b824a;}.cls-3{fill:#59b377;}.cls-4{fill:#ffdc8c;}</style></defs><g id="carro_diesel"><g><path class="cls-4" d="M272.14,110.53c0,72.47-41.38,125.72-113.85,125.72S9.71,182.99,9.71,110.53,31.51-13.76,101.27,5.88c70.21,19.77,170.87,32.18,170.87,104.65Z"/><path class="cls-2" d="M263.51,102.81c3.87,2.21,3.88,7.78,.01,10L84.06,216.05c-4.6,2.64-10.26,2.63-14.85-.02L2.24,177.88c-2.98-1.7-2.99-5.99-.01-7.7L191.13,61.54l72.38,41.27Z"/><g><path class="cls-1" d="M69.28,68.67s.89-1.24,2.71-.32,4.67,1.87,4.67,1.87c0,0,1.24,.26,1.11,2.25s-.24,3.55-.24,3.55c0,0-.06,2.49-2.2,3.25-1.48-.81-6.71-3.81-6.71-3.81,0,0-1.34-1.59-.27-4.49,.67-1.38,.93-2.29,.93-2.29Z"/><path class="cls-2" d="M76.64,78.63c-.2,0-.41-.06-.61-.17l.5-.87c.1,.06,.14,.04,.15,.03,.08-.04,.25-.25,.28-.73l.3-4.14c.07-.93-.38-1.88-.81-2.08l-5.05-2.26c-.37-.17-.72-.18-1.04-.04-.45,.2-.83,.7-1.08,1.41l-.62,1.83c-.09,.25-.09,.61,0,.96l-.97,.25c-.14-.53-.13-1.09,.02-1.53l.62-1.83c.34-1,.9-1.69,1.62-2,.58-.25,1.21-.23,1.84,.05l5.06,2.26c.87,.39,1.5,1.76,1.4,3.06l-.3,4.14c-.05,.73-.35,1.29-.81,1.54-.16,.09-.33,.13-.51,.13Z"/><path class="cls-2" d="M75.42,79.78c-.19,0-.38-.05-.57-.16l-6.49-3.73c-.73-.42-1.12-1.69-.81-2.61l.55-1.6c.3-.89,.81-1.51,1.45-1.79,.52-.23,1.09-.21,1.66,.04l4.42,1.98c.79,.36,1.35,1.56,1.26,2.74l-.26,3.62c-.05,.66-.32,1.17-.74,1.4-.15,.08-.31,.12-.47,.12Zm-5.1-9.05c-.13,0-.25,.03-.37,.08-.38,.16-.7,.59-.91,1.2l-.55,1.6c-.16,.48,.08,1.26,.36,1.42l6.49,3.73c.11,.03,.25-.15,.28-.56l.26-3.62c.06-.78-.32-1.6-.67-1.75l-4.42-1.98c-.17-.07-.33-.11-.48-.11Z"/><polygon class="cls-2" points="76.07 79.61 75.31 78.96 77.05 76.93 77.81 77.58 76.07 79.61"/><rect class="cls-2" x="66.9" y="72.2" width="2.31" height="1" transform="translate(-10.23 134.25) rotate(-85.07)"/><rect class="cls-2" x="69.33" y="68.62" width="2.5" height="1" transform="translate(-21.18 105.71) rotate(-66.14)"/><rect class="cls-2" x="75.32" y="70.95" width="2.3" height="1" transform="translate(-25.72 94.01) rotate(-55.5)"/></g><g><ellipse class="cls-2" cx="71.06" cy="165.43" rx="27.81" ry="15.73" transform="translate(-108.98 166.04) rotate(-66.95)"/><polygon class="cls-2" points="60.04 190.96 86.04 205.97 122.31 157.68 82.32 140.01 60.04 190.96"/><g><ellipse class="cls-2" cx="97.56" cy="180.62" rx="27.81" ry="15.73" transform="translate(-106.84 199.67) rotate(-66.95)"/><ellipse class="cls-3" cx="97.56" cy="180.62" rx="5.45" ry="3.09" transform="translate(-106.84 199.67) rotate(-66.95)"/><g><ellipse class="cls-1" cx="97.34" cy="178.23" rx=".81" ry=".46" transform="translate(-104.77 198.01) rotate(-66.95)"/><ellipse class="cls-1" cx="95.6" cy="181.24" rx=".81" ry=".46" transform="translate(-108.6 198.25) rotate(-66.95)"/><ellipse class="cls-1" cx="96.45" cy="183.79" rx=".81" ry=".46" transform="translate(-110.43 200.58) rotate(-66.95)"/><ellipse class="cls-1" cx="98.88" cy="182.25" rx=".81" ry=".46" transform="translate(-107.54 201.88) rotate(-66.95)"/><ellipse class="cls-1" cx="99.37" cy="178.85" rx=".81" ry=".46" transform="translate(-104.11 200.25) rotate(-66.95)"/></g><polygon class="cls-1" points="97.89 179.5 97.08 179.97 96.67 181.14 97.08 181.84 97.89 181.37 98.3 180.2 97.89 179.5"/><g><path class="cls-3" d="M97.26,175.21v-13.31c-1.57,.9-2.49,2.32-2.49,2.32l2.16,11.35,.32-.36Z"/><path class="cls-3" d="M97.86,174.86v-13.31c1.57-.9,2.49-.55,2.49-.55l-2.16,13.84h-.32Z"/></g><g><path class="cls-3" d="M97.86,186.04v13.31c1.57-.9,2.49-2.32,2.49-2.32l-2.16-11.35-.32,.36Z"/><path class="cls-3" d="M97.26,186.39v13.31c-1.57,.9-2.49,.55-2.49,.55l2.16-13.84h.32Z"/></g><g><path class="cls-3" d="M101.75,177.8l9.98-5.76c0-2.09-.66-2.93-.66-2.93l-9.45,8.34,.13,.35Z"/><path class="cls-3" d="M101.75,178.61l9.98-5.76c0,2.09-.66,3.7-.66,3.7l-9.45,2.57,.13-.51Z"/></g><g><path class="cls-3" d="M93.37,183.45l-9.98,5.76c0,2.09,.66,2.93,.66,2.93l9.45-8.34-.13-.35Z"/><path class="cls-3" d="M93.37,182.64l-9.98,5.76c0-2.09,.66-3.7,.66-3.7l9.45-2.57-.13,.51Z"/></g><g><path class="cls-3" d="M100.31,174.8l7.06-13.48c-1.11-.84-2.23-.43-2.23-.43l-5.15,13.92h.32Z"/><path class="cls-3" d="M100.74,175.12l7.06-13.48c1.11,.84,1.29,2.23,1.29,2.23l-8.21,11.61-.14-.35Z"/></g><g><path class="cls-3" d="M94.81,186.45l-7.06,13.48c1.11,.84,2.23,.43,2.23,.43l5.15-13.92h-.32Z"/><path class="cls-3" d="M94.39,186.13l-7.06,13.48c-1.11-.84-1.29-2.23-1.29-2.23l8.21-11.61,.14,.35Z"/></g><g><path class="cls-3" d="M100.74,182.46l7.06,5.33c1.11-2.12,1.29-3.71,1.29-3.71l-8.21-2.13-.14,.51Z"/><path class="cls-3" d="M100.31,183.27l7.06,5.33c-1.11,2.12-2.23,3-2.23,3l-5.15-7.97,.32-.37Z"/></g><g><path class="cls-3" d="M94.39,178.79l-7.06-5.33c-1.11,2.12-1.29,3.71-1.29,3.71l8.21,2.13,.14-.51Z"/><path class="cls-3" d="M94.81,177.98l-7.06-5.33c1.11-2.12,2.23-3,2.23-3l5.15,7.97-.32,.37Z"/></g></g></g><g><ellipse class="cls-2" cx="199.12" cy="94.31" rx="27.81" ry="15.73" transform="translate(34.38 240.6) rotate(-66.95)"/><polygon class="cls-2" points="188.1 119.84 214.1 134.85 257.44 81.76 210.39 68.89 188.1 119.84"/><g><ellipse class="cls-2" cx="225.63" cy="109.5" rx="27.81" ry="15.73" transform="translate(36.52 274.24) rotate(-66.95)"/><ellipse class="cls-3" cx="225.63" cy="109.5" rx="5.45" ry="3.09" transform="translate(36.52 274.24) rotate(-66.95)"/><g><ellipse class="cls-1" cx="225.4" cy="107.11" rx=".81" ry=".46" transform="translate(38.59 272.58) rotate(-66.95)"/><ellipse class="cls-1" cx="223.67" cy="110.12" rx=".81" ry=".46" transform="translate(34.76 272.81) rotate(-66.95)"/><ellipse class="cls-1" cx="224.51" cy="112.67" rx=".81" ry=".46" transform="translate(32.93 275.14) rotate(-66.95)"/><ellipse class="cls-1" cx="226.94" cy="111.13" rx=".81" ry=".46" transform="translate(35.83 276.44) rotate(-66.95)"/><ellipse class="cls-1" cx="227.43" cy="107.73" rx=".81" ry=".46" transform="translate(39.25 274.82) rotate(-66.95)"/></g><polygon class="cls-1" points="225.95 108.38 225.14 108.84 224.73 110.02 225.14 110.72 225.95 110.25 226.36 109.08 225.95 108.38"/><g><path class="cls-3" d="M225.32,104.09v-13.31c-1.57,.9-2.49,2.32-2.49,2.32l2.16,11.35,.32-.36Z"/><path class="cls-3" d="M225.93,103.74v-13.31c1.57-.9,2.49-.55,2.49-.55l-2.16,13.84h-.32Z"/></g><g><path class="cls-3" d="M225.93,114.92v13.31c1.57-.9,2.49-2.32,2.49-2.32l-2.16-11.35-.32,.36Z"/><path class="cls-3" d="M225.32,115.27v13.31c-1.57,.9-2.49,.55-2.49,.55l2.16-13.84h.32Z"/></g><g><path class="cls-3" d="M229.82,106.68l9.98-5.76c0-2.09-.66-2.93-.66-2.93l-9.45,8.34,.13,.35Z"/><path class="cls-3" d="M229.82,107.49l9.98-5.76c0,2.09-.66,3.7-.66,3.7l-9.45,2.57,.13-.51Z"/></g><g><path class="cls-3" d="M221.43,112.33l-9.98,5.76c0,2.09,.66,2.93,.66,2.93l9.45-8.34-.13-.35Z"/><path class="cls-3" d="M221.43,111.52l-9.98,5.76c0-2.09,.66-3.7,.66-3.7l9.45-2.57-.13,.51Z"/></g><g><path class="cls-3" d="M228.38,103.68l7.06-13.48c-1.11-.84-2.23-.43-2.23-.43l-5.15,13.92h.32Z"/><path class="cls-3" d="M228.8,104l7.06-13.48c1.11,.84,1.29,2.23,1.29,2.23l-8.21,11.61-.14-.35Z"/></g><g><path class="cls-3" d="M222.88,115.33l-7.06,13.48c1.11,.84,2.23,.43,2.23,.43l5.15-13.92h-.32Z"/><path class="cls-3" d="M222.45,115.01l-7.06,13.48c-1.11-.84-1.29-2.23-1.29-2.23l8.21-11.61,.14,.35Z"/></g><g><path class="cls-3" d="M228.8,111.34l7.06,5.33c1.11-2.12,1.29-3.71,1.29-3.71l-8.21-2.13-.14,.51Z"/><path class="cls-3" d="M228.38,112.15l7.06,5.33c-1.11,2.12-2.23,3-2.23,3l-5.15-7.97,.32-.37Z"/></g><g><path class="cls-3" d="M222.45,107.67l-7.06-5.33c-1.11,2.12-1.29,3.71-1.29,3.71l8.21,2.13,.14-.51Z"/><path class="cls-3" d="M222.88,106.86l-7.06-5.33c1.11-2.12,2.23-3,2.23-3l5.15,7.97-.32,.37Z"/></g></g></g><path class="cls-1" d="M185.35,2.05c-2.04-.93-4.26-1.75-4.96-1.53-1.36,.43-19.25,1.46-39.74,12.3-17.11,9.04-38.18,20.72-51.89,35.53-13.72,14.82-29.23,40.34-30.72,42.13-1.49,1.79-4.97,3.8-23.56,17.32-13.66,9.93-21.71,16.88-25.63,21-1.36,1.43-1.84,2.7-2.7,4.75l-3.01,6.14c-1.42,3.41-2.28,6.97-2.46,10.28-.29,5.19,3.23,12.35,3.78,15.42-.56,1.84,.85,2.35,1.3,2.51l59.93,34,10.38-35.74s14.57-19.93,15.33-19.93,23.6-2.36,25.77-2.56c2.17-.2,93.09-79,93.09-79l28.31-31.6s-6.76-6.58-19.63-13.94C195.84,5.92,185.35,2.05,185.35,2.05Z"/><path class="cls-3" d="M6.42,136.87c.08,.06-1.18,2.42-1.61,3.46-.43,1.05,.7,1.71,2.24,2.66,1.54,.95,4.63,3.36,6.56,3.27l2.02-.1s2.45,0,3.08,1.24c-.23,1.59-2.89,1.03-2.89,1.03,0,0-2.58,.62-4.96-.87s-6.57-4.61-6.57-4.61c0,0-1.67-.4-.89-3.28,.91-2.17,.87-1.69,1.26-2.83s1.75,.03,1.75,.03Z"/><path class="cls-3" d="M3.63,162.87l2.58,1.55c1.3,.78,2.99,.18,3.51-1.25l.55-1.19c.19-.54,.38-.84,.24-1.39l-.81-6.54c-.27-1.09-.98-2.02-1.95-2.59l-6.76-3.9-.34,4.88,2.99,10.43Z"/><path class="cls-2" d="M66.26,202.64L5.77,168.33c-.65-.23-1.5-1.51-2.07-3.23l-.48-1.42c-1.57-4.6-3.05-8.95-2.78-13.75,.19-3.36,1.05-6.97,2.5-10.45l2.31-5.54c.89-2.12,2.1-4.02,3.51-5.5,2.76-2.89,9.76-9.47,25.7-21.06,7.23-5.26,12.27-8.84,15.61-11.22,5.37-3.82,6.99-4.97,7.86-6.02,.31-.37,1.36-1.98,2.81-4.21,5.58-8.55,17.19-26.35,27.93-37.94,13.62-14.7,34-26.1,52.03-35.63C160.23,2.04,176.87,.27,180.01,.01c1.22-.1,2.49,.36,3.95,.89l.19,.07c3.14,1.05,12.86,4.89,35.31,17.71,10.36,5.91,16.35,11.3,18.44,13.34,.57,.56,.61,1.47,.08,2.08l-27.08,30.89c-15.25,13.23-91.2,78.97-93.42,79.17-.78,.07-4.19,.42-8.29,.83-9.11,.92-16.23,1.64-17.39,1.72-1.19,.99-9.76,12.47-15.02,19.66l-10.53,36.27ZM180.35,1c-.08,0-.17,0-.25,0-3.12,.25-19.58,2.01-38.94,12.24-17.96,9.49-38.25,20.84-51.76,35.43-10.68,11.53-22.26,29.28-27.82,37.81-1.58,2.42-2.54,3.89-2.88,4.3-.95,1.14-2.6,2.31-8.05,6.19-3.33,2.37-8.37,5.95-15.6,11.21-15.88,11.54-22.83,18.07-25.57,20.94-1.32,1.39-2.47,3.19-3.31,5.2l-2.31,5.54c-1.41,3.37-2.25,6.87-2.43,10.12-.25,4.61,1.13,8.67,2.73,13.37l.48,1.43c.6,1.77,1.31,2.55,1.54,2.64l59.45,33.72,10.22-35.22,.05-.07c14.72-20.14,15.43-20.14,15.74-20.14,.52,0,10.69-1.04,17.43-1.72,4.11-.42,7.53-.76,8.3-.83,2.67-1.04,67.9-57.29,92.81-78.88l27.03-30.85c.18-.21,.17-.51-.02-.7-2.07-2.01-7.99-7.33-18.24-13.19C196.57,6.76,186.93,2.96,183.82,1.92l-.2-.07c-1.24-.45-2.33-.84-3.27-.84Z"/><path class="cls-2" d="M176.49,5.67c-7.12,1.25-16.39,3.07-32.23,11-12.89,6.46-27.74,14.97-40.09,24.91,1.1-2.39,3.68-4.54,6.64-6.78s21.01-14.11,34.44-20.37c13.02-6.07,19.89-8.4,27.32-9.39,3.67-.49,3.92,.64,3.92,.64Z"/><g><path class="cls-3" d="M260.94,81.94c-.42,2.51-4.52,9.03-5.06,9.66-.54,.62-10.23,9-10.23,9l-1.57,1.09c.08-.99,.12-1.97,.12-2.95,0-15.29-9.29-22.31-20.75-15.69-11.46,6.62-20.75,24.37-20.75,39.65,0,1.21,.05,2.37,.18,3.47l-86.22,49.65c-.59,.35-1.32-.12-1.26-.81,.1-1.16,.15-2.31,.15-3.45,0-15.29-9.29-22.3-20.75-15.69s-20.75,24.37-20.75,39.65c0,2.35,.22,4.51,.64,6.45l-1.46,.92-7.87-.99s-1.44-.43-1.86-3c-1.3-3-3.59-9.12-3.3-14.31,.18-3.31,1.04-6.87,2.46-10.28l2.31-5.54c.86-2.06,2.05-3.92,3.41-5.35,3.93-4.12,13.14-13.2,26.8-23.13,18.59-13.52,20.9-13.39,22.39-15.19s17-27.31,30.72-42.13c13.72-14.81,34.69-26.66,51.89-35.53,17.21-8.88,35.33-13.86,36.69-14.29,1.03-.33,1.33,.22,.18,1.39-1.16,1.19-1.31,1.73-1.31,1.73,0,0,9.84,4.67,14.93,8.63,2.82,.17,3.18,.83,3.76,.96,.58,.13,.77,.43,1.23,.99,.47,.55,1.05,3.16,1.24,4.43,.19,1.28,.64,2.73,.64,2.73l-1.27,2.08,2.5,11.27s1.74,1.1,2.05,1.54c.31,.44,.47,1.38,.47,2.2,0,.82,.08,8.34-.35,10.86Z"/><path class="cls-2" d="M72.75,203.4l-7.6-1.03-.1-.07c-.07-.05-1.6-1.16-2.13-3.6-.22-1.03-.65-2.29-1.11-3.63-1.04-3.05-2.33-6.84-2.13-10.51,.19-3.36,1.05-6.97,2.5-10.45l.92,.38c-1.41,3.37-2.25,6.87-2.43,10.12-.19,3.48,1.07,7.17,2.08,10.13,.47,1.37,.91,2.66,1.14,3.74,.38,1.74,1.35,2.68,1.65,2.93l7.26,.99c.14-.01,.36-.08,.55-.2,.47-.29,.69-.82,.61-1.35-.28-1.66-.42-3.46-.42-5.34,0-15.42,9.42-33.4,21-40.08,5.15-2.97,10.15-3.36,14.08-1.09,4.72,2.72,7.42,9,7.42,17.21,0,1.23-.06,2.47-.17,3.69-.01,.14,.07,.21,.11,.24,.04,.03,.14,.06,.24,0l86.11-49.59c-.1-.99-.15-2.04-.15-3.2,0-15.42,9.42-33.4,21-40.08,5.15-2.97,10.15-3.36,14.08-1.1,4.72,2.72,7.42,9,7.42,17.22,0,.63-.02,1.28-.05,1.95l.72-.5c3.84-3.32,9.75-8.48,10.13-8.92,.57-.66,4.55-7.06,4.94-9.41,.17-1.03,.38-3.68,.34-10.43v-.35c0-.8-.16-1.61-.38-1.92-.15-.21-1.11-.9-1.9-1.4l-.18-.11-2.59-11.67,.69-1.12c.36-.59,.47-1.28,.3-1.96-.14-.59-.25-1.11-.32-1.56-.23-1.53-.81-3.8-1.13-4.18l-.14-.17c-.37-.46-.48-.58-.82-.66-.22-.05-.4-.14-.59-.24-.45-.23-1.13-.58-3.09-.7h-.15l-.12-.1c-4.99-3.88-14.74-8.52-14.84-8.57l-.38-.18,.11-.41c.03-.11,.25-.73,1.43-1.95,.27-.28,.42-.48,.5-.62-.05,.01-.11,.03-.17,.05-.12,.04-.34,.1-.68,.2-13.21,3.88-25.64,8.74-35.94,14.05-16.89,8.71-38.04,20.61-51.76,35.42-10.68,11.53-22.26,29.28-27.82,37.81-1.58,2.43-2.54,3.89-2.88,4.31-.62,.74-1.31,1.16-3,2.15-2.77,1.65-7.93,4.71-19.49,13.12-13.44,9.77-22.52,18.65-26.73,23.07-1,1.05-1.93,2.38-2.67,3.84l-.89-.46c.79-1.54,1.77-2.94,2.84-4.07,4.24-4.45,13.37-13.38,26.87-23.19,11.6-8.43,16.78-11.51,19.56-13.17,1.58-.94,2.23-1.33,2.74-1.94,.31-.37,1.36-1.98,2.82-4.21,5.58-8.55,17.19-26.35,27.92-37.94,13.83-14.93,35.07-26.88,52.03-35.63,10.36-5.34,22.85-10.23,36.12-14.12,.32-.09,.55-.16,.66-.19,.93-.3,1.31,.04,1.45,.27,.29,.48,.04,1.13-.77,1.95-.51,.52-.8,.9-.97,1.16,2.02,.98,9.97,4.93,14.43,8.36,2.06,.14,2.83,.54,3.34,.8,.15,.08,.26,.13,.35,.15,.69,.16,1,.53,1.38,1l.13,.16c.64,.76,1.24,3.93,1.35,4.68,.06,.42,.16,.91,.3,1.47,.23,.94,.08,1.9-.42,2.72l-.48,.78,2.42,10.87c.55,.36,1.71,1.13,2.01,1.56,.41,.59,.56,1.67,.56,2.49v.35c.03,5.48-.09,9.04-.36,10.6-.44,2.62-4.54,9.17-5.17,9.9-.55,.63-9.28,8.19-10.28,9.05l-2.48,1.72,.08-1.05c.08-1,.12-1.98,.12-2.91,0-7.85-2.52-13.81-6.92-16.35-3.6-2.08-8.25-1.69-13.08,1.1-11.3,6.53-20.5,24.12-20.5,39.22,0,1.25,.06,2.36,.17,3.41l.04,.33-.28,.16-86.39,49.75c-.4,.23-.89,.23-1.28-.02-.4-.25-.62-.7-.57-1.18,.11-1.19,.17-2.4,.17-3.6,0-7.85-2.52-13.81-6.92-16.35-3.61-2.08-8.25-1.69-13.08,1.09-11.3,6.53-20.5,24.12-20.5,39.22,0,1.83,.14,3.57,.4,5.18,.16,.93-.25,1.85-1.03,2.34-.38,.24-.77,.35-1.17,.37Z"/><path class="cls-2" d="M121.09,125.35c-.16,0-.31-.06-.43-.17-.28-.25-.32-.71-.1-1.14,5.54-10.83,24.25-35.38,29.57-41.24,5-5.5,17.97-15.24,35.69-24.59,9.87-5.21,18.62-9.01,24.23-11.29,4.56-1.85,8.87-1.48,12.13,1.05l7.16,5.55c.24,.18,.36,.49,.35,.85-.01,.44-.25,1.05-.72,1.37l-13.81,9.33-93.66,60.15c-.13,.08-.27,.12-.41,.12ZM215.59,46.77c-1.64,0-3.37,.36-5.16,1.08-5.59,2.27-14.31,6.06-24.14,11.25-17.61,9.29-30.48,18.94-35.42,24.38-5.19,5.72-23.19,29.3-29.08,40.37l92.83-59.61,13.8-9.32c.2-.14,.31-.54,.27-.66l-7.11-5.49c-1.71-1.33-3.75-2-5.98-2Z"/><path class="cls-2" d="M175.09,66.26l-3.1,24.38-44.12,28.18c-.23,.15-.36-.15-.2-.46,4.93-9.63,19.6-29.88,23.97-34.69,3.52-3.87,12.48-10.77,23.45-17.41Z"/><path class="cls-2" d="M204.69,51.04l8.49,13.28-39.46,25.2,2.84-24.14c2.64-1.56,5.37-3.1,8.17-4.58,6.46-3.41,14.33-7.23,19.97-9.77Z"/><path class="cls-2" d="M225.59,55.95l-10.1,6.81-8.82-12.62c1.04-.45,1.96-.85,2.73-1.16,3.87-1.57,7.46-1.27,10.2,.86l6.28,4.86c.28,.22,.1,.98-.3,1.24Z"/><path class="cls-2" d="M118.9,174.24c0-1.58-.08-38.76,0-40.94l.02-.8c.05-2.29,.13-5.74,1.64-8.47l.88,.48c-1.39,2.52-1.47,5.82-1.52,8.01l-.02,.81c-.08,2.16,0,40.52,0,40.91h-1Z"/><path class="cls-2" d="M169.03,145.93c0-.13-.38-13.12,0-25.73,.28-9.15,.75-15.39,1-18.29,.09-1.01,.24-2.05,.44-3.08l1.33-6.92,.98,.19-1.33,6.92c-.19,1-.34,2.01-.42,2.98-.26,2.89-.73,9.11-1,18.23-.38,12.57,0,25.54,0,25.67l-1,.03Z"/><path class="cls-2" d="M216.34,85.81l-1-.05c.08-1.52,.67-3.5,.7-3.59,0-.05,1.82-8.71,1.62-12.3-.54-1.65-3.13-4.88-3.16-4.91l.78-.63c.11,.14,2.79,3.49,3.35,5.3l.02,.12c.23,3.69-1.56,12.3-1.64,12.67-.02,.06-.59,1.99-.67,3.39Z"/></g><path class="cls-2" d="M69.77,164.84l-.65-.76c11.24-9.58,40.19-26.4,56.45-35.57,16.78-9.46,112.15-68.32,119.58-73.54,4.04-2.83,6.3-5.48,6.36-7.45,.03-.86-.35-1.59-1.16-2.23l.62-.78c1.05,.85,1.57,1.87,1.53,3.05-.09,2.94-3.74,6.1-6.79,8.24-7.44,5.22-102.88,64.12-119.67,73.59-13.07,7.37-44.71,25.58-56.3,35.46Z"/><path class="cls-2" d="M70.82,203.03c-.3-1.83-.46-3.8-.47-5.84-.08-17.33,10.51-37.49,23.6-44.94,5.82-3.31,11.48-3.72,15.93-1.15,5.33,3.08,8.41,10.13,8.46,19.34,0,1.58-.07,3.22-.24,4.87l-.99-.1c.17-1.61,.25-3.21,.24-4.76-.04-8.84-2.94-15.58-7.96-18.48-4.13-2.39-9.44-1.98-14.94,1.15-12.81,7.29-23.18,27.06-23.1,44.07,0,1.99,.16,3.91,.46,5.68l-.99,.16Z"/><path class="cls-2" d="M199.23,128.07c-.11-1.13-.16-2.31-.17-3.51-.08-17.33,10.51-37.49,23.6-44.94,5.82-3.31,11.48-3.72,15.93-1.15,5.33,3.08,8.41,10.13,8.46,19.34,0,.68-.01,1.37-.04,2.06l-1-.04c.03-.67,.04-1.34,.04-2.01-.04-8.84-2.94-15.58-7.96-18.48-4.13-2.39-9.43-1.98-14.93,1.15-12.82,7.29-23.18,27.06-23.1,44.07,0,1.17,.06,2.32,.17,3.41l-1,.1Z"/><path class="cls-2" d="M235.56,36.74c-1.88-.7-3.17-1.92-3.22-1.98l.69-.72s1.2,1.13,2.88,1.76l-.35,.94Z"/><path class="cls-2" d="M255.14,57.15c-.33,0-.67-.11-.95-.33l-2.51-2c-.4-.32-.65-.78-.71-1.29-.05-.51,.09-1,.42-1.4,.5-.61,1.05-1.37,1.67-2.27,.72-1.07,.97-2.06,.71-2.86-.2-.63-.72-1.15-1.39-1.4l.35-.94c.96,.35,1.7,1.11,2,2.03,.25,.77,.31,2.05-.83,3.73-.63,.93-1.2,1.72-1.72,2.35-.15,.19-.22,.42-.2,.66,.03,.24,.15,.46,.34,.61l2.51,2c.21,.17,.52,.15,.7-.05l.63-.67,.73,.69-.63,.67c-.3,.31-.7,.48-1.11,.48Z"/><path class="cls-2" d="M258.58,67.8c-.18-.08-1.81-.8-2.2-2.1-.34-1.12-1.86-8.65-1.93-8.97l.98-.2c.02,.08,1.58,7.8,1.91,8.88,.22,.73,1.25,1.31,1.63,1.47l-.39,.92Z"/><path class="cls-2" d="M256.35,75.81c-.21,0-.41-.05-.6-.17-.36-.21-.58-.59-.58-1.01,0-.93,.5-1.81,1.3-2.28l4.49-2.64,.51,.86-4.49,2.64c-.5,.29-.81,.84-.81,1.42,0,.09,.06,.13,.09,.15s.1,.05,.18,0l4.54-2.49,.48,.88-4.54,2.49c-.18,.1-.37,.15-.57,.15Z"/><path class="cls-2" d="M148.85,77.75c-2.91,2.78-6.39,6.62-10.14,11.22-7.16,8.77-15.31,20.35-22.35,32.77-.48,.85-1.55,1.15-2.39,.67l-15.74-8.92-25.69-14.58-2.02-1.14-5-2.84-3.85-2.18c-.71-.41-.95-1.33-.51-2.02,9.1-14.49,24.18-36.86,33.72-44.31,.66-.52,1.56-.57,2.29-.15l25.11,14.52,4.75,2.75,2.2,1.27,19.41,11.23c.62,.36,.73,1.22,.21,1.71Z"/><path class="cls-2" d="M223.19,33.49c-7,2.3-17.81,6.22-28.26,11.61-13.15,6.78-28.56,15.35-41.07,25.68,0,0,.14-1.33,.99-2.28,2.92-3.22,23.29-17.41,39.93-25.46,16.64-8.05,23.21-9.29,25.2-9.84,1.99-.55,3.22,.28,3.22,.28Z"/><path class="cls-2" d="M232.86,34.87L178.48,3.47c-2.14-1.33-1.41-2.74-1.37-2.8l.88,.48s-.28,.66,1.01,1.46l54.37,31.39-.5,.87Z"/><path class="cls-3" d="M120.11,43.27c-2.04-1.17-2.24-4.03-.39-5.48,3.49-2.73,9.22-6.93,16.33-11.18,15.03-8.98,27.05-13.31,33.67-15.24,3.43-1,7.13-.54,10.22,1.24l27.55,15.91c1.79,1.03,1.52,3.7-.45,4.34-5.83,1.9-16.45,6-31.96,14.36-7.27,3.92-14.04,8.78-18.13,11.89-2.46,1.87-5.79,2.08-8.47,.54l-28.37-16.38Z"/><path class="cls-2" d="M152.32,61.18c-1.4,0-2.81-.36-4.08-1.1l-28.37-16.38c-1.1-.64-1.81-1.77-1.9-3.04-.09-1.26,.46-2.48,1.46-3.26,3.56-2.78,9.28-6.98,16.38-11.22,14.67-8.77,26.47-13.16,33.79-15.29,3.54-1.04,7.4-.56,10.61,1.29l27.55,15.91c1,.58,1.55,1.65,1.43,2.8-.12,1.15-.88,2.08-1.98,2.44-6.14,2-16.65,6.11-31.88,14.32-7.12,3.84-13.75,8.56-18.06,11.85-1.46,1.11-3.19,1.67-4.94,1.67Zm21.04-49.83c-1.18,0-2.35,.16-3.49,.5-7.26,2.12-18.97,6.47-33.56,15.19-7.05,4.21-12.74,8.39-16.28,11.15-.75,.58-1.14,1.46-1.07,2.41,.07,.95,.58,1.77,1.4,2.24l28.37,16.38c2.51,1.45,5.62,1.25,7.92-.5,4.34-3.31,11.02-8.07,18.2-11.94,15.3-8.24,25.87-12.38,32.04-14.39,.72-.23,1.21-.85,1.29-1.6,.08-.75-.28-1.46-.94-1.83l-27.55-15.91c-1.94-1.12-4.14-1.69-6.34-1.69Z"/><rect class="cls-2" x="171.28" y="6.82" width="1" height="43.49" transform="translate(61.04 162.95) rotate(-59.95)"/><path class="cls-2" d="M13.59,149.1c-.78,0-1.56-.22-2.23-.64l-7.18-4.51c-1.37-.86-1.91-2.62-1.25-4.1l2.07-4.66,13.67,10.17c.55,.41,.85,1.07,.78,1.76-.07,.69-.48,1.28-1.1,1.58l-.18,.05-4.25,.35c-.11,0-.22,.01-.33,.01Zm-8.18-12.36l-1.56,3.52c-.46,1.03-.08,2.25,.87,2.85l7.18,4.51c.58,.36,1.27,.53,1.95,.48l4.15-.34c.26-.16,.43-.42,.46-.73,.03-.34-.11-.66-.38-.86l-12.66-9.42Z"/><path class="cls-2" d="M48.58,162.9c-7.73-1.74-25.54-11.85-30.03-15.99l.68-.73c4.42,4.08,21.96,14.03,29.57,15.75l-.22,.98Z"/><path class="cls-3" d="M60.5,195.21l-6.19-3c-1.34-.65-2.45-1.7-3.17-3.01l-1.91-4.23,1.57-4.81c.54-.94,1.68-1.33,2.69-.93l4.48,1.81c1.39,.56,2.96,.48,4.29-.22h0c.39-.2,.86,.05,.91,.48l1.37,13.24h0c-1.06,1.06-2.68,1.33-4.03,.67Z"/><path class="cls-2" d="M62.04,196.07c-.6,0-1.2-.13-1.76-.4l-6.19-3c-1.44-.7-2.62-1.81-3.39-3.21l-1.82-3.91c-.23-.49-.25-1.06-.06-1.57l1.5-3.98c.69-1.22,2.11-1.71,3.34-1.22l4.48,1.81c1.26,.51,2.67,.43,3.87-.2,.33-.17,.72-.17,1.05,0,.33,.18,.55,.5,.58,.87l1.4,13.48-.17,.17c-.77,.77-1.8,1.17-2.84,1.17Zm-9.36-16.49c-.58,0-1.15,.31-1.45,.83l-1.47,3.91c-.1,.26-.09,.55,.03,.8l1.8,3.88c.66,1.19,1.68,2.16,2.93,2.77l6.19,3c1.09,.53,2.38,.35,3.29-.42l-1.34-12.99c0-.05-.04-.08-.06-.09s-.07-.03-.11,0c-1.46,.77-3.18,.86-4.71,.24l-4.48-1.81c-.2-.08-.41-.12-.62-.12Z"/><path class="cls-2" d="M7.45,165.6c-.52,0-1.04-.14-1.49-.42l-2.58-1.55,.51-.86,2.58,1.55c.49,.3,1.08,.35,1.62,.16,.54-.19,.96-.61,1.16-1.15l.55-1.52c.11-.29,.14-.61,.11-.92l-.71-6.45c-.23-.89-.85-1.72-1.7-2.21l-6.76-3.91,.5-.87,6.76,3.91c1.08,.62,1.88,1.68,2.19,2.9l.72,6.51c.05,.46,0,.94-.16,1.37l-.55,1.52c-.3,.82-.94,1.46-1.76,1.75-.32,.11-.65,.17-.98,.17Z"/><polygon class="cls-2" points="48.24 192.32 46.31 188.31 11.67 168.76 8.83 169.9 8.46 168.97 11.75 167.65 47.07 187.59 49.14 191.88 48.24 192.32"/><path class="cls-2" d="M59.45,191.43c-.17,0-.33-.04-.49-.11l-5.85-2.74c-.17-.08-.28-.25-.29-.43,0-.19,.09-.36,.25-.45l1.61-.91c.14-.08,.31-.09,.46-.02l4.34,2.03-.21-2.49c-.03-.38-.28-.71-.63-.86l-5.88-2.41c-.26-.1-.38-.4-.27-.65,.11-.25,.4-.38,.65-.27l5.88,2.41c.71,.29,1.18,.94,1.25,1.7l.28,3.34s0,.02,0,.03l.05,.58c.04,.42-.15,.81-.49,1.04-.2,.14-.43,.21-.66,.21Zm-5.04-3.35l4.97,2.33c.07,.03,.13,0,.16-.01,.03-.02,.07-.06,.07-.14l-.03-.31-4.63-2.17-.54,.3Z"/><path class="cls-2" d="M5.52,160.86c-.09,0-.19-.03-.27-.08l-3.58-2.36c-.23-.15-.29-.46-.14-.69,.15-.23,.46-.3,.69-.14l3.58,2.36c.23,.15,.29,.46,.14,.69-.1,.15-.26,.23-.42,.23Z"/><path class="cls-2" d="M5.52,160.86c-.2,0-.38-.12-.46-.31-.1-.26,.02-.55,.28-.65l.64-.26-4.7-3.05c-.23-.15-.3-.46-.15-.69,.15-.23,.46-.3,.69-.15l5.5,3.58c.16,.1,.24,.28,.23,.47-.02,.19-.14,.35-.31,.42l-1.53,.62c-.06,.02-.12,.04-.19,.04Z"/><path class="cls-2" d="M5.07,156.06c-.09,0-.18-.03-.27-.08l-3.84-2.44c-.23-.15-.3-.46-.15-.69,.15-.23,.46-.3,.69-.15l3.84,2.44c.23,.15,.3,.46,.15,.69-.09,.15-.26,.23-.42,.23Z"/><path class="cls-2" d="M10.33,140.28c-.13,0-.27-.05-.37-.16-.19-.2-.18-.52,.02-.71,1.42-1.33,2.05-2.87,2.85-4.82,1.35-3.31,3.2-7.84,10.39-13.99,15.19-12.99,37.2-29.24,37.42-29.4,.22-.17,.54-.12,.7,.11s.12,.54-.11,.7c-.22,.16-22.2,16.38-37.37,29.35-7.01,5.99-8.73,10.21-10.12,13.6-.81,1.98-1.51,3.69-3.09,5.17-.1,.09-.22,.13-.34,.13Z"/><path class="cls-2" d="M53.24,163.89c-.07,0-.14-.01-.2-.04-.25-.11-.37-.4-.26-.65,.05-.11,1.25-2.76,9.73-8.65,3.59-2.49,10.55-6.78,18.61-11.75,11.17-6.88,23.82-14.68,32.58-20.79,.22-.16,.54-.1,.7,.12,.16,.23,.1,.54-.12,.7-8.78,6.13-21.45,13.94-32.63,20.82-8.05,4.96-15,9.24-18.56,11.72-8.13,5.65-9.37,8.21-9.38,8.23-.08,.18-.27,.29-.46,.29Z"/><path class="cls-2" d="M18.85,145.91l-.95-.31c.08-.23,.16-.52,.27-.88,.98-3.29,3.57-12.02,11.51-20.56,7.99-8.61,14.97-13.5,24.63-20.27,3.56-2.5,7.6-5.33,12.14-8.67l.59,.8c-4.55,3.35-8.59,6.18-12.16,8.68-9.61,6.74-16.55,11.6-24.48,20.13-7.77,8.37-10.32,16.94-11.28,20.17-.11,.37-.2,.67-.28,.91Z"/><path class="cls-2" d="M43,160.55l-.51-.86c6.01-3.58,9.39-5.98,14.07-9.31,3.21-2.28,6.85-4.87,12.28-8.51,14.63-9.82,35.72-24.76,35.94-24.92l.58,.82c-.21,.15-21.32,15.11-35.96,24.93-5.42,3.64-9.06,6.22-12.26,8.5-4.7,3.34-8.1,5.75-14.14,9.35Z"/><path class="cls-3" d="M14.73,164.13l-.42-10.16c-.03-.62,.38-1.17,.97-1.34l2.26-.65c.89-.25,1.84-.12,2.62,.36,1.83,1.13,5.77,3.49,11.94,6.84,5.38,2.92,9.39,4.55,11.38,5.28,.9,.33,1.63,1.02,2.01,1.9l1.99,4.53c.3,.67,.31,1.44,.03,2.12l-3.03,7.47c-.24,.59-.93,.83-1.49,.53l-26.72-14.41c-.92-.5-1.51-1.44-1.55-2.48Z"/><path class="cls-2" d="M43.51,181.65c-.26,0-.51-.06-.74-.19l-26.72-14.41c-1.07-.58-1.76-1.69-1.82-2.9l-.42-10.16c-.03-.85,.51-1.61,1.33-1.84l2.26-.65c1.02-.29,2.12-.14,3.02,.42,1.8,1.11,5.75,3.48,11.92,6.83,5.38,2.92,9.39,4.54,11.31,5.25,1.02,.38,1.86,1.17,2.3,2.17l1.99,4.53c.35,.79,.36,1.71,.04,2.51l-3.03,7.47c-.17,.41-.5,.73-.92,.88-.17,.06-.35,.09-.53,.09Zm-25.06-29.3c-.26,0-.51,.04-.77,.11l-2.26,.65c-.37,.11-.62,.45-.61,.84l.42,10.16c.04,.86,.53,1.65,1.29,2.06l26.72,14.41c.14,.08,.3,.09,.46,.03s.27-.17,.33-.32l3.03-7.47c.22-.55,.22-1.18-.02-1.73l-1.99-4.53c-.34-.77-.95-1.35-1.73-1.64-1.94-.72-6.01-2.36-11.44-5.31-6.19-3.36-10.16-5.74-11.97-6.86-.44-.27-.95-.41-1.46-.41Z"/><path class="cls-2" d="M18.87,167.74h-1v-10.36c0-1.29,.46-2.54,1.29-3.52l1.24-1.46,.76,.65-1.24,1.46c-.68,.8-1.06,1.82-1.06,2.87v10.36Z"/><path class="cls-2" d="M23.36,170.16h-1v-10.36c0-1.29,.46-2.54,1.29-3.52l1.24-1.46,.76,.65-1.24,1.46c-.68,.8-1.06,1.82-1.06,2.87v10.36Z"/><path class="cls-2" d="M27.85,172.59h-1v-10.36c0-1.29,.46-2.54,1.29-3.52l1.24-1.46,.76,.65-1.24,1.46c-.68,.8-1.06,1.82-1.06,2.87v10.36Z"/><path class="cls-2" d="M32.34,175.02h-1v-10.36c0-1.29,.46-2.54,1.29-3.52l1.24-1.46,.76,.65-1.24,1.46c-.68,.8-1.06,1.82-1.06,2.87v10.36Z"/><path class="cls-2" d="M36.82,177.45h-1v-10.36c0-1.29,.46-2.54,1.29-3.52l1.24-1.46,.76,.65-1.24,1.46c-.68,.8-1.06,1.82-1.06,2.87v10.36Z"/><path class="cls-2" d="M41.31,179.88h-1v-10.36c0-1.33,.48-2.56,1.43-3.68l1.36-1.69,.78,.63-1.37,1.7c-.8,.94-1.2,1.96-1.2,3.04v10.36Z"/><g><path class="cls-1" d="M31.94,171.38l-9.61-5.55c-.63-.37-1.03-1.04-1.03-1.78v-4.5c0-.78,.85-1.28,1.53-.88l9.18,5.3c.86,.5,1.39,1.42,1.39,2.41v4.14c0,.75-.81,1.22-1.47,.85Z"/><path class="cls-2" d="M32.43,172.01c-.25,0-.51-.07-.74-.2l-9.61-5.55c-.79-.45-1.28-1.3-1.28-2.21v-4.5c0-.55,.28-1.04,.76-1.32,.47-.27,1.04-.27,1.52,0l9.18,5.3c1.01,.59,1.64,1.68,1.64,2.85v4.14c0,.53-.28,1.01-.74,1.28-.23,.13-.48,.2-.74,.2Zm-10.11-12.98c-.12,0-.21,.04-.26,.07-.08,.04-.26,.18-.26,.45v4.5c0,.55,.3,1.07,.78,1.34l9.61,5.55c.21,.12,.41,.04,.48,0,.07-.04,.24-.17,.24-.41v-4.14c0-.81-.44-1.57-1.14-1.98l-9.18-5.3c-.09-.05-.18-.07-.26-.07Z"/><path class="cls-2" d="M33.05,171.73c-.2,0-.4-.06-.6-.17l.5-.87c.08,.05,.11,.04,.14,.02,.13-.08,.28-.37,.28-.71v-4.14c0-.81-.44-1.57-1.14-1.98l-9.18-5.3c-.23-.13-.44-.04-.52,0-.08,.04-.26,.18-.26,.45h-1c0-.55,.28-1.04,.76-1.32s1.04-.28,1.52,0l9.18,5.3c1.01,.58,1.64,1.67,1.64,2.84v4.14c0,.68-.3,1.3-.78,1.57-.17,.1-.35,.15-.54,.15Z"/></g><path class="cls-2" d="M13.14,146.81c-.6,0-1.18-.17-1.69-.5-.87-.56-2.38-1.49-3.78-2.35-1.3-.8-2.53-1.55-3.01-1.87-1.02-.68-.16-2.4,.02-2.73,.13-.24,.44-.33,.68-.2,.24,.13,.33,.44,.2,.68-.33,.61-.48,1.33-.35,1.42,.46,.31,1.67,1.05,2.97,1.85,1.41,.86,2.93,1.8,3.8,2.37,.38,.25,.82,.37,1.28,.34l2.69-.17c.31-.04,.51,.19,.53,.47,.02,.28-.19,.51-.47,.53l-2.69,.17c-.07,0-.13,0-.2,0Z"/><path class="cls-2" d="M12.96,149.04c-.25,0-.46-.18-.5-.43l-.3-2.28c-.04-.27,.16-.53,.43-.56,.27-.04,.53,.16,.56,.43l.3,2.28c.04,.27-.16,.53-.43,.56-.02,0-.04,0-.07,0Z"/><g><path class="cls-3" d="M48.67,162.2c.75,1.12,1.67,1.34,1.96,2.99s.62,2.84,1.83,3.41,8.07,2.96,8.07,2.96c0,0,1.67,.24,2.57-.56,.9-1.01,.72-1.18,.72-1.18l3.21-.62s1.09,.61,0,2.39-2.05,3.2-4.98,2.44c-2.93-.76-10.28-4.26-10.28-4.26,0,0-2.13-1.91-2.75-4.5-.62-2.6-1.2-2.33-.35-3.07Z"/><path class="cls-2" d="M62.52,174.71c-.49,0-.98-.1-1.44-.31l-9.11-4.17c-1.35-.64-2.41-1.82-2.89-3.23l-1.2-3.5c-.17-.51-.04-1.05,.35-1.42,.39-.37,.94-.47,1.44-.27l13.13,5.04c1.26,.48,2.68,.23,3.7-.66l2.26-1.98c.23-.2,.57-.23,.83-.08,.26,.16,.4,.46,.34,.76l-.85,4.08c-.32,1.54-1.22,2.87-2.53,3.75l-2.1,1.41c-.58,.39-1.25,.59-1.92,.59Zm-13.37-12.01c-.12,0-.2,.06-.24,.1-.05,.05-.16,.18-.09,.37l1.2,3.5c.4,1.16,1.26,2.12,2.37,2.65l9.11,4.16c.78,.36,1.67,.29,2.39-.19l2.1-1.41c1.09-.73,1.84-1.84,2.11-3.12l.68-3.24-1.62,1.41c-1.3,1.13-3.1,1.46-4.71,.84l-13.14-5.05c-.05-.02-.1-.03-.15-.03Z"/><path class="cls-2" d="M61.97,172.22c-.31,0-.62-.06-.93-.19l-8.54-3.08c-1.09-.46-1.91-1.35-2.27-2.45l-.54-1.67c-.08-.26,.06-.54,.32-.63,.26-.09,.54,.06,.63,.32l.54,1.67c.27,.83,.88,1.49,1.68,1.83l8.54,3.08c.58,.25,1.22,.09,1.61-.38l.95-1.14c.18-.21,.49-.24,.7-.06,.21,.18,.24,.49,.06,.7l-.95,1.14c-.46,.55-1.13,.85-1.82,.85Z"/><path class="cls-2" d="M63.27,174.7c-.18,0-.36-.1-.45-.28l-1.2-2.41c-.12-.25-.02-.55,.22-.67,.25-.12,.55-.02,.67,.22l1.2,2.41c.12,.25,.02,.55-.22,.67-.07,.04-.15,.05-.22,.05Z"/></g><polygon class="cls-1" points="127.03 63.54 70.52 97.77 65.52 94.93 122.28 60.79 127.03 63.54"/><path class="cls-1" d="M148.85,77.75c-2.91,2.78-6.39,6.62-10.14,11.22l-40.48,24.52-25.69-14.58,56.69-34.1,19.41,11.23c.62,.36,.73,1.22,.21,1.71Z"/><path class="cls-2" d="M115.04,122.97c-.38,0-.76-.1-1.11-.29l-52.29-29.66c-.47-.26-.8-.7-.93-1.22-.13-.52-.05-1.05,.24-1.5,6.68-10.63,23.34-36.23,33.84-44.44,.82-.64,1.93-.72,2.84-.19l51.47,29.78c.44,.25,.72,.68,.78,1.18,.06,.49-.11,.98-.47,1.32-8.22,7.87-21.42,24.49-32.4,43.87-.3,.53-.78,.9-1.36,1.07-.2,.06-.41,.08-.61,.08Zm-.61-1.16c.29,.16,.63,.21,.95,.12,.32-.09,.59-.3,.76-.6,11.03-19.47,24.31-36.18,32.58-44.1,.13-.12,.19-.3,.17-.48-.02-.18-.13-.34-.29-.44l-51.47-29.78c-.55-.32-1.23-.28-1.72,.11-10.38,8.11-26.96,33.6-33.61,44.18-.14,.22-.18,.48-.12,.73,.06,.25,.22,.46,.45,.59l52.29,29.66Z"/><g><path class="cls-2" d="M160.64,117.71c-.43,0-.82-.1-1.16-.29-.71-.41-1.1-1.2-1.1-2.21,0-2.12,1.67-4.75,3.8-5.99,1.2-.69,2.37-.81,3.2-.33,.71,.41,1.1,1.2,1.1,2.21,0,2.12-1.67,4.75-3.8,5.99-.71,.41-1.42,.62-2.05,.62Zm3.59-8.11c-.45,0-.99,.17-1.55,.49-1.79,1.03-3.3,3.38-3.3,5.12,0,.46,.1,1.06,.6,1.35,.51,.29,1.33,.17,2.2-.33,1.79-1.03,3.3-3.38,3.3-5.12,0-.46-.1-1.06-.6-1.35-.18-.11-.41-.16-.66-.16Z"/><g><g><path class="cls-3" d="M160.06,116.16l-.43,.25c-.81,.47-1.47-.03-1.47-1.11h0c0-1.08,.66-2.33,1.47-2.8l.43-.25c.81-.47,1.47,.03,1.47,1.11h0c0,1.08-.66,2.33-1.47,2.8Z"/><path class="cls-1" d="M165.84,111.78l-6.35,3.52,.59-2.07,5.76-3.37c.4-.23,.72,.01,.72,.55h0c0,.53-.32,1.15-.72,1.38Z"/></g><path class="cls-2" d="M158.97,117.15c-.2,0-.39-.05-.56-.15-.43-.25-.67-.76-.67-1.42v-.65c0-1.08,.65-2.29,1.47-2.77l.92-.53c.48-.28,.87-.24,1.11-.15,.16,.05,.29,.14,.41,.26l4.19-2.46c.29-.17,.6-.18,.86-.03,.28,.16,.44,.48,.44,.87v.47c0,.58-.34,1.21-.8,1.48l-4.42,2.6c-.25,.76-.74,1.42-1.3,1.74l-.92,.53c-.25,.14-.5,.21-.74,.21Zm1.89-4.73c-.06,0-.14,.03-.23,.08l-.92,.53c-.52,.3-.97,1.19-.97,1.9v.65c0,.36,.11,.52,.17,.56,.06,.03,.17,0,.3-.06l.92-.53c.38-.22,.74-.76,.89-1.34l.05-.2,4.77-2.8c.14-.08,.3-.38,.3-.61v-.33l-4.89,2.87-.21-.54c-.03-.09-.08-.15-.13-.16-.01,0-.03,0-.05,0Zm5.23-2.71l.25,.43h0l-.26-.43Z"/><path class="cls-2" d="M159.81,115.68c-.15,0-.3-.04-.43-.11-.31-.18-.49-.55-.49-1,0-.7,.41-1.46,.95-1.78l2.06-1.19,.5,.87-2.06,1.19c-.21,.12-.45,.54-.45,.91,0,.03,0,.05,0,.07l2.1-1.17,.49,.87-2.14,1.19c-.17,.1-.35,.15-.52,.15Z"/></g></g><g><path class="cls-2" d="M208.15,88.7c-.43,0-.82-.1-1.16-.29-.71-.41-1.1-1.2-1.1-2.21,0-2.12,1.67-4.75,3.8-5.99,1.2-.69,2.37-.82,3.2-.33,.71,.41,1.1,1.2,1.1,2.21,0,2.12-1.67,4.75-3.8,5.99-.71,.41-1.42,.62-2.05,.62Zm3.59-8.11c-.45,0-.99,.17-1.55,.49-1.79,1.03-3.3,3.38-3.3,5.12,0,.46,.1,1.06,.6,1.35,.51,.29,1.33,.17,2.2-.33,1.79-1.03,3.3-3.38,3.3-5.12,0-.46-.1-1.06-.6-1.35-.18-.11-.41-.16-.66-.16Z"/><g><g><path class="cls-3" d="M207.57,87.15l-.43,.25c-.81,.47-1.47-.03-1.47-1.11h0c0-1.08,.66-2.33,1.47-2.8l.43-.25c.81-.47,1.47,.03,1.47,1.11h0c0,1.08-.66,2.33-1.47,2.8Z"/><path class="cls-1" d="M213.35,82.77l-6.35,3.52,.59-2.07,5.76-3.37c.4-.23,.72,.01,.72,.55h0c0,.53-.32,1.15-.72,1.38Z"/></g><path class="cls-2" d="M206.48,88.14c-.2,0-.39-.05-.56-.15-.43-.25-.67-.76-.67-1.42v-.65c0-1.08,.65-2.29,1.47-2.77l.92-.53c.48-.28,.87-.24,1.11-.15,.15,.05,.29,.14,.41,.26l4.19-2.46c.29-.17,.6-.18,.86-.03,.28,.16,.44,.48,.44,.87v.47c0,.58-.34,1.21-.8,1.48l-4.42,2.6c-.25,.76-.74,1.42-1.3,1.74l-.92,.53c-.25,.14-.5,.21-.74,.21Zm1.89-4.73c-.06,0-.15,.03-.23,.08l-.92,.53c-.52,.3-.97,1.19-.97,1.9v.65c0,.36,.11,.52,.17,.56,.06,.03,.17,0,.3-.06l.92-.53c.38-.22,.74-.76,.89-1.34l.05-.2,4.77-2.8c.14-.08,.3-.38,.3-.61v-.33l-4.89,2.87-.21-.54c-.03-.09-.08-.15-.13-.16-.01,0-.03,0-.05,0Zm5.23-2.71l.25,.43h0l-.26-.43Z"/><path class="cls-2" d="M207.32,86.68c-.15,0-.3-.04-.43-.11-.31-.18-.49-.55-.49-1,0-.7,.41-1.46,.95-1.78l2.06-1.19,.5,.87-2.06,1.19c-.21,.12-.45,.54-.45,.91,0,.03,0,.05,0,.07l2.1-1.17,.49,.87-2.14,1.19c-.17,.1-.35,.15-.52,.15Z"/></g></g><g><path class="cls-3" d="M135.52,107.57c.19-.05,.25-1.46,1.36-1.2,1.11,.26,6.3,2.37,6.3,2.37,0,0,1.89,.82,2.49,1.67s1.43,2.28,1.78,3.74c0,0,.56,2.05,.56,2.71s-2,1.04-2,1.04c0,0-2.31,.5-4.06-.64s-6.06-2.28-6.06-2.28c0,0-1.12-1.03-1.12-2.82,0-1.79,.74-4.61,.74-4.61Z"/><path class="cls-1" d="M135.28,108.58s.5-2.15,1.6-2.2c1.1-.06,6.61,2.5,6.61,2.5,0,0,.88,.44-.1,1.25-.98,.81-1.73,1.25-2.83,1.02s-4.87-1.89-4.87-1.89l-.42-.68Z"/><path class="cls-2" d="M147.42,118.14c-.21,0-.43-.06-.65-.19l.5-.87c.08,.05,.12,.06,.15,.05,.04-.02,.16-.27,.04-.74l-.55-2.32c-.43-1.82-1.49-3.53-2.72-4.39l-7.15-2.92c-.18-.12-.34-.17-.44-.12-.11,.06-.22,.28-.22,.65h-1c0-.72,.27-1.28,.75-1.53,.42-.22,.93-.17,1.42,.14l7.15,2.92c1.44,.98,2.69,2.95,3.17,5.01l.55,2.32c.18,.78,.02,1.44-.42,1.77-.18,.13-.38,.2-.6,.2Z"/><path class="cls-2" d="M143.64,118.4c-.17,0-.35-.05-.52-.14l-7.58-3c-.75-.42-1.26-1.38-1.26-2.26v-3.05c0-.6,.23-1.07,.64-1.28,.36-.19,.79-.15,1.2,.11l5.51,2.25c1.13,.77,2.1,2.31,2.49,3.92l.42,1.79c.15,.64,.01,1.2-.37,1.48-.16,.12-.34,.17-.53,.17Zm-8.24-8.84h-.01s-.11,.12-.11,.4v3.05c0,.51,.32,1.15,.69,1.36l7.61,3.01s.02,.01,.03,.02c-.03-.04,0-.18-.05-.42l-.42-1.79c-.32-1.37-1.12-2.65-2.03-3.3l-5.51-2.25c-.1-.07-.17-.09-.2-.09Z"/><rect class="cls-2" x="133.8" y="107.45" width="3.44" height="1" transform="translate(-17.17 189.83) rotate(-66.74)"/><rect class="cls-2" x="143.65" y="117.25" width="3.92" height="1" transform="translate(-8.33 11.12) rotate(-4.25)"/><rect class="cls-2" x="141.24" y="109.91" width="3.62" height="1" transform="translate(-37.54 116.81) rotate(-39.69)"/><rect class="cls-2" x="142.99" y="112.06" width="3.53" height="1" transform="translate(-35.3 77.88) rotate(-26.97)"/></g></g></g></svg>