<?xml version="1.0" encoding="UTF-8"?><svg id="Capa_2" xmlns="http://www.w3.org/2000/svg" viewBox="0 0 285.23 252.48"><defs><style>.cls-1{fill:#96e0aa;}.cls-2{fill:#2b824a;}.cls-3{fill:#59b377;}.cls-4{fill:#ffdc8c;}</style></defs><g id="bus"><g><path class="cls-4" d="M284.87,125.21c0,72.47-41.38,125.72-113.85,125.72S22.44,197.68,22.44,125.21,44.24,.92,114,20.56c70.21,19.77,170.87,32.18,170.87,104.65Z"/><path class="cls-2" d="M277.32,145.77L96.03,250.46c-4.7,2.7-10.49,2.69-15.18-.02l-50.69-29.26L223.44,109.61l53.89,31.11c1.94,1.12,1.94,3.93,0,5.05Z"/><path class="cls-1" d="M221.76,2.17c-1.38-2.08-3.78-2.6-6.53-1.02L12.91,117.96c-3.94,2.27-7.11,8.34-7.11,13.56v78.45c0,3.04,1.28,4.95,3.17,5.21l58.55,33.41,30.45-54.6s110.79-67.17,111.03-67.17,71.32-92.04,71.32-92.04L221.76,2.17Z"/><g><polygon class="cls-2" points="63.19 169.06 62.98 217.77 48.06 208.93 46.79 208.64 44.45 210.96 20.95 198.31 17.12 191.29 5.79 184.76 5.79 138.15 63.19 169.06"/><polygon class="cls-1" points="62.82 170.06 62.33 189.6 47.93 213.76 22.9 199.31 45.76 160.97 62.82 170.06"/><polygon class="cls-1" points="41.54 157.4 18.58 195.57 13.8 192.81 36.76 154.64 41.54 157.4"/></g><path class="cls-2" d="M68.3,249.54L8.79,215.93c-2.16-.36-3.5-2.53-3.5-5.69v-78.45c0-5.37,3.3-11.65,7.36-13.99L214.98,.99c2.82-1.63,5.54-1.22,7.13,1.07l58.96,32.84-.36,.46c-63.72,82.52-70.56,91.21-71.53,92.13l.03,.06c-1.5,.77-106.76,64.58-110.87,67.07l-30.03,54.92ZM218.3,.99c-.87,0-1.82,.29-2.82,.87L13.16,118.66c-3.78,2.19-6.86,8.07-6.86,13.12v78.45c0,2.67,1.05,4.48,2.73,4.71l.18,.06,58.71,33.16,29.67-54.27,.12-.07c96.24-58.35,109.11-66.06,110.96-67.08h-.01c1.03-1.11,46.63-60.09,70.92-91.54L221.41,2.81l-.07-.1c-.76-1.15-1.81-1.73-3.04-1.73Z"/><g><g><ellipse class="cls-2" cx="111.18" cy="209.69" rx="18.64" ry="10.55" transform="translate(-126.16 210.01) rotate(-62.14)"/><polygon class="cls-2" points="114.45 232.18 102.47 226.13 121.25 188.61 144.51 198.7 114.45 232.18"/><ellipse class="cls-2" cx="123.1" cy="215.68" rx="18.64" ry="10.55" transform="translate(-125.1 223.74) rotate(-62.14)"/><ellipse class="cls-3" cx="123.1" cy="215.68" rx="13.18" ry="7.46" transform="translate(-125.1 223.74) rotate(-62.14)"/><path class="cls-2" d="M124.66,221.9l-1.55-2.32c-.19-.28-.64-.07-.89,.42l-2.1,4.12c-.24,.47-.11,.9,.23,.81l.61-.16c.97-.26,1.99-.74,2.99-1.41l.24-.16c.42-.28,.67-.98,.46-1.3Z"/><path class="cls-2" d="M129.21,212.44l-3.04,2.59c-.37,.31-.55,.93-.36,1.21l1.61,2.33c.18,.26,.62,.01,.82-.47l.35-.85c.56-1.35,.97-2.72,1.23-4.06l.06-.31c.11-.56-.25-.8-.66-.44Z"/><path class="cls-2" d="M125.31,207.48l-.33,3.93c-.04,.48,.3,.64,.67,.32l3.09-2.68c.35-.3,.5-.89,.27-1.1l-.4-.36c-.63-.58-1.39-.95-2.24-1.09l-.2-.03c-.35-.06-.82,.49-.87,1.02Z"/><path class="cls-2" d="M118.35,213.87l2.83-.17c.34-.02,.74-.53,.77-1.01l.3-3.98c.03-.45-.32-.56-.65-.21l-.59,.63c-.95,1-1.83,2.14-2.61,3.38l-.18,.29c-.33,.52-.26,1.1,.13,1.08Z"/><path class="cls-2" d="M117.95,222.78l2.08-4.03c.25-.49,.16-.97-.19-.94l-2.9,.22c-.33,.02-.69,.55-.68,.97l.03,.75c.05,1.19,.26,2.27,.62,3.18l.09,.21c.15,.38,.67,.19,.95-.36Z"/><ellipse class="cls-2" cx="123.1" cy="215.68" rx="2.26" ry="1.28" transform="translate(-125.1 223.74) rotate(-62.14)"/></g><g><ellipse class="cls-2" cx="224.33" cy="145.07" rx="18.64" ry="10.55" transform="translate(-8.74 275.62) rotate(-62.14)"/><polygon class="cls-2" points="227.6 167.56 215.62 161.51 234.4 123.99 257.67 134.08 227.6 167.56"/><ellipse class="cls-2" cx="236.25" cy="151.06" rx="18.64" ry="10.55" transform="translate(-7.69 289.35) rotate(-62.14)"/><ellipse class="cls-3" cx="236.25" cy="151.06" rx="13.18" ry="7.46" transform="translate(-7.69 289.35) rotate(-62.14)"/><path class="cls-2" d="M237.81,157.28l-1.55-2.32c-.19-.28-.64-.07-.89,.42l-2.1,4.12c-.24,.47-.11,.9,.23,.81l.61-.16c.97-.26,1.99-.74,2.99-1.41l.24-.16c.42-.28,.67-.98,.46-1.3Z"/><path class="cls-2" d="M242.36,147.82l-3.04,2.59c-.37,.31-.55,.93-.36,1.21l1.61,2.33c.18,.26,.62,.01,.82-.47l.35-.85c.56-1.35,.97-2.72,1.23-4.06l.06-.31c.11-.56-.25-.8-.66-.44Z"/><path class="cls-2" d="M238.46,142.85l-.33,3.93c-.04,.48,.3,.64,.67,.32l3.09-2.68c.35-.3,.5-.89,.27-1.1l-.4-.36c-.63-.58-1.39-.95-2.24-1.09l-.2-.03c-.35-.06-.82,.49-.87,1.02Z"/><path class="cls-2" d="M231.51,149.25l2.83-.17c.34-.02,.74-.53,.77-1.01l.3-3.98c.03-.45-.32-.56-.65-.21l-.59,.63c-.95,1-1.83,2.14-2.61,3.38l-.18,.29c-.33,.52-.26,1.1,.13,1.08Z"/><path class="cls-2" d="M231.11,158.16l2.08-4.03c.25-.49,.16-.97-.19-.94l-2.9,.22c-.33,.02-.69,.55-.68,.97l.03,.75c.05,1.19,.26,2.27,.62,3.18l.09,.21c.15,.38,.67,.19,.95-.36Z"/><ellipse class="cls-2" cx="236.25" cy="151.06" rx="2.26" ry="1.28" transform="translate(-7.69 289.35) rotate(-62.14)"/></g><path class="cls-3" d="M284.87,119.24v4.24c0,1.17-.71,2.53-1.59,3.04l-3.63,2.1-29.3,16.91c-.12,.07-.25,.09-.37,.07-.28-.05-.5-.32-.45-.64,.23-1.52,.36-3.03,.36-4.51,0-8.08-3.58-13-8.76-13.21-.13-.01-.27-.01-.4-.01-1.83,.01-3.85,.59-5.97,1.81-8.34,4.82-15.11,17.75-15.11,28.87,0,1.51,.13,2.92,.38,4.19,.1,.5-.12,1-.56,1.25l-82.39,47.57c-.14,.08-.29,.11-.42,.08-.36-.04-.65-.37-.59-.79,.21-1.42,.32-2.84,.32-4.24,0-8.08-3.58-13-8.75-13.21-.14,0-.27-.01-.4-.01-1.84,.01-3.86,.59-5.98,1.82-8.34,4.81-15.11,17.75-15.11,28.86,0,1.44,.12,2.77,.34,3.98,.12,.64-.2,1.28-.76,1.61l-33.92,19.58c-.84,.49-1.65,.72-2.37,.72h-.06c-2.1-.04-3.56-1.99-3.56-5.24v-78.45c0-5.22,3.17-11.29,7.11-13.56L275.26,35.26c.95-.55,1.87-.85,2.71-.92,.09-.01,.18-.01,.26-.01,2.81-.06,4.78,2.49,4.78,6.79V118.2l.27-.16c.31-.17,.58-.22,.8-.17,.48,.09,.79,.59,.79,1.37Z"/><path class="cls-2" d="M252.16,96.05V61.87l.25-.14,23.31-13.46-.03,8.71-12.8,32.88-10.72,6.19Zm1-33.6v31.87l8.92-5.15,12.64-32.46v-6.71l-21.56,12.45Z"/><path class="cls-2" d="M211.11,119.75v-34.18l.25-.14,38.88-22.45v34.18l-.25,.14-38.88,22.45Zm1-33.6v31.87l37.13-21.43v-31.87l-37.13,21.43Z"/><path class="cls-2" d="M169.85,143.57v-34.18l.25-.14,39.12-22.59v34.18l-.25,.14-39.12,22.59Zm1-33.6v31.87l37.37-21.58v-31.87l-37.37,21.58Z"/><path class="cls-2" d="M129.63,166.8v-34.18l.25-.14,37.89-21.88v34.18l-.25,.14-37.89,21.88Zm1-33.6v31.87l36.14-20.86v-31.87l-36.14,20.86Z"/><path class="cls-2" d="M69.37,249.66c-1.03,0-1.9-.35-2.59-1.03-1.03-1-1.59-2.68-1.59-4.71v-78.45c0-5.37,3.3-11.65,7.36-13.99L274.87,34.67c1.06-.61,2.1-.94,3.08-.99,.08,0,.19-.01,.28-.01,3.12,.02,5.14,2.88,5.14,7.29V117.29c.27-.1,.55-.13,.82-.07,.67,.2,1.04,.88,1.04,1.86v4.24c0,1.35-.81,2.87-1.84,3.47l-32.93,19.01c-.16,.09-.32,.14-.48,.14-.26,.03-.58-.08-.8-.31-.23-.24-.33-.57-.28-.9,.24-1.56,.35-3.05,.35-4.43,0-7.43-3.2-12.42-8.15-12.71-.13-.01-.25-.02-.37,0-1.86,0-3.82,.57-5.86,1.74-8.19,4.74-14.86,17.49-14.86,28.44,0,1.29,.1,2.54,.3,3.72,.16,.95-.29,1.91-1.13,2.4l-81.98,47.33c-.18,.1-.36,.15-.53,.15-.3,.04-.65-.09-.91-.35-.26-.27-.38-.64-.32-1.02,.21-1.41,.31-2.81,.31-4.17,0-7.43-3.2-12.42-8.14-12.71h-.46c-1.83,0-3.77,.58-5.78,1.74-8.19,4.73-14.86,17.48-14.86,28.43,0,1.39,.12,2.71,.34,3.93,.15,.83-.25,1.66-.99,2.08l-33.95,19.6c-.84,.49-1.66,.75-2.46,.79-.03,0-.07,0-.1,0ZM278.19,34.67c-.05,0-.11,0-.17,0-.85,.04-1.73,.33-2.66,.86L73.05,152.34c-3.78,2.18-6.86,8.07-6.86,13.13v78.45c0,1.76,.46,3.18,1.29,4,.52,.51,1.15,.79,1.9,.74,.68-.03,1.35-.25,2.05-.65l33.95-19.6c.37-.21,.57-.62,.5-1.03-.24-1.27-.36-2.65-.36-4.11,0-11.27,6.89-24.41,15.36-29.29,2.2-1.27,4.37-1.87,6.38-1.89h.39c5.55,.34,9.11,5.72,9.11,13.72,0,1.4-.11,2.85-.33,4.31-.01,.09,.02,.14,.05,.17,.02,.02,.07,.05,.13,.05l82.07-47.35c.48-.28,.74-.82,.65-1.36-.21-1.23-.32-2.54-.32-3.88,0-11.26,6.89-24.41,15.36-29.3,2.16-1.25,4.27-1.88,6.26-1.88,.04,0,.07,0,.11,0,.13,0,.28,0,.42,.01,5.51,.32,9.08,5.71,9.08,13.71,0,1.43-.12,2.98-.37,4.58h.03l.07,.07,32.91-19.01c.73-.42,1.34-1.62,1.34-2.61v-4.24c0-.53-.15-.85-.29-.89-.08-.02-.24,.03-.42,.13l-.38,.15-.77,.7V40.96c0-3.8-1.63-6.27-4.14-6.29,0,0-.02,0-.03,0Z"/><path class="cls-2" d="M98.42,189.11c-.28,0-.5-.22-.5-.5v-37.07c0-.28,.22-.5,.5-.5s.5,.22,.5,.5v37.07c0,.28-.22,.5-.5,.5Z"/><path class="cls-2" d="M75.62,214.62c-.28,0-.5-.22-.5-.5v-49.71l.25-.14,22.79-13.16c.24-.14,.54-.06,.68,.18,.14,.24,.06,.54-.18,.68l-22.54,13.02v49.13c0,.28-.22,.5-.5,.5Z"/></g><path class="cls-2" d="M69.14,151.66c-.08,0-.16-.02-.24-.06L13.08,121.41c-.24-.13-.33-.43-.2-.68,.13-.24,.43-.33,.68-.2l55.81,30.19c.24,.13,.33,.43,.2,.68-.09,.17-.26,.26-.44,.26Z"/><path class="cls-2" d="M63.47,162.97c-.08,0-.16-.02-.24-.06l-55.18-29.85c-.24-.13-.33-.43-.2-.68,.13-.24,.44-.33,.68-.2l55.18,29.85c.24,.13,.33,.43,.2,.68-.09,.17-.26,.26-.44,.26Z"/><path class="cls-2" d="M69.31,247.16c-.2,0-.39-.04-.56-.14-.65-.38-1.06-1.6-1.06-3.1v-78.45c0-4.5,2.8-9.92,6.11-11.82L276.12,36.84c.75-.44,2.13-.94,3.07-.41,1.06,.61,1.68,2.31,1.68,4.54V120.5h-1V40.96c0-2.2-.64-3.35-1.18-3.67-.59-.33-1.62,.15-2.07,.41L74.3,154.51c-3.04,1.75-5.61,6.77-5.61,10.96v78.45c0,1.45,.42,2.15,.57,2.24,.05,.02,.36,0,.92-.31l35.81-20.95,.5,.86-35.81,20.95c-.34,.19-.88,.45-1.37,.45Zm-6.4-.92c-.21-.86-.22-1.36-.22-2.32v-78.45c0-6.28,3.78-13.37,8.61-16.15L275.21,31.65l.5,.87L71.8,150.18c-4.55,2.62-8.11,9.33-8.11,15.29v78.45c0,.92,0,1.33,.19,2.08l-.97,.24Z"/><path class="cls-2" d="M8.29,215.77c-.28,0-.5-.22-.5-.5v-29.24c0-.28,.22-.5,.5-.5s.5,.22,.5,.5v29.24c0,.28-.22,.5-.5,.5Zm0-75.99c-.28,0-.5-.22-.5-.5v-7.5c0-4.5,2.8-9.91,6.12-11.82L216.23,3.16c.41-.24,3.54-1.69,4.49-2.13,.25-.12,.55,0,.66,.25,.12,.25,0,.55-.25,.66-2.76,1.27-4.2,1.96-4.4,2.08L14.41,120.83c-3.05,1.75-5.62,6.77-5.62,10.96v7.5c0,.28-.22,.5-.5,.5Z"/><path class="cls-2" d="M284.87,119.08v4.24c0,1.17-.71,2.53-1.59,3.04l-3.63,2.1c-.12,.04-.23,.07-.34,.11-.65,.22-1.07,.36-1.07,.36v-7.11c0-.61,.32-1.18,.85-1.5l3.78-2.28s.01-.01,.04-.02c.02-.02,.06-.04,.1-.06v.03l.27-.11c.31-.17,.58-.22,.8-.17,.48,.09,.79,.59,.79,1.37Z"/><g><path class="cls-2" d="M77.08,240.12v-71.58l9.91-5.72v71.58l-9.91,5.72Zm1-71v69.27l7.91-4.56v-69.27l-7.91,4.56Zm8.41,64.99h0Z"/><path class="cls-2" d="M87.09,234.34v-71.58l9.91-5.72v71.58l-9.91,5.72Zm1-71v69.27l7.91-4.56v-69.27l-7.91,4.56Zm8.41,64.99h0Z"/><polygon class="cls-2" points="85.12 166.89 85.12 189.54 79.04 193.05 79.04 170.4 82.77 168.25 85.12 166.89"/><polygon class="cls-2" points="85.12 232.53 79.04 236.04 79.04 195.7 85.12 192.19 85.12 232.53"/><polygon class="cls-2" points="95.08 161.14 95.08 183.79 89 187.3 89 164.65 92.63 162.55 94.12 161.69 94.13 161.69 95.08 161.14"/><polygon class="cls-2" points="95.08 226.78 89 230.29 89 189.95 95.08 186.44 95.08 226.78"/><polygon class="cls-3" points="95.08 161.14 95.08 165.36 89 185.42 89 179.78 94.12 161.69 94.13 161.69 95.08 161.14"/><polygon class="cls-3" points="92.63 162.55 89 173.41 89 164.65 92.63 162.55"/><polygon class="cls-3" points="85.12 167.93 85.12 172.78 79.04 192.83 79.04 187.19 84.33 168.53 85.12 167.93"/><polygon class="cls-3" points="82.77 168.25 79.04 179.41 79.04 170.4 82.77 168.25"/></g><polygon class="cls-2" points="75.38 213.9 68.43 217.45 68.43 168.85 75.38 165.04 75.38 213.9"/><polygon class="cls-2" points="111.18 181.01 98.42 191.57 98.42 151.54 127.04 135.01 127.04 168.04 111.18 181.01"/><polygon class="cls-2" points="167.27 144.45 130.13 165.56 130.13 132.9 167.27 111.79 167.27 144.45"/><polygon class="cls-2" points="208.72 120.49 169.97 142.62 169.97 109.96 208.72 87.83 208.72 120.49"/><path class="cls-2" d="M212.9,167.05c-.28,0-.5-.22-.5-.5v-31.67c0-.28,.22-.5,.5-.5s.5,.22,.5,.5v31.67c0,.28-.22,.5-.5,.5Z"/><path class="cls-2" d="M174.14,189.42c-.28,0-.5-.22-.5-.5v-31.58c0-.28,.22-.5,.5-.5s.5,.22,.5,.5v31.58c0,.28-.22,.5-.5,.5Z"/><polygon class="cls-2" points="249.74 96.87 211.79 118.76 211.79 86.1 249.74 63.85 249.74 96.87"/><polygon class="cls-2" points="262.68 89 252.64 94.79 252.64 62.13 275.21 49.14 275.21 56.81 262.68 89"/><path class="cls-2" d="M136.31,208.47c-.17,0-.34-.09-.43-.25-.14-.24-.06-.54,.18-.68l82.79-47.87c.23-.14,.54-.06,.68,.18,.14,.24,.06,.54-.18,.68l-82.79,47.87c-.08,.05-.17,.07-.25,.07Z"/><path class="cls-2" d="M249.66,142.93c-.17,0-.34-.09-.43-.25-.14-.24-.06-.54,.18-.68l29.76-17.21c.24-.14,.54-.06,.68,.18,.14,.24,.06,.54-.18,.68l-29.76,17.21c-.08,.05-.17,.07-.25,.07Z"/><path class="cls-2" d="M129.4,183.45c-.17,0-.34-.09-.43-.25-.14-.24-.06-.54,.18-.68l153.47-88.35c.24-.14,.54-.06,.68,.18,.14,.24,.06,.54-.18,.68l-153.47,88.35c-.08,.04-.16,.07-.25,.07Z"/><polygon class="cls-2" points="197 171.12 193.52 173.13 193.52 171.7 197 169.69 197 171.12"/><path class="cls-2" d="M231.71,45.47c-.28,0-.5-.22-.5-.5v-2.12c0-.28,.22-.5,.5-.5s.5,.22,.5,.5v2.12c0,.28-.22,.5-.5,.5Z"/><g><path class="cls-3" d="M180.88,38.07l.13-1.05,2.2-1.2,27.34,15.79,.29,.18s1.77-.42,1.97,0,.34,2.09-.53,2.77c-1.07,.72-2.55,.18-3.01-.09l-28.39-16.39Z"/><path class="cls-2" d="M210.8,57.68c-.38,0-.75-.08-1.05-.25l-29.13-16.82c-.75-.44-.58-1.46-.56-1.58,.05-.27,.32-.45,.59-.4,.27,.05,.45,.32,.4,.59-.04,.19,0,.48,.07,.52l29.13,16.82c.28,.16,.91,.16,1.32-.08l19.9-11.47c.24-.14,.54-.06,.68,.18,.14,.24,.06,.54-.18,.68l-19.9,11.47c-.37,.22-.83,.33-1.28,.33Z"/><path class="cls-2" d="M210.8,55.57c-.38,0-.75-.08-1.05-.25l-29.13-16.82c-.36-.21-.57-.53-.57-.89,0-.4,.25-.77,.7-1.03l2.02-1.17c.24-.14,.54-.06,.68,.18,.14,.24,.06,.54-.18,.68l-2.02,1.17c-.14,.08-.19,.16-.2,.18l29.2,16.83c.28,.16,.91,.17,1.32-.08l19.45-11.23c.14-.08,.19-.16,.2-.18l-29.19-16.83c-.24-.14-.32-.44-.18-.68,.14-.24,.44-.32,.68-.18l29.13,16.82c.36,.21,.57,.53,.57,.89,0,.4-.25,.77-.7,1.03l-19.45,11.23c-.37,.22-.83,.33-1.28,.33Z"/><path class="cls-2" d="M211.35,52.28c-.38,0-.75-.08-1.04-.25h0l-29.13-16.82c-.36-.21-.57-.53-.57-.89,0-.4,.25-.77,.7-1.03l16.25-9.61c.71-.41,1.7-.44,2.33-.08l29.13,16.82c.36,.21,.57,.53,.57,.89,0,.4-.25,.77-.7,1.03l-16.26,9.61c-.38,.22-.84,.33-1.28,.33Zm-.54-1.12c.28,.16,.91,.16,1.32-.08l16.26-9.61c.15-.08,.2-.16,.2-.18l-29.19-16.83c-.28-.16-.91-.16-1.32,.08l-16.25,9.61c-.15,.08-.2,.16-.2,.18l29.19,16.83Z"/><path class="cls-2" d="M210.85,57.68c-.28,0-.5-.22-.5-.5v-2.12c0-.28,.22-.5,.5-.5s.5,.22,.5,.5v2.12c0,.28-.22,.5-.5,.5Z"/><path class="cls-2" d="M180.57,40.25c-.28,0-.5-.22-.5-.5v-1.93c0-.28,.22-.5,.5-.5s.5,.22,.5,.5v1.93c0,.28-.22,.5-.5,.5Z"/><path class="cls-2" d="M213.04,54.59s-.02,0-.03,0c-.28-.02-.49-.24-.47-.51,.04-.58,.12-1.83-.13-2-.03-.02-.19-.04-.56,.15-.25,.12-.55,.02-.67-.22-.12-.25-.02-.55,.22-.67,.64-.32,1.16-.35,1.56-.08,.74,.49,.66,1.69,.58,2.85-.02,.26-.24,.49-.5,.49Z"/></g><path class="cls-2" d="M111.42,112.98c-.28,0-.5-.22-.5-.5v-2.12c0-.28,.22-.5,.5-.5s.5,.22,.5,.5v2.12c0,.28-.22,.5-.5,.5Z"/><g><path class="cls-3" d="M60.6,105.58l.13-1.05,2.2-1.2,27.34,15.79,.29,.18s1.77-.42,1.97,0,.34,2.09-.53,2.77c-1.07,.72-2.55,.18-3.01-.09l-28.39-16.39Z"/><path class="cls-2" d="M90.52,125.19c-.38,0-.76-.08-1.05-.25l-29.13-16.82c-.75-.44-.58-1.46-.56-1.58,.05-.27,.32-.45,.59-.4,.27,.05,.45,.32,.4,.59-.04,.2,0,.48,.08,.53l29.13,16.82c.28,.16,.91,.17,1.32-.08l19.9-11.47c.24-.14,.54-.06,.68,.18,.14,.24,.06,.54-.18,.68l-19.9,11.47c-.38,.22-.83,.33-1.28,.33Z"/><path class="cls-2" d="M90.52,123.08c-.38,0-.76-.08-1.05-.25l-29.13-16.82c-.36-.21-.57-.53-.57-.89,0-.4,.25-.77,.7-1.03l2.02-1.17c.24-.14,.54-.06,.68,.18,.14,.24,.06,.54-.18,.68l-2.02,1.17c-.14,.08-.19,.16-.2,.18l29.19,16.83c.28,.16,.91,.16,1.32-.08l19.45-11.23c.14-.08,.19-.16,.2-.18l-29.19-16.83c-.24-.14-.32-.44-.18-.68,.14-.24,.45-.32,.68-.18l29.13,16.82c.36,.21,.57,.53,.57,.89,0,.4-.25,.77-.7,1.03l-19.45,11.23c-.37,.22-.83,.33-1.28,.33Z"/><path class="cls-2" d="M91.07,119.79c-.38,0-.75-.08-1.04-.25l-29.13-16.82c-.36-.21-.57-.53-.57-.89,0-.4,.25-.77,.7-1.03l16.25-9.61c.7-.41,1.7-.44,2.33-.08l29.13,16.82c.36,.21,.57,.53,.57,.89,0,.4-.25,.77-.7,1.03l-16.25,9.61c-.38,.22-.84,.33-1.28,.33Zm-12.5-27.92c-.26,0-.55,.06-.78,.19l-16.25,9.61c-.15,.08-.2,.16-.2,.18l29.2,16.83c.28,.16,.91,.17,1.32-.08l16.25-9.61c.15-.08,.2-.16,.2-.18l-29.2-16.83c-.13-.07-.33-.11-.54-.11Z"/><path class="cls-2" d="M90.56,125.19c-.28,0-.5-.22-.5-.5v-2.12c0-.28,.22-.5,.5-.5s.5,.22,.5,.5v2.12c0,.28-.22,.5-.5,.5Z"/><path class="cls-2" d="M60.28,107.75c-.28,0-.5-.22-.5-.5v-1.93c0-.28,.22-.5,.5-.5s.5,.22,.5,.5v1.93c0,.28-.22,.5-.5,.5Z"/><path class="cls-2" d="M92.75,122.1s-.02,0-.03,0c-.28-.02-.48-.24-.47-.51,.04-.57,.13-1.83-.13-2-.03-.02-.19-.04-.56,.15-.25,.12-.55,.02-.67-.22-.12-.25-.02-.55,.22-.67,.64-.32,1.17-.35,1.56-.08,.74,.49,.65,1.75,.57,2.86-.02,.26-.24,.48-.5,.48Z"/></g><g><path class="cls-1" d="M56.21,189.64l-3.82-2.21c-.69-.4-1.25-1.47-1.25-2.39v-14.37c0-.92,.56-1.35,1.25-.95l3.82,2.21c.69,.4,1.25,1.47,1.25,2.39v14.37c0,.92-.56,1.35-1.25,.95Z"/><path class="cls-3" d="M54.93,173.33c.49,.77,.79,.67,.66,3.57-.05,2.09,.02,11.97,.02,11.97l-.34,.92h1.32s.88-.04,.88-1.1c0-1.97-.09-13.15-.09-13.15,0,0,.29-1.51-.21-2.48-.18-.78-.79-.89-1.24-.64-.38,.21-1.01,.91-1.01,.91Z"/><path class="cls-2" d="M56.72,190.29c-.24,0-.5-.07-.75-.22l-3.82-2.21c-.84-.49-1.5-1.73-1.5-2.82v-14.37c0-.67,.25-1.2,.68-1.45,.38-.22,.86-.2,1.32,.07l3.82,2.21c.84,.49,1.5,1.73,1.5,2.82v14.37c0,.67-.25,1.19-.68,1.44-.17,.1-.37,.15-.57,.15Zm-4.82-20.21s-.05,0-.07,.02c-.09,.05-.18,.25-.18,.58v14.37c0,.74,.47,1.65,1,1.96l3.82,2.21c.13,.08,.25,.1,.32,.07,.09-.05,.18-.25,.18-.58v-14.37c0-.74-.47-1.65-1-1.96l-3.82-2.21c-.09-.05-.18-.08-.25-.08Z"/><path class="cls-1" d="M54.56,189.66l-3.19-1.84c-.58-.33-1.05-1.23-1.05-2v-13.84c0-.77,.47-1.12,1.05-.79l3.19,1.84c.58,.33,1.05,1.23,1.05,2v13.84c0,.77-.47,1.12-1.05,.79Z"/><path class="cls-2" d="M54.98,190.29c-.22,0-.45-.06-.67-.19l-3.19-1.84c-.73-.42-1.3-1.49-1.3-2.43v-13.84c0-.59,.22-1.05,.61-1.28,.35-.2,.78-.18,1.19,.05l3.19,1.85c.73,.42,1.3,1.49,1.3,2.43v13.84c0,.59-.22,1.05-.61,1.28-.16,.09-.33,.14-.52,.14Zm-4.03-18.72s-.02,0-.02,0c-.04,.02-.11,.15-.11,.41v13.84c0,.59,.37,1.32,.8,1.57l3.19,1.84c.11,.06,.17,.06,.18,.05,.04-.02,.11-.15,.11-.41v-13.84c0-.59-.37-1.32-.8-1.57l-3.19-1.84c-.08-.04-.14-.06-.17-.06Z"/><path class="cls-2" d="M50.62,171.68c-.09,0-.17-.02-.25-.07-.24-.14-.32-.45-.18-.68l.84-1.44c.14-.24,.45-.32,.68-.18,.24,.14,.32,.45,.18,.68l-.84,1.44c-.09,.16-.26,.25-.43,.25Z"/><path class="cls-2" d="M54.69,173.61c-.18,0-.35-.09-.44-.26-.13-.24-.05-.55,.2-.68l1.8-.99c.24-.13,.55-.05,.68,.2,.13,.24,.05,.55-.2,.68l-1.8,.99c-.08,.04-.16,.06-.24,.06Z"/><path class="cls-2" d="M55.8,175.89c-.18,0-.35-.09-.44-.26-.13-.24-.05-.55,.2-.68l1.59-.88c.24-.14,.55-.05,.68,.2,.13,.24,.05,.55-.2,.68l-1.59,.88c-.08,.04-.16,.06-.24,.06Z"/><path class="cls-2" d="M54.97,190.29c-.25,0-.47-.2-.5-.45-.03-.28,.18-.52,.45-.54l2.21-.2c.27-.02,.52,.18,.54,.45,.03,.28-.18,.52-.45,.54l-2.21,.2s-.03,0-.05,0Z"/><g><path class="cls-1" d="M60.38,162.89l-6.53,3.77-.57,.33c-.45,.26-.82,.97-.82,1.57v3.11l.9,.35,.5-3.12c0-.28,.17-.6,.38-.72l6.15-3.55v-1.74Z"/><path class="cls-3" d="M61.1,163.13l-6.53,3.77-.57,.33c-.45,.26-.82,.97-.82,1.57v3.11l1.4-.81v-1.96c0-.28,.17-.6,.38-.72l6.15-3.55v-1.74Z"/><path class="cls-2" d="M53.3,172.53c-.05,0-.1,0-.16-.02l-.72-.24c-.21-.07-.34-.26-.34-.48v-3.11c0-.79,.46-1.65,1.07-2.01l7.1-4.1c.12-.07,.27-.09,.41-.04l.72,.24c.26,.09,.41,.37,.32,.63-.09,.26-.37,.41-.63,.32l-.51-.17-6.91,3.99c-.27,.16-.57,.68-.57,1.14v2.74l.38,.12c.26,.09,.41,.37,.32,.63-.07,.21-.26,.34-.48,.34Z"/><path class="cls-2" d="M53.3,172.53c-.09,0-.17-.02-.25-.07-.15-.09-.25-.25-.25-.43v-3.11c0-.79,.46-1.65,1.07-2.01l7.1-4.1c.15-.09,.35-.09,.5,0,.15,.09,.25,.25,.25,.43v1.74c0,.18-.1,.34-.25,.43l-6.15,3.55s-.13,.17-.13,.29v1.96c0,.18-.1,.34-.25,.43l-1.4,.81c-.08,.04-.16,.07-.25,.07Zm7.43-8.42l-6.35,3.67c-.27,.16-.57,.68-.57,1.14v2.24l.4-.23v-1.67c0-.46,.26-.95,.63-1.16l5.9-3.41v-.58Z"/></g></g><g><path class="cls-1" d="M6.39,162.81l-3.82-2.21c-.69-.4-1.25-1.47-1.25-2.39v-14.37c0-.92,.56-1.35,1.25-.95l3.82,2.21c.69,.4,1.25,1.47,1.25,2.39v14.37c0,.92-.56,1.35-1.25,.95Z"/><path class="cls-3" d="M5.1,146.5c.49,.77,.79,.67,.66,3.57-.05,2.09,.02,11.97,.02,11.97l-.34,.92h1.32s.88-.04,.88-1.1c0-1.97-.09-13.15-.09-13.15,0,0,.29-1.51-.21-2.48-.18-.78-.79-.89-1.24-.64-.38,.21-1.01,.91-1.01,.91Z"/><path class="cls-2" d="M6.9,163.46c-.24,0-.5-.07-.75-.22l-3.82-2.21c-.84-.49-1.5-1.73-1.5-2.82v-14.37c0-.67,.25-1.2,.68-1.45,.38-.22,.86-.2,1.32,.07l3.82,2.21c.84,.48,1.5,1.72,1.5,2.82v14.37c0,.67-.25,1.19-.68,1.44-.17,.1-.37,.15-.57,.15Zm-4.82-20.21s-.05,0-.07,.02c-.09,.05-.18,.25-.18,.58v14.37c0,.73,.47,1.65,1,1.96l3.82,2.21c.13,.08,.25,.1,.32,.07,.09-.05,.18-.25,.18-.58v-14.37c0-.74-.47-1.65-1-1.96l-3.82-2.21c-.09-.05-.18-.08-.25-.08Z"/><path class="cls-1" d="M4.73,162.83l-3.19-1.84c-.58-.33-1.05-1.23-1.05-2v-13.84c0-.77,.47-1.12,1.05-.79l3.19,1.84c.58,.33,1.05,1.23,1.05,2v13.84c0,.77-.47,1.12-1.05,.79Z"/><path class="cls-2" d="M5.16,163.46c-.22,0-.45-.06-.67-.19h0l-3.19-1.85c-.73-.42-1.3-1.49-1.3-2.43v-13.84c0-.59,.22-1.05,.61-1.28,.35-.2,.78-.18,1.18,.06l3.19,1.84c.73,.42,1.3,1.49,1.3,2.43v13.84c0,.59-.22,1.05-.61,1.28-.16,.09-.33,.14-.52,.14Zm-.17-1.06c.11,.06,.17,.06,.18,.06,.04-.02,.11-.15,.11-.41v-13.84c0-.59-.37-1.32-.8-1.57l-3.19-1.84c-.11-.06-.17-.06-.18-.05-.04,.02-.11,.15-.11,.41v13.84c0,.59,.37,1.32,.8,1.57l3.19,1.84Z"/><path class="cls-2" d="M.79,144.85c-.09,0-.17-.02-.25-.07-.24-.14-.32-.45-.18-.68l.84-1.44c.14-.24,.45-.32,.68-.18,.24,.14,.32,.45,.18,.68l-.84,1.44c-.09,.16-.26,.25-.43,.25Z"/><path class="cls-2" d="M4.86,146.79c-.18,0-.35-.09-.44-.26-.13-.24-.05-.55,.2-.68l1.8-.99c.24-.14,.55-.05,.68,.2,.13,.24,.05,.55-.2,.68l-1.8,.99c-.08,.04-.16,.06-.24,.06Z"/><path class="cls-2" d="M5.98,149.06c-.18,0-.35-.09-.44-.26-.13-.24-.05-.55,.2-.68l1.59-.88c.24-.13,.55-.05,.68,.2s.05,.55-.2,.68l-1.59,.88c-.08,.04-.16,.06-.24,.06Z"/><path class="cls-2" d="M5.15,163.46c-.25,0-.47-.2-.5-.45-.03-.28,.18-.52,.45-.54l2.21-.2c.27,0,.52,.18,.54,.45,.03,.28-.18,.52-.45,.54l-2.21,.2s-.03,0-.05,0Z"/><g><path class="cls-1" d="M10.55,136.07l-6.53,3.77-.57,.33c-.45,.26-.82,.97-.82,1.57v3.11l.9,.35,.5-3.12c0-.28,.17-.6,.38-.72l6.15-3.55v-1.74Z"/><path class="cls-3" d="M11.28,136.3l-6.53,3.77-.57,.33c-.45,.26-.82,.97-.82,1.57v3.11l1.4-.81v-1.96c0-.28,.17-.6,.38-.72l6.15-3.55v-1.74Z"/><path class="cls-2" d="M3.48,145.7c-.05,0-.1,0-.16-.02l-.72-.24c-.21-.07-.34-.26-.34-.48v-3.11c0-.79,.46-1.65,1.07-2.01l7.1-4.1c.12-.07,.27-.09,.4-.04l.72,.24c.26,.09,.41,.37,.32,.63s-.37,.41-.63,.32l-.51-.17-6.91,3.99c-.27,.16-.57,.68-.57,1.14v2.74l.38,.12c.26,.09,.41,.37,.32,.63-.07,.21-.26,.34-.48,.34Z"/><path class="cls-2" d="M3.48,145.7c-.09,0-.17-.02-.25-.07-.15-.09-.25-.25-.25-.43v-3.11c0-.79,.46-1.65,1.07-2.01l7.1-4.1c.15-.09,.35-.09,.5,0,.15,.09,.25,.25,.25,.43v1.74c0,.18-.1,.34-.25,.43l-6.15,3.55s-.13,.17-.13,.29v1.96c0,.18-.1,.34-.25,.43l-1.4,.81c-.08,.04-.16,.07-.25,.07Zm7.43-8.42l-6.35,3.67c-.27,.16-.57,.68-.57,1.14v2.24l.4-.23v-1.67c0-.46,.26-.95,.63-1.16l5.9-3.41v-.58Z"/></g></g><path class="cls-2" d="M35.65,227.54c-.19,0-.39-.05-.56-.15l-6.16-3.56c-.56-.32-.91-.92-.91-1.57v-2.88c0-.42,.22-.79,.58-1,.36-.21,.79-.21,1.15,0l5.88,3.4c.71,.41,1.14,1.17,1.14,1.98v2.65c0,.41-.21,.77-.56,.98-.18,.1-.37,.15-.56,.15Zm-.06-1.02c.05,.03,.1,.02,.13,0,.03-.02,.06-.05,.06-.11v-2.65c0-.46-.25-.88-.64-1.11l-5.88-3.4c-.06-.04-.12-.02-.15,0s-.08,.06-.08,.13v2.88c0,.29,.16,.56,.41,.71l6.16,3.56Z"/><path class="cls-2" d="M36.05,227.36c-.16,0-.32-.04-.47-.13l.5-.87s-.08,0-.1,.02c.03-.03,.09-.14,.09-.3v-2.65c0-.46-.25-.88-.64-1.11l-5.88-3.4c-.06-.04-.12-.02-.15,0-.03,.02-.08,.06-.08,.13h-1c0-.42,.22-.79,.58-1,.36-.21,.79-.21,1.15,0l5.88,3.4c.7,.41,1.14,1.17,1.14,1.98v2.65c0,.5-.23,.96-.59,1.16-.14,.08-.28,.12-.43,.12Z"/><path class="cls-2" d="M77.58,167.6c-.17,0-.34-.09-.43-.25-.14-.24-.06-.54,.18-.68l8.27-4.81c.24-.14,.54-.06,.68,.18,.14,.24,.06,.54-.18,.68l-8.27,4.81c-.08,.05-.17,.07-.25,.07Z"/><path class="cls-2" d="M77.58,166.03c-.17,0-.34-.09-.43-.25-.14-.24-.06-.54,.18-.68l8.27-4.81c.24-.14,.54-.06,.68,.18,.14,.24,.06,.54-.18,.68l-8.27,4.81c-.08,.05-.17,.07-.25,.07Z"/><path class="cls-2" d="M88.3,161.52c-.17,0-.34-.09-.43-.25-.14-.24-.06-.54,.18-.68l8.19-4.75c.24-.14,.54-.06,.68,.18,.14,.24,.06,.54-.18,.68l-8.19,4.75c-.08,.05-.17,.07-.25,.07Z"/><path class="cls-2" d="M88.3,159.95c-.17,0-.34-.09-.43-.25-.14-.24-.06-.54,.18-.68l8.19-4.75c.24-.14,.54-.06,.68,.18,.14,.24,.06,.54-.18,.68l-8.19,4.75c-.08,.05-.17,.07-.25,.07Z"/><g><path class="cls-3" d="M53.48,228.67l-5.23-3.02c-.35-.2-.63-.74-.63-1.2h0c0-1.37,.48-2.38,1.29-2.74l.51-.23c1.05-.46,2.34-.3,3.67,.46l7,4.04c.34,.2,.61,.72,.61,1.17v.57c0,1.13-.49,1.88-1.26,1.91l-2.16,.09c-1.19,.05-2.48-.31-3.79-1.07Z"/><ellipse class="cls-1" cx="53.85" cy="224.7" rx="1.27" ry="2.25" transform="translate(-83.68 39.03) rotate(-23.05)"/><path class="cls-2" d="M57.05,230.2c-1.22,0-2.5-.38-3.81-1.14l-5.23-3.02c-.5-.29-.88-.99-.88-1.63,0-1.58,.58-2.75,1.59-3.19l.51-.23c1.2-.53,2.66-.36,4.12,.49l7,4.04c.49,.28,.86,.97,.86,1.6v.57c0,1.42-.68,2.37-1.74,2.41l-2.17,.09c-.08,0-.17,0-.25,0Zm-3.31-2.01c1.22,.7,2.43,1.06,3.52,1l2.17-.09c.58-.02,.79-.78,.79-1.41v-.57c0-.29-.2-.64-.36-.74l-7-4.04c-1.18-.68-2.32-.83-3.21-.44l-.51,.23c-.62,.28-.99,1.13-.99,2.28,0,.31,.2,.67,.38,.77l5.23,3.02Z"/><path class="cls-2" d="M56.36,228.68c-.89,0-1.88-.29-2.85-.85l-3.82-2.21c-.24-.14-.32-.44-.18-.68,.14-.24,.44-.32,.68-.18l3.82,2.21c.87,.5,1.74,.75,2.5,.71l2.82-.02h0c.27,0,.5,.22,.5,.5,0,.28-.22,.5-.5,.5l-2.81,.02c-.06,0-.11,0-.17,0Z"/><path class="cls-2" d="M54.34,229.35c-.38,0-.79-.12-1.2-.36-1.48-.85-2.64-3.05-2.64-5.01,0-1.11,.39-1.97,1.08-2.37,.6-.34,1.33-.3,2.07,.13,1.48,.86,2.64,3.06,2.64,5.01,0,1.11-.39,1.97-1.08,2.37-.26,.15-.56,.23-.86,.23Zm-1.9-6.96c-.12,0-.25,.03-.37,.09-.36,.21-.58,.77-.58,1.5,0,1.57,.98,3.47,2.14,4.14,.29,.17,.72,.33,1.07,.13,.36-.21,.58-.77,.58-1.5,0-1.57-.98-3.47-2.14-4.14-.2-.11-.45-.22-.7-.22Z"/><path class="cls-2" d="M55.1,228.96c-.36,0-.74-.11-1.11-.33-1.35-.78-2.41-2.79-2.41-4.57,0-.83,.23-1.49,.66-1.92,.31-.31,.71-.47,1.15-.47h0c.28,0,.5,.23,.5,.5,0,.28-.22,.5-.5,.5h0c-.17,0-.32,.06-.44,.18-.23,.23-.37,.67-.37,1.21,0,1.41,.88,3.1,1.91,3.7,.27,.16,.53,.22,.73,.18,.26-.05,.53,.13,.58,.4,.05,.27-.13,.53-.4,.58-.1,.02-.2,.03-.31,.03Z"/><path class="cls-2" d="M58.55,229.47c-.25,0-.51-.07-.76-.22-.86-.49-1.53-1.76-1.53-2.87,0-.68,.25-1.21,.69-1.47,.39-.22,.88-.2,1.34,.07,.86,.49,1.53,1.75,1.53,2.87,0,.68-.25,1.21-.69,1.47-.17,.1-.37,.15-.58,.15Zm-1.02-3.71s-.06,0-.08,.02c-.1,.06-.19,.26-.19,.6,0,.75,.48,1.69,1.03,2.01,.14,.08,.27,.1,.33,.07,.1-.05,.19-.26,.19-.6,0-.75-.48-1.69-1.03-2.01-.05-.03-.16-.09-.26-.09Z"/><path class="cls-2" d="M58.96,229.14c-.23,0-.46-.07-.69-.2-.76-.44-1.35-1.55-1.35-2.54,0-.49,.14-.89,.41-1.15,.2-.2,.47-.31,.76-.31h0c.28,0,.5,.23,.5,.5,0,.28-.22,.5-.5,.5h0c-.11,.08-.17,.22-.17,.47,0,.63,.4,1.41,.85,1.68,.1,.06,.17,.06,.21,.06,.26-.05,.53,.13,.58,.4,.05,.27-.13,.53-.4,.58-.07,.01-.13,.02-.2,.02Z"/><path class="cls-2" d="M60.71,228.34c-.28,0-.5-.22-.5-.5v-1.25l-.8-.46c-.24-.14-.32-.44-.18-.68,.14-.24,.44-.32,.68-.18l1.3,.75v1.83c0,.28-.22,.5-.5,.5Z"/></g><g><path class="cls-3" d="M16.49,207.17l4.66,2.69c.31,.18,.56-.01,.56-.42h0c0-1.22-.43-2.61-1.15-3.77l-.46-.73c-.94-1.5-2.08-2.68-3.26-3.36l-6.23-3.6c-.3-.17-.54,.01-.54,.41v.51c0,1.01,.44,2.18,1.13,3l1.93,2.31c1.06,1.27,2.21,2.27,3.37,2.94Z"/><ellipse class="cls-1" cx="16.17" cy="203.25" rx="1.13" ry="2" transform="translate(-78.29 22.56) rotate(-23.05)"/><path class="cls-2" d="M21.37,210.38c-.16,0-.32-.04-.47-.13l-4.66-2.69c-1.23-.71-2.41-1.74-3.51-3.06l-1.93-2.31c-.77-.92-1.24-2.19-1.24-3.33v-.51c0-.39,.16-.71,.44-.87,.26-.15,.57-.14,.86,.03l6.23,3.6c1.24,.72,2.46,1.97,3.44,3.52l.46,.73c.78,1.25,1.23,2.71,1.23,4.03,0,.4-.16,.72-.44,.88-.12,.07-.25,.11-.39,.11Zm.03-1h0Zm-10.83-10.88v.37c0,.9,.39,1.95,1,2.68l1.93,2.31c1.01,1.21,2.13,2.19,3.24,2.83l4.46,2.57c-.04-1.14-.43-2.36-1.06-3.37l-.46-.73c-.89-1.42-1.99-2.55-3.09-3.19l-6.02-3.48Z"/><path class="cls-2" d="M19.65,208.22c-.08,0-.17-.02-.25-.07l-3.41-1.97c-.91-.52-1.78-1.29-2.6-2.26l-2.5-2.9c-.18-.21-.16-.53,.05-.71,.21-.18,.53-.16,.71,.05l2.5,2.91c.74,.88,1.54,1.59,2.34,2.04l3.41,1.97c.24,.14,.32,.44,.18,.68-.09,.16-.26,.25-.43,.25Z"/><path class="cls-2" d="M17.42,207.93c-.35,0-.72-.11-1.1-.32-1.34-.77-2.38-2.75-2.38-4.51,0-1.01,.36-1.8,.99-2.16,.55-.32,1.22-.28,1.89,.11,1.34,.77,2.38,2.75,2.38,4.51,0,1.01-.36,1.79-.99,2.16-.24,.14-.51,.21-.8,.21Zm-1.69-6.2c-.1,0-.21,.02-.3,.08-.31,.18-.49,.66-.49,1.29,0,1.38,.86,3.05,1.88,3.64,.25,.14,.61,.28,.9,.11,.3-.18,.49-.66,.49-1.29,0-1.38-.86-3.05-1.88-3.64-.17-.1-.38-.19-.59-.19Z"/><path class="cls-2" d="M16.58,206.7c-.33,0-.67-.1-1.02-.3-.39-.23-.78-.58-1.11-1.03-.17-.22-.12-.53,.1-.7,.22-.17,.53-.12,.7,.1,.25,.33,.53,.6,.81,.76,.17,.1,.51,.25,.76,.1,.26-.15,.42-.57,.42-1.13,0-.9-.42-1.99-1.04-2.71-.18-.21-.16-.52,.05-.71,.21-.18,.52-.16,.71,.05,.78,.9,1.29,2.22,1.29,3.36,0,.93-.33,1.66-.92,1.99-.23,.13-.48,.2-.74,.2Z"/><path class="cls-2" d="M12.89,203.25c-.23,0-.47-.07-.7-.2-.78-.45-1.39-1.59-1.39-2.61,0-.62,.23-1.12,.64-1.35,.36-.21,.82-.19,1.24,.06,.78,.45,1.39,1.59,1.39,2.61,0,.62-.23,1.12-.64,1.35-.17,.1-.35,.14-.54,.14Zm-.9-3.31s-.03,0-.04,0c-.06,.03-.14,.19-.14,.49,0,.65,.41,1.47,.89,1.74,.11,.06,.2,.08,.25,.06,.06-.03,.14-.19,.14-.49,0-.65-.42-1.47-.89-1.74-.08-.04-.15-.07-.2-.07Z"/><path class="cls-2" d="M12.4,202.46c-.21,0-.43-.06-.64-.18-.23-.13-.45-.34-.64-.59-.17-.22-.12-.54,.1-.7,.22-.16,.54-.12,.7,.1,.11,.14,.22,.25,.34,.32,.08,.05,.13,.06,.15,.05,.01,0,.09-.11,.09-.36,0-.4-.19-.89-.47-1.22-.18-.21-.16-.52,.05-.71,.21-.18,.52-.16,.71,.05,.44,.51,.72,1.23,.72,1.88,0,.56-.21,1.01-.59,1.23-.15,.09-.32,.13-.5,.13Z"/><path class="cls-2" d="M10.06,199.5c-.28,0-.5-.22-.5-.5v-2.24l1.69,.97c.24,.14,.32,.44,.18,.68-.14,.24-.44,.32-.68,.18l-.19-.11v.51c0,.28-.22,.5-.5,.5Z"/></g><path class="cls-2" d="M65.73,229.1c-.8,0-1.61-.21-2.32-.62l-3.72-2.14c-.24-.14-.32-.44-.18-.68,.14-.24,.44-.32,.68-.18l3.72,2.14c1.11,.64,2.49,.65,3.6,.03l3.65-2.03v-9.46c0-.28,.22-.5,.5-.5s.5,.22,.5,.5v10.05l-4.17,2.31c-.7,.39-1.48,.58-2.26,.58Z"/><path class="cls-2" d="M13.32,200.06c-.09,0-.17-.02-.25-.07l-7.47-4.33c-.24-.14-.32-.44-.18-.68,.14-.24,.45-.32,.68-.18l7.47,4.33c.24,.14,.32,.44,.18,.68-.09,.16-.26,.25-.43,.25Z"/><path class="cls-2" d="M50.89,227.62c-.09,0-.17-.02-.25-.07l-31.56-18.36c-.24-.14-.32-.45-.18-.68,.14-.24,.45-.32,.68-.18l31.56,18.36c.24,.14,.32,.45,.18,.68-.09,.16-.26,.25-.43,.25Z"/><path class="cls-2" d="M45.45,222.27c-.09,0-.17-.02-.25-.07l-21.57-12.55c-.24-.14-.32-.45-.18-.68,.14-.24,.45-.32,.68-.18l21.57,12.55c.24,.14,.32,.45,.18,.68-.09,.16-.26,.25-.43,.25Z"/><g><path class="cls-2" d="M57.56,239.47c-.31,0-.63-.09-.96-.28-1.14-.66-2.03-2.35-2.03-3.84,0-.87,.32-1.56,.87-1.88,.48-.28,1.08-.25,1.67,.09,1.14,.66,2.04,2.35,2.04,3.84,0,.87-.32,1.56-.87,1.88-.22,.13-.46,.19-.71,.19Zm-1.42-5.19c-.07,0-.14,.01-.21,.05-.23,.13-.37,.51-.37,1.01,0,1.13,.7,2.5,1.53,2.98,.16,.09,.45,.22,.67,.09,.23-.13,.37-.51,.37-1.01,0-1.13-.7-2.5-1.54-2.98-.11-.06-.29-.15-.46-.15Z"/><path class="cls-2" d="M58.39,238.85c-.28,0-.57-.08-.86-.25-1-.58-1.78-2.05-1.78-3.35,0-.7,.22-1.25,.63-1.57,.22-.17,.53-.13,.7,.09,.17,.22,.13,.53-.09,.7-.15,.12-.25,.41-.25,.78,0,.95,.59,2.09,1.28,2.49,.14,.08,.28,.12,.38,.11,.27-.03,.51,.19,.54,.46,.02,.28-.19,.51-.46,.54-.03,0-.07,0-.1,0Z"/></g><g><path class="cls-2" d="M13.46,214.05c-.31,0-.63-.09-.96-.28-1.14-.66-2.03-2.35-2.03-3.84,0-.87,.32-1.56,.87-1.88,.49-.28,1.08-.25,1.67,.09,1.14,.66,2.04,2.35,2.04,3.84,0,.87-.32,1.56-.87,1.88-.22,.13-.46,.19-.71,.19Zm-1.42-5.19c-.07,0-.14,.01-.21,.05-.23,.13-.37,.51-.37,1.01,0,1.13,.7,2.5,1.53,2.98,.16,.09,.45,.22,.67,.09,.23-.13,.37-.51,.37-1.01,0-1.13-.7-2.5-1.54-2.98-.11-.06-.29-.15-.46-.15Z"/><path class="cls-2" d="M14.29,213.44c-.28,0-.57-.08-.86-.25-1-.58-1.78-2.05-1.78-3.35,0-.7,.22-1.25,.63-1.57,.22-.17,.53-.13,.7,.09s.13,.53-.09,.7c-.15,.12-.25,.41-.25,.78,0,.95,.58,2.09,1.28,2.49,.14,.08,.27,.12,.38,.12,.27-.02,.51,.19,.54,.46,.02,.28-.19,.51-.46,.54-.03,0-.07,0-.1,0Z"/></g><path class="cls-2" d="M45.13,208.03l-.38,1.01c-.22,.58-.91,.83-1.45,.52l-20.46-11.81-.81-3.05,23.1,13.34Z"/><path class="cls-2" d="M65.9,219.12c-.77,0-1.54-.2-2.23-.6l-15.86-9.16c-.27-.16-.59-.18-.88-.08-.29,.1-.52,.33-.63,.62-.27,.7-.82,1.24-1.52,1.49-.7,.25-1.48,.18-2.12-.19l-20.75-11.98c-1.59-.92-2.77-2.46-3.23-4.23-.49-1.84-1.71-3.44-3.36-4.39l-9.75-5.4c-.24-.13-.33-.44-.2-.68,.13-.24,.44-.33,.68-.2l9.76,5.4c1.89,1.09,3.28,2.91,3.83,5.01,.4,1.52,1.41,2.83,2.77,3.62l20.75,11.98c.39,.23,.86,.27,1.29,.12,.43-.15,.76-.48,.92-.9,.21-.56,.66-1,1.23-1.21,.57-.2,1.19-.15,1.72,.16l15.86,9.16c1.02,.59,2.26,.62,3.31,.08l7.91-4.06c.25-.13,.55-.03,.67,.22,.13,.25,.03,.55-.22,.67l-7.91,4.06c-.64,.33-1.34,.5-2.04,.5Z"/><path class="cls-2" d="M97.92,192.63v-41.38l.25-.14,29.37-16.96v34.13l-.18,.15-29.44,24.21Zm1-40.8v38.68l27.62-22.71v-31.92l-27.62,15.95Z"/><g><path class="cls-2" d="M60.72,224.01c-.14,0-.29-.04-.43-.12l-4.19-2.42c-.4-.23-.7-.77-.7-1.28v-.85c0-.36,.15-.64,.4-.79,.24-.14,.53-.13,.79,.02l4.19,2.42c.4,.23,.69,.77,.69,1.28v.85c0,.36-.15,.65-.4,.79-.11,.07-.24,.1-.36,.1Zm.07-.99l-.25,.43,.25-.43h0Zm-4.38-3.41v.57c0,.17,.12,.37,.19,.42l3.88,2.24v-.57c0-.18-.13-.38-.19-.42l-3.88-2.24Z"/><path class="cls-2" d="M60.46,223.6l-3.75-2.17c-.4-.23-.7-.77-.7-1.28v-.85h1v.85c0,.17,.12,.37,.19,.42l3.75,2.17-.5,.87Z"/></g><g><path class="cls-2" d="M15.26,198.57c-.14,0-.29-.04-.43-.12l-4.19-2.42c-.4-.23-.7-.77-.7-1.28v-.85c0-.36,.15-.64,.4-.79,.24-.14,.53-.13,.79,.02l4.19,2.42c.4,.23,.69,.77,.69,1.28v.85c0,.36-.15,.65-.4,.79-.11,.07-.24,.1-.36,.1Zm.07-.99l-.25,.43,.25-.43h0Zm-4.38-3.41v.57c0,.17,.12,.37,.19,.42l3.88,2.24v-.57c0-.18-.12-.38-.19-.42l-3.88-2.24Z"/><path class="cls-2" d="M14.99,198.16l-3.75-2.17c-.4-.23-.7-.77-.7-1.28v-.85h1v.85c0,.17,.12,.37,.19,.42l3.75,2.17-.5,.87Z"/></g></g></g></svg>