<?xml version="1.0" encoding="UTF-8"?><svg id="Capa_2" xmlns="http://www.w3.org/2000/svg" viewBox="0 0 262.43 242.36"><defs><style>.cls-1{fill:#96e0aa;}.cls-2{fill:#2b824a;}.cls-3{fill:#59b377;}.cls-4{fill:#ffdc8c;}</style></defs><g id="carro_electrico"><g><path class="cls-4" d="M262.43,116.65c0,72.47-41.38,125.72-113.85,125.72S0,189.12,0,116.65,21.8-7.64,91.56,12c70.21,19.77,170.87,32.18,170.87,104.65Z"/><g><path class="cls-1" d="M56.85,84.36c-6.92-3.27-11.81-1.33-11.11,2.51s7.44,6.76,7.44,6.76l3.68-9.28Z"/><path class="cls-2" d="M53.1,94.3l-.47-.21c-.29-.12-7-3.07-7.73-7.13-.27-1.5,.21-2.8,1.35-3.67,2.16-1.65,6.17-1.42,10.47,.62l.42,.2-4.04,10.19Zm-2.98-11.09c-1.49,0-2.6,.37-3.26,.88-.84,.64-1.17,1.57-.97,2.7,.53,2.97,5.17,5.44,6.67,6.17l3.31-8.34c-2.28-1.02-4.22-1.41-5.75-1.41Z"/><path class="cls-2" d="M52.74,92.96c-4.56-1.63-7.56-4.38-7.84-7.18l.99-.1c.24,2.38,3.06,4.87,7.19,6.34l-.34,.94Z"/></g><path class="cls-2" d="M229.24,147.13c3.65,2.08,3.66,7.35,.01,9.44L99.62,230.93c-4.34,2.49-9.69,2.48-14.02-.02l-63.24-36.01c-2.81-1.6-2.82-5.66-.01-7.27L160.9,108.16l68.34,38.97Z"/><g><ellipse class="cls-2" cx="85.41" cy="189.09" rx="26.88" ry="15.21" transform="translate(-122.02 193.64) rotate(-66.95)"/><polygon class="cls-2" points="96.75 164.76 125.96 175.79 94.83 224.69 73.16 212.84 96.75 164.76"/><g><ellipse class="cls-2" cx="105.7" cy="200.12" rx="26.88" ry="15.21" transform="translate(-119.82 219.02) rotate(-66.95)"/><ellipse class="cls-1" cx="105.7" cy="200.12" rx="19.88" ry="11.25" transform="translate(-119.82 219.02) rotate(-66.95)"/><ellipse class="cls-2" cx="105.7" cy="200.12" rx="3.13" ry="1.77" transform="translate(-119.82 219.02) rotate(-66.95)"/><path class="cls-2" d="M105.7,185.62c-.9,.52-1.51,1.01-1.88,1.35-.27,.24-.42,.69-.35,1.01l1.7,8.15s.3-.24,.53-.38c.35-.2,.53-.24,.53-.24l1.71-10.14c.07-.39-.09-.66-.35-.6-.35,.08-.94,.3-1.89,.85Z"/><path class="cls-2" d="M105.7,214.61c.9-.52,1.51-1.01,1.88-1.35,.27-.24,.42-.69,.35-1.01l-1.7-8.15s-.3,.24-.53,.38c-.35,.2-.53,.24-.53,.24l-1.71,10.14c-.07,.39,.09,.66,.35,.6,.35-.08,.94-.3,1.89-.85Z"/><path class="cls-2" d="M116.57,193.84c0-1.19-.1-1.95-.2-2.39-.07-.31-.34-.36-.6-.12l-6.85,6.22s.05,.37,.05,.68c0,.47-.05,.74-.05,.74l6.87-1.69c.26-.06,.53-.42,.6-.81,.09-.52,.18-1.36,.18-2.62Z"/><path class="cls-2" d="M94.83,206.39c0,1.19,.1,1.95,.2,2.39,.07,.31,.34,.36,.6,.12l6.85-6.22s-.05-.37-.05-.68c0-.47,.05-.74,.05-.74l-6.87,1.69c-.26,.06-.53,.42-.6,.81-.09,.52-.18,1.36-.18,2.62Z"/><path class="cls-2" d="M113.38,185.43c-.63-.48-1.14-.67-1.47-.74-.23-.05-.53,.23-.68,.62l-3.64,10.16s.25,.09,.41,.21c.25,.19,.34,.36,.34,.36l6.06-8.37c.23-.32,.32-.77,.18-1-.19-.31-.54-.75-1.21-1.25Z"/><path class="cls-2" d="M98.01,214.8c.63,.48,1.14,.67,1.47,.74,.23,.05,.53-.23,.68-.62l3.64-10.16s-.25-.09-.41-.21c-.25-.19-.34-.36-.34-.36l-6.06,8.37c-.23,.32-.32,.77-.18,1,.19,.31,.54,.75,1.21,1.25Z"/><path class="cls-2" d="M113.39,205.92c.63-1.21,.99-2.09,1.19-2.65,.14-.39,.06-.75-.18-.8l-6.05-1.36s-.17,.43-.34,.75c-.25,.47-.41,.69-.41,.69l3.65,5.98c.14,.23,.44,.17,.67-.15,.31-.43,.79-1.18,1.46-2.46Z"/><path class="cls-2" d="M98.01,194.31c-.63,1.21-.99,2.09-1.19,2.65-.14,.39-.06,.75,.18,.8l6.05,1.36s.17-.43,.34-.75c.25-.47,.41-.69,.41-.69l-3.65-5.98c-.14-.23-.44-.17-.67,.15-.31,.43-.79,1.18-1.46,2.46Z"/></g></g><g><ellipse class="cls-2" cx="194.02" cy="128.1" rx="26.88" ry="15.21" transform="translate(.18 256.47) rotate(-66.95)"/><polygon class="cls-2" points="211.09 97.3 234.14 118.22 203.45 163.7 181.77 151.85 211.09 97.3"/><g><ellipse class="cls-2" cx="214.32" cy="139.13" rx="26.88" ry="15.21" transform="translate(2.38 281.86) rotate(-66.95)"/><ellipse class="cls-1" cx="214.32" cy="139.13" rx="19.88" ry="11.25" transform="translate(2.38 281.86) rotate(-66.95)"/><ellipse class="cls-2" cx="214.32" cy="139.13" rx="3.13" ry="1.77" transform="translate(2.38 281.86) rotate(-66.95)"/><path class="cls-2" d="M214.32,124.63c-.9,.52-1.51,1.01-1.88,1.35-.27,.24-.42,.69-.35,1.01l1.7,8.15s.3-.24,.53-.38c.35-.2,.53-.24,.53-.24l1.71-10.14c.07-.39-.09-.66-.35-.6-.35,.08-.94,.3-1.89,.85Z"/><path class="cls-2" d="M214.32,153.62c.9-.52,1.51-1.01,1.88-1.35,.27-.24,.42-.69,.35-1.01l-1.7-8.15s-.3,.24-.53,.38c-.35,.2-.53,.24-.53,.24l-1.71,10.14c-.07,.39,.09,.66,.35,.6,.35-.08,.94-.3,1.89-.85Z"/><path class="cls-2" d="M225.19,132.85c0-1.19-.1-1.95-.2-2.39-.07-.31-.34-.36-.6-.12l-6.85,6.22s.05,.37,.05,.68c0,.47-.05,.74-.05,.74l6.87-1.69c.26-.06,.53-.42,.6-.81,.09-.52,.18-1.36,.18-2.62Z"/><path class="cls-2" d="M203.45,145.41c0,1.19,.1,1.95,.2,2.39,.07,.31,.34,.36,.6,.12l6.85-6.22s-.05-.37-.05-.68c0-.47,.05-.74,.05-.74l-6.87,1.69c-.26,.06-.53,.42-.6,.81-.09,.52-.18,1.36-.18,2.62Z"/><path class="cls-2" d="M222,124.44c-.63-.48-1.14-.67-1.47-.74-.23-.05-.53,.23-.68,.62l-3.64,10.16s.25,.09,.41,.21c.25,.19,.34,.36,.34,.36l6.06-8.37c.23-.32,.32-.77,.18-1-.19-.31-.54-.75-1.21-1.25Z"/><path class="cls-2" d="M206.63,153.82c.63,.48,1.14,.67,1.47,.74,.23,.05,.53-.23,.68-.62l3.64-10.16s-.25-.09-.41-.21c-.25-.19-.34-.36-.34-.36l-6.06,8.37c-.23,.32-.32,.77-.18,1,.19,.31,.54,.75,1.21,1.25Z"/><path class="cls-2" d="M222.01,144.94c.63-1.21,.99-2.09,1.19-2.65,.14-.39,.06-.75-.18-.8l-6.05-1.36s-.17,.43-.34,.75c-.25,.47-.41,.69-.41,.69l3.65,5.98c.14,.23,.44,.17,.67-.15,.31-.43,.79-1.18,1.46-2.46Z"/><path class="cls-2" d="M206.63,133.32c-.63,1.21-.99,2.09-1.19,2.65-.14,.39-.06,.75,.18,.8l6.05,1.36s.17-.43,.34-.75c.25-.47,.41-.69,.41-.69l-3.65-5.98c-.14-.23-.44-.17-.67,.15-.31,.43-.79,1.18-1.46,2.46Z"/></g></g><path class="cls-1" d="M226.05,36.73v-.04c-.01-.06-.02-.12-.04-.18,0,0,0,0,0-.02-.15-.75-.58-1.82-1.64-3.23-1.69-2.28-4.99-5.45-11.34-9.6C186.96,6.59,166.62,.51,166.62,.51l-.12,.17c.1-.55-2.66,.39-5.27,1.38-1.68,.63-3.3,1.27-4.07,1.54-23.21,8.16-51.64,23.52-66.7,32.83-3.88,2.41-9.14,5.74-12.44,10.71l-9.31,11.64-10.65,15.82-10.56,17.64-8.96,16.59-10.29,15.54c-4.76,7.2-7.99,15.95-8.89,24.15l-.77,12.52c-1.02,4.73-1.4,9.3-1.13,11.28l1.26,8.73c.17,1.14,.62,1.97,1.25,2.43v.02l.11,.06c.05,.04,.1,.07,.15,.09l10.9,6.66,4.84,1.14,21.7,13.02,4.14,4.59,19.76,12.08,.81-.71-1.14-1.65-1.15-17.3,6.06-19.2,4.16-10.39s27.09-14.06,27.65-13.81c.4,0,26.71-30.46,51.76-59.58,.5-.45,.96-.99,1.38-1.6,22.41-26.06,43.42-50.56,43.42-50.56l11.49-8.53s.17-.35,.05-1.08Z"/><path class="cls-3" d="M226.05,36.69v.04c0,1.33-2.12,1.69-2.12,1.69,0,0-2.59,.52-3.9-.23-1.32-.76-58.44-33.74-59.59-34.4-1.14-.65-.41-1.2,.79-1.73,2.61-.99,5.37-1.93,5.27-1.38l.12-.17s20.34,6.08,46.4,23.15c6.35,4.15,9.65,7.32,11.34,9.6,.87,1.57,1.48,2.74,1.64,3.23,0,.01,0,.02,0,.02,.02,.06,.03,.12,.04,.18Z"/><path class="cls-3" d="M234.35,129.59c-.3,2.93-2.03,5.93-4.1,7.3,.84-3.41,1.27-6.86,1.27-10.19,0-15.15-9.23-22.13-20.62-15.55-11.37,6.56-20.6,24.19-20.6,39.34,0,3.33,.44,6.33,1.3,8.76l-69.8,40.3c.87-3.43,1.3-6.92,1.3-10.26,0-15.15-9.23-22.12-20.62-15.54-11.4,6.58-20.63,24.21-20.63,39.36,0,2.36,.21,4.52,.63,6.44,.27,1.2-1.38,1.83-1.94,.73-.21-.41-.37-.92-.45-1.5l-1.27-8.73c-.27-1.98-.3-4.13-.03-6.42l1.93-17.38c.9-8.2,4.13-16.95,8.89-24.15l50.92-76.93c3.29-4.97,7.26-8.85,11.29-11,14.56-7.79,50.85-27.05,64.67-33.12,2.1-.95,11.09-4.45,9.05-2.53-3.51,3.29-3.05,4.88-2.77,5.33,6.14,9.91,8,29.08,7.87,44.48-.01,1.91-.05,3.76-.12,5.53-.08,2.04,0,3.98,.27,5.76,.16,.97,.36,1.88,.63,2.74,3.7,11.63,3.57,21.44,2.93,27.22Z"/><path class="cls-2" d="M229.48,66.79l-.69,1.72-1.35,.77-2.47,1.42-1.57,.9-2.78,1.59-.59-.28s-.17-1.63-.53-4.04c-.57-3.77-1.63-9.43-3.29-13.67-2.72-6.95-4.18-10.12-4.18-10.12,0,0-.88-1.51,.12-1.97,.99-.47,10.6-4.99,12.22-5.15,1.63-.15,2.51,.04,1.1,.97-1.41,.92-2.57,2.12-2.44,4.6,.03,.56,.17,1.06,.4,1.58,.55,1.31,1.61,2.76,2.58,5.66,.34,1.03,.68,2.24,.98,3.7,0,.02,.01,.03,.01,.05,.55,2.66,1.03,5.03,1.43,6.97,.65,3.28,1.05,5.3,1.05,5.3Z"/><path class="cls-3" d="M228.43,61.49l-.99,7.79-2.47,1.42c.59-4.73,1.36-10.81,2.03-16.18,.55,2.66,1.03,5.03,1.43,6.97Z"/><path class="cls-3" d="M226.01,50.77l-2.61,20.83-2.78,1.59-.59-.28s-.17-1.63-.53-4.04c1.27-7.68,3.09-18.68,3.93-23.76,.55,1.31,1.61,2.76,2.58,5.66Z"/><path class="cls-2" d="M113.91,138.29l-.19-.03c-.08-.01-.5-.1-.76-.61-.52-1.04,.05-3.11,1.7-6.17,2.89-5.38,27.18-41.71,30.72-46.81,2.73-3.93,6.78-6.18,11.46-8.78,1.04-.58,2.13-1.18,3.25-1.83,6.4-3.69,24.4-13.49,28.41-15.21,4.4-1.89,7.29,1.26,9.07,3.8,1.1,1.57,3.73,6,4.34,13.33,0,.1,.04,1.82-.16,2.93l-.98-.17c.18-1.02,.14-2.69,.14-2.71-.61-7.25-3.34-11.64-4.16-12.81-1.71-2.44-4.16-5.04-7.86-3.45-3.98,1.71-21.92,11.47-28.3,15.16-1.13,.65-2.22,1.26-3.26,1.84-4.76,2.64-8.53,4.73-11.12,8.47-3.53,5.09-27.78,41.36-30.66,46.71-1.9,3.53-1.84,4.79-1.72,5.16v.03l75.08-48.24,.54,.84-75.54,48.54Z"/><path class="cls-2" d="M117.85,135.66c-.23,0-.58-.13-.8-.49-.54-.89-.02-2.77,1.59-5.76,2.74-5.1,25.13-38.63,28.38-43.31,2.95-4.25,7.7-6.83,13.71-10.09l1.4-.76c1.86-1.01,4.57-2.54,7.55-4.22,6.61-3.72,14.83-8.34,17.51-9.49,3.43-1.47,6.36-.51,8.71,2.84,.96,1.37,3.28,5.24,4.04,11.58l-.99,.12c-.73-6.12-2.95-9.82-3.87-11.13-2.08-2.95-4.53-3.77-7.5-2.5-2.63,1.13-10.83,5.74-17.41,9.45-2.99,1.68-5.7,3.21-7.56,4.22l-1.4,.76c-5.89,3.2-10.54,5.73-13.36,9.78-3.24,4.67-25.59,38.13-28.32,43.21-2.21,4.11-1.61,4.78-1.6,4.79l-.06,.99h0Z"/><path class="cls-2" d="M119.2,129.49c.93-1.72,4.02-6.58,8.54-13.32v12.19l-9.77,6.64s-1.75,.02,1.23-5.51Z"/><path class="cls-2" d="M185,63.13v29.18l-55.28,35.21v-14.58c7.27-11.08,15.86-23.9,17.7-26.55,3.11-4.48,9.1-7.26,15.07-10.7,5.97-3.45,19.87-11.43,22.51-12.56Z"/><path class="cls-2" d="M187.04,62.14l.15,28.48,1.99-1.15s.18-6.51,10.25-13.45c-.47-2.83-1.34-11.5-8.68-14.42-1.27-.3-3.71,.55-3.71,.55Z"/><path class="cls-2" d="M128.57,185.62c-.29,0-.56-.05-.82-.16-.74-.3-1.27-1.01-1.5-2-1.32-5.66-3.53-15.81-3.53-20.17v-31.58h1v31.58c0,4.42,2.45,15.42,3.51,19.95,.15,.66,.47,1.12,.9,1.3,.44,.18,1.02,.07,1.62-.32,5.52-3.53,19.52-13.36,33.07-22.87,3.62-2.54,7.2-5.06,10.56-7.41,3.32-2.33,6.35-6.17,8.52-10.83l28-59.9c1.55-3.31,3.72-6.07,6.1-7.77l13.34-8.19,.52,.85-13.31,8.17c-2.22,1.58-4.27,4.2-5.75,7.36l-28,59.9c-2.25,4.81-5.39,8.8-8.86,11.22-3.36,2.35-6.94,4.87-10.56,7.41-13.55,9.51-27.56,19.35-33.1,22.89-.58,.37-1.17,.56-1.71,.56Z"/><path class="cls-2" d="M127.89,182.32c-.29,0-.57-.05-.83-.16-.74-.3-1.28-1.01-1.51-2.01l.97-.23c.16,.67,.48,1.13,.91,1.31,.45,.18,1.03,.07,1.63-.32,6.65-4.25,25.64-18.26,41.12-30.64,3.13-2.51,5.92-6.58,7.65-11.18,.24-.55,23.07-52.09,23.07-61.96h1c0,10.09-22.2,60.21-23.15,62.34-1.78,4.73-4.68,8.96-7.95,11.58-14.17,11.34-33.81,25.97-41.2,30.7-.58,.37-1.17,.56-1.72,.56Z"/><path class="cls-2" d="M223.72,46.47c-2.01-3.68-1.74-5.41,1.18-7.71,.25-.19,.41-.34,.51-.45-.94,.05-3.71,.79-8.56,3.2l-.45-.89c2.13-1.06,9.13-4.39,10.08-2.9,.45,.72-.58,1.52-.96,1.83-2.37,1.87-2.81,3-.93,6.45l-.88,.48Z"/><path class="cls-2" d="M98.57,144.39c-3.57,0-7.15-.92-10.32-2.78l-47.35-27.73c-1.19-.7-2.02-1.82-2.33-3.17-.31-1.34-.06-2.72,.7-3.87l4.97-9.76,.89,.45-5,9.81c-.64,.97-.84,2.07-.59,3.14,.25,1.08,.91,1.97,1.86,2.53l47.35,27.73c6.36,3.73,14.44,3.5,20.58-.58l6.16-4.09,.55,.83-6.16,4.09c-3.39,2.25-7.35,3.39-11.32,3.39Z"/><path class="cls-2" d="M219.53,73.22c-.76-14.51-8.64-29.3-8.72-29.45l.88-.47c.08,.15,8.06,15.13,8.83,29.87l-1,.05Z"/><path class="cls-2" d="M191.67,92.48c-.61,0-1.18-.11-1.65-.37-.89-.5-1.34-1.43-1.34-2.79,0-7.86,11.85-13.9,12.35-14.15l.45,.89c-.12,.06-11.8,6.02-11.8,13.26,0,.98,.27,1.61,.82,1.92,1.78,.99,6.06-1.19,7.56-2.12l.53,.85c-.49,.3-4.17,2.51-6.92,2.51Z"/><path class="cls-2" d="M192.82,90.75c-.24,0-.47-.02-.67-.08-.85-.22-1.31-.89-1.31-1.87,0-5.44,9.88-12.03,10.3-12.3,.23-.16,.54-.09,.69,.14,.15,.23,.09,.54-.14,.69-.1,.07-9.85,6.57-9.85,11.47,0,.56,.2,.74,.36,.82,1.22,.68,5.08-1.27,6.36-2.06,.01,0,.03-.02,.04-.03,.19-.12,.47-.1,.63,.06,.16,.16,.2,.41,.08,.6-.02,.03-.09,.09-.2,.17v.02s-.05,.03-.09,.04c-.98,.66-4.2,2.31-6.2,2.31Z"/><path class="cls-2" d="M80.7,221.04l-18.1-10.98c-.98-.6-1.85-1.35-2.58-2.25l-1.5-1.82c-.54-.66-1.19-1.22-1.92-1.66l-20.37-12.18c-.75-.45-1.58-.76-2.44-.93l-1.83-.34c-.79-.15-1.53-.44-2.21-.85l-9.77-5.96s-.1-.06-.16-.09l-.3-.24c-.66-.57-1.1-1.47-1.27-2.62l-1.27-8.74c-.3-2.19,.18-7.01,1.14-11.46l.76-12.44c.91-8.26,4.18-17.15,8.98-24.4l10.54-15.93c.04-.1,7.61-15.43,19.57-34.32,14.36-22.69,25.45-33.1,32.23-37.83,9.33-6.51,42.61-24.39,66.82-32.89l1.73-.61c2.34-.83,5.87-2.08,7.01-2.45,.27-.09,.73-.07,.92-.07,.24,.05,15.23,3.62,42.5,20.58,18.78,11.68,17.53,16.84,17.32,17.39l-.94-.33s1.2-4.95-16.9-16.21C181.5,4.57,166.66,1.03,166.52,.99c-.13,0-.41,.01-.48,.03-1.12,.36-4.65,1.61-6.98,2.44l-1.73,.61c-24.13,8.48-57.29,26.29-66.58,32.77-6.7,4.68-17.69,14.99-31.96,37.54-11.92,18.84-19.47,34.13-19.55,34.28l-10.57,15.98c-4.72,7.12-7.93,15.84-8.82,23.93l-.77,12.49c-1.07,5-1.38,9.39-1.13,11.18l1.27,8.73c.14,.97,.51,1.7,1.05,2.1l.11,.08s.06,.03,.08,.05l9.79,5.97c.58,.35,1.21,.6,1.88,.72l1.83,.34c.98,.19,1.91,.54,2.77,1.05l20.37,12.18c.83,.5,1.56,1.13,2.18,1.88l1.5,1.82c.66,.8,1.44,1.49,2.33,2.03l18.1,10.98-.52,.86Z"/><path class="cls-2" d="M134.53,86.1l-19.77,30.52-12.08,18.65c-2.12,3.28-6.44,4.31-9.82,2.36l-6.27-3.62-32.81-18.94-5.28-3.05-4.18-2.41c-.76-.44-1-1.43-.52-2.16l.39-.6s11.89-20.29,16.03-26.79c6.76-10.6,18.13-25.94,18.13-25.94,.49-.76,1.57-.8,2.11-.09,1.62,2.18,5.77,6.45,16.05,12.42,2.53,1.47,4.91,2.82,7.15,4.06,2.36,1.31,4.57,2.5,6.63,3.57,2.2,1.16,4.24,2.19,6.11,3.11,9.58,4.68,15.03,6.49,17.47,7.15,.76,.21,1.09,1.1,.66,1.76Z"/><path class="cls-2" d="M128.82,69.3c-.06,0-.13-.01-.19-.04-.15-.06-14.83-6.17-26.75-13.56-7.52-4.66-11.81-8.68-11.85-8.72-.2-.19-.21-.51-.02-.71,.19-.2,.51-.21,.71-.02,.04,.04,4.26,3.99,11.69,8.6,11.85,7.34,26.46,13.43,26.6,13.49,.25,.11,.38,.4,.27,.65-.08,.19-.27,.31-.46,.31Z"/><path class="cls-1" d="M110.29,74.08l-61.79,37.94-4.18-2.41c-.76-.44-1-1.43-.52-2.16l.39-.6,59.47-36.34c2.36,1.31,4.57,2.5,6.63,3.57Z"/><path class="cls-1" d="M134.53,86.1l-19.77,30.52c-9.42,5.84-19.82,12.27-28.17,17.39l-32.81-18.94c19.21-11.66,49.25-29.88,62.62-37.88,9.58,4.68,15.03,6.49,17.47,7.15,.76,.21,1.09,1.1,.66,1.76Z"/><path class="cls-2" d="M96.53,139.14c-1.33,0-2.68-.34-3.91-1.05l-48.54-28.03c-.49-.28-.83-.74-.96-1.28-.13-.55-.04-1.11,.27-1.58,0,0,12.09-20.24,16.41-27.4,9.15-15.18,18.09-25.88,18.18-25.98,.28-.44,.82-.75,1.41-.77,.58-.02,1.13,.25,1.48,.71,1.5,2.01,5.55,6.27,15.9,12.28,22.53,13.08,33.55,16.83,37.24,17.84,.51,.14,.92,.51,1.11,1.01,.19,.5,.13,1.05-.16,1.51l-31.86,49.17c-1.49,2.31-4,3.57-6.57,3.57Zm-3.41-1.92c3.15,1.82,7.17,.85,9.14-2.2l31.86-49.17c.12-.18,.14-.4,.06-.61-.08-.2-.24-.34-.44-.4-3.73-1.02-14.85-4.8-37.48-17.94-10.5-6.1-14.66-10.48-16.2-12.55-.15-.21-.38-.29-.65-.31-.26,0-.5,.14-.64,.36-.13,.16-9.02,10.79-18.13,25.9-4.32,7.17-16.42,27.42-16.42,27.42-.17,.25-.21,.54-.15,.82,.07,.28,.24,.51,.49,.65l48.54,28.03Z"/><path class="cls-2" d="M141.21,77.28c-.35,0-.71-.05-1.05-.16-5.15-1.65-17.03-6.28-38.64-18.83-10.11-5.87-14.81-10.25-16.98-12.9-.46-.56-.4-1.36,.12-1.87,6.69-6.47,23.88-16.61,44.85-26.46,23.59-11.08,31.63-13.03,31.96-13.1,.27-.07,.54,.1,.6,.37,.06,.27-.1,.54-.37,.6-.08,.02-8.31,2.02-31.77,13.04-24.96,11.72-39.39,21.25-44.58,26.27-.15,.14-.17,.37-.04,.52,2.11,2.58,6.73,6.87,16.71,12.67,21.53,12.5,33.33,17.11,38.44,18.74,.92,.29,1.9,.04,2.57-.67,2.2-2.32,3.78-4,9.38-6.79,1.39-.69,5.18-2.64,10.28-5.26,13.1-6.73,35.03-17.98,46.91-23.77,4.87-2.37,7.81-3.16,7.93-3.2,.28-.07,.54,.09,.61,.35,.07,.27-.09,.54-.35,.61-.03,0-2.97,.8-7.75,3.13-11.87,5.78-33.79,17.03-46.89,23.76-5.11,2.62-8.9,4.57-10.29,5.26-5.43,2.72-6.89,4.26-9.1,6.59-.67,.71-1.61,1.09-2.55,1.09Z"/><path class="cls-1" d="M105.24,160.61c.64-.17,.98,.73,.39,1.03-10.2,5.22-22.61,15.19-25.38,27.51,1.62-8.78,4.26-17.05,4.26-17.05,8.02-5.91,12.79-9.38,20.74-11.49Z"/><path class="cls-1" d="M230.79,99.63c-6.08-3.78-14.84,.09-21.39,3.9-.57,.33-1.18-.39-.76-.9,5.43-6.6,15.23-12.01,21.95-11.26-.01,1.91,0,.73-.08,2.5-.08,2.04,0,3.98,.27,5.76Z"/><path class="cls-2" d="M81.54,221.31c-.56,0-1.07-.31-1.34-.85-.23-.46-.39-.99-.48-1.59l-1.27-8.73c-.28-2.11-.3-4.31-.04-6.55l1.93-17.37c.9-8.24,4.17-17.12,8.98-24.37l50.91-76.93c3.35-5.04,7.42-9.01,11.48-11.17,14.85-7.94,50.9-27.07,64.71-33.13l.4,.92c-13.78,6.05-49.79,25.16-64.64,33.1-3.91,2.08-7.86,5.94-11.11,10.84l-50.91,76.93c-4.72,7.12-7.93,15.84-8.82,23.93l-1.93,17.38c-.25,2.16-.24,4.28,.03,6.3l1.27,8.73c.07,.49,.2,.93,.38,1.29,.19,.39,.54,.3,.64,.26,.22-.08,.46-.3,.38-.67-.42-1.93-.63-4.12-.63-6.49,0-15.3,9.36-33.15,20.88-39.8,5.13-2.96,10.1-3.35,14-1.09,4.68,2.7,7.37,8.93,7.37,17.07,0,3.06-.35,6.16-1.04,9.24l68.44-39.51c-.79-2.4-1.19-5.26-1.19-8.53,0-15.3,9.35-33.14,20.84-39.78,5.12-2.96,10.1-3.35,14.01-1.09,4.68,2.7,7.37,8.93,7.37,17.07,0,2.89-.32,5.86-.95,8.86,1.46-1.5,2.56-3.82,2.79-6.01,.66-6.06,.7-15.67-2.91-27.03-.75-2.41-1.06-5.32-.92-8.67,.61-15.29-.9-37.25-7.17-48.82l.88-.48c6.36,11.75,7.9,33.92,7.29,49.34-.14,3.23,.16,6.04,.88,8.33,3.66,11.52,3.63,21.28,2.95,27.43-.31,3.03-2.09,6.18-4.32,7.66l-1.07,.71,.3-1.24c.83-3.41,1.25-6.79,1.25-10.08,0-7.78-2.5-13.68-6.87-16.21-3.58-2.07-8.2-1.68-13.01,1.09-11.22,6.48-20.34,23.93-20.34,38.91,0,3.33,.43,6.22,1.27,8.59l.14,.39-71.19,41.1,.29-1.15c.85-3.37,1.28-6.78,1.28-10.13,0-7.78-2.5-13.68-6.87-16.21-3.59-2.07-8.2-1.68-13,1.09-11.23,6.49-20.38,23.95-20.38,38.93,0,2.3,.21,4.42,.61,6.28,.17,.8-.24,1.56-1.02,1.83-.18,.06-.36,.09-.53,.09Z"/><path class="cls-2" d="M123.5,154.62c-.17,0-.33-.08-.43-.24-.14-.23-.07-.54,.16-.69l26.92-16.58c.23-.14,.54-.07,.69,.16,.14,.23,.07,.54-.16,.69l-26.92,16.58c-.08,.05-.17,.07-.26,.07Z"/><path class="cls-2" d="M222.72,79.08l6.57-1.39c.55-.12,1.13-.67,1.52-1.44,.46-.9,.95-2.19,.95-3.56s-.47-2-.92-2.4c-.41-.36-1.05-.2-1.62,.39l-6.53,6.73c-.62,.64-.59,1.8,.04,1.66Z"/><path class="cls-3" d="M230.35,74.68c.02,.19,.29,.25,.37,.07,.88-1.82,.22-4.97-1.15-4.29-1.51,1.16-5.67,5.55-5.67,5.55,0,0,3.95-2.22,5.03-2.81,.84-.47,1.34,.58,1.42,1.49Z"/><path class="cls-2" d="M222.62,79.59c-.31,0-.59-.16-.75-.45-.31-.57-.12-1.5,.44-2.07l6.53-6.73c.76-.79,1.69-.96,2.31-.42,.5,.44,1.09,1.28,1.09,2.77s-.55,2.89-1.01,3.79c-.47,.92-1.16,1.55-1.86,1.7l-6.57,1.39c-.07,.01-.13,.02-.2,.02Zm0-1h0l.1,.49-.1-.49Zm7.7-7.99c-.2,0-.48,.15-.75,.43l-6.53,6.73c-.25,.26-.32,.62-.31,.8l6.45-1.37c.32-.07,.81-.46,1.18-1.17,.41-.81,.9-2.04,.9-3.34,0-.9-.25-1.58-.75-2.02-.05-.04-.11-.06-.19-.06Z"/><path class="cls-2" d="M223.23,89.68l6.57-1.39c.55-.12,1.13-.67,1.52-1.44,.46-.9,.95-2.19,.95-3.56,0-1.28-.47-2-.92-2.4-.41-.36-1.05-.2-1.62,.39l-6.53,6.73c-.62,.64-.59,1.8,.04,1.66Z"/><path class="cls-3" d="M230.86,85.28c.02,.19,.29,.25,.37,.07,.88-1.82,.22-4.97-1.15-4.29-1.51,1.16-5.67,5.55-5.67,5.55,0,0,3.95-2.22,5.03-2.81,.84-.47,1.34,.58,1.42,1.49Z"/><path class="cls-2" d="M223.14,90.19c-.31,0-.59-.16-.75-.45-.31-.57-.12-1.5,.44-2.07l6.53-6.73c.77-.79,1.7-.96,2.31-.42,.5,.44,1.09,1.28,1.09,2.77s-.55,2.89-1.01,3.79c-.46,.92-1.16,1.55-1.86,1.7l-6.57,1.39c-.07,.01-.13,.02-.2,.02Zm0-1h0l.1,.49-.1-.49Zm7.7-7.99c-.2,0-.48,.15-.74,.43l-6.53,6.73c-.25,.26-.32,.62-.31,.8l6.45-1.37c.32-.07,.81-.46,1.18-1.17,.41-.81,.9-2.04,.9-3.34,0-.9-.25-1.58-.75-2.02-.05-.04-.11-.07-.19-.07Z"/><path class="cls-2" d="M221.34,39.44c-.08,0-.17-.02-.25-.07L158.96,3.51c-.24-.14-.32-.44-.18-.68,.14-.24,.44-.32,.68-.18l62.13,35.86c.24,.14,.32,.44,.18,.68-.09,.16-.26,.25-.43,.25Z"/><path class="cls-2" d="M220.5,36.43c-.08,0-.17-.02-.25-.07L165.18,4.59c-.24-.14-.32-.44-.18-.68,.14-.24,.44-.32,.68-.18l55.07,31.78c.24,.14,.32,.44,.18,.68-.09,.16-.26,.25-.43,.25Z"/><g><path class="cls-2" d="M200.28,81.99s-1.83,1.85-4.68,3.49c-.84,.48-1.95,.71-1.95,.71l-.04-.02c-.23-.12-.62-.08-.88,.08l-2.04,1.29c-.26,.17-.29,.4-.06,.51l.04,.02,1.02,.54,.04,.02c.23,.12,.62,.08,.88-.08l2.04-1.29c.26-.17,.29-.4,.06-.51l-.04-.02s.76-.02,1.95-.71c3.29-1.92,4.68-3.49,4.68-3.49,.13-.08,.14-.2,.03-.26l-.62-.32c-.11-.06-.31-.04-.44,.04Z"/><path class="cls-2" d="M200.28,82.93s-1.83,1.85-4.68,3.49c-.84,.48-1.95,.71-1.95,.71l-.04-.02c-.23-.12-.62-.08-.88,.08l-2.04,1.29c-.26,.17-.29,.4-.06,.51l.04,.02,1.02,.54,.04,.02c.23,.12,.62,.08,.88-.08l2.04-1.29c.26-.17,.29-.4,.06-.51l-.04-.02s.76-.02,1.95-.71c3.29-1.92,4.68-3.49,4.68-3.49,.13-.08,.14-.2,.03-.26l-.62-.32c-.11-.06-.31-.04-.44,.04Z"/><path class="cls-2" d="M190.47,87.84v.97l1.53,.31s1.71-1.22,1.8-1.3,.62-.35,.67-.41,4.96-2.64,5.01-2.69,1.35-1.06,1.35-1.06l.57-.31v-.97s-1.18,.72-1.23,.74-4.94,3.19-5.1,3.2-2.17,.59-2.22,.58-2.39,.94-2.39,.94Z"/></g><g><path class="cls-3" d="M49.59,172.41c-6.32-3.65-14.51-9.66-18.04-13.7-.87-.99-1.55-2.31-1.93-3.68h0c-.32-1.14,.2-1.91,.99-1.46l18.99,10.96"/><path class="cls-3" d="M49.5,172.35c6.32,3.65,14.51,7.1,18.04,7.13,.87,0,1.55-.52,1.93-1.45h0c.32-.77-.2-2.14-.99-2.59l-18.99-10.96"/><path class="cls-2" d="M68.64,182.74c-.64,0-1.31-.14-2.02-.43h0s-7.81-1.7-17.15-7.1c-8.61-4.97-17.1-12.66-17.18-12.73-2.35-1.74-4.36-4.88-5.34-8.35l-.48-1.72c-.27-.95-.1-1.8,.42-2.21,.4-.31,.92-.32,1.43-.02l43.29,24.99c1.11,.64,1.79,2.48,1.34,3.58l-.48,1.16c-.76,1.84-2.15,2.83-3.83,2.83Zm-41.05-31.78s-.06,0-.08,.03c-.13,.1-.26,.5-.07,1.15l.48,1.72c.9,3.22,2.82,6.23,5.01,7.85,.12,.11,8.54,7.72,17.05,12.64,9.23,5.33,16.87,7,16.95,7.01,2.1,.86,3.8,.17,4.62-1.83l.48-1.16c.27-.64-.25-1.95-.91-2.33l-43.29-24.99c-.06-.03-.16-.08-.24-.08Z"/><path class="cls-2" d="M49.39,172.87c-6.06-3.5-14.51-9.62-18.17-13.8-.91-1.04-1.63-2.41-2.04-3.87-.24-.86-.09-1.63,.39-2,.37-.29,.85-.29,1.32-.02l18.99,10.96-.5,.87-18.99-10.96c-.09-.05-.18-.08-.21-.05-.08,.06-.2,.38-.04,.94,.37,1.32,1.02,2.56,1.83,3.48,3.58,4.11,11.92,10.13,17.91,13.59l-.5,.87Z"/><path class="cls-2" d="M67.6,180.01h-.02c-3.84-.04-12.29-3.74-18.28-7.2l.5-.87c5.97,3.45,14.25,7.03,17.79,7.06h.01c.81,0,1.24-.62,1.45-1.14,.22-.54-.21-1.64-.77-1.97l-18.99-10.96,.5-.87,18.99,10.96c.99,.57,1.61,2.23,1.2,3.22-.46,1.12-1.33,1.75-2.38,1.75Z"/></g><g><path class="cls-3" d="M74.88,211.32c-2.1-1.33-4.92-3.18-6.08-3.95-.35-.23-.68-.5-.98-.81l-2.83-2.89c-.4-.41-.6-.99-.54-1.56l.68-6.13c1.51,.81,3.71,2.1,4.37,2.91,1.03,1.26,3.08,3.96,4.14,6.87,.62,1.73,1.02,4,1.24,5.56Z"/><path class="cls-1" d="M65.42,200.38s4.82,3.13,5.6,4.09,1.11,3.02,0,2.45-4.55-2.29-5.43-2.77c-.87-.49-1.4-1.32-1.63-2.66-.23-1.34,.41-2.13,1.45-1.11Z"/><path class="cls-3" d="M35.2,187.34c-1.49-.9-8.89-5.39-9.22-5.72-.35-.35-.36-.85-.36-.91,0,0,.51-2.1,1-4.66,.19-1.03,.67-1.84,1.31-2.38l6.49,3.91,.78,9.76Z"/><path class="cls-1" d="M24.9,178.93l6.19,4.27,.98-.21v-2.27l-6.15-3.65h-.86s-.49,.36-.52,.42,.36,1.44,.36,1.44Z"/><path class="cls-3" d="M75.82,211.54c-.36-2.35-1.02-11.82-7.32-15.73-6.3-3.91-38.91-24.34-41.12-24.92-2.21-.58-6.28-2.4-7.02,7.09-.05,1.75,.41,3.96,.7,2.55,.29-1.41,1.34-5.41,2.24-6.59,.89-1.18,3.09-1.62,6.47,.31,3.38,1.93,3.18,2.19,3.74,2.52,.37,.22,.52-.03,.65,.54,.59,.21,1.12,.55,1.54,1,.19-.04,.52,.1,1.06,.42,1.23,.75,22.81,13.82,23.76,14.4,.4,.24,.61,.44,.72,.65,.52,.2,1,.48,1.43,.84,.27-.02,.7,.23,1.33,.61,1.14,.69,4.67,2.37,6.24,4.53s3.32,4.88,3.82,7.37c.5,2.49,.94,5.23,1.1,6.16,.15,.93,1.05,.59,.69-1.76Z"/><path class="cls-2" d="M74.91,214.81c-.33,0-.67-.1-1.01-.31l-6.58-3.99c-1.85-1.12-3.64-2.73-5.32-4.77l-.54-.65c-1.3-1.58-2.73-2.87-4.15-3.73l-18.94-11.48c-1.38-.83-2.76-1.28-3.99-1.28h-.6c-1.73,0-3.55-.57-5.42-1.71l-6.58-3.99c-1.34-.81-2.29-2.97-2-4.54l.73-3.89c.4-2.13,1.43-3.66,2.91-4.32,1.45-.65,3.23-.41,5.02,.68l39.83,24.14c3.58,2.17,6.63,7.25,7.42,12.36l.73,4.78c.17,1.12-.1,2.04-.73,2.46-.23,.15-.5,.23-.77,.23Zm-40.54-27.21c1.44,0,2.95,.48,4.51,1.42l18.94,11.48c1.54,.93,3.02,2.26,4.41,3.95l.54,.65c1.58,1.93,3.34,3.5,5.07,4.55l6.58,3.99c.17,.1,.49,.25,.71,.1,.24-.16,.42-.68,.3-1.47l-.73-4.78c-.73-4.76-3.65-9.66-6.95-11.66l-39.83-24.14c-1.5-.91-2.96-1.13-4.1-.62-1.17,.52-1.99,1.8-2.33,3.59l-.73,3.89c-.21,1.14,.56,2.91,1.54,3.5l6.58,3.99c1.69,1.02,3.38,1.56,4.9,1.56h.6Z"/><path class="cls-2" d="M74.79,214.31l-.85-5.21c-.71-4.63-3.55-9.39-6.75-11.33l-38.72-23.47c-1.46-.88-2.87-1.1-3.97-.61-1.13,.5-1.93,1.74-2.26,3.48l-.85,4.19-.98-.2,.85-4.18c.39-2.07,1.4-3.56,2.83-4.21,1.41-.63,3.15-.39,4.9,.66l38.72,23.47c3.49,2.11,6.45,7.06,7.22,12.03l.85,5.21-.99,.16Z"/><rect class="cls-2" x="35.71" y="177.76" width="1" height="11.03" transform="translate(-30.84 8.9) rotate(-9.86)"/><rect class="cls-2" x="34.41" y="177.26" width="1" height="10.97" transform="translate(-18.42 4.5) rotate(-5.84)"/><rect class="cls-2" x="56.11" y="197.5" width="8.78" height="1" transform="translate(-145.87 214.54) rotate(-77.59)"/><rect class="cls-2" x="56.99" y="198.55" width="9.63" height="1" transform="translate(-143.04 237.52) rotate(-83.39)"/><path class="cls-2" d="M31.47,183.78c-.34,0-.7-.12-1.04-.37l-5.82-4.08c-.56-.39-.85-1.29-.61-1.86l.13-.31c.18-.43,.49-.73,.87-.87,.41-.14,.87-.09,1.33,.16l5.35,2.84c.66,.35,1.18,1.3,1.18,2.15v.49c0,.8-.3,1.42-.82,1.69-.18,.09-.38,.14-.59,.14Zm-.47-1.18c.24,.17,.46,.23,.59,.16,.14-.07,.28-.32,.28-.8v-.49c0-.52-.35-1.11-.65-1.27l-5.35-2.84c-.21-.11-.4-.14-.53-.1-.12,.04-.21,.15-.29,.32l-.13,.3c-.04,.11,.07,.51,.27,.65l5.82,4.08Z"/><path class="cls-2" d="M32.31,183.79c-.21,0-.43-.05-.66-.15-.13-.06-.25-.13-.38-.22l.57-.82c.08,.05,.15,.09,.22,.13,.11,.05,.27,.09,.39,.02,.12-.08,.26-.33,.26-.79v-.49c0-.52-.35-1.11-.65-1.27l-5.35-2.84c-.13-.07-.38-.17-.57-.08l-.45-.89c.44-.22,.97-.18,1.49,.09l5.35,2.84c.66,.35,1.18,1.3,1.18,2.15v.49c0,.75-.25,1.33-.71,1.63-.21,.14-.44,.2-.69,.2Z"/><path class="cls-2" d="M71.59,207.67c-.13,0-.27-.03-.41-.1l-5.82-2.97c-1.06-.54-1.93-2.12-1.93-3.51v-.49c0-.53,.21-.95,.57-1.14,.34-.18,.75-.13,1.13,.12l5.35,3.65c.75,.51,1.41,1.5,1.71,2.58l.13,.46c.15,.52,.05,.98-.26,1.23-.14,.11-.3,.17-.48,.17Zm-5.77-3.97l5.55,2.84h0l-.13-.46c-.24-.85-.75-1.64-1.31-2.02l-5.35-3.65c-.06-.04-.1-.05-.12-.06,.02,0-.01,.09-.01,.24v.49c0,1,.66,2.25,1.38,2.62h0Z"/><path class="cls-2" d="M72.15,207.85c-.13,0-.26-.03-.38-.09l-.43-.24,.49-.87,.3,.17c.04-.06,.07-.17,.04-.28l-.13-.46c-.24-.85-.75-1.64-1.31-2.02l-5.35-3.65c-.07-.05-.11-.06-.13-.06l-.74-.63c.28-.36,.83-.54,1.43-.13l5.35,3.65c.75,.51,1.41,1.5,1.71,2.58l.13,.46c.14,.49-.03,1.06-.41,1.37-.17,.14-.38,.22-.57,.22Z"/></g><g><path class="cls-1" d="M52.06,186.68l-12.25-7.07c-.49-.28-.89-1.04-.89-1.69v-6.09c0-.65,.4-.95,.89-.67l12.25,7.07c.49,.28,.89,1.04,.89,1.69v6.09c0,.65-.4,.95-.89,.67Z"/><path class="cls-2" d="M52.41,187.51c-.2,0-.4-.06-.6-.17l-12.25-7.07c-.65-.37-1.14-1.29-1.14-2.13v-6.09c0-.53,.2-.95,.56-1.15,.32-.18,.71-.17,1.08,.05l12.25,7.07c.65,.38,1.14,1.29,1.14,2.13v6.09c0,.53-.2,.95-.56,1.15-.15,.08-.31,.13-.48,.13Zm-.1-1.04c.06,.03,.09,.04,.1,.04h0s.03-.09,.03-.28v-6.09c0-.51-.34-1.09-.64-1.26l-12.25-7.07c-.06-.03-.09-.04-.1-.04h0s-.04,.09-.04,.28v6.09c0,.51,.34,1.09,.64,1.26l12.25,7.08Z"/><path class="cls-2" d="M52.81,187.52c-.19,0-.37-.05-.53-.14l.5-.87s.11,0,.2-.05c.18-.1,.3-.3,.3-.46v-6.09c0-.51-.34-1.09-.64-1.26l-12.25-7.07c-.15-.08-.42-.08-.57,0-.07,.04-.07,.08-.07,.1h-1c0-.41,.21-.76,.57-.97,.46-.27,1.11-.27,1.57,0l12.25,7.08c.65,.37,1.14,1.29,1.14,2.13v6.09c0,.53-.32,1.05-.8,1.33-.21,.12-.44,.19-.66,.19Z"/></g><g><path class="cls-3" d="M77.63,162.83c1.97-2.01,5.76,.33,4.8,2.48-.96,2.15-3.29,2.04-2.98,3.75-1.32,1.42-2.42,1.23-2.46-.54-.04-1.77,.64-5.69,.64-5.69Z"/><path class="cls-3" d="M66.19,167.05c-.73-.98-1.25-1.79-.33-3.64s2.35-2.3,4.13-1.53c1.78,.77,3.39,1.82,5.34-.61,1.95-2.42,3.72-5.44,5.81-6.27s4.03-.38,5.74,0c1.7,.38,1.99,1.85,1.53,3.68s-2.13,3.53-2.57,4.25-1.01,.27-2.02-1.18-3.71-.69-4.48,.03-3.01,3.13-2.31,6.02c.7,2.89,1.1,2.18-.05,2.56s-3.73,.73-5.94-.53-4.86-2.79-4.86-2.79Z"/><path class="cls-2" d="M75.07,171.26c-1.73,0-3.31-.42-4.76-1.26l-4.37-2.52c-.98-.57-1.42-2.16-.91-3.34l.36-.91c.47-1.08,1.2-1.85,2.08-2.17,.74-.27,1.53-.22,2.29,.15l1.42,.7c1.34,.66,2.75,.31,3.76-.95l3.52-4.37c1.73-2.15,4.09-3.07,6.49-2.53l2.54,.57c.62,.14,1.15,.64,1.46,1.38,.42,.98,.37,2.13-.11,2.94l-4.08,6.75c-1.04,1.72-2.38,3.06-3.88,3.88l-2.58,1.24c-1.13,.3-2.2,.45-3.23,.45Zm-6.64-9.38c-.21,0-.41,.04-.61,.11-.62,.23-1.15,.8-1.5,1.61l-.36,.91c-.31,.72-.06,1.79,.48,2.1l4.37,2.52c2.07,1.19,4.47,1.44,7.14,.74l2.47-1.2c1.32-.72,2.54-1.94,3.48-3.51l4.08-6.75c.32-.53,.34-1.35,.05-2.03-.19-.44-.46-.73-.76-.79l-2.54-.57c-2.01-.45-4.01,.34-5.49,2.18l-3.52,4.37c-1.31,1.63-3.22,2.09-4.98,1.22l-1.42-.7c-.29-.15-.6-.22-.89-.22Z"/><path class="cls-2" d="M70.48,169.34l-.98-.21c.26-1.24,.53-2.26,1.35-3.24,.23-.28,.67-.82,1.21-1.48,1.16-1.43,2.75-3.4,3.87-4.68l.75,.66c-1.11,1.28-2.69,3.23-3.85,4.66-.54,.67-.98,1.21-1.22,1.5-.67,.8-.89,1.67-1.13,2.8Z"/><path class="cls-2" d="M75.85,170.9c-.89-2.03-1.06-3.91-.55-6.29,.5-2.35,1.73-4.11,3.37-4.85,1.25-.55,2.64-.46,3.91,.28,1.27,.74,2.37,2.07,3.08,3.76l-.92,.39c-.63-1.49-1.58-2.66-2.67-3.29-1.01-.58-2.04-.66-3-.23-1.35,.6-2.37,2.11-2.8,4.14-.46,2.19-.32,3.84,.49,5.69l-.92,.4Z"/><path class="cls-2" d="M77.28,170.9c-.8-1.82-.95-3.5-.49-5.62,.45-2.1,1.55-3.68,3.02-4.34,1.12-.5,2.37-.41,3.52,.25,.92,.53,1.74,1.41,2.36,2.54l-.88,.48c-.53-.97-1.22-1.72-1.99-2.16-.88-.51-1.78-.58-2.62-.21-1.18,.53-2.07,1.85-2.45,3.64-.41,1.93-.29,3.38,.43,5.01l-.92,.4Z"/></g><g><path class="cls-3" d="M25.8,135.15c.91-1.63,3.52-2.37,3.82-.17,.3,2.2-1.49,3.56-.44,4.7-1.08,1.31-3.07,1.73-3.22,.86-.15-.87-.49-4.8-.16-5.39Z"/><path class="cls-3" d="M27.88,131.11c-.79,.13-.3-1.06,.2-2.29,.5-1.23,.69-2.32,1.58-2.93s1.13-1.27,1.99-.33,2.44,2.57,2.63,4.28c.19,1.72-1.82,7-1.59,8.2s.95,2.07,2.46,3.32c1.51,1.25-.62,4.92-.62,4.92-.5,.55-1,1.47-2.45,.7-1.44-.77-3.73-2.49-4.61-3.23s-1.11-1.52-1.11-2.24,.24-.58,1.65-1.15,3.32-2.6,3.69-4.16,1.24-5.13-3.81-5.1Z"/><path class="cls-2" d="M33.07,147.67c-.27,0-.53-.06-.75-.19l-3.35-1.93c-1.99-1.15-3.2-3.08-3.39-5.44l-.26-3.23c-.12-1.45,.15-3.02,.78-4.56l2.46-6.03c.31-.76,1.08-1.38,1.91-1.52,.61-.11,1.17,.05,1.54,.45l1.4,1.53c1.33,1.46,1.75,3.58,1.14,5.81l-1.23,4.53c-.35,1.29,0,2.43,.93,3.06l1.02,.68c1.25,.83,1.49,2.52,.6,4.09l-.91,1.61c-.29,.51-.81,.92-1.39,1.07-.17,.05-.34,.07-.5,.07Zm-2.22-21.93c-.07,0-.14,0-.2,.02-.5,.09-.98,.47-1.16,.92l-2.46,6.03c-.57,1.4-.81,2.82-.71,4.11l.26,3.23c.16,2.02,1.19,3.67,2.89,4.65l3.35,1.93c.12,.07,.3,.08,.49,.02,.32-.09,.62-.32,.78-.6l.91-1.61c.63-1.12,.52-2.23-.29-2.77l-1.02-.68c-1.29-.86-1.8-2.45-1.34-4.15l1.23-4.53c.52-1.9,.18-3.67-.91-4.88l-1.4-1.53c-.11-.12-.28-.16-.42-.16Z"/><path class="cls-2" d="M30.03,145.7l-.76-.65c.61-.71,1.03-1.24,1.24-2.08,.09-.35,.35-1.18,.66-2.2,.51-1.65,1.22-3.91,1.51-5.17l.97,.23c-.31,1.3-.99,3.49-1.53,5.24-.31,.99-.56,1.81-.65,2.15-.26,1.04-.79,1.72-1.45,2.48Z"/><path class="cls-2" d="M26.28,141.32l-.19-.98c1.52-.29,3.01-1.18,4.07-2.42,1.08-1.26,1.57-2.69,1.36-3.93-.14-.83-.6-1.5-1.33-1.91-.8-.46-1.86-.58-3-.34l-.2-.98c1.38-.29,2.69-.12,3.7,.46,.98,.56,1.62,1.49,1.82,2.61,.26,1.54-.31,3.27-1.59,4.75-1.21,1.42-2.91,2.42-4.64,2.76Z"/><path class="cls-2" d="M26.3,142.83l-.19-.98c1.52-.29,3.01-1.18,4.08-2.42,1.06-1.24,1.48-3.4,1.38-4.47l.99-.1c.15,1.47-.42,3.83-1.61,5.22-1.21,1.42-2.91,2.42-4.65,2.76Z"/></g><path class="cls-2" d="M32.32,153.08l-1-.09c.26-2.95,1.65-5.31,3.17-7.66l.84,.54c-1.45,2.25-2.77,4.49-3.01,7.21Z"/><path class="cls-2" d="M63.35,170.84l-.96-.28c.06-.19,1.38-4.73,3.28-7.86l.86,.52c-1.83,3.03-3.16,7.58-3.17,7.62Z"/><g><path class="cls-2" d="M98.11,143.91c-8.32,.37-23.92-4.79-37.61-12.8-13.69-8.01-20.63-15.26-21.57-20.55,0,0,.46,2.14,6.36,5.05,6.25,3.93,31.01,18.41,31.01,18.41l12.84,7.53s5.54,2.6,8.97,2.38Z"/><path class="cls-2" d="M97.26,144.43c-8.73,0-24.05-5.31-37.01-12.89-13.03-7.62-20.77-15.04-21.81-20.9l.98-.19s.59,1.99,6.09,4.7c6.22,3.91,30.79,18.28,31.04,18.42l12.84,7.53s5,2.32,8.29,2.32h.03c.13,0,.26,0,.38-.01l.05,1c-.14,0-.28,.01-.42,.01-.15,0-.31,0-.47,0Zm-56.93-31.34c2.53,5.1,9.75,11.35,20.42,17.59,9.9,5.79,21.16,10.24,29.72,11.97-.88-.35-1.47-.63-1.54-.66l-12.88-7.55c-.25-.14-24.84-14.52-31.02-18.41-2.24-1.1-3.72-2.1-4.7-2.94Z"/></g><g><path class="cls-1" d="M139.34,135.22c0,.45-.08,.87-.26,1.24-.83,1.8-3.61,1.43-4.24,1.36-.62-.07-4.73-1-6.34-2.23-1.61-1.22-2.07-1.59-2.33-3.44,0-.03-.01-.06-.01-.09-.26-1.86-.4-5.07,.5-6.37,1.08-1.57,1.45-1.88,2.78-1.2,1.34,.67,7.33,4.99,8.24,6.1,.73,.89,1.71,2.93,1.66,4.63Z"/><path class="cls-3" d="M139.34,135.22c0,.45-.08,.87-.26,1.24-.83,1.8-3.61,1.43-4.24,1.36-.62-.07-4.73-1-6.34-2.23-1.61-1.22-2.07-1.59-2.33-3.44,0-.03-.01-.06-.01-.09,.83,.94,1.71,1.31,2.45,1.59,1.19,.46,5.44,1.74,5.56,1.77,.08,.02,2.74,.38,5.17-.2Z"/><path class="cls-2" d="M138.69,137.65l-.53-.85c.47-.29,.74-1,.74-1.93,0-1.9-1.1-4.13-2.51-5.08l-7.46-5.04c-.37-.25-.71-.34-.97-.25-.29,.1-.43,.39-.51,.62l-.95-.31c.21-.63,.61-1.08,1.14-1.26,.57-.19,1.23-.06,1.86,.37l7.46,5.04c1.68,1.14,2.95,3.68,2.95,5.91,0,1.29-.44,2.3-1.21,2.78Z"/><path class="cls-2" d="M134.99,138.34l-.61-.09c-.97-.13-1.73-.24-2.56-.63l-4.31-2.06c-1.01-.48-1.84-1.95-1.84-3.27v-1.87h1v1.87c0,.92,.6,2.05,1.27,2.37l4.31,2.06c.69,.33,1.35,.42,2.27,.54l.62,.09-.15,.99Z"/><path class="cls-2" d="M135.75,138.35c-1.4,0-2.84-.27-3.58-.57l.38-.93c1.31,.54,4.76,.84,5.65-.08l.71,.7c-.64,.65-1.88,.88-3.17,.88Z"/><path class="cls-2" d="M125.67,130.43v-.16c-.02-1.98-.04-4.97,1.62-6.54l.69,.73c-1.35,1.27-1.32,4-1.31,5.8v.16h-1Z"/><path class="cls-2" d="M135.65,136.09c-.45,0-.82-.02-1.04-.06-.82-.14-5.23-1.43-6.24-1.93-1.01-.5-1.46-.95-2.59-2.21l.74-.67c1.11,1.24,1.46,1.57,2.29,1.99,.85,.42,5.14,1.7,5.96,1.84,.81,.14,3.46,.01,4.33-.59l.57,.82c-.91,.62-2.78,.81-4.03,.81Z"/></g></g></g></svg>