<svg id="logo_instagram_white" xmlns="http://www.w3.org/2000/svg" width="25.743" height="25.74" viewBox="0 0 25.743 25.74">
  <path id="Trazado_2076" data-name="Trazado 2076" d="M25.737,12.9c0,1.215.005,2.431,0,3.646,0,.5-.026,1-.052,1.5-.024.468-.055.935-.124,1.4a7.863,7.863,0,0,1-.985,2.89A6.525,6.525,0,0,1,23.25,23.9a6.161,6.161,0,0,1-1.451.958,8.028,8.028,0,0,1-2.081.651,13.07,13.07,0,0,1-1.631.162c-.507.023-1.015.035-1.522.052-.877.031-1.754.018-2.631.02q-2.181,0-4.364-.006c-.572,0-1.145-.026-1.717-.052-.363-.016-.727-.034-1.09-.073a8.315,8.315,0,0,1-3.186-.948,5.785,5.785,0,0,1-1.2-.874,7.243,7.243,0,0,1-.959-1.078,6.744,6.744,0,0,1-.747-1.412A8.637,8.637,0,0,1,.16,19.188C.108,18.771.091,18.35.068,17.93.03,17.21.03,16.49.015,15.77c-.03-1.367,0-2.734-.015-4.1q0-.117,0-.234c.008-.881.009-1.762.027-2.643q.017-.839.078-1.677a9.273,9.273,0,0,1,.436-2.3A6.584,6.584,0,0,1,4.456.67,8.828,8.828,0,0,1,6.642.15C7,.111,7.359.09,7.718.071,8.291.042,8.863.032,9.436.016Q9.95,0,10.464,0q2.774,0,5.549,0c.6,0,1.206.025,1.809.052.45.02.9.042,1.349.1a8.737,8.737,0,0,1,2.493.67A6.581,6.581,0,0,1,25.127,4.58a8.738,8.738,0,0,1,.462,1.985c.037.319.063.638.079.959.021.438.036.875.051,1.313.047,1.354.009,2.709.018,4.063M12.873,23.386v.008h.287c1.532-.01,3.064.026,4.6-.054.291-.015.581-.029.87-.052a6.876,6.876,0,0,0,1.268-.215,4.468,4.468,0,0,0,1.734-.863,4.294,4.294,0,0,0,1.317-1.887,7.954,7.954,0,0,0,.391-2.222c.022-.4.04-.8.05-1.2.013-.538.023-1.076.023-1.614,0-1.793.028-3.585-.014-5.377-.01-.455,0-.911-.023-1.367-.021-.39-.03-.78-.055-1.169a7.97,7.97,0,0,0-.137-1.1,4.661,4.661,0,0,0-.992-2.193,4.426,4.426,0,0,0-.962-.852,5.044,5.044,0,0,0-1.565-.624,9.225,9.225,0,0,0-1.638-.2c-.529-.027-1.058-.04-1.587-.055-.225-.006-.451,0-.677,0C13.174,2.362,10.587,2.3,8,2.4c-.369.015-.736.035-1.1.076a6.5,6.5,0,0,0-1.689.412A4.159,4.159,0,0,0,3.29,4.452a4.979,4.979,0,0,0-.734,1.92A11.294,11.294,0,0,0,2.4,7.925c-.026.554-.053,1.11-.052,1.665,0,2.6-.049,5.208.043,7.811.016.455.033.91.079,1.364a6.78,6.78,0,0,0,.321,1.511A4.228,4.228,0,0,0,4.519,22.5a4.93,4.93,0,0,0,1.676.657,9.342,9.342,0,0,0,1.51.178c.485.026.971.05,1.457.053,1.238.007,2.475,0,3.712,0" transform="translate(0 0)" fill="#fff"/>
  <path id="Trazado_2077" data-name="Trazado 2077" d="M23.98,17.363a6.616,6.616,0,1,1-6.6-6.623,6.608,6.608,0,0,1,6.6,6.623m-2.348,0a4.271,4.271,0,1,0-4.29,4.265,4.266,4.266,0,0,0,4.29-4.265" transform="translate(-4.489 -4.486)" fill="#fff"/>
  <path id="Trazado_2078" data-name="Trazado 2078" d="M34.33,9.193a1.541,1.541,0,0,1-1.55,1.557,1.554,1.554,0,1,1,.006-3.107,1.547,1.547,0,0,1,1.544,1.55" transform="translate(-13.04 -3.192)" fill="#fff"/>
</svg>
