<svg id="Logo_rutan" xmlns="http://www.w3.org/2000/svg" xmlns:xlink="http://www.w3.org/1999/xlink" width="133.92" height="63.967" viewBox="0 0 133.92 63.967">
  <defs>
    <clipPath id="clip-path">
      <rect id="Rectángulo_134" data-name="Rectángulo 134" width="133.92" height="63.968" fill="#ccc"/>
    </clipPath>
  </defs>
  <g id="Grupo_114" data-name="Grupo 114" clip-path="url(#clip-path)">
    <path id="Trazado_1975" data-name="Trazado 1975" d="M157.139,26.311c-2.232,2.187-4.477,4.362-6.685,6.573a1.908,1.908,0,0,1-1.494.6c-5.614-.021-11.228-.012-16.842-.012-.76,0-.758,0-.763.761-.011,1.667.061,3.336-.089,5a10.514,10.514,0,0,1-3,7.081,10.012,10.012,0,0,1-5.432,2.493,18.779,18.779,0,0,1-3.18.227c-4.193-.01-8.385.006-12.578-.009a13.714,13.714,0,0,1-6.2-1.3,8.422,8.422,0,0,1-4.6-6.24,19.942,19.942,0,0,1,0-7.927c.811-3.944,3.352-6.2,7.218-7.065a18.388,18.388,0,0,1,3.96-.4c5.259-.019,10.517-.008,15.776-.008.733,0,.736,0,.735-.741,0-1.26.01-2.521-.017-3.781a3.35,3.35,0,0,0-3.682-3.631c-9.149-.013-18.3,0-27.448-.02-.572,0-.572.279-.572.691q.009,14.567,0,29.133c0,.2,0,.391,0,.586,0,.708,0,.711-.7.712q-2.931,0-5.863,0c-.726,0-.732,0-.732-.751q0-14.7,0-29.4c0-1.057.073-.956-.936-.959-1.137,0-2.274,0-3.411,0-.74,0-.742,0-.742.727q0,7.882,0,15.765c0,1.685.076,3.372-.086,5.053-.334,3.458-1.561,6.4-4.789,8.167a10.432,10.432,0,0,1-4.471,1.275c-5.253.276-10.511.12-15.767.088a11.033,11.033,0,0,1-5.833-1.615,9.246,9.246,0,0,1-4.159-6.533,19.83,19.83,0,0,1-.3-3.65q-.021-12.809-.007-25.618c0-.195,0-.39.008-.586,0-.261.135-.382.4-.382q3.252.005,6.5,0c.267,0,.395.112.386.382-.006.195,0,.39,0,.586q0,12.836,0,25.671a7.856,7.856,0,0,0,.191,1.792A3.059,3.059,0,0,0,54.716,41.6a10.972,10.972,0,0,0,1.59.12q6-.014,11.992,0a7,7,0,0,0,1.686-.2,3.046,3.046,0,0,0,2.486-3.045c.017-.354.019-.71.019-1.065q0-12.836,0-25.671c0-.178.013-.356,0-.533-.034-.425.125-.624.578-.593.425.029.853.006,1.279.006,3.322,0,6.645-.011,9.966.011.52,0,.663-.161.66-.667-.015-3.319,0-6.639,0-9.959h7.249c.012.247.035.495.035.743q0,4.5,0,9c0,.969-.081.874.9.875H119.64a19.531,19.531,0,0,1,2.709.106,11.1,11.1,0,0,1,5,1.819c2.691,1.906,3.628,4.7,3.914,7.813.154,1.662.083,3.331.092,5,0,.73,0,.733.743.733h23.6c.479,0,.959.008,1.438.012Zm-42.085,7.165q-4,0-7.994,0a5.34,5.34,0,0,0-1.979.348,2.441,2.441,0,0,0-1.639,1.878,10.746,10.746,0,0,0-.037,3.5,2.642,2.642,0,0,0,2.115,2.272,7.539,7.539,0,0,0,1.947.251q5.888,0,11.778,0a12.49,12.49,0,0,0,1.539-.082,3.273,3.273,0,0,0,3.171-3.465c.028-1.349,0-2.7.031-4.047.014-.519-.163-.664-.671-.66-2.753.021-5.507.01-8.26.01" transform="translate(-23.219)" fill="#ccc"/>
    <path id="Trazado_1976" data-name="Trazado 1976" d="M.009,46.441c0-4.278-.012-8.555.006-12.832a14.7,14.7,0,0,1,1-5.672,8.888,8.888,0,0,1,6.728-5.4,13.812,13.812,0,0,1,3.114-.334c2.5.017,5.009.02,7.513-.006.54-.006.7.156.693.693-.029,2.005-.022,4.011,0,6.016,0,.462-.146.621-.612.618-2.362-.017-4.725,0-7.087-.011a6.347,6.347,0,0,0-1.527.182A3.055,3.055,0,0,0,7.44,32.323a7.9,7.9,0,0,0-.125,1.534q.01,12.966,0,25.931c0,.84,0,.841-.845.841-1.936,0-3.872-.015-5.808.01C.152,60.645,0,60.472,0,59.966c.016-4.508.009-9.016.009-13.525" transform="translate(0 -11.594)" fill="#ccc"/>
    <path id="Trazado_1977" data-name="Trazado 1977" d="M8.72,119.846c-.575,1.353-1.165,2.7-1.717,4.061-.173.426-.412.635-.874.566a1.007,1.007,0,0,0-.319,0c-.577.1-.86-.185-1.08-.688-.579-1.33-1.2-2.642-1.83-4.009-.189.191-.128.374-.128.532-.006,1.171-.016,2.342,0,3.512.007.46-.118.675-.631.659-1.577-.05-1.372.22-1.38-1.392-.011-2.146,0-4.292,0-6.439,0-.709.021-.739.7-.728,1.518.025,1.22-.249,1.85,1.191q1.172,2.681,2.339,5.363c.055.127.069.325.218.338.213.018.2-.217.252-.35.815-1.966,1.633-3.93,2.424-5.906a.841.841,0,0,1,.927-.652c1.585.061,1.385-.219,1.392,1.384.01,2.164-.011,4.328.011,6.493.006.532-.161.717-.7.7-1.465-.052-1.305.2-1.314-1.3-.006-1.109,0-2.218,0-3.328l-.142-.006" transform="translate(-0.396 -60.538)" fill="#ccc"/>
    <path id="Trazado_1978" data-name="Trazado 1978" d="M213.152,121.617a1.257,1.257,0,0,0,.059-.665c.007-1.49.015-2.98,0-4.47-.006-.438.15-.6.588-.589,1.542.032,1.337-.182,1.346,1.318.013,2.182,0,4.364.024,6.545.007.526-.159.67-.693.719a1.864,1.864,0,0,1-1.9-1c-1.017-1.515-2.14-2.959-3.222-4.43-.071-.1-.131-.214-.289-.226-.15.161-.081.366-.081.549-.007,1.49-.017,2.98,0,4.47.006.46-.152.629-.618.616-1.605-.043-1.4.219-1.407-1.363-.01-2.146,0-4.292,0-6.439,0-.742.021-.694.729-.772a1.8,1.8,0,0,1,1.868.957c1.049,1.558,2.208,3.041,3.324,4.553.068.093.1.234.278.224" transform="translate(-108.093 -60.519)" fill="#ccc"/>
    <path id="Trazado_1979" data-name="Trazado 1979" d="M67.256,120.166c0-1.207.012-2.415-.007-3.621-.007-.449.131-.65.61-.627a29.7,29.7,0,0,1,3.722.116,4.494,4.494,0,0,1,3.042,1.678c1.259,1.706.979,5.335-1.926,6.337a9.131,9.131,0,0,1-3.2.43c-.55-.011-1.1-.022-1.652,0-.441.021-.6-.155-.592-.589.016-1.242.006-2.485.005-3.728m2.008.016v1.7c0,1.54.106,1.621,1.632,1.257a2.947,2.947,0,0,0,2.375-3,2.768,2.768,0,0,0-2.083-2.865,5.28,5.28,0,0,0-1.423-.159c-.368,0-.507.154-.5.511.011.852,0,1.7,0,2.556" transform="translate(-35.126 -60.545)" fill="#ccc"/>
    <path id="Trazado_1980" data-name="Trazado 1980" d="M38.471,120.171c0-1.206.011-2.413-.006-3.619-.006-.438.113-.644.6-.637,1.633.022,3.266.019,4.9,0,.446,0,.589.17.587.6s-.114.621-.574.611c-.994-.022-1.988.007-2.982-.012-.418-.008-.6.106-.6.565-.016,1.653-.031,1.653,1.64,1.653.391,0,.782.016,1.171,0,.471-.021.5.267.5.621s-.059.588-.488.579c-.763-.014-1.527.011-2.29-.007-.391-.009-.543.137-.528.529.021.567.021,1.136,0,1.7-.015.4.15.528.535.523,1.082-.015,2.166.011,3.248-.011.464-.01.572.2.572.612s-.118.61-.578.605q-2.556-.029-5.112,0c-.438,0-.6-.15-.595-.586.017-1.242.006-2.483.006-3.725" transform="translate(-20.091 -60.544)" fill="#ccc"/>
    <path id="Trazado_1981" data-name="Trazado 1981" d="M100.479,120.141c0-1.188.013-2.377-.007-3.565-.008-.463.12-.671.63-.663,1.615.025,3.231.022,4.846,0,.476-.006.615.178.612.628s-.166.593-.6.583c-.994-.021-1.988.007-2.982-.012-.409-.008-.588.128-.561.551a10.619,10.619,0,0,1,0,1.17c-.017.368.137.508.5.5.728-.015,1.456.017,2.183-.01.468-.017.622.165.619.622,0,.438-.162.6-.6.588-.727-.023-1.456.009-2.183-.011-.4-.011-.537.148-.523.534.021.567.021,1.136,0,1.7-.015.4.161.523.54.517,1.047-.015,2.095.014,3.141-.012.488-.012.6.2.6.638s-.169.583-.6.579q-2.529-.024-5.059,0c-.415,0-.568-.151-.563-.561.014-1.259.005-2.519,0-3.778" transform="translate(-52.478 -60.543)" fill="#ccc"/>
    <path id="Trazado_1982" data-name="Trazado 1982" d="M157.856,120.2c0-1.223.013-2.447-.007-3.67-.008-.46.159-.626.622-.614,1.6.041,1.38-.211,1.39,1.38.011,1.773.018,3.546-.007,5.319-.007.515.171.681.678.667,1.081-.029,2.164.006,3.246-.015.45-.009.587.176.583.6,0,.407-.1.62-.567.615q-2.688-.028-5.376,0c-.414,0-.571-.149-.567-.558.013-1.241,0-2.483,0-3.724" transform="translate(-82.447 -60.545)" fill="#ccc"/>
    <path id="Trazado_1983" data-name="Trazado 1983" d="M129.265,120.183c0-1.223.011-2.446-.006-3.669-.006-.43.142-.6.586-.595,1.595.031,1.347-.164,1.358,1.3.013,1.808.017,3.616-.006,5.424-.006.484.142.656.635.643,1.117-.03,2.235.008,3.352-.017.487-.011.6.2.6.64s-.177.581-.6.578c-1.774-.016-3.548-.02-5.321,0-.484.006-.607-.193-.6-.634.019-1.223.007-2.446.007-3.669" transform="translate(-67.514 -60.547)" fill="#ccc"/>
    <path id="Trazado_1984" data-name="Trazado 1984" d="M188.524,120.243c0,1.206-.014,2.411.007,3.616.008.453-.138.635-.611.623-1.562-.039-1.326.182-1.334-1.32-.013-2.2.007-4.4-.011-6.594,0-.474.134-.666.633-.654,1.5.038,1.3-.163,1.315,1.3.008,1.01,0,2.021,0,3.031" transform="translate(-97.451 -60.544)" fill="#ccc"/>
    <path id="Trazado_1985" data-name="Trazado 1985" d="M189.255,109.887c-.011.157-.115.2-.2.254-.764.478-1.524.96-2.292,1.431a.907.907,0,0,1-1.016-.395c-.05-.15.055-.231.14-.316.621-.628,1.247-1.251,1.867-1.88.157-.159.3-.236.5-.058.3.275.6.541.9.815a.721.721,0,0,1,.1.149" transform="translate(-97.011 -56.839)" fill="#ccc"/>
    <path id="Trazado_1986" data-name="Trazado 1986" d="M234.331,5.2a11.25,11.25,0,0,1,2.387-2.386,3.631,3.631,0,0,1,2.269-.62,2.2,2.2,0,0,1,2.084,2.148,13.869,13.869,0,0,1-.765,3.954c-.207.844-.46,1.677-.686,2.516-.055.2-.127.436.1.582s.416,0,.58-.135a5.776,5.776,0,0,0,1.379-2c.12-.232.217-.426.558-.329.607.173.67.266.4.85a6.81,6.81,0,0,1-1.721,2.407,3.067,3.067,0,0,1-2.7.809,1.663,1.663,0,0,1-1.445-1.713,6.827,6.827,0,0,1,.32-2.149c.349-1.247.733-2.486.987-3.757.1-.483.278-1.05-.243-1.364-.539-.324-1.039.038-1.453.369a8.985,8.985,0,0,0-2.822,4.177c-.425,1.222-.762,2.476-1.1,3.726a.655.655,0,0,1-.736.582,12.442,12.442,0,0,0-1.809.062c-.522.073-.609-.032-.472-.549q.947-3.577,1.907-7.15c.009-.034.021-.068.031-.1.36-1.259.278-1.386-1.027-1.52-.253-.026-.431-.1-.378-.381s-.014-.684.462-.711c.585-.033,1.169-.073,1.754-.1.727-.038,1.454-.064,2.18-.108.392-.023.508.132.41.509-.173.67-.326,1.345-.486,2.018a.358.358,0,0,0,.039.365" transform="translate(-119.81 -1.143)" fill="#ccc"/>
  </g>
</svg>
