<svg id="Logo_republica" xmlns="http://www.w3.org/2000/svg" xmlns:xlink="http://www.w3.org/1999/xlink" width="53.14" height="66.222" viewBox="0 0 53.14 66.222">
  <defs>
    <clipPath id="clip-path">
      <rect id="Rectángulo_138" data-name="Rectángulo 138" width="53.14" height="66.222" fill="#ccc"/>
    </clipPath>
  </defs>
  <g id="Grupo_119" data-name="Grupo 119" clip-path="url(#clip-path)">
    <path id="Trazado_2018" data-name="Trazado 2018" d="M30.738,115.96c-.043.147-.085.283-.129.413L30.2,117.53h1.085l-.41-1.148c-.053-.147-.1-.287-.136-.422" transform="translate(-20.011 -76.838)" fill="#ccc"/>
    <path id="Trazado_2019" data-name="Trazado 2019" d="M94.515,115.3c0-.153,0-.62-.928-.62a3.459,3.459,0,0,0-.421.022v1.238H93.6c.555,0,.913-.251.913-.64" transform="translate(-61.734 -75.992)" fill="#ccc"/>
    <path id="Trazado_2020" data-name="Trazado 2020" d="M93.551,120.508h-.386v1.506c.1.008.225.012.393.012.413,0,1.106-.1,1.106-.762,0-.682-.778-.756-1.113-.756" transform="translate(-61.733 -79.851)" fill="#ccc"/>
    <path id="Trazado_2021" data-name="Trazado 2021" d="M46.613,114.827a3.305,3.305,0,0,0-.484.031v1.44h.507c.59,0,.956-.284.956-.742,0-.477-.33-.722-.979-.728" transform="translate(-30.566 -76.087)" fill="#ccc"/>
    <path id="Trazado_2022" data-name="Trazado 2022" d="M53.14,4.44a4.24,4.24,0,0,0-.773-2.427,4.414,4.414,0,0,0-3.822-2Q24.61-.011.675,0C0,0,0,0,0,.672q0,11.9,0,23.807,0,11.69.006,23.38a5.7,5.7,0,0,0,.446,2.66,4.626,4.626,0,0,0,4.395,2.608c6.983.025,13.965.009,20.948.011.815,0,.742-.086.742.721q0,5.866,0,11.733c0,.142,0,.285.005.427,0,.083,0,.191.1.2a.258.258,0,0,0,.175-.1c.452-.506.974-.946,1.433-1.44.6-.642,1.229-1.246,1.847-1.865.746-.748,1.488-1.5,2.26-2.225,1.05-.985,2.025-2.05,3.045-3.068,1.352-1.348,2.723-2.677,4.069-4.032a1.1,1.1,0,0,1,.853-.367q6.08.016,12.159.006c.645,0,.646,0,.646-.656q0-12.031,0-24.063,0-11.989,0-23.977M6.264,10.808q4.863.01,9.727,0c.555,0,1.109.008,1.664,0,.255,0,.36.091.353.35-.012.412-.011.825,0,1.237.007.27-.122.364-.375.411-1.111.206-2.216.448-3.329.64-.336.058-.4.208-.4.507.01,1.749,0,3.5,0,5.248q0,6.485,0,12.969c0,.568,0,.57.56.571,1.607,0,3.214-.011,4.821.009a.543.543,0,0,0,.636-.5c.335-1.43.695-2.856,1.056-4.28a3.785,3.785,0,0,0,.172-.7c.015-.227.172-.339.412-.336.583.006,1.166.007,1.749,0,.241,0,.324.1.324.334q-.006,3.733,0,7.466c0,.354-.215.335-.452.334q-2.6,0-5.2,0H6.464c-.687,0-.687,0-.688-.707,0-.128,0-.256,0-.384.019-1.019-.145-.777.8-1.083a16.027,16.027,0,0,1,1.594-.412.547.547,0,0,0,.516-.629c-.015-2.986-.008-5.973-.008-8.959q0-4.415,0-8.831c0-.336-.005-.563-.45-.642-.693-.123-1.364-.37-2.047-.552-.284-.075-.44-.2-.414-.53a7.026,7.026,0,0,0,0-1.108c-.032-.4.183-.429.495-.428M8.537,42.853H5.605V38.014h.877V42.1H8.537Zm3.47,0-.514-1.441H9.969l-.5,1.441H8.555l1.725-4.839h.929l1.732,4.839Zm5.225.048-.037-.061a5.337,5.337,0,0,1-.336-1.132c-.13-.575-.342-.774-.843-.792h-.452V42.9h-.877V38.146l.1-.02a6.891,6.891,0,0,1,1.216-.1,2.149,2.149,0,0,1,1.475.4,1.235,1.235,0,0,1,.422.967,1.3,1.3,0,0,1-.745,1.19,1.425,1.425,0,0,1,.542.9,7.287,7.287,0,0,0,.358,1.225l.108.191Zm4.364-.033h-2.96V38.029h2.853v.753H19.512v1.192h1.869v.746H19.512v1.4h2.083Zm3.334-2.35a2.163,2.163,0,0,1-1.559.54A3.229,3.229,0,0,1,23,41.041v1.812h-.877V38.087l.108-.017a7.76,7.76,0,0,1,1.211-.09,2.161,2.161,0,0,1,1.432.412,1.335,1.335,0,0,1,.466,1.056,1.438,1.438,0,0,1-.409,1.07m4.8.3a1.852,1.852,0,0,1-1.947,2.113c-1.2,0-1.855-.741-1.855-2.086V38.014h.884v2.841c0,.86.352,1.333.992,1.333.691,0,1.042-.449,1.042-1.333V38.014h.884Zm-2.4-2.926.754-.914h1.013l-1.05.914Zm6.069,4.543a2.584,2.584,0,0,1-1.749.463,7.633,7.633,0,0,1-.98-.056l-.112-.015V38.1l.1-.021a6.446,6.446,0,0,1,1.16-.1,2.188,2.188,0,0,1,1.4.36,1.068,1.068,0,0,1,.449.911,1.155,1.155,0,0,1-.615,1,1.267,1.267,0,0,1,.794,1.172,1.33,1.33,0,0,1-.448,1.012m4.049.422H34.512V38.014h.877V42.1h2.055Zm1.335,0H37.9V38.014h.877ZM37.742,25.76a3.105,3.105,0,0,0-2.785-1.775c-.411-.024-.825.009-1.236-.009-.273-.012-.393.093-.4.36,0,.2-.038.4-.038.594q0,3.071,0,6.143c0,.283.054.569.056.844,0,.426.222.509.561.577.691.139,1.348.407,2.046.531a.386.386,0,0,1,.324.436c-.012.384-.021.769,0,1.151.022.349-.1.477-.456.467-.838-.022-1.678-.007-2.516-.007-2.546,0-5.091-.009-7.636.009-.418,0-.556-.127-.522-.534a8.32,8.32,0,0,0,0-1.066A.421.421,0,0,1,25.518,33c.712-.179,1.418-.38,2.132-.547.338-.079.4-.276.4-.586-.008-2.773,0-5.546,0-8.318V14.338c0-.85,0-.836-.821-1.031-.59-.141-1.167-.339-1.755-.486a.378.378,0,0,1-.323-.424c0-.427,0-.853,0-1.28,0-.217.092-.315.308-.3.071,0,.142,0,.213,0,3.924,0,7.85-.049,11.773.022a9.613,9.613,0,0,1,4.975,1.339,5.291,5.291,0,0,1,2.547,4.75,5.441,5.441,0,0,1-3.07,5.172c-.6.328-1.258.535-1.9.831.445.317.918.5,1.34.794a5.933,5.933,0,0,1,2.091,2.922c.484,1.25.843,2.548,1.29,3.813a8.155,8.155,0,0,0,.7,1.5,2.452,2.452,0,0,0,1.64,1.179.342.342,0,0,1,.312.413c-.017.426-.009.853,0,1.279a.3.3,0,0,1-.272.35,8.164,8.164,0,0,1-4.157.137,3.854,3.854,0,0,1-2.31-1.876,15.869,15.869,0,0,1-1.478-3.683,23.94,23.94,0,0,0-1.4-3.99m4.095,17.165a2.32,2.32,0,0,1-2.5-2.447,2.477,2.477,0,0,1,2.639-2.535,2.978,2.978,0,0,1,1.122.184c-.061.267-.185.747-.185.747a2.244,2.244,0,0,0-.917-.178,1.613,1.613,0,0,0-1.748,1.762,1.578,1.578,0,0,0,1.72,1.715,2.506,2.506,0,0,0,.927-.165l.211.713a3.466,3.466,0,0,1-1.266.205m4.883-.072-.513-1.441H44.682l-.5,1.441h-.915l1.725-4.839h.929l1.733,4.839Z" transform="translate(0 0)" fill="#ccc"/>
    <path id="Trazado_2023" data-name="Trazado 2023" d="M68.627,114.724a3.454,3.454,0,0,0-.457.026v1.57a2.546,2.546,0,0,0,.386.024c.4,0,1.077-.111,1.077-.851,0-.636-.547-.769-1.006-.769" transform="translate(-45.171 -76.019)" fill="#ccc"/>
    <path id="Trazado_2024" data-name="Trazado 2024" d="M133.629,115.96c-.043.147-.085.283-.128.413l-.411,1.157h1.085l-.41-1.148c-.052-.147-.1-.287-.136-.422" transform="translate(-88.189 -76.838)" fill="#ccc"/>
    <path id="Trazado_2025" data-name="Trazado 2025" d="M102.234,39.078a21.733,21.733,0,0,0-2.966-.161c-.44-.034-.587.159-.609.541-.008.142-.014.284-.014.426,0,1.037,0,2.075,0,3.354.057,1.078-.077,2.4.066,3.718.035.322.111.418.417.4a14.3,14.3,0,0,0,3.385-.174,3.211,3.211,0,0,0,2.085-1.967,6.416,6.416,0,0,0,.149-3.841,3.532,3.532,0,0,0-2.513-2.291" transform="translate(-65.362 -25.785)" fill="#ccc"/>
  </g>
</svg>
