<?xml version="1.0" encoding="UTF-8"?><svg id="Capa_2" xmlns="http://www.w3.org/2000/svg" viewBox="0 0 133.92 63.97"><defs><style>.cls-1{fill:#61cc29;}</style></defs><g id="Capa_1-2"><g id="Grupo_114"><g><path id="Trazado_1975" d="M133.92,26.31c-2.23,2.19-4.48,4.36-6.68,6.57-.39,.41-.93,.63-1.49,.6-5.61-.02-11.23-.01-16.84-.01-.76,0-.76,0-.76,.76-.01,1.67,.06,3.34-.09,5-.07,2.65-1.14,5.18-3,7.08-1.51,1.36-3.41,2.23-5.43,2.49-1.05,.17-2.12,.24-3.18,.23-4.19,0-8.39,0-12.58,0-2.14,.06-4.26-.39-6.2-1.3-2.46-1.21-4.17-3.54-4.6-6.24-.53-2.62-.53-5.31,0-7.93,.81-3.94,3.35-6.2,7.22-7.07,1.3-.28,2.63-.41,3.96-.4,5.26-.02,10.52,0,15.78,0,.73,0,.74,0,.74-.74,0-1.26,.01-2.52-.02-3.78,.17-1.84-1.2-3.47-3.04-3.64-.21-.02-.43-.02-.64,0-9.15-.01-18.3,0-27.45-.02-.57,0-.57,.28-.57,.69,0,9.71,0,19.42,0,29.13v.59c0,.71,0,.71-.7,.71h-5.86c-.73,0-.73,0-.73-.75V18.88c0-1.06,.07-.96-.94-.96h-3.41c-.74,0-.74,0-.74,.73v15.76c0,1.69,.08,3.37-.09,5.05-.33,3.46-1.56,6.4-4.79,8.17-1.38,.76-2.9,1.19-4.47,1.28-5.25,.28-10.51,.12-15.77,.09-2.06,.02-4.08-.54-5.83-1.62-2.28-1.46-3.8-3.85-4.16-6.53-.21-1.2-.31-2.43-.3-3.65-.01-8.54-.02-17.08,0-25.62,0-.19,0-.39,0-.59,0-.26,.13-.38,.4-.38,2.17,0,4.33,0,6.5,0,.27,0,.4,.11,.39,.38,0,.19,0,.39,0,.59,0,8.56,0,17.11,0,25.67,0,.6,.06,1.2,.19,1.79,.23,1.39,1.38,2.44,2.78,2.55,.53,.08,1.06,.12,1.59,.12,4,0,8,0,11.99,0,.57,0,1.13-.07,1.69-.2,1.46-.27,2.51-1.56,2.49-3.04,.02-.35,.02-.71,.02-1.06V11.74c0-.18,.01-.36,0-.53-.03-.43,.12-.62,.58-.59,.43,.03,.85,0,1.28,0,3.32,0,6.64-.01,9.97,.01,.52,0,.66-.16,.66-.67-.01-3.32,0-6.64,0-9.96h7.25c.01,.25,.04,.5,.04,.74V9.74c0,.97-.08,.87,.9,.88h26.48c.9-.03,1.81,0,2.71,.11,1.79,.19,3.51,.82,5,1.82,2.69,1.91,3.63,4.7,3.91,7.81,.15,1.66,.08,3.33,.09,5,0,.73,0,.73,.74,.73h23.6c.48,0,.96,0,1.44,.01v.21Zm-42.08,7.17h-7.99c-.68-.01-1.35,.11-1.98,.35-.85,.28-1.48,1-1.64,1.88-.2,1.16-.22,2.34-.04,3.5,.14,1.14,.99,2.05,2.11,2.27,.64,.17,1.29,.25,1.95,.25h11.78c.51,0,1.03-.02,1.54-.08,1.81-.05,3.23-1.56,3.18-3.37,0-.03,0-.06,0-.1,.03-1.35,0-2.7,.03-4.05,.01-.52-.16-.66-.67-.66-2.75,.02-5.51,0-8.26,0"/><path id="Trazado_1976" d="M0,34.84C0,30.57,0,26.29,.01,22.01c-.04-1.94,.3-3.87,1-5.67,1.16-2.84,3.7-4.88,6.73-5.4,1.02-.23,2.07-.34,3.11-.33,2.5,.02,5.01,.02,7.51,0,.54,0,.7,.16,.69,.69-.03,2-.02,4.01,0,6.02,0,.46-.15,.62-.61,.62-2.36-.02-4.73,0-7.09-.01-.51,0-1.03,.06-1.53,.18-1.28,.27-2.24,1.33-2.4,2.63-.09,.51-.13,1.02-.12,1.53,0,8.64,0,17.29,0,25.93q0,.84-.84,.84c-1.94,0-3.87-.01-5.81,0-.51,0-.66-.17-.66-.67,.02-4.51,0-9.02,0-13.52"/><g id="Trazado_1977"><path class="cls-1" d="M8.32,59.3c-.57,1.35-1.16,2.7-1.72,4.06-.17,.43-.41,.64-.87,.57-.11-.02-.21-.02-.32,0-.58,.1-.86-.18-1.08-.69-.58-1.33-1.2-2.64-1.83-4.01-.19,.19-.13,.37-.13,.53,0,1.17-.02,2.34,0,3.51,0,.46-.12,.68-.63,.66-1.58-.05-1.37,.22-1.38-1.39-.01-2.15,0-4.29,0-6.44,0-.71,.02-.74,.7-.73,1.52,.03,1.22-.25,1.85,1.19,.78,1.79,1.56,3.58,2.34,5.36,.05,.13,.07,.32,.22,.34,.21,.02,.2-.22,.25-.35,.82-1.97,1.63-3.93,2.42-5.91,.09-.42,.5-.71,.93-.65,1.59,.06,1.39-.22,1.39,1.38,.01,2.16-.01,4.33,.01,6.49,0,.53-.16,.72-.7,.7-1.47-.05-1.31,.2-1.31-1.3,0-1.11,0-2.22,0-3.33h-.14"/></g><g id="Trazado_1978"><path class="cls-1" d="M105.06,61.09c.08-.21,.1-.44,.06-.67,0-1.49,.01-2.98,0-4.47,0-.44,.15-.6,.59-.59,1.54,.03,1.34-.18,1.35,1.32,.01,2.18,0,4.36,.02,6.54,0,.53-.16,.67-.69,.72-.78,.1-1.54-.3-1.9-1-1.02-1.51-2.14-2.96-3.22-4.43-.07-.1-.13-.21-.29-.23-.15,.16-.08,.37-.08,.55,0,1.49-.02,2.98,0,4.47,0,.46-.15,.63-.62,.62-1.6-.04-1.4,.22-1.41-1.36,0-2.15,0-4.29,0-6.44,0-.74,.02-.69,.73-.77,.76-.11,1.51,.27,1.87,.96,1.05,1.56,2.21,3.04,3.32,4.55,.07,.09,.1,.23,.28,.22"/></g><g id="Trazado_1979"><path class="cls-1" d="M32.13,59.62c0-1.21,.01-2.42,0-3.62,0-.45,.13-.65,.61-.63,1.24-.04,2.48,0,3.72,.12,1.2,.13,2.29,.73,3.04,1.68,1.26,1.71,.98,5.33-1.93,6.34-1.03,.33-2.12,.48-3.2,.43-.55-.01-1.1-.02-1.65,0-.44,.02-.6-.15-.59-.59,.02-1.24,0-2.49,0-3.73m2.01,.02v1.7c0,1.54,.11,1.62,1.63,1.26,1.42-.28,2.43-1.55,2.38-3,.09-1.33-.79-2.54-2.08-2.86-.46-.12-.94-.17-1.42-.16-.37,0-.51,.15-.5,.51,.01,.85,0,1.7,0,2.56"/></g><g id="Trazado_1980"><path class="cls-1" d="M18.38,59.62c0-1.21,.01-2.41,0-3.62,0-.44,.11-.64,.6-.64,1.63,.02,3.27,.02,4.9,0,.45,0,.59,.17,.59,.6s-.11,.62-.57,.61c-.99-.02-1.99,0-2.98-.01-.42,0-.6,.11-.6,.57-.02,1.65-.03,1.65,1.64,1.65,.39,0,.78,.02,1.17,0,.47-.02,.5,.27,.5,.62s-.06,.59-.49,.58c-.76-.01-1.53,.01-2.29,0-.39,0-.54,.14-.53,.53,.02,.57,.02,1.14,0,1.7-.01,.4,.15,.53,.53,.52,1.08-.01,2.17,.01,3.25-.01,.46-.01,.57,.2,.57,.61s-.12,.61-.58,.61c-1.7-.02-3.41-.02-5.11,0-.44,0-.6-.15-.6-.59,.02-1.24,0-2.48,0-3.72"/></g><g id="Trazado_1981"><path class="cls-1" d="M48,59.59c0-1.19,.01-2.38,0-3.57,0-.46,.12-.67,.63-.66,1.61,.03,3.23,.02,4.85,0,.48,0,.61,.18,.61,.63s-.17,.59-.6,.58c-.99-.02-1.99,0-2.98-.01-.41,0-.59,.13-.56,.55,.02,.39,.02,.78,0,1.17-.02,.37,.14,.51,.5,.5,.73-.01,1.46,.02,2.18-.01,.47-.02,.62,.17,.62,.62,0,.44-.16,.6-.6,.59-.73-.02-1.46,0-2.18-.01-.4-.01-.54,.15-.52,.53,.02,.57,.02,1.14,0,1.7-.01,.4,.16,.52,.54,.52,1.05-.01,2.1,.01,3.14-.01,.49-.01,.6,.2,.6,.64s-.17,.58-.6,.58c-1.69-.02-3.37-.02-5.06,0-.42,0-.57-.15-.56-.56,.01-1.26,0-2.52,0-3.78"/></g><g id="Trazado_1982"><path class="cls-1" d="M75.41,59.65c0-1.22,.01-2.45,0-3.67,0-.46,.16-.63,.62-.61,1.6,.04,1.38-.21,1.39,1.38,.01,1.77,.02,3.55,0,5.32,0,.51,.17,.68,.68,.67,1.08-.03,2.16,0,3.25-.01,.45,0,.59,.18,.58,.6,0,.41-.1,.62-.57,.61-1.79-.02-3.58-.02-5.38,0-.41,0-.57-.15-.57-.56,.01-1.24,0-2.48,0-3.72"/></g><g id="Trazado_1983"><path class="cls-1" d="M61.75,59.63c0-1.22,.01-2.45,0-3.67,0-.43,.14-.6,.59-.6,1.6,.03,1.35-.16,1.36,1.3,.01,1.81,.02,3.62,0,5.42,0,.48,.14,.66,.63,.64,1.12-.03,2.24,0,3.35-.02,.49-.01,.6,.2,.6,.64s-.18,.58-.6,.58c-1.77-.02-3.55-.02-5.32,0-.48,0-.61-.19-.6-.63,.02-1.22,0-2.45,0-3.67"/></g><g id="Trazado_1984"><path class="cls-1" d="M91.07,59.69c0,1.21-.01,2.41,0,3.62,0,.45-.14,.64-.61,.62-1.56-.04-1.33,.18-1.33-1.32-.01-2.2,0-4.4-.01-6.59,0-.47,.13-.67,.63-.65,1.5,.04,1.3-.16,1.32,1.3,0,1.01,0,2.02,0,3.03"/></g><g id="Trazado_1985"><path class="cls-1" d="M92.24,53.04c-.01,.16-.12,.2-.2,.25-.76,.48-1.52,.96-2.29,1.43-.39,.11-.8-.05-1.02-.39-.05-.15,.05-.23,.14-.32,.62-.63,1.25-1.25,1.87-1.88,.16-.16,.3-.24,.5-.06,.3,.28,.6,.54,.9,.82,.04,.05,.07,.1,.1,.15"/></g><g id="Trazado_1986"><path class="cls-1" d="M114.52,4.05c.67-.91,1.48-1.72,2.39-2.39,.67-.45,1.46-.67,2.27-.62,1.15,.06,2.06,1,2.08,2.15-.06,1.35-.32,2.68-.76,3.95-.21,.84-.46,1.68-.69,2.52-.05,.2-.13,.44,.1,.58s.42,0,.58-.14c.6-.56,1.07-1.24,1.38-2,.12-.23,.22-.43,.56-.33,.61,.17,.67,.27,.4,.85-.39,.92-.98,1.74-1.72,2.41-.72,.69-1.72,.99-2.7,.81-.85-.11-1.48-.85-1.45-1.71,0-.73,.1-1.45,.32-2.15,.35-1.25,.73-2.49,.99-3.76,.1-.48,.28-1.05-.24-1.36-.54-.32-1.04,.04-1.45,.37-1.32,1.09-2.3,2.54-2.82,4.18-.43,1.22-.76,2.48-1.1,3.73-.04,.36-.36,.62-.72,.58,0,0-.01,0-.02,0-.6-.02-1.21,0-1.81,.06-.52,.07-.61-.03-.47-.55,.63-2.38,1.27-4.77,1.91-7.15,0-.03,.02-.07,.03-.1,.36-1.26,.28-1.39-1.03-1.52-.25-.03-.43-.1-.38-.38s-.01-.68,.46-.71c.59-.03,1.17-.07,1.75-.1,.73-.04,1.45-.06,2.18-.11,.39-.02,.51,.13,.41,.51-.17,.67-.33,1.35-.49,2.02-.06,.12-.04,.26,.04,.36"/></g></g></g></g></svg>