<svg xmlns="http://www.w3.org/2000/svg" width="172.482" height="48.193" viewBox="0 0 172.482 48.193">
  <g id="logo_appimotion_green_hor" transform="translate(-134 -68)">
    <g id="Logo_Appimotion_Black_hor" transform="translate(134 68)">
      <path id="Trazado_136" data-name="Trazado 136" d="M409.967,430.176q-.186-.145-.187-.654V424.1a6.135,6.135,0,0,0-1.174-4.058,4.855,4.855,0,0,0-3.9-1.388,10.691,10.691,0,0,0-1.521.108,5.381,5.381,0,0,0-1.322.347,2.749,2.749,0,0,0-.934.615l1.935,1.735c.231-.089.462-.168.694-.24a3.067,3.067,0,0,1,.881-.106q2.456,0,2.456,2.348v1.175a8.919,8.919,0,0,0-2.4-.32q-4.991,0-4.991,4.03v.08a4.069,4.069,0,0,0,1.108,2.991,4.441,4.441,0,0,0,3.3,1.12,5.326,5.326,0,0,0,3.63-1.28c.5.8,1.578,1.225,3.414,1.2l-.5-2.083a1.072,1.072,0,0,1-.48-.2m-3.07-.974a4.015,4.015,0,0,1-1.228.72,3.945,3.945,0,0,1-1.308.214,2.183,2.183,0,0,1-1.561-.44,1.678,1.678,0,0,1-.441-1.242v-.08a3.19,3.19,0,0,1,.08-.721,1.278,1.278,0,0,1,.32-.6,1.633,1.633,0,0,1,.681-.4,3.67,3.67,0,0,1,1.135-.147,8.617,8.617,0,0,1,1.121.081q.613.079,1.2.212Z" transform="translate(-349.364 -401.869)" fill="#2b824a"/>
      <path id="Trazado_137" data-name="Trazado 137" d="M426.045,418.658a5.924,5.924,0,0,0-1.962.321,11.119,11.119,0,0,0-1.855.854c-.338-.463-.979-1.121-3.011-.833l.61,2.1a1.151,1.151,0,0,1,.4.653,4.164,4.164,0,0,1,.08.907v15l2.883-.927v-4.725a7.032,7.032,0,0,0,1.375.413,6.95,6.95,0,0,0,1.268.12,5.465,5.465,0,0,0,2.268-.413,3.823,3.823,0,0,0,1.469-1.135,4.454,4.454,0,0,0,.8-1.721,9.439,9.439,0,0,0,.24-2.2v-3.284a5.62,5.62,0,0,0-1.175-3.711,4.155,4.155,0,0,0-3.39-1.415m1.682,8.409a4.219,4.219,0,0,1-.494,2.309,1.923,1.923,0,0,1-1.722.735A6.546,6.546,0,0,1,424.43,430a6.217,6.217,0,0,1-1.242-.347v-6.994a2.911,2.911,0,0,0-.027-.387,3.735,3.735,0,0,0-.08-.413,7.478,7.478,0,0,1,1.3-.534,4.2,4.2,0,0,1,1.188-.186q2.163,0,2.163,2.643Z" transform="translate(-355.91 -401.869)" fill="#2b824a"/>
      <path id="Trazado_138" data-name="Trazado 138" d="M483.837,418.658a6.32,6.32,0,0,0-2.056.32,8.858,8.858,0,0,0-1.895.935,4.285,4.285,0,0,0-1.375-.935,4.407,4.407,0,0,0-1.721-.32,6.192,6.192,0,0,0-1.91.307,8.6,8.6,0,0,0-1.855.868,2.6,2.6,0,0,0-.178-.217c-.043-.047-.088-.092-.135-.135s-.09-.076-.14-.113c-.023-.017-.043-.039-.069-.055a1.049,1.049,0,0,0-.164-.089,3.777,3.777,0,0,0-2.328-.223l.61,2.1a1.156,1.156,0,0,1,.4.653,4.181,4.181,0,0,1,.079.908h0v9.9h2.883v-9.931c0-.089,0-.182-.013-.281a2.724,2.724,0,0,0-.04-.28,6.546,6.546,0,0,1,1.282-.627,4,4,0,0,1,1.388-.254,1.864,1.864,0,0,1,.934.2,1.446,1.446,0,0,1,.547.56,2.411,2.411,0,0,1,.267.854,8.174,8.174,0,0,1,.067,1.081v8.676H481.3V423.3a4.134,4.134,0,0,0-.027-.481,3.406,3.406,0,0,0-.079-.453,4.428,4.428,0,0,1,1.188-.855,3.039,3.039,0,0,1,1.349-.32,1.81,1.81,0,0,1,1.495.627,2.366,2.366,0,0,1,.507,1.535v9.21h2.883V423.3a4.6,4.6,0,0,0-1.254-3.364,4.706,4.706,0,0,0-3.524-1.282" transform="translate(-372.779 -401.869)" fill="#2b824a"/>
      <path id="Trazado_139" data-name="Trazado 139" d="M511.869,420.019a4.822,4.822,0,0,0-1.681-1.027,7.439,7.439,0,0,0-4.659,0,4.813,4.813,0,0,0-1.7,1.027,4.283,4.283,0,0,0-1.027,1.536,5.187,5.187,0,0,0-.347,1.922v4.218a5.213,5.213,0,0,0,.347,1.908,4.249,4.249,0,0,0,1.027,1.549,4.8,4.8,0,0,0,1.7,1.027,7.441,7.441,0,0,0,4.659,0,4.813,4.813,0,0,0,1.681-1.027A4.253,4.253,0,0,0,512.9,429.6a5.227,5.227,0,0,0,.346-1.908v-4.218a5.2,5.2,0,0,0-.346-1.922,4.287,4.287,0,0,0-1.029-1.536m-1.508,7.675a2.283,2.283,0,0,1-.626,1.709,3.194,3.194,0,0,1-3.765,0,2.281,2.281,0,0,1-.626-1.709V423.45a2.246,2.246,0,0,1,.626-1.682,3.194,3.194,0,0,1,3.765,0,2.249,2.249,0,0,1,.626,1.682Z" transform="translate(-383.553 -401.856)" fill="#2b824a"/>
      <path id="Trazado_140" data-name="Trazado 140" d="M555.832,420.019a4.829,4.829,0,0,0-1.681-1.027,7.439,7.439,0,0,0-4.659,0,4.813,4.813,0,0,0-1.7,1.027,4.3,4.3,0,0,0-1.028,1.536,5.2,5.2,0,0,0-.347,1.922v4.218a5.228,5.228,0,0,0,.347,1.908,4.26,4.26,0,0,0,1.028,1.549,4.8,4.8,0,0,0,1.7,1.027,7.44,7.44,0,0,0,4.659,0,4.819,4.819,0,0,0,1.681-1.027,4.241,4.241,0,0,0,1.028-1.549,5.227,5.227,0,0,0,.347-1.908v-4.218a5.2,5.2,0,0,0-.347-1.922,4.276,4.276,0,0,0-1.028-1.536m-1.508,7.675a2.281,2.281,0,0,1-.627,1.709,3.193,3.193,0,0,1-3.764,0,2.281,2.281,0,0,1-.627-1.709V423.45a2.247,2.247,0,0,1,.627-1.682,3.193,3.193,0,0,1,3.764,0,2.247,2.247,0,0,1,.627,1.682Z" transform="translate(-398.153 -401.856)" fill="#2b824a"/>
      <path id="Trazado_141" data-name="Trazado 141" d="M575.861,420.139a4.259,4.259,0,0,0-3.5-1.4,6.436,6.436,0,0,0-1.829.28,6.725,6.725,0,0,0-1.855.894,1.968,1.968,0,0,0-.263-.331l-.021-.021c-.031-.031-.063-.059-.1-.089-.019-.016-.037-.033-.056-.047-.038-.029-.078-.057-.121-.086l-.01-.007a3.584,3.584,0,0,0-2.5-.3l.61,2.1a1.155,1.155,0,0,1,.4.653,4.176,4.176,0,0,1,.079.9v9.913h2.884v-9.931a2.873,2.873,0,0,0-.081-.641,4.909,4.909,0,0,1,2.509-.828,1.872,1.872,0,0,1,1.562.694,3.127,3.127,0,0,1,.548,1.975v8.73h2.883v-8.73a5.7,5.7,0,0,0-1.147-3.724" transform="translate(-404.526 -401.896)" fill="#2b824a"/>
      <path id="Trazado_142" data-name="Trazado 142" d="M446.147,418.658a5.927,5.927,0,0,0-1.962.321,11.09,11.09,0,0,0-1.855.854c-.339-.463-.979-1.121-3.012-.833l.61,2.1a1.152,1.152,0,0,1,.4.653,4.162,4.162,0,0,1,.08.907v15l2.883-.927v-4.725a7.032,7.032,0,0,0,1.375.413,6.95,6.95,0,0,0,1.268.12,5.469,5.469,0,0,0,2.269-.413,3.832,3.832,0,0,0,1.469-1.135,4.462,4.462,0,0,0,.8-1.721,9.475,9.475,0,0,0,.24-2.2v-3.284a5.62,5.62,0,0,0-1.175-3.711,4.155,4.155,0,0,0-3.39-1.415m1.682,8.409a4.219,4.219,0,0,1-.494,2.309,1.923,1.923,0,0,1-1.722.735,6.545,6.545,0,0,1-1.081-.108,6.2,6.2,0,0,1-1.242-.347v-6.994a2.911,2.911,0,0,0-.027-.387,3.593,3.593,0,0,0-.08-.413,7.479,7.479,0,0,1,1.3-.534,4.2,4.2,0,0,1,1.188-.186q2.163,0,2.163,2.643Z" transform="translate(-362.585 -401.869)" fill="#2b824a"/>
      <path id="Trazado_143" data-name="Trazado 143" d="M464.364,430.692q-.187-.145-.187-.654v-10.4l-2.883.431v9.651c.059,1.844.626,3.416,4.053,3.257l-.5-2.083a1.072,1.072,0,0,1-.481-.2" transform="translate(-369.883 -402.194)" fill="#2b824a"/>
      <path id="Trazado_144" data-name="Trazado 144" d="M462.617,415.548a1.727,1.727,0,1,0-1.727-1.728,1.728,1.728,0,0,0,1.727,1.728" transform="translate(-369.749 -399.689)" fill="#2b824a"/>
      <path id="Trazado_145" data-name="Trazado 145" d="M540.265,430.692q-.187-.145-.187-.654v-10.4l-2.883.431v9.651c.059,1.844.626,3.416,4.053,3.257l-.5-2.083a1.075,1.075,0,0,1-.481-.2" transform="translate(-395.089 -402.194)" fill="#2b824a"/>
      <path id="Trazado_146" data-name="Trazado 146" d="M538.519,415.548a1.727,1.727,0,1,0-1.729-1.728,1.728,1.728,0,0,0,1.729,1.728" transform="translate(-394.954 -399.689)" fill="#2b824a"/>
      <path id="Trazado_147" data-name="Trazado 147" d="M527.182,429.134a1.058,1.058,0,0,1-.48-.2c-.125-.1-.187-.316-.187-.654v-7.789h2.178V418.2h-2.178v-3.251h-1.769l-.816,3.251h-1.411v2.29h1.114v7.469c.059,1.844.626,3.416,4.054,3.257a9.455,9.455,0,0,0,1.569-.381l-1.015-1.824a3.731,3.731,0,0,1-1.058.122" transform="translate(-390.215 -400.638)" fill="#2b824a"/>
      <path id="Trazado_148" data-name="Trazado 148" d="M343.705,440.158c-.244.132-.494.253-.749.367.255-.114.506-.235.749-.367" transform="translate(-330.585 -409.009)" fill="#2b824a"/>
      <path id="Trazado_149" data-name="Trazado 149" d="M333.509,429.559l-.731-1.415a12.882,12.882,0,0,1-1.1-5.233,13.012,13.012,0,0,1,8.2-12.046,28.314,28.314,0,0,0-3.731.9,21.329,21.329,0,0,0-6.318,3.137,15.637,15.637,0,0,0-3.034,3.041c-1.76,2.343-2.991,5.908-2,8.79a7.6,7.6,0,0,0,6.76,5.1,11.3,11.3,0,0,0,3.133-.322l-1.119-1.862c-.019-.03-.037-.062-.055-.094" transform="translate(-324.435 -399.281)" fill="#2b824a"/>
      <path id="Trazado_150" data-name="Trazado 150" d="M342.514,440.731c-.26.116-.525.221-.794.319.269-.1.534-.2.794-.319" transform="translate(-330.175 -409.199)" fill="#2b824a"/>
      <path id="Trazado_151" data-name="Trazado 151" d="M341.147,441.337c.122-.039.245-.076.365-.119-.12.043-.244.077-.367.118Z" transform="translate(-329.984 -409.361)" fill="#2b824a"/>
      <path id="Trazado_152" data-name="Trazado 152" d="M341.713,441.207l-.017.007.017-.007" transform="translate(-330.167 -409.357)" fill="#2b824a"/>
      <path id="Trazado_153" data-name="Trazado 153" d="M344.823,439.505c-.241.154-.49.3-.745.437.254-.137.5-.283.745-.437" transform="translate(-330.958 -408.792)" fill="#2b824a"/>
      <path id="Trazado_154" data-name="Trazado 154" d="M342.941,440.707l-.032.016.032-.016" transform="translate(-330.57 -409.191)" fill="#2b824a"/>
      <path id="Trazado_155" data-name="Trazado 155" d="M348.3,416.453l-.008-5.564-.137,0c-.109,0-.218.007-.327.012a12.079,12.079,0,0,0-11.188,12.014,11.948,11.948,0,0,0,1.015,4.838l.744,1.429,1.248,2.077c.122-.04.245-.074.367-.118l.017-.007q.4-.144.794-.319l.031-.015c.254-.114.5-.235.749-.366s.5-.282.745-.437a14.59,14.59,0,0,0,2.718-2.222,6.254,6.254,0,0,1,3.232-11.327" transform="translate(-328.489 -399.289)" fill="#2b824a"/>
      <path id="Trazado_156" data-name="Trazado 156" d="M366.462,440.731a12.149,12.149,0,0,0,1.18.446v0a12.173,12.173,0,0,1-1.182-.444" transform="translate(-338.391 -409.199)" fill="#2b824a"/>
      <path id="Trazado_157" data-name="Trazado 157" d="M374.911,417.944a15.66,15.66,0,0,0-3.035-3.041,21.3,21.3,0,0,0-6.318-3.137,28.476,28.476,0,0,0-3.731-.9,13.01,13.01,0,0,1,8.2,12.047,12.852,12.852,0,0,1-1.092,5.206l-.789,1.519-1.129,1.88a11.362,11.362,0,0,0,3.129.321,7.6,7.6,0,0,0,6.76-5.1c.995-2.881-.236-6.447-2-8.79" transform="translate(-336.852 -399.281)" fill="#2b824a"/>
      <path id="Trazado_158" data-name="Trazado 158" d="M365.222,429.119l.717-1.388a11.932,11.932,0,0,0,1-4.812,12.082,12.082,0,0,0-11.2-12.014c-.1,0-.206-.008-.315-.011l-.139,0,.007,5.562a6.256,6.256,0,0,1,3.241,11.357,14.605,14.605,0,0,0,2.69,2.193c.241.155.491.3.745.437s.5.253.751.367l.028.015a12.142,12.142,0,0,0,1.183.444Z" transform="translate(-334.68 -399.289)" fill="#2b824a"/>
      <path id="Trazado_159" data-name="Trazado 159" d="M357.092,398.126a4.606,4.606,0,1,1-4.606-4.6,4.606,4.606,0,0,1,4.606,4.6" transform="translate(-332.22 -393.522)" fill="#2b824a"/>
      <path id="Trazado_160" data-name="Trazado 160" d="M357.678,442.562h.542l1.007-1.7a12.744,12.744,0,0,1-3.183-1.455,15.453,15.453,0,0,1-2.994-2.483,6.23,6.23,0,0,1-5.69-.021,15.45,15.45,0,0,1-3.016,2.5,12.719,12.719,0,0,1-3.181,1.455l1.007,1.7h15.509Z" transform="translate(-329.99 -407.928)" fill="#2b824a"/>
      <path id="Trazado_161" data-name="Trazado 161" d="M349.973,457.713l3.149,5.319,3.148-5.319Z" transform="translate(-332.915 -414.839)" fill="#2b824a"/>
      <path id="Trazado_162" data-name="Trazado 162" d="M349.973,457.713l3.149,5.319Z" transform="translate(-332.915 -414.839)" fill="#2b824a"/>
      <path id="Trazado_163" data-name="Trazado 163" d="M344.052,447.709l-.57-.962Z" transform="translate(-330.76 -411.197)" fill="#2b824a"/>
      <path id="Trazado_164" data-name="Trazado 164" d="M360.211,453.155,364,446.747Z" transform="translate(-336.315 -411.197)" fill="#2b824a"/>
      <path id="Trazado_165" data-name="Trazado 165" d="M347.275,453.155h7.38l3.793-6.408H343.482l.57.962Z" transform="translate(-330.76 -411.197)" fill="#2b824a"/>
    </g>
  </g>
</svg>
