<svg xmlns="http://www.w3.org/2000/svg" width="27.083" height="19.923" viewBox="0 0 27.083 19.923">
  <path id="logo_youtube_white" d="M177.6,8.107a2.4,2.4,0,0,0-2.2-2.137,148.087,148.087,0,0,0-21.8,0,2.41,2.41,0,0,0-2.2,2.137,62.612,62.612,0,0,0,0,14.839,2.415,2.415,0,0,0,2.2,2.143,148.088,148.088,0,0,0,21.8,0,2.4,2.4,0,0,0,2.2-2.143,62.612,62.612,0,0,0,0-14.839M168.8,15.445l-6.552,3.75a.362.362,0,0,1-.542-.314v-7.5a.36.36,0,0,1,.542-.314l6.552,3.75a.366.366,0,0,1,0,.629" transform="translate(-150.962 -5.568)" fill="#fff"/>
</svg>
