<svg id="Logo_telemedellin" xmlns="http://www.w3.org/2000/svg" xmlns:xlink="http://www.w3.org/1999/xlink" width="112.621" height="62.778" viewBox="0 0 112.621 62.778">
  <defs>
    <clipPath id="clip-path">
      <rect id="Rectángulo_139" data-name="Rectángulo 139" width="112.621" height="62.778" fill="#ccc"/>
    </clipPath>
  </defs>
  <g id="Grupo_121" data-name="Grupo 121" clip-path="url(#clip-path)">
    <path id="Trazado_2026" data-name="Trazado 2026" d="M1006.952,510.674a1.088,1.088,0,0,1-.884.828,1.477,1.477,0,0,1-1.069-.186,2.636,2.636,0,0,1-.634-.542c-.351-.4-.7-.807-1.048-1.21l-1.8-2.086-1.657-1.921c-.257-.3-.513-.6-.773-.894-.047-.053-.085-.123-.183-.136a.555.555,0,0,0-.028.282q0,2.722,0,5.445a1.82,1.82,0,0,1-.034.416,1.06,1.06,0,0,1-1.159.85,1.079,1.079,0,0,1-.98-1c0-.057,0-.115,0-.172q0-4.471,0-8.943a1.462,1.462,0,0,1,.024-.319,1.113,1.113,0,0,1,1.435-.838,1.928,1.928,0,0,1,1.015.62c.764.869,1.512,1.752,2.269,2.628q1.176,1.36,2.355,2.717c.263.3.523.611.787.915a.516.516,0,0,0,.208.186.5.5,0,0,0,.032-.284c0-1.9,0-3.794,0-5.691a1.107,1.107,0,0,1,.38-.872,1.064,1.064,0,0,1,1.714.485c.011.039.026.077.04.116Z" transform="translate(-894.331 -448.828)" fill="#ccc"/>
    <path id="Trazado_2027" data-name="Trazado 2027" d="M0,513.417a1.088,1.088,0,0,0,.106-.248.965.965,0,0,1,.792-.656,2.2,2.2,0,0,1,.318-.027q3.756,0,7.513,0a1.578,1.578,0,0,1,.342.032.977.977,0,0,1-.186,1.938c-.813.007-1.626,0-2.438,0-.446,0-.434-.032-.434.425q0,3.189,0,6.379a1.3,1.3,0,0,1-.245.833,1.031,1.031,0,0,1-1.829-.54c-.007-.106,0-.213,0-.32q0-3.189,0-6.379c0-.423.01-.4-.409-.4-.8,0-1.593-.015-2.389.005a1.022,1.022,0,0,1-1.055-.748.332.332,0,0,0-.082-.15Z" transform="translate(0 -459.85)" fill="#ccc"/>
    <path id="Trazado_2028" data-name="Trazado 2028" d="M615.515,105.886q0,4.816,0,9.633a4.676,4.676,0,0,1-7.946,3.4,4.515,4.515,0,0,1-1.394-3.016c-.031-.443-.03-.886-.03-1.329q0-9.042,0-18.083a5.194,5.194,0,0,1,.409-2.186,4.74,4.74,0,0,1,1.981-2.193,4.642,4.642,0,0,1,5.392.561,4.624,4.624,0,0,1,1.565,3.012,5.788,5.788,0,0,1,.02.664q0,4.767,0,9.534" transform="translate(-543.893 -82.103)" fill="#ccc"/>
    <path id="Trazado_2029" data-name="Trazado 2029" d="M368.448,106.031c0-3.228.023-6.456-.008-9.683a4.7,4.7,0,0,1,4.1-4.644,4.683,4.683,0,0,1,5.228,4.668q.009,9.659.006,19.318a4.645,4.645,0,0,1-3.091,4.433,4.49,4.49,0,0,1-4.795-1.021,4.558,4.558,0,0,1-1.415-2.724,4.4,4.4,0,0,1-.027-.688q0-3.425,0-6.85,0-1.4,0-2.809" transform="translate(-330.6 -82.254)" fill="#ccc"/>
    <path id="Trazado_2030" data-name="Trazado 2030" d="M487.464,104.181c0-2.619.006-5.238,0-7.857A4.661,4.661,0,0,1,495.6,93.2a4.412,4.412,0,0,1,1.19,3.051c.006,5.288.019,10.575-.007,15.863a4.476,4.476,0,0,1-2.347,3.99,4.357,4.357,0,0,1-2.474.621,4.589,4.589,0,0,1-2.989-1.228,4.665,4.665,0,0,1-1.479-2.77,4.717,4.717,0,0,1-.033-.762q0-3.892,0-7.784Z" transform="translate(-437.397 -82.229)" fill="#ccc"/>
    <path id="Trazado_2031" data-name="Trazado 2031" d="M376.681,0a25.545,25.545,0,1,1-31.118,38.891c.6.561,1.172,1.154,1.8,1.687s1.271,1.04,1.939,1.518a23.783,23.783,0,0,0,2.1,1.336,24.466,24.466,0,0,0,2.22,1.123c.752.332,1.517.629,2.3.888a24.754,24.754,0,0,0,2.4.661c.81.18,1.628.313,2.452.417s1.635.147,2.455.181a22.507,22.507,0,0,0,2.485-.075,24.666,24.666,0,0,0,2.467-.306c.81-.139,1.61-.324,2.4-.544a24.1,24.1,0,0,0,2.36-.787q1.16-.454,2.269-1.02a23.963,23.963,0,0,0,2.136-1.226c.7-.451,1.375-.928,2.024-1.446a22.6,22.6,0,0,0,1.869-1.64c.582-.579,1.161-1.161,1.691-1.79A23.676,23.676,0,0,0,384.44,35.9a24.961,24.961,0,0,0,3.9-19.634A25.232,25.232,0,0,0,376.681,0" transform="translate(-310.071)" fill="#ccc"/>
    <path id="Trazado_2032" data-name="Trazado 2032" d="M342.266,505.131c-.106.019-.155.1-.215.162q-1.078,1.1-2.152,2.2a1.465,1.465,0,0,1-1.187.434,1.3,1.3,0,0,1-.882-.437c-.722-.752-1.453-1.5-2.182-2.241-.06-.061-.109-.142-.215-.166a.752.752,0,0,0-.025.3q0,2.759,0,5.518a1.185,1.185,0,0,1-.457.991,1.155,1.155,0,0,1-1.251.161,1.187,1.187,0,0,1-.719-1.039,1.468,1.468,0,0,1,0-.148q0-4.385,0-8.769a1.234,1.234,0,0,1,2.116-.895c.4.392.776.8,1.165,1.2q1.178,1.208,2.359,2.413c.046.047.1.091.139.14.078.088.148.082.226,0,.172-.187.346-.374.524-.555q1.542-1.576,3.086-3.149a1.281,1.281,0,0,1,.841-.417,1.225,1.225,0,0,1,1.327,1.192c.006.082,0,.164,0,.246q0,4.212,0,8.425a2.415,2.415,0,0,1-.034.466,1.213,1.213,0,0,1-2.361.12,2.058,2.058,0,0,1-.066-.56q0-2.648,0-5.3a.557.557,0,0,0-.034-.293" transform="translate(-298.777 -449.388)" fill="#ccc"/>
    <path id="Trazado_2033" data-name="Trazado 2033" d="M558.148,505.675q0-2.094,0-4.188a2.124,2.124,0,0,1,.047-.514,1.2,1.2,0,0,1,.94-.936,1.955,1.955,0,0,1,.465-.046c1.216,0,2.431-.008,3.647,0a5.779,5.779,0,0,1,2.491.5,4.9,4.9,0,0,1,2.457,2.614,6.472,6.472,0,0,1,.118,4.833,4.926,4.926,0,0,1-2.64,2.944,4.624,4.624,0,0,1-1.907.44c-1.462.011-2.924.008-4.386,0a1.186,1.186,0,0,1-1.2-1.026,2.524,2.524,0,0,1-.031-.441q0-2.094,0-4.188m2.461-.045q0,1.651,0,3.3c0,.246.026.273.267.273.92,0,1.84,0,2.76,0a2.163,2.163,0,0,0,.769-.154,2.618,2.618,0,0,0,1.472-1.382,4.506,4.506,0,0,0,.016-3.952,2.807,2.807,0,0,0-.9-1.095,2.764,2.764,0,0,0-1.7-.5c-.788-.006-1.577,0-2.366,0-.325,0-.328,0-.328.332q0,1.589,0,3.178" transform="translate(-500.823 -448.637)" fill="#ccc"/>
    <path id="Trazado_2034" data-name="Trazado 2034" d="M465.526,505.71q0-2.107,0-4.213a2.453,2.453,0,0,1,.043-.49,1.218,1.218,0,0,1,.954-.951,2.12,2.12,0,0,1,.416-.043h5.446a1.253,1.253,0,0,1,.95.332,1.009,1.009,0,0,1,.261,1.108,1.046,1.046,0,0,1-.938.724,2.236,2.236,0,0,1-.271,0h-4.041c-.357,0-.358,0-.358.352q0,.788,0,1.577c0,.324.012.336.329.336q1.651,0,3.3,0a2.353,2.353,0,0,1,.466.038,1.074,1.074,0,0,1-.133,2.129c-.082.006-.164,0-.246,0h-3.277c-.066,0-.132,0-.2,0-.215.007-.241.028-.242.245,0,.493,0,.986,0,1.478,0,.222,0,.444,0,.665.005.176.031.2.2.208.074,0,.148,0,.222,0,1.372,0,2.744,0,4.115,0a1.119,1.119,0,0,1,.693.21,1.079,1.079,0,0,1,.386,1.186,1.04,1.04,0,0,1-.973.741c-.484.01-.969,0-1.454,0q-2.193,0-4.386,0a1.211,1.211,0,0,1-.992-.457,1.4,1.4,0,0,1-.276-.925q0-1.552,0-3.1V505.71" transform="translate(-417.714 -448.659)" fill="#ccc"/>
    <path id="Trazado_2035" data-name="Trazado 2035" d="M676.171,505.7q0-2.155,0-4.31a1.324,1.324,0,0,1,.414-1.042,1.392,1.392,0,0,1,.978-.335c.591,0,1.182,0,1.774,0h3.621a2.364,2.364,0,0,1,.465.038,1.074,1.074,0,0,1-.13,2.128c-.09.006-.181,0-.271,0h-3.941c-.066,0-.132,0-.2,0-.227.007-.251.027-.252.261q0,.862,0,1.724c0,.253.028.279.288.279q1.7,0,3.4,0a1.368,1.368,0,0,1,.8.2,1.062,1.062,0,0,1,.443,1.161,1.089,1.089,0,0,1-.955.8c-.09.007-.18,0-.271,0h-3.4c-.29,0-.3.015-.3.308q0,1,0,2c0,.041,0,.082,0,.123a.152.152,0,0,0,.166.169l.222,0c1.4,0,2.792,0,4.188,0a1.069,1.069,0,0,1,.126,2.132c-.09.007-.18,0-.271,0-1.856,0-3.712-.018-5.567.009a1.278,1.278,0,0,1-1.328-1.328c.005-1.445,0-2.89,0-4.335" transform="translate(-606.725 -448.659)" fill="#ccc"/>
    <path id="Trazado_2036" data-name="Trazado 2036" d="M95.773,522.641H93.186c-.066,0-.132,0-.2,0-.17.014-.207.057-.151.223a2.575,2.575,0,0,0,1.9,1.85,3.679,3.679,0,0,0,1.445-.025,2.852,2.852,0,0,0,1.34-.525,1.014,1.014,0,0,1,1.3.258.807.807,0,0,1-.009.9,2.509,2.509,0,0,1-.907.815,3.908,3.908,0,0,1-1.531.433c-.35.037-.7.059-1.056.062a4.2,4.2,0,0,1-2.616-.872,4.819,4.819,0,0,1-.839-7.014,4.26,4.26,0,0,1,2.92-1.566,4.023,4.023,0,0,1,3.174.995,4.686,4.686,0,0,1,1.568,2.96,2.607,2.607,0,0,1,.009.664.849.849,0,0,1-.617.754,1.771,1.771,0,0,1-.582.086c-.854,0-1.708,0-2.563,0Zm-.675-1.689h0c.665,0,1.33,0,1.994,0,.245,0,.307-.081.236-.3a2.15,2.15,0,0,0-2.638-1.556,2.47,2.47,0,0,0-1.713,1.469c-.153.319-.105.389.25.39.624,0,1.247,0,1.871,0" transform="translate(-81.396 -464.045)" fill="#ccc"/>
    <path id="Trazado_2037" data-name="Trazado 2037" d="M235.25,522.607h-2.587c-.049,0-.1,0-.148,0-.2.01-.24.055-.176.243a2.586,2.586,0,0,0,1.891,1.832,3.322,3.322,0,0,0,1.153.016,3.894,3.894,0,0,0,1.727-.6.948.948,0,0,1,1.329.559.773.773,0,0,1-.142.653,2.622,2.622,0,0,1-1.2.945,4.931,4.931,0,0,1-1.391.3c-.3.025-.605.044-.909.045a4.286,4.286,0,0,1-2.988-1.2,4.8,4.8,0,0,1-.921-6.023,4.417,4.417,0,0,1,2.786-2.119,4.113,4.113,0,0,1,2.792.244,4.231,4.231,0,0,1,1.929,1.771,5.06,5.06,0,0,1,.646,1.925,2.406,2.406,0,0,1,.008.516.9.9,0,0,1-.72.834,2.215,2.215,0,0,1-.537.06c-.846,0-1.692,0-2.538,0Zm-.648-1.689h1.845c.066,0,.132,0,.2,0,.193-.018.247-.089.188-.279a2.162,2.162,0,0,0-2.6-1.589,2.5,2.5,0,0,0-1.79,1.546c-.116.252-.068.317.216.325.057,0,.115,0,.172,0H234.6" transform="translate(-206.566 -464.011)" fill="#ccc"/>
    <path id="Trazado_2038" data-name="Trazado 2038" d="M771.19,505.407v3.472c0,.057,0,.115,0,.172,0,.323.008.331.331.331h3.965a1.01,1.01,0,0,1,1.019.676,1.046,1.046,0,0,1-.917,1.46c-.057,0-.115,0-.172,0-1.79,0-3.58-.02-5.369.009a1.3,1.3,0,0,1-1.323-1.333c.013-2.889,0-5.779.006-8.668a1.236,1.236,0,0,1,1.072-1.32,1.2,1.2,0,0,1,1.357,1.111c.06.894.02,1.789.03,2.683.006.468,0,.936,0,1.4" transform="translate(-689.773 -448.825)" fill="#ccc"/>
    <path id="Trazado_2039" data-name="Trazado 2039" d="M860.81,505.842q0-2.192,0-4.383a1.237,1.237,0,0,1,.379-.929,1.182,1.182,0,0,1,1.273-.269,1.151,1.151,0,0,1,.775,1.1c.013.895,0,1.789,0,2.684q0,2.438,0,4.876c0,.057,0,.115,0,.172,0,.261.014.273.285.273q2.007,0,4.014,0a1.062,1.062,0,0,1,.837.346,1.013,1.013,0,0,1,.2,1.143.979.979,0,0,1-.935.647c-1.207.009-2.413,0-3.62,0-.632,0-1.266-.026-1.9.006a1.282,1.282,0,0,1-1.321-1.332c.026-1.444.008-2.889.008-4.334" transform="translate(-772.394 -448.806)" fill="#ccc"/>
    <path id="Trazado_2040" data-name="Trazado 2040" d="M952.584,505.822q0-2.105,0-4.211a2.3,2.3,0,0,1,.038-.465,1.214,1.214,0,0,1,2.379-.006,2.168,2.168,0,0,1,.045.44q0,4.26,0,8.52a2.149,2.149,0,0,1-.036.392,1.214,1.214,0,0,1-2.263.376,1.486,1.486,0,0,1-.163-.737q0-2.155,0-4.309" transform="translate(-854.749 -448.801)" fill="#ccc"/>
    <path id="Trazado_2041" data-name="Trazado 2041" d="M195.273,491.357q0-2.548,0-5.1a1.276,1.276,0,0,1,.088-.53,1.034,1.034,0,0,1,.983-.614,1.02,1.02,0,0,1,.917.77,1.473,1.473,0,0,1,.039.366q0,5.134,0,10.267a1.063,1.063,0,0,1-.472.947,1,1,0,0,1-1.552-.768c-.008-.09,0-.18,0-.271q0-2.536,0-5.072" transform="translate(-175.217 -435.291)" fill="#ccc"/>
    <path id="Trazado_2042" data-name="Trazado 2042" d="M961.134,467.568a.993.993,0,0,1-.861-.612.814.814,0,0,1,.194-.969c.455-.448.914-.894,1.384-1.327a.8.8,0,0,1,1.06-.11.911.911,0,0,1,.448,1.094.755.755,0,0,1-.209.328q-.718.69-1.436,1.38a.827.827,0,0,1-.582.217" transform="translate(-861.572 -416.704)" fill="#ccc"/>
  </g>
</svg>
