<svg xmlns="http://www.w3.org/2000/svg" width="25.267" height="31.034" viewBox="0 0 25.267 31.034">
  <path id="logo_applestore_white" d="M380.4,10.579a7.029,7.029,0,0,0-3.358,5.913,6.842,6.842,0,0,0,4.165,6.276,16.275,16.275,0,0,1-2.132,4.4c-1.328,1.912-2.716,3.821-4.826,3.821s-2.654-1.226-5.09-1.226c-2.374,0-3.219,1.266-5.149,1.266s-3.277-1.769-4.826-3.942a19.01,19.01,0,0,1-3.243-10.276c0-6.034,3.923-9.233,7.784-9.233,2.052,0,3.762,1.347,5.05,1.347,1.226,0,3.138-1.428,5.472-1.428a7.318,7.318,0,0,1,6.155,3.079m-7.263-5.633A6.93,6.93,0,0,0,374.785.623,2.985,2.985,0,0,0,374.727,0a6.942,6.942,0,0,0-4.565,2.353,6.747,6.747,0,0,0-1.71,4.205,2.851,2.851,0,0,0,.059.562,2.428,2.428,0,0,0,.422.04,6.015,6.015,0,0,0,4.205-2.213" transform="translate(-355.94 0.001)" fill="#fff"/>
</svg>
