<svg id="Logo_Area" xmlns="http://www.w3.org/2000/svg" xmlns:xlink="http://www.w3.org/1999/xlink" width="66.387" height="66.222" viewBox="0 0 66.387 66.222">
  <defs>
    <clipPath id="clip-path">
      <rect id="Rectángulo_137" data-name="Rectángulo 137" width="66.387" height="66.222" fill="none"/>
    </clipPath>
  </defs>
  <rect id="Rectángulo_135" data-name="Rectángulo 135" width="66.387" height="66.222" fill="#ccc"/>
  <path id="Trazado_1987" data-name="Trazado 1987" d="M19.2,90.817h-.592l-1.648-5h.789l1.155,3.639,1.155-3.639h.8Z" transform="translate(-5.665 -28.661)" fill="#fff"/>
  <g id="Grupo_117" data-name="Grupo 117">
    <g id="Grupo_116" data-name="Grupo 116" clip-path="url(#clip-path)">
      <path id="Trazado_1988" data-name="Trazado 1988" d="M25.42,89.944h-.838c-.423,0-.641.19-.641.513s.2.506.655.506a.855.855,0,0,0,.669-.2.714.714,0,0,0,.155-.527Zm.014,1.574v-.323a1.178,1.178,0,0,1-.951.365,1.259,1.259,0,0,1-.957-.323,1.089,1.089,0,0,1-.282-.766c0-.6.416-1.026,1.233-1.026h.944v-.252c0-.45-.225-.668-.782-.668a.838.838,0,0,0-.782.344l-.472-.442a1.465,1.465,0,0,1,1.282-.513c.978,0,1.471.414,1.471,1.222v2.382Z" transform="translate(-7.763 -29.362)" fill="#fff"/>
      <path id="Trazado_1989" data-name="Trazado 1989" d="M30.513,90.817a.909.909,0,0,1-.979-.984V85.815h.719v3.976c0,.274.1.414.387.414h.317v.611Z" transform="translate(-9.864 -28.661)" fill="#fff"/>
      <path id="Trazado_1990" data-name="Trazado 1990" d="M34.13,90.817a.909.909,0,0,1-.979-.984V85.815h.719v3.976c0,.274.1.414.387.414h.317v.611Z" transform="translate(-11.072 -28.661)" fill="#fff"/>
      <path id="Trazado_1991" data-name="Trazado 1991" d="M38.48,88.961a.735.735,0,0,0-.7-.45.746.746,0,0,0-.711.45,1.127,1.127,0,0,0-.092.485h1.606a1.125,1.125,0,0,0-.1-.485m-1.507.984a.877.877,0,0,0,.908,1,1.067,1.067,0,0,0,.866-.365l.458.429a1.68,1.68,0,0,1-1.339.555c-.894,0-1.606-.471-1.606-1.827,0-1.152.6-1.82,1.515-1.82a1.515,1.515,0,0,1,1.514,1.714v.316Z" transform="translate(-12.111 -29.362)" fill="#fff"/>
      <path id="Trazado_1992" data-name="Trazado 1992" d="M46.64,87.852c-.648,0-.747.547-.747,1.18s.1,1.187.747,1.187.739-.555.739-1.187-.092-1.18-.739-1.18m.753,2.964v-.38a1.1,1.1,0,0,1-.944.422,1.238,1.238,0,0,1-.874-.316,3.032,3.032,0,0,1,0-3.014,1.223,1.223,0,0,1,.867-.316,1.107,1.107,0,0,1,.936.4v-1.8H48.1v5Z" transform="translate(-15.088 -28.661)" fill="#fff"/>
      <path id="Trazado_1993" data-name="Trazado 1993" d="M53.537,88.961a.734.734,0,0,0-.7-.45.746.746,0,0,0-.711.45,1.127,1.127,0,0,0-.092.485h1.606a1.125,1.125,0,0,0-.1-.485m-1.507.984a.877.877,0,0,0,.908,1,1.069,1.069,0,0,0,.867-.365l.458.429a1.68,1.68,0,0,1-1.339.555c-.894,0-1.606-.471-1.606-1.827,0-1.152.6-1.82,1.515-1.82a1.515,1.515,0,0,1,1.514,1.714v.316Z" transform="translate(-17.139 -29.362)" fill="#fff"/>
      <path id="Trazado_1994" data-name="Trazado 1994" d="M61.866,86.946l-.781,2.22h1.542Zm1.317,3.871-.345-1H60.859l-.345,1H59.7l1.838-5h.613l1.838,5Z" transform="translate(-19.94 -28.66)" fill="#fff"/>
      <path id="Trazado_1995" data-name="Trazado 1995" d="M68.889,87.852c-.648,0-.747.548-.747,1.181s.1,1.187.747,1.187.74-.555.74-1.187-.093-1.181-.74-1.181m1.056,2.691a1.237,1.237,0,0,1-.874.316,1.1,1.1,0,0,1-.943-.422v.38h-.7v-5h.719v1.8a1.1,1.1,0,0,1,.936-.4,1.222,1.222,0,0,1,.866.316,3.032,3.032,0,0,1,0,3.014" transform="translate(-22.518 -28.661)" fill="#fff"/>
      <path id="Trazado_1996" data-name="Trazado 1996" d="M75.726,91.539v-.358a1.28,1.28,0,0,1-.951.4,1.24,1.24,0,0,1-.88-.323,1.308,1.308,0,0,1-.36-1.005V87.977h.719v2.171a.692.692,0,0,0,.719.793.71.71,0,0,0,.739-.793V87.977h.719v3.562Z" transform="translate(-24.559 -29.383)" fill="#fff"/>
      <path id="Trazado_1997" data-name="Trazado 1997" d="M81.877,88.792a.662.662,0,0,0-.535-.239.733.733,0,0,0-.711.8v2.164h-.719V87.956h.7v.386a1.185,1.185,0,0,1,.95-.428,1.108,1.108,0,0,1,.853.337Z" transform="translate(-26.689 -29.362)" fill="#fff"/>
      <path id="Trazado_1998" data-name="Trazado 1998" d="M86.837,88.792a.662.662,0,0,0-.535-.239.734.734,0,0,0-.711.8v2.164h-.719V87.956h.7v.386a1.185,1.185,0,0,1,.95-.428,1.108,1.108,0,0,1,.853.337Z" transform="translate(-28.346 -29.362)" fill="#fff"/>
      <path id="Trazado_1999" data-name="Trazado 1999" d="M91.007,86.436h-.542l.528-1.138h.8ZM91.5,89.07h-.838c-.423,0-.641.19-.641.513s.2.506.655.506a.855.855,0,0,0,.669-.2.715.715,0,0,0,.155-.527Zm.014,1.574v-.323a1.178,1.178,0,0,1-.951.365,1.263,1.263,0,0,1-.958-.323,1.091,1.091,0,0,1-.282-.766c0-.6.416-1.026,1.233-1.026H91.5v-.253c0-.45-.225-.667-.782-.667a.838.838,0,0,0-.782.344l-.472-.442a1.465,1.465,0,0,1,1.281-.513c.98,0,1.472.414,1.472,1.222v2.382Z" transform="translate(-29.833 -28.488)" fill="#fff"/>
      <path id="Trazado_2000" data-name="Trazado 2000" d="M20.424,80.811V77.95l-.94,1.861h-.65l-.946-1.861v2.861h-.961V75.9h.947l1.285,2.653L20.437,75.9h.947v4.908Z" transform="translate(-5.653 -25.35)" fill="#fff"/>
      <path id="Trazado_2001" data-name="Trazado 2001" d="M24.979,80.811V75.9H28.22v.854H25.94v1.152h1.942v.854H25.94v1.193h2.28v.854Z" transform="translate(-8.343 -25.35)" fill="#fff"/>
      <path id="Trazado_2002" data-name="Trazado 2002" d="M32.57,76.758v4.053h-.96V76.758H30.324V75.9h3.531v.854Z" transform="translate(-10.128 -25.35)" fill="#fff"/>
      <path id="Trazado_2003" data-name="Trazado 2003" d="M38.279,76.757h-.905v1.3h.905a.65.65,0,1,0,0-1.3m.747,4.053-.961-1.958h-.691v1.958h-.961V75.9h1.929a1.485,1.485,0,0,1,1.6,1.5,1.321,1.321,0,0,1-.9,1.289l1.1,2.117Z" transform="translate(-12.161 -25.35)" fill="#fff"/>
      <path id="Trazado_2004" data-name="Trazado 2004" d="M45.021,76.958a.8.8,0,0,0-.615-.262.815.815,0,0,0-.622.262c-.186.206-.235.434-.235,1.379s.049,1.172.235,1.378a.815.815,0,0,0,.622.262.8.8,0,0,0,.615-.262c.186-.206.242-.434.242-1.378s-.055-1.172-.242-1.379m.711,3.336a1.915,1.915,0,0,1-2.661,0c-.5-.5-.484-1.11-.484-1.957s-.014-1.461.484-1.958a1.915,1.915,0,0,1,2.661,0c.5.5.491,1.11.491,1.958s.007,1.461-.491,1.957" transform="translate(-14.224 -25.329)" fill="#fff"/>
      <path id="Trazado_2005" data-name="Trazado 2005" d="M51.016,76.757h-.9V78.1h.9a.673.673,0,1,0,0-1.344m.048,2.206h-.947v1.848h-.96V75.9h1.907a1.533,1.533,0,1,1,0,3.06" transform="translate(-16.417 -25.35)" fill="#fff"/>
      <path id="Trazado_2006" data-name="Trazado 2006" d="M57.494,76.958a.8.8,0,0,0-.615-.262.816.816,0,0,0-.623.262c-.186.206-.235.434-.235,1.379s.049,1.172.235,1.378a.817.817,0,0,0,.623.262.8.8,0,0,0,.615-.262c.186-.206.241-.434.241-1.378s-.055-1.172-.241-1.379m.711,3.336a1.783,1.783,0,0,1-1.327.537,1.8,1.8,0,0,1-1.335-.537c-.5-.5-.483-1.11-.483-1.957s-.014-1.461.483-1.958a1.8,1.8,0,0,1,1.335-.537,1.783,1.783,0,0,1,1.327.537c.5.5.491,1.11.491,1.958s.006,1.461-.491,1.957" transform="translate(-18.389 -25.329)" fill="#fff"/>
      <path id="Trazado_2007" data-name="Trazado 2007" d="M61.588,80.811V75.9h.961v4.053H64.78v.854Z" transform="translate(-20.569 -25.35)" fill="#fff"/>
      <rect id="Rectángulo_136" data-name="Rectángulo 136" width="0.961" height="4.908" transform="translate(44.737 50.553)" fill="#fff"/>
      <path id="Trazado_2008" data-name="Trazado 2008" d="M71.658,76.758v4.053H70.7V76.758H69.413V75.9h3.531v.854Z" transform="translate(-23.183 -25.35)" fill="#fff"/>
      <path id="Trazado_2009" data-name="Trazado 2009" d="M76.272,77.35l-.621,1.786h1.223Zm1.148,3.461-.29-.868H75.381l-.3.868h-1l1.79-4.908h.753l1.8,4.908Z" transform="translate(-24.742 -25.35)" fill="#fff"/>
      <path id="Trazado_2010" data-name="Trazado 2010" d="M84.048,80.811,82.1,77.8v3.012h-.961V75.9H82l1.949,3.006V75.9h.96v4.908Z" transform="translate(-27.099 -25.35)" fill="#fff"/>
      <path id="Trazado_2011" data-name="Trazado 2011" d="M89.512,77.35l-.621,1.786h1.223Zm1.148,3.461-.291-.868H88.622l-.3.868h-1L89.112,75.9h.754l1.8,4.908Z" transform="translate(-29.164 -25.35)" fill="#fff"/>
      <path id="Trazado_2012" data-name="Trazado 2012" d="M90.493,69.759l-.07.046h.136l-.058-.057Z" transform="translate(-30.2 -23.295)" fill="#fff"/>
      <path id="Trazado_2013" data-name="Trazado 2013" d="M20.737,42.124h.147l.067.215h-.214Zm.281,1.108h.206l-.068.143-.039.022-.1.037Zm.206-.194h.224v.057h-.224Zm.823-.351h.218v.207h-.218Zm-3.108-.615-.07-.04L18.8,42v-.147h.138Zm8.149,3.585.033-.55.291-.828.059-.494.2-.409-.129-.075.067-.068h.061v-.338l.077-.351.274-.35v-.541l.29-.629.059-.835.215-.206V39.3l.271-.137-.069-.348.147-.342.2-.573-.057-.686.127-.127.137-.077.145-.972.206-.89h.076l.2-.552.06-.555.2-.484-.059-.628.282-.632.206-.546.142-.492.2-.336v-.893l.292-.631v-.487l.059-.26.206-.427.288-.418v-.763l.274-.476v-.7l.215-.417.055-.417.351-.486.282-.466v-.971l.2-.288v-.407l.137-.2h.147l-.078-.214.078-.417.269-.145v-.406l.079-.27.206-.147.278-1.522.2-1.387-.145-.059v-.223l-.338-.26V16.6h-.554l-.488-.205-.486.272-.147.5-.055.35-.35.541-.431.423-.148.633-.278.406-.351.408-.2.488-.21.493-.342.192.206.34-.2.145-.149.417-.336.33-.06.224-.145.065.09.146L28.909,23l-.282.4-.34.426-.206.484-.144-.077-.068.282-.2.2-.149.353-.205.412-.212.272-.035.4-.145.486-.644.154-.137.488-.341.338-.29.629-.341.553-.2.28-.28.205-.633,1.185-.9.968v.2l-.212.061v.223l-.27.34v.213l-.071.059h-.136l-.087.142-.264.476-.184.291-.164.266-.137.143-.207.143-.009.041-.067.3-.243.184-.03.02-.184.349-.037.076-.235.185-.028.019.088.523-.369.27H20.25l-.087.126.145.075-.145.148-.41.4-.338.493-.354.407-.328.249-.07.059-.067.349-.147.2-.27.417-.409.419.137.057-.751.478-.2.134v.34l-.134.212-.555.426-.426.543-.07.2-.134.281-.081-.075L15.5,42.2l-.292.123-.127.272-.282.37.323.211-.613.128-.418.223h-.622l-.561.338-.488.128-.962.289-1.041.07L8.4,44.91l-.905.074L6.315,46.159l-.065.679.475.271.223.7.34.62H7.7l.348-.059L7.9,48.223l.145-.143h.282l.206.348.338.057.068-.116h.137l1.464-.578.563-.059v-.137h.126l.057.066,5.652-2.208.132-.071.409-.277.49-.139.137.031.272-.106.21-.543.214.067.068.065.07.072.2-.274.42-.069.209-.22.207-.2.145.147v.277h.137l.064.069.149-.289.2-.057.168-.116.039-.031.067.077v.071h.206l.145-.2.027-.109.041-.1.27-.194.353-.235h.835l-.075-.133-.207-.067v-.147l.059-.135.224-.069.214-.2.057-.825h-.135l-.067-.087h.067v-.061l-.271.061-.088.348h-.117l-.147-.057-.075-.205V41.3l-.109.294-.019.057.019.125L22.2,42l-.039-.019-.109-.061-.123-.067h-.349l-.246-.164-.173-.119-.039.023-.272.164-.168.1h-.639l.087.067-.428.2-.41-.053v-.3l.067-.348.208-.127.079-.349.338-.27.411-.348.084-.2.2-.149.06-.134-.06-.134.168-.177.039-.026.194-.214.039-.1.184-.464.027-.028.312-.31h.007l.346-.621.163-.184.331-.378.117-.127.224-.077h-.075l.075-.348.214-.2.192-.2.146-.292.283-.408.27-.279-.067-.08.067-.269.272-.078v-.262l.294-.341.262-.29v-.145l.2-.406.349-.276v-.142l.079-.127h.138l.271-.709.348-.553.215-.2.263-.2.214-.42.28-.348.2-.406.214-.429.206-.26.274-.292.144-.268.146-.419.205-.28.34-.127v-.415l.222-.205.127.473-.07.621-.2.563-.281.486v.553l-.206.485-.135.834h-.146l-.068.611-.28.482-.147.892-.129.922-.214.4-.134.494.079.2-.079.07-.129-.07v.766l-.292.488-.055.611-.088.145-.126.078v.689l-.08.27-.192.133v.633l-.2.4v.689l-.292.57-.079.476-.125.476-.138.488v.63l-.282.406-.2.484v.077h.143v-.077l.059.077v.071l-.271.483v.691l-.282.628-.057.678-.224.689-.121.23-.059.7-.1.318-.151.355-.015.464-.122.719.039.425.228.351.46-.015.141.1.133-.1h.282l.206-.134-.059-.069.127-.137h.214l.349-.348.135-.1Z" transform="translate(-2.087 -5.474)" fill="#fff"/>
      <path id="Trazado_2014" data-name="Trazado 2014" d="M35.791,56.312l-2,4.385.212-.1.46-.067.883-.282.625-.291.352-.077.45-.137.179-.13.5-.17.317-.346.423-.2.223-.366.347-.149L39,58.008l.276-.348.15-.059.084-.112.34-.208.143-.4.255-.224.324-.143.1-.477.354-.364.027-.132.292-.356.368-.49.238-.448.387-.486.3-.426.315-.518.344-.275.414-.274.2.04.119.107-.122.6-.4.562-.109.532.041.511-.082.065-.087.055.115.147-.1.131-.062.017-.023.113-.077.115-.079.271-.049,0,0,.067.013.111-.1,0-.01.113,0,.1-.1.057.009.1-.011.116.065.216,0,.644.075.658.359.28.526.244.356.342.678.138.025-.124.237-.093.332.068.027-.132.228-.1.738-.555.831-.474.28-.093.135-.241.5-.39.506-.392.4.139.232.273.676.137.582-.139.077-.011.431.017.375-.144.613-.23.624-.291.514-.1.521-.114.574-.368.61-.23.4-.277.384-.139-.059-.011.011-.054.325-.234.238-.1.186-.228.241-.153.227-.044.117.113.236.25.218.25.731.3.716.284.028-.134.162-.117.334.068.03-.145.051-.005.1-.019.141.029.241-.153.272-.3.18-.032.092-.186.188-.171.2-.163.178-.13.166-.228.113-.169.129-.131.1-.22.344.07.254.112-.067.045-.017.085.055.011.088-.07.111.169,1.471.3L65.1,53l.341-.085.583-.117.3-.2.4-.07.42-.178.657-.073.745.161.549-.478.555-.051.789-.279.344-.269.415-.078.384-.045.242-.159.364.007.042-.206.5-.145-.095.028c-.432-.1-.2-.735.022-1.451l-.525-.011-.567.338-.379.111-.294.109-.515.061-.428.243-.637.222-.73.159-.395.189-.465.123h-.348l-.424.162-.87.183-.422.128-1.341.466-.015.073-.1-.021-.117-.024.015-.073.117.024.023,0-.021-.017-.833-.3.08-.044-.291-.614.087-.841.153-.753.385-.474-.127-.1-.054-.011.069-.063.141.029.22-1.076-.18-.117-.041-.214-.155-.25.067-.332-.286-.346-.677-.137-.027.133-.566.3-.876-.178.037.155-.183.081-.36.164-.356.356-.374.43-.291.412-.227.093-.322.161L59,48.66l-.248.522-.26.216-.258.241-.252.232-.205.312-.284.367-.344.277-.311.5-.5.335-.218.441-.386.436-.111.1-.081.074-.069.115-.507.4-.529.5-.372.076-.361.076-.027.134-.149.037-.285-.057-.19.25-.383.127-.783.048-.791.048-.039-.135.043-.208.077-.055.076-.082.291-.278.325-.208.222-.155.267-.176.105-.123.149-.093.233-.457.268-.3h.083l.054-.015.022-.081.308-.44.07-.34.328-.492.067-.769L53.9,49.75l.085-.416-.236-.254,0-.35-.069.051-.094-.23-.312-.211-.191-.172-.6-.141-.216.017-.289.033-.413.275-.392.206-.115.183-.3.088-.272.46-.278.351-.2.332-.275.572-.266.783-.434.825-.208,1.3-.675,1.258-.788.423-.583.711-.587.107-.679.22-.363-.658.277-.914.087-.133.214-.025.12-.9.317-.57.027-.418.38-.567v-.621l.182-.894-.184-.167-.156-.259-.21-.388-.366-.284-.7.008-.8.038-.028.141-.069.045-.572.033-.443.413-.322-.133-.172-.262-.725-.208-.4.207-.21.3-.495,1.014-.176,1.254-.35.343-.109.535-.3.44-.236.462-.183-.11-.068.333-.312.065-.029.144-.074.061-.211.019-.058.285-.515.39-.455.474-.227.438-.32.211-.256.175-.125.319-.127-.1-.238.448-.228.1-.3.08-.165.173-.244.089-.1-.159.041-.2Zm25.566-5.435-.254.205-.077.061-.059.113-.2.236-.07.343-.473.178-.24.449-.021.015-.274.123-.227.1-.085-.131-.11-.005-.216-.136-.011-.323.16-.678.379-.654.4-.422.252-.419.476-.577.727-.615.3.621.015.805Zm-9.911.87-.031.149-.442.15-.01-.43.157-.478.25-.655.447-.458.424-.171.221.308-.1.486-.215.363-.355.431-.178.083Z" transform="translate(-11.287 -15.401)" fill="#fff"/>
      <path id="Trazado_2015" data-name="Trazado 2015" d="M47.99,11.121l-.3.216.085.019.117-.031.065.044.248.1-.043.081.025.113.389.264.048-.036.062.009-.023.017.032.019.067-.092-.141-.126.043-.027.081-.025.13.045.1.065-.1-.117-.025-.017-.072-.039-.113-.055.018-.005.065-.011.079-.01.127-.089.168-.019.124-.011v-.013l.019-.121.01-.073.228-.164-.061,0,.051-.174.172-.091.163-.341.428-.387.137-.337.228-.342.158-.194L50.818,9l.228-.161.034-.249.111-.163.2-.336.343-.291.181-.316.292-.259-.158-.655-.3-.221-.305.045-.431-.155-.427-.1-.147.108-.1.107.129.009.015.08-.1.075-.248-.056-.153.074.037.051-.052.035.019.177-.172.167L49.882,7l-.049.035-.205-.015-.085-.131c-.077.221-.153.446-.23.663a2.467,2.467,0,0,1-.594.906l-.029.135.062.1.034.161-.142.085-.078.188,0,.188-.169.043-.042.07.128.274-.11.039-.063-.005h-.057l.067.135-.119.127.033.123.023.113-.124,0-.1-.028-.046.035-.06,0,.086.125-.019.137.262.169v.017l-.06-.007-.039-.015h-.278l.047.1.048.045.236.081-.007.134Zm1.031-.05h0l.1.065-.057.037-.124-.045Zm-.663-.217h0l.02-.036.1.059-.075.053-.049-.061Zm-.082.391h0l.1.059-.081.058-.306-.113Z" transform="translate(-15.929 -2.049)" fill="#fff"/>
      <path id="Trazado_2016" data-name="Trazado 2016" d="M14.126,56.939l-.049.14-.056.023-.155.065.025-.259.036-.03.116-.136ZM.231,70.9,0,71.957V73.6l.468-.015,1.381-1.02,1.132-.452.3-1.124.69-.563.8-1.077.214-.664.481-.474.47-.4.178-.428.488-.316-.13-.312.883-.473.222-.6.476-.549.3.125.341-.041-.252-.6.061-.74.19.167.077.183.382.354.549-.127-.127-.305L9.8,63.8l.5-.205-.164-.392.049-.491.34-.027.21.149.242-.751.122-.152.817-1.08L12,60.574l.124-.4.782-.222.062-.026-.161-.386-.011-.347.19-.079.284.082.055.131.105-.043.1-.043.062-.274.06-.281.266-.561h.244l.207.264.168-.032.615-.139L15.067,58v-.25l.306-.479.13-.092.071-.043L15.31,56.5l-.1-.027-.182-.033.144-.06.044-.018.055.044-.305-.735-.042-.013-.063-.027-.208-.094.144-.06.075-.031-.284-.683-.061.065-.185.246-.383.26-.036-.088-.089-.213-.392.262-.105.16-.029.046-.242.557-.467.329-.129-.134-.119-.137-.264-.361-.06.143-.117.285-.134.544.19-.079.213-.088.124.3-.059.129-.344.039-.277-.173-.055-.038-.086.62-.33.388-.232.145-.244.171-.7,1.1-.014.043-.035.766-.47.076-.321-.2-.067.363-.375.273-.2.085-.077.416.3-.125.153.04.189.17-.127.308-.358-.01-.225-.252-.336.642-.172-.087L7.8,61.653l.069-.162-.4.167-.264.5-.559.683-.49.557-.232.33-.065.414-.942.6-.448.955-.4.486-.294.407-.629.541-.35.705-.645.862-.825.864-.354.6-.506.579-.46.31Zm12.962-13.93-.044.139-.275.113-.151.063-.167-.117-.171-.114.129.014h.118l.087-.217.038-.083.3-.125Zm.162,1.832-.1.042-.1.044-.083-.2.148.058.016.008.091-.037Zm-1.4-1.321-.061.025-.033.014-.136-.328.057.043.085.031ZM10.5,60.337l-.03.1,0,.069-.309-.374.188.008.071,0,.186.155Z" transform="translate(0 -18.289)" fill="#fff"/>
      <path id="Trazado_2017" data-name="Trazado 2017" d="M93.9,49.606l-.055.047-.028-.005-.078-.016.076-.106.022,0,.081-.027Zm-9.209,2.206L84.479,53.1l.076-.038.494-.073.563.122.406-.408.417-.052.59-.247.254-.23.312-.072.288-.044.18-.137h.274l.029-.173.47.042.24-.2.329-.106.088.141.145.079.055-.336.213-.307.033.127-.017.1.061.262.25.1.028-.169.178-.089.248.05.036-.218.145-.2.141.085.045.124.288-.26.087-.033.6-.242.107-.094.153-.143.366.123.031.006.035-.214.085-.156.1.019.091.116-.011.073.053.011.051.01.1-.1.1-.106.249-.171.1.069.015.174.075.033.278.112.02-.119.064-.109.244-.124.075,0h.039l.059-.353-.033-.04.009-.051.022,0,.011.034,0-.261v-.21l-.025-.083-.113-.287.109,0-.218.006.008-.049.019-.119-.222,0-.083.041-.023.011-.238.176-.269.012-.016-.095-.013-.093-.012-.232-.059.045-.119.092-.192.2.1.019.107.021-.027.165-.056.039L93,49.015l-.065-.155-.012-.031-.192.247-.23.077-.129,0-.14.007-.558.282-.016.015-.21.325-.205-.1-.075-.179-.12.14-.218.014-.1-.021-.137.161.152.031.049.061.032.128-.129.1-.139-.105-.025-.174-.3.186-.046-.087.007-.047.069-.051-.2-.041-.232.144-.4.142-.336.106-.176.079-.132.163h-.527l-.422.292-.284.1-.22.1-.387.06-.318.21-.476.2-.547.146-.294.164-.348.111-.262.006Zm8.831-2.454-.053.049-.138-.028-.075-.015-.037-.1-.038-.1.047.042.047.033.089-.071.036-.025.151.031Zm-.4.849-.051-.011-.053-.011.018-.111.043.067,0,.007.045.009Zm-.214-.973-.031-.007-.017,0,.03-.182.011.035.026.037Zm-1.305.839-.037.034-.019.029-.026-.251.072.057.027.021.034.121Z" transform="translate(-28.214 -16.202)" fill="#fff"/>
    </g>
  </g>
</svg>
