<svg xmlns="http://www.w3.org/2000/svg" width="32.767" height="21.759" viewBox="0 0 32.767 21.759">
  <path id="logo_meta_white" d="M97.069,15.152a17.145,17.145,0,0,1-.544,4.263,5.9,5.9,0,0,1-1.535,2.794,4,4,0,0,1-4.122,1.023,8.716,8.716,0,0,1-3.09-1.7,16.98,16.98,0,0,1-3.428-3.75A46.572,46.572,0,0,1,81.9,13.642q-.557-1.031-1.12-2.059c-.091-.167-.1-.167-.194.006-.466.855-.925,1.713-1.393,2.567a35.309,35.309,0,0,1-2.71,4.381,15.564,15.564,0,0,1-3.8,3.657,6.862,6.862,0,0,1-2.841,1.179,3.878,3.878,0,0,1-3.119-.857,5.408,5.408,0,0,1-1.668-2.438,13.6,13.6,0,0,1-.647-3.116A18.4,18.4,0,0,1,66.183,6.946a10.7,10.7,0,0,1,2.612-3.413,7.642,7.642,0,0,1,3.892-1.8,6.3,6.3,0,0,1,4.554,1.082A13.228,13.228,0,0,1,79.669,5q.452.5.894,1.013c.092.106.163.1.247,0q.44-.525.9-1.029A11.636,11.636,0,0,1,84.879,2.37a6.085,6.085,0,0,1,2.482-.689,7.306,7.306,0,0,1,5.023,1.7,10.092,10.092,0,0,1,2.567,3.128,17.33,17.33,0,0,1,1.728,4.8,16.108,16.108,0,0,1,.362,2.784c.011.318.015.636.028,1.06m-3.254.078a19.755,19.755,0,0,0-.187-2.45,12.594,12.594,0,0,0-1.9-5.3,7.821,7.821,0,0,0-1.8-1.953,4.517,4.517,0,0,0-2.454-.947,3.6,3.6,0,0,0-2.75,1.093,17.213,17.213,0,0,0-2.2,2.687.23.23,0,0,0-.006.3c.2.289.382.583.57.877.738,1.155,1.438,2.332,2.132,3.513q.832,1.414,1.666,2.826A11.873,11.873,0,0,0,89.227,18.9a3.89,3.89,0,0,0,1.6.87A1.844,1.844,0,0,0,92.917,19a4.164,4.164,0,0,0,.489-.962,8.172,8.172,0,0,0,.409-2.812m-26.258.053a10.622,10.622,0,0,0,.072,1.295,5.357,5.357,0,0,0,.73,2.282,1.821,1.821,0,0,0,1.728.971,3.176,3.176,0,0,0,1.618-.6,7.731,7.731,0,0,0,1.965-2.087c.787-1.124,1.416-2.345,2.124-3.518,1-1.657,1.958-3.339,3.042-4.944a.271.271,0,0,0-.021-.357c-.26-.353-.511-.713-.778-1.061a10.629,10.629,0,0,0-1.648-1.807,3.481,3.481,0,0,0-2.344-.879,4.686,4.686,0,0,0-3.125,1.383,9.425,9.425,0,0,0-2.279,3.4,16.173,16.173,0,0,0-1.082,5.922" transform="translate(-64.302 -1.66)" fill="#fff"/>
</svg>
