<?xml version="1.0" encoding="UTF-8"?><svg id="Capa_2" xmlns="http://www.w3.org/2000/svg" viewBox="0 0 66.39 66.22"><defs><style>.cls-1{fill:#9cc948;}</style></defs><g id="Capa_1-2"><g><polygon class="cls-1" points="33.01 9.08 33.14 9.12 33.19 9.09 33.09 9.02 33.01 9.08"/><polygon class="cls-1" points="16.85 36.6 16.85 36.38 16.71 36.38 16.71 36.53 16.78 36.56 16.85 36.6"/><path class="cls-1" d="M16.18,61.09c0,.32,.2,.51,.66,.51,.24,.03,.48-.04,.67-.2,.12-.15,.18-.34,.15-.53v-.29h-.84c-.42,0-.64,.19-.64,.51Z"/><polygon class="cls-1" points="10.47 42.15 10.5 42.05 10.61 42.01 10.42 41.85 10.35 41.85 10.16 41.84 10.47 42.22 10.47 42.15"/><polygon class="cls-1" points="32.06 9.2 32.37 9.31 32.45 9.26 32.35 9.2 32.06 9.2"/><polygon class="cls-1" points="32.43 8.8 32.42 8.82 32.47 8.88 32.55 8.83 32.45 8.77 32.43 8.8"/><path class="cls-1" d="M31.55,59.19c-.65,0-.75,.55-.75,1.18s.1,1.19,.75,1.19,.74-.55,.74-1.19-.09-1.18-.74-1.18Z"/><path class="cls-1" d="M26.37,59.6c-.12-.28-.4-.46-.7-.45-.31-.01-.59,.17-.71,.45-.07,.15-.1,.32-.09,.48h1.61c0-.17-.03-.33-.1-.48h0Z"/><path class="cls-1" d="M35.31,52.11c.02-.37-.26-.69-.64-.71-.02,0-.05,0-.07,0h0s-.9,0-.9,0v1.34h.9c.37,.02,.69-.26,.71-.64Z"/><path class="cls-1" d="M26.12,51.41h-.9v1.3h.9c.36,0,.65-.29,.65-.65s-.29-.65-.65-.65Z"/><path class="cls-1" d="M30.8,54.39c.19-.21,.24-.43,.24-1.38s-.05-1.17-.24-1.38c-.16-.17-.38-.27-.61-.26-.24,0-.46,.09-.62,.26-.19,.21-.23,.43-.23,1.38s.05,1.17,.23,1.38c.16,.17,.39,.27,.62,.26,.23,0,.46-.09,.61-.26Z"/><polygon class="cls-1" points="64.69 33.03 64.71 32.91 64.69 32.88 64.68 32.84 64.65 33.02 64.66 33.02 64.69 33.03"/><polygon class="cls-1" points="64.91 34.01 64.91 33.95 64.86 33.95 64.86 33.94 64.82 33.87 64.8 33.98 64.86 33.99 64.91 34.01"/><path class="cls-1" d="M36.4,59.6c-.12-.28-.4-.46-.7-.45-.31-.01-.59,.17-.71,.45-.07,.15-.1,.32-.09,.48h1.61c0-.17-.03-.33-.1-.48h0Z"/><polygon class="cls-1" points="63.35 33.9 63.39 33.87 63.44 33.88 63.41 33.76 63.38 33.74 63.31 33.68 63.33 33.93 63.35 33.9"/><polygon class="cls-1" points="65.04 33.16 65.12 33.18 65.26 33.2 65.31 33.16 65.34 32.97 65.19 32.94 65.15 32.97 65.06 33.04 65.01 33 64.97 32.96 65.01 33.06 65.04 33.16"/><polygon class="cls-1" points="65.63 33.45 65.69 33.4 65.7 33.3 65.62 33.32 65.6 33.32 65.52 33.43 65.6 33.45 65.63 33.45"/><rect class="cls-1" x="19.96" y="37.21" width=".22" height=".21"/><polygon class="cls-1" points="47.98 37.16 48.09 37.17 48.17 37.3 48.4 37.2 48.68 37.08 48.7 37.06 48.94 36.61 49.41 36.43 49.48 36.09 49.68 35.85 49.74 35.74 49.82 35.68 50.07 35.48 50.46 34.76 50.45 33.96 50.15 33.34 49.42 33.95 48.94 34.53 48.69 34.95 48.29 35.37 47.91 36.03 47.75 36.7 47.76 37.03 47.98 37.16"/><polygon class="cls-1" points="19.07 37.9 19.14 37.76 18.93 37.76 18.93 37.96 19.03 37.92 19.07 37.9"/><rect class="cls-1" x="19.14" y="37.56" width=".22" height=".06"/><polygon class="cls-1" points="18.8 36.65 18.65 36.65 18.65 36.86 18.86 36.86 18.8 36.65"/><polygon class="cls-1" points="40.13 36.49 40.16 36.35 40.33 36.12 40.51 36.04 40.86 35.61 41.08 35.25 41.17 34.76 40.95 34.45 40.53 34.62 40.08 35.08 39.83 35.74 39.68 36.21 39.69 36.64 40.13 36.49"/><path class="cls-1" d="M0,0V53.67l.23-1.06-.23,.15,.46-.31,.51-.58,.35-.6,.83-.86,.65-.86,.35-.71,.63-.54,.29-.41,.4-.49,.45-.95,.94-.6,.07-.41,.23-.33,.49-.56,.56-.68,.26-.5,.4-.17-.07,.16,.04,.1,.17,.09,.34-.64,.22,.25h.36s.13-.3,.13-.3l-.19-.17-.15-.04-.3,.12,.08-.42,.14-.06-.18,.02-1.46,.58h-.14l-.07,.12-.34-.06-.21-.35h-.28l-.15,.14,.15,.15-.35,.06h-.41l-.34-.62-.22-.7-.48-.27,.07-.68,1.18-1.17,.9-.07,2.02-.56,1.04-.07,.96-.29,.49-.13,.56-.34h.49l.04-.16,.12-.29,.06-.14,.26,.36,.02,.03,.05-.02,.61-.13-.32-.21,.28-.37,.13-.27,.29-.12,.06-.3,.08,.08,.13-.28,.07-.2,.43-.54,.55-.43,.13-.21v-.34l.2-.13,.75-.48-.14-.06,.41-.42,.27-.42,.15-.2,.07-.35,.07-.06,.33-.25,.35-.41,.34-.49,.41-.4,.15-.15-.15-.07,.09-.13h.06l.37-.27-.09-.52,.03-.02,.23-.18,.04-.08,.18-.35,.03-.02,.24-.18,.07-.3v-.04s.22-.14,.22-.14l.14-.14,.16-.27,.18-.29,.26-.48,.09-.14h.14l.07-.06v-.21l.27-.34v-.22l.21-.06v-.2l.9-.97,.63-1.18,.28-.21,.2-.28,.34-.55,.29-.63,.34-.34,.14-.49,.64-.15,.15-.49,.03-.4,.21-.27,.21-.41,.15-.35,.2-.2,.07-.28,.14,.08,.21-.48,.34-.43,.28-.4,.51-.23-.09-.15,.15-.07,.06-.22,.34-.33,.15-.42,.2-.15-.21-.34,.34-.19,.21-.49,.2-.49,.35-.41,.28-.41,.15-.63,.43-.42,.35-.54,.05-.35,.15-.5,.49-.27,.49,.21h.55v.57l.34,.26v.22l.15,.06-.2,1.39-.28,1.52-.21,.15-.08,.27v.41l-.27,.14-.08,.42,.08,.21h-.15l-.14,.2v.41l-.2,.29v.97l-.28,.47-.35,.49-.06,.42-.21,.42v.7l-.27,.48v.76l-.29,.42-.21,.43-.06,.26v.49l-.29,.63v.89l-.2,.34-.14,.49-.21,.55-.28,.63,.06,.63-.2,.48-.06,.56-.2,.55h-.08l-.21,.89-.15,.97-.14,.08-.13,.13,.06,.69-.2,.57-.15,.34,.07,.35-.27,.14v.68l-.21,.21-.06,.84-.29,.63v.54l-.27,.35-.08,.35v.34h-.06l-.07,.07,.13,.08-.2,.41-.06,.49-.29,.83-.03,.55-.52,1.95,.07-.03,.16-.17,.3-.08,.23-.1,.24-.45,.13,.1,.12-.32,.26-.17,.32-.21,.23-.44,.46-.47,.52-.39,.06-.29,.21-.02,.07-.06,.03-.14,.31-.07,.07-.33,.18,.11,.24-.46,.3-.44,.11-.53,.35-.34,.18-1.25,.49-1.01,.21-.3,.4-.21,.72,.21,.17,.26,.32,.13,.44-.41,.57-.03,.07-.04,.03-.14,.8-.04h.7s.37,.28,.37,.28l.21,.39,.16,.26,.18,.17-.18,.89v.62l-.38,.57-.03,.42-.32,.57-.12,.9-.21,.03-.09,.13-.28,.91,.36,.66,.68-.22,.59-.11,.58-.71,.79-.42,.68-1.26,.21-1.3,.43-.83,.27-.78,.28-.57,.2-.33,.28-.35,.27-.46,.3-.09,.11-.18,.39-.21,.41-.28,.29-.03,.22-.02,.6,.14,.19,.17,.31,.21,.09,.23,.07-.05v.35l.24,.25-.09,.42,.15,.31-.07,.77-.33,.49-.07,.34-.31,.44-.02,.08-.05,.02h-.08l-.27,.3-.23,.46-.15,.09-.1,.12-.27,.18-.22,.15-.32,.21-.29,.28-.08,.08-.08,.05-.04,.21,.04,.14,.79-.05,.78-.05,.38-.13,.19-.25,.28,.06,.15-.04,.03-.13,.36-.08,.37-.08,.53-.5,.51-.4,.07-.11,.08-.07,.11-.1,.39-.44,.22-.44,.5-.34,.31-.5,.34-.28,.28-.37,.21-.31,.25-.23,.26-.24,.26-.22,.25-.52,.23-.44,.32-.16,.23-.09,.29-.41,.37-.43,.36-.36,.36-.16,.18-.08-.04-.16,.88,.18,.57-.3,.03-.13,.68,.14,.29,.35-.07,.33,.16,.25,.04,.21,.18,.12-.22,1.08-.14-.03-.07,.06h.05s.13,.11,.13,.11l-.39,.47-.15,.75-.09,.84,.29,.61-.08,.04,.83,.3,.02,.02h-.02l-.12-.02v.07s.1,.02,.1,.02l.1,.02,.02-.07,1.34-.47,.42-.13,.87-.18,.42-.16h.35l.47-.12,.39-.19,.73-.16,.64-.22,.43-.24,.51-.06,.24-.09,.2-.14h.25l.55-.33h.3s.08-.02,.08-.02l.4-.14,.23-.14,.2,.04-.07,.05v.05s.04,.09,.04,.09l.3-.19,.03,.17,.14,.1,.13-.1-.03-.13-.05-.06-.15-.03,.14-.16,.1,.02h.22s.12-.15,.12-.15l.08,.18,.21,.1,.21-.33,.02-.02,.56-.28h.14s.13,0,.13,0l.23-.08,.19-.25v.03s.08,.16,.08,.16l.17,.08,.06-.04,.03-.16-.11-.02-.1-.02,.19-.2,.12-.09,.06-.04v.23s.02,.09,.02,.09l.02,.09h.27s.24-.19,.24-.19h.02s.08-.05,.08-.05h.22l-.02,.12v.05s.1,0,.1,0h0s.11,0,.11,0h-.11s.11,.29,.11,.29l.02,.08v.44h-.03v.05s.02,.04,.02,.04l-.06,.35h-.11l-.24,.12-.06,.11-.02,.12-.28-.11-.08-.03-.02-.17-.1-.07-.25,.17-.1,.11-.1,.1h-.05s-.05-.02-.05-.02v-.07s-.08-.12-.08-.12l-.1-.02-.08,.16-.04,.21h-.03s-.37-.13-.37-.13l-.15,.14-.11,.09-.6,.24-.09,.03-.29,.26-.05-.12-.14-.09-.14,.2-.04,.22-.25-.05-.18,.09-.03,.17-.25-.1-.06-.26,.02-.1-.03-.13-.21,.31-.05,.34-.15-.08-.02-.03-.31,.09-.04,.21h-.36s-.24,.15-.24,.15l-.38,.04-.41,.08-.34,.27-.79,.28-.55,.05-.55,.48-.74-.16-.66,.07-.42,.18-.4,.07-.3,.2-.58,.12-.34,.09-1.26,.61-1.47-.3-.11-.17-.09,.07h-.05s.02-.1,.02-.1l.07-.04-.25-.11-.34-.07-.1,.22-.13,.13-.11,.17-.17,.23-.18,.13-.2,.16-.19,.17-.09,.19-.18,.03-.27,.3-.24,.15-.14-.03-.1,.02h-.05s-.03,.15-.03,.15l-.33-.07-.16,.12-.03,.13-.72-.28-.73-.3-.22-.25-.24-.25-.12-.11-.23,.04-.24,.15-.19,.23-.24,.1-.33,.23v.05s.05,.01,.05,.01l-.38,.14-.4,.28-.61,.23-.57,.37-.52,.11-.51,.1-.62,.29-.61,.23-.38,.14-.43-.02h-.08s-.58,.15-.58,.15l-.68-.14-.23-.27-.4-.14-.51,.39-.5,.39-.13,.24-.28,.09-.83,.47-.74,.55-.23,.1-.03,.13-.33-.07-.24,.09-.02,.12-.68-.14-.36-.34-.53-.24-.36-.28-.08-.66v-.64l-.07-.22v-.12s0-.1,0-.1l.1-.06v-.21h.11v-.11s-.01-.07-.01-.07h.05l.08-.27,.08-.11,.02-.11,.06-.02,.1-.13-.11-.15,.09-.05,.08-.07-.04-.51,.11-.53,.4-.56,.12-.6-.12-.11-.2-.04-.41,.27-.34,.27-.32,.52-.3,.43-.39,.49-.24,.45-.37,.49-.29,.36-.03,.13-.35,.36-.1,.48-.32,.14-.26,.22-.14,.4-.34,.21-.08,.11-.15,.06-.28,.35-.24,.37-.35,.15-.22,.37-.42,.2-.32,.35-.5,.17-.18,.13-.45,.14-.35,.08-.62,.29-.88,.28-.27,.04h0s-.01,0-.01,0l-.18,.03-.21,.1,.02-.05-.04,.03-.14-.1-.46,.02-.23-.35-.04-.42,.12-.72,.02-.46,.15-.36,.1-.32,.06-.7,.12-.23,.22-.69,.06-.68,.28-.63v-.69l.27-.48v-.07l-.06-.08v.08h-.14v-.08l.2-.48,.28-.41v-.63l.14-.49,.12-.48,.08-.48,.29-.57v-.69l.2-.4v-.63l.19-.13,.08-.27v-.69l.13-.08,.09-.14,.05-.61,.29-.49v-.77l.13,.07,.08-.07-.08-.2,.13-.49,.21-.4,.13-.92,.15-.89,.28-.48,.07-.61h.15l.14-.83,.21-.48v-.55l.28-.49,.2-.56,.07-.62-.13-.47-.22,.21v.41l-.34,.13-.21,.28-.15,.42-.14,.27-.27,.29-.21,.26-.21,.43-.2,.41-.28,.35-.21,.42-.26,.2-.22,.2-.35,.55-.27,.71h-.14l-.08,.13v.14l-.35,.28-.2,.41v.15l-.26,.29-.29,.34v.26l-.27,.08-.07,.27,.07,.08-.27,.28-.28,.41-.15,.29-.19,.2-.21,.2-.08,.35h.08l-.22,.08-.12,.13-.33,.38-.16,.18-.35,.62h0l-.31,.31-.03,.03-.18,.46-.04,.1-.19,.21-.04,.03-.17,.18,.06,.13-.06,.13-.2,.15-.08,.2-.41,.35-.34,.27-.08,.35-.21,.13-.07,.35v.3l.41,.05,.43-.2-.09-.07h.64l.17-.1,.27-.16,.04-.02,.17,.12,.25,.16h.35l.12,.07,.11,.06,.04,.02-.05-.22-.02-.12,.02-.06,.11-.29v.22l.07,.21,.15,.06h.12l.09-.35,.27-.06v.06h-.07l.07,.09h.14l-.06,.83-.21,.2-.22,.07-.06,.13v.15l.21,.07,.08,.13h-.84l-.35,.23-.27,.19-.04,.1-.03,.11-.15,.2h-.21v-.07l-.07-.08-.04,.03-.17,.12-.2,.06-.15,.29-.06-.07h-.14v-.28l-.15-.15-.21,.2-.21,.22-.42,.07-.2,.27-.07-.07-.07-.07-.21-.07-.21,.54-.27,.11-.14-.03-.49,.14-.28,.19,.04,.11-.41,.09-1.1,.43-.05,.23-.06,.27-.1,.04-.1,.04-.05-.13-.28-.08-.19,.08v.35s.17,.39,.17,.39l-.06,.03-.78,.22-.12,.4-.08,.28-.82,1.08-.12,.15-.24,.75-.21-.15-.34,.03-.05,.49,.16,.39-.5,.21-.23,.35,.13,.3-.55,.13-.38-.35-.08-.18-.19-.17-.06,.74,.25,.6-.34,.04-.3-.12-.48,.55-.22,.6-.88,.47,.13,.31-.49,.32-.18,.43-.47,.4-.48,.47-.21,.66-.8,1.08-.69,.56-.3,1.12-1.13,.45-1.38,1.02-.47,.02v10.91H66.39V0H0ZM35.99,5.43l-.18,.32-.34,.29-.2,.34-.11,.16-.03,.25-.23,.16-.04,.17-.16,.19-.23,.34-.14,.34-.43,.39-.16,.34-.17,.09-.05,.17h.06l-.23,.16v.07s-.03,.12-.03,.12h0s-.12,.02-.12,.02l-.17,.02-.13,.09h-.08s-.07,.02-.07,.02h-.02s.11,.06,.11,.06l.07,.04,.02,.02,.1,.12-.1-.07-.13-.04-.08,.02-.04,.03,.14,.13-.07,.09-.03-.02,.02-.02h-.06s-.05,.03-.05,.03l-.39-.26-.03-.11,.04-.08-.25-.1-.07-.04-.12,.03-.09-.02,.3-.22,.21-.09v-.13s-.23-.08-.23-.08l-.05-.05-.05-.1h.28l.04,.02h.06s0-.01,0-.01l-.26-.17,.02-.14-.09-.12h.06l.05-.03,.1,.03h.12l-.02-.11-.03-.12,.12-.13-.07-.13h.12s.11-.03,.11-.03l-.13-.27,.04-.07,.17-.04v-.19l.08-.19,.14-.09-.03-.16-.06-.1,.03-.14c.26-.25,.47-.56,.59-.91,.08-.22,.15-.44,.23-.66l.08,.13h.21s.05-.02,.05-.02l-.07-.03,.17-.17-.02-.18,.05-.04-.04-.05,.15-.07,.25,.06,.1-.08-.02-.08h-.13s.1-.12,.1-.12l.15-.11,.43,.1,.43,.15,.3-.04,.3,.22,.16,.65-.29,.26ZM16.64,50.55h3.24v.85h-2.28v1.15h1.94v.85h-1.94v1.19h2.28v.85h-3.24s0-4.91,0-4.91Zm-5.36,0h.95l1.28,2.65,1.28-2.65h.95v4.91h-.96s0-2.86,0-2.86l-.94,1.86h-.65l-.95-1.86v2.86h-.96v-4.91Zm2.26,11.61h-.59l-1.65-5h.79l1.16,3.64,1.15-3.64h.8l-1.66,5Zm4.84,0h-.7v-.32c-.25,.26-.6,.39-.95,.36-.35,.03-.7-.09-.96-.32-.19-.21-.29-.48-.28-.77,0-.6,.42-1.03,1.23-1.03h.94v-.25c0-.45-.23-.67-.78-.67-.3-.04-.6,.1-.78,.34l-.47-.44c.31-.37,.8-.57,1.28-.51,.98,0,1.47,.41,1.47,1.22v2.38Zm2.72,0h-.44c-.5,.04-.94-.33-.98-.83,0-.05,0-.1,0-.15v-4.02h.72v3.98c0,.27,.1,.41,.39,.41h.32v.61Zm2.41,0h-.44c-.5,.04-.94-.33-.98-.83,0-.05,0-.1,0-.15v-4.02h.72v3.98c0,.27,.1,.41,.39,.41h.32v.61Zm.22-10.75h-1.28v4.06h-.96v-4.05h-1.29v-.86h3.53v.85Zm3.45,8.86v.32h-2.32c-.07,.48,.26,.92,.74,.99,.05,0,.11,.01,.16,0,.33,.02,.65-.12,.87-.37l.46,.43c-.34,.38-.83,.58-1.34,.55-.89,0-1.61-.47-1.61-1.83,0-1.15,.6-1.82,1.52-1.82,.84,0,1.52,.67,1.53,1.5,0,.07,0,.14-.01,.21Zm-.32-4.81l-.96-1.96h-.69v1.96h-.96v-4.91h1.93c.82-.06,1.53,.55,1.6,1.37,0,.04,0,.09,0,.13,.02,.58-.35,1.1-.9,1.29l1.1,2.12h-1.12Zm1.5-2.45c0-.85-.01-1.46,.48-1.96,.74-.72,1.92-.72,2.66,0,.5,.5,.49,1.11,.49,1.96s0,1.46-.49,1.96c-.74,.72-1.92,.72-2.66,0-.5-.5-.48-1.11-.48-1.96Zm4.65,9.14h-.71s0-.38,0-.38c-.22,.29-.58,.45-.94,.42-.32,.01-.63-.1-.87-.32-.53-.93-.53-2.08,0-3.01,.24-.21,.55-.33,.87-.32,.36-.03,.71,.12,.94,.4v-1.8h.72v5Zm.69-6.69h-.96v-4.91h1.91c.85-.05,1.57,.59,1.63,1.43,.05,.84-.59,1.57-1.43,1.63-.06,0-.13,0-.19,0h0s-.95,0-.95,0v1.85Zm3.51,4.81v.32h-2.32c-.07,.48,.26,.92,.74,.99,.05,0,.11,.01,.16,0,.33,.02,.65-.12,.87-.37l.46,.43c-.34,.38-.83,.58-1.34,.55-.89,0-1.61-.47-1.61-1.83,0-1.15,.6-1.82,1.52-1.82,.84,0,1.52,.67,1.53,1.5,0,.07,0,.14-.01,.21Zm-.06-5.3c-.5-.5-.48-1.11-.48-1.96s-.01-1.46,.48-1.96c.35-.36,.83-.55,1.34-.54,.5-.01,.98,.18,1.33,.54,.5,.5,.49,1.11,.49,1.96s0,1.46-.49,1.96c-.35,.36-.83,.55-1.33,.54-.5,.01-.98-.18-1.34-.54Zm6.09,7.19l-.34-1h-1.98l-.35,1h-.81l1.84-5h.61l1.84,5h-.81Zm.97-6.7h-3.19s0-4.91,0-4.91h.96v4.05h2.23v.85Zm16.08-8.99h0s.06,.05,.06,.05h-.14l.07-.05Zm-6.25,4.09h.86l1.95,3.01v-3.01h.96v4.91h-.86s-1.95-3.01-1.95-3.01v3.01h-.96v-4.91Zm-9.3,0h.96v4.91h-.96v-4.91Zm2.69,11.33h0c-.24,.21-.55,.32-.87,.31-.36,.02-.72-.13-.94-.42v.38h-.7v-5h.72v1.8c.23-.28,.58-.43,.94-.4,.32-.01,.63,.1,.87,.32,.53,.93,.53,2.08,0,3.01Zm1.04-6.42h-.96v-4.05h-1.29v-.86h3.53v.85h-1.29v4.06Zm3.4,6.7h-.71v-.36c-.25,.26-.59,.41-.95,.4-.32,.01-.64-.1-.88-.32-.26-.27-.39-.63-.36-1.01v-2.28h.72v2.17c-.06,.38,.2,.73,.58,.79,.05,0,.09,0,.14,0,.39,.02,.72-.28,.74-.68,0-.04,0-.08,0-.12v-2.17h.72v3.56Zm.52-7.56h-1.75l-.3,.87h-1l1.79-4.91h.75l1.8,4.91h-1l-.29-.87Zm2.8,4.84c-.13-.16-.33-.25-.53-.24-.4,.01-.72,.35-.71,.75,0,.02,0,.03,0,.05v2.16h-.72v-3.56h.7v.39c.23-.28,.58-.44,.95-.43,.32-.02,.63,.11,.85,.34l-.54,.54Zm3.3,0c-.13-.16-.33-.25-.53-.24-.41,.01-.72,.35-.71,.75,0,.02,0,.03,0,.05v2.16h-.72v-3.56h.7v.39c.23-.28,.58-.44,.95-.43,.32-.02,.63,.11,.85,.34l-.54,.54Zm3.89,2.73h-.7v-.32c-.25,.26-.6,.39-.95,.36-.35,.03-.7-.09-.96-.32-.19-.21-.29-.48-.28-.77,0-.6,.42-1.03,1.23-1.03h.94v-.25c0-.45-.22-.67-.78-.67-.3-.04-.6,.1-.78,.34l-.47-.44c.31-.37,.8-.57,1.28-.51,.98,0,1.47,.41,1.47,1.22v2.38Zm-1.75-4.21l.53-1.14h.8l-.79,1.14h-.54Zm.86-2.49l-.29-.87h-1.75l-.3,.87h-1l1.79-4.91h.75l1.8,4.91h-1.01Z"/><polygon class="cls-1" points="50.91 53.79 52.13 53.79 51.53 52 50.91 53.79"/><path class="cls-1" d="M46.37,59.19c-.65,0-.75,.55-.75,1.18s.1,1.19,.75,1.19,.74-.55,.74-1.19-.09-1.18-.74-1.18Z"/><path class="cls-1" d="M60.19,61.09c0,.32,.2,.51,.66,.51,.24,.03,.48-.04,.67-.2,.12-.15,.18-.34,.15-.53v-.29h-.84c-.42,0-.64,.19-.64,.51Z"/><polygon class="cls-1" points="41.15 60.51 42.69 60.51 41.93 58.29 41.15 60.51"/><polygon class="cls-1" points="59.73 53.79 60.95 53.79 60.35 52 59.73 53.79"/><path class="cls-1" d="M38.49,51.37c-.24,0-.46,.09-.62,.26-.19,.21-.23,.43-.23,1.38s.05,1.17,.23,1.38c.16,.17,.39,.27,.62,.26,.23,0,.46-.09,.61-.26,.19-.21,.24-.43,.24-1.38s-.05-1.17-.24-1.38c-.16-.17-.38-.27-.61-.26Z"/></g></g></svg>