<svg xmlns="http://www.w3.org/2000/svg" width="25.714" height="27.901" viewBox="0 0 25.714 27.901">
  <g id="logo_googleplay_white" transform="translate(-4678 -6128.232)">
    <path id="Trazado_2069" data-name="Trazado 2069" d="M16.017,140.974l3.7-3.491L3.262,128.436a1.724,1.724,0,0,0-.753-.2Z" transform="translate(4677.328 6000)" fill="#fff"/>
    <path id="Trazado_2070" data-name="Trazado 2070" d="M.22,129.452a1.726,1.726,0,0,0-.22.843v24.431a1.728,1.728,0,0,0,.22.843L14.062,142.51Z" transform="translate(4678 5999.673)" fill="#fff"/>
    <path id="Trazado_2071" data-name="Trazado 2071" d="M30.9,144.363l-4.143-2.278-4.039,3.81,4.039,3.81,4.143-2.278a1.748,1.748,0,0,0,0-3.064" transform="translate(4671.914 5996.288)" fill="#fff"/>
    <path id="Trazado_2072" data-name="Trazado 2072" d="M16.017,148.941,2.509,161.683a1.724,1.724,0,0,0,.753-.2l16.455-9.047Z" transform="translate(4677.328 5994.451)" fill="#fff"/>
  </g>
</svg>
