<svg xmlns="http://www.w3.org/2000/svg" width="112.15" height="63.885" viewBox="0 0 112.15 63.885">
  <g id="Logo_Sier_white" transform="translate(-42.1 -90.06)">
    <g id="g3348_5_" transform="translate(50.129 90.833)">
      <g id="g3354_5_" transform="translate(0)">
        <g id="path3356_5_">
          <path id="Trazado_802" data-name="Trazado 802" d="M-219.7-596.855a6.3,6.3,0,0,1-2.192-.393,5.893,5.893,0,0,1-1.922-1.156l1.258-1.51a4.563,4.563,0,0,0,2.9,1.177,1.875,1.875,0,0,0,1.03-.243.761.761,0,0,0,.372-.67v-.027a.743.743,0,0,0-.15-.474,1.5,1.5,0,0,0-.572-.376,8.126,8.126,0,0,0-1.235-.389c-.308-.077-.572-.15-.795-.22s-.455-.154-.695-.25a3.864,3.864,0,0,1-.6-.3,3.21,3.21,0,0,1-.47-.372,1.785,1.785,0,0,1-.362-.476,2.527,2.527,0,0,1-.214-.6,3.315,3.315,0,0,1-.077-.745v-.027a2.636,2.636,0,0,1,.95-2.117,3.656,3.656,0,0,1,2.446-.8,5.562,5.562,0,0,1,3.6,1.231l-1.111,1.61a4.556,4.556,0,0,0-2.517-.961,1.554,1.554,0,0,0-.923.237.724.724,0,0,0-.329.609v.027a.781.781,0,0,0,.406.711,7.407,7.407,0,0,0,1.691.568,9.182,9.182,0,0,1,1.317.437,4.047,4.047,0,0,1,.951.572,2.076,2.076,0,0,1,.609.809,2.818,2.818,0,0,1,.2,1.092v.027a2.69,2.69,0,0,1-.978,2.209,3.94,3.94,0,0,1-2.579.8" transform="translate(223.81 606.83)" fill="#fff"/>
        </g>
      </g>
      <g id="path3358_5_" transform="translate(9.623 0.135)">
        <path id="Trazado_803" data-name="Trazado 803" d="M126.97,94.43h2.138v9.7H126.97Z" transform="translate(-126.97 -94.43)" fill="#fff"/>
      </g>
      <g id="g3360_5_" transform="translate(13.521)">
        <g id="path3362_5_" transform="translate(0)">
          <path id="Trazado_804" data-name="Trazado 804" d="M-347.336-596.855a6.3,6.3,0,0,1-2.192-.393,5.893,5.893,0,0,1-1.922-1.156l1.258-1.51a4.563,4.563,0,0,0,2.9,1.177,1.875,1.875,0,0,0,1.03-.243.761.761,0,0,0,.372-.67v-.027a.743.743,0,0,0-.15-.474,1.5,1.5,0,0,0-.572-.376,8.126,8.126,0,0,0-1.235-.389c-.308-.077-.572-.15-.795-.22s-.455-.154-.695-.25a3.863,3.863,0,0,1-.6-.3,3.207,3.207,0,0,1-.47-.372,1.784,1.784,0,0,1-.362-.476,2.527,2.527,0,0,1-.214-.6,3.315,3.315,0,0,1-.077-.745v-.027a2.636,2.636,0,0,1,.951-2.117,3.656,3.656,0,0,1,2.446-.8,5.562,5.562,0,0,1,3.6,1.231l-1.111,1.61a4.556,4.556,0,0,0-2.517-.961,1.554,1.554,0,0,0-.923.237.724.724,0,0,0-.329.609v.027a.781.781,0,0,0,.406.711,7.407,7.407,0,0,0,1.691.568,9.183,9.183,0,0,1,1.317.437,4.047,4.047,0,0,1,.95.572,2.077,2.077,0,0,1,.609.809,2.819,2.819,0,0,1,.2,1.092v.027a2.69,2.69,0,0,1-.978,2.209,3.94,3.94,0,0,1-2.579.8" transform="translate(351.45 606.83)" fill="#fff"/>
        </g>
      </g>
      <g id="g3364_5_" transform="translate(22.149 0.135)">
        <g id="path3366_5_" transform="translate(0 0)">
          <path id="Trazado_805" data-name="Trazado 805" d="M-413.369-598.405v-7.735h-2.951v-1.97h8.032v1.97h-2.951v7.735Z" transform="translate(416.32 608.11)" fill="#fff"/>
        </g>
      </g>
      <g id="g3368_5_" transform="translate(31.82 0.135)">
        <g id="path3370_5_" transform="translate(0 0)">
          <path id="Trazado_806" data-name="Trazado 806" d="M-465.57-598.405v-9.7h7.315v1.9h-5.2v1.97h4.576v1.895h-4.576v2.036h5.272v1.9h-7.39Z" transform="translate(465.57 608.11)" fill="#fff"/>
        </g>
      </g>
      <g id="g3372_5_" transform="translate(41.105 0.135)">
        <g id="path3374_5_" transform="translate(0 0)">
          <path id="Trazado_807" data-name="Trazado 807" d="M-553.22-598.405v-9.7h2.3l2.552,4.108,2.552-4.108h2.3v9.7h-2.126v-6.335l-2.727,4.141h-.054l-2.708-4.1v6.294h-2.09Z" transform="translate(553.22 608.11)" fill="#fff"/>
        </g>
      </g>
      <g id="g3376_5_" transform="translate(52.299 0.067)">
        <g id="path3378_5_" transform="translate(0 0)">
          <path id="Trazado_808" data-name="Trazado 808" d="M-709.535-660.579h2.579l-1.285-3.147Zm-3.825,4.062,4.162-9.773h1.963l4.162,9.773h-2.234l-.886-2.18h-4.1l-.886,2.18Z" transform="translate(713.36 666.29)" fill="#fff"/>
        </g>
      </g>
      <g id="g3380_5_" transform="translate(63.277)">
        <g id="path3382_5_" transform="translate(0)">
          <path id="Trazado_809" data-name="Trazado 809" d="M-817.006-596.855a6.3,6.3,0,0,1-2.192-.393,5.892,5.892,0,0,1-1.922-1.156l1.258-1.51a4.563,4.563,0,0,0,2.9,1.177,1.875,1.875,0,0,0,1.03-.243.761.761,0,0,0,.372-.67v-.027a.743.743,0,0,0-.15-.474,1.5,1.5,0,0,0-.572-.376,8.131,8.131,0,0,0-1.235-.389c-.308-.077-.572-.15-.795-.22s-.455-.154-.695-.25a3.772,3.772,0,0,1-.6-.3,3.1,3.1,0,0,1-.47-.372,1.785,1.785,0,0,1-.362-.476,2.526,2.526,0,0,1-.214-.6,3.315,3.315,0,0,1-.077-.745v-.027a2.636,2.636,0,0,1,.95-2.117,3.657,3.657,0,0,1,2.446-.8,5.562,5.562,0,0,1,3.6,1.231l-1.111,1.61a4.556,4.556,0,0,0-2.517-.961,1.554,1.554,0,0,0-.924.237.725.725,0,0,0-.328.609v.027a.781.781,0,0,0,.406.711,7.406,7.406,0,0,0,1.691.568,9.176,9.176,0,0,1,1.317.437,4.046,4.046,0,0,1,.951.572,2.076,2.076,0,0,1,.609.809,2.819,2.819,0,0,1,.2,1.092v.027a2.69,2.69,0,0,1-.977,2.209,3.94,3.94,0,0,1-2.579.8" transform="translate(821.12 606.83)" fill="#fff"/>
        </g>
      </g>
      <g id="path3384_5_" transform="translate(0.757 16.766)">
        <path id="Trazado_810" data-name="Trazado 810" d="M84.34,174.39h2.138v9.7H84.34Z" transform="translate(-84.34 -174.39)" fill="#fff"/>
      </g>
      <g id="g3386_5_" transform="translate(5.319 16.766)">
        <g id="path3388_5_" transform="translate(0 0)">
          <path id="Trazado_811" data-name="Trazado 811" d="M-215.4-281.475v-9.7h1.97l4.549,5.975v-5.975h2.1v9.7h-1.814l-4.7-6.165v6.165Z" transform="translate(215.4 291.18)" fill="#fff"/>
        </g>
      </g>
      <g id="g3390_5_" transform="translate(15.57 16.766)">
        <g id="path3392_5_" transform="translate(0 0)">
          <path id="Trazado_812" data-name="Trazado 812" d="M-351.279-281.475v-7.735h-2.951v-1.97h8.032v1.97h-2.951v7.735Z" transform="translate(354.23 291.18)" fill="#fff"/>
        </g>
      </g>
      <g id="g3394_5_" transform="translate(25.243 16.766)">
        <g id="path3396_5_" transform="translate(0 0)">
          <path id="Trazado_813" data-name="Trazado 813" d="M-403.47-281.475v-9.7h7.315v1.9h-5.2v1.97h4.576v1.895h-4.576v2.036h5.272v1.9l-7.39,0Z" transform="translate(403.47 291.18)" fill="#fff"/>
        </g>
      </g>
      <g id="g3398_5_" transform="translate(34.528 16.766)">
        <g id="path3400_5_" transform="translate(0 0)">
          <path id="Trazado_814" data-name="Trazado 814" d="M-491.12-281.475v-9.7h2.132v7.762h4.84v1.943Z" transform="translate(491.12 291.18)" fill="#fff"/>
        </g>
      </g>
      <g id="path3402_5_" transform="translate(43.196 16.766)">
        <path id="Trazado_815" data-name="Trazado 815" d="M288.39,174.39h2.138v9.7H288.39Z" transform="translate(-288.39 -174.39)" fill="#fff"/>
      </g>
      <g id="g3404_5_" transform="translate(47.333 16.606)">
        <g id="path3406_5_" transform="translate(0 0)">
          <path id="Trazado_816" data-name="Trazado 816" d="M-679.494-279.5a5.554,5.554,0,0,1-2.067-.379,4.679,4.679,0,0,1-1.614-1.042,4.723,4.723,0,0,1-1.038-1.587,5.235,5.235,0,0,1-.376-1.986v-.027a5.014,5.014,0,0,1,.385-1.945,5.009,5.009,0,0,1,1.052-1.6,4.869,4.869,0,0,1,1.618-1.073,5.221,5.221,0,0,1,2.028-.4,6.154,6.154,0,0,1,2.132.324,5.7,5.7,0,0,1,1.678,1l-1.339,1.624a4.808,4.808,0,0,0-1.181-.745,3.5,3.5,0,0,0-1.356-.237,2.588,2.588,0,0,0-1.974.886,3.042,3.042,0,0,0-.815,2.132v.027a3.083,3.083,0,0,0,.826,2.207,2.778,2.778,0,0,0,2.111.874,3.368,3.368,0,0,0,2.009-.582v-1.387h-2.146v-1.841h4.216v4.21a6.222,6.222,0,0,1-4.147,1.541" transform="translate(684.59 289.54)" fill="#fff"/>
        </g>
      </g>
      <g id="g3408_5_" transform="translate(58.619 16.766)">
        <g id="path3410_5_" transform="translate(0 0)">
          <path id="Trazado_817" data-name="Trazado 817" d="M-718.55-281.475v-9.7h7.315v1.9h-5.2v1.97h4.576v1.895h-4.576v2.036h5.272v1.9l-7.39,0Z" transform="translate(718.55 291.18)" fill="#fff"/>
        </g>
      </g>
      <g id="g3412_5_" transform="translate(67.906 16.766)">
        <g id="path3414_5_" transform="translate(0 0)">
          <path id="Trazado_818" data-name="Trazado 818" d="M-806.19-281.475v-9.7h1.97l4.549,5.975v-5.975h2.1v9.7h-1.814l-4.7-6.165v6.165Z" transform="translate(806.19 291.18)" fill="#fff"/>
        </g>
      </g>
      <g id="g3416_5_" transform="translate(78.157 16.766)">
        <g id="path3418_5_" transform="translate(0 0)">
          <path id="Trazado_819" data-name="Trazado 819" d="M-942.069-281.475v-7.735h-2.951v-1.97h8.032v1.97h-2.951v7.735Z" transform="translate(945.02 291.18)" fill="#fff"/>
        </g>
      </g>
      <g id="g3420_5_" transform="translate(87.828 16.766)">
        <g id="path3422_5_" transform="translate(0 0)">
          <path id="Trazado_820" data-name="Trazado 820" d="M-994.27-281.475v-9.7h7.315v1.9h-5.2v1.97h4.576v1.895h-4.576v2.036h5.272v1.9l-7.39,0Z" transform="translate(994.27 291.18)" fill="#fff"/>
        </g>
      </g>
      <g id="g3424_5_" transform="translate(96.451 16.631)">
        <g id="path3426_5_" transform="translate(0 0)">
          <path id="Trazado_821" data-name="Trazado 821" d="M-1130.166-279.925a6.3,6.3,0,0,1-2.192-.393,5.9,5.9,0,0,1-1.922-1.156l1.258-1.51a4.564,4.564,0,0,0,2.9,1.177,1.875,1.875,0,0,0,1.029-.243.761.761,0,0,0,.372-.67v-.027a.743.743,0,0,0-.15-.474,1.5,1.5,0,0,0-.572-.376,8.118,8.118,0,0,0-1.235-.389c-.308-.077-.572-.15-.794-.22s-.455-.154-.695-.25a3.78,3.78,0,0,1-.6-.3,3.1,3.1,0,0,1-.47-.372,1.782,1.782,0,0,1-.362-.476,2.526,2.526,0,0,1-.214-.6,3.315,3.315,0,0,1-.077-.745v-.027a2.636,2.636,0,0,1,.951-2.117,3.656,3.656,0,0,1,2.446-.8,5.562,5.562,0,0,1,3.6,1.231l-1.111,1.61a4.556,4.556,0,0,0-2.516-.961,1.554,1.554,0,0,0-.923.237.724.724,0,0,0-.329.609v.027a.781.781,0,0,0,.406.711,7.4,7.4,0,0,0,1.691.568,9.188,9.188,0,0,1,1.317.437,3.977,3.977,0,0,1,.95.572,2.06,2.06,0,0,1,.609.809,2.823,2.823,0,0,1,.2,1.094v.027a2.689,2.689,0,0,1-.978,2.209,3.947,3.947,0,0,1-2.579.795" transform="translate(1134.28 289.9)" fill="#fff"/>
        </g>
      </g>
      <g id="g3428_5_" transform="translate(0.662 33.399)">
        <g id="path3430_5_" transform="translate(0 0)">
          <path id="Trazado_822" data-name="Trazado 822" d="M-171.45,35.465v-9.7h7.315v1.9h-5.2v1.97h4.576v1.895h-4.576v2.036h5.272v1.9l-7.39,0Z" transform="translate(171.45 -25.76)" fill="#fff"/>
        </g>
      </g>
      <g id="g3432_5_" transform="translate(9.947 33.399)">
        <g id="path3434_5_" transform="translate(0 0)">
          <path id="Trazado_823" data-name="Trazado 823" d="M-259.1,35.465v-9.7h1.97l4.549,5.975V25.76h2.1v9.7h-1.814l-4.7-6.165v6.165Z" transform="translate(259.1 -25.76)" fill="#fff"/>
        </g>
      </g>
      <g id="g3436_5_" transform="translate(25.047 33.398)">
        <g id="path3438_5_" transform="translate(0 0)">
          <path id="Trazado_824" data-name="Trazado 824" d="M-429.858-40.593h2.165a1.774,1.774,0,0,0,1.2-.376,1.252,1.252,0,0,0,.433-1v-.027a1.244,1.244,0,0,0-.443-1.032,1.925,1.925,0,0,0-1.235-.356h-2.126v2.789h0Zm-2.132,4.987v-9.7h4.432a3.826,3.826,0,0,1,2.829.988,2.988,2.988,0,0,1,.832,2.213v.033a3.111,3.111,0,0,1-.555,1.889,3.221,3.221,0,0,1-1.522,1.117l2.369,3.465h-2.5l-2.078-3.107h-1.678v3.107Z" transform="translate(431.99 45.31)" fill="#fff"/>
        </g>
      </g>
      <g id="g3440_5_" transform="translate(35.062 33.399)">
        <g id="path3442_5_" transform="translate(0 0)">
          <path id="Trazado_825" data-name="Trazado 825" d="M-496.17,35.465v-9.7h7.315v1.9h-5.2v1.97h4.576v1.895h-4.576v2.036h5.272v1.9l-7.39,0Z" transform="translate(496.17 -25.76)" fill="#fff"/>
        </g>
      </g>
      <g id="g3444_5_" transform="translate(44.347 33.399)">
        <g id="path3446_5_" transform="translate(0 0)">
          <path id="Trazado_826" data-name="Trazado 826" d="M-612.058,6.055h1.651a2.873,2.873,0,0,0,2.115-.8,2.822,2.822,0,0,0,.809-2.094V3.13a2.873,2.873,0,0,0-.809-2.109,2.849,2.849,0,0,0-2.115-.815h-1.651Zm-2.132,1.93v-9.7h3.783a5.784,5.784,0,0,1,2.09.372A4.818,4.818,0,0,1-606.68-.333,4.57,4.57,0,0,1-605.631,1.2a4.83,4.83,0,0,1,.379,1.905v.027a4.865,4.865,0,0,1-.379,1.909,4.7,4.7,0,0,1-1.048,1.543,4.828,4.828,0,0,1-1.637,1.025,5.741,5.741,0,0,1-2.09.376h-3.783Z" transform="translate(614.19 1.72)" fill="#fff"/>
        </g>
      </g>
    </g>
    <g id="Grupo_58" data-name="Grupo 58" transform="translate(42.1 90.06)">
      <rect id="Rectángulo_108" data-name="Rectángulo 108" width="3.23" height="63.885" transform="translate(0 0)" fill="#fff"/>
    </g>
    <g id="Grupo_59" data-name="Grupo 59" transform="translate(49.446 141.49)">
      <path id="Trazado_827" data-name="Trazado 827" d="M77.42,349.761s5.614.275,11.375-7.309c2.3-3.024,2.261-4.919,13.544-5.035,18.151-.185,60.256,0,60.256,0V349.79Z" transform="translate(-77.42 -337.334)" fill="#fff"/>
    </g>
    <g id="Grupo_60" data-name="Grupo 60" transform="translate(68.342 144.791)">
      <path id="Trazado_828" data-name="Trazado 828" d="M171.546,361.09h-.177a.167.167,0,0,0-.177.177v2.471a1.222,1.222,0,0,1-1.317,1.235c-.738,0-1.084-.358-1.084-1.123v-2.583a.162.162,0,0,0-.168-.177h-.177a.167.167,0,0,0-.177.177v2.625a1.419,1.419,0,0,0,1.558,1.589,1.626,1.626,0,0,0,1.364-.6v.345a.167.167,0,0,0,.177.177h.177a.162.162,0,0,0,.168-.177v-3.956A.162.162,0,0,0,171.546,361.09Z" transform="translate(-168.27 -359.451)" fill="#59b377"/>
      <path id="Trazado_829" data-name="Trazado 829" d="M192.417,360.62a1.7,1.7,0,0,0-1.423.618v-.343a.167.167,0,0,0-.177-.177h-.171a.167.167,0,0,0-.177.177v3.956a.167.167,0,0,0,.177.177h.171a.167.167,0,0,0,.177-.177v-2.479a1.256,1.256,0,0,1,1.373-1.244.942.942,0,0,1,1.075,1.067v2.656a.167.167,0,0,0,.177.177h.171a.167.167,0,0,0,.177-.177v-2.681A1.411,1.411,0,0,0,192.417,360.62Z" transform="translate(-185.853 -359.079)" fill="#59b377"/>
      <path id="Trazado_830" data-name="Trazado 830" d="M213.088,360.63a3.891,3.891,0,0,0-1.5.308.154.154,0,0,0-.1.208l.056.173a.171.171,0,0,0,.225.085,3.184,3.184,0,0,1,1.3-.275c.786,0,1.092.287,1.092,1.025v.285c-1.76.046-2.995.191-2.995,1.41,0,.772.566,1.25,1.477,1.25a1.819,1.819,0,0,0,1.518-.616v.374a.167.167,0,0,0,.177.177h.162a.167.167,0,0,0,.177-.177l0-2.72C214.677,361.123,214.157,360.63,213.088,360.63Zm-.41,3.987c-.632,0-.994-.283-.994-.776,0-.79.942-.876,2.481-.934v.458C214.165,364.126,213.581,364.617,212.678,364.617Z" transform="translate(-202.247 -359.087)" fill="#59b377"/>
      <path id="Trazado_831" data-name="Trazado 831" d="M246.115,360.62c-1.21,0-1.905.822-1.905,2.252a1.966,1.966,0,0,0,2.057,2.253,2.793,2.793,0,0,0,1.323-.316.164.164,0,0,0,.089-.208l-.056-.137a.186.186,0,0,0-.114-.11.162.162,0,0,0-.133.023,2.175,2.175,0,0,1-1.084.258,1.432,1.432,0,0,1-1.543-1.512h3.005a.165.165,0,0,0,.177-.177v-.266A1.807,1.807,0,0,0,246.115,360.62Zm1.29,2.02h-2.662c.052-1.015.512-1.529,1.369-1.529C247.217,361.111,247.4,362.053,247.4,362.64Z" transform="translate(-228.416 -359.079)" fill="#59b377"/>
      <path id="Trazado_832" data-name="Trazado 832" d="M271.041,360.64a1.62,1.62,0,0,0-1.473.73,1.262,1.262,0,0,0-1.281-.73,1.651,1.651,0,0,0-1.317.568v-.3a.167.167,0,0,0-.177-.177h-.177a.167.167,0,0,0-.177.177v3.956a.167.167,0,0,0,.177.177h.177a.167.167,0,0,0,.177-.177V362.35a1.2,1.2,0,0,1,1.269-1.2c.655,0,.961.327.961,1.025v2.7a.165.165,0,0,0,.177.177h.171a.167.167,0,0,0,.177-.177V362.3a1.164,1.164,0,0,1,1.269-1.156c.655,0,.961.329.961,1.034v2.689a.167.167,0,0,0,.177.177h.168a.167.167,0,0,0,.177-.177v-2.712A1.345,1.345,0,0,0,271.041,360.64Z" transform="translate(-246.022 -359.095)" fill="#59b377"/>
      <path id="Trazado_833" data-name="Trazado 833" d="M302.9,360.63a1.706,1.706,0,0,0-1.468.684v-.41a.167.167,0,0,0-.177-.177h-.171a.167.167,0,0,0-.177.177v4.844a.167.167,0,0,0,.177.177h.177a.167.167,0,0,0,.177-.177v-1.3a1.7,1.7,0,0,0,1.462.668c1.2,0,1.889-.817,1.889-2.244S304.1,360.63,302.9,360.63Zm-.033.5c.921,0,1.389.587,1.389,1.745s-.468,1.745-1.389,1.745-1.431-.62-1.431-1.745C301.438,362.076,301.686,361.127,302.869,361.127Z" transform="translate(-273.323 -359.087)" fill="#59b377"/>
      <path id="Trazado_834" data-name="Trazado 834" d="M325.864,360.94a1.608,1.608,0,0,0-1.333.736v-.528a.167.167,0,0,0-.177-.177l-.177,0a.167.167,0,0,0-.177.177v3.956a.167.167,0,0,0,.177.177h.177a.167.167,0,0,0,.177-.177v-2.14a1.466,1.466,0,0,1,1.213-1.487.516.516,0,0,1,.06,0c.141.017.229-.046.229-.164v-.21A.16.16,0,0,0,325.864,360.94Z" transform="translate(-291.61 -359.332)" fill="#59b377"/>
      <path id="Trazado_835" data-name="Trazado 835" d="M336.785,360.62c-1.21,0-1.905.822-1.905,2.252a1.966,1.966,0,0,0,2.057,2.253,2.793,2.793,0,0,0,1.323-.316.161.161,0,0,0,.087-.208l-.056-.137a.186.186,0,0,0-.114-.11.162.162,0,0,0-.133.023,2.195,2.195,0,0,1-1.1.258,1.43,1.43,0,0,1-1.529-1.512h3.005a.165.165,0,0,0,.177-.177v-.266A1.807,1.807,0,0,0,336.785,360.62Zm1.289,2.02h-2.662c.052-1.015.512-1.529,1.371-1.529C337.887,361.111,338.068,362.053,338.075,362.64Z" transform="translate(-300.228 -359.079)" fill="#59b377"/>
      <path id="Trazado_836" data-name="Trazado 836" d="M357.17,362.568l-.116-.044c-.639-.233-.944-.366-.944-.813,0-.275.108-.591.946-.591a2.967,2.967,0,0,1,1.059.193.166.166,0,0,0,.144,0,.151.151,0,0,0,.075-.094l.056-.143a.154.154,0,0,0,0-.127.178.178,0,0,0-.1-.087,3.109,3.109,0,0,0-1.254-.235c-1.194,0-1.443.589-1.443,1.082,0,.8.611,1.025,1.2,1.244l.266.1c.68.254,1.034.406,1.034.867,0,.3-.11.7-1.067.7a3.392,3.392,0,0,1-1.169-.21.172.172,0,0,0-.135-.008.17.17,0,0,0-.094.106l-.056.144a.161.161,0,0,0,.087.206l.019.01a3.834,3.834,0,0,0,1.364.243,1.735,1.735,0,0,0,1.267-.4,1.072,1.072,0,0,0,.3-.792C358.6,363.105,357.875,362.833,357.17,362.568Z" transform="translate(-316.605 -359.087)" fill="#59b377"/>
      <path id="Trazado_837" data-name="Trazado 837" d="M374.788,360.63a3.891,3.891,0,0,0-1.5.308.154.154,0,0,0-.1.208l.056.173a.173.173,0,0,0,.225.085,3.184,3.184,0,0,1,1.3-.275c.786,0,1.092.287,1.092,1.025v.285c-1.76.046-2.995.191-2.995,1.41,0,.772.566,1.25,1.477,1.25a1.819,1.819,0,0,0,1.518-.616v.374a.167.167,0,0,0,.177.177h.162a.167.167,0,0,0,.177-.177l0-2.72C376.377,361.123,375.857,360.63,374.788,360.63Zm-.41,3.987c-.632,0-.994-.283-.994-.776,0-.79.942-.876,2.481-.934v.458C375.865,364.126,375.281,364.617,374.378,364.617Z" transform="translate(-330.316 -359.087)" fill="#59b377"/>
      <path id="Trazado_838" data-name="Trazado 838" d="M408.122,353.6h-.185a.167.167,0,0,0-.177.177v5.514a.167.167,0,0,0,.177.177h.185a.174.174,0,0,0,.185-.177v-5.514A.175.175,0,0,0,408.122,353.6Z" transform="translate(-357.95 -353.519)" fill="#59b377"/>
      <path id="Trazado_839" data-name="Trazado 839" d="M417.44,355.932l-.129-.056c-.075-.033-.148-.062-.22-.094-.618-.26-1.065-.449-1.065-1.119,0-.626.441-.93,1.35-.93a2.856,2.856,0,0,1,1.142.2.164.164,0,0,0,.233-.1l.064-.162c.021-.052.033-.148-.112-.225a3.407,3.407,0,0,0-1.339-.235c-1.637,0-1.88.909-1.88,1.452,0,1.027.772,1.346,1.518,1.651l.2.081c.718.3,1.337.551,1.337,1.294,0,.643-.553,1.025-1.479,1.025a3.885,3.885,0,0,1-1.362-.218.164.164,0,0,0-.135-.008.17.17,0,0,0-.094.106l-.064.162c-.021.052-.033.148.11.223a4.091,4.091,0,0,0,1.554.252,2.239,2.239,0,0,0,1.616-.532,1.373,1.373,0,0,0,.389-1C419.069,356.629,418.241,356.276,417.44,355.932Z" transform="translate(-363.992 -353.21)" fill="#59b377"/>
      <path id="Trazado_840" data-name="Trazado 840" d="M440.14,359.261,438,353.749a.2.2,0,0,0-.2-.139h-.21a.2.2,0,0,0-.2.148l-2.14,5.5a.152.152,0,0,0,.01.15.159.159,0,0,0,.133.067h.218a.194.194,0,0,0,.187-.131l.605-1.581h2.569l.614,1.583a.183.183,0,0,0,.177.129h.218a.156.156,0,0,0,.154-.216Zm-1.348-2.013H436.6l1.092-2.862Z" transform="translate(-379.714 -353.527)" fill="#59b377"/>
    </g>
  </g>
</svg>
