<svg xmlns="http://www.w3.org/2000/svg" width="171.457" height="47.906" viewBox="0 0 171.457 47.906">
  <g id="Logo_appimotion_black_hor" transform="translate(-820.762 -5595.924)">
    <g id="Logo_Appimotion_White_hor" transform="translate(820.762 5595.924)">
      <path id="Trazado_106" data-name="Trazado 106" d="M409.905,239.567q-.185-.145-.186-.651v-5.386a6.1,6.1,0,0,0-1.167-4.034,4.826,4.826,0,0,0-3.875-1.38,10.728,10.728,0,0,0-1.512.106,5.377,5.377,0,0,0-1.314.345,2.723,2.723,0,0,0-.928.611l1.923,1.724c.23-.088.459-.167.69-.239a3.048,3.048,0,0,1,.876-.106q2.441,0,2.441,2.334v1.168a8.867,8.867,0,0,0-2.389-.319q-4.962,0-4.962,4.006v.08a4.045,4.045,0,0,0,1.1,2.973,4.414,4.414,0,0,0,3.277,1.113,5.3,5.3,0,0,0,3.609-1.273c.5.8,1.569,1.218,3.393,1.194l-.5-2.07a1.073,1.073,0,0,1-.477-.2m-3.052-.969a3.964,3.964,0,0,1-1.22.716,3.9,3.9,0,0,1-1.3.213,2.174,2.174,0,0,1-1.552-.437,1.668,1.668,0,0,1-.438-1.234v-.08a3.167,3.167,0,0,1,.08-.716,1.27,1.27,0,0,1,.318-.6,1.617,1.617,0,0,1,.677-.4,3.628,3.628,0,0,1,1.128-.146,8.568,8.568,0,0,1,1.115.08q.61.079,1.194.211Z" transform="translate(-349.661 -211.429)" fill="#262626"/>
      <path id="Trazado_107" data-name="Trazado 107" d="M426,228.117a5.889,5.889,0,0,0-1.951.319,11.05,11.05,0,0,0-1.844.849c-.336-.46-.973-1.114-2.993-.829l.606,2.09a1.144,1.144,0,0,1,.4.649,4.139,4.139,0,0,1,.08.9V247l2.866-.922v-4.7a6.99,6.99,0,0,0,1.366.411,6.913,6.913,0,0,0,1.261.12,5.433,5.433,0,0,0,2.255-.411,3.8,3.8,0,0,0,1.46-1.128,4.427,4.427,0,0,0,.8-1.711,9.381,9.381,0,0,0,.238-2.19v-3.264a5.586,5.586,0,0,0-1.168-3.689,4.13,4.13,0,0,0-3.37-1.406m1.672,8.359a4.194,4.194,0,0,1-.491,2.3,1.911,1.911,0,0,1-1.712.73,6.507,6.507,0,0,1-1.074-.107,6.179,6.179,0,0,1-1.234-.345V232.1a2.887,2.887,0,0,0-.027-.385,3.717,3.717,0,0,0-.08-.411,7.43,7.43,0,0,1,1.287-.531,4.173,4.173,0,0,1,1.181-.185q2.15,0,2.15,2.627Z" transform="translate(-356.286 -211.429)" fill="#262626"/>
      <path id="Trazado_108" data-name="Trazado 108" d="M483.755,228.117a6.283,6.283,0,0,0-2.044.318,8.806,8.806,0,0,0-1.884.93,4.26,4.26,0,0,0-1.367-.93,4.382,4.382,0,0,0-1.711-.318,6.154,6.154,0,0,0-1.9.3,8.54,8.54,0,0,0-1.844.862,2.589,2.589,0,0,0-.177-.216c-.042-.047-.088-.092-.134-.134s-.089-.075-.139-.112c-.023-.017-.043-.039-.068-.055a1.045,1.045,0,0,0-.163-.088,3.754,3.754,0,0,0-2.314-.222l.607,2.089a1.149,1.149,0,0,1,.4.649,4.158,4.158,0,0,1,.079.9h0v9.846h2.866v-9.872c0-.088,0-.181-.013-.279a2.713,2.713,0,0,0-.04-.278,6.507,6.507,0,0,1,1.274-.623,3.977,3.977,0,0,1,1.38-.252,1.853,1.853,0,0,1,.929.2,1.438,1.438,0,0,1,.544.557,2.4,2.4,0,0,1,.265.849,8.127,8.127,0,0,1,.066,1.075v8.624h2.866v-9.208a4.112,4.112,0,0,0-.027-.478,3.383,3.383,0,0,0-.079-.451,4.4,4.4,0,0,1,1.18-.85,3.021,3.021,0,0,1,1.341-.318,1.8,1.8,0,0,1,1.486.623,2.352,2.352,0,0,1,.5,1.526v9.155H488.5v-9.208a4.576,4.576,0,0,0-1.247-3.344,4.678,4.678,0,0,0-3.5-1.274" transform="translate(-373.356 -211.429)" fill="#262626"/>
      <path id="Trazado_109" data-name="Trazado 109" d="M511.813,229.47a4.8,4.8,0,0,0-1.671-1.021,7.4,7.4,0,0,0-4.631,0,4.786,4.786,0,0,0-1.685,1.021A4.258,4.258,0,0,0,502.8,231a5.156,5.156,0,0,0-.345,1.91V237.1a5.182,5.182,0,0,0,.345,1.9,4.224,4.224,0,0,0,1.021,1.54,4.776,4.776,0,0,0,1.685,1.021,7.4,7.4,0,0,0,4.631,0,4.785,4.785,0,0,0,1.671-1.021,4.227,4.227,0,0,0,1.022-1.54,5.2,5.2,0,0,0,.344-1.9v-4.193a5.17,5.17,0,0,0-.344-1.91,4.261,4.261,0,0,0-1.022-1.526m-1.5,7.629a2.27,2.27,0,0,1-.623,1.7,3.175,3.175,0,0,1-3.743,0,2.267,2.267,0,0,1-.623-1.7V232.88a2.233,2.233,0,0,1,.623-1.672,3.175,3.175,0,0,1,3.743,0,2.235,2.235,0,0,1,.623,1.672Z" transform="translate(-384.26 -211.415)" fill="#262626"/>
      <path id="Trazado_110" data-name="Trazado 110" d="M555.776,229.47a4.8,4.8,0,0,0-1.671-1.021,7.4,7.4,0,0,0-4.631,0,4.787,4.787,0,0,0-1.685,1.021A4.268,4.268,0,0,0,546.767,231a5.17,5.17,0,0,0-.345,1.91V237.1a5.2,5.2,0,0,0,.345,1.9,4.234,4.234,0,0,0,1.022,1.54,4.776,4.776,0,0,0,1.685,1.021,7.4,7.4,0,0,0,4.631,0,4.791,4.791,0,0,0,1.671-1.021A4.217,4.217,0,0,0,556.8,239a5.2,5.2,0,0,0,.345-1.9v-4.193A5.17,5.17,0,0,0,556.8,231a4.251,4.251,0,0,0-1.022-1.526m-1.5,7.629a2.268,2.268,0,0,1-.623,1.7,3.174,3.174,0,0,1-3.742,0,2.267,2.267,0,0,1-.623-1.7V232.88a2.233,2.233,0,0,1,.623-1.672,3.174,3.174,0,0,1,3.742,0,2.233,2.233,0,0,1,.623,1.672Z" transform="translate(-399.034 -211.415)" fill="#262626"/>
      <path id="Trazado_111" data-name="Trazado 111" d="M575.8,229.59a4.234,4.234,0,0,0-3.476-1.393,6.4,6.4,0,0,0-1.818.279,6.684,6.684,0,0,0-1.844.888,1.956,1.956,0,0,0-.261-.329l-.021-.021c-.031-.031-.062-.059-.1-.088-.019-.016-.037-.033-.056-.047-.038-.029-.078-.057-.12-.085l-.01-.007a3.563,3.563,0,0,0-2.481-.3l.607,2.089a1.147,1.147,0,0,1,.4.649,4.155,4.155,0,0,1,.079.893v9.854h2.867V232.1a2.855,2.855,0,0,0-.08-.637,4.88,4.88,0,0,1,2.494-.823,1.861,1.861,0,0,1,1.552.69,3.108,3.108,0,0,1,.544,1.963v8.678h2.866v-8.678a5.665,5.665,0,0,0-1.141-3.7" transform="translate(-405.484 -211.456)" fill="#262626"/>
      <path id="Trazado_112" data-name="Trazado 112" d="M446.107,228.117a5.892,5.892,0,0,0-1.951.319,11.021,11.021,0,0,0-1.844.849c-.337-.46-.973-1.114-2.994-.829l.607,2.09a1.144,1.144,0,0,1,.4.649,4.137,4.137,0,0,1,.08.9V247l2.866-.922v-4.7a6.99,6.99,0,0,0,1.366.411,6.913,6.913,0,0,0,1.261.12,5.437,5.437,0,0,0,2.255-.411,3.81,3.81,0,0,0,1.46-1.128,4.435,4.435,0,0,0,.8-1.711,9.419,9.419,0,0,0,.238-2.19v-3.264a5.586,5.586,0,0,0-1.168-3.689,4.13,4.13,0,0,0-3.37-1.406m1.672,8.359a4.194,4.194,0,0,1-.491,2.3,1.911,1.911,0,0,1-1.712.73,6.507,6.507,0,0,1-1.074-.107,6.167,6.167,0,0,1-1.234-.345V232.1a2.9,2.9,0,0,0-.027-.385,3.575,3.575,0,0,0-.08-.411,7.43,7.43,0,0,1,1.287-.531,4.173,4.173,0,0,1,1.18-.185q2.15,0,2.15,2.627Z" transform="translate(-363.041 -211.429)" fill="#262626"/>
      <path id="Trazado_113" data-name="Trazado 113" d="M464.346,240.086c-.124-.1-.186-.313-.186-.65V229.1l-2.866.428v9.593c.058,1.833.622,3.4,4.029,3.237l-.5-2.07a1.065,1.065,0,0,1-.478-.2" transform="translate(-370.426 -211.758)" fill="#262626"/>
      <path id="Trazado_114" data-name="Trazado 114" d="M462.607,224.988a1.717,1.717,0,1,0-1.717-1.718,1.718,1.718,0,0,0,1.717,1.718" transform="translate(-370.291 -209.223)" fill="#262626"/>
      <path id="Trazado_115" data-name="Trazado 115" d="M540.247,240.086c-.124-.1-.186-.313-.186-.65V229.1l-2.866.428v9.593c.058,1.833.623,3.4,4.029,3.237l-.5-2.07a1.069,1.069,0,0,1-.478-.2" transform="translate(-395.933 -211.758)" fill="#262626"/>
      <path id="Trazado_116" data-name="Trazado 116" d="M538.508,224.988a1.717,1.717,0,1,0-1.718-1.718,1.718,1.718,0,0,0,1.718,1.718" transform="translate(-395.797 -209.223)" fill="#262626"/>
      <path id="Trazado_117" data-name="Trazado 117" d="M527.154,238.509a1.051,1.051,0,0,1-.477-.2q-.186-.145-.186-.65v-7.743h2.165V227.64h-2.165v-3.232h-1.759l-.811,3.232h-1.4v2.277h1.107v7.425c.059,1.833.622,3.4,4.03,3.237a9.348,9.348,0,0,0,1.56-.378l-1.009-1.813a3.71,3.71,0,0,1-1.052.122" transform="translate(-391.001 -210.182)" fill="#262626"/>
      <path id="Trazado_118" data-name="Trazado 118" d="M343.7,249.618c-.242.131-.491.251-.745.365.254-.114.5-.234.745-.365" transform="translate(-330.659 -218.654)" fill="#262626"/>
      <path id="Trazado_119" data-name="Trazado 119" d="M333.455,238.908l-.727-1.406a12.8,12.8,0,0,1-1.1-5.2,12.935,12.935,0,0,1,8.148-11.974,28.147,28.147,0,0,0-3.709.9,21.2,21.2,0,0,0-6.281,3.119,15.544,15.544,0,0,0-3.016,3.023c-1.749,2.329-2.973,5.873-1.984,8.738a7.555,7.555,0,0,0,6.72,5.072,11.227,11.227,0,0,0,3.115-.32L333.51,239c-.019-.03-.037-.062-.054-.093" transform="translate(-324.435 -208.81)" fill="#262626"/>
      <path id="Trazado_120" data-name="Trazado 120" d="M342.509,250.19c-.258.115-.522.22-.789.317.268-.1.531-.2.789-.317" transform="translate(-330.243 -218.846)" fill="#262626"/>
      <path id="Trazado_121" data-name="Trazado 121" d="M341.147,250.8c.121-.039.244-.075.363-.118-.12.043-.243.077-.365.117Z" transform="translate(-330.051 -219.01)" fill="#262626"/>
      <path id="Trazado_122" data-name="Trazado 122" d="M341.713,250.667l-.017.007.017-.007" transform="translate(-330.235 -219.007)" fill="#262626"/>
      <path id="Trazado_123" data-name="Trazado 123" d="M344.818,248.964c-.24.153-.487.3-.74.434.253-.136.5-.281.74-.434" transform="translate(-331.036 -218.434)" fill="#262626"/>
      <path id="Trazado_124" data-name="Trazado 124" d="M342.941,250.166l-.032.016.032-.016" transform="translate(-330.643 -218.838)" fill="#262626"/>
      <path id="Trazado_125" data-name="Trazado 125" d="M348.235,225.879l-.008-5.531-.136,0c-.108,0-.216.007-.325.012a12.008,12.008,0,0,0-11.121,11.942,11.877,11.877,0,0,0,1.009,4.81l.74,1.421,1.241,2.064c.121-.04.244-.074.365-.117l.017-.007q.4-.143.789-.317l.031-.015c.253-.113.5-.234.744-.364s.5-.28.74-.434a14.5,14.5,0,0,0,2.7-2.209,6.217,6.217,0,0,1,3.213-11.259" transform="translate(-328.538 -208.818)" fill="#262626"/>
      <path id="Trazado_126" data-name="Trazado 126" d="M366.462,250.19a12.1,12.1,0,0,0,1.173.444v0a12.109,12.109,0,0,1-1.175-.441" transform="translate(-338.558 -218.846)" fill="#262626"/>
      <path id="Trazado_127" data-name="Trazado 127" d="M374.833,227.361a15.564,15.564,0,0,0-3.017-3.023,21.174,21.174,0,0,0-6.28-3.119,28.3,28.3,0,0,0-3.709-.9A12.933,12.933,0,0,1,369.98,232.3a12.776,12.776,0,0,1-1.086,5.175l-.784,1.51-1.123,1.868a11.291,11.291,0,0,0,3.11.319,7.554,7.554,0,0,0,6.72-5.073c.989-2.864-.235-6.409-1.984-8.738" transform="translate(-337 -208.81)" fill="#262626"/>
      <path id="Trazado_128" data-name="Trazado 128" d="M365.163,238.471l.712-1.38a11.861,11.861,0,0,0,1-4.784,12.01,12.01,0,0,0-11.134-11.943c-.1,0-.2-.008-.313-.011l-.138,0,.007,5.529a6.218,6.218,0,0,1,3.222,11.29,14.519,14.519,0,0,0,2.674,2.18c.24.154.488.3.741.435s.493.252.747.365l.028.015a12.07,12.07,0,0,0,1.176.441Z" transform="translate(-334.803 -208.818)" fill="#262626"/>
      <path id="Trazado_129" data-name="Trazado 129" d="M357.037,207.559a4.579,4.579,0,1,1-4.579-4.577,4.578,4.578,0,0,1,4.579,4.577" transform="translate(-332.314 -202.982)" fill="#262626"/>
      <path id="Trazado_130" data-name="Trazado 130" d="M357.579,251.988h.539l1-1.69a12.667,12.667,0,0,1-3.164-1.446,15.36,15.36,0,0,1-2.976-2.468,6.193,6.193,0,0,1-5.656-.021,15.357,15.357,0,0,1-3,2.488,12.642,12.642,0,0,1-3.162,1.446l1,1.69h15.417Z" transform="translate(-330.056 -217.56)" fill="#262626"/>
      <path id="Trazado_131" data-name="Trazado 131" d="M349.973,267.172l3.13,5.287,3.129-5.287Z" transform="translate(-333.017 -224.553)" fill="#262626"/>
      <path id="Trazado_132" data-name="Trazado 132" d="M349.973,267.172l3.13,5.287Z" transform="translate(-333.017 -224.553)" fill="#262626"/>
      <path id="Trazado_133" data-name="Trazado 133" d="M344.048,257.163l-.566-.957Z" transform="translate(-330.836 -220.868)" fill="#262626"/>
      <path id="Trazado_134" data-name="Trazado 134" d="M360.211,262.576l3.771-6.37Z" transform="translate(-336.457 -220.868)" fill="#262626"/>
      <path id="Trazado_135" data-name="Trazado 135" d="M347.252,262.576h7.337l3.771-6.37H343.482l.566.957Z" transform="translate(-330.835 -220.868)" fill="#262626"/>
    </g>
  </g>
</svg>
