<svg xmlns="http://www.w3.org/2000/svg" viewBox="0 0 40.4 48.19"><defs><style>.cls-1{fill:#2b824a;}</style></defs><g id="Capa_2" data-name="Capa 2"><g id="Capa_1-2" data-name="Capa 1"><path id="Trazado_148" data-name="Trazado 148" class="cls-1" d="M13.11,31.14a6.53,6.53,0,0,1-.75.37,6.53,6.53,0,0,0,.75-.37"/><path id="Trazado_149" data-name="Trazado 149" class="cls-1" d="M9.07,30.27l-.73-1.41a12.75,12.75,0,0,1-1.1-5.23,13,13,0,0,1,8.2-12,29.37,29.37,0,0,0-3.73.9,21.24,21.24,0,0,0-6.32,3.14,15.63,15.63,0,0,0-3,3c-1.76,2.34-3,5.91-2,8.79a7.6,7.6,0,0,0,6.76,5.1,11.44,11.44,0,0,0,3.14-.32L9.13,30.36l-.06-.09"/><path id="Trazado_150" data-name="Trazado 150" class="cls-1" d="M12.33,31.53l-.79.32c.27-.1.53-.2.79-.32"/><path id="Trazado_151" data-name="Trazado 151" class="cls-1" d="M11.16,32l.36-.12c-.12,0-.24.08-.37.12Z"/><path id="Trazado_152" data-name="Trazado 152" class="cls-1" d="M11.54,31.85h0"/><path id="Trazado_153" data-name="Trazado 153" class="cls-1" d="M13.86,30.71c-.24.15-.49.3-.75.44.26-.14.5-.29.75-.44"/><path id="Trazado_154" data-name="Trazado 154" class="cls-1" d="M12.36,31.51l0,0,0,0"/><path id="Trazado_155" data-name="Trazado 155" class="cls-1" d="M19.8,17.16V11.6h-.47A12,12,0,0,0,9.16,28.46l.74,1.43L11.15,32l.37-.12h0c.26-.1.53-.2.79-.32h0l.75-.37a8,8,0,0,0,.74-.44,13.83,13.83,0,0,0,2.72-2.22A6.26,6.26,0,0,1,19.8,17.15"/><path id="Trazado_156" data-name="Trazado 156" class="cls-1" d="M28.06,31.53a10.51,10.51,0,0,0,1.18.44h0a10.51,10.51,0,0,1-1.18-.44"/><path id="Trazado_157" data-name="Trazado 157" class="cls-1" d="M38.05,18.66a15.86,15.86,0,0,0-3-3,21.48,21.48,0,0,0-6.32-3.14,29.79,29.79,0,0,0-3.73-.9,13,13,0,0,1,7.11,17.25l-.79,1.52-1.13,1.88a11.33,11.33,0,0,0,3.13.32,7.59,7.59,0,0,0,6.76-5.1c1-2.88-.24-6.44-2-8.79"/><path id="Trazado_158" data-name="Trazado 158" class="cls-1" d="M30.54,29.83l.71-1.39a11.75,11.75,0,0,0,1-4.81,12.09,12.09,0,0,0-11.2-12H20.6v5.56a6.26,6.26,0,0,1,3.24,11.36,14.16,14.16,0,0,0,2.69,2.19c.24.16.49.3.74.44s.5.25.75.37h0c.39.17.78.32,1.18.45Z"/><path id="Trazado_159" data-name="Trazado 159" class="cls-1" d="M24.87,4.6A4.61,4.61,0,1,1,20.25,0h0a4.62,4.62,0,0,1,4.61,4.6"/><path id="Trazado_160" data-name="Trazado 160" class="cls-1" d="M27.68,34.63h.54l1-1.7a13.25,13.25,0,0,1-3.18-1.45,15.58,15.58,0,0,1-3-2.49,6.24,6.24,0,0,1-5.69,0,15.33,15.33,0,0,1-3,2.5,12.9,12.9,0,0,1-3.18,1.46l1,1.7Z"/><path id="Trazado_161" data-name="Trazado 161" class="cls-1" d="M17.05,42.87l3.15,5.32,3.15-5.32Z"/><path id="Trazado_162" data-name="Trazado 162" class="cls-1" d="M17.05,42.87l3.15,5.32Z"/><path id="Trazado_163" data-name="Trazado 163" class="cls-1" d="M13.29,36.51l-.57-1Z"/><path id="Trazado_164" data-name="Trazado 164" class="cls-1" d="M23.89,42l3.79-6.4Z"/><path id="Trazado_165" data-name="Trazado 165" class="cls-1" d="M16.51,42h7.38l3.79-6.4h-15l.57,1Z"/></g></g></svg>