<?xml version="1.0" encoding="UTF-8"?><svg id="Capa_2" xmlns="http://www.w3.org/2000/svg" viewBox="0 0 112.63 62.78"><defs><style>.cls-1{fill:#fd7c31;}.cls-2{fill:#7cc64b;}.cls-3{fill:#fe7b31;}.cls-4{fill:#fead39;}</style></defs><g id="Capa_1-2"><g id="Grupo_121"><path id="Trazado_2026" class="cls-1" d="M112.62,61.85c-.1,.43-.45,.76-.88,.83-.37,.08-.75,0-1.07-.19-.24-.15-.45-.33-.63-.54-.35-.4-.7-.81-1.05-1.21l-1.8-2.09-1.66-1.92c-.26-.3-.51-.6-.77-.89-.05-.05-.09-.12-.18-.14-.03,.09-.04,.19-.03,.28v5.45c0,.14,0,.28-.03,.42-.11,.54-.61,.91-1.16,.85-.53-.05-.94-.47-.98-1v-9.11c0-.11,0-.21,.02-.32,.12-.6,.71-.99,1.31-.87,.04,0,.08,.02,.12,.03,.4,.09,.75,.31,1.02,.62,.76,.87,1.51,1.75,2.27,2.63,.78,.91,1.57,1.81,2.35,2.72,.26,.3,.52,.61,.79,.92,.05,.08,.12,.14,.21,.19,.04-.09,.05-.19,.03-.28v-5.69c-.01-.33,.13-.65,.38-.87,.44-.39,1.12-.34,1.5,.1,.1,.11,.17,.24,.21,.38,.01,.04,.03,.08,.04,.12v9.61Z"/><path id="Trazado_2027" class="cls-4" d="M0,53.57c.05-.08,.08-.16,.11-.25,.12-.35,.42-.61,.79-.66,.11-.02,.21-.03,.32-.03h7.51c.11,0,.23,0,.34,.03,.53,.1,.88,.61,.79,1.14-.09,.47-.5,.81-.97,.8-.81,0-1.63,0-2.44,0-.45,0-.43-.03-.43,.42v6.38c.02,.3-.07,.59-.24,.83-.36,.44-1.01,.51-1.45,.16-.21-.17-.35-.42-.38-.7,0-.11,0-.21,0-.32,0-2.13,0-4.25,0-6.38,0-.42,0-.4-.41-.4-.8,0-1.59-.02-2.39,0-.48,.03-.93-.28-1.05-.75-.01-.06-.04-.11-.08-.15v-.14Z"/><path id="Trazado_2028" class="cls-3" d="M71.62,23.78v9.63c.03,2.58-2.04,4.7-4.62,4.73-1.24,.02-2.44-.46-3.33-1.33-.83-.79-1.33-1.87-1.39-3.02-.03-.44-.03-.89-.03-1.33V14.39c-.02-.75,.12-1.5,.41-2.19,.41-.92,1.1-1.69,1.98-2.19,1.73-.99,3.9-.77,5.39,.56,.88,.77,1.44,1.85,1.57,3.01,.02,.22,.03,.44,.02,.66v9.53"/><path id="Trazado_2029" class="cls-2" d="M37.85,23.78c0-3.23,.02-6.46,0-9.68,0-2.36,1.76-4.34,4.1-4.64,2.57-.3,4.9,1.54,5.2,4.11,.02,.19,.03,.37,.03,.56,0,6.44,0,12.88,0,19.32,.02,1.99-1.22,3.77-3.09,4.43-1.66,.64-3.54,.24-4.8-1.02-.77-.72-1.27-1.68-1.42-2.72-.03-.23-.04-.46-.03-.69,0-2.28,0-4.57,0-6.85,0-.93,0-1.87,0-2.81"/><path id="Trazado_2030" class="cls-4" d="M50.07,21.95c0-2.62,0-5.24,0-7.86,0-2.57,2.07-4.67,4.64-4.68,1.33,0,2.6,.56,3.49,1.55,.77,.83,1.2,1.92,1.19,3.05,0,5.29,.02,10.57,0,15.86,.02,1.66-.88,3.2-2.35,3.99-.74,.45-1.61,.67-2.47,.62-1.11-.03-2.17-.47-2.99-1.23-.8-.72-1.32-1.7-1.48-2.77-.03-.25-.04-.51-.03-.76v-7.78h0Z"/><path id="Trazado_2031" class="cls-1" d="M66.61,0c12.7,6.14,18.02,21.42,11.88,34.12-6.14,12.7-21.42,18.02-34.12,11.88-3.46-1.67-6.49-4.1-8.88-7.11,.6,.56,1.17,1.15,1.8,1.69s1.27,1.04,1.94,1.52c.68,.48,1.38,.93,2.1,1.34,.72,.41,1.46,.79,2.22,1.12,.75,.33,1.52,.63,2.3,.89,.79,.26,1.59,.48,2.4,.66,.81,.18,1.63,.31,2.45,.42s1.64,.15,2.45,.18c.83,.02,1.66,0,2.48-.08,.83-.06,1.65-.16,2.47-.31,.81-.14,1.61-.32,2.4-.54,.8-.22,1.59-.48,2.36-.79,.77-.3,1.53-.64,2.27-1.02,.73-.37,1.45-.78,2.14-1.23,.7-.45,1.38-.93,2.02-1.45,.65-.51,1.28-1.06,1.87-1.64,.58-.58,1.16-1.16,1.69-1.79,.54-.63,1.04-1.29,1.51-1.97,3.98-5.71,5.4-12.83,3.9-19.63-1.48-6.8-5.7-12.68-11.66-16.27"/><path id="Trazado_2032" class="cls-1" d="M43.49,55.74c-.11,.02-.15,.1-.21,.16-.72,.73-1.44,1.47-2.15,2.2-.31,.32-.75,.48-1.19,.43-.34-.02-.66-.18-.88-.44-.72-.75-1.45-1.5-2.18-2.24-.06-.06-.11-.14-.21-.17-.03,.1-.04,.2-.02,.3v5.52c.02,.39-.15,.75-.46,.99-.35,.3-.84,.36-1.25,.16-.42-.18-.7-.58-.72-1.04,0-.05,0-.1,0-.15v-8.77c-.02-.68,.52-1.25,1.2-1.27,.34,0,.67,.13,.91,.37,.4,.39,.78,.8,1.17,1.2,.79,.81,1.57,1.61,2.36,2.41,.05,.05,.1,.09,.14,.14,.08,.09,.15,.08,.23,0,.17-.19,.35-.37,.52-.55,1.03-1.05,2.06-2.1,3.09-3.15,.22-.24,.52-.39,.84-.42,.67-.06,1.27,.44,1.32,1.12,0,.02,0,.05,0,.07,0,.08,0,.16,0,.25v8.42c0,.16,0,.31-.03,.47-.12,.66-.75,1.1-1.41,.98-.46-.08-.83-.42-.95-.86-.05-.18-.07-.37-.07-.56v-5.3c.02-.1,0-.2-.03-.29"/><path id="Trazado_2033" class="cls-1" d="M57.33,57.04v-4.19c0-.17,.01-.35,.05-.51,.1-.47,.47-.84,.94-.94,.15-.03,.31-.05,.47-.05,1.22,0,2.43,0,3.65,0,.86-.02,1.71,.15,2.49,.5,1.12,.53,2,1.46,2.46,2.61,.66,1.54,.7,3.27,.12,4.83-.43,1.31-1.39,2.37-2.64,2.94-.6,.28-1.25,.43-1.91,.44-1.46,.01-2.92,0-4.39,0-.6,.01-1.12-.43-1.2-1.03-.02-.15-.03-.29-.03-.44v-4.19m2.46-.05v3.3c0,.25,.03,.27,.27,.27h2.76c.26,0,.52-.06,.77-.15,.66-.25,1.19-.74,1.47-1.38,.61-1.24,.62-2.7,.02-3.95-.2-.44-.51-.81-.9-1.1-.5-.35-1.09-.52-1.7-.5-.79,0-1.58,0-2.37,0-.33,0-.33,0-.33,.33v3.18"/><path id="Trazado_2034" class="cls-1" d="M47.81,57.05v-4.21c0-.16,.01-.33,.04-.49,.1-.48,.47-.85,.95-.95,.14-.03,.28-.04,.42-.04h5.45c.35-.03,.69,.09,.95,.33,.31,.28,.41,.72,.26,1.11-.13,.41-.51,.7-.94,.72-.09,0-.18,0-.27,0h-4.04c-.36,0-.36,0-.36,.35v1.58c0,.32,.01,.34,.33,.34h3.3c.16,0,.31,0,.47,.04,.58,.11,.97,.67,.86,1.25-.09,.49-.5,.85-1,.88-.08,0-.16,0-.25,0h-3.48c-.21,0-.24,.03-.24,.24v2.14c0,.18,.03,.2,.2,.21h4.34c.25,0,.49,.07,.69,.21,.37,.27,.52,.75,.39,1.19-.13,.43-.52,.73-.97,.74-.48,.01-.97,0-1.45,0-1.46,0-2.92,0-4.39,0-.38,.01-.75-.16-.99-.46-.2-.27-.3-.59-.28-.92v-4.25"/><path id="Trazado_2035" class="cls-1" d="M69.45,57.04v-4.31c-.02-.39,.13-.77,.41-1.04,.27-.23,.62-.35,.98-.33h5.39c.16,0,.31,.01,.47,.04,.58,.11,.97,.67,.86,1.25-.09,.48-.5,.85-.99,.88-.09,0-.18,0-.27,0h-4.14c-.23,0-.25,.03-.25,.26v1.72c0,.25,.03,.28,.29,.28h3.4c.28-.02,.56,.05,.8,.2,.38,.25,.56,.72,.44,1.16-.12,.44-.5,.76-.96,.8-.09,0-.18,0-.27,0h-3.4c-.29,0-.3,.02-.3,.31v2.12c0,.08,.05,.16,.13,.17,.01,0,.02,0,.03,0h4.41c.59,0,1.08,.46,1.08,1.06,0,.55-.41,1.02-.96,1.08-.09,0-.18,0-.27,0-1.86,0-3.71-.02-5.57,0-.71,.03-1.3-.52-1.33-1.23,0-.03,0-.07,0-.1,0-1.45,0-2.89,0-4.33"/><path id="Trazado_2036" class="cls-4" d="M14.38,58.6h-2.79c-.17,.01-.21,.06-.15,.22,.24,.92,.97,1.63,1.9,1.85,.48,.09,.97,.08,1.44-.03,.48-.06,.95-.24,1.34-.53,.44-.25,.99-.14,1.3,.26,.18,.27,.18,.63,0,.9-.23,.34-.54,.62-.91,.82-.48,.25-1,.4-1.53,.43-.35,.04-.7,.06-1.06,.06-.95,.01-1.87-.3-2.62-.87-2.15-1.57-2.63-4.58-1.06-6.73,.07-.1,.14-.19,.22-.28,.72-.89,1.78-1.46,2.92-1.57,1.15-.14,2.31,.22,3.17,.99,.87,.76,1.43,1.81,1.57,2.96,.03,.22,.03,.44,0,.66-.03,.36-.27,.66-.62,.75-.19,.06-.38,.09-.58,.09h-2.56Zm-.68-1.69h1.99c.25,0,.31-.08,.24-.3-.29-1.15-1.46-1.85-2.61-1.56-.01,0-.02,0-.03,0-.77,.18-1.41,.73-1.71,1.47-.15,.32-.11,.39,.25,.39h1.87"/><path id="Trazado_2037" class="cls-4" d="M28.68,58.6h-2.74c-.2,.01-.24,.05-.18,.24,.25,.91,.97,1.61,1.89,1.83,.38,.07,.77,.08,1.15,.02,.62-.06,1.21-.27,1.73-.6,.47-.24,1.04-.05,1.27,.42,.02,.04,.04,.09,.06,.14,.05,.23,0,.47-.14,.65-.3,.43-.72,.76-1.2,.95-.45,.17-.92,.27-1.39,.3-.3,.03-.6,.04-.91,.04-1.11,0-2.19-.43-2.99-1.2-1.71-1.53-2.09-4.05-.92-6.02,.6-1.06,1.61-1.83,2.79-2.12,.93-.25,1.92-.16,2.79,.24,.81,.37,1.49,.99,1.93,1.77,.34,.59,.56,1.25,.65,1.92,.02,.17,.02,.34,0,.52-.02,.41-.32,.75-.72,.83-.18,.04-.36,.06-.54,.06h-2.54Zm-.65-1.69h2.04c.19-.02,.25-.09,.19-.28-.28-1.15-1.44-1.86-2.6-1.59-.82,.18-1.49,.76-1.79,1.55-.12,.25-.07,.32,.22,.33h1.94"/><path id="Trazado_2038" class="cls-1" d="M81.42,56.58v3.64c0,.32,0,.33,.33,.33h3.97c.45-.03,.87,.25,1.02,.68,.23,.53-.02,1.15-.55,1.38-.12,.05-.24,.08-.37,.08h-.17c-1.79,0-3.58-.02-5.37,0-.72,.01-1.31-.56-1.32-1.28,0-.02,0-.04,0-.06,.01-2.89,0-5.78,0-8.67-.05-.65,.42-1.23,1.07-1.32,.66-.09,1.26,.37,1.35,1.03,0,.03,0,.05,0,.08,.06,.89,.02,1.79,.03,2.68,0,.47,0,.94,0,1.4"/><path id="Trazado_2039" class="cls-1" d="M88.42,57.04v-4.38c-.01-.35,.13-.69,.38-.93,.33-.34,.83-.44,1.27-.27,.47,.16,.78,.6,.78,1.1,.01,.89,0,1.79,0,2.68v5.05c0,.26,.01,.27,.28,.27,1.34,0,2.68,0,4.01,0,.32-.02,.62,.11,.84,.35,.3,.3,.38,.76,.2,1.14-.14,.39-.52,.65-.93,.65-1.21,0-2.41,0-3.62,0-.63,0-1.27-.03-1.9,0-.71,.02-1.3-.53-1.32-1.24,0-.03,0-.06,0-.09,.03-1.44,0-2.89,0-4.33"/><path id="Trazado_2040" class="cls-1" d="M97.83,57.02v-4.21c0-.16,0-.31,.04-.46,.13-.66,.77-1.08,1.43-.95,.48,.1,.85,.47,.95,.94,.03,.14,.05,.29,.04,.44,0,2.84,0,5.68,0,8.52,0,.13-.01,.26-.04,.39-.11,.66-.74,1.11-1.4,.99-.37-.06-.68-.29-.86-.62-.12-.23-.17-.48-.16-.74v-4.31"/><path id="Trazado_2041" class="cls-4" d="M20.06,56.07v-5.1c0-.18,.02-.36,.09-.53,.17-.39,.56-.63,.98-.61,.44,.03,.81,.34,.92,.77,.03,.12,.04,.24,.04,.37v10.27c.02,.38-.16,.74-.47,.95-.46,.31-1.08,.18-1.39-.28-.1-.15-.15-.31-.17-.49,0-.09,0-.18,0-.27v-5.07"/><path id="Trazado_2042" class="cls-1" d="M99.56,50.86c-.38-.02-.72-.26-.86-.61-.16-.33-.08-.73,.19-.97,.46-.45,.91-.89,1.38-1.33,.27-.3,.73-.35,1.06-.11,.4,.21,.59,.67,.45,1.09-.04,.13-.11,.24-.21,.33-.48,.46-.96,.92-1.44,1.38-.16,.15-.37,.22-.58,.22"/></g></g></svg>