<svg id="Logo_Appimotion_White_hor" xmlns="http://www.w3.org/2000/svg" width="225.977" height="63.139" viewBox="0 0 225.977 63.139">
  <path id="Trazado_106" data-name="Trazado 106" d="M413.213,243.208q-.244-.192-.245-.858v-7.1a8.038,8.038,0,0,0-1.538-5.317q-1.54-1.817-5.107-1.818a14.141,14.141,0,0,0-1.993.14,7.088,7.088,0,0,0-1.732.455,3.589,3.589,0,0,0-1.223.805l2.535,2.273c.3-.116.606-.22.909-.315a4.018,4.018,0,0,1,1.154-.139q3.217,0,3.218,3.077v1.539a11.686,11.686,0,0,0-3.148-.42q-6.539,0-6.539,5.28v.106a5.331,5.331,0,0,0,1.452,3.919,5.818,5.818,0,0,0,4.319,1.467,6.978,6.978,0,0,0,4.756-1.678c.654,1.048,2.068,1.6,4.473,1.574l-.661-2.728a1.414,1.414,0,0,1-.629-.263m-4.022-1.277a5.224,5.224,0,0,1-1.608.943,5.145,5.145,0,0,1-1.714.281,2.865,2.865,0,0,1-2.045-.576,2.2,2.2,0,0,1-.578-1.627v-.106a4.173,4.173,0,0,1,.105-.943,1.674,1.674,0,0,1,.419-.788,2.131,2.131,0,0,1,.892-.524,4.782,4.782,0,0,1,1.487-.193,11.29,11.29,0,0,1,1.469.106q.8.1,1.573.278Z" transform="translate(-333.813 -206.122)" fill="#fff"/>
  <path id="Trazado_107" data-name="Trazado 107" d="M428.163,228.117a7.761,7.761,0,0,0-2.571.42,14.56,14.56,0,0,0-2.431,1.119c-.443-.606-1.282-1.468-3.945-1.092l.8,2.755a1.508,1.508,0,0,1,.523.856,5.454,5.454,0,0,1,.1,1.188v19.646l3.777-1.215V245.6a9.212,9.212,0,0,0,1.8.542,9.109,9.109,0,0,0,1.662.158,7.161,7.161,0,0,0,2.972-.542,5.008,5.008,0,0,0,1.924-1.487,5.834,5.834,0,0,0,1.05-2.255,12.362,12.362,0,0,0,.314-2.886v-4.3a7.363,7.363,0,0,0-1.539-4.862,5.444,5.444,0,0,0-4.441-1.853m2.2,11.017a5.527,5.527,0,0,1-.648,3.025,2.519,2.519,0,0,1-2.256.963,8.577,8.577,0,0,1-1.416-.141,8.145,8.145,0,0,1-1.627-.454v-9.164a3.81,3.81,0,0,0-.035-.508,4.921,4.921,0,0,0-.1-.542,9.791,9.791,0,0,1,1.7-.7,5.5,5.5,0,0,1,1.556-.244q2.834,0,2.833,3.463Z" transform="translate(-336.276 -206.122)" fill="#fff"/>
  <path id="Trazado_108" data-name="Trazado 108" d="M488.124,228.117a8.28,8.28,0,0,0-2.693.419,11.607,11.607,0,0,0-2.483,1.225,5.615,5.615,0,0,0-1.8-1.225,5.775,5.775,0,0,0-2.255-.419,8.111,8.111,0,0,0-2.5.4,11.254,11.254,0,0,0-2.43,1.137,3.41,3.41,0,0,0-.233-.284c-.056-.062-.116-.121-.177-.177s-.117-.1-.183-.148c-.031-.023-.057-.052-.09-.073a1.377,1.377,0,0,0-.214-.116,4.948,4.948,0,0,0-3.05-.292l.8,2.753a1.514,1.514,0,0,1,.523.856,5.483,5.483,0,0,1,.1,1.19v12.975h3.778V233.328c0-.116-.006-.239-.018-.368a3.578,3.578,0,0,0-.052-.367,8.577,8.577,0,0,1,1.679-.822,5.242,5.242,0,0,1,1.818-.333,2.442,2.442,0,0,1,1.224.263,1.9,1.9,0,0,1,.717.734,3.157,3.157,0,0,1,.349,1.119,10.714,10.714,0,0,1,.088,1.417v11.366H484.8V234.2a5.415,5.415,0,0,0-.036-.63,4.464,4.464,0,0,0-.1-.594,5.8,5.8,0,0,1,1.556-1.12,3.981,3.981,0,0,1,1.767-.419,2.372,2.372,0,0,1,1.958.822,3.1,3.1,0,0,1,.664,2.011v12.066h3.778V234.2a6.031,6.031,0,0,0-1.643-4.407,6.166,6.166,0,0,0-4.617-1.679" transform="translate(-342.622 -206.122)" fill="#fff"/>
  <path id="Trazado_109" data-name="Trazado 109" d="M514.787,229.913a6.32,6.32,0,0,0-2.2-1.346,9.748,9.748,0,0,0-6.1,0,6.308,6.308,0,0,0-2.221,1.346,5.612,5.612,0,0,0-1.346,2.012,6.8,6.8,0,0,0-.455,2.518v5.526a6.83,6.83,0,0,0,.455,2.5,5.567,5.567,0,0,0,1.346,2.029,6.3,6.3,0,0,0,2.221,1.346,9.748,9.748,0,0,0,6.1,0,6.306,6.306,0,0,0,2.2-1.346,5.57,5.57,0,0,0,1.348-2.029,6.847,6.847,0,0,0,.453-2.5v-5.526a6.813,6.813,0,0,0-.453-2.518,5.615,5.615,0,0,0-1.348-2.012m-1.976,10.055a2.991,2.991,0,0,1-.821,2.238,4.184,4.184,0,0,1-4.933,0,2.988,2.988,0,0,1-.821-2.238v-5.561a2.943,2.943,0,0,1,.821-2.2,4.184,4.184,0,0,1,4.933,0,2.946,2.946,0,0,1,.821,2.2Z" transform="translate(-346.675 -206.117)" fill="#fff"/>
  <path id="Trazado_110" data-name="Trazado 110" d="M558.751,229.913a6.328,6.328,0,0,0-2.2-1.346,9.749,9.749,0,0,0-6.1,0,6.309,6.309,0,0,0-2.221,1.346,5.626,5.626,0,0,0-1.347,2.012,6.813,6.813,0,0,0-.455,2.518v5.526a6.847,6.847,0,0,0,.455,2.5,5.581,5.581,0,0,0,1.347,2.029,6.3,6.3,0,0,0,2.221,1.346,9.749,9.749,0,0,0,6.1,0,6.314,6.314,0,0,0,2.2-1.346,5.558,5.558,0,0,0,1.347-2.029,6.849,6.849,0,0,0,.454-2.5v-5.526a6.815,6.815,0,0,0-.454-2.518,5.6,5.6,0,0,0-1.347-2.012m-1.976,10.055a2.989,2.989,0,0,1-.822,2.238,4.183,4.183,0,0,1-4.932,0,2.989,2.989,0,0,1-.822-2.238v-5.561a2.944,2.944,0,0,1,.822-2.2,4.183,4.183,0,0,1,4.932,0,2.944,2.944,0,0,1,.822,2.2Z" transform="translate(-352.168 -206.117)" fill="#fff"/>
  <path id="Trazado_111" data-name="Trazado 111" d="M579.039,230.033a5.58,5.58,0,0,0-4.582-1.836,8.431,8.431,0,0,0-2.4.368,8.81,8.81,0,0,0-2.431,1.171,2.571,2.571,0,0,0-.344-.434c-.009-.01-.018-.018-.028-.027-.04-.04-.082-.078-.128-.116-.025-.021-.049-.043-.073-.062-.05-.039-.1-.075-.158-.112l-.013-.01a4.7,4.7,0,0,0-3.27-.4l.8,2.754a1.513,1.513,0,0,1,.522.855,5.473,5.473,0,0,1,.1,1.177v12.988h3.779V233.338a3.759,3.759,0,0,0-.106-.839A6.432,6.432,0,0,1,574,231.415a2.453,2.453,0,0,1,2.046.909,4.1,4.1,0,0,1,.718,2.588v11.437h3.777V234.911a7.466,7.466,0,0,0-1.5-4.879" transform="translate(-354.565 -206.132)" fill="#fff"/>
  <path id="Trazado_112" data-name="Trazado 112" d="M448.266,228.117a7.765,7.765,0,0,0-2.571.42,14.521,14.521,0,0,0-2.43,1.119c-.444-.606-1.283-1.468-3.947-1.092l.8,2.755a1.508,1.508,0,0,1,.523.856,5.449,5.449,0,0,1,.105,1.188v19.646l3.777-1.215V245.6a9.211,9.211,0,0,0,1.8.542,9.111,9.111,0,0,0,1.662.158,7.166,7.166,0,0,0,2.973-.542,5.022,5.022,0,0,0,1.924-1.487,5.846,5.846,0,0,0,1.049-2.255,12.414,12.414,0,0,0,.314-2.886v-4.3a7.362,7.362,0,0,0-1.539-4.862,5.444,5.444,0,0,0-4.441-1.853m2.2,11.017a5.528,5.528,0,0,1-.648,3.025,2.519,2.519,0,0,1-2.256.963,8.577,8.577,0,0,1-1.416-.141,8.128,8.128,0,0,1-1.627-.454v-9.164a3.81,3.81,0,0,0-.035-.508,4.716,4.716,0,0,0-.105-.542,9.794,9.794,0,0,1,1.7-.7,5.5,5.5,0,0,1,1.556-.244q2.834,0,2.833,3.463Z" transform="translate(-338.787 -206.122)" fill="#fff"/>
  <path id="Trazado_113" data-name="Trazado 113" d="M465.316,243.58q-.245-.19-.245-.857V229.1l-3.777.564V242.3c.077,2.416.82,4.475,5.31,4.267l-.658-2.728a1.4,1.4,0,0,1-.63-.263" transform="translate(-341.533 -206.244)" fill="#fff"/>
  <path id="Trazado_114" data-name="Trazado 114" d="M463.153,226.08a2.263,2.263,0,1,0-2.263-2.264,2.264,2.264,0,0,0,2.263,2.264" transform="translate(-341.482 -205.302)" fill="#fff"/>
  <path id="Trazado_115" data-name="Trazado 115" d="M541.217,243.58q-.245-.19-.245-.857V229.1l-3.777.564V242.3c.077,2.416.821,4.475,5.31,4.267l-.658-2.728a1.408,1.408,0,0,1-.63-.263" transform="translate(-351.015 -206.244)" fill="#fff"/>
  <path id="Trazado_116" data-name="Trazado 116" d="M539.055,226.08a2.263,2.263,0,1,0-2.265-2.264,2.264,2.264,0,0,0,2.265,2.264" transform="translate(-350.964 -205.302)" fill="#fff"/>
  <path id="Trazado_117" data-name="Trazado 117" d="M528.629,242.993a1.385,1.385,0,0,1-.629-.263q-.246-.192-.245-.857V231.668h2.854v-3h-2.854v-4.26h-2.318l-1.069,4.26h-1.849v3h1.46v9.786c.078,2.416.82,4.476,5.311,4.266a12.325,12.325,0,0,0,2.056-.5l-1.329-2.39a4.89,4.89,0,0,1-1.386.16" transform="translate(-349.181 -205.659)" fill="#fff"/>
  <path id="Trazado_118" data-name="Trazado 118" d="M343.938,249.618c-.319.172-.648.331-.982.48.334-.15.662-.308.982-.48" transform="translate(-326.749 -208.808)" fill="#fff"/>
  <path id="Trazado_119" data-name="Trazado 119" d="M336.324,244.816l-.958-1.853a16.877,16.877,0,0,1-1.447-6.856,17.048,17.048,0,0,1,10.739-15.782,37.1,37.1,0,0,0-4.888,1.18,27.942,27.942,0,0,0-8.278,4.11,20.488,20.488,0,0,0-3.975,3.984c-2.306,3.07-3.919,7.741-2.615,11.517a9.957,9.957,0,0,0,8.857,6.685,14.8,14.8,0,0,0,4.1-.422l-1.467-2.44c-.025-.039-.049-.081-.072-.123" transform="translate(-324.435 -205.149)" fill="#fff"/>
  <path id="Trazado_120" data-name="Trazado 120" d="M342.76,250.19c-.34.151-.688.29-1.04.417.353-.128.7-.266,1.04-.417" transform="translate(-326.594 -208.88)" fill="#fff"/>
  <path id="Trazado_121" data-name="Trazado 121" d="M341.148,250.833c.16-.052.321-.1.479-.156-.158.057-.32.1-.48.154Z" transform="translate(-326.522 -208.941)" fill="#fff"/>
  <path id="Trazado_122" data-name="Trazado 122" d="M341.718,250.667l-.022.009.022-.009" transform="translate(-326.591 -208.939)" fill="#fff"/>
  <path id="Trazado_123" data-name="Trazado 123" d="M345.054,248.964c-.316.2-.642.393-.976.572.333-.179.66-.37.976-.572" transform="translate(-326.889 -208.727)" fill="#fff"/>
  <path id="Trazado_124" data-name="Trazado 124" d="M342.951,250.166l-.042.021.042-.021" transform="translate(-326.743 -208.877)" fill="#fff"/>
  <path id="Trazado_125" data-name="Trazado 125" d="M351.92,227.638l-.01-7.29-.179.006c-.143,0-.285.009-.429.016a15.826,15.826,0,0,0-14.657,15.74,15.653,15.653,0,0,0,1.33,6.339l.975,1.873,1.635,2.721c.159-.052.321-.1.48-.154l.022-.01q.528-.189,1.04-.417l.041-.02c.333-.149.662-.308.981-.48s.661-.369.976-.572a19.114,19.114,0,0,0,3.561-2.911,8.194,8.194,0,0,1,4.234-14.839" transform="translate(-325.96 -205.152)" fill="#fff"/>
  <path id="Trazado_126" data-name="Trazado 126" d="M366.462,250.19a15.949,15.949,0,0,0,1.546.585l0,0a15.959,15.959,0,0,1-1.548-.581" transform="translate(-329.685 -208.88)" fill="#fff"/>
  <path id="Trazado_127" data-name="Trazado 127" d="M378.969,229.6a20.511,20.511,0,0,0-3.976-3.984,27.906,27.906,0,0,0-8.277-4.11,37.3,37.3,0,0,0-4.888-1.18,17.045,17.045,0,0,1,10.745,15.783,16.838,16.838,0,0,1-1.431,6.821l-1.033,1.99-1.48,2.462a14.882,14.882,0,0,0,4.1.42,9.956,9.956,0,0,0,8.857-6.686c1.3-3.775-.31-8.447-2.615-11.516" transform="translate(-329.106 -205.149)" fill="#fff"/>
  <path id="Trazado_128" data-name="Trazado 128" d="M368.3,244.233l.939-1.818a15.633,15.633,0,0,0,1.313-6.3,15.829,15.829,0,0,0-14.674-15.741c-.126-.006-.27-.01-.412-.015l-.182-.005.009,7.287a8.2,8.2,0,0,1,4.247,14.88,19.135,19.135,0,0,0,3.525,2.874c.316.2.643.394.977.573s.649.332.984.48c.012.006.024.014.037.02a15.912,15.912,0,0,0,1.55.581Z" transform="translate(-328.289 -205.152)" fill="#fff"/>
  <path id="Trazado_129" data-name="Trazado 129" d="M359.949,209.014a6.034,6.034,0,1,1-6.034-6.032,6.034,6.034,0,0,1,6.034,6.032" transform="translate(-327.364 -202.982)" fill="#fff"/>
  <path id="Trazado_130" data-name="Trazado 130" d="M362.8,253.777h.711l1.319-2.228a16.7,16.7,0,0,1-4.171-1.906,20.246,20.246,0,0,1-3.923-3.253,8.162,8.162,0,0,1-7.455-.027,20.24,20.24,0,0,1-3.951,3.28,16.662,16.662,0,0,1-4.168,1.906l1.319,2.228H362.8Z" transform="translate(-326.524 -208.402)" fill="#fff"/>
  <path id="Trazado_131" data-name="Trazado 131" d="M349.973,267.172l4.125,6.968,4.124-6.968Z" transform="translate(-327.625 -211.001)" fill="#fff"/>
  <path id="Trazado_132" data-name="Trazado 132" d="M349.973,267.172l4.125,6.968Z" transform="translate(-327.625 -211.001)" fill="#fff"/>
  <path id="Trazado_133" data-name="Trazado 133" d="M344.228,257.467l-.746-1.261Z" transform="translate(-326.814 -209.631)" fill="#fff"/>
  <path id="Trazado_134" data-name="Trazado 134" d="M360.211,264.6l4.97-8.4Z" transform="translate(-328.904 -209.631)" fill="#fff"/>
  <path id="Trazado_135" data-name="Trazado 135" d="M348.451,264.6h9.67l4.969-8.4H343.482l.746,1.261Z" transform="translate(-326.814 -209.631)" fill="#fff"/>
</svg>
