<?xml version="1.0" encoding="UTF-8"?><svg id="Capa_2" xmlns="http://www.w3.org/2000/svg" viewBox="0 0 53.15 66.22"><defs><style>.cls-1{fill:#e30713;}</style></defs><g id="Capa_1-2"><g id="Grupo_119"><path id="Trazado_2018" class="cls-1" d="M10.74,39.13c-.04,.15-.08,.28-.13,.41l-.41,1.16h1.08l-.41-1.15c-.05-.15-.1-.29-.14-.42"/><path id="Trazado_2019" class="cls-1" d="M32.79,39.31c0-.15,0-.62-.93-.62-.14,0-.28,0-.42,.02v1.24h.43c.56,0,.91-.25,.91-.64"/><path id="Trazado_2020" class="cls-1" d="M31.83,40.66h-.39v1.51c.1,0,.22,.01,.39,.01,.41,0,1.11-.1,1.11-.76s-.78-.76-1.11-.76"/><path id="Trazado_2021" class="cls-1" d="M16.06,38.74c-.16,0-.32,0-.48,.03v1.44h.51c.59,0,.96-.28,.96-.74s-.33-.72-.98-.73"/><path id="Trazado_2022" class="cls-1" d="M53.15,4.44c0-.87-.27-1.72-.77-2.43C51.54,.73,50.09-.03,48.55,.02,32.6,0,16.64,0,.68,0Q0,0,0,.68V24.48c0,7.79,0,15.59,0,23.38-.07,.91,.09,1.82,.45,2.66,.81,1.67,2.54,2.7,4.4,2.61,6.98,.03,13.97,0,20.95,.01,.82,0,.74-.09,.74,.72v11.73c0,.14,0,.29,0,.43,0,.08,0,.19,.1,.2,.07,0,.13-.04,.17-.1,.45-.51,.97-.95,1.43-1.44,.6-.64,1.23-1.25,1.85-1.87,.75-.75,1.49-1.5,2.26-2.22,1.05-.99,2.03-2.05,3.05-3.07,1.35-1.35,2.72-2.68,4.07-4.03,.22-.24,.53-.38,.85-.37,4.05,.01,8.11,.01,12.16,0q.65,0,.65-.66V4.44M6.27,10.81c3.24,0,6.48,0,9.73,0,.55,0,1.11,0,1.66,0,.25,0,.36,.09,.35,.35-.01,.41-.01,.82,0,1.24,0,.27-.12,.36-.38,.41-1.11,.21-2.22,.45-3.33,.64-.34,.06-.4,.21-.4,.51,.01,1.75,0,3.5,0,5.25,0,4.32,0,8.65,0,12.97,0,.57,0,.57,.56,.57,1.61,0,3.21-.01,4.82,0,.3,.05,.58-.15,.63-.44,0-.02,0-.04,0-.06,.33-1.43,.69-2.86,1.06-4.28,.08-.23,.14-.46,.17-.7,.01-.23,.17-.34,.41-.34,.58,0,1.17,0,1.75,0,.24,0,.32,.1,.32,.33,0,2.49,0,4.98,0,7.47,0,.35-.22,.33-.45,.33H6.47q-.69,0-.69-.71v-.38c.02-1.02-.14-.78,.8-1.08,.52-.16,1.06-.3,1.59-.41,.3-.01,.54-.27,.52-.57,0-.02,0-.04,0-.06-.02-2.99,0-5.97,0-8.96V14.07c0-.34,0-.56-.45-.64-.69-.12-1.36-.37-2.05-.55-.28-.07-.44-.2-.41-.53,.03-.37,.03-.74,0-1.11-.03-.4,.18-.43,.49-.43m2.28,32.05h-2.93v-4.84h.88v4.09h2.05v.75Zm3.47,0l-.51-1.44h-1.52l-.5,1.44h-.91l1.73-4.84h.93l1.73,4.84h-.93Zm5.23,.05l-.04-.06c-.15-.36-.27-.74-.34-1.13-.13-.58-.34-.77-.84-.79h-.45v1.98h-.88v-4.75l.1-.02c.4-.07,.81-.1,1.22-.1,.52-.05,1.05,.09,1.48,.4,.28,.24,.43,.6,.42,.97,0,.51-.29,.97-.75,1.19,.29,.22,.48,.54,.54,.9,.08,.42,.2,.83,.36,1.22l.11,.19h-.93Zm4.36-.03h-2.96v-4.84h2.85v.75h-1.98v1.19h1.87v.75h-1.87v1.4h2.08v.75Zm3.34-2.35c-.43,.38-.99,.57-1.56,.54-.12,0-.25,0-.37-.02v1.81h-.88v-4.77l.11-.02c.4-.06,.81-.09,1.21-.09,.51-.04,1.02,.11,1.43,.41,.31,.26,.48,.65,.47,1.06,.02,.4-.13,.79-.41,1.07m4.8,.3c.15,1.01-.56,1.95-1.57,2.1-.13,.02-.25,.02-.38,.02-1.2,0-1.85-.74-1.85-2.09v-2.83h.88v2.84c0,.86,.35,1.33,.99,1.33,.69,0,1.04-.45,1.04-1.33v-2.84h.88v2.8Zm-2.4-2.93l.75-.91h1.01l-1.05,.91h-.72Zm6.07,4.54c-.51,.36-1.13,.52-1.75,.46-.33,0-.65-.02-.98-.06h-.11v-4.74l.1-.02c.38-.07,.77-.1,1.16-.1,.49-.04,.99,.08,1.4,.36,.29,.21,.46,.55,.45,.91,0,.42-.24,.8-.62,1,.48,.19,.79,.66,.79,1.17,0,.39-.16,.76-.45,1.01m4.05,.42h-2.94v-4.84h.88v4.09h2.06v.76Zm1.34,0h-.88v-4.84h.88v4.84Zm-1.03-17.1c-.51-1.08-1.59-1.77-2.78-1.77-.41-.02-.83,0-1.24,0-.27-.01-.39,.09-.4,.36,0,.2-.04,.4-.04,.59v6.14c0,.28,.05,.57,.06,.84,0,.43,.22,.51,.56,.58,.69,.14,1.35,.41,2.05,.53,.21,.03,.35,.23,.32,.44-.01,.38-.02,.77,0,1.15,.02,.35-.1,.48-.46,.47-.84-.02-1.68,0-2.52,0-2.55,0-5.09,0-7.64,0-.42,0-.56-.13-.52-.53,.02-.35,.02-.71,0-1.07-.03-.23,.12-.44,.35-.48,0,0,.02,0,.02,0,.71-.18,1.42-.38,2.13-.55,.34-.08,.4-.28,.4-.59,0-2.77,0-5.55,0-8.32V14.34c0-.85,0-.84-.82-1.03-.59-.14-1.17-.34-1.75-.49-.21-.03-.35-.22-.32-.42v-1.28c0-.22,.09-.31,.31-.3h.21c3.92,0,7.85-.05,11.77,.02,1.75-.01,3.47,.45,4.97,1.34,1.65,1,2.63,2.82,2.55,4.75,.11,2.18-1.1,4.22-3.07,5.17-.6,.33-1.26,.53-1.9,.83,.44,.32,.92,.5,1.34,.79,.98,.73,1.71,1.76,2.09,2.92,.48,1.25,.84,2.55,1.29,3.81,.18,.52,.42,1.03,.7,1.5,.35,.61,.95,1.04,1.64,1.18,.19,.01,.33,.18,.32,.36,0,.02,0,.03,0,.05-.02,.43,0,.85,0,1.28,.03,.16-.08,.32-.24,.35,0,0-.02,0-.03,0-1.35,.4-2.78,.45-4.16,.14-.99-.29-1.82-.97-2.31-1.88-.64-1.16-1.14-2.4-1.48-3.68-.35-1.37-.82-2.7-1.4-3.99m4.1,17.17c-1.28,.1-2.4-.85-2.5-2.13,0-.11,0-.21,0-.32-.03-1.37,1.05-2.5,2.41-2.54,.08,0,.15,0,.23,0,.38-.01,.76,.05,1.12,.18-.06,.27-.19,.75-.19,.75-.29-.12-.6-.18-.92-.18-.89-.08-1.67,.58-1.75,1.46,0,.1,0,.2,0,.3-.08,.87,.56,1.64,1.43,1.72,.1,0,.2,0,.29,0,.32,0,.63-.05,.93-.17l.21,.71c-.41,.15-.83,.22-1.27,.21m4.88-.07l-.51-1.44h-1.54l-.5,1.44h-.92l1.72-4.84h.93l1.73,4.84h-.92Z"/><path id="Trazado_2023" class="cls-1" d="M23.47,38.71c-.15,0-.31,0-.46,.03v1.57c.13,.02,.26,.03,.39,.02,.4,0,1.08-.11,1.08-.85,0-.64-.55-.77-1.01-.77"/><path id="Trazado_2024" class="cls-1" d="M45.45,39.13c-.04,.15-.09,.28-.13,.41l-.41,1.16h1.09l-.41-1.15c-.05-.15-.1-.29-.14-.42"/><path id="Trazado_2025" class="cls-1" d="M36.88,13.3c-.98-.12-1.97-.18-2.97-.16-.44-.03-.59,.16-.61,.54,0,.14-.01,.28-.01,.43v3.35c.06,1.08-.08,2.4,.07,3.72,.04,.32,.11,.42,.42,.4,1.13,.08,2.27,.02,3.39-.17,.97-.29,1.74-1.02,2.08-1.97,.44-1.24,.49-2.58,.15-3.84-.39-1.14-1.34-2.01-2.51-2.29"/></g></g></svg>